<?xml version="1.0" encoding="UTF-8"?>
<!DOCTYPE svg PUBLIC "-//W3C//DTD SVG 1.1//EN" "http://www.w3.org/Graphics/SVG/1.1/DTD/svg11.dtd">
<!-- Creator: CorelDRAW 2019 (64-Bit) -->
<svg xmlns="http://www.w3.org/2000/svg" xml:space="preserve" width="1.016cm" height="1.016cm" version="1.1" style="shape-rendering:geometricPrecision; text-rendering:geometricPrecision; image-rendering:optimizeQuality; fill-rule:evenodd; clip-rule:evenodd"
viewBox="0 0 0.495 0.495"
 xmlns:xlink="http://www.w3.org/1999/xlink"
 xmlns:xodm="http://www.corel.com/coreldraw/odm/2003">
 <defs>
  <style type="text/css">
   <![CDATA[
    .fil3 {fill:none}
    .fil2 {fill:#CC3300;fill-rule:nonzero}
    .fil1 {fill:#FF530F;fill-rule:nonzero}
    .fil0 {fill:#FF530F;fill-rule:nonzero}
   ]]>
  </style>
 </defs>
 <g id="Слой_x0020_1">
  <metadata id="CorelCorpID_0Corel-Layer"/>
  <g id="_2499122133200">
   <polygon class="fil0" points="0.208,0.209 0.211,0.229 0.35,0.205 0.36,0.27 0.222,0.293 0.238,0.385 0.147,0.4 0.105,0.154 0.375,0.109 0.387,0.178 "/>
   <g>
    <path class="fil1" d="M0.227 0.451c0.006,0.001 0.011,0.006 0.01,0.013 -0.001,0.006 -0.006,0.011 -0.013,0.01 -0.054,-0.005 -0.102,-0.029 -0.139,-0.066 -0.036,-0.036 -0.06,-0.085 -0.066,-0.139 -0.001,-0.006 0.004,-0.012 0.01,-0.013 0.006,-0.001 0.012,0.004 0.013,0.01 0.005,0.048 0.026,0.092 0.059,0.124 0.033,0.033 0.076,0.054 0.124,0.059zm0.041 -0.407c-0.006,-0.001 -0.011,-0.006 -0.01,-0.013 0.001,-0.006 0.006,-0.011 0.013,-0.01 0.054,0.005 0.102,0.029 0.139,0.066 0.036,0.036 0.06,0.085 0.066,0.139 0.001,0.006 -0.004,0.012 -0.01,0.013 -0.006,0.001 -0.012,-0.004 -0.013,-0.01 -0.005,-0.048 -0.026,-0.092 -0.059,-0.124 -0.033,-0.033 -0.076,-0.054 -0.124,-0.059z"/>
    <path class="fil2" d="M0.227 0.044c0.006,-0.001 0.011,-0.006 0.01,-0.013 -0.001,-0.006 -0.006,-0.011 -0.013,-0.01 -0.054,0.005 -0.102,0.029 -0.139,0.066 -0.036,0.036 -0.06,0.085 -0.066,0.139 -0.001,0.006 0.004,0.012 0.01,0.013 0.006,0.001 0.012,-0.004 0.013,-0.01 0.005,-0.048 0.026,-0.092 0.059,-0.124 0.033,-0.033 0.076,-0.054 0.124,-0.059zm0.041 0.407c-0.006,0.001 -0.011,0.006 -0.01,0.013 0.001,0.006 0.006,0.011 0.013,0.01 0.054,-0.005 0.102,-0.029 0.139,-0.066 0.036,-0.036 0.06,-0.085 0.066,-0.139 0.001,-0.006 -0.004,-0.012 -0.01,-0.013 -0.006,-0.001 -0.012,0.004 -0.013,0.01 -0.005,0.048 -0.026,0.092 -0.059,0.124 -0.033,0.033 -0.076,0.054 -0.124,0.059z"/>
   </g>
  </g>
  <rect class="fil3" width="0.495" height="0.495"/>
 </g>
</svg>
