{
  "accessors": [
    {
      "bufferView": 2,
      "componentType": 5126,
      "count": 281,
      "max": [
        0.5272252559661865,
        0.5543393492698669,
        0.026122570037841797
      ],
      "min": [
        -0.52724689245224,
        -0.44852331280708313,
        -0.0287663284689188
      ],
      "type": "VEC3"
    },
    {
      "bufferView": 2,
      "byteOffset": 3372,
      "componentType": 5126,
      "count": 281,
      "max": [
        0.9840532541275024,
        1.0,
        1.0
      ],
      "min": [
        -0.9843510389328003,
        -0.9999989867210388,
        -5.991469009813954e-08
      ],
      "type": "VEC3"
    },
    {
      "bufferView": 3,
      "componentType": 5126,
      "count": 281,
      "max": [
        0.9999904036521912,
        0.9635892510414124,
        0.992002010345459,
        1.0
      ],
      "min": [
        -0.5373403429985046,
        -0.9784300923347473,
        -0.9914158582687378,
        -1.0
      ],
      "type": "VEC4"
    },
    {
      "bufferView": 1,
      "componentType": 5126,
      "count": 281,
      "max": [
        0.9900071024894714,
        0.9885638952255249
      ],
      "min": [
        0.02012065052986145,
        0.06795397400856018
      ],
      "type": "VEC2"
    },
    {
      "bufferView": 0,
      "componentType": 5125,
      "count": 1320,
      "type": "SCALAR"
    }
  ],
  "asset": {
    "extras": {
      "author": "Ashkelon (https://sketchfab.com/Ashkelon)",
      "license": "CC-BY-4.0 (http://creativecommons.org/licenses/by/4.0/)",
      "source": "https://sketchfab.com/3d-models/ussr-star-456dcf58a4b04c2f852a0af6180e9d11",
      "title": "USSR star"
    },
    "generator": "Sketchfab-11.71.0",
    "version": "2.0"
  },
  "bufferViews": [
    {
      "buffer": 0,
      "byteLength": 5280,
      "name": "floatBufferViews",
      "target": 34963
    },
    {
      "buffer": 0,
      "byteLength": 2248,
      "byteOffset": 5280,
      "byteStride": 8,
      "name": "floatBufferViews",
      "target": 34962
    },
    {
      "buffer": 0,
      "byteLength": 6744,
      "byteOffset": 7528,
      "byteStride": 12,
      "name": "floatBufferViews",
      "target": 34962
    },
    {
      "buffer": 0,
      "byteLength": 4496,
      "byteOffset": 14272,
      "byteStride": 16,
      "name": "floatBufferViews",
      "target": 34962
    }
  ],
  "buffers": [
    {
      "byteLength": 18768,
      "uri": "scene.bin"
    }
  ],
  "images": [
    {
      "uri": "textures/Zvezda_baseColor.png"
    },
    {
      "uri": "textures/Zvezda_metallicRoughness.png"
    },
    {
      "uri": "textures/Zvezda_normal.png"
    }
  ],
  "materials": [
    {
      "doubleSided": true,
      "name": "Zvezda",
      "normalTexture": {
        "index": 2
      },
      "occlusionTexture": {
        "index": 1,
        "strength": 0.8772549842219507
      },
      "pbrMetallicRoughness": {
        "baseColorTexture": {
          "index": 0
        },
        "metallicFactor": 0.0,
        "metallicRoughnessTexture": {
          "index": 1
        },
        "roughnessFactor": 0.0
      }
    }
  ],
  "meshes": [
    {
      "name": "Cone_Zvezda_0",
      "primitives": [
        {
          "attributes": {
            "NORMAL": 1,
            "POSITION": 0,
            "TANGENT": 2,
            "TEXCOORD_0": 3
          },
          "indices": 4,
          "material": 0,
          "mode": 4
        }
      ]
    }
  ],
  "nodes": [
    {
      "children": [
        1
      ],
      "matrix": [
        1.0,
        0.0,
        0.0,
        0.0,
        0.0,
        2.220446049250313e-16,
        -1.0,
        0.0,
        0.0,
        1.0,
        2.220446049250313e-16,
        0.0,
        0.0,
        0.0,
        0.0,
        1.0
      ],
      "name": "Sketchfab_model"
    },
    {
      "children": [
        2
      ],
      "matrix": [
        1.0,
        0.0,
        0.0,
        0.0,
        0.0,
        0.0,
        1.0,
        0.0,
        0.0,
        -1.0,
        0.0,
        0.0,
        0.0,
        0.0,
        0.0,
        1.0
      ],
      "name": "8410258188df4f6b87d2b35a690920f0.fbx"
    },
    {
      "children": [
        3
      ],
      "name": "RootNode"
    },
    {
      "children": [
        4
      ],
      "matrix": [
        1.0,
        0.0,
        0.0,
        0.0,
        0.0,
        -1.6292067939183141e-07,
        -0.9999999999999868,
        0.0,
        0.0,
        0.9999999999999868,
        -1.6292067939183141e-07,
        0.0,
        0.0,
        0.0,
        0.0,
        1.0
      ],
      "name": "Cone"
    },
    {
      "mesh": 0,
      "name": "Cone_Zvezda_0"
    }
  ],
  "samplers": [
    {
      "magFilter": 9729,
      "minFilter": 9987,
      "wrapS": 10497,
      "wrapT": 10497
    }
  ],
  "scene": 0,
  "scenes": [
    {
      "name": "Sketchfab_Scene",
      "nodes": [
        0
      ]
    }
  ],
  "textures": [
    {
      "sampler": 0,
      "source": 0
    },
    {
      "sampler": 0,
      "source": 1
    },
    {
      "sampler": 0,
      "source": 2
    }
  ]
}
