{
    "asset" : {
        "generator" : "Khronos glTF Blender I/O v1.7.33",
        "version" : "2.0"
    },
    "scene" : 0,
    "scenes" : [
        {
            "name" : "Scene",
            "nodes" : [
                4,
                5,
                6
            ]
        }
    ],
    "nodes" : [
        {
            "mesh" : 0,
            "name" : "Star_Star_0"
        },
        {
            "children" : [
                0
            ],
            "name" : "Star",
            "rotation" : [
                -0.7071068286895752,
                0,
                0,
                0.7071067094802856
            ],
            "scale" : [
                100,
                100,
                100
            ]
        },
        {
            "children" : [
                1
            ],
            "name" : "RootNode"
        },
        {
            "children" : [
                2
            ],
            "name" : "037754053a0b43d8bd494290884e5758.fbx",
            "rotation" : [
                0.7071068286895752,
                0,
                0,
                0.7071068286895752
            ],
            "scale" : [
                0.009999999776482582,
                0.009999999776482582,
                0.009999999776482582
            ]
        },
        {
            "children" : [
                3
            ],
            "name" : "Sketchfab_model",
            "rotation" : [
                -0.7071068286895752,
                0,
                0,
                0.7071068286895752
            ],
            "translation" : [
                0,
                0,
                -10.238795280456543
            ]
        },
        {
            "mesh" : 1,
            "name" : "Sphere",
            "rotation" : [
                -0.6323258280754089,
                -0.12604846060276031,
                -0.14943209290504456,
                0.7496305108070374
            ],
            "translation" : [
                0.8301587104797363,
                -1.8806788921356201,
                -6.807955741882324
            ]
        },
        {
            "mesh" : 2,
            "name" : "Icosphere",
            "rotation" : [
                0,
                -0.040678348392248154,
                0,
                0.9991723895072937
            ],
            "translation" : [
                1.723293662071228,
                12.975491523742676,
                50.28468322753906
            ]
        }
    ],
    "materials" : [
        {
            "doubleSided" : true,
            "name" : "Star",
            "normalTexture" : {
                "index" : 0
            },
            "pbrMetallicRoughness" : {
                "baseColorTexture" : {
                    "index" : 1
                },
                "metallicRoughnessTexture" : {
                    "index" : 2
                }
            }
        },
        {
            "doubleSided" : true,
            "name" : "Material.003",
            "pbrMetallicRoughness" : {
                "baseColorTexture" : {
                    "index" : 3
                },
                "metallicFactor" : 0,
                "roughnessFactor" : 0.5
            }
        },
        {
            "doubleSided" : true,
            "name" : "Material.005",
            "pbrMetallicRoughness" : {
                "baseColorTexture" : {
                    "index" : 4
                },
                "metallicFactor" : 0,
                "roughnessFactor" : 0.5
            }
        }
    ],
    "meshes" : [
        {
            "name" : "Star_Star_0",
            "primitives" : [
                {
                    "attributes" : {
                        "POSITION" : 0,
                        "NORMAL" : 1,
                        "TEXCOORD_0" : 2,
                        "TEXCOORD_1" : 3,
                        "TEXCOORD_2" : 4
                    },
                    "indices" : 5,
                    "material" : 0
                }
            ]
        },
        {
            "name" : "Sphere",
            "primitives" : [
                {
                    "attributes" : {
                        "POSITION" : 6,
                        "NORMAL" : 7,
                        "TEXCOORD_0" : 8
                    },
                    "indices" : 9,
                    "material" : 1
                }
            ]
        },
        {
            "name" : "Icosphere.002",
            "primitives" : [
                {
                    "attributes" : {
                        "POSITION" : 10,
                        "NORMAL" : 11,
                        "TEXCOORD_0" : 12
                    },
                    "indices" : 13,
                    "material" : 2
                }
            ]
        }
    ],
    "textures" : [
        {
            "sampler" : 0,
            "source" : 0
        },
        {
            "sampler" : 0,
            "source" : 1
        },
        {
            "sampler" : 0,
            "source" : 2
        },
        {
            "sampler" : 0,
            "source" : 3
        },
        {
            "sampler" : 0,
            "source" : 3
        }
    ],
    "images" : [
        {
            "mimeType" : "image/png",
            "name" : "Star_normal",
            "uri" : "textures/Star_normal.png"
        },
        {
            "mimeType" : "image/png",
            "name" : "Star_baseColor",
            "uri" : "textures/Star_baseColor.png"
        },
        {
            "mimeType" : "image/png",
            "name" : "Star_metallicRoughness",
            "uri" : "textures/Star_metallicRoughness.png"
        },
        {
            "mimeType" : "image/jpeg",
            "name" : "abandoned_tank_farm_04_4k",
            "uri" : "textures/abandoned_tank_farm_04_4k.jpg"
        }
    ],
    "accessors" : [
        {
            "bufferView" : 0,
            "componentType" : 5126,
            "count" : 120,
            "max" : [
                28.618576049804688,
                5.731686592102051,
                30.09079360961914
            ],
            "min" : [
                -28.618576049804688,
                -5.73111629486084,
                -24.344417572021484
            ],
            "type" : "VEC3"
        },
        {
            "bufferView" : 1,
            "componentType" : 5126,
            "count" : 120,
            "type" : "VEC3"
        },
        {
            "bufferView" : 2,
            "componentType" : 5126,
            "count" : 120,
            "type" : "VEC2"
        },
        {
            "bufferView" : 3,
            "componentType" : 5126,
            "count" : 120,
            "type" : "VEC2"
        },
        {
            "bufferView" : 4,
            "componentType" : 5126,
            "count" : 120,
            "type" : "VEC2"
        },
        {
            "bufferView" : 5,
            "componentType" : 5123,
            "count" : 120,
            "type" : "SCALAR"
        },
        {
            "bufferView" : 6,
            "componentType" : 5126,
            "count" : 2064,
            "max" : [
                7.1422600746154785,
                9.206889152526855,
                6.243003845214844
            ],
            "min" : [
                -7.142101764678955,
                -9.206889152526855,
                -6.243027687072754
            ],
            "type" : "VEC3"
        },
        {
            "bufferView" : 7,
            "componentType" : 5126,
            "count" : 2064,
            "type" : "VEC3"
        },
        {
            "bufferView" : 8,
            "componentType" : 5126,
            "count" : 2064,
            "type" : "VEC2"
        },
        {
            "bufferView" : 9,
            "componentType" : 5123,
            "count" : 2880,
            "type" : "SCALAR"
        },
        {
            "bufferView" : 10,
            "componentType" : 5126,
            "count" : 245760,
            "max" : [
                100,
                100,
                100
            ],
            "min" : [
                -100,
                -100,
                -100
            ],
            "type" : "VEC3"
        },
        {
            "bufferView" : 11,
            "componentType" : 5126,
            "count" : 245760,
            "type" : "VEC3"
        },
        {
            "bufferView" : 12,
            "componentType" : 5126,
            "count" : 245760,
            "type" : "VEC2"
        },
        {
            "bufferView" : 13,
            "componentType" : 5125,
            "count" : 245760,
            "type" : "SCALAR"
        }
    ],
    "bufferViews" : [
        {
            "buffer" : 0,
            "byteLength" : 1440,
            "byteOffset" : 0
        },
        {
            "buffer" : 0,
            "byteLength" : 1440,
            "byteOffset" : 1440
        },
        {
            "buffer" : 0,
            "byteLength" : 960,
            "byteOffset" : 2880
        },
        {
            "buffer" : 0,
            "byteLength" : 960,
            "byteOffset" : 3840
        },
        {
            "buffer" : 0,
            "byteLength" : 960,
            "byteOffset" : 4800
        },
        {
            "buffer" : 0,
            "byteLength" : 240,
            "byteOffset" : 5760
        },
        {
            "buffer" : 0,
            "byteLength" : 24768,
            "byteOffset" : 6000
        },
        {
            "buffer" : 0,
            "byteLength" : 24768,
            "byteOffset" : 30768
        },
        {
            "buffer" : 0,
            "byteLength" : 16512,
            "byteOffset" : 55536
        },
        {
            "buffer" : 0,
            "byteLength" : 5760,
            "byteOffset" : 72048
        },
        {
            "buffer" : 0,
            "byteLength" : 2949120,
            "byteOffset" : 77808
        },
        {
            "buffer" : 0,
            "byteLength" : 2949120,
            "byteOffset" : 3026928
        },
        {
            "buffer" : 0,
            "byteLength" : 1966080,
            "byteOffset" : 5976048
        },
        {
            "buffer" : 0,
            "byteLength" : 983040,
            "byteOffset" : 7942128
        }
    ],
    "samplers" : [
        {
            "magFilter" : 9729,
            "minFilter" : 9987
        }
    ],
    "buffers" : [
        {
            "byteLength" : 8925168,
            "uri" : "scene3.bin"
        }
    ]
}
