{
	"accessors": [
		{
			"bufferView": 0,
			"byteOffset": 0,
			"componentType": 5126,
			"count": 100,
			"max": [
				28.618574142456055,
				5.73111629486084,
				30.09134864807129
			],
			"min": [
				-28.618576049804688,
				-5.73111629486084,
				-24.344417572021484
			],
			"type": "VEC3"
		},
		{
			"bufferView": 1,
			"byteOffset": 0,
			"componentType": 5126,
			"count": 100,
			"max": [
				0.9706989526748657,
				0.9103502035140991,
				0.9974461197853088
			],
			"min": [
				-0.9706989526748657,
				-0.9103502035140991,
				-0.8489331007003784
			],
			"type": "VEC3"
		},
		{
			"bufferView": 2,
			"byteOffset": 0,
			"componentType": 5126,
			"count": 100,
			"max": [
				0.07985256612300873,
				1.0,
				0.0,
				1.0
			],
			"min": [
				-0.9586524963378906,
				-1.0,
				-0.9943915605545044,
				1.0
			],
			"type": "VEC4"
		},
		{
			"bufferView": 3,
			"byteOffset": 0,
			"componentType": 5126,
			"count": 100,
			"max": [
				1.0,
				0.710787296295166
			],
			"min": [
				0.0,
				0.0
			],
			"type": "VEC2"
		},
		{
			"bufferView": 4,
			"byteOffset": 0,
			"componentType": 5126,
			"count": 100,
			"max": [
				1.0,
				0.710787296295166
			],
			"min": [
				0.0,
				0.0
			],
			"type": "VEC2"
		},
		{
			"bufferView": 5,
			"byteOffset": 0,
			"componentType": 5126,
			"count": 100,
			"max": [
				1.0,
				0.710787296295166
			],
			"min": [
				0.0,
				0.0
			],
			"type": "VEC2"
		},
		{
			"bufferView": 6,
			"byteOffset": 0,
			"componentType": 5125,
			"count": 120,
			"type": "SCALAR"
		}
	],
	"asset": {
		"extras": {
			"author": "AnshiNoWara (https://sketchfab.com/AnshiNoWara)",
			"created": "Tue Feb 22 13:58:05 2022",
			"license": "CC-BY-4.0 (http://creativecommons.org/licenses/by/4.0/)",
			"source": "https://sketchfab.com/3d-models/gold-star-5296c3fcf6c24e99a07de7cc77cb1209",
			"title": "Gold Star"
		},
		"generator": "Gestaltor 2021.7.1 Corn Community",
		"version": "2.0"
	},
	"bufferViews": [
		{
			"buffer": 0,
			"byteLength": 1200,
			"byteOffset": 0,
			"byteStride": 12,
			"target": 34962
		},
		{
			"buffer": 0,
			"byteLength": 1200,
			"byteOffset": 1200,
			"byteStride": 12,
			"target": 34962
		},
		{
			"buffer": 0,
			"byteLength": 1600,
			"byteOffset": 2400,
			"byteStride": 16,
			"target": 34962
		},
		{
			"buffer": 0,
			"byteLength": 800,
			"byteOffset": 4000,
			"byteStride": 8,
			"target": 34962
		},
		{
			"buffer": 0,
			"byteLength": 800,
			"byteOffset": 4800,
			"byteStride": 8,
			"target": 34962
		},
		{
			"buffer": 0,
			"byteLength": 800,
			"byteOffset": 5600,
			"byteStride": 8,
			"target": 34962
		},
		{
			"buffer": 0,
			"byteLength": 480,
			"byteOffset": 6400,
			"target": 34963
		}
	],
	"buffers": [
		{
			"byteLength": 6880,
			"uri": "scene.bin"
		}
	],
	"images": [
		{
			"mimeType": "image/png",
			"uri": "textures/Star_baseColor.png"
		},
		{
			"mimeType": "image/png",
			"uri": "textures/Star_metallicRoughness.png"
		},
		{
			"mimeType": "image/png",
			"uri": "textures/Star_normal.png"
		}
	],
	"materials": [
		{
			"doubleSided": true,
			"name": "Star",
			"normalTexture": {
				"index": 2
			},
			"pbrMetallicRoughness": {
				"baseColorTexture": {
					"index": 0
				},
				"metallicRoughnessTexture": {
					"index": 1
				}
			}
		}
	],
	"meshes": [
		{
			"name": "Star_Star_0",
			"primitives": [
				{
					"attributes": {
						"NORMAL": 1,
						"POSITION": 0,
						"TANGENT": 2,
						"TEXCOORD_0": 3,
						"TEXCOORD_1": 4,
						"TEXCOORD_2": 5
					},
					"indices": 6,
					"material": 0,
					"mode": 4
				}
			]
		}
	],
	"nodes": [
		{
			"children": [
				1
			],
			"matrix": [
				1.0,
				0.0,
				0.0,
				0.0,
				0.0,
				2.220446049250313e-16,
				-1.0,
				0.0,
				0.0,
				1.0,
				2.220446049250313e-16,
				0.0,
				0.0,
				0.0,
				0.0,
				1.0
			],
			"name": "Sketchfab_model"
		},
		{
			"children": [
				2
			],
			"matrix": [
				0.009999999776482582,
				0.0,
				0.0,
				0.0,
				0.0,
				2.2204459996194763e-18,
				0.009999999776482582,
				0.0,
				0.0,
				-0.009999999776482582,
				2.2204459996194763e-18,
				0.0,
				0.0,
				0.0,
				0.0,
				1.0
			],
			"name": "037754053a0b43d8bd494290884e5758.fbx"
		},
		{
			"children": [
				3
			],
			"name": "RootNode"
		},
		{
			"children": [
				4
			],
			"matrix": [
				100.0,
				0.0,
				0.0,
				0.0,
				0.0,
				-1.6292067894774224e-05,
				-99.99999999999866,
				0.0,
				0.0,
				99.99999999999866,
				-1.6292067894774224e-05,
				0.0,
				0.0,
				0.0,
				0.0,
				1.0
			],
			"name": "Star"
		},
		{
			"mesh": 0,
			"name": "Star_Star_0"
		}
	],
	"samplers": [
		{
			"magFilter": 9729,
			"minFilter": 9987,
			"wrapS": 10497,
			"wrapT": 10497
		}
	],
	"scene": 0,
	"scenes": [
		{
			"name": "Sketchfab_Scene",
			"nodes": [
				0
			]
		}
	],
	"textures": [
		{
			"sampler": 0,
			"source": 0
		},
		{
			"sampler": 0,
			"source": 1
		},
		{
			"sampler": 0,
			"source": 2
		}
	]
}