<?xml version="1.0" encoding="UTF-8"?>
<!DOCTYPE svg PUBLIC "-//W3C//DTD SVG 1.1//EN" "http://www.w3.org/Graphics/SVG/1.1/DTD/svg11.dtd">
<!-- Creator: CorelDRAW 2019 (64-Bit) -->
<svg xmlns="http://www.w3.org/2000/svg" xml:space="preserve" width="4.87151cm" height="1.70088cm" version="1.1" style="shape-rendering:geometricPrecision; text-rendering:geometricPrecision; image-rendering:optimizeQuality; fill-rule:evenodd; clip-rule:evenodd"
viewBox="0 0 11.061 3.862"
 xmlns:xlink="http://www.w3.org/1999/xlink"
 xmlns:xodm="http://www.corel.com/coreldraw/odm/2003">
 <defs>
  <style type="text/css">
   <![CDATA[
    .fil0 {fill:#5EEBBC}
    .fil1 {fill:#66FFCC}
    .fil4 {fill:#CC3300;fill-rule:nonzero}
    .fil3 {fill:#FF530F;fill-rule:nonzero}
    .fil2 {fill:#FF530F;fill-rule:nonzero}
   ]]>
  </style>
 </defs>
 <g id="Слой_x0020_1">
  <metadata id="CorelCorpID_0Corel-Layer"/>
  <g id="_2389487838352">
   <polygon class="fil0" points="9.957,0.735 11.061,0 11.061,0.188 9.957,0.923 "/>
   <polygon class="fil1" points="-0,0.735 1.107,0 11.061,0 9.957,0.735 "/>
   <rect class="fil1" y="0.735" width="9.957" height="3.127"/>
   <polygon class="fil0" points="10.107,3.748 10.107,0.635 9.957,0.735 9.957,3.862 "/>
   <g>
    <g>
     <polygon class="fil2" points="2.667,2.619 2.667,2.21 2.397,2.21 2.397,2.619 2.186,2.619 2.186,2.047 2.878,2.047 2.878,2.619 "/>
     <path id="1" class="fil2" d="M3.645 2.399c0,0.023 -0.006,0.041 -0.019,0.055 -0.013,0.014 -0.03,0.021 -0.052,0.021l-0.38 0 0 0.144 -0.211 0 0 -0.572 0.592 0c0.022,0 0.039,0.007 0.051,0.021 0.012,0.014 0.018,0.032 0.018,0.055l0 0.276zm-0.211 -0.197l-0.24 0 0 0.123 0.24 0 0 -0.123z"/>
     <path id="2" class="fil2" d="M4.434 2.543c0,0.023 -0.006,0.041 -0.018,0.055 -0.012,0.014 -0.029,0.021 -0.051,0.021l-0.553 0c-0.022,0 -0.039,-0.007 -0.051,-0.021 -0.012,-0.014 -0.018,-0.032 -0.018,-0.055l0 -0.421c0,-0.023 0.006,-0.041 0.018,-0.055 0.012,-0.014 0.029,-0.021 0.051,-0.021l0.553 0c0.022,0 0.039,0.007 0.051,0.021 0.012,0.014 0.018,0.032 0.018,0.055l0 0.421zm-0.211 -0.341l-0.27 0 0 0.262 0.27 0 0 -0.262z"/>
     <path id="3" class="fil2" d="M6.995 2.543c0,0.023 -0.006,0.041 -0.018,0.055 -0.012,0.014 -0.029,0.021 -0.051,0.021l-0.553 0c-0.022,0 -0.039,-0.007 -0.051,-0.021 -0.012,-0.014 -0.018,-0.032 -0.018,-0.055l0 -0.421c0,-0.023 0.006,-0.041 0.018,-0.055 0.012,-0.014 0.029,-0.021 0.051,-0.021l0.553 0c0.022,0 0.039,0.007 0.051,0.021 0.012,0.014 0.018,0.032 0.018,0.055l0 0.421zm-0.211 -0.341l-0.27 0 0 0.262 0.27 0 0 -0.262z"/>
     <path id="4" class="fil2" d="M7.555 2.619l-0.211 -0.21 0 -0.091 0.205 0 0 -0.115 -0.238 0 0 0.417 -0.211 0 0 -0.572 0.589 0c0.021,0 0.039,0.007 0.052,0.021 0.013,0.014 0.019,0.032 0.019,0.055l0 0.255c0,0.023 -0.006,0.041 -0.019,0.054 -0.013,0.013 -0.03,0.019 -0.052,0.019l-0.066 0 0.173 0.162 0 0.006 -0.241 0z"/>
     <path id="5" class="fil2" d="M8.544 2.543c0,0.023 -0.006,0.041 -0.019,0.055 -0.013,0.014 -0.03,0.021 -0.052,0.021l-0.55 0c-0.022,0 -0.039,-0.007 -0.052,-0.021 -0.013,-0.014 -0.019,-0.032 -0.019,-0.055l0 -0.496 0.211 0 0 0.41 0.27 0 0 -0.41 0.211 0 0 0.496z"/>
     <polygon id="6" class="fil2" points="9.244,2.619 9.244,2.389 9.144,2.619 8.957,2.619 8.856,2.389 8.856,2.619 8.649,2.619 8.649,2.047 8.88,2.047 9.05,2.408 9.051,2.408 9.221,2.047 9.448,2.047 9.448,2.619 "/>
     <path id="7" class="fil2" d="M5.206 2.325l0 -0.123 -0.126 0 0 0.123 0.126 0zm-0.337 -0.123l-0.125 0 0 0.123 0.125 0 0 -0.123zm0.472 -0.155c0.022,0 0.039,0.007 0.051,0.021 0.012,0.014 0.018,0.032 0.018,0.055l0 0.276c0,0.023 -0.006,0.041 -0.019,0.055 -0.013,0.014 -0.03,0.021 -0.052,0.021l-0.26 0 0 0.144 -0.211 0 0 -0.144 -0.26 0c-0.022,0 -0.039,-0.007 -0.052,-0.021 -0.013,-0.014 -0.019,-0.032 -0.019,-0.055l0 -0.276c0,-0.023 0.006,-0.041 0.018,-0.055 0.012,-0.014 0.029,-0.021 0.051,-0.021l0.734 0z"/>
     <polygon class="fil2" points="5.76,2.207 5.769,2.262 6.149,2.2 6.178,2.376 5.798,2.439 5.84,2.69 5.591,2.731 5.48,2.057 6.22,1.935 6.252,2.127 "/>
    </g>
    <g>
     <polygon class="fil2" points="1.055,2.187 1.065,2.245 1.467,2.179 1.498,2.366 1.096,2.432 1.139,2.698 0.876,2.742 0.758,2.027 1.543,1.898 1.576,2.101 "/>
     <g>
      <path class="fil3" d="M1.108 2.889c0.019,0.002 0.032,0.018 0.03,0.037 -0.002,0.019 -0.018,0.032 -0.037,0.03 -0.157,-0.015 -0.297,-0.085 -0.402,-0.19 -0.105,-0.105 -0.175,-0.246 -0.19,-0.402 -0.002,-0.019 0.012,-0.035 0.03,-0.037 0.019,-0.002 0.035,0.012 0.037,0.03 0.014,0.14 0.077,0.267 0.171,0.361 0.095,0.095 0.221,0.157 0.361,0.171zm0.118 -1.182c-0.019,-0.002 -0.032,-0.018 -0.03,-0.037 0.002,-0.019 0.018,-0.032 0.037,-0.03 0.157,0.015 0.297,0.085 0.402,0.19 0.105,0.105 0.175,0.246 0.19,0.402 0.002,0.019 -0.012,0.035 -0.03,0.037 -0.019,0.002 -0.035,-0.012 -0.037,-0.03 -0.014,-0.14 -0.077,-0.267 -0.171,-0.361 -0.095,-0.095 -0.221,-0.157 -0.361,-0.171z"/>
      <path class="fil4" d="M1.108 1.707c0.019,-0.002 0.032,-0.018 0.03,-0.037 -0.002,-0.019 -0.018,-0.032 -0.037,-0.03 -0.157,0.015 -0.297,0.085 -0.402,0.19 -0.105,0.105 -0.175,0.246 -0.19,0.402 -0.002,0.019 0.012,0.035 0.03,0.037 0.019,0.002 0.035,-0.012 0.037,-0.03 0.014,-0.14 0.077,-0.267 0.171,-0.361 0.095,-0.095 0.221,-0.157 0.361,-0.171zm0.118 1.182c-0.019,0.002 -0.032,0.018 -0.03,0.037 0.002,0.019 0.018,0.032 0.037,0.03 0.157,-0.015 0.297,-0.085 0.402,-0.19 0.105,-0.105 0.175,-0.246 0.19,-0.402 0.002,-0.019 -0.012,-0.035 -0.03,-0.037 -0.019,-0.002 -0.035,0.012 -0.037,0.03 -0.014,0.14 -0.077,0.267 -0.171,0.361 -0.095,0.095 -0.221,0.157 -0.361,0.171z"/>
     </g>
    </g>
   </g>
  </g>
 </g>
</svg>
