<?xml version="1.0" encoding="UTF-8"?>
<!DOCTYPE svg PUBLIC "-//W3C//DTD SVG 1.1//EN" "http://www.w3.org/Graphics/SVG/1.1/DTD/svg11.dtd">
<!-- Creator: CorelDRAW 2019 (64-Bit) -->
<svg xmlns="http://www.w3.org/2000/svg" xml:space="preserve" width="2.51533cm" height="0.56213cm" version="1.1" style="shape-rendering:geometricPrecision; text-rendering:geometricPrecision; image-rendering:optimizeQuality; fill-rule:evenodd; clip-rule:evenodd"
viewBox="0 0 4.451 0.995"
 xmlns:xlink="http://www.w3.org/1999/xlink"
 xmlns:xodm="http://www.corel.com/coreldraw/odm/2003">
 <defs>
  <style type="text/css">
   <![CDATA[
    .fil0 {fill:#3175CF}
    .fil2 {fill:#357EDE}
    .fil1 {fill:#748AE8}
    .fil3 {fill:white;fill-rule:nonzero}
   ]]>
  </style>
 </defs>
 <g id="Слой_x0020_1">
  <metadata id="CorelCorpID_0Corel-Layer"/>
  <polygon class="fil0" points="3.65,0.542 4.451,0 4.451,0.452 3.65,0.995 "/>
  <polygon class="fil1" points="3.65,0.542 -0,0.542 -0,0.995 3.65,0.995 "/>
  <polygon class="fil2" points="0.061,0.496 3.72,0.495 3.65,0.542 -0,0.542 "/>
  <polygon class="fil0" points="4.388,0 3.635,0.496 3.65,0.542 4.451,0 "/>
  <path class="fil3" d="M1.066 0.756c0,0.007 -0.002,0.013 -0.006,0.017 -0.004,0.004 -0.01,0.007 -0.016,0.007l-0.194 0 0 -0.181 0.193 0c0.007,0 0.012,0.002 0.016,0.007 0.004,0.004 0.006,0.01 0.006,0.017l0 0.034c0,0.005 -0.001,0.009 -0.003,0.012 -0.002,0.003 -0.005,0.006 -0.009,0.008l-0.022 0.012 0.023 0.012c0.004,0.002 0.007,0.005 0.009,0.007 0.002,0.003 0.003,0.007 0.003,0.012l0 0.036zm-0.069 -0.111l-0.081 0 0 0.025 0.061 0 0.02 -0.014 0 -0.011zm0.002 0.075l-0.022 -0.013 -0.061 0 0 0.026 0.083 0 0 -0.013z"/>
  <path id="1" class="fil3" d="M1.258 0.78l-0.01 -0.024 -0.086 0 -0.011 0.024 -0.069 0 0 -0 0.087 -0.181 0.07 0 0.087 0.181 0 0 -0.07 0zm-0.053 -0.123l-0.022 0.052 0.044 0 -0.022 -0.052z"/>
  <polygon id="2" class="fil3" points="1.473,0.78 1.412,0.716 1.412,0.78 1.345,0.78 1.345,0.599 1.412,0.599 1.412,0.659 1.461,0.599 1.547,0.599 1.547,0.6 1.467,0.684 1.56,0.778 1.56,0.78 "/>
  <path id="3" class="fil3" d="M1.729 0.78l-0.01 -0.024 -0.086 0 -0.011 0.024 -0.069 0 0 -0 0.087 -0.181 0.07 0 0.087 0.181 0 0 -0.07 0zm-0.053 -0.123l-0.022 0.052 0.044 0 -0.022 -0.052z"/>
  <polygon id="4" class="fil3" points="1.969,0.78 1.969,0.721 1.884,0.721 1.884,0.78 1.817,0.78 1.817,0.599 1.884,0.599 1.884,0.664 1.969,0.664 1.969,0.599 2.036,0.599 2.036,0.78 "/>
  <path id="5" class="fil3" d="M2.288 0.756c0,0.007 -0.002,0.013 -0.006,0.017 -0.004,0.004 -0.01,0.007 -0.016,0.007l-0.175 0c-0.007,0 -0.012,-0.002 -0.016,-0.007 -0.004,-0.004 -0.006,-0.01 -0.006,-0.017l0 -0.133c0,-0.007 0.002,-0.013 0.006,-0.017 0.004,-0.004 0.009,-0.007 0.016,-0.007l0.175 0c0.007,0 0.012,0.002 0.016,0.007 0.004,0.004 0.006,0.01 0.006,0.017l0 0.052 -0.067 0 0 -0.027 -0.085 0 0 0.083 0.085 0 0 -0.027 0.067 0 0 0.052z"/>
  <polygon id="6" class="fil3" points="2.322,0.78 2.322,0.599 2.389,0.599 2.389,0.686 2.475,0.599 2.541,0.599 2.541,0.78 2.474,0.78 2.474,0.685 2.388,0.78 "/>
  <polygon id="7" class="fil3" points="2.574,0.78 2.574,0.599 2.641,0.599 2.641,0.686 2.727,0.599 2.793,0.599 2.793,0.78 2.726,0.78 2.726,0.685 2.64,0.78 "/>
  <polygon id="8" class="fil3" points="0.749,0.87 0.749,0.938 0.714,0.938 0.714,0.843 0.818,0.843 0.818,0.87 "/>
  <polygon id="9" class="fil3" points="0.857,0.938 0.82,0.938 0.82,0.938 0.866,0.843 0.903,0.843 0.949,0.938 0.949,0.938 0.912,0.938 0.885,0.873 "/>
  <path id="10" class="fil3" d="M1.042 0.938l-0.005 -0.013 -0.045 0 -0.006 0.013 -0.036 0 0 -0 0.046 -0.095 0.037 0 0.046 0.095 0 0 -0.037 0zm-0.028 -0.065l-0.011 0.028 0.023 0 -0.012 -0.028z"/>
  <path id="11" class="fil3" d="M1.204 0.926c0,0.004 -0.001,0.007 -0.003,0.009 -0.002,0.002 -0.005,0.003 -0.009,0.003l-0.092 0c-0.004,0 -0.007,-0.001 -0.009,-0.003 -0.002,-0.002 -0.003,-0.005 -0.003,-0.009l0 -0.02 0.035 0 0 0.007 0.045 0 0 -0.006 -0.038 -0.012 0 -0.011 0.038 -0.012 0 -0.003 -0.045 0 0 0.007 -0.035 0 0 -0.02c0,-0.004 0.001,-0.007 0.003,-0.009 0.002,-0.002 0.005,-0.003 0.009,-0.003l0.092 0c0.004,0 0.007,0.001 0.009,0.003 0.002,0.002 0.003,0.005 0.003,0.009l0 0.019c0,0.006 -0.003,0.01 -0.01,0.011l-0.013 0.003 0.013 0.002c0.003,0 0.006,0.001 0.007,0.003 0.002,0.002 0.003,0.004 0.003,0.007l0 0.024z"/>
  <path id="12" class="fil3" d="M1.336 0.926c0,0.004 -0.001,0.007 -0.003,0.009 -0.002,0.002 -0.005,0.003 -0.009,0.003l-0.092 0c-0.004,0 -0.007,-0.001 -0.009,-0.003 -0.002,-0.002 -0.003,-0.005 -0.003,-0.009l0 -0.07c0,-0.004 0.001,-0.007 0.003,-0.009 0.002,-0.002 0.005,-0.003 0.009,-0.003l0.092 0c0.004,0 0.007,0.001 0.009,0.003 0.002,0.002 0.003,0.005 0.003,0.009l0 0.07zm-0.035 -0.057l-0.045 0 0 0.044 0.045 0 0 -0.044z"/>
  <path id="13" class="fil3" d="M1.468 0.926c0,0.004 -0.001,0.007 -0.003,0.009 -0.002,0.002 -0.005,0.003 -0.009,0.003l-0.102 0 0 -0.095 0.102 0c0.004,0 0.007,0.001 0.009,0.003 0.002,0.002 0.003,0.005 0.003,0.009l0 0.018c0,0.003 -0.001,0.005 -0.002,0.006 -0.001,0.002 -0.003,0.003 -0.005,0.004l-0.012 0.006 0.012 0.006c0.002,0.001 0.004,0.002 0.005,0.004 0.001,0.002 0.002,0.004 0.002,0.006l0 0.019zm-0.036 -0.058l-0.043 0 0 0.013 0.032 0 0.011 -0.007 0 -0.006zm0.001 0.039l-0.012 -0.007 -0.032 0 0 0.013 0.044 0 0 -0.007z"/>
  <path id="14" class="fil3" d="M1.601 0.926c0,0.004 -0.001,0.007 -0.003,0.009 -0.002,0.002 -0.005,0.003 -0.009,0.003l-0.092 0c-0.004,0 -0.007,-0.001 -0.009,-0.003 -0.002,-0.002 -0.003,-0.005 -0.003,-0.009l0 -0.07c0,-0.004 0.001,-0.007 0.003,-0.009 0.002,-0.002 0.005,-0.003 0.009,-0.003l0.092 0c0.004,0 0.007,0.001 0.009,0.003 0.002,0.002 0.003,0.005 0.003,0.009l0 0.028 -0.035 0 0 -0.014 -0.045 0 0 0.044 0.045 0 0 -0.014 0.035 0 0 0.028z"/>
  <polygon id="15" class="fil3" points="1.686,0.938 1.654,0.905 1.654,0.938 1.618,0.938 1.618,0.843 1.654,0.843 1.654,0.875 1.679,0.843 1.724,0.843 1.724,0.844 1.682,0.888 1.731,0.938 1.731,0.938 "/>
  <path id="16" class="fil3" d="M1.852 0.926c0,0.004 -0.001,0.007 -0.003,0.009 -0.002,0.002 -0.005,0.003 -0.009,0.003l-0.092 0c-0.004,0 -0.007,-0.001 -0.009,-0.003 -0.002,-0.002 -0.003,-0.005 -0.003,-0.009l0 -0.07c0,-0.004 0.001,-0.007 0.003,-0.009 0.002,-0.002 0.005,-0.003 0.009,-0.003l0.092 0c0.004,0 0.007,0.001 0.009,0.003 0.002,0.002 0.003,0.005 0.003,0.009l0 0.07zm-0.035 -0.057l-0.045 0 0 0.044 0.045 0 0 -0.044z"/>
  <polygon id="17" class="fil3" points="1.905,0.87 1.905,0.938 1.87,0.938 1.87,0.843 1.974,0.843 1.974,0.87 "/>
  <path id="18" class="fil3" d="M2.1 0.926c0,0.004 -0.001,0.007 -0.003,0.009 -0.002,0.002 -0.005,0.003 -0.009,0.003l-0.092 0c-0.004,0 -0.007,-0.001 -0.009,-0.003 -0.002,-0.002 -0.003,-0.005 -0.003,-0.009l0 -0.07c0,-0.004 0.001,-0.007 0.003,-0.009 0.002,-0.002 0.005,-0.003 0.009,-0.003l0.092 0c0.004,0 0.007,0.001 0.009,0.003 0.002,0.002 0.003,0.005 0.003,0.009l0 0.07zm-0.035 -0.057l-0.045 0 0 0.044 0.045 0 0 -0.044z"/>
  <path id="19" class="fil3" d="M2.272 0.902c0,0.004 -0.001,0.007 -0.003,0.009 -0.002,0.002 -0.005,0.003 -0.009,0.003l-0.063 0 0 0.024 -0.035 0 0 -0.095 0.099 0c0.004,0 0.007,0.001 0.009,0.003 0.002,0.002 0.003,0.005 0.003,0.009l0 0.046zm-0.035 -0.033l-0.04 0 0 0.02 0.04 0 0 -0.02z"/>
  <path id="20" class="fil3" d="M2.372 0.938l-0.005 -0.013 -0.045 0 -0.006 0.013 -0.036 0 0 -0 0.046 -0.095 0.037 0 0.046 0.095 0 0 -0.037 0zm-0.028 -0.065l-0.011 0.028 0.023 0 -0.012 -0.028z"/>
  <path id="21" class="fil3" d="M2.418 0.938l0 -0.095 0.035 0 0 0.046 0.045 -0.046 0.035 0 0 0.095 -0.035 0 0 -0.05 -0.045 0.05 -0.035 0zm0.03 -0.101c-0.002,0 -0.004,-0.001 -0.005,-0.002 -0.001,-0.002 -0.002,-0.003 -0.002,-0.005l0 -0.017 0.022 0 0 0.005 0.025 0 0 -0.005 0.022 0 0 0.017c0,0.002 -0.001,0.004 -0.002,0.005 -0.001,0.002 -0.003,0.002 -0.005,0.002l-0.054 0z"/>
  <path id="22" class="fil3" d="M2.666 0.926c0,0.004 -0.001,0.007 -0.003,0.009 -0.002,0.002 -0.005,0.003 -0.009,0.003l-0.092 0c-0.004,0 -0.007,-0.001 -0.009,-0.003 -0.002,-0.002 -0.003,-0.005 -0.003,-0.009l0 -0.07c0,-0.004 0.001,-0.007 0.003,-0.009 0.002,-0.002 0.005,-0.003 0.009,-0.003l0.092 0c0.004,0 0.007,0.001 0.009,0.003 0.002,0.002 0.003,0.005 0.003,0.009l0 0.07zm-0.035 -0.057l-0.045 0 0 0.044 0.045 0 0 -0.044z"/>
  <polygon id="23" class="fil3" points="2.763,0.938 2.763,0.908 2.719,0.908 2.719,0.938 2.683,0.938 2.683,0.843 2.719,0.843 2.719,0.878 2.763,0.878 2.763,0.843 2.799,0.843 2.799,0.938 "/>
  <path id="24" class="fil3" d="M2.9 0.938l-0.005 -0.013 -0.045 0 -0.006 0.013 -0.036 0 0 -0 0.046 -0.095 0.037 0 0.046 0.095 0 0 -0.037 0zm-0.028 -0.065l-0.011 0.028 0.023 0 -0.012 -0.028z"/>
 </g>
</svg>
