<?xml version="1.0" encoding="UTF-8"?>
<!DOCTYPE svg PUBLIC "-//W3C//DTD SVG 1.1//EN" "http://www.w3.org/Graphics/SVG/1.1/DTD/svg11.dtd">
<!-- Creator: CorelDRAW 2019 (64-Bit) -->
<svg xmlns="http://www.w3.org/2000/svg" xml:space="preserve" width="2.51533cm" height="0.56213cm" version="1.1" style="shape-rendering:geometricPrecision; text-rendering:geometricPrecision; image-rendering:optimizeQuality; fill-rule:evenodd; clip-rule:evenodd"
viewBox="0 0 4.423 0.988"
 xmlns:xlink="http://www.w3.org/1999/xlink"
 xmlns:xodm="http://www.corel.com/coreldraw/odm/2003">
 <defs>
  <style type="text/css">
   <![CDATA[
    .fil0 {fill:#3175CF}
    .fil2 {fill:#357EDE}
    .fil1 {fill:#748AE8}
    .fil3 {fill:white;fill-rule:nonzero}
   ]]>
  </style>
 </defs>
 <g id="Слой_x0020_1">
  <metadata id="CorelCorpID_0Corel-Layer"/>
  <polygon class="fil0" points="3.627,0.539 4.423,0 4.423,0.449 3.627,0.988 "/>
  <polygon class="fil1" points="3.627,0.539 -0,0.539 -0,0.988 3.627,0.988 "/>
  <polygon class="fil2" points="0.06,0.493 3.697,0.492 3.627,0.539 -0,0.539 "/>
  <polygon class="fil0" points="4.36,0 3.612,0.493 3.627,0.539 4.423,0 "/>
  <polygon class="fil3" points="0.824,0.714 0.824,0.88 0.738,0.88 0.738,0.648 0.993,0.648 0.993,0.714 "/>
  <polygon id="1" class="fil3" points="1.086,0.88 0.998,0.88 0.998,0.879 1.11,0.648 1.2,0.648 1.312,0.879 1.312,0.88 1.222,0.88 1.154,0.722 "/>
  <path id="2" class="fil3" d="M1.538 0.88l-0.012 -0.031 -0.11 0 -0.014 0.031 -0.088 0 0 -0.001 0.112 -0.232 0.09 0 0.112 0.232 0 0.001 -0.089 0zm-0.068 -0.158l-0.028 0.067 0.056 0 -0.028 -0.067z"/>
  <path id="3" class="fil3" d="M1.927 0.849c0,0.009 -0.003,0.017 -0.008,0.022 -0.005,0.006 -0.012,0.008 -0.021,0.008l-0.249 0 0 -0.232 0.247 0c0.009,0 0.016,0.003 0.021,0.008 0.005,0.006 0.007,0.013 0.007,0.022l0 0.043c0,0.006 -0.001,0.011 -0.004,0.016 -0.003,0.004 -0.006,0.008 -0.012,0.01l-0.028 0.015 0.03 0.015c0.005,0.003 0.009,0.006 0.012,0.01 0.003,0.004 0.004,0.009 0.004,0.015l0 0.046zm-0.088 -0.142l-0.104 0 0 0.032 0.078 0 0.026 -0.018 0 -0.014zm0.002 0.096l-0.028 -0.016 -0.078 0 0 0.033 0.106 0 0 -0.016z"/>
  <polygon id="4" class="fil3" points="2.165,0.88 2.165,0.805 2.056,0.805 2.056,0.88 1.97,0.88 1.97,0.648 2.056,0.648 2.056,0.732 2.165,0.732 2.165,0.648 2.251,0.648 2.251,0.88 "/>
  <path id="5" class="fil3" d="M2.497 0.88l-0.012 -0.031 -0.11 0 -0.014 0.031 -0.088 0 0 -0.001 0.112 -0.232 0.09 0 0.112 0.232 0 0.001 -0.089 0zm-0.068 -0.158l-0.028 0.067 0.056 0 -0.028 -0.067z"/>
  <path id="6" class="fil3" d="M2.594 0.88l0 -0.002 0.07 -0.066 -0.027 0c-0.009,0 -0.016,-0.003 -0.021,-0.008 -0.005,-0.005 -0.008,-0.013 -0.008,-0.022l0 -0.103c0,-0.009 0.003,-0.017 0.008,-0.022 0.005,-0.006 0.012,-0.008 0.021,-0.008l0.239 0 0 0.232 -0.086 0 0 -0.169 -0.097 0 0 0.047 0.083 0 0 0.037 -0.086 0.085 -0.098 0z"/>
 </g>
</svg>
