<?xml version="1.0" encoding="UTF-8"?>
<!DOCTYPE svg PUBLIC "-//W3C//DTD SVG 1.1//EN" "http://www.w3.org/Graphics/SVG/1.1/DTD/svg11.dtd">
<!-- Creator: CorelDRAW 2019 (64-Bit) -->
<svg xmlns="http://www.w3.org/2000/svg" xml:space="preserve" width="2.51533cm" height="0.56213cm" version="1.1" style="shape-rendering:geometricPrecision; text-rendering:geometricPrecision; image-rendering:optimizeQuality; fill-rule:evenodd; clip-rule:evenodd"
viewBox="0 0 3.19 0.713"
 xmlns:xlink="http://www.w3.org/1999/xlink"
 xmlns:xodm="http://www.corel.com/coreldraw/odm/2003">
 <defs>
  <style type="text/css">
   <![CDATA[
    .fil0 {fill:#099156}
    .fil1 {fill:#0AAF68}
    .fil2 {fill:#D68056}
    .fil3 {fill:#66FFCC;fill-rule:nonzero}
   ]]>
  </style>
 </defs>
 <g id="Слой_x0020_1">
  <metadata id="CorelCorpID_0Corel-Layer"/>
  <g id="_1740033757744">
   <polygon class="fil0" points="2.616,0.389 3.19,0 3.19,0.324 2.616,0.713 "/>
   <polygon class="fil1" points="2.616,0.389 -0,0.389 -0,0.713 2.616,0.713 "/>
   <polygon class="fil2" points="0.044,0.355 2.667,0.355 2.616,0.389 -0,0.389 "/>
   <polygon class="fil2" points="3.145,0 2.605,0.355 2.616,0.389 3.19,0 "/>
  </g>
  <path class="fil3" d="M0.764 0.542c0,0.005 -0.001,0.009 -0.004,0.012 -0.003,0.003 -0.007,0.005 -0.012,0.005l-0.139 0 0 -0.13 0.138 0c0.005,0 0.009,0.002 0.012,0.005 0.003,0.003 0.004,0.007 0.004,0.013l0 0.024c0,0.004 -0.001,0.006 -0.002,0.009 -0.001,0.002 -0.004,0.004 -0.007,0.006l-0.016 0.009 0.017 0.008c0.003,0.001 0.005,0.003 0.007,0.005 0.002,0.002 0.002,0.005 0.002,0.008l0 0.026zm-0.049 -0.079l-0.058 0 0 0.018 0.044 0 0.015 -0.01 0 -0.008zm0.001 0.054l-0.016 -0.009 -0.044 0 0 0.018 0.06 0 0 -0.009z"/>
  <path id="1" class="fil3" d="M0.902 0.559l-0.007 -0.018 -0.061 0 -0.008 0.018 -0.049 0 0 -0 0.063 -0.13 0.05 0 0.063 0.13 0 0 -0.05 0zm-0.038 -0.088l-0.015 0.038 0.031 0 -0.016 -0.038z"/>
  <polygon id="2" class="fil3" points="1.056,0.559 1.012,0.513 1.012,0.559 0.964,0.559 0.964,0.429 1.012,0.429 1.012,0.472 1.047,0.429 1.108,0.429 1.108,0.43 1.051,0.491 1.118,0.558 1.118,0.559 "/>
  <path id="3" class="fil3" d="M1.24 0.559l-0.007 -0.018 -0.061 0 -0.008 0.018 -0.049 0 0 -0 0.063 -0.13 0.05 0 0.063 0.13 0 0 -0.05 0zm-0.038 -0.088l-0.015 0.038 0.031 0 -0.016 -0.038z"/>
  <polygon id="4" class="fil3" points="1.411,0.559 1.411,0.517 1.35,0.517 1.35,0.559 1.302,0.559 1.302,0.429 1.35,0.429 1.35,0.476 1.411,0.476 1.411,0.429 1.459,0.429 1.459,0.559 "/>
  <path id="5" class="fil3" d="M1.64 0.542c0,0.005 -0.001,0.009 -0.004,0.012 -0.003,0.003 -0.007,0.005 -0.012,0.005l-0.125 0c-0.005,0 -0.009,-0.002 -0.012,-0.005 -0.003,-0.003 -0.004,-0.007 -0.004,-0.012l0 -0.096c0,-0.005 0.001,-0.009 0.004,-0.013 0.003,-0.003 0.007,-0.005 0.012,-0.005l0.125 0c0.005,0 0.009,0.002 0.012,0.005 0.003,0.003 0.004,0.007 0.004,0.013l0 0.038 -0.048 0 0 -0.02 -0.061 0 0 0.06 0.061 0 0 -0.02 0.048 0 0 0.038z"/>
  <polygon id="6" class="fil3" points="1.664,0.559 1.664,0.429 1.712,0.429 1.712,0.492 1.774,0.429 1.821,0.429 1.821,0.559 1.773,0.559 1.773,0.491 1.711,0.559 "/>
  <polygon id="7" class="fil3" points="1.845,0.559 1.845,0.429 1.893,0.429 1.893,0.492 1.955,0.429 2.002,0.429 2.002,0.559 1.954,0.559 1.954,0.491 1.892,0.559 "/>
  <polygon id="8" class="fil3" points="0.537,0.624 0.537,0.673 0.511,0.673 0.511,0.604 0.587,0.604 0.587,0.624 "/>
  <polygon id="9" class="fil3" points="0.614,0.673 0.588,0.673 0.588,0.672 0.621,0.604 0.647,0.604 0.68,0.672 0.68,0.673 0.654,0.673 0.634,0.626 "/>
  <path id="10" class="fil3" d="M0.747 0.673l-0.004 -0.009 -0.032 0 -0.004 0.009 -0.026 0 0 -0 0.033 -0.068 0.026 0 0.033 0.068 0 0 -0.026 0zm-0.02 -0.047l-0.008 0.02 0.016 0 -0.008 -0.02z"/>
  <path id="11" class="fil3" d="M0.863 0.664c0,0.003 -0.001,0.005 -0.002,0.007 -0.001,0.002 -0.004,0.002 -0.006,0.002l-0.066 0c-0.003,0 -0.005,-0.001 -0.006,-0.002 -0.001,-0.002 -0.002,-0.004 -0.002,-0.007l0 -0.014 0.025 0 0 0.005 0.032 0 0 -0.004 -0.027 -0.008 0 -0.008 0.027 -0.009 0 -0.002 -0.032 0 0 0.005 -0.025 0 0 -0.014c0,-0.003 0.001,-0.005 0.002,-0.007 0.001,-0.002 0.004,-0.002 0.006,-0.002l0.066 0c0.003,0 0.005,0.001 0.006,0.002 0.001,0.002 0.002,0.004 0.002,0.007l0 0.014c0,0.004 -0.002,0.007 -0.007,0.008l-0.009 0.002 0.009 0.001c0.002,0 0.004,0.001 0.005,0.002 0.001,0.001 0.002,0.003 0.002,0.005l0 0.017z"/>
  <path id="12" class="fil3" d="M0.958 0.664c0,0.003 -0.001,0.005 -0.002,0.007 -0.001,0.002 -0.004,0.002 -0.006,0.002l-0.066 0c-0.003,0 -0.005,-0.001 -0.006,-0.002 -0.001,-0.002 -0.002,-0.004 -0.002,-0.007l0 -0.05c0,-0.003 0.001,-0.005 0.002,-0.007 0.001,-0.002 0.004,-0.002 0.006,-0.002l0.066 0c0.003,0 0.005,0.001 0.006,0.002 0.001,0.002 0.002,0.004 0.002,0.007l0 0.05zm-0.025 -0.041l-0.032 0 0 0.031 0.032 0 0 -0.031z"/>
  <path id="13" class="fil3" d="M1.052 0.664c0,0.003 -0.001,0.005 -0.002,0.007 -0.002,0.002 -0.004,0.002 -0.006,0.002l-0.073 0 0 -0.068 0.073 0c0.003,0 0.005,0.001 0.006,0.002 0.001,0.002 0.002,0.004 0.002,0.007l0 0.013c0,0.002 -0,0.003 -0.001,0.005 -0.001,0.001 -0.002,0.002 -0.003,0.003l-0.008 0.005 0.009 0.004c0.002,0.001 0.003,0.002 0.004,0.003 0.001,0.001 0.001,0.003 0.001,0.004l0 0.014zm-0.026 -0.042l-0.031 0 0 0.009 0.023 0 0.008 -0.005 0 -0.004zm0.001 0.028l-0.008 -0.005 -0.023 0 0 0.01 0.031 0 0 -0.005z"/>
  <path id="14" class="fil3" d="M1.147 0.664c0,0.003 -0.001,0.005 -0.002,0.007 -0.002,0.002 -0.004,0.002 -0.006,0.002l-0.066 0c-0.003,0 -0.005,-0.001 -0.006,-0.002 -0.001,-0.002 -0.002,-0.004 -0.002,-0.007l0 -0.05c0,-0.003 0.001,-0.005 0.002,-0.007 0.001,-0.002 0.004,-0.002 0.006,-0.002l0.066 0c0.003,0 0.005,0.001 0.006,0.002 0.002,0.002 0.002,0.004 0.002,0.007l0 0.02 -0.025 0 0 -0.01 -0.032 0 0 0.031 0.032 0 0 -0.01 0.025 0 0 0.02z"/>
  <polygon id="15" class="fil3" points="1.208,0.673 1.185,0.648 1.185,0.673 1.16,0.673 1.16,0.604 1.185,0.604 1.185,0.627 1.204,0.604 1.236,0.604 1.236,0.605 1.206,0.637 1.241,0.672 1.241,0.673 "/>
  <path id="16" class="fil3" d="M1.327 0.664c0,0.003 -0.001,0.005 -0.002,0.007 -0.001,0.002 -0.004,0.002 -0.006,0.002l-0.066 0c-0.003,0 -0.005,-0.001 -0.006,-0.002 -0.001,-0.002 -0.002,-0.004 -0.002,-0.007l0 -0.05c0,-0.003 0.001,-0.005 0.002,-0.007 0.001,-0.002 0.004,-0.002 0.006,-0.002l0.066 0c0.003,0 0.005,0.001 0.006,0.002 0.001,0.002 0.002,0.004 0.002,0.007l0 0.05zm-0.025 -0.041l-0.032 0 0 0.031 0.032 0 0 -0.031z"/>
  <polygon id="17" class="fil3" points="1.365,0.624 1.365,0.673 1.34,0.673 1.34,0.604 1.415,0.604 1.415,0.624 "/>
  <path id="18" class="fil3" d="M1.505 0.664c0,0.003 -0.001,0.005 -0.002,0.007 -0.001,0.002 -0.004,0.002 -0.006,0.002l-0.066 0c-0.003,0 -0.005,-0.001 -0.006,-0.002 -0.001,-0.002 -0.002,-0.004 -0.002,-0.007l0 -0.05c0,-0.003 0.001,-0.005 0.002,-0.007 0.001,-0.002 0.004,-0.002 0.006,-0.002l0.066 0c0.003,0 0.005,0.001 0.006,0.002 0.001,0.002 0.002,0.004 0.002,0.007l0 0.05zm-0.025 -0.041l-0.032 0 0 0.031 0.032 0 0 -0.031z"/>
  <path id="19" class="fil3" d="M1.628 0.646c0,0.003 -0.001,0.005 -0.002,0.007 -0.002,0.002 -0.004,0.002 -0.006,0.002l-0.045 0 0 0.017 -0.025 0 0 -0.068 0.071 0c0.003,0 0.005,0.001 0.006,0.002 0.001,0.002 0.002,0.004 0.002,0.007l0 0.033zm-0.025 -0.024l-0.029 0 0 0.015 0.029 0 0 -0.015z"/>
  <path id="20" class="fil3" d="M1.7 0.673l-0.004 -0.009 -0.032 0 -0.004 0.009 -0.026 0 0 -0 0.033 -0.068 0.026 0 0.033 0.068 0 0 -0.026 0zm-0.02 -0.047l-0.008 0.02 0.016 0 -0.008 -0.02z"/>
  <path id="21" class="fil3" d="M1.733 0.673l0 -0.068 0.025 0 0 0.033 0.032 -0.033 0.025 0 0 0.068 -0.025 0 0 -0.036 -0.032 0.036 -0.025 0zm0.022 -0.072c-0.001,0 -0.003,-0.001 -0.004,-0.002 -0.001,-0.001 -0.002,-0.002 -0.002,-0.004l0 -0.012 0.016 0 0 0.004 0.018 0 0 -0.004 0.016 0 0 0.012c0,0.001 -0.001,0.003 -0.002,0.004 -0.001,0.001 -0.002,0.002 -0.004,0.002l-0.039 0z"/>
  <path id="22" class="fil3" d="M1.911 0.664c0,0.003 -0.001,0.005 -0.002,0.007 -0.001,0.002 -0.004,0.002 -0.006,0.002l-0.066 0c-0.003,0 -0.005,-0.001 -0.006,-0.002 -0.001,-0.002 -0.002,-0.004 -0.002,-0.007l0 -0.05c0,-0.003 0.001,-0.005 0.002,-0.007 0.001,-0.002 0.004,-0.002 0.006,-0.002l0.066 0c0.003,0 0.005,0.001 0.006,0.002 0.001,0.002 0.002,0.004 0.002,0.007l0 0.05zm-0.025 -0.041l-0.032 0 0 0.031 0.032 0 0 -0.031z"/>
  <polygon id="23" class="fil3" points="1.981,0.673 1.981,0.651 1.949,0.651 1.949,0.673 1.923,0.673 1.923,0.604 1.949,0.604 1.949,0.629 1.981,0.629 1.981,0.604 2.006,0.604 2.006,0.673 "/>
  <path id="24" class="fil3" d="M2.079 0.673l-0.004 -0.009 -0.032 0 -0.004 0.009 -0.026 0 0 -0 0.033 -0.068 0.026 0 0.033 0.068 0 0 -0.026 0zm-0.02 -0.047l-0.008 0.02 0.016 0 -0.008 -0.02z"/>
 </g>
</svg>
