<?xml version="1.0" encoding="UTF-8"?>
<!DOCTYPE svg PUBLIC "-//W3C//DTD SVG 1.1//EN" "http://www.w3.org/Graphics/SVG/1.1/DTD/svg11.dtd">
<!-- Creator: CorelDRAW 2019 (64-Bit) -->
<svg xmlns="http://www.w3.org/2000/svg" xml:space="preserve" width="2.70297cm" height="0.81677cm" version="1.1" style="shape-rendering:geometricPrecision; text-rendering:geometricPrecision; image-rendering:optimizeQuality; fill-rule:evenodd; clip-rule:evenodd"
viewBox="0 0 10.621 3.209"
 xmlns:xlink="http://www.w3.org/1999/xlink"
 xmlns:xodm="http://www.corel.com/coreldraw/odm/2003">
 <defs>
  <style type="text/css">
   <![CDATA[
    .fil1 {fill:#1B5A5C}
    .fil2 {fill:#29878C}
    .fil0 {fill:white;fill-rule:nonzero}
   ]]>
  </style>
 </defs>
 <g id="Слой_x0020_1">
  <metadata id="CorelCorpID_0Corel-Layer"/>
  <polygon class="fil0" points="0.878,0.439 1.12,0.439 1.12,0.005 1.22,0.005 1.22,0.439 1.267,0.439 1.267,0.645 1.174,0.645 1.174,0.525 0.778,0.525 0.778,0.005 0.878,0.005 "/>
  <path id="1" class="fil0" d="M1.647 0.339l0.098 0 0 0.03c0,0.04 -0.007,0.072 -0.021,0.095 -0.014,0.023 -0.036,0.04 -0.067,0.05 -0.031,0.01 -0.073,0.015 -0.127,0.015 -0.044,0 -0.08,-0.004 -0.108,-0.012 -0.028,-0.008 -0.05,-0.022 -0.066,-0.043 -0.016,-0.02 -0.028,-0.048 -0.035,-0.082 -0.007,-0.035 -0.01,-0.08 -0.01,-0.137 0,-0.062 0.006,-0.111 0.019,-0.148 0.012,-0.037 0.034,-0.064 0.066,-0.081 0.031,-0.018 0.075,-0.026 0.131,-0.026 0.056,0 0.099,0.006 0.129,0.019 0.03,0.013 0.051,0.032 0.064,0.058 0.012,0.026 0.02,0.06 0.023,0.102l-0.097 0c-0.002,-0.027 -0.006,-0.048 -0.013,-0.061 -0.007,-0.013 -0.018,-0.022 -0.034,-0.026 -0.016,-0.005 -0.04,-0.007 -0.071,-0.007 -0.033,0 -0.057,0.004 -0.072,0.013 -0.015,0.008 -0.026,0.025 -0.032,0.05 -0.006,0.025 -0.009,0.064 -0.009,0.117 0,0.038 0.002,0.068 0.005,0.092 0.003,0.023 0.009,0.041 0.018,0.054 0.009,0.013 0.02,0.022 0.034,0.027 0.015,0.005 0.034,0.007 0.058,0.007 0.031,0 0.055,-0.002 0.072,-0.006 0.017,-0.004 0.029,-0.012 0.036,-0.022 0.007,-0.01 0.011,-0.026 0.011,-0.045l0 -0.033z"/>
  <path id="2" class="fil0" d="M1.814 0.439c0.01,-0.011 0.019,-0.023 0.026,-0.036 0.007,-0.013 0.012,-0.028 0.016,-0.045 0.004,-0.017 0.007,-0.036 0.009,-0.058 0.002,-0.022 0.003,-0.048 0.003,-0.077l0 -0.219 0.376 0 0 0.435 0.046 0 0 0.205 -0.093 0 0 -0.12 -0.329 0 0 0.12 -0.094 0 0 -0.205 0.039 0zm0.151 -0.349l0 0.134c0,0.037 -0.001,0.069 -0.004,0.095 -0.003,0.026 -0.007,0.05 -0.014,0.07 -0.007,0.02 -0.016,0.037 -0.028,0.051l0.225 0 0 -0.349 -0.179 0z"/>
  <polygon id="3" class="fil0" points="2.457,0.006 2.457,0.218 2.503,0.218 2.676,0.006 2.798,0.006 2.588,0.259 2.82,0.525 2.694,0.525 2.503,0.303 2.457,0.303 2.457,0.525 2.357,0.525 2.357,0.006 "/>
  <path id="4" class="fil0" d="M3.142 0.149l0.058 0.032 -0.073 0.15 0.078 0.145 -0.055 0.037 -0.099 -0.182 0.091 -0.182zm0.142 -0.003l0.059 0.034 -0.074 0.149 0.078 0.146 -0.056 0.035 -0.099 -0.181 0.092 -0.183z"/>
  <path id="5" class="fil0" d="M3.75 0.339l0.098 0 0 0.03c0,0.04 -0.007,0.072 -0.021,0.095 -0.014,0.023 -0.036,0.04 -0.067,0.05 -0.031,0.01 -0.073,0.015 -0.127,0.015 -0.044,0 -0.08,-0.004 -0.108,-0.012 -0.028,-0.008 -0.05,-0.022 -0.066,-0.043 -0.016,-0.02 -0.028,-0.048 -0.035,-0.082 -0.007,-0.035 -0.01,-0.08 -0.01,-0.137 0,-0.062 0.006,-0.111 0.019,-0.148 0.012,-0.037 0.034,-0.064 0.066,-0.081 0.031,-0.018 0.075,-0.026 0.131,-0.026 0.056,0 0.099,0.006 0.129,0.019 0.03,0.013 0.051,0.032 0.064,0.058 0.012,0.026 0.02,0.06 0.023,0.102l-0.097 0c-0.002,-0.027 -0.006,-0.048 -0.013,-0.061 -0.007,-0.013 -0.018,-0.022 -0.034,-0.026 -0.016,-0.005 -0.04,-0.007 -0.071,-0.007 -0.033,0 -0.057,0.004 -0.072,0.013 -0.015,0.008 -0.026,0.025 -0.032,0.05 -0.006,0.025 -0.009,0.064 -0.009,0.117 0,0.038 0.002,0.068 0.005,0.092 0.003,0.023 0.009,0.041 0.018,0.054 0.009,0.013 0.02,0.022 0.034,0.027 0.015,0.005 0.034,0.007 0.058,0.007 0.031,0 0.055,-0.002 0.072,-0.006 0.017,-0.004 0.029,-0.012 0.036,-0.022 0.007,-0.01 0.011,-0.026 0.011,-0.045l0 -0.033z"/>
  <path id="6" class="fil0" d="M3.94 0.162l0.303 0 0 0.363 -0.087 0 0 -0.296 -0.131 0 0 0.184c0,0.023 -0.003,0.043 -0.01,0.06 -0.007,0.017 -0.018,0.031 -0.032,0.041 -0.015,0.01 -0.033,0.015 -0.054,0.015 -0.024,0 -0.042,-0.001 -0.053,-0.003l0 -0.065c0.008,0.001 0.016,0.002 0.022,0.002 0.016,0 0.028,-0.004 0.034,-0.013 0.006,-0.009 0.009,-0.023 0.009,-0.043l0 -0.244z"/>
  <path id="7" class="fil0" d="M4.646 0.162l-0.097 0.385c-0.005,0.023 -0.011,0.042 -0.017,0.059 -0.006,0.017 -0.014,0.031 -0.024,0.043 -0.01,0.012 -0.023,0.022 -0.039,0.028 -0.016,0.007 -0.036,0.01 -0.059,0.01 -0.016,0 -0.028,-0.001 -0.036,-0.003l0 -0.062c0.007,0.001 0.013,0.002 0.02,0.002 0.022,-0 0.037,-0.008 0.047,-0.024 0.01,-0.016 0.018,-0.041 0.026,-0.075l-0.046 0 -0.119 -0.363 0.092 0 0.091 0.308 0.07 -0.308 0.09 0z"/>
  <path id="8" class="fil0" d="M4.703 0.46c0.011,-0.014 0.019,-0.028 0.025,-0.042 0.006,-0.013 0.011,-0.03 0.014,-0.048 0.003,-0.019 0.005,-0.043 0.005,-0.071l0 -0.138 0.283 0 0 0.299 0.046 0 0 0.163 -0.08 0 0 -0.099 -0.253 0 0 0.099 -0.08 0 0 -0.163 0.039 0zm0.24 0l0 -0.235 -0.114 0 0 0.079c0,0.071 -0.013,0.123 -0.04,0.156l0.154 0z"/>
  <path id="9" class="fil0" d="M5.362 0.387l0.085 0c0,0.026 -0.003,0.049 -0.008,0.067 -0.006,0.018 -0.015,0.033 -0.027,0.044 -0.013,0.011 -0.029,0.02 -0.05,0.025 -0.021,0.005 -0.046,0.008 -0.077,0.008 -0.042,0 -0.076,-0.006 -0.1,-0.018 -0.024,-0.012 -0.041,-0.031 -0.052,-0.058 -0.011,-0.027 -0.016,-0.064 -0.016,-0.112 0,-0.048 0.005,-0.085 0.016,-0.112 0.01,-0.027 0.028,-0.046 0.052,-0.058 0.024,-0.012 0.057,-0.017 0.099,-0.017 0.032,0 0.059,0.003 0.083,0.01 0.023,0.007 0.042,0.019 0.056,0.037 0.014,0.018 0.021,0.042 0.021,0.073l0 0.013 -0.084 0 0 -0.005c0,-0.017 -0.002,-0.03 -0.007,-0.039 -0.005,-0.009 -0.012,-0.015 -0.023,-0.018 -0.01,-0.003 -0.026,-0.005 -0.046,-0.005 -0.021,0 -0.037,0.004 -0.048,0.011 -0.011,0.007 -0.019,0.019 -0.024,0.036 -0.005,0.017 -0.007,0.042 -0.007,0.073 0,0.031 0.002,0.056 0.007,0.073 0.005,0.017 0.013,0.029 0.024,0.037 0.011,0.007 0.027,0.011 0.048,0.011 0.023,0 0.039,-0.002 0.05,-0.007 0.011,-0.005 0.018,-0.012 0.022,-0.023 0.004,-0.01 0.005,-0.026 0.005,-0.046z"/>
  <polygon id="10" class="fil0" points="5.603,0.162 5.603,0.302 5.624,0.302 5.725,0.162 5.825,0.162 5.695,0.332 5.849,0.525 5.745,0.525 5.624,0.362 5.603,0.362 5.603,0.525 5.516,0.525 5.516,0.162 "/>
  <path id="11" class="fil0" d="M5.904 0.162l0 0.363 0.106 0 0.118 -0.227c0.006,-0.011 0.019,-0.038 0.04,-0.081 -0.004,0.01 -0.007,0.026 -0.011,0.05 -0.004,0.024 -0.006,0.043 -0.006,0.057l0 0.2 0.082 0 0 -0.363 -0.106 0 -0.118 0.228c-0.008,0.014 -0.021,0.042 -0.04,0.082 0.004,-0.01 0.008,-0.025 0.011,-0.045 0.004,-0.02 0.006,-0.038 0.006,-0.053l0 -0.211 -0.082 0z"/>
  <path id="12" class="fil0" d="M6.321 0.161l0 0.364 0.106 0 0.118 -0.227c0.009,-0.017 0.022,-0.043 0.04,-0.081 -0.004,0.01 -0.007,0.026 -0.011,0.05 -0.004,0.024 -0.006,0.043 -0.006,0.057l0 0.2 0.082 0 0 -0.364 -0.106 0 -0.118 0.229c-0.006,0.011 -0.019,0.038 -0.04,0.081 0.004,-0.01 0.008,-0.025 0.012,-0.045 0.004,-0.02 0.006,-0.038 0.006,-0.054l0 -0.211 -0.082 0zm0.162 -0.026c-0.028,0 -0.05,-0.005 -0.065,-0.016 -0.015,-0.011 -0.023,-0.03 -0.023,-0.058l0.048 0c0,0.012 0.003,0.02 0.009,0.025 0.006,0.004 0.017,0.007 0.032,0.007 0.017,0 0.029,-0.002 0.034,-0.007 0.005,-0.004 0.008,-0.013 0.008,-0.025l0.047 0c0,0.028 -0.008,0.047 -0.024,0.058 -0.016,0.011 -0.038,0.016 -0.066,0.016z"/>
  <path id="13" class="fil0" d="M6.936 0.149l0.091 0.182 -0.099 0.182 -0.056 -0.037 0.079 -0.145 -0.073 -0.15 0.059 -0.032zm-0.142 -0.003l0.091 0.183 -0.098 0.181 -0.055 -0.035 0.078 -0.146 -0.074 -0.149 0.058 -0.034z"/>
  <path class="fil0" d="M0.802 1.401c0.009,-0.011 0.015,-0.023 0.02,-0.033 0.005,-0.011 0.008,-0.024 0.011,-0.039 0.002,-0.015 0.004,-0.034 0.004,-0.057l0 -0.11 0.227 0 0 0.24 0.037 0 0 0.13 -0.064 0 0 -0.079 -0.202 0 0 0.079 -0.064 0 0 -0.13 0.031 0zm0.192 0l0 -0.188 -0.091 0 0 0.063c0,0.057 -0.011,0.098 -0.032,0.125l0.124 0z"/>
  <polygon id="1" class="fil0" points="1.211,1.377 1.211,1.453 1.141,1.453 1.141,1.377 "/>
  <path id="2" class="fil0" d="M1.505 1.103l0 0.108 0.101 0c0.018,0 0.032,-0.001 0.042,-0.004 0.01,-0.003 0.017,-0.008 0.021,-0.017 0.004,-0.008 0.007,-0.021 0.007,-0.037 0,-0.019 -0.004,-0.032 -0.013,-0.039 -0.009,-0.007 -0.023,-0.011 -0.043,-0.011l-0.114 0zm0 0.167l0 0.116 0.101 0c0.028,0 0.048,-0.004 0.06,-0.013 0.012,-0.009 0.019,-0.024 0.019,-0.046 0,-0.015 -0.002,-0.026 -0.006,-0.035 -0.004,-0.008 -0.011,-0.014 -0.02,-0.017 -0.009,-0.003 -0.022,-0.005 -0.038,-0.005l-0.115 0zm-0.079 0.182l0 -0.415 0.213 0c0.025,0 0.046,0.004 0.063,0.011 0.017,0.007 0.03,0.019 0.039,0.034 0.009,0.016 0.013,0.035 0.013,0.059 0,0.053 -0.02,0.085 -0.059,0.095l0 0.003c0.022,0.004 0.039,0.013 0.051,0.03 0.012,0.016 0.018,0.038 0.018,0.064 0,0.018 -0.002,0.035 -0.007,0.05 -0.005,0.015 -0.012,0.027 -0.022,0.038 -0.01,0.01 -0.022,0.018 -0.037,0.024 -0.015,0.005 -0.032,0.008 -0.052,0.008l-0.22 0z"/>
  <path id="3" class="fil0" d="M2.008 1.361l0.069 0 0 0.011c0,0.023 -0.005,0.041 -0.016,0.054 -0.011,0.013 -0.026,0.021 -0.045,0.026 -0.019,0.004 -0.043,0.007 -0.073,0.007 -0.034,0 -0.06,-0.005 -0.079,-0.014 -0.019,-0.009 -0.033,-0.025 -0.041,-0.046 -0.008,-0.022 -0.012,-0.051 -0.012,-0.089 0,-0.037 0.004,-0.067 0.013,-0.089 0.008,-0.022 0.022,-0.038 0.042,-0.047 0.019,-0.01 0.046,-0.015 0.079,-0.015 0.033,0 0.059,0.005 0.079,0.015 0.02,0.01 0.034,0.025 0.042,0.046 0.009,0.021 0.013,0.049 0.013,0.083l0 0.02 -0.197 0c0,0.023 0.002,0.041 0.006,0.053 0.004,0.012 0.01,0.02 0.019,0.025 0.009,0.005 0.022,0.007 0.039,0.007 0.016,0 0.028,-0.001 0.038,-0.003 0.009,-0.002 0.016,-0.006 0.021,-0.012 0.004,-0.006 0.007,-0.014 0.007,-0.025l0 -0.006zm0.001 -0.084c0,-0.017 -0.002,-0.031 -0.006,-0.041 -0.004,-0.01 -0.011,-0.017 -0.02,-0.021 -0.01,-0.004 -0.022,-0.006 -0.039,-0.006 -0.016,0 -0.029,0.002 -0.038,0.006 -0.009,0.004 -0.016,0.011 -0.02,0.021 -0.004,0.01 -0.006,0.023 -0.006,0.041l0.129 0z"/>
  <path id="4" class="fil0" d="M2.206 1.3c0,0.029 0.001,0.05 0.004,0.064 0.003,0.014 0.009,0.024 0.018,0.03 0.009,0.006 0.024,0.009 0.044,0.009 0.02,0 0.034,-0.004 0.043,-0.011 0.009,-0.007 0.015,-0.018 0.017,-0.031 0.002,-0.013 0.004,-0.033 0.004,-0.059 0,-0.027 -0.002,-0.046 -0.005,-0.058 -0.003,-0.012 -0.01,-0.021 -0.018,-0.025 -0.009,-0.004 -0.022,-0.006 -0.04,-0.006 -0.018,0 -0.032,0.002 -0.042,0.007 -0.01,0.005 -0.016,0.013 -0.02,0.026 -0.004,0.012 -0.006,0.031 -0.006,0.055zm0 0.113l0 0.163 -0.069 0 0 -0.414 0.067 0 -0.003 0.041 0.002 0c0.011,-0.017 0.024,-0.029 0.038,-0.036 0.014,-0.007 0.031,-0.01 0.052,-0.01 0.032,0 0.056,0.006 0.072,0.017 0.017,0.011 0.028,0.028 0.034,0.049 0.006,0.021 0.009,0.048 0.009,0.082 0,0.024 -0.001,0.045 -0.003,0.062 -0.002,0.017 -0.007,0.033 -0.014,0.046 -0.007,0.014 -0.019,0.024 -0.033,0.032 -0.015,0.008 -0.035,0.012 -0.06,0.012 -0.023,0 -0.041,-0.003 -0.055,-0.009 -0.014,-0.006 -0.026,-0.018 -0.036,-0.035z"/>
  <polygon id="5" class="fil0" points="2.716,1.162 2.631,1.3 2.725,1.453 2.643,1.453 2.584,1.346 2.527,1.453 2.443,1.453 2.539,1.3 2.454,1.162 2.534,1.162 2.584,1.255 2.635,1.162 "/>
  <polygon id="6" class="fil0" points="2.837,1.326 2.96,1.326 2.96,1.453 3.029,1.453 3.029,1.162 2.96,1.162 2.96,1.272 2.837,1.272 2.837,1.162 2.768,1.162 2.768,1.453 2.837,1.453 "/>
  <path id="7" class="fil0" d="M3.343 1.162l0 0.291 -0.069 0 0 -0.111 -0.053 0 -0.065 0.111 -0.074 0 0.073 -0.12c-0.042,-0.012 -0.063,-0.039 -0.063,-0.083 0,-0.059 0.027,-0.088 0.082,-0.088l0.17 0zm-0.069 0.129l0 -0.079 -0.073 0c-0.014,0 -0.025,0.003 -0.031,0.008 -0.006,0.006 -0.009,0.016 -0.009,0.031 0,0.015 0.004,0.026 0.011,0.031 0.008,0.006 0.019,0.008 0.034,0.008l0.068 0z"/>
  <path id="8" class="fil0" d="M3.653 1.162l0 0.291 -0.069 0 0 -0.111 -0.053 0 -0.065 0.111 -0.074 0 0.073 -0.12c-0.042,-0.012 -0.063,-0.039 -0.063,-0.083 0,-0.059 0.027,-0.088 0.082,-0.088l0.17 0zm-0.069 0.129l0 -0.079 -0.073 0c-0.014,0 -0.025,0.003 -0.031,0.008 -0.006,0.006 -0.009,0.016 -0.009,0.031 0,0.015 0.004,0.026 0.011,0.031 0.008,0.006 0.019,0.008 0.034,0.008l0.068 0z"/>
  <path id="9" class="fil0" d="M4.131 1.304l0.078 0 0 0.024c0,0.032 -0.006,0.057 -0.017,0.076 -0.011,0.019 -0.029,0.032 -0.054,0.04 -0.025,0.008 -0.059,0.012 -0.102,0.012 -0.035,0 -0.064,-0.003 -0.086,-0.01 -0.022,-0.007 -0.04,-0.018 -0.053,-0.034 -0.013,-0.016 -0.022,-0.038 -0.028,-0.066 -0.006,-0.028 -0.008,-0.064 -0.008,-0.11 0,-0.05 0.005,-0.089 0.015,-0.119 0.01,-0.029 0.027,-0.051 0.052,-0.065 0.025,-0.014 0.06,-0.021 0.105,-0.021 0.045,0 0.079,0.005 0.103,0.016 0.024,0.01 0.041,0.026 0.051,0.046 0.01,0.02 0.016,0.048 0.018,0.082l-0.078 0c-0.001,-0.022 -0.005,-0.038 -0.01,-0.048 -0.006,-0.01 -0.015,-0.017 -0.027,-0.021 -0.013,-0.004 -0.032,-0.005 -0.057,-0.005 -0.026,0 -0.045,0.003 -0.058,0.01 -0.012,0.007 -0.021,0.02 -0.026,0.04 -0.005,0.02 -0.007,0.051 -0.007,0.094 0,0.03 0.001,0.055 0.004,0.073 0.003,0.019 0.008,0.033 0.014,0.043 0.007,0.01 0.016,0.017 0.028,0.021 0.012,0.004 0.027,0.006 0.047,0.006 0.025,0 0.044,-0.002 0.057,-0.005 0.013,-0.003 0.023,-0.009 0.029,-0.018 0.006,-0.008 0.008,-0.02 0.008,-0.036l0 -0.026z"/>
  <path id="10" class="fil0" d="M4.283 1.162l0.242 0 0 0.291 -0.069 0 0 -0.237 -0.105 0 0 0.147c0,0.018 -0.003,0.034 -0.008,0.048 -0.006,0.014 -0.014,0.025 -0.026,0.033 -0.012,0.008 -0.026,0.012 -0.043,0.012 -0.019,0 -0.034,-0.001 -0.043,-0.003l0 -0.052c0.007,0.001 0.012,0.002 0.018,0.002 0.013,0 0.022,-0.004 0.027,-0.011 0.005,-0.007 0.007,-0.019 0.007,-0.035l0 -0.195z"/>
  <path id="11" class="fil0" d="M4.848 1.162l-0.078 0.308c-0.004,0.018 -0.009,0.034 -0.014,0.047 -0.005,0.013 -0.011,0.025 -0.019,0.034 -0.008,0.01 -0.018,0.017 -0.031,0.023 -0.013,0.005 -0.028,0.008 -0.047,0.008 -0.013,0 -0.023,-0.001 -0.029,-0.002l0 -0.05c0.005,0.001 0.011,0.002 0.016,0.002 0.017,-0 0.03,-0.007 0.037,-0.019 0.008,-0.013 0.015,-0.033 0.021,-0.06l-0.037 0 -0.095 -0.291 0.074 0 0.073 0.247 0.056 -0.247 0.072 0z"/>
  <path id="12" class="fil0" d="M4.893 1.401c0.009,-0.011 0.015,-0.023 0.02,-0.033 0.005,-0.011 0.008,-0.024 0.011,-0.039 0.002,-0.015 0.004,-0.034 0.004,-0.057l0 -0.11 0.227 0 0 0.24 0.037 0 0 0.13 -0.064 0 0 -0.079 -0.202 0 0 0.079 -0.064 0 0 -0.13 0.031 0zm0.192 0l0 -0.188 -0.091 0 0 0.063c0,0.057 -0.011,0.098 -0.032,0.125l0.124 0z"/>
  <polygon id="13" class="fil0" points="5.305,1.162 5.305,1.275 5.322,1.275 5.403,1.162 5.483,1.162 5.379,1.298 5.503,1.453 5.419,1.453 5.322,1.322 5.305,1.322 5.305,1.453 5.236,1.453 5.236,1.162 "/>
  <path id="14" class="fil0" d="M5.732 1.453l0.006 -0.04 -0.002 0c-0.006,0.013 -0.013,0.023 -0.022,0.029 -0.009,0.006 -0.019,0.011 -0.03,0.013 -0.011,0.002 -0.026,0.003 -0.044,0.003 -0.025,0 -0.045,-0.003 -0.06,-0.009 -0.015,-0.006 -0.027,-0.016 -0.034,-0.029 -0.008,-0.013 -0.011,-0.031 -0.011,-0.053 0,-0.018 0.002,-0.034 0.006,-0.046 0.004,-0.012 0.01,-0.021 0.019,-0.028 0.009,-0.007 0.02,-0.012 0.034,-0.015 0.014,-0.003 0.032,-0.004 0.054,-0.004 0.026,0 0.044,0.003 0.055,0.008 0.011,0.006 0.02,0.015 0.027,0.029l0.003 0 0 -0.049c0,-0.016 -0.002,-0.028 -0.006,-0.036 -0.004,-0.008 -0.01,-0.014 -0.019,-0.018 -0.009,-0.003 -0.022,-0.005 -0.038,-0.005 -0.021,0 -0.035,0.003 -0.043,0.009 -0.008,0.006 -0.012,0.017 -0.012,0.034l-0.07 0c0.001,-0.018 0.004,-0.032 0.01,-0.044 0.006,-0.012 0.015,-0.021 0.025,-0.027 0.011,-0.006 0.023,-0.011 0.037,-0.013 0.014,-0.002 0.03,-0.004 0.049,-0.004 0.031,0 0.055,0.002 0.074,0.007 0.019,0.005 0.034,0.014 0.045,0.029 0.011,0.015 0.016,0.038 0.016,0.067l0 0.191 -0.069 0zm0 -0.087c0,-0.017 -0.005,-0.028 -0.014,-0.035 -0.01,-0.006 -0.027,-0.009 -0.054,-0.009 -0.015,0 -0.028,0.001 -0.036,0.004 -0.009,0.003 -0.015,0.007 -0.018,0.013 -0.004,0.006 -0.005,0.015 -0.005,0.026 0,0.016 0.004,0.027 0.013,0.034 0.009,0.007 0.024,0.01 0.046,0.01 0.025,0 0.043,-0.003 0.053,-0.009 0.011,-0.006 0.016,-0.018 0.016,-0.035z"/>
  <path id="15" class="fil0" d="M5.941 1.378l0 0.073c0,0.018 -0.002,0.033 -0.005,0.043 -0.003,0.01 -0.01,0.017 -0.02,0.022 -0.01,0.005 -0.024,0.007 -0.043,0.007 -0.003,0 -0.006,-0 -0.007,-0.001l0 -0.033c0.012,-0 0.02,-0.002 0.025,-0.006 0.005,-0.004 0.007,-0.011 0.007,-0.022l0.001 -0.009 -0.028 0 0 -0.074 0.07 0z"/>
  <path id="16" class="fil0" d="M6.408 1.162l-0.078 0.308c-0.004,0.018 -0.009,0.034 -0.014,0.047 -0.005,0.013 -0.011,0.025 -0.019,0.034 -0.008,0.01 -0.018,0.017 -0.031,0.023 -0.013,0.005 -0.028,0.008 -0.047,0.008 -0.013,0 -0.023,-0.001 -0.029,-0.002l0 -0.05c0.005,0.001 0.011,0.002 0.016,0.002 0.017,-0 0.03,-0.007 0.037,-0.019 0.008,-0.013 0.015,-0.033 0.021,-0.06l-0.037 0 -0.095 -0.291 0.074 0 0.073 0.247 0.056 -0.247 0.072 0z"/>
  <path id="17" class="fil0" d="M6.475 1.162l0.242 0 0 0.291 -0.069 0 0 -0.237 -0.105 0 0 0.147c0,0.018 -0.003,0.034 -0.008,0.048 -0.006,0.014 -0.014,0.025 -0.026,0.033 -0.012,0.008 -0.026,0.012 -0.043,0.012 -0.019,0 -0.034,-0.001 -0.043,-0.003l0 -0.052c0.007,0.001 0.012,0.002 0.018,0.002 0.013,0 0.022,-0.004 0.027,-0.011 0.005,-0.007 0.007,-0.019 0.007,-0.035l0 -0.195z"/>
  <polygon id="18" class="fil0" points="6.857,1.377 6.857,1.453 6.788,1.453 6.788,1.377 "/>
  <path id="19" class="fil0" d="M7.331 1.304l0.078 0 0 0.024c0,0.032 -0.006,0.057 -0.017,0.076 -0.011,0.019 -0.029,0.032 -0.054,0.04 -0.025,0.008 -0.059,0.012 -0.102,0.012 -0.035,0 -0.064,-0.003 -0.086,-0.01 -0.022,-0.007 -0.04,-0.018 -0.053,-0.034 -0.013,-0.016 -0.022,-0.038 -0.028,-0.066 -0.006,-0.028 -0.008,-0.064 -0.008,-0.11 0,-0.05 0.005,-0.089 0.015,-0.119 0.01,-0.029 0.027,-0.051 0.052,-0.065 0.025,-0.014 0.06,-0.021 0.105,-0.021 0.045,0 0.079,0.005 0.103,0.016 0.024,0.01 0.041,0.026 0.051,0.046 0.01,0.02 0.016,0.048 0.018,0.082l-0.078 0c-0.001,-0.022 -0.005,-0.038 -0.01,-0.048 -0.006,-0.01 -0.015,-0.017 -0.027,-0.021 -0.013,-0.004 -0.032,-0.005 -0.057,-0.005 -0.026,0 -0.045,0.003 -0.058,0.01 -0.012,0.007 -0.021,0.02 -0.026,0.04 -0.005,0.02 -0.007,0.051 -0.007,0.094 0,0.03 0.001,0.055 0.004,0.073 0.003,0.019 0.008,0.033 0.014,0.043 0.007,0.01 0.016,0.017 0.028,0.021 0.012,0.004 0.027,0.006 0.047,0.006 0.025,0 0.044,-0.002 0.057,-0.005 0.013,-0.003 0.023,-0.009 0.029,-0.018 0.006,-0.008 0.008,-0.02 0.008,-0.036l0 -0.026z"/>
  <path id="20" class="fil0" d="M7.643 1.453l0.006 -0.04 -0.002 0c-0.006,0.013 -0.013,0.023 -0.022,0.029 -0.009,0.006 -0.019,0.011 -0.03,0.013 -0.011,0.002 -0.026,0.003 -0.044,0.003 -0.025,0 -0.045,-0.003 -0.06,-0.009 -0.015,-0.006 -0.027,-0.016 -0.034,-0.029 -0.008,-0.013 -0.011,-0.031 -0.011,-0.053 0,-0.018 0.002,-0.034 0.006,-0.046 0.004,-0.012 0.01,-0.021 0.019,-0.028 0.009,-0.007 0.02,-0.012 0.034,-0.015 0.014,-0.003 0.032,-0.004 0.054,-0.004 0.026,0 0.044,0.003 0.055,0.008 0.011,0.006 0.02,0.015 0.027,0.029l0.003 0 0 -0.049c0,-0.016 -0.002,-0.028 -0.006,-0.036 -0.004,-0.008 -0.01,-0.014 -0.019,-0.018 -0.009,-0.003 -0.022,-0.005 -0.038,-0.005 -0.021,0 -0.035,0.003 -0.043,0.009 -0.008,0.006 -0.012,0.017 -0.012,0.034l-0.07 0c0.001,-0.018 0.004,-0.032 0.01,-0.044 0.006,-0.012 0.015,-0.021 0.025,-0.027 0.011,-0.006 0.023,-0.011 0.037,-0.013 0.014,-0.002 0.03,-0.004 0.049,-0.004 0.031,0 0.055,0.002 0.074,0.007 0.019,0.005 0.034,0.014 0.045,0.029 0.011,0.015 0.016,0.038 0.016,0.067l0 0.191 -0.069 0zm0 -0.087c0,-0.017 -0.005,-0.028 -0.014,-0.035 -0.01,-0.006 -0.027,-0.009 -0.054,-0.009 -0.015,0 -0.028,0.001 -0.036,0.004 -0.009,0.003 -0.015,0.007 -0.018,0.013 -0.004,0.006 -0.005,0.015 -0.005,0.026 0,0.016 0.004,0.027 0.013,0.034 0.009,0.007 0.024,0.01 0.046,0.01 0.025,0 0.043,-0.003 0.053,-0.009 0.011,-0.006 0.016,-0.018 0.016,-0.035z"/>
  <path id="21" class="fil0" d="M7.788 1.401c0.009,-0.011 0.015,-0.023 0.02,-0.033 0.005,-0.011 0.008,-0.024 0.011,-0.039 0.002,-0.015 0.004,-0.034 0.004,-0.057l0 -0.11 0.227 0 0 0.24 0.037 0 0 0.13 -0.064 0 0 -0.079 -0.202 0 0 0.079 -0.064 0 0 -0.13 0.031 0zm0.192 0l0 -0.188 -0.091 0 0 0.063c0,0.057 -0.011,0.098 -0.032,0.125l0.124 0z"/>
  <path id="22" class="fil0" d="M8.119 1.307c0,-0.038 0.004,-0.068 0.012,-0.089 0.008,-0.021 0.022,-0.037 0.042,-0.046 0.02,-0.009 0.047,-0.014 0.083,-0.014 0.036,0 0.063,0.005 0.083,0.014 0.02,0.009 0.034,0.025 0.042,0.046 0.008,0.021 0.012,0.051 0.012,0.089 0,0.028 -0.002,0.052 -0.007,0.071 -0.005,0.019 -0.012,0.034 -0.023,0.046 -0.01,0.012 -0.024,0.02 -0.042,0.026 -0.017,0.005 -0.04,0.008 -0.066,0.008 -0.026,0 -0.048,-0.003 -0.066,-0.008 -0.018,-0.005 -0.032,-0.014 -0.042,-0.026 -0.01,-0.012 -0.018,-0.027 -0.022,-0.046 -0.005,-0.019 -0.007,-0.043 -0.007,-0.071zm0.071 0c0,0.027 0.002,0.047 0.006,0.061 0.004,0.014 0.011,0.023 0.02,0.028 0.009,0.005 0.023,0.008 0.04,0.008 0.017,0 0.031,-0.002 0.04,-0.007 0.009,-0.005 0.016,-0.014 0.02,-0.028 0.004,-0.014 0.006,-0.034 0.006,-0.061 0,-0.02 -0.001,-0.037 -0.003,-0.049 -0.002,-0.012 -0.006,-0.022 -0.011,-0.028 -0.005,-0.007 -0.012,-0.011 -0.02,-0.014 -0.008,-0.003 -0.019,-0.004 -0.033,-0.004 -0.017,0 -0.031,0.002 -0.04,0.007 -0.009,0.005 -0.016,0.014 -0.02,0.028 -0.004,0.014 -0.006,0.034 -0.006,0.06z"/>
  <path id="23" class="fil0" d="M8.521 1.213l0 0.069 0.066 0c0.017,0 0.03,-0.003 0.037,-0.008 0.007,-0.005 0.011,-0.014 0.011,-0.026 0,-0.012 -0.003,-0.021 -0.01,-0.027 -0.006,-0.006 -0.017,-0.008 -0.032,-0.008l-0.073 0zm0 0.115l0 0.074 0.076 0c0.016,0 0.027,-0.003 0.034,-0.009 0.007,-0.006 0.011,-0.015 0.011,-0.028 0,-0.025 -0.014,-0.037 -0.042,-0.037l-0.079 0zm-0.068 0.125l0 -0.291 0.16 0c0.033,0 0.056,0.006 0.07,0.019 0.014,0.013 0.021,0.033 0.021,0.06 0,0.015 -0.005,0.028 -0.014,0.039 -0.009,0.011 -0.022,0.018 -0.039,0.022l0 0.002c0.018,0.003 0.032,0.011 0.043,0.023 0.011,0.012 0.016,0.027 0.016,0.047 0,0.019 -0.003,0.034 -0.008,0.046 -0.005,0.012 -0.015,0.02 -0.028,0.026 -0.013,0.006 -0.031,0.008 -0.054,0.008l-0.168 0z"/>
  <path id="24" class="fil0" d="M8.954 1.453l0.006 -0.04 -0.002 0c-0.006,0.013 -0.013,0.023 -0.022,0.029 -0.009,0.006 -0.019,0.011 -0.03,0.013 -0.011,0.002 -0.026,0.003 -0.044,0.003 -0.025,0 -0.045,-0.003 -0.06,-0.009 -0.015,-0.006 -0.027,-0.016 -0.034,-0.029 -0.008,-0.013 -0.011,-0.031 -0.011,-0.053 0,-0.018 0.002,-0.034 0.006,-0.046 0.004,-0.012 0.01,-0.021 0.019,-0.028 0.009,-0.007 0.02,-0.012 0.034,-0.015 0.014,-0.003 0.032,-0.004 0.054,-0.004 0.026,0 0.044,0.003 0.055,0.008 0.011,0.006 0.02,0.015 0.027,0.029l0.003 0 0 -0.049c0,-0.016 -0.002,-0.028 -0.006,-0.036 -0.004,-0.008 -0.01,-0.014 -0.019,-0.018 -0.009,-0.003 -0.022,-0.005 -0.038,-0.005 -0.021,0 -0.035,0.003 -0.043,0.009 -0.008,0.006 -0.012,0.017 -0.012,0.034l-0.07 0c0.001,-0.018 0.004,-0.032 0.01,-0.044 0.006,-0.012 0.015,-0.021 0.025,-0.027 0.011,-0.006 0.023,-0.011 0.037,-0.013 0.014,-0.002 0.03,-0.004 0.049,-0.004 0.031,0 0.055,0.002 0.074,0.007 0.019,0.005 0.034,0.014 0.045,0.029 0.011,0.015 0.016,0.038 0.016,0.067l0 0.191 -0.069 0zm0 -0.087c0,-0.017 -0.005,-0.028 -0.014,-0.035 -0.01,-0.006 -0.027,-0.009 -0.054,-0.009 -0.015,0 -0.028,0.001 -0.036,0.004 -0.009,0.003 -0.015,0.007 -0.018,0.013 -0.004,0.006 -0.005,0.015 -0.005,0.026 0,0.016 0.004,0.027 0.013,0.034 0.009,0.007 0.024,0.01 0.046,0.01 0.025,0 0.043,-0.003 0.053,-0.009 0.011,-0.006 0.016,-0.018 0.016,-0.035z"/>
  <path id="25" class="fil0" d="M9.334 1.162l0 0.291 -0.069 0 0 -0.111 -0.053 0 -0.065 0.111 -0.074 0 0.073 -0.12c-0.042,-0.012 -0.063,-0.039 -0.063,-0.083 0,-0.059 0.027,-0.088 0.082,-0.088l0.17 0zm-0.069 0.129l0 -0.079 -0.073 0c-0.014,0 -0.025,0.003 -0.031,0.008 -0.006,0.006 -0.009,0.016 -0.009,0.031 0,0.015 0.004,0.026 0.011,0.031 0.008,0.006 0.019,0.008 0.034,0.008l0.068 0z"/>
  <path id="26" class="fil0" d="M9.473 1.378l0 0.073c0,0.018 -0.002,0.033 -0.005,0.043 -0.003,0.01 -0.01,0.017 -0.02,0.022 -0.01,0.005 -0.024,0.007 -0.043,0.007 -0.003,0 -0.006,-0 -0.007,-0.001l0 -0.033c0.012,-0 0.02,-0.002 0.025,-0.006 0.005,-0.004 0.007,-0.011 0.007,-0.022l0.001 -0.009 -0.028 0 0 -0.074 0.07 0z"/>
  <path id="27" class="fil0" d="M9.696 1.401c0.009,-0.011 0.015,-0.023 0.02,-0.033 0.005,-0.011 0.008,-0.024 0.011,-0.039 0.002,-0.015 0.004,-0.034 0.004,-0.057l0 -0.11 0.227 0 0 0.24 0.037 0 0 0.13 -0.064 0 0 -0.079 -0.202 0 0 0.079 -0.064 0 0 -0.13 0.031 0zm0.192 0l0 -0.188 -0.091 0 0 0.063c0,0.057 -0.011,0.098 -0.032,0.125l0.124 0z"/>
  <polygon id="28" class="fil0" points="10.104,1.377 10.104,1.453 10.035,1.453 10.035,1.377 "/>
  <polygon id="29" class="fil0" points="10.621,1.037 10.621,1.114 10.452,1.453 10.366,1.453 10.545,1.103 10.313,1.103 10.313,1.037 "/>
  <path class="fil0" d="M0.932 2.115c-0.025,0 -0.044,0.001 -0.055,0.004 -0.011,0.003 -0.019,0.008 -0.024,0.017 -0.004,0.008 -0.006,0.021 -0.006,0.04 0,0.017 0.002,0.03 0.007,0.04 0.005,0.009 0.013,0.016 0.025,0.02 0.012,0.004 0.03,0.006 0.054,0.006 0.024,0 0.041,-0.002 0.054,-0.006 0.012,-0.004 0.021,-0.01 0.025,-0.019 0.005,-0.009 0.007,-0.022 0.007,-0.039 0,-0.018 -0.002,-0.031 -0.007,-0.04 -0.004,-0.009 -0.013,-0.014 -0.024,-0.017 -0.012,-0.003 -0.03,-0.004 -0.055,-0.004zm0 -0.175c-0.023,0 -0.04,0.002 -0.051,0.005 -0.011,0.003 -0.019,0.009 -0.023,0.017 -0.004,0.008 -0.006,0.021 -0.006,0.037 0,0.013 0.001,0.023 0.003,0.03 0.002,0.007 0.006,0.013 0.012,0.017 0.006,0.004 0.014,0.006 0.023,0.008 0.01,0.001 0.024,0.002 0.041,0.002 0.018,0 0.032,-0.001 0.042,-0.002 0.01,-0.001 0.018,-0.004 0.023,-0.008 0.006,-0.004 0.01,-0.009 0.012,-0.016 0.002,-0.007 0.003,-0.017 0.003,-0.03 0,-0.017 -0.002,-0.029 -0.007,-0.037 -0.004,-0.008 -0.012,-0.014 -0.023,-0.017 -0.011,-0.003 -0.028,-0.005 -0.05,-0.005zm-0.089 0.144c-0.018,-0.006 -0.031,-0.013 -0.041,-0.021 -0.01,-0.008 -0.017,-0.019 -0.021,-0.03 -0.004,-0.012 -0.006,-0.026 -0.006,-0.043 0,-0.021 0.003,-0.039 0.008,-0.053 0.006,-0.014 0.014,-0.026 0.027,-0.034 0.012,-0.008 0.028,-0.014 0.048,-0.018 0.02,-0.004 0.044,-0.006 0.073,-0.006 0.039,0 0.07,0.003 0.092,0.01 0.022,0.007 0.038,0.018 0.048,0.034 0.01,0.016 0.015,0.038 0.015,0.067 0,0.017 -0.002,0.032 -0.005,0.043 -0.003,0.011 -0.009,0.021 -0.019,0.03 -0.009,0.008 -0.023,0.015 -0.041,0.021 0.018,0.005 0.033,0.011 0.043,0.019 0.01,0.008 0.018,0.018 0.022,0.03 0.004,0.012 0.006,0.028 0.006,0.046 0,0.023 -0.003,0.043 -0.008,0.058 -0.005,0.015 -0.014,0.028 -0.026,0.038 -0.012,0.01 -0.029,0.017 -0.049,0.021 -0.021,0.005 -0.047,0.007 -0.079,0.007 -0.031,0 -0.057,-0.002 -0.078,-0.007 -0.021,-0.004 -0.037,-0.012 -0.049,-0.021 -0.012,-0.01 -0.021,-0.022 -0.026,-0.038 -0.005,-0.016 -0.008,-0.035 -0.008,-0.058 0,-0.018 0.002,-0.034 0.007,-0.046 0.004,-0.012 0.012,-0.023 0.022,-0.031 0.01,-0.008 0.025,-0.014 0.043,-0.019z"/>
  <path id="1" class="fil0" d="M1.442 1.877l0 0.065c-0.021,0 -0.035,0.005 -0.043,0.014 -0.008,0.009 -0.011,0.026 -0.011,0.052l0 0.22c0,0.027 0.003,0.046 0.01,0.055 0.007,0.01 0.018,0.014 0.033,0.014l0.011 0 0 0.065c-0.03,0 -0.054,-0.003 -0.072,-0.01 -0.018,-0.007 -0.031,-0.017 -0.039,-0.03 -0.008,-0.013 -0.014,-0.03 -0.017,-0.05 -0.003,-0.02 -0.004,-0.046 -0.004,-0.08l0 -0.148c0,-0.032 0.001,-0.058 0.004,-0.077 0.002,-0.019 0.008,-0.036 0.017,-0.049 0.009,-0.014 0.022,-0.024 0.039,-0.031 0.018,-0.007 0.042,-0.01 0.071,-0.01z"/>
  <path id="2" class="fil0" d="M1.632 2.116l0 -0.06 0.044 0c0.02,0 0.034,-0.001 0.043,-0.004 0.009,-0.002 0.015,-0.008 0.018,-0.016 0.003,-0.008 0.005,-0.022 0.006,-0.041 0,-0.015 -0.002,-0.026 -0.007,-0.034 -0.005,-0.008 -0.013,-0.013 -0.024,-0.016 -0.011,-0.003 -0.028,-0.004 -0.05,-0.004 -0.024,0 -0.042,0.002 -0.053,0.006 -0.011,0.004 -0.018,0.011 -0.022,0.021 -0.004,0.01 -0.005,0.027 -0.005,0.049l-0.074 0c0,-0.035 0.005,-0.062 0.015,-0.082 0.01,-0.02 0.026,-0.035 0.047,-0.043 0.022,-0.009 0.051,-0.013 0.088,-0.013 0.04,0 0.072,0.003 0.095,0.011 0.023,0.007 0.04,0.018 0.05,0.034 0.01,0.016 0.015,0.037 0.015,0.064 0,0.019 -0.002,0.035 -0.005,0.048 -0.003,0.013 -0.01,0.024 -0.019,0.032 -0.01,0.009 -0.024,0.014 -0.042,0.017l0 0.003c0.019,0.002 0.033,0.007 0.044,0.014 0.011,0.007 0.018,0.016 0.023,0.029 0.004,0.012 0.007,0.028 0.007,0.047 0,0.021 -0.002,0.04 -0.007,0.055 -0.005,0.015 -0.013,0.028 -0.024,0.039 -0.012,0.01 -0.028,0.018 -0.049,0.024 -0.021,0.005 -0.048,0.008 -0.081,0.008 -0.04,0 -0.072,-0.004 -0.096,-0.012 -0.024,-0.008 -0.041,-0.021 -0.051,-0.039 -0.01,-0.018 -0.015,-0.041 -0.015,-0.071l0 -0.023 0.074 0c0,0.025 0.002,0.042 0.005,0.053 0.004,0.011 0.012,0.018 0.024,0.023 0.012,0.004 0.032,0.006 0.059,0.006 0.023,0 0.041,-0.002 0.053,-0.007 0.012,-0.005 0.02,-0.012 0.025,-0.021 0.004,-0.01 0.007,-0.023 0.007,-0.039 0,-0.017 -0.002,-0.029 -0.006,-0.037 -0.004,-0.008 -0.011,-0.014 -0.021,-0.016 -0.009,-0.003 -0.023,-0.004 -0.04,-0.004l-0.049 0z"/>
  <path id="3" class="fil0" d="M2.179 1.883l0 0.267 0.048 0 0 0.059 -0.048 0 0 0.089 -0.077 0 0 -0.089 -0.225 0 0 -0.086 0.185 -0.24 0.117 0zm-0.239 0.267l0.162 0 0 -0.209 -0.162 0.209z"/>
  <polygon id="4" class="fil0" points="2.525,1.884 2.525,2.298 2.448,2.298 2.448,1.95 2.341,2.057 2.295,2.008 2.428,1.884 "/>
  <path id="5" class="fil0" d="M2.959 1.883l0 0.267 0.048 0 0 0.059 -0.048 0 0 0.089 -0.077 0 0 -0.089 -0.225 0 0 -0.086 0.185 -0.24 0.117 0zm-0.239 0.267l0.162 0 0 -0.209 -0.162 0.209z"/>
  <polygon id="6" class="fil0" points="3.305,1.884 3.305,2.298 3.229,2.298 3.229,1.95 3.121,2.057 3.075,2.008 3.209,1.884 "/>
  <path id="7" class="fil0" d="M3.454 1.877l0 0.065c0.021,0 0.035,0.005 0.043,0.015 0.008,0.01 0.012,0.027 0.012,0.053l0 0.215c0,0.028 -0.003,0.047 -0.01,0.057 -0.007,0.01 -0.018,0.016 -0.034,0.016l-0.011 0 0 0.065c0.03,0 0.054,-0.003 0.072,-0.01 0.018,-0.007 0.031,-0.017 0.039,-0.03 0.008,-0.013 0.014,-0.03 0.017,-0.05 0.003,-0.02 0.004,-0.046 0.005,-0.079l0 -0.148c0,-0.031 -0.001,-0.057 -0.004,-0.077 -0.003,-0.02 -0.008,-0.036 -0.017,-0.05 -0.009,-0.014 -0.022,-0.024 -0.04,-0.031 -0.018,-0.007 -0.042,-0.01 -0.072,-0.01z"/>
  <path id="8" class="fil0" d="M3.795 2.182l0.076 0c0,0.015 0.002,0.027 0.005,0.035 0.003,0.008 0.009,0.014 0.017,0.018 0.008,0.004 0.02,0.005 0.035,0.005l0.036 0c0.018,0 0.032,-0.002 0.041,-0.005 0.01,-0.003 0.017,-0.009 0.021,-0.018 0.004,-0.008 0.007,-0.021 0.007,-0.037l0 -0.084c-0.009,0.018 -0.021,0.029 -0.036,0.033 -0.015,0.005 -0.035,0.007 -0.06,0.007 -0.036,0 -0.064,-0.003 -0.086,-0.01 -0.021,-0.007 -0.037,-0.019 -0.047,-0.036 -0.01,-0.017 -0.015,-0.042 -0.015,-0.074 0,-0.025 0.002,-0.045 0.007,-0.062 0.005,-0.017 0.013,-0.031 0.024,-0.042 0.012,-0.011 0.028,-0.02 0.049,-0.025 0.021,-0.006 0.048,-0.008 0.08,-0.008 0.037,0 0.067,0.003 0.089,0.011 0.023,0.007 0.04,0.021 0.053,0.041 0.012,0.02 0.018,0.049 0.018,0.086l0 0.146c0,0.029 -0.003,0.053 -0.01,0.071 -0.007,0.018 -0.016,0.033 -0.029,0.042 -0.013,0.01 -0.029,0.017 -0.049,0.02 -0.019,0.004 -0.044,0.006 -0.073,0.006 -0.026,0 -0.048,-0.001 -0.066,-0.004 -0.018,-0.002 -0.033,-0.008 -0.047,-0.016 -0.013,-0.008 -0.023,-0.02 -0.031,-0.036 -0.007,-0.016 -0.011,-0.038 -0.011,-0.065zm0.238 -0.173c0,-0.018 -0.002,-0.032 -0.006,-0.041 -0.004,-0.009 -0.012,-0.016 -0.024,-0.02 -0.012,-0.004 -0.03,-0.006 -0.053,-0.006 -0.022,0 -0.039,0.002 -0.051,0.006 -0.012,0.004 -0.02,0.011 -0.024,0.02 -0.005,0.01 -0.007,0.023 -0.007,0.041 0,0.016 0.001,0.027 0.003,0.036 0.002,0.008 0.006,0.015 0.011,0.019 0.006,0.005 0.014,0.008 0.024,0.009 0.011,0.002 0.026,0.002 0.045,0.002 0.026,0 0.044,-0.002 0.055,-0.005 0.011,-0.003 0.019,-0.009 0.022,-0.018 0.004,-0.009 0.006,-0.024 0.006,-0.044z"/>
  <path id="9" class="fil0" d="M4.491 2.115c-0.025,0 -0.044,0.001 -0.055,0.004 -0.011,0.003 -0.019,0.008 -0.024,0.017 -0.004,0.008 -0.006,0.021 -0.006,0.04 0,0.017 0.002,0.03 0.007,0.04 0.005,0.009 0.013,0.016 0.025,0.02 0.012,0.004 0.03,0.006 0.054,0.006 0.024,0 0.041,-0.002 0.054,-0.006 0.012,-0.004 0.021,-0.01 0.025,-0.019 0.005,-0.009 0.007,-0.022 0.007,-0.039 0,-0.018 -0.002,-0.031 -0.007,-0.04 -0.004,-0.009 -0.013,-0.014 -0.024,-0.017 -0.012,-0.003 -0.03,-0.004 -0.055,-0.004zm0 -0.175c-0.023,0 -0.04,0.002 -0.051,0.005 -0.011,0.003 -0.019,0.009 -0.023,0.017 -0.004,0.008 -0.006,0.021 -0.006,0.037 0,0.013 0.001,0.023 0.003,0.03 0.002,0.007 0.006,0.013 0.012,0.017 0.006,0.004 0.014,0.006 0.023,0.008 0.01,0.001 0.024,0.002 0.041,0.002 0.018,0 0.032,-0.001 0.042,-0.002 0.01,-0.001 0.018,-0.004 0.023,-0.008 0.006,-0.004 0.01,-0.009 0.012,-0.016 0.002,-0.007 0.003,-0.017 0.003,-0.03 0,-0.017 -0.002,-0.029 -0.007,-0.037 -0.004,-0.008 -0.012,-0.014 -0.023,-0.017 -0.011,-0.003 -0.028,-0.005 -0.05,-0.005zm-0.089 0.144c-0.018,-0.006 -0.031,-0.013 -0.041,-0.021 -0.01,-0.008 -0.017,-0.019 -0.021,-0.03 -0.004,-0.012 -0.006,-0.026 -0.006,-0.043 0,-0.021 0.003,-0.039 0.008,-0.053 0.006,-0.014 0.014,-0.026 0.027,-0.034 0.012,-0.008 0.028,-0.014 0.048,-0.018 0.02,-0.004 0.044,-0.006 0.073,-0.006 0.039,0 0.07,0.003 0.092,0.01 0.022,0.007 0.038,0.018 0.048,0.034 0.01,0.016 0.015,0.038 0.015,0.067 0,0.017 -0.002,0.032 -0.005,0.043 -0.003,0.011 -0.009,0.021 -0.019,0.03 -0.009,0.008 -0.023,0.015 -0.041,0.021 0.018,0.005 0.033,0.011 0.043,0.019 0.01,0.008 0.018,0.018 0.022,0.03 0.004,0.012 0.006,0.028 0.006,0.046 0,0.023 -0.003,0.043 -0.008,0.058 -0.005,0.015 -0.014,0.028 -0.026,0.038 -0.012,0.01 -0.029,0.017 -0.049,0.021 -0.021,0.005 -0.047,0.007 -0.079,0.007 -0.031,0 -0.057,-0.002 -0.078,-0.007 -0.021,-0.004 -0.037,-0.012 -0.049,-0.021 -0.012,-0.01 -0.021,-0.022 -0.026,-0.038 -0.005,-0.016 -0.008,-0.035 -0.008,-0.058 0,-0.018 0.002,-0.034 0.007,-0.046 0.004,-0.012 0.012,-0.023 0.022,-0.031 0.01,-0.008 0.025,-0.014 0.043,-0.019z"/>
  <polygon id="10" class="fil0" points="4.964,1.884 4.964,2.298 4.887,2.298 4.887,1.95 4.78,2.057 4.734,2.008 4.867,1.884 "/>
  <path id="11" class="fil0" d="M5.547 1.883l0 0.267 0.048 0 0 0.059 -0.048 0 0 0.089 -0.077 0 0 -0.089 -0.225 0 0 -0.086 0.185 -0.24 0.117 0zm-0.239 0.267l0.162 0 0 -0.209 -0.162 0.209z"/>
  <path id="12" class="fil0" d="M5.779 2.116l0 -0.06 0.044 0c0.02,0 0.034,-0.001 0.043,-0.004 0.009,-0.002 0.015,-0.008 0.018,-0.016 0.003,-0.008 0.005,-0.022 0.006,-0.041 0,-0.015 -0.002,-0.026 -0.007,-0.034 -0.005,-0.008 -0.013,-0.013 -0.024,-0.016 -0.011,-0.003 -0.028,-0.004 -0.05,-0.004 -0.024,0 -0.042,0.002 -0.053,0.006 -0.011,0.004 -0.018,0.011 -0.022,0.021 -0.004,0.01 -0.005,0.027 -0.005,0.049l-0.074 0c0,-0.035 0.005,-0.062 0.015,-0.082 0.01,-0.02 0.026,-0.035 0.047,-0.043 0.022,-0.009 0.051,-0.013 0.088,-0.013 0.04,0 0.072,0.003 0.095,0.011 0.023,0.007 0.04,0.018 0.05,0.034 0.01,0.016 0.015,0.037 0.015,0.064 0,0.019 -0.002,0.035 -0.005,0.048 -0.003,0.013 -0.01,0.024 -0.019,0.032 -0.01,0.009 -0.024,0.014 -0.042,0.017l0 0.003c0.019,0.002 0.033,0.007 0.044,0.014 0.011,0.007 0.018,0.016 0.023,0.029 0.004,0.012 0.007,0.028 0.007,0.047 0,0.021 -0.002,0.04 -0.007,0.055 -0.005,0.015 -0.013,0.028 -0.024,0.039 -0.012,0.01 -0.028,0.018 -0.049,0.024 -0.021,0.005 -0.048,0.008 -0.081,0.008 -0.04,0 -0.072,-0.004 -0.096,-0.012 -0.024,-0.008 -0.041,-0.021 -0.051,-0.039 -0.01,-0.018 -0.015,-0.041 -0.015,-0.071l0 -0.023 0.074 0c0,0.025 0.002,0.042 0.005,0.053 0.004,0.011 0.012,0.018 0.024,0.023 0.012,0.004 0.032,0.006 0.059,0.006 0.023,0 0.041,-0.002 0.053,-0.007 0.012,-0.005 0.02,-0.012 0.025,-0.021 0.004,-0.01 0.007,-0.023 0.007,-0.039 0,-0.017 -0.002,-0.029 -0.006,-0.037 -0.004,-0.008 -0.011,-0.014 -0.021,-0.016 -0.009,-0.003 -0.023,-0.004 -0.04,-0.004l-0.049 0z"/>
  <path class="fil0" d="M0.872 2.839l0.064 0c0.025,0 0.043,-0.005 0.055,-0.014 0.012,-0.009 0.017,-0.023 0.017,-0.044 0,-0.015 -0.003,-0.027 -0.008,-0.036 -0.005,-0.009 -0.014,-0.015 -0.026,-0.018 -0.012,-0.004 -0.029,-0.005 -0.052,-0.005 -0.018,0 -0.033,0.001 -0.044,0.003 -0.011,0.002 -0.019,0.005 -0.026,0.01 -0.006,0.005 -0.011,0.011 -0.014,0.019 -0.003,0.008 -0.004,0.019 -0.004,0.032l-0.076 0c0.003,-0.034 0.009,-0.059 0.02,-0.077 0.011,-0.018 0.028,-0.031 0.051,-0.038 0.023,-0.007 0.054,-0.011 0.093,-0.011 0.054,0 0.095,0.009 0.121,0.026 0.026,0.017 0.04,0.044 0.04,0.081 0,0.029 -0.004,0.051 -0.013,0.065 -0.009,0.014 -0.024,0.025 -0.046,0.032l0 0.002c0.018,0.005 0.032,0.011 0.042,0.019 0.01,0.008 0.017,0.018 0.021,0.03 0.004,0.012 0.006,0.027 0.006,0.046 0,0.029 -0.005,0.053 -0.015,0.07 -0.01,0.018 -0.027,0.031 -0.052,0.04 -0.025,0.009 -0.06,0.013 -0.105,0.013 -0.028,0 -0.052,-0.002 -0.072,-0.005 -0.02,-0.003 -0.037,-0.009 -0.051,-0.018 -0.014,-0.008 -0.025,-0.021 -0.032,-0.037 -0.007,-0.016 -0.011,-0.036 -0.011,-0.061l0 -0.017 0.075 0c0,0.021 0.002,0.037 0.006,0.046 0.003,0.01 0.012,0.017 0.024,0.022 0.013,0.005 0.033,0.007 0.062,0.007 0.025,0 0.044,-0.002 0.058,-0.005 0.014,-0.004 0.024,-0.01 0.03,-0.019 0.006,-0.009 0.009,-0.021 0.009,-0.037 0,-0.022 -0.006,-0.039 -0.017,-0.048 -0.011,-0.01 -0.029,-0.014 -0.053,-0.014l-0.077 0 0 -0.059z"/>
  <path id="1" class="fil0" d="M1.217 2.84l0 0.069 0.066 0c0.017,0 0.03,-0.003 0.037,-0.008 0.007,-0.005 0.011,-0.014 0.011,-0.026 0,-0.012 -0.003,-0.021 -0.01,-0.027 -0.006,-0.006 -0.017,-0.008 -0.032,-0.008l-0.073 0zm0 0.115l0 0.074 0.076 0c0.016,0 0.027,-0.003 0.034,-0.009 0.007,-0.006 0.011,-0.015 0.011,-0.028 0,-0.025 -0.014,-0.037 -0.042,-0.037l-0.079 0zm-0.068 0.125l0 -0.291 0.16 0c0.033,0 0.056,0.006 0.07,0.019 0.014,0.013 0.021,0.033 0.021,0.06 0,0.015 -0.005,0.028 -0.014,0.039 -0.009,0.011 -0.022,0.018 -0.039,0.022l0 0.002c0.018,0.003 0.032,0.011 0.043,0.023 0.011,0.012 0.016,0.027 0.016,0.047 0,0.019 -0.003,0.034 -0.008,0.046 -0.005,0.012 -0.015,0.02 -0.028,0.026 -0.013,0.006 -0.031,0.008 -0.054,0.008l-0.168 0z"/>
  <path id="2" class="fil0" d="M1.712 2.789l-0.078 0.308c-0.004,0.018 -0.009,0.034 -0.014,0.047 -0.005,0.013 -0.011,0.025 -0.019,0.034 -0.008,0.01 -0.018,0.017 -0.031,0.023 -0.013,0.005 -0.028,0.008 -0.047,0.008 -0.013,0 -0.023,-0.001 -0.029,-0.002l0 -0.05c0.005,0.001 0.011,0.002 0.016,0.002 0.017,-0 0.03,-0.007 0.037,-0.019 0.008,-0.013 0.015,-0.033 0.021,-0.06l-0.037 0 -0.095 -0.291 0.074 0 0.073 0.247 0.056 -0.247 0.072 0z"/>
  <polygon id="3" class="fil0" points="1.822,2.789 1.822,2.902 1.839,2.902 1.92,2.789 1.999,2.789 1.896,2.925 2.019,3.08 1.936,3.08 1.839,2.949 1.822,2.949 1.822,3.08 1.753,3.08 1.753,2.789 "/>
  <path id="4" class="fil0" d="M2.051 2.934c0,-0.038 0.004,-0.068 0.012,-0.089 0.008,-0.021 0.022,-0.037 0.042,-0.046 0.02,-0.009 0.047,-0.014 0.083,-0.014 0.036,0 0.063,0.005 0.083,0.014 0.02,0.009 0.034,0.025 0.042,0.046 0.008,0.021 0.012,0.051 0.012,0.089 0,0.028 -0.002,0.052 -0.007,0.071 -0.005,0.019 -0.012,0.034 -0.023,0.046 -0.01,0.012 -0.024,0.02 -0.042,0.026 -0.017,0.005 -0.04,0.008 -0.066,0.008 -0.026,0 -0.048,-0.003 -0.066,-0.008 -0.018,-0.005 -0.032,-0.014 -0.042,-0.026 -0.01,-0.012 -0.018,-0.027 -0.022,-0.046 -0.005,-0.019 -0.007,-0.043 -0.007,-0.071zm0.071 0c0,0.027 0.002,0.047 0.006,0.061 0.004,0.014 0.011,0.023 0.02,0.028 0.009,0.005 0.023,0.008 0.04,0.008 0.017,0 0.031,-0.002 0.04,-0.007 0.009,-0.005 0.016,-0.014 0.02,-0.028 0.004,-0.014 0.006,-0.034 0.006,-0.061 0,-0.02 -0.001,-0.037 -0.003,-0.049 -0.002,-0.012 -0.006,-0.022 -0.011,-0.028 -0.005,-0.007 -0.012,-0.011 -0.02,-0.014 -0.008,-0.003 -0.019,-0.004 -0.033,-0.004 -0.017,0 -0.031,0.002 -0.04,0.007 -0.009,0.005 -0.016,0.014 -0.02,0.028 -0.004,0.014 -0.006,0.034 -0.006,0.06z"/>
  <path id="5" class="fil0" d="M2.373 2.934c0,-0.038 0.004,-0.068 0.012,-0.089 0.008,-0.021 0.022,-0.037 0.042,-0.046 0.02,-0.009 0.047,-0.014 0.083,-0.014 0.036,0 0.063,0.005 0.083,0.014 0.02,0.009 0.034,0.025 0.042,0.046 0.008,0.021 0.012,0.051 0.012,0.089 0,0.028 -0.002,0.052 -0.007,0.071 -0.005,0.019 -0.012,0.034 -0.023,0.046 -0.01,0.012 -0.024,0.02 -0.042,0.026 -0.017,0.005 -0.04,0.008 -0.066,0.008 -0.026,0 -0.048,-0.003 -0.066,-0.008 -0.018,-0.005 -0.032,-0.014 -0.042,-0.026 -0.01,-0.012 -0.018,-0.027 -0.022,-0.046 -0.005,-0.019 -0.007,-0.043 -0.007,-0.071zm0.071 0c0,0.027 0.002,0.047 0.006,0.061 0.004,0.014 0.011,0.023 0.02,0.028 0.009,0.005 0.023,0.008 0.04,0.008 0.017,0 0.031,-0.002 0.04,-0.007 0.009,-0.005 0.016,-0.014 0.02,-0.028 0.004,-0.014 0.006,-0.034 0.006,-0.061 0,-0.02 -0.001,-0.037 -0.003,-0.049 -0.002,-0.012 -0.006,-0.022 -0.011,-0.028 -0.005,-0.007 -0.012,-0.011 -0.02,-0.014 -0.008,-0.003 -0.019,-0.004 -0.033,-0.004 -0.017,0 -0.031,0.002 -0.04,0.007 -0.009,0.005 -0.016,0.014 -0.02,0.028 -0.004,0.014 -0.006,0.034 -0.006,0.06z"/>
  <polygon id="6" class="fil0" points="2.776,2.843 2.899,2.843 2.899,3.08 2.968,3.08 2.968,2.789 2.707,2.789 2.707,3.08 2.776,3.08 "/>
  <path id="7" class="fil0" d="M3.225 2.988l0.069 0 0 0.011c0,0.023 -0.005,0.041 -0.016,0.054 -0.011,0.013 -0.026,0.021 -0.045,0.026 -0.019,0.004 -0.043,0.007 -0.073,0.007 -0.034,0 -0.06,-0.005 -0.079,-0.014 -0.019,-0.009 -0.033,-0.025 -0.041,-0.046 -0.008,-0.022 -0.012,-0.051 -0.012,-0.089 0,-0.037 0.004,-0.067 0.013,-0.089 0.008,-0.022 0.022,-0.038 0.042,-0.047 0.019,-0.01 0.046,-0.015 0.079,-0.015 0.033,0 0.059,0.005 0.079,0.015 0.02,0.01 0.034,0.025 0.042,0.046 0.009,0.021 0.013,0.049 0.013,0.083l0 0.02 -0.197 0c0,0.023 0.002,0.041 0.006,0.053 0.004,0.012 0.01,0.02 0.019,0.025 0.009,0.005 0.022,0.007 0.039,0.007 0.016,0 0.028,-0.001 0.038,-0.003 0.009,-0.002 0.016,-0.006 0.021,-0.012 0.004,-0.006 0.007,-0.014 0.007,-0.025l0 -0.006zm0.001 -0.084c0,-0.017 -0.002,-0.031 -0.006,-0.041 -0.004,-0.01 -0.011,-0.017 -0.02,-0.021 -0.01,-0.004 -0.022,-0.006 -0.039,-0.006 -0.016,0 -0.029,0.002 -0.038,0.006 -0.009,0.004 -0.016,0.011 -0.02,0.021 -0.004,0.01 -0.006,0.023 -0.006,0.041l0.129 0z"/>
  <path id="8" class="fil0" d="M3.423 2.927c0,0.029 0.001,0.05 0.004,0.064 0.003,0.014 0.009,0.024 0.018,0.03 0.009,0.006 0.024,0.009 0.044,0.009 0.02,0 0.034,-0.004 0.043,-0.011 0.009,-0.007 0.015,-0.018 0.017,-0.031 0.002,-0.013 0.004,-0.033 0.004,-0.059 0,-0.027 -0.002,-0.046 -0.005,-0.058 -0.003,-0.012 -0.01,-0.021 -0.018,-0.025 -0.009,-0.004 -0.022,-0.006 -0.04,-0.006 -0.018,0 -0.032,0.002 -0.042,0.007 -0.01,0.005 -0.016,0.013 -0.02,0.026 -0.004,0.012 -0.006,0.031 -0.006,0.055zm0 0.113l0 0.163 -0.069 0 0 -0.414 0.067 0 -0.003 0.041 0.002 0c0.011,-0.017 0.024,-0.029 0.038,-0.036 0.014,-0.007 0.031,-0.01 0.052,-0.01 0.032,0 0.056,0.006 0.072,0.017 0.017,0.011 0.028,0.028 0.034,0.049 0.006,0.021 0.009,0.048 0.009,0.082 0,0.024 -0.001,0.045 -0.003,0.062 -0.002,0.017 -0.007,0.033 -0.014,0.046 -0.007,0.014 -0.019,0.024 -0.033,0.032 -0.015,0.008 -0.035,0.012 -0.06,0.012 -0.023,0 -0.041,-0.003 -0.055,-0.009 -0.014,-0.006 -0.026,-0.018 -0.036,-0.035z"/>
  <path id="9" class="fil0" d="M3.873 3.08l0.006 -0.04 -0.002 0c-0.006,0.013 -0.013,0.023 -0.022,0.029 -0.009,0.006 -0.019,0.011 -0.03,0.013 -0.011,0.002 -0.026,0.003 -0.044,0.003 -0.025,0 -0.045,-0.003 -0.06,-0.009 -0.015,-0.006 -0.027,-0.016 -0.034,-0.029 -0.008,-0.013 -0.011,-0.031 -0.011,-0.053 0,-0.018 0.002,-0.034 0.006,-0.046 0.004,-0.012 0.01,-0.021 0.019,-0.028 0.009,-0.007 0.02,-0.012 0.034,-0.015 0.014,-0.003 0.032,-0.004 0.054,-0.004 0.026,0 0.044,0.003 0.055,0.008 0.011,0.006 0.02,0.015 0.027,0.029l0.003 0 0 -0.049c0,-0.016 -0.002,-0.028 -0.006,-0.036 -0.004,-0.008 -0.01,-0.014 -0.019,-0.018 -0.009,-0.003 -0.022,-0.005 -0.038,-0.005 -0.021,0 -0.035,0.003 -0.043,0.009 -0.008,0.006 -0.012,0.017 -0.012,0.034l-0.07 0c0.001,-0.018 0.004,-0.032 0.01,-0.044 0.006,-0.012 0.015,-0.021 0.025,-0.027 0.011,-0.006 0.023,-0.011 0.037,-0.013 0.014,-0.002 0.03,-0.004 0.049,-0.004 0.031,0 0.055,0.002 0.074,0.007 0.019,0.005 0.034,0.014 0.045,0.029 0.011,0.015 0.016,0.038 0.016,0.067l0 0.191 -0.069 0zm0 -0.087c0,-0.017 -0.005,-0.028 -0.014,-0.035 -0.01,-0.006 -0.027,-0.009 -0.054,-0.009 -0.015,0 -0.028,0.001 -0.036,0.004 -0.009,0.003 -0.015,0.007 -0.018,0.013 -0.004,0.006 -0.005,0.015 -0.005,0.026 0,0.016 0.004,0.027 0.013,0.034 0.009,0.007 0.024,0.01 0.046,0.01 0.025,0 0.043,-0.003 0.053,-0.009 0.011,-0.006 0.016,-0.018 0.016,-0.035z"/>
  <polygon id="10" class="fil0" points="4.086,3.08 4.155,3.08 4.155,2.843 4.248,2.843 4.248,2.789 3.992,2.789 3.992,2.843 4.086,2.843 "/>
  <path id="11" class="fil0" d="M4.284 2.934c0,-0.038 0.004,-0.068 0.012,-0.089 0.008,-0.021 0.022,-0.037 0.042,-0.046 0.02,-0.009 0.047,-0.014 0.083,-0.014 0.036,0 0.063,0.005 0.083,0.014 0.02,0.009 0.034,0.025 0.042,0.046 0.008,0.021 0.012,0.051 0.012,0.089 0,0.028 -0.002,0.052 -0.007,0.071 -0.005,0.019 -0.012,0.034 -0.023,0.046 -0.01,0.012 -0.024,0.02 -0.042,0.026 -0.017,0.005 -0.04,0.008 -0.066,0.008 -0.026,0 -0.048,-0.003 -0.066,-0.008 -0.018,-0.005 -0.032,-0.014 -0.042,-0.026 -0.01,-0.012 -0.018,-0.027 -0.022,-0.046 -0.005,-0.019 -0.007,-0.043 -0.007,-0.071zm0.071 0c0,0.027 0.002,0.047 0.006,0.061 0.004,0.014 0.011,0.023 0.02,0.028 0.009,0.005 0.023,0.008 0.04,0.008 0.017,0 0.031,-0.002 0.04,-0.007 0.009,-0.005 0.016,-0.014 0.02,-0.028 0.004,-0.014 0.006,-0.034 0.006,-0.061 0,-0.02 -0.001,-0.037 -0.003,-0.049 -0.002,-0.012 -0.006,-0.022 -0.011,-0.028 -0.005,-0.007 -0.012,-0.011 -0.02,-0.014 -0.008,-0.003 -0.019,-0.004 -0.033,-0.004 -0.017,0 -0.031,0.002 -0.04,0.007 -0.009,0.005 -0.016,0.014 -0.02,0.028 -0.004,0.014 -0.006,0.034 -0.006,0.06z"/>
  <path id="12" class="fil0" d="M4.687 2.927c0,0.029 0.001,0.05 0.004,0.064 0.003,0.014 0.009,0.024 0.018,0.03 0.009,0.006 0.024,0.009 0.044,0.009 0.02,0 0.034,-0.004 0.043,-0.011 0.009,-0.007 0.015,-0.018 0.017,-0.031 0.002,-0.013 0.004,-0.033 0.004,-0.059 0,-0.027 -0.002,-0.046 -0.005,-0.058 -0.003,-0.012 -0.01,-0.021 -0.018,-0.025 -0.009,-0.004 -0.022,-0.006 -0.04,-0.006 -0.018,0 -0.032,0.002 -0.042,0.007 -0.01,0.005 -0.016,0.013 -0.02,0.026 -0.004,0.012 -0.006,0.031 -0.006,0.055zm0 0.113l0 0.163 -0.069 0 0 -0.414 0.067 0 -0.003 0.041 0.002 0c0.011,-0.017 0.024,-0.029 0.038,-0.036 0.014,-0.007 0.031,-0.01 0.052,-0.01 0.032,0 0.056,0.006 0.072,0.017 0.017,0.011 0.028,0.028 0.034,0.049 0.006,0.021 0.009,0.048 0.009,0.082 0,0.024 -0.001,0.045 -0.003,0.062 -0.002,0.017 -0.007,0.033 -0.014,0.046 -0.007,0.014 -0.019,0.024 -0.033,0.032 -0.015,0.008 -0.035,0.012 -0.06,0.012 -0.023,0 -0.041,-0.003 -0.055,-0.009 -0.014,-0.006 -0.026,-0.018 -0.036,-0.035z"/>
  <g id="_2008542625872">
   <rect class="fil1" x="0" y="1.841" width="0.491" height="0.491" rx="0.098" ry="0.093"/>
   <g>
    <path class="fil2" d="M0.094 1.926c-0.001,0.003 -0.009,0.008 -0.014,0.029 -0.002,0.006 -0.004,0.02 -0.004,0.027 0,0.026 0.003,0.036 0.01,0.06 0.004,0.015 0.019,0.046 0.027,0.059 0.003,0.005 0.005,0.009 0.008,0.013 0.012,0.019 0.038,0.055 0.053,0.071l0.013 0.014c0.014,0.015 0.029,0.029 0.045,0.041l0.019 0.013c0.002,0.002 0.005,0.003 0.007,0.004 0.023,0.014 0.053,0.027 0.081,0.025 0.009,-0 0.026,-0.002 0.033,-0.009 -0.003,-0.005 -0.007,-0.008 -0.01,-0.012l-0.007 -0.009c-0.001,-0.001 -0.001,-0.002 -0.002,-0.003 -0.012,-0.016 -0.027,-0.033 -0.039,-0.049l-0.019 -0.024c-0.004,0.002 -0.005,0.004 -0.011,0.004 -0.015,0 -0.046,-0.035 -0.057,-0.047 -0.011,-0.012 -0.018,-0.021 -0.027,-0.033l-0.017 -0.026c-0.006,-0.01 -0.016,-0.025 -0.013,-0.038 0.001,-0.005 0.003,-0.007 0.006,-0.01l-0.06 -0.075c-0.003,-0.004 -0.007,-0.008 -0.01,-0.012 -0.002,-0.002 -0.003,-0.004 -0.005,-0.006 -0.001,-0.002 -0.003,-0.005 -0.005,-0.005z"/>
    <path class="fil2" d="M0.127 1.942c0.016,0.02 0.035,0.043 0.05,0.062l0.01 0.012c0.003,-0.001 0.018,-0.014 0.021,-0.016 0.007,-0.006 0.016,-0.012 0.01,-0.023 -0.002,-0.003 -0.014,-0.018 -0.017,-0.022l-0.04 -0.05c-0.012,-0.013 -0.013,-0.02 -0.033,-0.005l-0.02 0.017 0.02 0.025z"/>
    <path class="fil2" d="M0.341 2.141c-0.005,0 -0.008,0.002 -0.011,0.005 -0.004,0.004 -0.023,0.018 -0.025,0.02l0.017 0.022c0,0 0,0 0,0l0.06 0.075 0.008 -0.006c0.002,-0.002 0.005,-0.004 0.008,-0.006 0.003,-0.002 0.006,-0.004 0.008,-0.006 0.003,-0.003 0.005,-0.004 0.007,-0.007 0.005,-0.008 -0.001,-0.015 -0.005,-0.02l-0.045 -0.056c-0.001,-0.001 -0.002,-0.002 -0.003,-0.004 -0.007,-0.008 -0.01,-0.016 -0.02,-0.016z"/>
   </g>
  </g>
  <g id="_2008542627696">
   <rect class="fil1" x="0" y="1.061" width="0.491" height="0.491" rx="0.098" ry="0.093"/>
   <g>
    <path class="fil2" d="M0.178 1.236l0.064 -0.038c0.001,-0.001 0.003,-0.002 0.004,-0.003 0,0 0,0 0,0l0.063 0.038c0.001,0.001 0.003,0.002 0.004,0.002 -0,0.002 -0.008,0.013 -0.008,0.015l0 0.065 -0.119 0 0 -0.064c0,-0.001 -0.001,-0.003 -0.002,-0.004l-0.007 -0.011zm0.068 0.266c0.004,0 0.006,-0.002 0.008,-0.005l0.019 -0.023c0.001,-0.001 0.002,-0.002 0.003,-0.003 0.001,-0.001 0.002,-0.002 0.003,-0.003l0.008 -0.01c0.001,-0.001 0.002,-0.002 0.003,-0.004 0.001,-0.001 0.002,-0.002 0.003,-0.004l0.015 -0.021c0.005,-0.007 0.01,-0.014 0.015,-0.022l0.009 -0.015c0.002,-0.003 0.003,-0.005 0.004,-0.008 0.003,-0.005 0.006,-0.011 0.009,-0.016l0.004 -0.008c0.001,-0.003 0.003,-0.005 0.004,-0.008 0.001,-0.001 0.001,-0.003 0.002,-0.004 0.006,-0.013 0.011,-0.026 0.016,-0.039 0.001,-0.003 0.002,-0.006 0.003,-0.009 0.005,-0.017 0.009,-0.032 0.009,-0.052 0,-0.042 -0.019,-0.075 -0.04,-0.096l-0.011 -0.01c-0.004,-0.003 -0.008,-0.006 -0.012,-0.009 -0.003,-0.002 -0.007,-0.004 -0.011,-0.006l-0.006 -0.003c-0.034,-0.016 -0.073,-0.016 -0.108,-0.002 -0.007,0.003 -0.014,0.007 -0.021,0.011 -0.005,0.003 -0.01,0.007 -0.015,0.011l-0.008 0.007c-0.001,0.001 -0.002,0.002 -0.003,0.003l-0.007 0.008c-0.002,0.002 -0.003,0.004 -0.005,0.006 -0.007,0.01 -0.012,0.019 -0.017,0.03 -0.002,0.005 -0.004,0.01 -0.005,0.016 -0,0.001 -0.001,0.003 -0.001,0.004 -0.004,0.015 -0.004,0.031 -0.002,0.047 0.003,0.023 0.011,0.047 0.02,0.068 0.005,0.012 0.011,0.025 0.018,0.037 0.005,0.01 0.011,0.019 0.016,0.028 0.003,0.004 0.005,0.009 0.008,0.013 0.004,0.007 0.014,0.021 0.019,0.028l0.009 0.012c0.008,0.011 0.016,0.022 0.025,0.032 0.004,0.005 0.008,0.011 0.013,0.016 0.002,0.002 0.004,0.005 0.008,0.005z"/>
    <path class="fil2" d="M0.203 1.24l0 0.058 0.025 0 0 -0.042 0.034 0 0 0.042 0.026 0 0 -0.058c0,-0.001 -0.002,-0.002 -0.002,-0.002 -0.001,-0.001 -0.002,-0.001 -0.003,-0.002l-0.037 -0.022c-0.001,-0 -0.005,0.002 -0.005,0.003l-0.036 0.022c-0.001,0 -0.001,0 -0.001,0.001z"/>
   </g>
  </g>
  <g id="_2008542632048">
   <rect class="fil1" x="0" y="2.621" width="0.491" height="0.491" rx="0.098" ry="0.093"/>
   <g>
    <path class="fil2" d="M0.213 2.687c0,0.023 0.004,0.032 -0.005,0.038 -0.008,-0.006 -0.005,-0.001 -0.005,-0.028 -0.02,0.005 -0.035,0.035 -0.039,0.056 -0.002,0.01 0,0.005 -0.004,0.012 -0.003,0.004 -0.006,0.004 -0.006,0.01 0,0.033 0.116,0.033 0.155,0.022 0.012,-0.003 0.041,-0.014 0.028,-0.028 -0.018,-0.019 -0.003,-0.01 -0.016,-0.039 -0.006,-0.012 -0.017,-0.03 -0.03,-0.034 0,0.014 0,0.017 -0.002,0.028l-0.007 0c-0.003,-0.013 -0.002,-0.022 -0.002,-0.038 -0.032,-0.008 -0.048,-0.004 -0.066,0z"/>
    <path class="fil2" d="M0.163 2.822c0,0.025 0.015,0.037 0.028,0.065 0.018,0.039 0.079,0.07 0.117,-0.012 0.009,-0.02 0.021,-0.017 0.021,-0.057 0,-0.026 -0.016,-0.005 -0.066,-0.005 -0.053,0 -0.041,0.002 -0.092,-0.009 -0.003,0.005 -0.007,0.01 -0.007,0.019z"/>
    <path class="fil2" d="M0.139 3.047c0.02,0 0.036,0.005 0.059,0.005l0.097 0c0.024,0 0.04,-0.005 0.062,-0.005l0 -0.043 -0.218 0 0 0.043z"/>
    <path class="fil2" d="M0.175 2.905l0 0.076 0.144 0 0 -0.076 -0.016 -0.005c-0.02,0.031 -0.055,0.044 -0.091,0.022 -0.012,-0.007 -0.016,-0.015 -0.026,-0.022 -0.005,0.003 -0.006,0.003 -0.012,0.005z"/>
    <path class="fil2" d="M0.075 3.021c0,0.011 0.011,0.013 0.023,0.017 0.045,0.015 -0.019,-0.051 0.052,-0.057l0 -0.064c-0.039,0.003 -0.076,0.055 -0.076,0.104z"/>
    <path class="fil2" d="M0.34 2.924l0 0.057c0.045,0 0.04,0.024 0.04,0.059 0.013,-0 0.024,-0.007 0.035,-0.009l0 -0.013c-0,-0.011 -0.001,-0.018 -0.004,-0.03 -0.013,-0.04 -0.026,-0.05 -0.057,-0.066 -0.005,-0.002 -0.014,-0.009 -0.014,0.003z"/>
   </g>
  </g>
 </g>
</svg>
