<?xml version="1.0" encoding="UTF-8"?>
<!DOCTYPE svg PUBLIC "-//W3C//DTD SVG 1.1//EN" "http://www.w3.org/Graphics/SVG/1.1/DTD/svg11.dtd">
<!-- Creator: CorelDRAW 2019 (64-Bit) -->
<svg xmlns="http://www.w3.org/2000/svg" xml:space="preserve" width="2.30198cm" height="0.81508cm" version="1.1" style="shape-rendering:geometricPrecision; text-rendering:geometricPrecision; image-rendering:optimizeQuality; fill-rule:evenodd; clip-rule:evenodd"
viewBox="0 0 7.736 2.739"
 xmlns:xlink="http://www.w3.org/1999/xlink"
 xmlns:xodm="http://www.corel.com/coreldraw/odm/2003">
 <defs>
  <style type="text/css">
   <![CDATA[
    .fil1 {fill:#1B5A5C}
    .fil2 {fill:#29878C}
    .fil0 {fill:white;fill-rule:nonzero}
   ]]>
  </style>
 </defs>
 <g id="Слой_x0020_1">
  <metadata id="CorelCorpID_0Corel-Layer"/>
  <path class="fil0" d="M0.942 0.29l0.084 0 0 0.026c0,0.034 -0.006,0.061 -0.018,0.081 -0.012,0.02 -0.031,0.034 -0.058,0.043 -0.027,0.009 -0.063,0.013 -0.109,0.013 -0.038,0 -0.068,-0.004 -0.092,-0.011 -0.024,-0.007 -0.042,-0.019 -0.056,-0.036 -0.014,-0.017 -0.024,-0.041 -0.03,-0.071 -0.006,-0.03 -0.009,-0.069 -0.009,-0.117 0,-0.053 0.005,-0.095 0.016,-0.127 0.011,-0.031 0.029,-0.054 0.056,-0.069 0.027,-0.015 0.064,-0.023 0.112,-0.023 0.048,0 0.085,0.006 0.11,0.017 0.026,0.011 0.044,0.028 0.054,0.049 0.01,0.022 0.017,0.051 0.019,0.088l-0.083 0c-0.001,-0.023 -0.005,-0.041 -0.011,-0.052 -0.006,-0.011 -0.016,-0.018 -0.029,-0.022 -0.014,-0.004 -0.034,-0.006 -0.061,-0.006 -0.028,0 -0.049,0.004 -0.062,0.011 -0.013,0.007 -0.022,0.021 -0.028,0.042 -0.005,0.021 -0.008,0.054 -0.008,0.1 0,0.032 0.001,0.058 0.004,0.078 0.003,0.02 0.008,0.035 0.015,0.046 0.007,0.011 0.017,0.018 0.029,0.023 0.012,0.004 0.029,0.006 0.05,0.006 0.027,0 0.047,-0.002 0.061,-0.005 0.014,-0.004 0.025,-0.01 0.031,-0.019 0.006,-0.009 0.009,-0.022 0.009,-0.039l0 -0.028z"/>
  <path id="1" class="fil0" d="M1.084 0.376c0.009,-0.009 0.016,-0.019 0.022,-0.03 0.006,-0.011 0.011,-0.024 0.014,-0.038 0.003,-0.014 0.006,-0.031 0.008,-0.05 0.002,-0.019 0.002,-0.041 0.003,-0.066l0 -0.187 0.321 0 0 0.372 0.04 0 0 0.176 -0.079 0 0 -0.103 -0.282 0 0 0.103 -0.08 0 0 -0.176 0.034 0zm0.129 -0.299l0 0.114c0,0.032 -0.001,0.059 -0.003,0.082 -0.002,0.023 -0.006,0.042 -0.012,0.06 -0.006,0.017 -0.014,0.032 -0.024,0.043l0.192 0 0 -0.299 -0.153 0z"/>
  <polygon id="2" class="fil0" points="1.634,0.005 1.634,0.186 1.674,0.186 1.822,0.005 1.926,0.005 1.746,0.221 1.945,0.449 1.837,0.449 1.674,0.259 1.634,0.259 1.634,0.449 1.549,0.449 1.549,0.005 "/>
  <path id="3" class="fil0" d="M2.22 0.127l0.05 0.028 -0.062 0.128 0.066 0.124 -0.047 0.031 -0.085 -0.156 0.078 -0.156zm0.121 -0.002l0.05 0.029 -0.063 0.127 0.067 0.125 -0.048 0.03 -0.085 -0.155 0.079 -0.156z"/>
  <path id="4" class="fil0" d="M2.471 0.376c0.009,-0.009 0.016,-0.019 0.022,-0.03 0.006,-0.011 0.011,-0.024 0.014,-0.038 0.003,-0.014 0.006,-0.031 0.008,-0.05 0.002,-0.019 0.002,-0.041 0.003,-0.066l0 -0.187 0.321 0 0 0.372 0.04 0 0 0.176 -0.079 0 0 -0.103 -0.282 0 0 0.103 -0.08 0 0 -0.176 0.034 0zm0.129 -0.299l0 0.114c0,0.032 -0.001,0.059 -0.003,0.082 -0.002,0.023 -0.006,0.042 -0.012,0.06 -0.006,0.017 -0.014,0.032 -0.024,0.043l0.192 0 0 -0.299 -0.153 0z"/>
  <path id="5" class="fil0" d="M3.053 0.315l-0.03 0 0 -0.05 0.03 0c0.025,0 0.043,-0.004 0.052,-0.011 0.009,-0.007 0.014,-0.018 0.014,-0.031 0,-0.009 -0.002,-0.017 -0.006,-0.022 -0.004,-0.005 -0.01,-0.009 -0.019,-0.011 -0.009,-0.002 -0.021,-0.004 -0.037,-0.004 -0.015,0 -0.027,0.001 -0.035,0.002 -0.008,0.002 -0.014,0.005 -0.019,0.011 -0.005,0.006 -0.007,0.015 -0.007,0.027l-0.073 0c0.002,-0.024 0.008,-0.042 0.017,-0.056 0.009,-0.013 0.023,-0.023 0.042,-0.029 0.019,-0.006 0.045,-0.009 0.077,-0.009 0.028,0 0.052,0.003 0.071,0.008 0.019,0.005 0.034,0.014 0.045,0.026 0.011,0.012 0.016,0.028 0.016,0.048 0,0.019 -0.004,0.034 -0.013,0.046 -0.009,0.011 -0.023,0.019 -0.043,0.024 0.021,0.005 0.036,0.014 0.046,0.027 0.01,0.013 0.015,0.029 0.015,0.047 0,0.019 -0.003,0.035 -0.009,0.047 -0.006,0.012 -0.015,0.022 -0.026,0.029 -0.012,0.007 -0.026,0.012 -0.042,0.015 -0.017,0.003 -0.037,0.004 -0.06,0.004 -0.035,0 -0.063,-0.003 -0.084,-0.009 -0.021,-0.006 -0.036,-0.015 -0.045,-0.028 -0.009,-0.012 -0.014,-0.029 -0.014,-0.05l0 -0.017 0.073 0c0,0.014 0.002,0.024 0.005,0.031 0.004,0.007 0.01,0.012 0.02,0.014 0.009,0.003 0.024,0.004 0.043,0.004 0.025,0 0.043,-0.003 0.052,-0.008 0.01,-0.006 0.015,-0.017 0.015,-0.034 0,-0.016 -0.005,-0.028 -0.015,-0.034 -0.01,-0.006 -0.028,-0.009 -0.055,-0.009z"/>
  <path id="6" class="fil0" d="M3.511 0.138l0 0.311 -0.074 0 0 -0.119 -0.057 0 -0.07 0.119 -0.079 0 0.078 -0.129c-0.045,-0.013 -0.068,-0.042 -0.068,-0.088 0,-0.063 0.029,-0.094 0.088,-0.094l0.182 0zm-0.074 0.138l0 -0.084 -0.078 0c-0.015,0 -0.026,0.003 -0.033,0.009 -0.007,0.006 -0.01,0.017 -0.01,0.033 0,0.016 0.004,0.027 0.012,0.033 0.008,0.006 0.02,0.009 0.037,0.009l0.072 0z"/>
  <polygon id="7" class="fil0" points="3.66,0.138 3.66,0.258 3.678,0.258 3.765,0.138 3.85,0.138 3.739,0.284 3.871,0.449 3.782,0.449 3.678,0.309 3.66,0.309 3.66,0.449 3.586,0.449 3.586,0.138 "/>
  <path id="8" class="fil0" d="M3.917 0.138l0 0.311 0.091 0 0.101 -0.194c0.005,-0.009 0.016,-0.032 0.034,-0.07 -0.003,0.008 -0.006,0.023 -0.01,0.043 -0.003,0.021 -0.005,0.037 -0.005,0.049l0 0.171 0.071 0 0 -0.311 -0.091 0 -0.101 0.195c-0.007,0.012 -0.018,0.036 -0.034,0.07 0.003,-0.009 0.007,-0.022 0.01,-0.039 0.003,-0.017 0.005,-0.032 0.005,-0.046l0 -0.181 -0.071 0z"/>
  <polygon id="9" class="fil0" points="4.349,0.314 4.48,0.314 4.48,0.449 4.554,0.449 4.554,0.138 4.48,0.138 4.48,0.256 4.349,0.256 4.349,0.138 4.275,0.138 4.275,0.449 4.349,0.449 "/>
  <path id="10" class="fil0" d="M4.83 0.331l0.073 0c0,0.022 -0.002,0.042 -0.007,0.057 -0.005,0.015 -0.013,0.028 -0.023,0.038 -0.011,0.01 -0.025,0.017 -0.043,0.021 -0.018,0.004 -0.04,0.007 -0.066,0.007 -0.036,0 -0.065,-0.005 -0.085,-0.015 -0.021,-0.01 -0.035,-0.026 -0.044,-0.05 -0.009,-0.023 -0.013,-0.055 -0.013,-0.096 0,-0.041 0.004,-0.073 0.013,-0.096 0.009,-0.023 0.024,-0.04 0.044,-0.05 0.021,-0.01 0.049,-0.015 0.085,-0.015 0.027,0 0.051,0.003 0.071,0.009 0.02,0.006 0.036,0.016 0.048,0.031 0.012,0.015 0.018,0.036 0.018,0.062l0 0.011 -0.072 0 0 -0.004c0,-0.015 -0.002,-0.026 -0.006,-0.033 -0.004,-0.007 -0.011,-0.013 -0.02,-0.015 -0.009,-0.003 -0.022,-0.004 -0.039,-0.004 -0.018,0 -0.031,0.003 -0.041,0.009 -0.01,0.006 -0.016,0.017 -0.02,0.031 -0.004,0.015 -0.006,0.036 -0.006,0.063 0,0.027 0.002,0.048 0.006,0.062 0.004,0.015 0.011,0.025 0.02,0.031 0.01,0.006 0.023,0.009 0.041,0.009 0.019,0 0.034,-0.002 0.043,-0.006 0.009,-0.004 0.016,-0.01 0.019,-0.019 0.003,-0.009 0.005,-0.022 0.005,-0.04z"/>
  <polygon id="11" class="fil0" points="5.037,0.138 5.037,0.258 5.054,0.258 5.142,0.138 5.226,0.138 5.116,0.284 5.248,0.449 5.158,0.449 5.054,0.309 5.037,0.309 5.037,0.449 4.963,0.449 4.963,0.138 "/>
  <path id="12" class="fil0" d="M5.294 0.138l0 0.311 0.091 0 0.101 -0.194c0.005,-0.009 0.016,-0.032 0.034,-0.07 -0.003,0.008 -0.006,0.023 -0.01,0.043 -0.003,0.021 -0.005,0.037 -0.005,0.049l0 0.171 0.071 0 0 -0.311 -0.091 0 -0.101 0.195c-0.007,0.012 -0.018,0.036 -0.034,0.07 0.003,-0.009 0.007,-0.022 0.01,-0.039 0.003,-0.017 0.005,-0.032 0.005,-0.046l0 -0.181 -0.071 0z"/>
  <path id="13" class="fil0" d="M5.651 0.138l0 0.311 0.091 0 0.101 -0.194c0.008,-0.014 0.019,-0.037 0.034,-0.069 -0.003,0.008 -0.006,0.023 -0.01,0.043 -0.003,0.02 -0.005,0.037 -0.005,0.049l0 0.171 0.071 0 0 -0.311 -0.091 0 -0.101 0.196c-0.005,0.01 -0.017,0.032 -0.034,0.069 0.003,-0.009 0.007,-0.021 0.01,-0.038 0.003,-0.017 0.005,-0.032 0.005,-0.046l0 -0.181 -0.071 0zm0.138 -0.022c-0.024,0 -0.042,-0.005 -0.056,-0.014 -0.013,-0.009 -0.02,-0.026 -0.02,-0.05l0.041 0c0,0.01 0.002,0.017 0.007,0.021 0.005,0.004 0.014,0.006 0.028,0.006 0.015,0 0.024,-0.002 0.029,-0.006 0.005,-0.004 0.007,-0.011 0.007,-0.022l0.04 0c0,0.024 -0.007,0.041 -0.02,0.05 -0.013,0.009 -0.032,0.014 -0.057,0.014z"/>
  <path id="14" class="fil0" d="M6.177 0.127l0.078 0.156 -0.085 0.156 -0.048 -0.031 0.068 -0.124 -0.063 -0.128 0.05 -0.028zm-0.121 -0.002l0.078 0.156 -0.084 0.155 -0.047 -0.03 0.067 -0.125 -0.064 -0.127 0.05 -0.029z"/>
  <path class="fil0" d="M0.84 1.148l0.058 0c0,0.018 -0.002,0.033 -0.006,0.046 -0.004,0.012 -0.01,0.023 -0.019,0.03 -0.009,0.008 -0.02,0.013 -0.034,0.017 -0.014,0.004 -0.032,0.005 -0.053,0.005 -0.029,0 -0.052,-0.004 -0.068,-0.012 -0.017,-0.008 -0.028,-0.021 -0.035,-0.04 -0.007,-0.018 -0.011,-0.044 -0.011,-0.076 0,-0.033 0.004,-0.058 0.011,-0.077 0.007,-0.019 0.019,-0.032 0.035,-0.04 0.017,-0.008 0.039,-0.012 0.068,-0.012 0.022,0 0.04,0.002 0.057,0.007 0.016,0.005 0.029,0.013 0.039,0.025 0.01,0.012 0.014,0.029 0.014,0.05l0 0.009 -0.058 0 0 -0.003c0,-0.012 -0.002,-0.021 -0.005,-0.027 -0.003,-0.006 -0.008,-0.01 -0.016,-0.012 -0.007,-0.002 -0.018,-0.003 -0.031,-0.003 -0.014,0 -0.025,0.002 -0.033,0.007 -0.008,0.005 -0.013,0.013 -0.016,0.025 -0.003,0.012 -0.005,0.028 -0.005,0.05 0,0.021 0.002,0.038 0.005,0.05 0.003,0.012 0.009,0.02 0.016,0.025 0.008,0.005 0.019,0.007 0.033,0.007 0.015,0 0.027,-0.002 0.035,-0.005 0.008,-0.003 0.013,-0.008 0.015,-0.015 0.002,-0.007 0.004,-0.018 0.004,-0.032z"/>
  <polygon id="1" class="fil0" points="1.002,1.178 1.002,1.242 0.942,1.242 0.942,1.178 "/>
  <path id="2" class="fil0" d="M1.191 1.184c0.007,-0.007 0.013,-0.015 0.018,-0.024 0.005,-0.009 0.008,-0.019 0.011,-0.031 0.003,-0.011 0.005,-0.025 0.006,-0.04 0.001,-0.015 0.002,-0.033 0.002,-0.053l0 -0.15 0.257 0 0 0.297 0.032 0 0 0.14 -0.064 0 0 -0.082 -0.225 0 0 0.082 -0.064 0 0 -0.14 0.027 0zm0.103 -0.239l0 0.091c0,0.025 -0.001,0.047 -0.003,0.065 -0.002,0.018 -0.005,0.034 -0.01,0.048 -0.005,0.014 -0.011,0.025 -0.019,0.035l0.154 0 0 -0.239 -0.122 0z"/>
  <path id="3" class="fil0" d="M1.657 1.135l-0.024 0 0 -0.04 0.024 0c0.02,0 0.034,-0.003 0.042,-0.008 0.007,-0.006 0.011,-0.014 0.011,-0.025 0,-0.007 -0.002,-0.013 -0.005,-0.017 -0.003,-0.004 -0.008,-0.007 -0.015,-0.009 -0.007,-0.002 -0.017,-0.003 -0.029,-0.003 -0.012,0 -0.021,0.001 -0.028,0.002 -0.006,0.001 -0.012,0.004 -0.015,0.009 -0.004,0.005 -0.006,0.012 -0.006,0.021l-0.059 0c0.002,-0.019 0.006,-0.034 0.014,-0.045 0.007,-0.011 0.019,-0.018 0.034,-0.023 0.015,-0.005 0.036,-0.007 0.061,-0.007 0.022,0 0.041,0.002 0.057,0.006 0.016,0.004 0.028,0.011 0.036,0.021 0.008,0.01 0.013,0.023 0.013,0.039 0,0.015 -0.003,0.028 -0.01,0.037 -0.007,0.009 -0.018,0.015 -0.035,0.019 0.017,0.004 0.029,0.011 0.037,0.022 0.008,0.01 0.012,0.023 0.012,0.038 0,0.015 -0.002,0.028 -0.007,0.038 -0.005,0.01 -0.012,0.018 -0.021,0.023 -0.009,0.006 -0.021,0.01 -0.034,0.012 -0.013,0.002 -0.029,0.003 -0.048,0.003 -0.028,0 -0.051,-0.002 -0.067,-0.007 -0.017,-0.005 -0.028,-0.012 -0.036,-0.022 -0.007,-0.01 -0.011,-0.023 -0.011,-0.04l0 -0.014 0.058 0c0,0.011 0.001,0.02 0.004,0.025 0.003,0.006 0.008,0.009 0.016,0.012 0.008,0.002 0.019,0.003 0.034,0.003 0.02,0 0.034,-0.002 0.042,-0.007 0.008,-0.004 0.012,-0.013 0.012,-0.027 0,-0.013 -0.004,-0.022 -0.012,-0.027 -0.008,-0.005 -0.023,-0.007 -0.044,-0.007z"/>
  <path id="4" class="fil0" d="M2.023 0.994l0 0.249 -0.059 0 0 -0.095 -0.046 0 -0.056 0.095 -0.063 0 0.062 -0.103c-0.036,-0.01 -0.054,-0.034 -0.054,-0.071 0,-0.05 0.023,-0.075 0.07,-0.075l0.146 0zm-0.059 0.111l0 -0.067 -0.063 0c-0.012,0 -0.021,0.002 -0.026,0.007 -0.005,0.005 -0.008,0.014 -0.008,0.026 0,0.013 0.003,0.022 0.01,0.027 0.006,0.005 0.016,0.007 0.029,0.007l0.058 0z"/>
  <polygon id="5" class="fil0" points="2.143,0.994 2.143,1.09 2.157,1.09 2.227,0.994 2.295,0.994 2.206,1.11 2.312,1.242 2.24,1.242 2.157,1.131 2.143,1.131 2.143,1.242 2.084,1.242 2.084,0.994 "/>
  <path id="6" class="fil0" d="M2.349 0.994l0 0.248 0.073 0 0.081 -0.155c0.004,-0.007 0.013,-0.026 0.027,-0.056 -0.002,0.007 -0.005,0.018 -0.008,0.034 -0.003,0.016 -0.004,0.03 -0.004,0.039l0 0.137 0.056 0 0 -0.248 -0.073 0 -0.081 0.156c-0.005,0.01 -0.014,0.029 -0.027,0.056 0.003,-0.007 0.005,-0.017 0.008,-0.031 0.003,-0.014 0.004,-0.026 0.004,-0.036l0 -0.145 -0.056 0z"/>
  <polygon id="7" class="fil0" points="2.694,1.134 2.799,1.134 2.799,1.242 2.858,1.242 2.858,0.994 2.799,0.994 2.799,1.088 2.694,1.088 2.694,0.994 2.635,0.994 2.635,1.242 2.694,1.242 "/>
  <path id="8" class="fil0" d="M2.912 1.118c0,-0.033 0.003,-0.058 0.01,-0.076 0.007,-0.018 0.019,-0.031 0.036,-0.039 0.017,-0.008 0.04,-0.012 0.071,-0.012 0.031,0 0.054,0.004 0.071,0.012 0.017,0.008 0.029,0.021 0.036,0.039 0.007,0.018 0.011,0.044 0.011,0.076 0,0.024 -0.002,0.044 -0.006,0.061 -0.004,0.016 -0.01,0.029 -0.019,0.039 -0.009,0.01 -0.021,0.017 -0.036,0.022 -0.015,0.005 -0.034,0.007 -0.057,0.007 -0.023,0 -0.041,-0.002 -0.057,-0.007 -0.015,-0.005 -0.027,-0.012 -0.036,-0.022 -0.009,-0.01 -0.015,-0.023 -0.019,-0.039 -0.004,-0.016 -0.006,-0.036 -0.006,-0.061zm0.061 0c0,0.023 0.002,0.04 0.005,0.052 0.003,0.012 0.009,0.02 0.017,0.024 0.008,0.004 0.019,0.006 0.034,0.007 0.015,0 0.026,-0.002 0.034,-0.006 0.008,-0.004 0.014,-0.012 0.017,-0.024 0.004,-0.012 0.005,-0.029 0.005,-0.052 0,-0.017 -0.001,-0.031 -0.003,-0.042 -0.002,-0.01 -0.005,-0.019 -0.009,-0.024 -0.004,-0.006 -0.01,-0.01 -0.017,-0.012 -0.007,-0.002 -0.016,-0.003 -0.028,-0.004 -0.015,0 -0.026,0.002 -0.034,0.006 -0.008,0.004 -0.014,0.012 -0.017,0.024 -0.003,0.012 -0.005,0.029 -0.005,0.052z"/>
  <path id="9" class="fil0" d="M3.255 1.179l0 0.062c0,0.016 -0.002,0.028 -0.004,0.037 -0.003,0.009 -0.009,0.015 -0.017,0.019 -0.008,0.004 -0.02,0.006 -0.037,0.006 -0.003,0 -0.005,-0 -0.006,-0l0 -0.028c0.01,-0 0.017,-0.002 0.022,-0.005 0.004,-0.003 0.006,-0.009 0.006,-0.019l0 -0.008 -0.024 0 0 -0.064 0.06 0z"/>
  <path id="10" class="fil0" d="M3.655 0.994l-0.066 0.264c-0.004,0.015 -0.008,0.029 -0.012,0.04 -0.004,0.011 -0.01,0.021 -0.016,0.029 -0.007,0.008 -0.015,0.015 -0.026,0.019 -0.011,0.005 -0.024,0.007 -0.04,0.007 -0.011,0 -0.019,-0.001 -0.025,-0.002l0 -0.043c0.005,0.001 0.009,0.002 0.014,0.002 0.015,-0 0.025,-0.006 0.032,-0.017 0.007,-0.011 0.013,-0.028 0.018,-0.051l-0.031 0 -0.082 -0.248 0.063 0 0.062 0.211 0.048 -0.211 0.062 0z"/>
  <path id="11" class="fil0" d="M3.712 0.994l0.207 0 0 0.248 -0.059 0 0 -0.202 -0.09 0 0 0.126c0,0.016 -0.002,0.029 -0.007,0.041 -0.005,0.012 -0.012,0.021 -0.022,0.028 -0.01,0.007 -0.022,0.01 -0.037,0.01 -0.017,0 -0.029,-0.001 -0.036,-0.002l0 -0.045c0.006,0.001 0.011,0.001 0.015,0.001 0.011,0 0.019,-0.003 0.023,-0.009 0.004,-0.006 0.006,-0.016 0.006,-0.03l0 -0.167z"/>
  <polygon id="12" class="fil0" points="4.039,1.178 4.039,1.242 3.98,1.242 3.98,1.178 "/>
  <path id="13" class="fil0" d="M4.444 1.115l0.067 0 0 0.021c0,0.027 -0.005,0.049 -0.014,0.065 -0.009,0.016 -0.025,0.027 -0.046,0.034 -0.021,0.007 -0.05,0.011 -0.087,0.011 -0.03,0 -0.055,-0.003 -0.074,-0.009 -0.019,-0.006 -0.034,-0.015 -0.045,-0.029 -0.011,-0.014 -0.019,-0.033 -0.024,-0.056 -0.005,-0.024 -0.007,-0.055 -0.007,-0.094 0,-0.043 0.004,-0.076 0.013,-0.101 0.009,-0.025 0.023,-0.044 0.045,-0.056 0.021,-0.012 0.051,-0.018 0.09,-0.018 0.038,0 0.068,0.004 0.088,0.013 0.021,0.009 0.035,0.022 0.043,0.04 0.008,0.017 0.014,0.041 0.016,0.07l-0.066 0c-0.001,-0.019 -0.004,-0.033 -0.009,-0.041 -0.005,-0.009 -0.013,-0.015 -0.023,-0.018 -0.011,-0.003 -0.027,-0.005 -0.049,-0.005 -0.022,0 -0.039,0.003 -0.049,0.009 -0.011,0.006 -0.018,0.017 -0.022,0.034 -0.004,0.017 -0.006,0.044 -0.006,0.08 0,0.026 0.001,0.047 0.004,0.063 0.002,0.016 0.006,0.028 0.012,0.037 0.006,0.009 0.014,0.015 0.024,0.018 0.01,0.003 0.023,0.005 0.04,0.005 0.021,0 0.038,-0.001 0.049,-0.004 0.012,-0.003 0.02,-0.008 0.025,-0.015 0.005,-0.007 0.007,-0.017 0.007,-0.031l0 -0.022z"/>
  <path id="14" class="fil0" d="M4.542 1.118c0,-0.033 0.003,-0.058 0.01,-0.076 0.007,-0.018 0.019,-0.031 0.036,-0.039 0.017,-0.008 0.04,-0.012 0.071,-0.012 0.031,0 0.054,0.004 0.071,0.012 0.017,0.008 0.029,0.021 0.036,0.039 0.007,0.018 0.011,0.044 0.011,0.076 0,0.024 -0.002,0.044 -0.006,0.061 -0.004,0.016 -0.01,0.029 -0.019,0.039 -0.009,0.01 -0.021,0.017 -0.036,0.022 -0.015,0.005 -0.034,0.007 -0.057,0.007 -0.023,0 -0.041,-0.002 -0.057,-0.007 -0.015,-0.005 -0.027,-0.012 -0.036,-0.022 -0.009,-0.01 -0.015,-0.023 -0.019,-0.039 -0.004,-0.016 -0.006,-0.036 -0.006,-0.061zm0.061 0c0,0.023 0.002,0.04 0.005,0.052 0.003,0.012 0.009,0.02 0.017,0.024 0.008,0.004 0.019,0.006 0.034,0.007 0.015,0 0.026,-0.002 0.034,-0.006 0.008,-0.004 0.014,-0.012 0.017,-0.024 0.004,-0.012 0.005,-0.029 0.005,-0.052 0,-0.017 -0.001,-0.031 -0.003,-0.042 -0.002,-0.01 -0.005,-0.019 -0.009,-0.024 -0.004,-0.006 -0.01,-0.01 -0.017,-0.012 -0.007,-0.002 -0.016,-0.003 -0.028,-0.004 -0.015,0 -0.026,0.002 -0.034,0.006 -0.008,0.004 -0.014,0.012 -0.017,0.024 -0.003,0.012 -0.005,0.029 -0.005,0.052z"/>
  <path id="15" class="fil0" d="M4.886 1.037l0 0.059 0.056 0c0.015,0 0.026,-0.002 0.032,-0.007 0.006,-0.004 0.01,-0.012 0.01,-0.022 0,-0.011 -0.003,-0.018 -0.008,-0.023 -0.005,-0.005 -0.015,-0.007 -0.027,-0.007l-0.062 0zm0 0.099l0 0.064 0.065 0c0.014,0 0.023,-0.003 0.029,-0.008 0.006,-0.005 0.009,-0.013 0.009,-0.024 0,-0.021 -0.012,-0.032 -0.036,-0.032l-0.068 0zm-0.058 0.107l0 -0.248 0.137 0c0.028,0 0.048,0.005 0.06,0.016 0.012,0.011 0.018,0.028 0.018,0.051 0,0.013 -0.004,0.024 -0.012,0.033 -0.008,0.009 -0.019,0.016 -0.033,0.019l0 0.001c0.015,0.003 0.028,0.009 0.037,0.019 0.009,0.01 0.014,0.023 0.014,0.04 0,0.016 -0.002,0.029 -0.007,0.039 -0.005,0.01 -0.013,0.017 -0.024,0.022 -0.011,0.005 -0.026,0.007 -0.046,0.007l-0.144 0z"/>
  <path id="16" class="fil0" d="M5.257 1.164l0.059 0 0 0.009c0,0.02 -0.005,0.035 -0.014,0.046 -0.009,0.011 -0.022,0.018 -0.038,0.022 -0.016,0.004 -0.037,0.006 -0.063,0.006 -0.029,0 -0.051,-0.004 -0.068,-0.012 -0.016,-0.008 -0.028,-0.021 -0.035,-0.04 -0.007,-0.018 -0.011,-0.044 -0.011,-0.076 0,-0.032 0.004,-0.057 0.011,-0.076 0.007,-0.019 0.019,-0.032 0.036,-0.041 0.017,-0.008 0.039,-0.013 0.067,-0.013 0.028,0 0.051,0.004 0.068,0.013 0.017,0.009 0.029,0.022 0.036,0.04 0.007,0.018 0.011,0.042 0.011,0.071l0 0.017 -0.169 0c0,0.02 0.002,0.035 0.005,0.045 0.003,0.01 0.009,0.017 0.016,0.021 0.008,0.004 0.019,0.006 0.033,0.006 0.014,0 0.024,-0.001 0.032,-0.003 0.008,-0.002 0.014,-0.005 0.018,-0.011 0.004,-0.005 0.006,-0.012 0.006,-0.022l0 -0.005zm0.001 -0.072c0,-0.015 -0.002,-0.026 -0.005,-0.035 -0.004,-0.008 -0.009,-0.014 -0.017,-0.018 -0.008,-0.004 -0.019,-0.005 -0.033,-0.005 -0.014,0 -0.025,0.002 -0.033,0.005 -0.008,0.004 -0.014,0.01 -0.017,0.018 -0.003,0.008 -0.005,0.02 -0.005,0.035l0.111 0z"/>
  <polygon id="17" class="fil0" points="5.429,1.242 5.488,1.242 5.488,1.04 5.567,1.04 5.567,0.994 5.349,0.994 5.349,1.04 5.429,1.04 "/>
  <path id="18" class="fil0" d="M5.766 1.148l0.058 0c0,0.018 -0.002,0.033 -0.006,0.046 -0.004,0.012 -0.01,0.023 -0.019,0.03 -0.009,0.008 -0.02,0.013 -0.034,0.017 -0.014,0.004 -0.032,0.005 -0.053,0.005 -0.029,0 -0.052,-0.004 -0.068,-0.012 -0.017,-0.008 -0.028,-0.021 -0.035,-0.04 -0.007,-0.018 -0.011,-0.044 -0.011,-0.076 0,-0.033 0.004,-0.058 0.011,-0.077 0.007,-0.019 0.019,-0.032 0.035,-0.04 0.017,-0.008 0.039,-0.012 0.068,-0.012 0.022,0 0.04,0.002 0.057,0.007 0.016,0.005 0.029,0.013 0.039,0.025 0.01,0.012 0.014,0.029 0.014,0.05l0 0.009 -0.058 0 0 -0.003c0,-0.012 -0.002,-0.021 -0.005,-0.027 -0.003,-0.006 -0.008,-0.01 -0.016,-0.012 -0.007,-0.002 -0.018,-0.003 -0.031,-0.003 -0.014,0 -0.025,0.002 -0.033,0.007 -0.008,0.005 -0.013,0.013 -0.016,0.025 -0.003,0.012 -0.005,0.028 -0.005,0.05 0,0.021 0.002,0.038 0.005,0.05 0.003,0.012 0.009,0.02 0.016,0.025 0.008,0.005 0.019,0.007 0.033,0.007 0.015,0 0.027,-0.002 0.035,-0.005 0.008,-0.003 0.013,-0.008 0.015,-0.015 0.002,-0.007 0.004,-0.018 0.004,-0.032z"/>
  <polygon id="19" class="fil0" points="5.931,0.994 5.931,1.09 5.945,1.09 6.015,0.994 6.082,0.994 5.994,1.11 6.099,1.242 6.028,1.242 5.945,1.131 5.931,1.131 5.931,1.242 5.871,1.242 5.871,0.994 "/>
  <path id="20" class="fil0" d="M6.296 1.242l0.005 -0.034 -0.001 0c-0.005,0.011 -0.011,0.019 -0.019,0.025 -0.007,0.006 -0.016,0.009 -0.026,0.011 -0.01,0.002 -0.022,0.003 -0.038,0.003 -0.021,0 -0.038,-0.003 -0.052,-0.007 -0.013,-0.005 -0.023,-0.013 -0.029,-0.025 -0.006,-0.011 -0.01,-0.027 -0.01,-0.046 0,-0.016 0.002,-0.029 0.005,-0.039 0.003,-0.01 0.009,-0.018 0.016,-0.024 0.007,-0.006 0.017,-0.01 0.029,-0.013 0.012,-0.003 0.027,-0.004 0.046,-0.004 0.022,0 0.038,0.002 0.047,0.007 0.01,0.005 0.017,0.013 0.023,0.025l0.003 0 0 -0.042c0,-0.014 -0.002,-0.024 -0.005,-0.031 -0.003,-0.007 -0.009,-0.012 -0.016,-0.015 -0.008,-0.003 -0.018,-0.004 -0.033,-0.004 -0.018,0 -0.03,0.003 -0.037,0.008 -0.007,0.005 -0.01,0.015 -0.01,0.029l-0.06 0c0,-0.015 0.003,-0.028 0.009,-0.038 0.005,-0.01 0.013,-0.018 0.022,-0.023 0.009,-0.005 0.02,-0.009 0.032,-0.011 0.012,-0.002 0.026,-0.003 0.042,-0.003 0.026,0 0.047,0.002 0.064,0.006 0.016,0.004 0.029,0.012 0.038,0.025 0.009,0.013 0.014,0.032 0.014,0.058l0 0.164 -0.059 0zm0 -0.074c0,-0.014 -0.004,-0.024 -0.012,-0.03 -0.008,-0.005 -0.023,-0.008 -0.046,-0.008 -0.013,0 -0.024,0.001 -0.031,0.004 -0.007,0.002 -0.013,0.006 -0.016,0.012 -0.003,0.005 -0.005,0.013 -0.005,0.022 0,0.014 0.004,0.023 0.011,0.029 0.008,0.006 0.02,0.008 0.039,0.008 0.021,0 0.037,-0.003 0.046,-0.008 0.009,-0.005 0.014,-0.015 0.014,-0.03z"/>
  <path id="21" class="fil0" d="M6.621 0.994l0 0.249 -0.059 0 0 -0.095 -0.046 0 -0.056 0.095 -0.063 0 0.062 -0.103c-0.036,-0.01 -0.054,-0.034 -0.054,-0.071 0,-0.05 0.023,-0.075 0.07,-0.075l0.146 0zm-0.059 0.111l0 -0.067 -0.063 0c-0.012,0 -0.021,0.002 -0.026,0.007 -0.005,0.005 -0.008,0.014 -0.008,0.026 0,0.013 0.003,0.022 0.01,0.027 0.006,0.005 0.016,0.007 0.029,0.007l0.058 0z"/>
  <path id="22" class="fil0" d="M6.739 1.179l0 0.062c0,0.016 -0.002,0.028 -0.004,0.037 -0.003,0.009 -0.009,0.015 -0.017,0.019 -0.008,0.004 -0.02,0.006 -0.037,0.006 -0.003,0 -0.005,-0 -0.006,-0l0 -0.028c0.01,-0 0.017,-0.002 0.022,-0.005 0.004,-0.003 0.006,-0.009 0.006,-0.019l0 -0.008 -0.024 0 0 -0.064 0.06 0z"/>
  <path id="23" class="fil0" d="M6.93 1.198c0.007,-0.01 0.013,-0.019 0.017,-0.028 0.004,-0.009 0.007,-0.02 0.009,-0.033 0.002,-0.013 0.003,-0.029 0.003,-0.049l0 -0.094 0.194 0 0 0.205 0.032 0 0 0.112 -0.055 0 0 -0.067 -0.173 0 0 0.067 -0.055 0 0 -0.112 0.027 0zm0.164 0l0 -0.161 -0.078 0 0 0.054c0,0.048 -0.009,0.084 -0.027,0.107l0.106 0z"/>
  <polygon id="24" class="fil0" points="7.28,1.178 7.28,1.242 7.22,1.242 7.22,1.178 "/>
  <path id="25" class="fil0" d="M7.721 0.887l0 0.051 -0.189 0 0 0.088c0.009,-0.012 0.02,-0.019 0.034,-0.023 0.014,-0.003 0.03,-0.005 0.05,-0.005 0.021,0 0.039,0.002 0.055,0.007 0.015,0.005 0.028,0.011 0.037,0.02 0.01,0.009 0.017,0.021 0.022,0.035 0.005,0.015 0.007,0.032 0.007,0.052 0,0.025 -0.002,0.046 -0.005,0.062 -0.003,0.016 -0.01,0.029 -0.019,0.04 -0.009,0.011 -0.023,0.018 -0.041,0.023 -0.018,0.005 -0.041,0.008 -0.071,0.008 -0.026,0 -0.047,-0.002 -0.064,-0.005 -0.017,-0.003 -0.031,-0.009 -0.041,-0.017 -0.011,-0.008 -0.019,-0.019 -0.024,-0.033 -0.005,-0.014 -0.008,-0.031 -0.008,-0.052l0.066 0c0,0.015 0.002,0.026 0.007,0.034 0.005,0.008 0.011,0.013 0.02,0.015 0.009,0.003 0.021,0.004 0.036,0.004 0.022,0 0.039,-0.002 0.049,-0.006 0.011,-0.004 0.018,-0.011 0.022,-0.02 0.004,-0.01 0.006,-0.024 0.006,-0.044 0,-0.019 -0.002,-0.033 -0.005,-0.043 -0.003,-0.01 -0.009,-0.017 -0.018,-0.021 -0.008,-0.004 -0.021,-0.006 -0.037,-0.006l-0.024 0c-0.015,0 -0.027,0.001 -0.036,0.004 -0.01,0.003 -0.015,0.01 -0.018,0.02l-0.06 0 0 -0.19 0.248 0z"/>
  <path class="fil0" d="M0.797 1.809c-0.022,0 -0.038,0.001 -0.047,0.004 -0.01,0.002 -0.017,0.007 -0.02,0.014 -0.004,0.007 -0.005,0.018 -0.005,0.034 0,0.015 0.002,0.026 0.006,0.034 0.004,0.008 0.011,0.014 0.021,0.017 0.01,0.003 0.026,0.005 0.046,0.005 0.02,0 0.035,-0.002 0.046,-0.005 0.011,-0.003 0.018,-0.009 0.022,-0.017 0.004,-0.008 0.006,-0.019 0.006,-0.033 0,-0.015 -0.002,-0.027 -0.006,-0.034 -0.004,-0.007 -0.011,-0.012 -0.021,-0.015 -0.01,-0.003 -0.026,-0.004 -0.047,-0.004zm0 -0.149c-0.019,0 -0.034,0.001 -0.043,0.004 -0.01,0.003 -0.016,0.008 -0.02,0.015 -0.004,0.007 -0.006,0.018 -0.006,0.031 0,0.011 0.001,0.02 0.003,0.026 0.002,0.006 0.005,0.011 0.01,0.014 0.005,0.003 0.012,0.005 0.02,0.007 0.009,0.001 0.02,0.002 0.035,0.002 0.015,0 0.027,-0.001 0.036,-0.002 0.008,-0.001 0.015,-0.003 0.02,-0.007 0.005,-0.003 0.008,-0.008 0.01,-0.014 0.002,-0.006 0.003,-0.015 0.003,-0.026 0,-0.014 -0.002,-0.025 -0.006,-0.032 -0.004,-0.007 -0.01,-0.012 -0.02,-0.014 -0.009,-0.003 -0.024,-0.004 -0.043,-0.004zm-0.076 0.123c-0.015,-0.005 -0.027,-0.011 -0.035,-0.018 -0.008,-0.007 -0.014,-0.016 -0.018,-0.026 -0.003,-0.01 -0.005,-0.022 -0.005,-0.036 0,-0.018 0.002,-0.034 0.007,-0.046 0.005,-0.012 0.012,-0.022 0.023,-0.029 0.01,-0.007 0.024,-0.012 0.041,-0.015 0.017,-0.003 0.038,-0.005 0.063,-0.005 0.033,0 0.059,0.003 0.079,0.009 0.019,0.006 0.033,0.015 0.041,0.029 0.009,0.014 0.013,0.033 0.013,0.058 0,0.015 -0.001,0.027 -0.004,0.037 -0.003,0.01 -0.008,0.018 -0.016,0.025 -0.008,0.007 -0.02,0.013 -0.035,0.018 0.016,0.004 0.028,0.009 0.037,0.016 0.009,0.007 0.015,0.015 0.018,0.026 0.004,0.011 0.005,0.024 0.005,0.039 0,0.02 -0.002,0.036 -0.007,0.05 -0.005,0.013 -0.012,0.024 -0.022,0.032 -0.01,0.008 -0.024,0.014 -0.042,0.018 -0.018,0.004 -0.04,0.006 -0.067,0.006 -0.027,0 -0.049,-0.002 -0.067,-0.006 -0.018,-0.004 -0.032,-0.01 -0.042,-0.018 -0.01,-0.008 -0.018,-0.019 -0.022,-0.032 -0.004,-0.013 -0.007,-0.03 -0.007,-0.05 0,-0.016 0.002,-0.029 0.006,-0.039 0.004,-0.011 0.01,-0.019 0.019,-0.026 0.009,-0.007 0.021,-0.012 0.037,-0.016z"/>
  <path id="1" class="fil0" d="M1.234 1.606l0 0.055c-0.018,0 -0.03,0.004 -0.037,0.012 -0.006,0.008 -0.01,0.023 -0.01,0.044l0 0.188c0,0.023 0.003,0.039 0.008,0.047 0.006,0.008 0.015,0.012 0.029,0.012l0.009 0 0 0.055c-0.026,0 -0.046,-0.003 -0.061,-0.009 -0.015,-0.006 -0.026,-0.014 -0.034,-0.026 -0.007,-0.011 -0.012,-0.026 -0.014,-0.043 -0.002,-0.017 -0.003,-0.04 -0.003,-0.068l0 -0.127c0,-0.027 0.001,-0.049 0.003,-0.066 0.002,-0.017 0.007,-0.031 0.014,-0.042 0.007,-0.012 0.019,-0.02 0.034,-0.026 0.015,-0.006 0.036,-0.009 0.061,-0.009z"/>
  <path id="2" class="fil0" d="M1.395 1.81l0 -0.051 0.038 0c0.017,0 0.029,-0.001 0.036,-0.003 0.007,-0.002 0.012,-0.007 0.015,-0.014 0.003,-0.007 0.004,-0.019 0.005,-0.035 0,-0.013 -0.002,-0.023 -0.006,-0.029 -0.004,-0.007 -0.011,-0.011 -0.02,-0.014 -0.01,-0.003 -0.024,-0.004 -0.042,-0.004 -0.021,0 -0.036,0.002 -0.045,0.005 -0.009,0.003 -0.016,0.009 -0.019,0.018 -0.003,0.009 -0.005,0.023 -0.005,0.042l-0.064 0c0,-0.03 0.004,-0.053 0.013,-0.07 0.008,-0.017 0.022,-0.03 0.04,-0.037 0.019,-0.008 0.044,-0.011 0.075,-0.011 0.034,0 0.061,0.003 0.081,0.009 0.02,0.006 0.034,0.016 0.043,0.029 0.009,0.014 0.013,0.032 0.013,0.055 0,0.016 -0.001,0.03 -0.004,0.041 -0.003,0.011 -0.008,0.02 -0.017,0.028 -0.008,0.007 -0.02,0.012 -0.036,0.014l0 0.002c0.016,0.002 0.029,0.006 0.038,0.012 0.009,0.006 0.015,0.014 0.019,0.025 0.004,0.011 0.006,0.024 0.006,0.041 0,0.018 -0.002,0.034 -0.006,0.047 -0.004,0.013 -0.011,0.024 -0.021,0.033 -0.01,0.009 -0.024,0.016 -0.042,0.02 -0.018,0.005 -0.041,0.007 -0.069,0.007 -0.035,0 -0.062,-0.004 -0.082,-0.011 -0.02,-0.007 -0.035,-0.018 -0.044,-0.033 -0.009,-0.015 -0.013,-0.035 -0.013,-0.06l0 -0.019 0.063 0c0,0.021 0.002,0.036 0.005,0.045 0.003,0.009 0.01,0.016 0.02,0.019 0.01,0.004 0.027,0.005 0.051,0.005 0.02,0 0.035,-0.002 0.045,-0.006 0.01,-0.004 0.017,-0.01 0.021,-0.018 0.004,-0.008 0.006,-0.019 0.006,-0.034 0,-0.014 -0.002,-0.025 -0.006,-0.032 -0.004,-0.007 -0.01,-0.012 -0.018,-0.014 -0.008,-0.002 -0.019,-0.003 -0.034,-0.003l-0.042 0z"/>
  <path id="3" class="fil0" d="M1.863 1.61l0 0.228 0.041 0 0 0.051 -0.041 0 0 0.076 -0.065 0 0 -0.076 -0.193 0 0 -0.073 0.158 -0.205 0.1 0zm-0.204 0.228l0.139 0 0 -0.179 -0.139 0.179z"/>
  <polygon id="4" class="fil0" points="2.159,1.611 2.159,1.966 2.094,1.966 2.094,1.667 2.002,1.759 1.963,1.718 2.077,1.611 "/>
  <path id="5" class="fil0" d="M2.531 1.61l0 0.228 0.041 0 0 0.051 -0.041 0 0 0.076 -0.065 0 0 -0.076 -0.193 0 0 -0.073 0.158 -0.205 0.1 0zm-0.204 0.228l0.139 0 0 -0.179 -0.139 0.179z"/>
  <polygon id="6" class="fil0" points="2.827,1.611 2.827,1.966 2.761,1.966 2.761,1.667 2.67,1.759 2.63,1.718 2.744,1.611 "/>
  <path id="7" class="fil0" d="M2.954 1.606l0 0.055c0.018,0 0.03,0.004 0.037,0.013 0.007,0.008 0.01,0.023 0.01,0.045l0 0.184c0,0.024 -0.003,0.04 -0.009,0.049 -0.006,0.009 -0.015,0.013 -0.029,0.013l-0.009 0 0 0.055c0.026,0 0.046,-0.003 0.061,-0.009 0.015,-0.006 0.026,-0.014 0.034,-0.026 0.007,-0.011 0.012,-0.026 0.014,-0.043 0.002,-0.017 0.004,-0.04 0.004,-0.068l0 -0.127c0,-0.027 -0.001,-0.049 -0.003,-0.066 -0.002,-0.017 -0.007,-0.031 -0.015,-0.043 -0.007,-0.012 -0.019,-0.02 -0.034,-0.026 -0.015,-0.006 -0.036,-0.009 -0.061,-0.009z"/>
  <path id="8" class="fil0" d="M3.246 1.867l0.065 0c0,0.013 0.001,0.023 0.004,0.03 0.003,0.007 0.008,0.012 0.015,0.015 0.007,0.003 0.017,0.005 0.03,0.005l0.031 0c0.015,0 0.027,-0.001 0.035,-0.004 0.008,-0.003 0.015,-0.008 0.018,-0.015 0.004,-0.007 0.006,-0.018 0.006,-0.032l0 -0.072c-0.008,0.015 -0.018,0.025 -0.031,0.029 -0.013,0.004 -0.03,0.006 -0.051,0.006 -0.031,0 -0.055,-0.003 -0.073,-0.009 -0.018,-0.006 -0.032,-0.016 -0.04,-0.031 -0.009,-0.015 -0.013,-0.036 -0.013,-0.063 0,-0.021 0.002,-0.039 0.006,-0.053 0.004,-0.014 0.011,-0.026 0.021,-0.036 0.01,-0.01 0.024,-0.017 0.042,-0.021 0.018,-0.005 0.041,-0.007 0.068,-0.007 0.031,0 0.057,0.003 0.076,0.009 0.02,0.006 0.035,0.018 0.045,0.035 0.011,0.017 0.016,0.042 0.016,0.074l0 0.125c0,0.025 -0.003,0.045 -0.008,0.061 -0.006,0.016 -0.014,0.028 -0.025,0.036 -0.011,0.008 -0.025,0.014 -0.042,0.017 -0.017,0.003 -0.037,0.005 -0.062,0.005 -0.023,0 -0.041,-0.001 -0.057,-0.003 -0.015,-0.002 -0.029,-0.006 -0.04,-0.013 -0.011,-0.007 -0.02,-0.017 -0.026,-0.031 -0.006,-0.014 -0.009,-0.032 -0.009,-0.055zm0.203 -0.148c0,-0.015 -0.002,-0.027 -0.006,-0.035 -0.004,-0.008 -0.011,-0.014 -0.021,-0.017 -0.01,-0.003 -0.025,-0.005 -0.045,-0.005 -0.019,0 -0.034,0.002 -0.044,0.005 -0.01,0.003 -0.017,0.009 -0.021,0.017 -0.004,0.008 -0.006,0.02 -0.006,0.035 0,0.013 0.001,0.023 0.002,0.03 0.002,0.007 0.005,0.012 0.009,0.016 0.005,0.004 0.012,0.007 0.021,0.008 0.009,0.001 0.022,0.002 0.039,0.002 0.022,0 0.037,-0.001 0.047,-0.004 0.01,-0.003 0.016,-0.008 0.019,-0.015 0.003,-0.008 0.005,-0.02 0.005,-0.037z"/>
  <polygon id="9" class="fil0" points="3.967,1.61 3.967,1.676 3.822,1.966 3.749,1.966 3.902,1.667 3.704,1.667 3.704,1.61 "/>
  <path id="10" class="fil0" d="M4.284 1.61l0 0.228 0.041 0 0 0.051 -0.041 0 0 0.076 -0.065 0 0 -0.076 -0.193 0 0 -0.073 0.158 -0.205 0.1 0zm-0.204 0.228l0.139 0 0 -0.179 -0.139 0.179z"/>
  <path id="11" class="fil0" d="M4.768 1.912l0 0.054 -0.268 0 0 -0.073c0,-0.021 0.003,-0.038 0.008,-0.051 0.005,-0.013 0.013,-0.022 0.022,-0.029 0.01,-0.007 0.021,-0.012 0.033,-0.015 0.013,-0.003 0.03,-0.007 0.053,-0.011 0.024,-0.003 0.041,-0.006 0.052,-0.01 0.011,-0.003 0.019,-0.009 0.025,-0.017 0.006,-0.009 0.009,-0.022 0.009,-0.04 0,-0.018 -0.002,-0.031 -0.006,-0.04 -0.004,-0.009 -0.011,-0.014 -0.02,-0.017 -0.009,-0.003 -0.023,-0.004 -0.041,-0.004 -0.02,0 -0.035,0.002 -0.045,0.004 -0.01,0.003 -0.016,0.009 -0.02,0.018 -0.004,0.009 -0.006,0.024 -0.006,0.044l0 0.011 -0.064 0 0 -0.016c0,-0.031 0.004,-0.055 0.012,-0.072 0.008,-0.016 0.022,-0.028 0.041,-0.034 0.019,-0.006 0.046,-0.01 0.082,-0.01 0.023,0 0.043,0.002 0.059,0.005 0.016,0.003 0.03,0.009 0.041,0.017 0.011,0.008 0.02,0.02 0.025,0.035 0.006,0.015 0.009,0.034 0.009,0.058 0,0.026 -0.004,0.046 -0.011,0.061 -0.007,0.015 -0.018,0.027 -0.031,0.034 -0.013,0.008 -0.026,0.013 -0.039,0.016 -0.013,0.003 -0.036,0.007 -0.07,0.013 -0.016,0.003 -0.028,0.006 -0.035,0.01 -0.007,0.004 -0.012,0.009 -0.015,0.016 -0.002,0.007 -0.004,0.018 -0.004,0.033l0 0.009 0.204 0z"/>
  <path id="12" class="fil0" d="M5.078 1.61l0 0.228 0.041 0 0 0.051 -0.041 0 0 0.076 -0.065 0 0 -0.076 -0.193 0 0 -0.073 0.158 -0.205 0.1 0zm-0.204 0.228l0.139 0 0 -0.179 -0.139 0.179z"/>
  <path class="fil0" d="M0.88 2.507l0.067 0 0 0.021c0,0.027 -0.005,0.049 -0.014,0.065 -0.009,0.016 -0.025,0.027 -0.046,0.034 -0.021,0.007 -0.05,0.011 -0.087,0.011 -0.03,0 -0.055,-0.003 -0.074,-0.009 -0.019,-0.006 -0.034,-0.015 -0.045,-0.029 -0.011,-0.014 -0.019,-0.033 -0.024,-0.056 -0.005,-0.024 -0.007,-0.055 -0.007,-0.094 0,-0.043 0.004,-0.076 0.013,-0.101 0.009,-0.025 0.023,-0.044 0.045,-0.056 0.021,-0.012 0.051,-0.018 0.09,-0.018 0.038,0 0.068,0.004 0.088,0.013 0.021,0.009 0.035,0.022 0.043,0.04 0.008,0.017 0.014,0.041 0.016,0.07l-0.066 0c-0.001,-0.019 -0.004,-0.033 -0.009,-0.041 -0.005,-0.009 -0.013,-0.015 -0.023,-0.018 -0.011,-0.003 -0.027,-0.005 -0.049,-0.005 -0.022,0 -0.039,0.003 -0.049,0.009 -0.011,0.006 -0.018,0.017 -0.022,0.034 -0.004,0.017 -0.006,0.044 -0.006,0.08 0,0.026 0.001,0.047 0.004,0.063 0.002,0.016 0.006,0.028 0.012,0.037 0.006,0.009 0.014,0.015 0.024,0.018 0.01,0.003 0.023,0.005 0.04,0.005 0.021,0 0.038,-0.001 0.049,-0.004 0.012,-0.003 0.02,-0.008 0.025,-0.015 0.005,-0.007 0.007,-0.017 0.007,-0.031l0 -0.022z"/>
  <polygon id="1" class="fil0" points="1.047,2.431 1.152,2.431 1.152,2.634 1.211,2.634 1.211,2.385 0.988,2.385 0.988,2.634 1.047,2.634 "/>
  <path id="2" class="fil0" d="M1.431 2.555l0.059 0 0 0.009c0,0.02 -0.005,0.035 -0.014,0.046 -0.009,0.011 -0.022,0.018 -0.038,0.022 -0.016,0.004 -0.037,0.006 -0.063,0.006 -0.029,0 -0.051,-0.004 -0.068,-0.012 -0.016,-0.008 -0.028,-0.021 -0.035,-0.04 -0.007,-0.018 -0.011,-0.044 -0.011,-0.076 0,-0.032 0.004,-0.057 0.011,-0.076 0.007,-0.019 0.019,-0.032 0.036,-0.041 0.017,-0.008 0.039,-0.013 0.067,-0.013 0.028,0 0.051,0.004 0.068,0.013 0.017,0.009 0.029,0.022 0.036,0.04 0.007,0.018 0.011,0.042 0.011,0.071l0 0.017 -0.169 0c0,0.02 0.002,0.035 0.005,0.045 0.003,0.01 0.009,0.017 0.016,0.021 0.008,0.004 0.019,0.006 0.033,0.006 0.014,0 0.024,-0.001 0.032,-0.003 0.008,-0.002 0.014,-0.005 0.018,-0.011 0.004,-0.005 0.006,-0.012 0.006,-0.022l0 -0.005zm0.001 -0.072c0,-0.015 -0.002,-0.026 -0.005,-0.035 -0.004,-0.008 -0.009,-0.014 -0.017,-0.018 -0.008,-0.004 -0.019,-0.005 -0.033,-0.005 -0.014,0 -0.025,0.002 -0.033,0.005 -0.008,0.004 -0.014,0.01 -0.017,0.018 -0.003,0.008 -0.005,0.02 -0.005,0.035l0.111 0z"/>
  <polygon id="3" class="fil0" points="1.6,2.588 1.706,2.588 1.706,2.385 1.765,2.385 1.765,2.588 1.797,2.588 1.797,2.701 1.742,2.701 1.742,2.634 1.541,2.634 1.541,2.385 1.6,2.385 "/>
  <path id="4" class="fil0" d="M1.836 2.385l0 0.248 0.073 0 0.081 -0.155c0.004,-0.007 0.013,-0.026 0.027,-0.056 -0.002,0.007 -0.005,0.018 -0.008,0.034 -0.003,0.016 -0.004,0.03 -0.004,0.039l0 0.137 0.056 0 0 -0.248 -0.073 0 -0.081 0.156c-0.005,0.01 -0.014,0.029 -0.027,0.056 0.003,-0.007 0.005,-0.017 0.008,-0.031 0.003,-0.014 0.004,-0.026 0.004,-0.036l0 -0.145 -0.056 0z"/>
  <path id="5" class="fil0" d="M2.281 2.634l0.005 -0.034 -0.001 0c-0.005,0.011 -0.011,0.019 -0.019,0.025 -0.007,0.006 -0.016,0.009 -0.026,0.011 -0.01,0.002 -0.022,0.003 -0.038,0.003 -0.021,0 -0.038,-0.003 -0.052,-0.007 -0.013,-0.005 -0.023,-0.013 -0.029,-0.025 -0.006,-0.011 -0.01,-0.027 -0.01,-0.046 0,-0.016 0.002,-0.029 0.005,-0.039 0.003,-0.01 0.009,-0.018 0.016,-0.024 0.007,-0.006 0.017,-0.01 0.029,-0.013 0.012,-0.003 0.027,-0.004 0.046,-0.004 0.022,0 0.038,0.002 0.047,0.007 0.01,0.005 0.017,0.013 0.023,0.025l0.003 0 0 -0.042c0,-0.014 -0.002,-0.024 -0.005,-0.031 -0.003,-0.007 -0.009,-0.012 -0.016,-0.015 -0.008,-0.003 -0.018,-0.004 -0.033,-0.004 -0.018,0 -0.03,0.003 -0.037,0.008 -0.007,0.005 -0.01,0.015 -0.01,0.029l-0.06 0c0,-0.015 0.003,-0.028 0.009,-0.038 0.005,-0.01 0.013,-0.018 0.022,-0.023 0.009,-0.005 0.02,-0.009 0.032,-0.011 0.012,-0.002 0.026,-0.003 0.042,-0.003 0.026,0 0.047,0.002 0.064,0.006 0.016,0.004 0.029,0.012 0.038,0.025 0.009,0.013 0.014,0.032 0.014,0.058l0 0.164 -0.059 0zm0 -0.074c0,-0.014 -0.004,-0.024 -0.012,-0.03 -0.008,-0.005 -0.023,-0.008 -0.046,-0.008 -0.013,0 -0.024,0.001 -0.031,0.004 -0.007,0.002 -0.013,0.006 -0.016,0.012 -0.003,0.005 -0.005,0.013 -0.005,0.022 0,0.014 0.004,0.023 0.011,0.029 0.008,0.006 0.02,0.008 0.039,0.008 0.021,0 0.037,-0.003 0.046,-0.008 0.009,-0.005 0.014,-0.015 0.014,-0.03z"/>
  <path id="6" class="fil0" d="M2.423 2.385l0.207 0 0 0.248 -0.059 0 0 -0.202 -0.09 0 0 0.126c0,0.016 -0.002,0.029 -0.007,0.041 -0.005,0.012 -0.012,0.021 -0.022,0.028 -0.01,0.007 -0.022,0.01 -0.037,0.01 -0.017,0 -0.029,-0.001 -0.036,-0.002l0 -0.045c0.006,0.001 0.011,0.001 0.015,0.001 0.011,0 0.019,-0.003 0.023,-0.009 0.004,-0.006 0.006,-0.016 0.006,-0.03l0 -0.167z"/>
  <path id="7" class="fil0" d="M2.694 2.385l0 0.248 0.073 0 0.081 -0.155c0.004,-0.007 0.013,-0.026 0.027,-0.056 -0.002,0.007 -0.005,0.018 -0.008,0.034 -0.003,0.016 -0.004,0.03 -0.004,0.039l0 0.137 0.056 0 0 -0.248 -0.073 0 -0.081 0.156c-0.005,0.01 -0.014,0.029 -0.027,0.056 0.003,-0.007 0.005,-0.017 0.008,-0.031 0.003,-0.014 0.004,-0.026 0.004,-0.036l0 -0.145 -0.056 0z"/>
  <path id="8" class="fil0" d="M3.137 2.54l0.058 0c0,0.018 -0.002,0.033 -0.006,0.046 -0.004,0.012 -0.01,0.023 -0.019,0.03 -0.009,0.008 -0.02,0.013 -0.034,0.017 -0.014,0.004 -0.032,0.005 -0.053,0.005 -0.029,0 -0.052,-0.004 -0.068,-0.012 -0.017,-0.008 -0.028,-0.021 -0.035,-0.04 -0.007,-0.018 -0.011,-0.044 -0.011,-0.076 0,-0.033 0.004,-0.058 0.011,-0.077 0.007,-0.019 0.019,-0.032 0.035,-0.04 0.017,-0.008 0.039,-0.012 0.068,-0.012 0.022,0 0.04,0.002 0.057,0.007 0.016,0.005 0.029,0.013 0.039,0.025 0.01,0.012 0.014,0.029 0.014,0.05l0 0.009 -0.058 0 0 -0.003c0,-0.012 -0.002,-0.021 -0.005,-0.027 -0.003,-0.006 -0.008,-0.01 -0.016,-0.012 -0.007,-0.002 -0.018,-0.003 -0.031,-0.003 -0.014,0 -0.025,0.002 -0.033,0.007 -0.008,0.005 -0.013,0.013 -0.016,0.025 -0.003,0.012 -0.005,0.028 -0.005,0.05 0,0.021 0.002,0.038 0.005,0.05 0.003,0.012 0.009,0.02 0.016,0.025 0.008,0.005 0.019,0.007 0.033,0.007 0.015,0 0.027,-0.002 0.035,-0.005 0.008,-0.003 0.013,-0.008 0.015,-0.015 0.002,-0.007 0.004,-0.018 0.004,-0.032z"/>
  <polygon id="9" class="fil0" points="3.305,2.634 3.364,2.634 3.364,2.431 3.444,2.431 3.444,2.385 3.225,2.385 3.225,2.431 3.305,2.431 "/>
  <polygon id="10" class="fil0" points="3.67,2.431 3.775,2.431 3.775,2.634 3.835,2.634 3.835,2.385 3.611,2.385 3.611,2.634 3.67,2.634 "/>
  <path id="11" class="fil0" d="M3.884 2.509c0,-0.033 0.003,-0.058 0.01,-0.076 0.007,-0.018 0.019,-0.031 0.036,-0.039 0.017,-0.008 0.04,-0.012 0.071,-0.012 0.031,0 0.054,0.004 0.071,0.012 0.017,0.008 0.029,0.021 0.036,0.039 0.007,0.018 0.011,0.044 0.011,0.076 0,0.024 -0.002,0.044 -0.006,0.061 -0.004,0.016 -0.01,0.029 -0.019,0.039 -0.009,0.01 -0.021,0.017 -0.036,0.022 -0.015,0.005 -0.034,0.007 -0.057,0.007 -0.023,0 -0.041,-0.002 -0.057,-0.007 -0.015,-0.005 -0.027,-0.012 -0.036,-0.022 -0.009,-0.01 -0.015,-0.023 -0.019,-0.039 -0.004,-0.016 -0.006,-0.036 -0.006,-0.061zm0.061 0c0,0.023 0.002,0.04 0.005,0.052 0.003,0.012 0.009,0.02 0.017,0.024 0.008,0.004 0.019,0.006 0.034,0.007 0.015,0 0.026,-0.002 0.034,-0.006 0.008,-0.004 0.014,-0.012 0.017,-0.024 0.004,-0.012 0.005,-0.029 0.005,-0.052 0,-0.017 -0.001,-0.031 -0.003,-0.042 -0.002,-0.01 -0.005,-0.019 -0.009,-0.024 -0.004,-0.006 -0.01,-0.01 -0.017,-0.012 -0.007,-0.002 -0.016,-0.003 -0.028,-0.004 -0.015,0 -0.026,0.002 -0.034,0.006 -0.008,0.004 -0.014,0.012 -0.017,0.024 -0.003,0.012 -0.005,0.029 -0.005,0.052z"/>
  <polygon id="12" class="fil0" points="4.433,2.634 4.491,2.634 4.491,2.523 4.506,2.523 4.581,2.634 4.65,2.634 4.556,2.502 4.635,2.385 4.569,2.385 4.506,2.482 4.491,2.482 4.491,2.385 4.433,2.385 4.433,2.482 4.418,2.482 4.355,2.385 4.289,2.385 4.369,2.502 4.275,2.634 4.343,2.634 4.418,2.523 4.433,2.523 "/>
  <path id="13" class="fil0" d="M4.848 2.634l0.005 -0.034 -0.001 0c-0.005,0.011 -0.011,0.019 -0.019,0.025 -0.007,0.006 -0.016,0.009 -0.026,0.011 -0.01,0.002 -0.022,0.003 -0.038,0.003 -0.021,0 -0.038,-0.003 -0.052,-0.007 -0.013,-0.005 -0.023,-0.013 -0.029,-0.025 -0.006,-0.011 -0.01,-0.027 -0.01,-0.046 0,-0.016 0.002,-0.029 0.005,-0.039 0.003,-0.01 0.009,-0.018 0.016,-0.024 0.007,-0.006 0.017,-0.01 0.029,-0.013 0.012,-0.003 0.027,-0.004 0.046,-0.004 0.022,0 0.038,0.002 0.047,0.007 0.01,0.005 0.017,0.013 0.023,0.025l0.003 0 0 -0.042c0,-0.014 -0.002,-0.024 -0.005,-0.031 -0.003,-0.007 -0.009,-0.012 -0.016,-0.015 -0.008,-0.003 -0.018,-0.004 -0.033,-0.004 -0.018,0 -0.03,0.003 -0.037,0.008 -0.007,0.005 -0.01,0.015 -0.01,0.029l-0.06 0c0,-0.015 0.003,-0.028 0.009,-0.038 0.005,-0.01 0.013,-0.018 0.022,-0.023 0.009,-0.005 0.02,-0.009 0.032,-0.011 0.012,-0.002 0.026,-0.003 0.042,-0.003 0.026,0 0.047,0.002 0.064,0.006 0.016,0.004 0.029,0.012 0.038,0.025 0.009,0.013 0.014,0.032 0.014,0.058l0 0.164 -0.059 0zm0 -0.074c0,-0.014 -0.004,-0.024 -0.012,-0.03 -0.008,-0.005 -0.023,-0.008 -0.046,-0.008 -0.013,0 -0.024,0.001 -0.031,0.004 -0.007,0.002 -0.013,0.006 -0.016,0.012 -0.003,0.005 -0.005,0.013 -0.005,0.022 0,0.014 0.004,0.023 0.011,0.029 0.008,0.006 0.02,0.008 0.039,0.008 0.021,0 0.037,-0.003 0.046,-0.008 0.009,-0.005 0.014,-0.015 0.014,-0.03z"/>
  <polygon id="14" class="fil0" points="5.028,2.526 5.133,2.526 5.133,2.634 5.192,2.634 5.192,2.385 5.133,2.385 5.133,2.48 5.028,2.48 5.028,2.385 4.968,2.385 4.968,2.634 5.028,2.634 "/>
  <path id="15" class="fil0" d="M5.315 2.503c0,0.025 0.001,0.043 0.004,0.055 0.002,0.012 0.008,0.02 0.016,0.026 0.008,0.005 0.02,0.008 0.038,0.008 0.017,0 0.029,-0.003 0.037,-0.009 0.008,-0.006 0.013,-0.015 0.015,-0.027 0.002,-0.012 0.003,-0.028 0.003,-0.051 0,-0.023 -0.002,-0.039 -0.005,-0.05 -0.003,-0.011 -0.008,-0.018 -0.016,-0.021 -0.007,-0.004 -0.019,-0.005 -0.034,-0.005 -0.016,0 -0.027,0.002 -0.036,0.006 -0.008,0.004 -0.014,0.011 -0.017,0.022 -0.003,0.011 -0.005,0.026 -0.005,0.047zm0 0.097l0 0.139 -0.059 0 0 -0.354 0.057 0 -0.002 0.035 0.002 0c0.01,-0.015 0.02,-0.025 0.032,-0.03 0.012,-0.006 0.027,-0.008 0.045,-0.008 0.027,0 0.048,0.005 0.062,0.015 0.014,0.01 0.024,0.024 0.029,0.042 0.005,0.018 0.008,0.041 0.008,0.07 0,0.021 -0.001,0.038 -0.003,0.053 -0.002,0.015 -0.006,0.028 -0.012,0.04 -0.006,0.012 -0.016,0.021 -0.029,0.027 -0.013,0.007 -0.03,0.01 -0.051,0.01 -0.02,0 -0.035,-0.003 -0.047,-0.008 -0.012,-0.005 -0.022,-0.015 -0.031,-0.03z"/>
  <path id="16" class="fil0" d="M5.7 2.634l0.005 -0.034 -0.001 0c-0.005,0.011 -0.011,0.019 -0.019,0.025 -0.007,0.006 -0.016,0.009 -0.026,0.011 -0.01,0.002 -0.022,0.003 -0.038,0.003 -0.021,0 -0.038,-0.003 -0.052,-0.007 -0.013,-0.005 -0.023,-0.013 -0.029,-0.025 -0.006,-0.011 -0.01,-0.027 -0.01,-0.046 0,-0.016 0.002,-0.029 0.005,-0.039 0.003,-0.01 0.009,-0.018 0.016,-0.024 0.007,-0.006 0.017,-0.01 0.029,-0.013 0.012,-0.003 0.027,-0.004 0.046,-0.004 0.022,0 0.038,0.002 0.047,0.007 0.01,0.005 0.017,0.013 0.023,0.025l0.003 0 0 -0.042c0,-0.014 -0.002,-0.024 -0.005,-0.031 -0.003,-0.007 -0.009,-0.012 -0.016,-0.015 -0.008,-0.003 -0.018,-0.004 -0.033,-0.004 -0.018,0 -0.03,0.003 -0.037,0.008 -0.007,0.005 -0.01,0.015 -0.01,0.029l-0.06 0c0,-0.015 0.003,-0.028 0.009,-0.038 0.005,-0.01 0.013,-0.018 0.022,-0.023 0.009,-0.005 0.02,-0.009 0.032,-0.011 0.012,-0.002 0.026,-0.003 0.042,-0.003 0.026,0 0.047,0.002 0.064,0.006 0.016,0.004 0.029,0.012 0.038,0.025 0.009,0.013 0.014,0.032 0.014,0.058l0 0.164 -0.059 0zm0 -0.074c0,-0.014 -0.004,-0.024 -0.012,-0.03 -0.008,-0.005 -0.023,-0.008 -0.046,-0.008 -0.013,0 -0.024,0.001 -0.031,0.004 -0.007,0.002 -0.013,0.006 -0.016,0.012 -0.003,0.005 -0.005,0.013 -0.005,0.022 0,0.014 0.004,0.023 0.011,0.029 0.008,0.006 0.02,0.008 0.039,0.008 0.021,0 0.037,-0.003 0.046,-0.008 0.009,-0.005 0.014,-0.015 0.014,-0.03z"/>
  <path id="17" class="fil0" d="M6.001 2.634l0.05 -0.149c0.004,-0.011 0.008,-0.024 0.013,-0.038 0.005,-0.014 0.008,-0.025 0.01,-0.031 -0.003,0.024 -0.005,0.045 -0.005,0.063l0 0.155 0.056 0 0 -0.248 -0.09 0 -0.056 0.167c-0.002,0.004 -0.004,0.017 -0.007,0.041 -0.003,-0.023 -0.006,-0.037 -0.008,-0.041l-0.055 -0.167 -0.09 0 0 0.248 0.056 0 0 -0.155c0,-0.018 -0.002,-0.039 -0.005,-0.063 0.001,0.006 0.005,0.018 0.012,0.036 0.007,0.019 0.01,0.029 0.011,0.032l0.05 0.149 0.058 0z"/>
  <g id="_2008651405680">
   <rect class="fil1" x="0" y="1.575" width="0.42" height="0.42" rx="0.084" ry="0.08"/>
   <g>
    <path class="fil2" d="M0.081 1.647c-0.001,0.002 -0.007,0.007 -0.012,0.025 -0.001,0.005 -0.003,0.017 -0.003,0.023 0,0.022 0.003,0.031 0.009,0.052 0.004,0.013 0.016,0.039 0.023,0.05 0.002,0.004 0.004,0.007 0.007,0.011 0.01,0.016 0.033,0.047 0.045,0.061l0.011 0.012c0.012,0.012 0.025,0.025 0.038,0.035l0.016 0.011c0.002,0.001 0.004,0.002 0.006,0.003 0.02,0.012 0.045,0.023 0.069,0.022 0.008,-0 0.022,-0.002 0.028,-0.008 -0.003,-0.004 -0.006,-0.007 -0.008,-0.011l-0.006 -0.008c-0.001,-0.001 -0.001,-0.001 -0.002,-0.002 -0.01,-0.013 -0.023,-0.028 -0.033,-0.042l-0.016 -0.021c-0.004,0.001 -0.004,0.003 -0.009,0.003 -0.013,0 -0.04,-0.03 -0.049,-0.04 -0.009,-0.01 -0.015,-0.018 -0.023,-0.029l-0.015 -0.022c-0.005,-0.008 -0.013,-0.022 -0.012,-0.032 0.001,-0.004 0.003,-0.006 0.005,-0.009l-0.051 -0.064c-0.003,-0.004 -0.006,-0.007 -0.009,-0.011 -0.001,-0.002 -0.003,-0.003 -0.004,-0.005 -0.001,-0.002 -0.003,-0.004 -0.005,-0.005z"/>
    <path class="fil2" d="M0.108 1.661c0.013,0.017 0.03,0.036 0.043,0.053l0.008 0.01c0.002,-0.001 0.016,-0.012 0.018,-0.014 0.006,-0.005 0.014,-0.011 0.009,-0.019 -0.001,-0.002 -0.012,-0.016 -0.015,-0.019l-0.034 -0.043c-0.01,-0.011 -0.011,-0.017 -0.028,-0.004l-0.017 0.014 0.017 0.022z"/>
    <path class="fil2" d="M0.291 1.831c-0.004,0 -0.007,0.002 -0.01,0.004 -0.003,0.003 -0.019,0.015 -0.022,0.017l0.015 0.019c0,0 0,0 0,0l0.051 0.064 0.007 -0.005c0.002,-0.002 0.004,-0.003 0.007,-0.005 0.002,-0.002 0.005,-0.004 0.007,-0.005 0.003,-0.002 0.004,-0.003 0.006,-0.006 0.004,-0.007 -0.001,-0.013 -0.004,-0.017l-0.038 -0.048c-0.001,-0.001 -0.002,-0.002 -0.003,-0.003 -0.006,-0.007 -0.009,-0.014 -0.017,-0.014z"/>
   </g>
  </g>
  <g id="_2008651409744">
   <rect class="fil1" x="0" y="0.907" width="0.42" height="0.42" rx="0.084" ry="0.08"/>
   <g>
    <path class="fil2" d="M0.152 1.057l0.054 -0.033c0.001,-0.001 0.003,-0.001 0.004,-0.002 0,0 0,0 0,0l0.054 0.032c0.001,0.001 0.003,0.002 0.004,0.002 -0,0.002 -0.007,0.011 -0.007,0.013l0 0.055 -0.102 0 0 -0.055c0,-0.001 -0.001,-0.003 -0.002,-0.003l-0.006 -0.009zm0.058 0.228c0.003,0 0.005,-0.002 0.007,-0.004l0.016 -0.02c0.001,-0.001 0.002,-0.002 0.002,-0.003 0.001,-0.001 0.001,-0.002 0.002,-0.003l0.007 -0.009c0.001,-0.001 0.001,-0.002 0.002,-0.003 0.001,-0.001 0.001,-0.002 0.002,-0.003l0.013 -0.018c0.004,-0.006 0.009,-0.012 0.012,-0.019l0.008 -0.013c0.001,-0.002 0.002,-0.004 0.004,-0.006 0.002,-0.004 0.005,-0.01 0.007,-0.013l0.004 -0.007c0.001,-0.002 0.002,-0.005 0.003,-0.007 0.001,-0.001 0.001,-0.002 0.002,-0.004 0.005,-0.011 0.01,-0.022 0.014,-0.033 0.001,-0.002 0.002,-0.005 0.003,-0.008 0.004,-0.015 0.008,-0.028 0.008,-0.045 0,-0.036 -0.016,-0.064 -0.034,-0.083l-0.01 -0.009c-0.003,-0.003 -0.007,-0.005 -0.011,-0.008 -0.003,-0.002 -0.006,-0.004 -0.009,-0.005l-0.005 -0.002c-0.029,-0.014 -0.062,-0.014 -0.092,-0.002 -0.006,0.002 -0.012,0.006 -0.018,0.009 -0.005,0.003 -0.009,0.006 -0.013,0.009l-0.007 0.006c-0.001,0.001 -0.001,0.001 -0.002,0.002l-0.006 0.007c-0.001,0.002 -0.003,0.003 -0.004,0.005 -0.006,0.009 -0.01,0.016 -0.014,0.026 -0.002,0.004 -0.003,0.009 -0.004,0.013 -0,0.001 -0.001,0.002 -0.001,0.004 -0.003,0.013 -0.004,0.027 -0.002,0.04 0.002,0.02 0.009,0.04 0.017,0.058 0.005,0.011 0.01,0.021 0.015,0.031 0.004,0.008 0.009,0.016 0.014,0.024 0.002,0.004 0.005,0.007 0.007,0.011 0.004,0.006 0.012,0.018 0.016,0.024l0.007 0.01c0.007,0.01 0.014,0.019 0.021,0.028 0.004,0.004 0.007,0.009 0.011,0.013 0.002,0.002 0.003,0.004 0.007,0.004z"/>
    <path class="fil2" d="M0.174 1.061l0 0.049 0.022 0 0 -0.036 0.029 0 0 0.036 0.022 0 0 -0.049c0,-0.001 -0.001,-0.001 -0.002,-0.002 -0.001,-0.001 -0.001,-0.001 -0.002,-0.001l-0.032 -0.019c-0.001,-0 -0.004,0.002 -0.005,0.002l-0.031 0.019c-0.001,0 -0.001,0 -0.001,0.001z"/>
   </g>
  </g>
  <g id="_2008651410672">
   <rect class="fil1" x="0" y="2.242" width="0.42" height="0.42" rx="0.084" ry="0.08"/>
   <g>
    <path class="fil2" d="M0.182 2.298c0,0.02 0.003,0.027 -0.004,0.032 -0.007,-0.005 -0.004,-0.001 -0.004,-0.024 -0.017,0.004 -0.03,0.03 -0.033,0.047 -0.002,0.009 0,0.005 -0.004,0.011 -0.002,0.004 -0.005,0.003 -0.005,0.009 0,0.028 0.1,0.028 0.132,0.019 0.01,-0.003 0.035,-0.012 0.024,-0.024 -0.015,-0.017 -0.002,-0.009 -0.014,-0.033 -0.005,-0.01 -0.015,-0.026 -0.026,-0.029 0,0.012 0,0.015 -0.002,0.024l-0.006 0c-0.003,-0.011 -0.002,-0.019 -0.002,-0.032 -0.027,-0.007 -0.041,-0.003 -0.057,0z"/>
    <path class="fil2" d="M0.139 2.414c0,0.021 0.013,0.031 0.024,0.055 0.015,0.033 0.068,0.06 0.1,-0.011 0.008,-0.017 0.018,-0.014 0.018,-0.049 0,-0.022 -0.014,-0.004 -0.057,-0.004 -0.045,0 -0.035,0.002 -0.079,-0.008 -0.003,0.004 -0.006,0.009 -0.006,0.016z"/>
    <path class="fil2" d="M0.119 2.606c0.017,0 0.031,0.004 0.051,0.004l0.083 0c0.02,0 0.034,-0.004 0.053,-0.004l0 -0.036 -0.186 0 0 0.036z"/>
    <path class="fil2" d="M0.149 2.484l0 0.065 0.123 0 0 -0.065 -0.014 -0.004c-0.017,0.026 -0.047,0.038 -0.077,0.019 -0.01,-0.006 -0.013,-0.013 -0.022,-0.019 -0.004,0.002 -0.005,0.003 -0.01,0.004z"/>
    <path class="fil2" d="M0.064 2.584c0,0.01 0.009,0.011 0.02,0.015 0.039,0.013 -0.016,-0.044 0.045,-0.049l0 -0.055c-0.034,0.003 -0.065,0.047 -0.065,0.089z"/>
    <path class="fil2" d="M0.291 2.501l0 0.049c0.038,0 0.034,0.02 0.034,0.051 0.011,-0 0.02,-0.006 0.03,-0.008l0 -0.011c-0,-0.01 -0.001,-0.015 -0.004,-0.025 -0.011,-0.034 -0.022,-0.042 -0.049,-0.057 -0.004,-0.002 -0.012,-0.008 -0.012,0.002z"/>
   </g>
  </g>
 </g>
</svg>
