<?xml version="1.0" encoding="UTF-8"?>
<!DOCTYPE svg PUBLIC "-//W3C//DTD SVG 1.1//EN" "http://www.w3.org/Graphics/SVG/1.1/DTD/svg11.dtd">
<!-- Creator: CorelDRAW 2019 (64-Bit) -->
<svg xmlns="http://www.w3.org/2000/svg" xml:space="preserve" width="2.41421cm" height="0.81677cm" version="1.1" style="shape-rendering:geometricPrecision; text-rendering:geometricPrecision; image-rendering:optimizeQuality; fill-rule:evenodd; clip-rule:evenodd"
viewBox="0 0 8.512 2.88"
 xmlns:xlink="http://www.w3.org/1999/xlink"
 xmlns:xodm="http://www.corel.com/coreldraw/odm/2003">
 <defs>
  <style type="text/css">
   <![CDATA[
    .fil1 {fill:#1B5A5C}
    .fil2 {fill:#29878C}
    .fil0 {fill:white;fill-rule:nonzero}
   ]]>
  </style>
 </defs>
 <g id="Слой_x0020_1">
  <metadata id="CorelCorpID_0Corel-Layer"/>
  <path class="fil0" d="M0.988 0.304l0.088 0 0 0.027c0,0.036 -0.006,0.064 -0.019,0.085 -0.012,0.021 -0.032,0.036 -0.06,0.045 -0.028,0.009 -0.066,0.014 -0.114,0.014 -0.039,0 -0.072,-0.004 -0.097,-0.011 -0.025,-0.007 -0.045,-0.02 -0.059,-0.038 -0.015,-0.018 -0.025,-0.043 -0.031,-0.074 -0.006,-0.031 -0.009,-0.072 -0.009,-0.123 0,-0.056 0.006,-0.1 0.017,-0.133 0.011,-0.033 0.031,-0.057 0.059,-0.073 0.028,-0.016 0.067,-0.024 0.118,-0.024 0.05,0 0.089,0.006 0.116,0.017 0.027,0.012 0.046,0.029 0.057,0.052 0.011,0.023 0.018,0.053 0.02,0.092l-0.087 0c-0.001,-0.025 -0.005,-0.043 -0.012,-0.054 -0.006,-0.011 -0.016,-0.019 -0.031,-0.024 -0.014,-0.004 -0.036,-0.006 -0.064,-0.006 -0.029,0 -0.051,0.004 -0.065,0.011 -0.014,0.008 -0.024,0.022 -0.029,0.045 -0.005,0.022 -0.008,0.057 -0.008,0.105 0,0.034 0.002,0.061 0.005,0.082 0.003,0.021 0.008,0.037 0.016,0.048 0.008,0.011 0.018,0.019 0.031,0.024 0.013,0.004 0.03,0.007 0.052,0.007 0.028,0 0.049,-0.002 0.064,-0.006 0.015,-0.004 0.026,-0.01 0.032,-0.02 0.006,-0.009 0.01,-0.023 0.01,-0.04l0 -0.029z"/>
  <path id="1" class="fil0" d="M1.138 0.394c0.009,-0.01 0.017,-0.02 0.023,-0.032 0.006,-0.012 0.011,-0.025 0.015,-0.04 0.004,-0.015 0.006,-0.032 0.008,-0.052 0.002,-0.02 0.003,-0.043 0.003,-0.069l0 -0.197 0.337 0 0 0.39 0.042 0 0 0.184 -0.083 0 0 -0.108 -0.295 0 0 0.108 -0.084 0 0 -0.184 0.035 0zm0.136 -0.313l0 0.12c0,0.033 -0.001,0.062 -0.004,0.086 -0.002,0.024 -0.007,0.045 -0.013,0.063 -0.006,0.018 -0.014,0.033 -0.025,0.045l0.202 0 0 -0.313 -0.16 0z"/>
  <polygon id="2" class="fil0" points="1.714,0.005 1.714,0.195 1.756,0.195 1.911,0.005 2.021,0.005 1.832,0.232 2.041,0.471 1.928,0.471 1.756,0.272 1.714,0.272 1.714,0.471 1.625,0.471 1.625,0.005 "/>
  <path id="3" class="fil0" d="M2.329 0.134l0.052 0.029 -0.065 0.134 0.07 0.13 -0.049 0.033 -0.089 -0.163 0.081 -0.164zm0.127 -0.002l0.053 0.03 -0.066 0.134 0.07 0.131 -0.05 0.031 -0.089 -0.162 0.083 -0.164z"/>
  <path id="4" class="fil0" d="M2.579 0.228c0,-0.046 0.003,-0.084 0.009,-0.112 0.006,-0.029 0.016,-0.052 0.031,-0.069 0.015,-0.017 0.035,-0.029 0.06,-0.036 0.025,-0.007 0.058,-0.011 0.099,-0.011 0.041,0 0.073,0.004 0.099,0.011 0.025,0.007 0.045,0.019 0.06,0.036 0.015,0.017 0.025,0.04 0.031,0.069 0.006,0.029 0.009,0.066 0.009,0.112 0,0.053 -0.003,0.095 -0.01,0.127 -0.006,0.032 -0.017,0.057 -0.031,0.074 -0.015,0.018 -0.035,0.03 -0.06,0.037 -0.025,0.007 -0.058,0.01 -0.099,0.01 -0.044,0 -0.078,-0.003 -0.103,-0.01 -0.025,-0.007 -0.045,-0.019 -0.059,-0.036 -0.014,-0.018 -0.024,-0.042 -0.029,-0.074 -0.005,-0.031 -0.008,-0.074 -0.008,-0.128zm0.091 0.01c0,0.039 0.001,0.069 0.004,0.089 0.003,0.021 0.008,0.036 0.015,0.047 0.007,0.011 0.018,0.018 0.031,0.021 0.014,0.004 0.033,0.005 0.058,0.005 0.025,0 0.044,-0.002 0.058,-0.006 0.014,-0.004 0.024,-0.011 0.032,-0.022 0.007,-0.011 0.012,-0.026 0.015,-0.047 0.003,-0.02 0.004,-0.05 0.004,-0.088 0,-0.039 -0.001,-0.069 -0.004,-0.09 -0.003,-0.021 -0.008,-0.037 -0.016,-0.047 -0.008,-0.01 -0.018,-0.017 -0.031,-0.02 -0.013,-0.003 -0.032,-0.005 -0.058,-0.005 -0.026,0 -0.046,0.002 -0.059,0.005 -0.013,0.003 -0.023,0.01 -0.03,0.02 -0.007,0.01 -0.012,0.026 -0.015,0.046 -0.003,0.021 -0.004,0.051 -0.004,0.091z"/>
  <polygon id="5" class="fil0" points="3.13,0.471 3.208,0.471 3.208,0.205 3.312,0.205 3.312,0.145 3.025,0.145 3.025,0.205 3.13,0.205 "/>
  <path id="6" class="fil0" d="M3.353 0.307c0,-0.043 0.005,-0.076 0.014,-0.1 0.009,-0.024 0.025,-0.041 0.047,-0.051 0.022,-0.01 0.053,-0.016 0.093,-0.016 0.04,0 0.071,0.005 0.093,0.016 0.022,0.01 0.038,0.028 0.047,0.052 0.009,0.024 0.014,0.057 0.014,0.1 0,0.032 -0.003,0.058 -0.008,0.08 -0.005,0.021 -0.014,0.039 -0.025,0.052 -0.012,0.013 -0.027,0.023 -0.047,0.029 -0.02,0.006 -0.044,0.009 -0.075,0.009 -0.03,0 -0.054,-0.003 -0.074,-0.009 -0.02,-0.006 -0.036,-0.016 -0.047,-0.029 -0.011,-0.013 -0.02,-0.03 -0.025,-0.051 -0.005,-0.021 -0.008,-0.048 -0.008,-0.08zm0.08 0c0,0.03 0.002,0.053 0.007,0.069 0.005,0.015 0.012,0.026 0.022,0.032 0.01,0.006 0.025,0.008 0.045,0.009 0.02,0 0.035,-0.003 0.045,-0.008 0.011,-0.006 0.018,-0.016 0.023,-0.032 0.005,-0.015 0.007,-0.038 0.007,-0.069 0,-0.023 -0.001,-0.041 -0.004,-0.055 -0.003,-0.014 -0.007,-0.024 -0.012,-0.032 -0.006,-0.008 -0.013,-0.013 -0.022,-0.016 -0.009,-0.003 -0.021,-0.004 -0.036,-0.005 -0.02,0 -0.035,0.003 -0.045,0.008 -0.01,0.006 -0.018,0.016 -0.022,0.031 -0.005,0.015 -0.007,0.038 -0.007,0.068z"/>
  <polygon id="7" class="fil0" points="3.942,0.205 3.942,0.145 3.726,0.145 3.726,0.471 3.803,0.471 3.803,0.205 "/>
  <path id="8" class="fil0" d="M4.269 0.145l-0.087 0.346c-0.005,0.02 -0.01,0.038 -0.016,0.053 -0.006,0.015 -0.013,0.028 -0.021,0.039 -0.009,0.011 -0.02,0.019 -0.035,0.025 -0.014,0.006 -0.032,0.009 -0.053,0.009 -0.015,0 -0.025,-0.001 -0.032,-0.003l0 -0.056c0.006,0.001 0.012,0.002 0.018,0.002 0.019,-0 0.033,-0.008 0.042,-0.022 0.009,-0.014 0.016,-0.037 0.023,-0.067l-0.041 0 -0.107 -0.326 0.083 0 0.082 0.277 0.063 -0.277 0.081 0z"/>
  <polygon id="9" class="fil0" points="4.396,0.471 4.473,0.471 4.473,0.205 4.578,0.205 4.578,0.145 4.291,0.145 4.291,0.205 4.396,0.205 "/>
  <path id="10" class="fil0" d="M4.838 0.348l0.077 0c0,0.024 -0.003,0.044 -0.008,0.06 -0.005,0.016 -0.013,0.03 -0.024,0.04 -0.011,0.01 -0.026,0.018 -0.045,0.022 -0.019,0.005 -0.042,0.007 -0.069,0.007 -0.038,0 -0.068,-0.005 -0.089,-0.016 -0.022,-0.01 -0.037,-0.028 -0.046,-0.052 -0.009,-0.024 -0.014,-0.058 -0.014,-0.1 0,-0.043 0.005,-0.077 0.014,-0.101 0.009,-0.024 0.025,-0.042 0.047,-0.052 0.022,-0.01 0.051,-0.016 0.089,-0.016 0.028,0 0.053,0.003 0.074,0.009 0.021,0.006 0.038,0.017 0.051,0.033 0.013,0.016 0.019,0.038 0.019,0.066l0 0.012 -0.076 0 0 -0.004c0,-0.015 -0.002,-0.027 -0.006,-0.035 -0.004,-0.008 -0.011,-0.013 -0.021,-0.016 -0.009,-0.003 -0.023,-0.004 -0.041,-0.004 -0.018,0 -0.033,0.003 -0.043,0.01 -0.01,0.006 -0.017,0.017 -0.021,0.033 -0.004,0.015 -0.006,0.037 -0.006,0.066 0,0.028 0.002,0.05 0.006,0.065 0.004,0.015 0.011,0.026 0.021,0.033 0.01,0.007 0.024,0.01 0.043,0.01 0.02,0 0.035,-0.002 0.045,-0.006 0.01,-0.004 0.016,-0.011 0.02,-0.02 0.003,-0.009 0.005,-0.023 0.005,-0.042z"/>
  <polygon id="11" class="fil0" points="5.054,0.145 5.054,0.271 5.073,0.271 5.164,0.145 5.253,0.145 5.137,0.298 5.276,0.471 5.182,0.471 5.073,0.325 5.054,0.325 5.054,0.471 4.976,0.471 4.976,0.145 "/>
  <path id="12" class="fil0" d="M5.324 0.145l0 0.326 0.095 0 0.106 -0.203c0.005,-0.01 0.017,-0.034 0.036,-0.073 -0.003,0.009 -0.007,0.024 -0.01,0.045 -0.004,0.022 -0.005,0.039 -0.005,0.051l0 0.18 0.074 0 0 -0.326 -0.095 0 -0.106 0.205c-0.007,0.013 -0.019,0.038 -0.035,0.074 0.003,-0.009 0.007,-0.023 0.01,-0.041 0.003,-0.018 0.005,-0.034 0.005,-0.048l0 -0.19 -0.074 0z"/>
  <path id="13" class="fil0" d="M5.699 0.144l0 0.327 0.095 0 0.106 -0.204c0.008,-0.015 0.02,-0.039 0.036,-0.072 -0.003,0.009 -0.007,0.024 -0.01,0.045 -0.004,0.021 -0.005,0.038 -0.005,0.051l0 0.18 0.074 0 0 -0.327 -0.095 0 -0.106 0.206c-0.006,0.01 -0.017,0.034 -0.035,0.072 0.004,-0.009 0.007,-0.022 0.01,-0.04 0.003,-0.018 0.005,-0.034 0.005,-0.048l0 -0.19 -0.074 0zm0.145 -0.023c-0.025,0 -0.045,-0.005 -0.058,-0.015 -0.014,-0.01 -0.021,-0.027 -0.021,-0.052l0.043 0c0,0.011 0.003,0.018 0.008,0.022 0.005,0.004 0.015,0.006 0.029,0.006 0.015,0 0.026,-0.002 0.03,-0.006 0.005,-0.004 0.007,-0.012 0.007,-0.023l0.042 0c0,0.025 -0.007,0.043 -0.021,0.052 -0.014,0.01 -0.034,0.015 -0.06,0.015z"/>
  <path id="14" class="fil0" d="M6.25 0.134l0.082 0.164 -0.089 0.163 -0.05 -0.033 0.071 -0.13 -0.066 -0.134 0.053 -0.029zm-0.127 -0.002l0.082 0.164 -0.088 0.162 -0.05 -0.031 0.07 -0.131 -0.067 -0.134 0.052 -0.03z"/>
  <path class="fil0" d="M0.72 1.257c0.008,-0.01 0.014,-0.02 0.018,-0.03 0.004,-0.01 0.008,-0.021 0.01,-0.035 0.002,-0.014 0.003,-0.031 0.003,-0.051l0 -0.099 0.203 0 0 0.215 0.033 0 0 0.117 -0.057 0 0 -0.071 -0.182 0 0 0.071 -0.057 0 0 -0.117 0.028 0zm0.173 0l0 -0.169 -0.082 0 0 0.057c0,0.051 -0.01,0.088 -0.029,0.112l0.111 0z"/>
  <polygon id="1" class="fil0" points="1.086,1.236 1.086,1.303 1.024,1.303 1.024,1.236 "/>
  <path id="2" class="fil0" d="M1.274 1.11c0,-0.037 0.002,-0.067 0.007,-0.09 0.005,-0.023 0.013,-0.041 0.025,-0.055 0.012,-0.014 0.028,-0.023 0.048,-0.029 0.02,-0.006 0.047,-0.009 0.079,-0.009 0.032,0 0.059,0.003 0.079,0.009 0.02,0.006 0.036,0.016 0.048,0.029 0.012,0.014 0.02,0.032 0.025,0.055 0.005,0.023 0.008,0.053 0.008,0.09 0,0.042 -0.003,0.076 -0.008,0.102 -0.005,0.026 -0.013,0.045 -0.025,0.059 -0.012,0.014 -0.028,0.024 -0.048,0.029 -0.02,0.006 -0.046,0.008 -0.079,0.008 -0.035,0 -0.062,-0.003 -0.083,-0.008 -0.02,-0.005 -0.036,-0.015 -0.047,-0.029 -0.011,-0.014 -0.019,-0.034 -0.023,-0.059 -0.004,-0.025 -0.006,-0.059 -0.006,-0.103zm0.073 0.008c0,0.031 0.001,0.055 0.003,0.071 0.002,0.017 0.006,0.029 0.012,0.037 0.006,0.008 0.014,0.014 0.025,0.017 0.011,0.003 0.026,0.004 0.046,0.004 0.02,0 0.035,-0.001 0.046,-0.005 0.011,-0.003 0.019,-0.009 0.025,-0.017 0.006,-0.009 0.01,-0.021 0.012,-0.037 0.002,-0.016 0.003,-0.04 0.003,-0.07 0,-0.031 -0.001,-0.055 -0.003,-0.072 -0.002,-0.017 -0.007,-0.03 -0.013,-0.038 -0.006,-0.008 -0.014,-0.014 -0.025,-0.016 -0.01,-0.002 -0.026,-0.004 -0.046,-0.004 -0.021,0 -0.037,0.001 -0.047,0.004 -0.01,0.002 -0.019,0.008 -0.024,0.016 -0.006,0.008 -0.01,0.021 -0.012,0.037 -0.002,0.017 -0.003,0.041 -0.003,0.072z"/>
  <polygon id="3" class="fil0" points="1.715,1.303 1.778,1.303 1.778,1.091 1.861,1.091 1.861,1.043 1.632,1.043 1.632,1.091 1.715,1.091 "/>
  <path id="4" class="fil0" d="M1.893 1.173c0,-0.034 0.004,-0.061 0.011,-0.08 0.007,-0.019 0.02,-0.033 0.037,-0.041 0.018,-0.008 0.042,-0.013 0.074,-0.013 0.032,0 0.057,0.004 0.075,0.013 0.018,0.008 0.03,0.022 0.038,0.041 0.007,0.019 0.011,0.046 0.011,0.08 0,0.025 -0.002,0.047 -0.006,0.064 -0.004,0.017 -0.011,0.031 -0.02,0.041 -0.009,0.01 -0.022,0.018 -0.038,0.023 -0.016,0.005 -0.036,0.007 -0.06,0.007 -0.024,0 -0.044,-0.002 -0.059,-0.007 -0.016,-0.005 -0.028,-0.013 -0.038,-0.023 -0.009,-0.011 -0.016,-0.024 -0.02,-0.041 -0.004,-0.017 -0.006,-0.038 -0.006,-0.064zm0.064 0c0,0.024 0.002,0.042 0.005,0.055 0.004,0.012 0.01,0.021 0.018,0.025 0.008,0.004 0.02,0.007 0.036,0.007 0.016,0 0.028,-0.002 0.036,-0.007 0.008,-0.004 0.014,-0.013 0.018,-0.025 0.004,-0.012 0.006,-0.031 0.006,-0.055 0,-0.018 -0.001,-0.033 -0.003,-0.044 -0.002,-0.011 -0.005,-0.019 -0.01,-0.026 -0.004,-0.006 -0.01,-0.01 -0.018,-0.013 -0.007,-0.002 -0.017,-0.004 -0.029,-0.004 -0.016,0 -0.028,0.002 -0.036,0.007 -0.008,0.004 -0.014,0.013 -0.018,0.025 -0.004,0.012 -0.005,0.03 -0.005,0.054z"/>
  <polygon id="5" class="fil0" points="2.365,1.091 2.365,1.043 2.192,1.043 2.192,1.303 2.254,1.303 2.254,1.091 "/>
  <path id="6" class="fil0" d="M2.626 1.043l-0.07 0.277c-0.004,0.016 -0.008,0.03 -0.013,0.042 -0.004,0.012 -0.01,0.022 -0.017,0.031 -0.007,0.009 -0.016,0.016 -0.028,0.02 -0.012,0.005 -0.026,0.007 -0.042,0.007 -0.012,0 -0.02,-0.001 -0.026,-0.002l0 -0.045c0.005,0.001 0.01,0.002 0.014,0.002 0.016,-0 0.027,-0.006 0.033,-0.017 0.007,-0.011 0.013,-0.029 0.019,-0.054l-0.033 0 -0.086 -0.261 0.066 0 0.065 0.221 0.051 -0.221 0.065 0z"/>
  <path id="7" class="fil0" d="M2.725 1.166c0,0.026 0.001,0.045 0.004,0.057 0.003,0.012 0.008,0.021 0.016,0.027 0.008,0.005 0.021,0.008 0.039,0.008 0.018,0 0.031,-0.003 0.039,-0.01 0.008,-0.007 0.013,-0.016 0.016,-0.028 0.002,-0.012 0.003,-0.03 0.003,-0.053 0,-0.024 -0.002,-0.041 -0.005,-0.052 -0.003,-0.011 -0.009,-0.019 -0.016,-0.022 -0.008,-0.004 -0.02,-0.006 -0.036,-0.006 -0.016,0 -0.029,0.002 -0.037,0.006 -0.009,0.004 -0.015,0.012 -0.018,0.023 -0.004,0.011 -0.005,0.028 -0.005,0.05zm0 0.101l0 0.146 -0.062 0 0 -0.371 0.06 0 -0.003 0.037 0.002 0c0.01,-0.015 0.021,-0.026 0.034,-0.032 0.012,-0.006 0.028,-0.009 0.047,-0.009 0.028,0 0.05,0.005 0.065,0.015 0.015,0.01 0.025,0.025 0.03,0.044 0.005,0.019 0.008,0.043 0.008,0.073 0,0.022 -0.001,0.04 -0.003,0.056 -0.002,0.016 -0.006,0.029 -0.013,0.042 -0.007,0.012 -0.017,0.022 -0.03,0.029 -0.014,0.007 -0.031,0.01 -0.054,0.01 -0.021,0 -0.037,-0.003 -0.05,-0.008 -0.013,-0.005 -0.023,-0.016 -0.032,-0.032z"/>
  <polygon id="8" class="fil0" points="3.027,1.303 3.089,1.303 3.089,1.091 3.173,1.091 3.173,1.043 2.943,1.043 2.943,1.091 3.027,1.091 "/>
  <path id="9" class="fil0" d="M3.277 1.237l0 0.065c0,0.017 -0.002,0.029 -0.005,0.039 -0.003,0.009 -0.009,0.016 -0.018,0.02 -0.009,0.004 -0.021,0.006 -0.038,0.006 -0.003,0 -0.005,-0 -0.006,-0l0 -0.029c0.011,-0 0.018,-0.002 0.023,-0.005 0.004,-0.003 0.007,-0.01 0.007,-0.02l0 -0.008 -0.025 0 0 -0.067 0.063 0z"/>
  <path id="10" class="fil0" d="M3.696 1.043l-0.07 0.277c-0.004,0.016 -0.008,0.03 -0.013,0.042 -0.004,0.012 -0.01,0.022 -0.017,0.031 -0.007,0.009 -0.016,0.016 -0.028,0.02 -0.012,0.005 -0.026,0.007 -0.042,0.007 -0.012,0 -0.02,-0.001 -0.026,-0.002l0 -0.045c0.005,0.001 0.01,0.002 0.014,0.002 0.016,-0 0.027,-0.006 0.033,-0.017 0.007,-0.011 0.013,-0.029 0.019,-0.054l-0.033 0 -0.086 -0.261 0.066 0 0.065 0.221 0.051 -0.221 0.065 0z"/>
  <path id="11" class="fil0" d="M3.756 1.043l0.217 0 0 0.261 -0.062 0 0 -0.212 -0.094 0 0 0.132c0,0.016 -0.003,0.031 -0.007,0.043 -0.005,0.012 -0.013,0.022 -0.023,0.029 -0.011,0.007 -0.023,0.011 -0.039,0.011 -0.017,0 -0.03,-0.001 -0.038,-0.003l0 -0.047c0.006,0.001 0.011,0.001 0.016,0.001 0.012,0 0.02,-0.003 0.024,-0.01 0.004,-0.006 0.007,-0.017 0.007,-0.031l0 -0.175z"/>
  <polygon id="12" class="fil0" points="4.099,1.236 4.099,1.303 4.037,1.303 4.037,1.236 "/>
  <polygon id="13" class="fil0" points="4.364,0.931 4.364,1.083 4.397,1.083 4.521,0.931 4.609,0.931 4.458,1.112 4.625,1.303 4.534,1.303 4.397,1.144 4.364,1.144 4.364,1.303 4.292,1.303 4.292,0.931 "/>
  <path id="14" class="fil0" d="M4.664 1.043l0 0.261 0.076 0 0.085 -0.163c0.004,-0.008 0.014,-0.027 0.028,-0.058 -0.003,0.007 -0.005,0.019 -0.008,0.036 -0.003,0.017 -0.004,0.031 -0.004,0.041l0 0.144 0.059 0 0 -0.261 -0.076 0 -0.085 0.164c-0.006,0.01 -0.015,0.03 -0.028,0.059 0.003,-0.007 0.005,-0.018 0.008,-0.032 0.003,-0.014 0.004,-0.027 0.004,-0.038l0 -0.152 -0.059 0z"/>
  <path id="15" class="fil0" d="M5.025 1.166c0,0.026 0.001,0.045 0.004,0.057 0.003,0.012 0.008,0.021 0.016,0.027 0.008,0.005 0.021,0.008 0.039,0.008 0.018,0 0.031,-0.003 0.039,-0.01 0.008,-0.007 0.013,-0.016 0.016,-0.028 0.002,-0.012 0.003,-0.03 0.003,-0.053 0,-0.024 -0.002,-0.041 -0.005,-0.052 -0.003,-0.011 -0.009,-0.019 -0.016,-0.022 -0.008,-0.004 -0.02,-0.006 -0.036,-0.006 -0.016,0 -0.029,0.002 -0.037,0.006 -0.009,0.004 -0.015,0.012 -0.018,0.023 -0.004,0.011 -0.005,0.028 -0.005,0.05zm0 0.101l0 0.146 -0.062 0 0 -0.371 0.06 0 -0.003 0.037 0.002 0c0.01,-0.015 0.021,-0.026 0.034,-0.032 0.012,-0.006 0.028,-0.009 0.047,-0.009 0.028,0 0.05,0.005 0.065,0.015 0.015,0.01 0.025,0.025 0.03,0.044 0.005,0.019 0.008,0.043 0.008,0.073 0,0.022 -0.001,0.04 -0.003,0.056 -0.002,0.016 -0.006,0.029 -0.013,0.042 -0.007,0.012 -0.017,0.022 -0.03,0.029 -0.014,0.007 -0.031,0.01 -0.054,0.01 -0.021,0 -0.037,-0.003 -0.05,-0.008 -0.013,-0.005 -0.023,-0.016 -0.032,-0.032z"/>
  <path id="16" class="fil0" d="M5.252 1.173c0,-0.034 0.004,-0.061 0.011,-0.08 0.007,-0.019 0.02,-0.033 0.037,-0.041 0.018,-0.008 0.042,-0.013 0.074,-0.013 0.032,0 0.057,0.004 0.075,0.013 0.018,0.008 0.03,0.022 0.038,0.041 0.007,0.019 0.011,0.046 0.011,0.08 0,0.025 -0.002,0.047 -0.006,0.064 -0.004,0.017 -0.011,0.031 -0.02,0.041 -0.009,0.01 -0.022,0.018 -0.038,0.023 -0.016,0.005 -0.036,0.007 -0.06,0.007 -0.024,0 -0.044,-0.002 -0.059,-0.007 -0.016,-0.005 -0.028,-0.013 -0.038,-0.023 -0.009,-0.011 -0.016,-0.024 -0.02,-0.041 -0.004,-0.017 -0.006,-0.038 -0.006,-0.064zm0.064 0c0,0.024 0.002,0.042 0.005,0.055 0.004,0.012 0.01,0.021 0.018,0.025 0.008,0.004 0.02,0.007 0.036,0.007 0.016,0 0.028,-0.002 0.036,-0.007 0.008,-0.004 0.014,-0.013 0.018,-0.025 0.004,-0.012 0.006,-0.031 0.006,-0.055 0,-0.018 -0.001,-0.033 -0.003,-0.044 -0.002,-0.011 -0.005,-0.019 -0.01,-0.026 -0.004,-0.006 -0.01,-0.01 -0.018,-0.013 -0.007,-0.002 -0.017,-0.004 -0.029,-0.004 -0.016,0 -0.028,0.002 -0.036,0.007 -0.008,0.004 -0.014,0.013 -0.018,0.025 -0.004,0.012 -0.005,0.03 -0.005,0.054z"/>
  <path id="17" class="fil0" d="M5.613 1.088l0 0.062 0.059 0c0.016,0 0.027,-0.002 0.033,-0.007 0.007,-0.005 0.01,-0.012 0.01,-0.023 0,-0.011 -0.003,-0.019 -0.009,-0.024 -0.006,-0.005 -0.015,-0.008 -0.029,-0.008l-0.065 0zm0 0.103l0 0.067 0.068 0c0.014,0 0.025,-0.003 0.031,-0.008 0.006,-0.005 0.009,-0.014 0.009,-0.025 0,-0.022 -0.012,-0.033 -0.037,-0.033l-0.071 0zm-0.061 0.112l0 -0.261 0.144 0c0.029,0 0.05,0.006 0.063,0.017 0.013,0.011 0.019,0.029 0.019,0.054 0,0.014 -0.004,0.025 -0.013,0.035 -0.008,0.01 -0.02,0.016 -0.035,0.02l0 0.001c0.016,0.003 0.029,0.01 0.039,0.02 0.01,0.01 0.014,0.024 0.014,0.042 0,0.017 -0.003,0.031 -0.007,0.041 -0.005,0.01 -0.013,0.018 -0.025,0.023 -0.012,0.005 -0.028,0.008 -0.048,0.008l-0.151 0z"/>
  <path id="18" class="fil0" d="M6.001 1.303l0.005 -0.036 -0.001 0c-0.005,0.012 -0.012,0.02 -0.02,0.026 -0.008,0.006 -0.017,0.01 -0.027,0.011 -0.01,0.002 -0.023,0.003 -0.04,0.003 -0.022,0 -0.04,-0.003 -0.054,-0.008 -0.014,-0.005 -0.024,-0.014 -0.031,-0.026 -0.007,-0.012 -0.01,-0.028 -0.01,-0.048 0,-0.017 0.002,-0.03 0.005,-0.041 0.004,-0.011 0.009,-0.019 0.017,-0.025 0.008,-0.006 0.018,-0.011 0.031,-0.013 0.013,-0.003 0.029,-0.004 0.048,-0.004 0.023,0 0.039,0.003 0.049,0.007 0.01,0.005 0.018,0.014 0.024,0.026l0.003 0 0 -0.044c0,-0.014 -0.002,-0.025 -0.005,-0.033 -0.003,-0.008 -0.009,-0.013 -0.017,-0.016 -0.008,-0.003 -0.019,-0.004 -0.034,-0.004 -0.019,0 -0.032,0.003 -0.039,0.008 -0.007,0.005 -0.011,0.016 -0.011,0.031l-0.063 0c0,-0.016 0.004,-0.029 0.009,-0.04 0.006,-0.011 0.013,-0.019 0.023,-0.024 0.01,-0.006 0.021,-0.01 0.033,-0.012 0.013,-0.002 0.027,-0.003 0.044,-0.003 0.028,0 0.05,0.002 0.067,0.006 0.017,0.004 0.03,0.013 0.04,0.026 0.01,0.014 0.015,0.034 0.015,0.06l0 0.172 -0.062 0zm0 -0.078c0,-0.015 -0.004,-0.026 -0.013,-0.031 -0.009,-0.006 -0.025,-0.008 -0.048,-0.008 -0.014,0 -0.025,0.001 -0.032,0.004 -0.008,0.002 -0.013,0.006 -0.016,0.012 -0.003,0.006 -0.005,0.013 -0.005,0.023 0,0.014 0.004,0.025 0.012,0.03 0.008,0.006 0.021,0.009 0.041,0.009 0.022,0 0.038,-0.003 0.048,-0.008 0.01,-0.006 0.014,-0.016 0.014,-0.031z"/>
  <path id="19" class="fil0" d="M6.188 1.237l0 0.065c0,0.017 -0.002,0.029 -0.005,0.039 -0.003,0.009 -0.009,0.016 -0.018,0.02 -0.009,0.004 -0.021,0.006 -0.038,0.006 -0.003,0 -0.005,-0 -0.006,-0l0 -0.029c0.011,-0 0.018,-0.002 0.023,-0.005 0.004,-0.003 0.007,-0.01 0.007,-0.02l0 -0.008 -0.025 0 0 -0.067 0.063 0z"/>
  <path id="20" class="fil0" d="M6.389 1.257c0.008,-0.01 0.014,-0.02 0.018,-0.03 0.004,-0.01 0.008,-0.021 0.01,-0.035 0.002,-0.014 0.003,-0.031 0.003,-0.051l0 -0.099 0.203 0 0 0.215 0.033 0 0 0.117 -0.057 0 0 -0.071 -0.182 0 0 0.071 -0.057 0 0 -0.117 0.028 0zm0.173 0l0 -0.169 -0.082 0 0 0.057c0,0.051 -0.01,0.088 -0.029,0.112l0.111 0z"/>
  <polygon id="21" class="fil0" points="6.755,1.236 6.755,1.303 6.693,1.303 6.693,1.236 "/>
  <path id="22" class="fil0" d="M7.06 1.14l0 -0.054 0.04 0c0.018,0 0.03,-0.001 0.038,-0.003 0.008,-0.002 0.013,-0.007 0.016,-0.014 0.003,-0.007 0.005,-0.02 0.005,-0.037 0,-0.014 -0.002,-0.024 -0.006,-0.031 -0.004,-0.007 -0.011,-0.012 -0.021,-0.014 -0.01,-0.003 -0.025,-0.004 -0.045,-0.004 -0.022,0 -0.037,0.002 -0.047,0.005 -0.01,0.003 -0.016,0.01 -0.02,0.019 -0.003,0.009 -0.005,0.024 -0.005,0.044l-0.067 0c0,-0.031 0.004,-0.055 0.013,-0.073 0.009,-0.018 0.023,-0.031 0.042,-0.039 0.019,-0.008 0.046,-0.012 0.079,-0.012 0.036,0 0.064,0.003 0.085,0.009 0.021,0.006 0.036,0.017 0.045,0.031 0.009,0.014 0.014,0.033 0.014,0.058 0,0.017 -0.001,0.032 -0.004,0.043 -0.003,0.012 -0.009,0.021 -0.017,0.029 -0.009,0.008 -0.021,0.013 -0.038,0.015l0 0.003c0.017,0.002 0.03,0.006 0.04,0.013 0.01,0.006 0.016,0.015 0.02,0.026 0.004,0.011 0.006,0.025 0.006,0.043 0,0.019 -0.002,0.036 -0.006,0.049 -0.004,0.014 -0.011,0.025 -0.022,0.035 -0.01,0.009 -0.025,0.017 -0.044,0.021 -0.019,0.005 -0.043,0.007 -0.072,0.007 -0.036,0 -0.065,-0.004 -0.086,-0.011 -0.021,-0.007 -0.036,-0.019 -0.046,-0.035 -0.009,-0.016 -0.014,-0.037 -0.014,-0.063l0 -0.02 0.066 0c0,0.022 0.002,0.038 0.005,0.048 0.003,0.01 0.01,0.016 0.021,0.02 0.011,0.004 0.029,0.006 0.053,0.006 0.021,0 0.036,-0.002 0.047,-0.006 0.011,-0.004 0.018,-0.01 0.022,-0.019 0.004,-0.009 0.006,-0.02 0.006,-0.035 0,-0.015 -0.002,-0.026 -0.006,-0.034 -0.004,-0.007 -0.01,-0.012 -0.019,-0.015 -0.008,-0.002 -0.02,-0.004 -0.036,-0.004l-0.044 0z"/>
  <path id="23" class="fil0" d="M7.437 1.139c-0.023,0 -0.039,0.001 -0.05,0.004 -0.01,0.003 -0.017,0.008 -0.021,0.015 -0.004,0.007 -0.006,0.019 -0.006,0.036 0,0.015 0.002,0.027 0.006,0.036 0.004,0.008 0.012,0.014 0.022,0.018 0.011,0.004 0.027,0.005 0.048,0.005 0.021,0 0.037,-0.002 0.048,-0.005 0.011,-0.003 0.019,-0.009 0.023,-0.017 0.004,-0.008 0.006,-0.02 0.006,-0.035 0,-0.016 -0.002,-0.028 -0.006,-0.036 -0.004,-0.008 -0.011,-0.013 -0.022,-0.015 -0.011,-0.003 -0.027,-0.004 -0.049,-0.004zm0 -0.157c-0.02,0 -0.036,0.002 -0.046,0.004 -0.01,0.003 -0.017,0.008 -0.021,0.015 -0.004,0.007 -0.006,0.018 -0.006,0.033 0,0.011 0.001,0.021 0.003,0.027 0.002,0.007 0.006,0.012 0.011,0.015 0.005,0.003 0.012,0.006 0.021,0.007 0.009,0.001 0.021,0.002 0.037,0.002 0.016,0 0.028,-0.001 0.037,-0.002 0.009,-0.001 0.016,-0.003 0.021,-0.007 0.005,-0.003 0.009,-0.008 0.011,-0.015 0.002,-0.006 0.003,-0.016 0.003,-0.027 0,-0.015 -0.002,-0.026 -0.006,-0.033 -0.004,-0.007 -0.011,-0.012 -0.021,-0.015 -0.01,-0.003 -0.025,-0.004 -0.045,-0.004zm-0.08 0.129c-0.016,-0.005 -0.028,-0.011 -0.037,-0.019 -0.009,-0.008 -0.015,-0.017 -0.018,-0.027 -0.003,-0.011 -0.005,-0.023 -0.005,-0.038 0,-0.019 0.002,-0.035 0.008,-0.048 0.005,-0.013 0.013,-0.023 0.024,-0.03 0.011,-0.008 0.025,-0.013 0.043,-0.016 0.018,-0.003 0.04,-0.005 0.066,-0.005 0.035,0 0.062,0.003 0.082,0.009 0.02,0.006 0.034,0.016 0.043,0.031 0.009,0.014 0.013,0.035 0.013,0.06 0,0.016 -0.001,0.028 -0.004,0.039 -0.003,0.01 -0.008,0.019 -0.017,0.027 -0.008,0.008 -0.02,0.014 -0.037,0.019 0.017,0.004 0.029,0.01 0.039,0.017 0.009,0.007 0.016,0.016 0.019,0.027 0.004,0.011 0.006,0.025 0.006,0.041 0,0.021 -0.002,0.038 -0.007,0.052 -0.005,0.014 -0.012,0.025 -0.023,0.034 -0.011,0.009 -0.026,0.015 -0.044,0.019 -0.019,0.004 -0.042,0.006 -0.071,0.006 -0.028,0 -0.051,-0.002 -0.07,-0.006 -0.019,-0.004 -0.033,-0.01 -0.044,-0.019 -0.011,-0.009 -0.019,-0.02 -0.023,-0.034 -0.005,-0.014 -0.007,-0.031 -0.007,-0.052 0,-0.016 0.002,-0.03 0.006,-0.041 0.004,-0.011 0.011,-0.02 0.02,-0.027 0.009,-0.007 0.022,-0.013 0.039,-0.017z"/>
  <path class="fil0" d="M0.837 1.898c-0.023,0 -0.039,0.001 -0.05,0.004 -0.01,0.003 -0.017,0.008 -0.021,0.015 -0.004,0.007 -0.006,0.019 -0.006,0.036 0,0.015 0.002,0.027 0.006,0.036 0.004,0.008 0.012,0.014 0.022,0.018 0.011,0.004 0.027,0.005 0.048,0.005 0.021,0 0.037,-0.002 0.048,-0.005 0.011,-0.003 0.019,-0.009 0.023,-0.017 0.004,-0.008 0.006,-0.02 0.006,-0.035 0,-0.016 -0.002,-0.028 -0.006,-0.036 -0.004,-0.008 -0.011,-0.013 -0.022,-0.015 -0.011,-0.003 -0.027,-0.004 -0.049,-0.004zm0 -0.157c-0.02,0 -0.036,0.002 -0.046,0.004 -0.01,0.003 -0.017,0.008 -0.021,0.015 -0.004,0.007 -0.006,0.018 -0.006,0.033 0,0.011 0.001,0.021 0.003,0.027 0.002,0.007 0.006,0.012 0.011,0.015 0.005,0.003 0.012,0.006 0.021,0.007 0.009,0.001 0.021,0.002 0.037,0.002 0.016,0 0.028,-0.001 0.037,-0.002 0.009,-0.001 0.016,-0.003 0.021,-0.007 0.005,-0.003 0.009,-0.008 0.011,-0.015 0.002,-0.006 0.003,-0.016 0.003,-0.027 0,-0.015 -0.002,-0.026 -0.006,-0.033 -0.004,-0.007 -0.011,-0.012 -0.021,-0.015 -0.01,-0.003 -0.025,-0.004 -0.045,-0.004zm-0.08 0.129c-0.016,-0.005 -0.028,-0.011 -0.037,-0.019 -0.009,-0.008 -0.015,-0.017 -0.018,-0.027 -0.003,-0.011 -0.005,-0.023 -0.005,-0.038 0,-0.019 0.002,-0.035 0.008,-0.048 0.005,-0.013 0.013,-0.023 0.024,-0.03 0.011,-0.008 0.025,-0.013 0.043,-0.016 0.018,-0.003 0.04,-0.005 0.066,-0.005 0.035,0 0.062,0.003 0.082,0.009 0.02,0.006 0.034,0.016 0.043,0.031 0.009,0.014 0.013,0.035 0.013,0.06 0,0.016 -0.001,0.028 -0.004,0.039 -0.003,0.01 -0.008,0.019 -0.017,0.027 -0.008,0.008 -0.02,0.014 -0.037,0.019 0.017,0.004 0.029,0.01 0.039,0.017 0.009,0.007 0.016,0.016 0.019,0.027 0.004,0.011 0.006,0.025 0.006,0.041 0,0.021 -0.002,0.038 -0.007,0.052 -0.005,0.014 -0.012,0.025 -0.023,0.034 -0.011,0.009 -0.026,0.015 -0.044,0.019 -0.019,0.004 -0.042,0.006 -0.071,0.006 -0.028,0 -0.051,-0.002 -0.07,-0.006 -0.019,-0.004 -0.033,-0.01 -0.044,-0.019 -0.011,-0.009 -0.019,-0.02 -0.023,-0.034 -0.005,-0.014 -0.007,-0.031 -0.007,-0.052 0,-0.016 0.002,-0.03 0.006,-0.041 0.004,-0.011 0.011,-0.02 0.02,-0.027 0.009,-0.007 0.022,-0.013 0.039,-0.017z"/>
  <path id="1" class="fil0" d="M1.294 1.685l0 0.058c-0.019,0 -0.032,0.004 -0.038,0.012 -0.007,0.008 -0.01,0.024 -0.01,0.046l0 0.197c0,0.025 0.003,0.041 0.009,0.05 0.006,0.009 0.016,0.013 0.03,0.013l0.01 0 0 0.058c-0.027,0 -0.048,-0.003 -0.064,-0.009 -0.016,-0.006 -0.028,-0.015 -0.035,-0.027 -0.008,-0.012 -0.013,-0.027 -0.015,-0.045 -0.002,-0.018 -0.003,-0.042 -0.003,-0.072l0 -0.133c0,-0.029 0.001,-0.052 0.003,-0.069 0.002,-0.017 0.007,-0.032 0.015,-0.044 0.008,-0.012 0.019,-0.021 0.035,-0.028 0.016,-0.006 0.037,-0.009 0.064,-0.009z"/>
  <path id="2" class="fil0" d="M1.464 1.899l0 -0.054 0.04 0c0.018,0 0.03,-0.001 0.038,-0.003 0.008,-0.002 0.013,-0.007 0.016,-0.014 0.003,-0.007 0.005,-0.02 0.005,-0.037 0,-0.014 -0.002,-0.024 -0.006,-0.031 -0.004,-0.007 -0.011,-0.012 -0.021,-0.014 -0.01,-0.003 -0.025,-0.004 -0.045,-0.004 -0.022,0 -0.037,0.002 -0.047,0.005 -0.01,0.003 -0.016,0.01 -0.02,0.019 -0.003,0.009 -0.005,0.024 -0.005,0.044l-0.067 0c0,-0.031 0.004,-0.055 0.013,-0.073 0.009,-0.018 0.023,-0.031 0.042,-0.039 0.019,-0.008 0.046,-0.012 0.079,-0.012 0.036,0 0.064,0.003 0.085,0.009 0.021,0.006 0.036,0.017 0.045,0.031 0.009,0.014 0.014,0.033 0.014,0.058 0,0.017 -0.001,0.032 -0.004,0.043 -0.003,0.012 -0.009,0.021 -0.017,0.029 -0.009,0.008 -0.021,0.013 -0.038,0.015l0 0.003c0.017,0.002 0.03,0.006 0.04,0.013 0.01,0.006 0.016,0.015 0.02,0.026 0.004,0.011 0.006,0.025 0.006,0.043 0,0.019 -0.002,0.036 -0.006,0.049 -0.004,0.014 -0.011,0.025 -0.022,0.035 -0.01,0.009 -0.025,0.017 -0.044,0.021 -0.019,0.005 -0.043,0.007 -0.072,0.007 -0.036,0 -0.065,-0.004 -0.086,-0.011 -0.021,-0.007 -0.036,-0.019 -0.046,-0.035 -0.009,-0.016 -0.014,-0.037 -0.014,-0.063l0 -0.02 0.066 0c0,0.022 0.002,0.038 0.005,0.048 0.003,0.01 0.01,0.016 0.021,0.02 0.011,0.004 0.029,0.006 0.053,0.006 0.021,0 0.036,-0.002 0.047,-0.006 0.011,-0.004 0.018,-0.01 0.022,-0.019 0.004,-0.009 0.006,-0.02 0.006,-0.035 0,-0.015 -0.002,-0.026 -0.006,-0.034 -0.004,-0.007 -0.01,-0.012 -0.019,-0.015 -0.008,-0.002 -0.02,-0.004 -0.036,-0.004l-0.044 0z"/>
  <path id="3" class="fil0" d="M1.955 1.69l0 0.239 0.043 0 0 0.053 -0.043 0 0 0.08 -0.069 0 0 -0.08 -0.202 0 0 -0.077 0.166 -0.215 0.105 0zm-0.214 0.239l0.146 0 0 -0.188 -0.146 0.188z"/>
  <polygon id="4" class="fil0" points="2.265,1.69 2.265,2.062 2.197,2.062 2.197,1.749 2.1,1.846 2.059,1.802 2.179,1.69 "/>
  <path id="5" class="fil0" d="M2.655 1.69l0 0.239 0.043 0 0 0.053 -0.043 0 0 0.08 -0.069 0 0 -0.08 -0.202 0 0 -0.077 0.166 -0.215 0.105 0zm-0.214 0.239l0.146 0 0 -0.188 -0.146 0.188z"/>
  <polygon id="6" class="fil0" points="2.966,1.69 2.966,2.062 2.897,2.062 2.897,1.749 2.801,1.846 2.759,1.802 2.879,1.69 "/>
  <path id="7" class="fil0" d="M3.1 1.685l0 0.058c0.019,0 0.032,0.004 0.039,0.013 0.007,0.009 0.01,0.025 0.01,0.048l0 0.193c0,0.025 -0.003,0.042 -0.009,0.052 -0.006,0.009 -0.016,0.014 -0.03,0.014l-0.01 0 0 0.058c0.027,0 0.048,-0.003 0.064,-0.009 0.016,-0.006 0.028,-0.015 0.035,-0.027 0.008,-0.012 0.013,-0.027 0.015,-0.045 0.002,-0.018 0.004,-0.042 0.004,-0.071l0 -0.133c0,-0.028 -0.001,-0.051 -0.004,-0.069 -0.002,-0.018 -0.008,-0.033 -0.015,-0.045 -0.008,-0.012 -0.02,-0.021 -0.036,-0.028 -0.016,-0.006 -0.037,-0.009 -0.064,-0.009z"/>
  <path id="8" class="fil0" d="M3.405 1.958l0.068 0c0,0.014 0.001,0.024 0.005,0.031 0.003,0.007 0.008,0.013 0.015,0.016 0.007,0.003 0.018,0.005 0.031,0.005l0.032 0c0.016,0 0.028,-0.001 0.037,-0.005 0.009,-0.003 0.015,-0.008 0.019,-0.016 0.004,-0.008 0.006,-0.019 0.006,-0.033l0 -0.075c-0.008,0.016 -0.019,0.026 -0.032,0.03 -0.013,0.004 -0.031,0.006 -0.054,0.006 -0.032,0 -0.058,-0.003 -0.077,-0.009 -0.019,-0.006 -0.033,-0.017 -0.042,-0.032 -0.009,-0.016 -0.014,-0.038 -0.014,-0.066 0,-0.022 0.002,-0.04 0.006,-0.056 0.004,-0.015 0.011,-0.028 0.022,-0.038 0.01,-0.01 0.025,-0.018 0.044,-0.023 0.019,-0.005 0.043,-0.007 0.072,-0.007 0.033,0 0.06,0.003 0.08,0.01 0.02,0.006 0.036,0.019 0.047,0.037 0.011,0.018 0.017,0.044 0.017,0.077l0 0.131c0,0.026 -0.003,0.048 -0.009,0.064 -0.006,0.017 -0.015,0.029 -0.026,0.038 -0.012,0.009 -0.026,0.015 -0.044,0.018 -0.017,0.003 -0.039,0.005 -0.065,0.005 -0.024,0 -0.043,-0.001 -0.059,-0.003 -0.016,-0.002 -0.03,-0.007 -0.042,-0.014 -0.012,-0.007 -0.021,-0.018 -0.027,-0.033 -0.006,-0.015 -0.01,-0.034 -0.01,-0.058zm0.213 -0.156c0,-0.016 -0.002,-0.028 -0.006,-0.037 -0.004,-0.008 -0.011,-0.014 -0.022,-0.018 -0.011,-0.004 -0.027,-0.005 -0.048,-0.005 -0.02,0 -0.035,0.002 -0.046,0.005 -0.01,0.004 -0.018,0.01 -0.022,0.018 -0.004,0.009 -0.006,0.021 -0.006,0.037 0,0.014 0.001,0.025 0.002,0.032 0.002,0.007 0.005,0.013 0.01,0.017 0.005,0.004 0.012,0.007 0.022,0.008 0.009,0.001 0.023,0.002 0.041,0.002 0.023,0 0.039,-0.001 0.049,-0.004 0.01,-0.003 0.017,-0.008 0.02,-0.016 0.003,-0.008 0.005,-0.021 0.005,-0.039z"/>
  <path id="9" class="fil0" d="M3.888 1.958l0.068 0c0,0.014 0.001,0.024 0.005,0.031 0.003,0.007 0.008,0.013 0.015,0.016 0.007,0.003 0.018,0.005 0.031,0.005l0.032 0c0.016,0 0.028,-0.001 0.037,-0.005 0.009,-0.003 0.015,-0.008 0.019,-0.016 0.004,-0.008 0.006,-0.019 0.006,-0.033l0 -0.075c-0.008,0.016 -0.019,0.026 -0.032,0.03 -0.013,0.004 -0.031,0.006 -0.054,0.006 -0.032,0 -0.058,-0.003 -0.077,-0.009 -0.019,-0.006 -0.033,-0.017 -0.042,-0.032 -0.009,-0.016 -0.014,-0.038 -0.014,-0.066 0,-0.022 0.002,-0.04 0.006,-0.056 0.004,-0.015 0.011,-0.028 0.022,-0.038 0.01,-0.01 0.025,-0.018 0.044,-0.023 0.019,-0.005 0.043,-0.007 0.072,-0.007 0.033,0 0.06,0.003 0.08,0.01 0.02,0.006 0.036,0.019 0.047,0.037 0.011,0.018 0.017,0.044 0.017,0.077l0 0.131c0,0.026 -0.003,0.048 -0.009,0.064 -0.006,0.017 -0.015,0.029 -0.026,0.038 -0.012,0.009 -0.026,0.015 -0.044,0.018 -0.017,0.003 -0.039,0.005 -0.065,0.005 -0.024,0 -0.043,-0.001 -0.059,-0.003 -0.016,-0.002 -0.03,-0.007 -0.042,-0.014 -0.012,-0.007 -0.021,-0.018 -0.027,-0.033 -0.006,-0.015 -0.01,-0.034 -0.01,-0.058zm0.213 -0.156c0,-0.016 -0.002,-0.028 -0.006,-0.037 -0.004,-0.008 -0.011,-0.014 -0.022,-0.018 -0.011,-0.004 -0.027,-0.005 -0.048,-0.005 -0.02,0 -0.035,0.002 -0.046,0.005 -0.01,0.004 -0.018,0.01 -0.022,0.018 -0.004,0.009 -0.006,0.021 -0.006,0.037 0,0.014 0.001,0.025 0.002,0.032 0.002,0.007 0.005,0.013 0.01,0.017 0.005,0.004 0.012,0.007 0.022,0.008 0.009,0.001 0.023,0.002 0.041,0.002 0.023,0 0.039,-0.001 0.049,-0.004 0.01,-0.003 0.017,-0.008 0.02,-0.016 0.003,-0.008 0.005,-0.021 0.005,-0.039z"/>
  <path id="10" class="fil0" d="M4.542 1.876c0,0.042 -0.002,0.075 -0.006,0.099 -0.004,0.023 -0.011,0.042 -0.022,0.055 -0.011,0.013 -0.026,0.023 -0.047,0.028 -0.02,0.005 -0.048,0.008 -0.084,0.008 -0.036,0 -0.063,-0.003 -0.083,-0.008 -0.02,-0.005 -0.035,-0.015 -0.046,-0.028 -0.01,-0.013 -0.017,-0.032 -0.021,-0.055 -0.004,-0.023 -0.005,-0.056 -0.005,-0.099 0,-0.042 0.002,-0.075 0.006,-0.099 0.004,-0.024 0.011,-0.042 0.021,-0.056 0.011,-0.013 0.026,-0.023 0.046,-0.028 0.02,-0.005 0.048,-0.008 0.084,-0.008 0.036,0 0.064,0.003 0.084,0.008 0.02,0.005 0.036,0.015 0.046,0.028 0.011,0.014 0.018,0.032 0.021,0.056 0.004,0.024 0.006,0.057 0.006,0.099zm-0.244 0c0,0.034 0.001,0.058 0.002,0.074 0.001,0.016 0.005,0.028 0.01,0.036 0.005,0.008 0.013,0.013 0.024,0.016 0.011,0.002 0.027,0.004 0.05,0.004 0.022,0 0.039,-0.001 0.05,-0.004 0.011,-0.002 0.019,-0.008 0.025,-0.016 0.006,-0.008 0.009,-0.02 0.011,-0.036 0.002,-0.016 0.003,-0.041 0.003,-0.074 0,-0.034 -0.001,-0.059 -0.002,-0.075 -0.001,-0.016 -0.005,-0.028 -0.01,-0.036 -0.005,-0.008 -0.013,-0.013 -0.024,-0.016 -0.011,-0.002 -0.028,-0.004 -0.051,-0.004 -0.022,0 -0.039,0.001 -0.05,0.004 -0.011,0.003 -0.019,0.008 -0.024,0.016 -0.005,0.008 -0.009,0.02 -0.01,0.036 -0.001,0.016 -0.002,0.04 -0.002,0.074z"/>
  <path id="11" class="fil0" d="M4.995 1.689l0 0.054 -0.198 0 0 0.093c0.009,-0.012 0.021,-0.02 0.036,-0.024 0.014,-0.004 0.032,-0.005 0.052,-0.005 0.022,0 0.041,0.002 0.057,0.007 0.016,0.005 0.029,0.012 0.039,0.021 0.01,0.01 0.018,0.022 0.023,0.037 0.005,0.015 0.007,0.034 0.007,0.055 0,0.027 -0.002,0.048 -0.005,0.065 -0.004,0.017 -0.01,0.031 -0.02,0.042 -0.01,0.011 -0.024,0.019 -0.043,0.025 -0.019,0.005 -0.043,0.008 -0.074,0.008 -0.027,0 -0.049,-0.002 -0.067,-0.005 -0.018,-0.003 -0.032,-0.009 -0.043,-0.018 -0.011,-0.008 -0.02,-0.02 -0.025,-0.034 -0.005,-0.015 -0.008,-0.033 -0.008,-0.055l0.069 0c0,0.015 0.002,0.027 0.007,0.035 0.005,0.008 0.012,0.014 0.021,0.016 0.009,0.003 0.022,0.004 0.038,0.004 0.023,0 0.041,-0.002 0.052,-0.006 0.011,-0.004 0.019,-0.011 0.023,-0.021 0.004,-0.01 0.006,-0.025 0.006,-0.046 0,-0.02 -0.002,-0.035 -0.005,-0.045 -0.003,-0.011 -0.01,-0.018 -0.018,-0.022 -0.009,-0.004 -0.022,-0.007 -0.039,-0.007l-0.025 0c-0.016,0 -0.028,0.002 -0.038,0.004 -0.01,0.003 -0.016,0.01 -0.019,0.021l-0.063 0 0 -0.199 0.261 0z"/>
  <path id="12" class="fil0" d="M5.187 1.899l0 -0.054 0.04 0c0.018,0 0.03,-0.001 0.038,-0.003 0.008,-0.002 0.013,-0.007 0.016,-0.014 0.003,-0.007 0.005,-0.02 0.005,-0.037 0,-0.014 -0.002,-0.024 -0.006,-0.031 -0.004,-0.007 -0.011,-0.012 -0.021,-0.014 -0.01,-0.003 -0.025,-0.004 -0.045,-0.004 -0.022,0 -0.037,0.002 -0.047,0.005 -0.01,0.003 -0.016,0.01 -0.02,0.019 -0.003,0.009 -0.005,0.024 -0.005,0.044l-0.067 0c0,-0.031 0.004,-0.055 0.013,-0.073 0.009,-0.018 0.023,-0.031 0.042,-0.039 0.019,-0.008 0.046,-0.012 0.079,-0.012 0.036,0 0.064,0.003 0.085,0.009 0.021,0.006 0.036,0.017 0.045,0.031 0.009,0.014 0.014,0.033 0.014,0.058 0,0.017 -0.001,0.032 -0.004,0.043 -0.003,0.012 -0.009,0.021 -0.017,0.029 -0.009,0.008 -0.021,0.013 -0.038,0.015l0 0.003c0.017,0.002 0.03,0.006 0.04,0.013 0.01,0.006 0.016,0.015 0.02,0.026 0.004,0.011 0.006,0.025 0.006,0.043 0,0.019 -0.002,0.036 -0.006,0.049 -0.004,0.014 -0.011,0.025 -0.022,0.035 -0.01,0.009 -0.025,0.017 -0.044,0.021 -0.019,0.005 -0.043,0.007 -0.072,0.007 -0.036,0 -0.065,-0.004 -0.086,-0.011 -0.021,-0.007 -0.036,-0.019 -0.046,-0.035 -0.009,-0.016 -0.014,-0.037 -0.014,-0.063l0 -0.02 0.066 0c0,0.022 0.002,0.038 0.005,0.048 0.003,0.01 0.01,0.016 0.021,0.02 0.011,0.004 0.029,0.006 0.053,0.006 0.021,0 0.036,-0.002 0.047,-0.006 0.011,-0.004 0.018,-0.01 0.022,-0.019 0.004,-0.009 0.006,-0.02 0.006,-0.035 0,-0.015 -0.002,-0.026 -0.006,-0.034 -0.004,-0.007 -0.01,-0.012 -0.019,-0.015 -0.008,-0.002 -0.02,-0.004 -0.036,-0.004l-0.044 0z"/>
  <polygon class="fil0" points="1.009,2.391 0.899,2.571 1.018,2.763 0.935,2.763 0.842,2.607 0.747,2.763 0.663,2.763 0.785,2.571 0.672,2.391 0.755,2.391 0.842,2.539 0.928,2.391 "/>
  <path id="1" class="fil0" d="M1.278 2.503l-0.07 0.277c-0.004,0.016 -0.008,0.03 -0.013,0.042 -0.004,0.012 -0.01,0.022 -0.017,0.031 -0.007,0.009 -0.016,0.016 -0.028,0.02 -0.012,0.005 -0.026,0.007 -0.042,0.007 -0.012,0 -0.02,-0.001 -0.026,-0.002l0 -0.045c0.005,0.001 0.01,0.002 0.014,0.002 0.016,-0 0.027,-0.006 0.033,-0.017 0.007,-0.011 0.013,-0.029 0.019,-0.054l-0.033 0 -0.086 -0.261 0.066 0 0.065 0.221 0.051 -0.221 0.065 0z"/>
  <path id="2" class="fil0" d="M1.319 2.717c0.008,-0.01 0.014,-0.02 0.018,-0.03 0.004,-0.01 0.008,-0.021 0.01,-0.035 0.002,-0.014 0.003,-0.031 0.003,-0.051l0 -0.099 0.203 0 0 0.215 0.033 0 0 0.117 -0.057 0 0 -0.071 -0.182 0 0 0.071 -0.057 0 0 -0.117 0.028 0zm0.173 0l0 -0.169 -0.082 0 0 0.057c0,0.051 -0.01,0.088 -0.029,0.112l0.111 0z"/>
  <path id="3" class="fil0" d="M1.616 2.633c0,-0.034 0.004,-0.061 0.011,-0.08 0.007,-0.019 0.02,-0.033 0.037,-0.041 0.018,-0.008 0.042,-0.013 0.074,-0.013 0.032,0 0.057,0.004 0.075,0.013 0.018,0.008 0.03,0.022 0.038,0.041 0.007,0.019 0.011,0.046 0.011,0.08 0,0.025 -0.002,0.047 -0.006,0.064 -0.004,0.017 -0.011,0.031 -0.02,0.041 -0.009,0.01 -0.022,0.018 -0.038,0.023 -0.016,0.005 -0.036,0.007 -0.06,0.007 -0.024,0 -0.044,-0.002 -0.059,-0.007 -0.016,-0.005 -0.028,-0.013 -0.038,-0.023 -0.009,-0.011 -0.016,-0.024 -0.02,-0.041 -0.004,-0.017 -0.006,-0.038 -0.006,-0.064zm0.064 0c0,0.024 0.002,0.042 0.005,0.055 0.004,0.012 0.01,0.021 0.018,0.025 0.008,0.004 0.02,0.007 0.036,0.007 0.016,0 0.028,-0.002 0.036,-0.007 0.008,-0.004 0.014,-0.013 0.018,-0.025 0.004,-0.012 0.006,-0.031 0.006,-0.055 0,-0.018 -0.001,-0.033 -0.003,-0.044 -0.002,-0.011 -0.005,-0.019 -0.01,-0.026 -0.004,-0.006 -0.01,-0.01 -0.018,-0.013 -0.007,-0.002 -0.017,-0.004 -0.029,-0.004 -0.016,0 -0.028,0.002 -0.036,0.007 -0.008,0.004 -0.014,0.013 -0.018,0.025 -0.004,0.012 -0.005,0.03 -0.005,0.054z"/>
  <polygon id="4" class="fil0" points="2.059,2.763 2.12,2.763 2.12,2.647 2.135,2.647 2.214,2.763 2.286,2.763 2.188,2.625 2.271,2.503 2.202,2.503 2.135,2.604 2.12,2.604 2.12,2.503 2.059,2.503 2.059,2.604 2.044,2.604 1.977,2.503 1.908,2.503 1.991,2.625 1.893,2.763 1.965,2.763 2.044,2.647 2.059,2.647 "/>
  <path id="5" class="fil0" d="M2.495 2.681l0.062 0 0 0.01c0,0.021 -0.005,0.037 -0.014,0.049 -0.01,0.011 -0.023,0.019 -0.04,0.023 -0.017,0.004 -0.039,0.006 -0.066,0.006 -0.03,0 -0.054,-0.004 -0.071,-0.013 -0.017,-0.008 -0.029,-0.022 -0.037,-0.042 -0.007,-0.019 -0.011,-0.046 -0.011,-0.08 0,-0.034 0.004,-0.06 0.011,-0.08 0.008,-0.02 0.02,-0.034 0.037,-0.043 0.017,-0.009 0.041,-0.013 0.071,-0.013 0.03,0 0.053,0.004 0.071,0.013 0.018,0.009 0.03,0.023 0.038,0.042 0.008,0.019 0.012,0.044 0.012,0.074l0 0.018 -0.177 0c0,0.021 0.002,0.037 0.005,0.048 0.003,0.011 0.009,0.018 0.017,0.022 0.008,0.004 0.02,0.006 0.035,0.006 0.014,0 0.025,-0.001 0.034,-0.003 0.008,-0.002 0.014,-0.006 0.018,-0.011 0.004,-0.005 0.006,-0.013 0.006,-0.023l0 -0.005zm0.001 -0.075c0,-0.016 -0.002,-0.028 -0.006,-0.037 -0.004,-0.009 -0.01,-0.015 -0.018,-0.019 -0.009,-0.004 -0.02,-0.006 -0.035,-0.006 -0.015,0 -0.026,0.002 -0.034,0.006 -0.008,0.004 -0.014,0.01 -0.018,0.019 -0.004,0.009 -0.005,0.021 -0.005,0.037l0.116 0z"/>
  <path id="6" class="fil0" d="M2.775 2.665l0.061 0c0,0.019 -0.002,0.035 -0.006,0.048 -0.004,0.013 -0.011,0.024 -0.02,0.032 -0.009,0.008 -0.021,0.014 -0.036,0.018 -0.015,0.004 -0.033,0.006 -0.055,0.006 -0.03,0 -0.054,-0.004 -0.071,-0.013 -0.017,-0.008 -0.03,-0.022 -0.037,-0.042 -0.008,-0.019 -0.011,-0.046 -0.011,-0.08 0,-0.034 0.004,-0.061 0.011,-0.081 0.007,-0.019 0.02,-0.033 0.037,-0.042 0.017,-0.008 0.041,-0.013 0.071,-0.013 0.023,0 0.042,0.003 0.059,0.007 0.017,0.005 0.03,0.014 0.04,0.026 0.01,0.013 0.015,0.03 0.015,0.052l0 0.009 -0.061 0 0 -0.003c0,-0.012 -0.002,-0.022 -0.005,-0.028 -0.003,-0.006 -0.009,-0.011 -0.016,-0.013 -0.008,-0.002 -0.018,-0.003 -0.033,-0.003 -0.015,0 -0.026,0.003 -0.034,0.008 -0.008,0.005 -0.014,0.014 -0.017,0.026 -0.003,0.012 -0.005,0.03 -0.005,0.053 0,0.022 0.002,0.04 0.005,0.052 0.003,0.012 0.009,0.021 0.017,0.026 0.008,0.005 0.019,0.008 0.034,0.008 0.016,0 0.028,-0.002 0.036,-0.005 0.008,-0.003 0.013,-0.009 0.016,-0.016 0.003,-0.008 0.004,-0.019 0.004,-0.033z"/>
  <polygon id="7" class="fil0" points="2.951,2.763 3.013,2.763 3.013,2.551 3.097,2.551 3.097,2.503 2.867,2.503 2.867,2.551 2.951,2.551 "/>
  <path id="8" class="fil0" d="M3.201 2.548l0 0.062 0.059 0c0.016,0 0.027,-0.002 0.033,-0.007 0.007,-0.005 0.01,-0.012 0.01,-0.023 0,-0.011 -0.003,-0.019 -0.009,-0.024 -0.006,-0.005 -0.015,-0.008 -0.029,-0.008l-0.065 0zm0 0.103l0 0.067 0.068 0c0.014,0 0.025,-0.003 0.031,-0.008 0.006,-0.005 0.009,-0.014 0.009,-0.025 0,-0.022 -0.012,-0.033 -0.037,-0.033l-0.071 0zm-0.061 0.112l0 -0.261 0.144 0c0.029,0 0.05,0.006 0.063,0.017 0.013,0.011 0.019,0.029 0.019,0.054 0,0.014 -0.004,0.025 -0.013,0.035 -0.008,0.01 -0.02,0.016 -0.035,0.02l0 0.001c0.016,0.003 0.029,0.01 0.039,0.02 0.01,0.01 0.014,0.024 0.014,0.042 0,0.017 -0.003,0.031 -0.007,0.041 -0.005,0.01 -0.013,0.018 -0.025,0.023 -0.012,0.005 -0.028,0.008 -0.048,0.008l-0.151 0z"/>
  <path id="9" class="fil0" d="M3.59 2.681l0.062 0 0 0.01c0,0.021 -0.005,0.037 -0.014,0.049 -0.01,0.011 -0.023,0.019 -0.04,0.023 -0.017,0.004 -0.039,0.006 -0.066,0.006 -0.03,0 -0.054,-0.004 -0.071,-0.013 -0.017,-0.008 -0.029,-0.022 -0.037,-0.042 -0.007,-0.019 -0.011,-0.046 -0.011,-0.08 0,-0.034 0.004,-0.06 0.011,-0.08 0.008,-0.02 0.02,-0.034 0.037,-0.043 0.017,-0.009 0.041,-0.013 0.071,-0.013 0.03,0 0.053,0.004 0.071,0.013 0.018,0.009 0.03,0.023 0.038,0.042 0.008,0.019 0.012,0.044 0.012,0.074l0 0.018 -0.177 0c0,0.021 0.002,0.037 0.005,0.048 0.003,0.011 0.009,0.018 0.017,0.022 0.008,0.004 0.02,0.006 0.035,0.006 0.014,0 0.025,-0.001 0.034,-0.003 0.008,-0.002 0.014,-0.006 0.018,-0.011 0.004,-0.005 0.006,-0.013 0.006,-0.023l0 -0.005zm0.001 -0.075c0,-0.016 -0.002,-0.028 -0.006,-0.037 -0.004,-0.009 -0.01,-0.015 -0.018,-0.019 -0.009,-0.004 -0.02,-0.006 -0.035,-0.006 -0.015,0 -0.026,0.002 -0.034,0.006 -0.008,0.004 -0.014,0.01 -0.018,0.019 -0.004,0.009 -0.005,0.021 -0.005,0.037l0.116 0z"/>
  <polygon id="10" class="fil0" points="3.768,2.65 3.878,2.65 3.878,2.763 3.94,2.763 3.94,2.503 3.878,2.503 3.878,2.602 3.768,2.602 3.768,2.503 3.706,2.503 3.706,2.763 3.768,2.763 "/>
  <polygon id="11" class="fil0" points="4.07,2.65 4.18,2.65 4.18,2.763 4.242,2.763 4.242,2.503 4.18,2.503 4.18,2.602 4.07,2.602 4.07,2.503 4.007,2.503 4.007,2.763 4.07,2.763 "/>
  <path id="12" class="fil0" d="M4.308 2.764l0 -0.261 0.062 0 0 0.1 0.088 0c0.05,0 0.075,0.027 0.075,0.081 0,0.027 -0.006,0.047 -0.019,0.061 -0.013,0.013 -0.031,0.02 -0.055,0.02l-0.15 0zm0.062 -0.116l0 0.07 0.063 0c0.013,0 0.023,-0.002 0.029,-0.007 0.006,-0.005 0.009,-0.014 0.009,-0.027 0,-0.009 -0.001,-0.017 -0.004,-0.022 -0.003,-0.005 -0.007,-0.009 -0.012,-0.011 -0.005,-0.002 -0.013,-0.003 -0.022,-0.003l-0.062 0zm0.265 -0.145l0 0.261 -0.062 0 0 -0.261 0.062 0z"/>
  <path id="13" class="fil0" d="M4.701 2.502l0 0.261 0.076 0 0.085 -0.163c0.007,-0.012 0.016,-0.031 0.028,-0.058 -0.003,0.007 -0.005,0.019 -0.008,0.036 -0.003,0.017 -0.004,0.031 -0.004,0.041l0 0.144 0.059 0 0 -0.261 -0.076 0 -0.085 0.165c-0.004,0.008 -0.014,0.027 -0.028,0.058 0.003,-0.007 0.006,-0.018 0.008,-0.032 0.003,-0.014 0.004,-0.027 0.004,-0.038l0 -0.152 -0.059 0zm0.116 -0.018c-0.02,0 -0.036,-0.004 -0.047,-0.012 -0.011,-0.008 -0.017,-0.022 -0.017,-0.042l0.034 0c0,0.009 0.002,0.015 0.006,0.018 0.004,0.003 0.012,0.005 0.023,0.005 0.012,0 0.02,-0.002 0.024,-0.005 0.004,-0.003 0.006,-0.009 0.006,-0.018l0.034 0c0,0.02 -0.006,0.034 -0.017,0.042 -0.011,0.008 -0.027,0.012 -0.048,0.012z"/>
  <path id="14" class="fil0" d="M5.197 2.626c0,0.026 0.001,0.045 0.004,0.057 0.003,0.012 0.008,0.021 0.016,0.027 0.008,0.005 0.021,0.008 0.039,0.008 0.018,0 0.031,-0.003 0.039,-0.01 0.008,-0.007 0.013,-0.016 0.016,-0.028 0.002,-0.012 0.003,-0.03 0.003,-0.053 0,-0.024 -0.002,-0.041 -0.005,-0.052 -0.003,-0.011 -0.009,-0.019 -0.016,-0.022 -0.008,-0.004 -0.02,-0.006 -0.036,-0.006 -0.016,0 -0.029,0.002 -0.037,0.006 -0.009,0.004 -0.015,0.012 -0.018,0.023 -0.004,0.011 -0.005,0.028 -0.005,0.05zm0 0.101l0 0.146 -0.062 0 0 -0.371 0.06 0 -0.003 0.037 0.002 0c0.01,-0.015 0.021,-0.026 0.034,-0.032 0.012,-0.006 0.028,-0.009 0.047,-0.009 0.028,0 0.05,0.005 0.065,0.015 0.015,0.01 0.025,0.025 0.03,0.044 0.005,0.019 0.008,0.043 0.008,0.073 0,0.022 -0.001,0.04 -0.003,0.056 -0.002,0.016 -0.006,0.029 -0.013,0.042 -0.007,0.012 -0.017,0.022 -0.03,0.029 -0.014,0.007 -0.031,0.01 -0.054,0.01 -0.021,0 -0.037,-0.003 -0.05,-0.008 -0.013,-0.005 -0.023,-0.016 -0.032,-0.032z"/>
  <path id="15" class="fil0" d="M5.656 2.503l-0.07 0.277c-0.004,0.016 -0.008,0.03 -0.013,0.042 -0.004,0.012 -0.01,0.022 -0.017,0.031 -0.007,0.009 -0.016,0.016 -0.028,0.02 -0.012,0.005 -0.026,0.007 -0.042,0.007 -0.012,0 -0.02,-0.001 -0.026,-0.002l0 -0.045c0.005,0.001 0.01,0.002 0.014,0.002 0.016,-0 0.027,-0.006 0.033,-0.017 0.007,-0.011 0.013,-0.029 0.019,-0.054l-0.033 0 -0.086 -0.261 0.066 0 0.065 0.221 0.051 -0.221 0.065 0z"/>
  <polygon id="16" class="fil0" points="5.755,2.503 5.755,2.604 5.77,2.604 5.843,2.503 5.914,2.503 5.821,2.625 5.932,2.763 5.857,2.763 5.77,2.646 5.755,2.646 5.755,2.763 5.693,2.763 5.693,2.503 "/>
  <path id="17" class="fil0" d="M5.96 2.633c0,-0.034 0.004,-0.061 0.011,-0.08 0.007,-0.019 0.02,-0.033 0.037,-0.041 0.018,-0.008 0.042,-0.013 0.074,-0.013 0.032,0 0.057,0.004 0.075,0.013 0.018,0.008 0.03,0.022 0.038,0.041 0.007,0.019 0.011,0.046 0.011,0.08 0,0.025 -0.002,0.047 -0.006,0.064 -0.004,0.017 -0.011,0.031 -0.02,0.041 -0.009,0.01 -0.022,0.018 -0.038,0.023 -0.016,0.005 -0.036,0.007 -0.06,0.007 -0.024,0 -0.044,-0.002 -0.059,-0.007 -0.016,-0.005 -0.028,-0.013 -0.038,-0.023 -0.009,-0.011 -0.016,-0.024 -0.02,-0.041 -0.004,-0.017 -0.006,-0.038 -0.006,-0.064zm0.064 0c0,0.024 0.002,0.042 0.005,0.055 0.004,0.012 0.01,0.021 0.018,0.025 0.008,0.004 0.02,0.007 0.036,0.007 0.016,0 0.028,-0.002 0.036,-0.007 0.008,-0.004 0.014,-0.013 0.018,-0.025 0.004,-0.012 0.006,-0.031 0.006,-0.055 0,-0.018 -0.001,-0.033 -0.003,-0.044 -0.002,-0.011 -0.005,-0.019 -0.01,-0.026 -0.004,-0.006 -0.01,-0.01 -0.018,-0.013 -0.007,-0.002 -0.017,-0.004 -0.029,-0.004 -0.016,0 -0.028,0.002 -0.036,0.007 -0.008,0.004 -0.014,0.013 -0.018,0.025 -0.004,0.012 -0.005,0.03 -0.005,0.054z"/>
  <path id="18" class="fil0" d="M6.321 2.548l0 0.062 0.059 0c0.016,0 0.027,-0.002 0.033,-0.007 0.007,-0.005 0.01,-0.012 0.01,-0.023 0,-0.011 -0.003,-0.019 -0.009,-0.024 -0.006,-0.005 -0.015,-0.008 -0.029,-0.008l-0.065 0zm0 0.103l0 0.067 0.068 0c0.014,0 0.025,-0.003 0.031,-0.008 0.006,-0.005 0.009,-0.014 0.009,-0.025 0,-0.022 -0.012,-0.033 -0.037,-0.033l-0.071 0zm-0.061 0.112l0 -0.261 0.144 0c0.029,0 0.05,0.006 0.063,0.017 0.013,0.011 0.019,0.029 0.019,0.054 0,0.014 -0.004,0.025 -0.013,0.035 -0.008,0.01 -0.02,0.016 -0.035,0.02l0 0.001c0.016,0.003 0.029,0.01 0.039,0.02 0.01,0.01 0.014,0.024 0.014,0.042 0,0.017 -0.003,0.031 -0.007,0.041 -0.005,0.01 -0.013,0.018 -0.025,0.023 -0.012,0.005 -0.028,0.008 -0.048,0.008l-0.151 0z"/>
  <path id="19" class="fil0" d="M6.532 2.633c0,-0.034 0.004,-0.061 0.011,-0.08 0.007,-0.019 0.02,-0.033 0.037,-0.041 0.018,-0.008 0.042,-0.013 0.074,-0.013 0.032,0 0.057,0.004 0.075,0.013 0.018,0.008 0.03,0.022 0.038,0.041 0.007,0.019 0.011,0.046 0.011,0.08 0,0.025 -0.002,0.047 -0.006,0.064 -0.004,0.017 -0.011,0.031 -0.02,0.041 -0.009,0.01 -0.022,0.018 -0.038,0.023 -0.016,0.005 -0.036,0.007 -0.06,0.007 -0.024,0 -0.044,-0.002 -0.059,-0.007 -0.016,-0.005 -0.028,-0.013 -0.038,-0.023 -0.009,-0.011 -0.016,-0.024 -0.02,-0.041 -0.004,-0.017 -0.006,-0.038 -0.006,-0.064zm0.064 0c0,0.024 0.002,0.042 0.005,0.055 0.004,0.012 0.01,0.021 0.018,0.025 0.008,0.004 0.02,0.007 0.036,0.007 0.016,0 0.028,-0.002 0.036,-0.007 0.008,-0.004 0.014,-0.013 0.018,-0.025 0.004,-0.012 0.006,-0.031 0.006,-0.055 0,-0.018 -0.001,-0.033 -0.003,-0.044 -0.002,-0.011 -0.005,-0.019 -0.01,-0.026 -0.004,-0.006 -0.01,-0.01 -0.018,-0.013 -0.007,-0.002 -0.017,-0.004 -0.029,-0.004 -0.016,0 -0.028,0.002 -0.036,0.007 -0.008,0.004 -0.014,0.013 -0.018,0.025 -0.004,0.012 -0.005,0.03 -0.005,0.054z"/>
  <path id="20" class="fil0" d="M6.835 2.717c0.008,-0.01 0.014,-0.02 0.018,-0.03 0.004,-0.01 0.008,-0.021 0.01,-0.035 0.002,-0.014 0.003,-0.031 0.003,-0.051l0 -0.099 0.203 0 0 0.215 0.033 0 0 0.117 -0.057 0 0 -0.071 -0.182 0 0 0.071 -0.057 0 0 -0.117 0.028 0zm0.173 0l0 -0.169 -0.082 0 0 0.057c0,0.051 -0.01,0.088 -0.029,0.112l0.111 0z"/>
  <path id="21" class="fil0" d="M7.143 2.503l0 0.261 0.076 0 0.085 -0.163c0.004,-0.008 0.014,-0.027 0.028,-0.058 -0.003,0.007 -0.005,0.019 -0.008,0.036 -0.003,0.017 -0.004,0.031 -0.004,0.041l0 0.144 0.059 0 0 -0.261 -0.076 0 -0.085 0.164c-0.006,0.01 -0.015,0.03 -0.028,0.059 0.003,-0.007 0.005,-0.018 0.008,-0.032 0.003,-0.014 0.004,-0.027 0.004,-0.038l0 -0.152 -0.059 0z"/>
  <polygon id="22" class="fil0" points="7.507,2.763 7.57,2.763 7.57,2.551 7.653,2.551 7.653,2.503 7.424,2.503 7.424,2.551 7.507,2.551 "/>
  <path id="23" class="fil0" d="M7.863 2.681l0.062 0 0 0.01c0,0.021 -0.005,0.037 -0.014,0.049 -0.01,0.011 -0.023,0.019 -0.04,0.023 -0.017,0.004 -0.039,0.006 -0.066,0.006 -0.03,0 -0.054,-0.004 -0.071,-0.013 -0.017,-0.008 -0.029,-0.022 -0.037,-0.042 -0.007,-0.019 -0.011,-0.046 -0.011,-0.08 0,-0.034 0.004,-0.06 0.011,-0.08 0.008,-0.02 0.02,-0.034 0.037,-0.043 0.017,-0.009 0.041,-0.013 0.071,-0.013 0.03,0 0.053,0.004 0.071,0.013 0.018,0.009 0.03,0.023 0.038,0.042 0.008,0.019 0.012,0.044 0.012,0.074l0 0.018 -0.177 0c0,0.021 0.002,0.037 0.005,0.048 0.003,0.011 0.009,0.018 0.017,0.022 0.008,0.004 0.02,0.006 0.035,0.006 0.014,0 0.025,-0.001 0.034,-0.003 0.008,-0.002 0.014,-0.006 0.018,-0.011 0.004,-0.005 0.006,-0.013 0.006,-0.023l0 -0.005zm0.001 -0.075c0,-0.016 -0.002,-0.028 -0.006,-0.037 -0.004,-0.009 -0.01,-0.015 -0.018,-0.019 -0.009,-0.004 -0.02,-0.006 -0.035,-0.006 -0.015,0 -0.026,0.002 -0.034,0.006 -0.008,0.004 -0.014,0.01 -0.018,0.019 -0.004,0.009 -0.005,0.021 -0.005,0.037l0.116 0z"/>
  <path id="24" class="fil0" d="M8.002 2.503l0.217 0 0 0.261 -0.062 0 0 -0.212 -0.094 0 0 0.132c0,0.016 -0.003,0.031 -0.007,0.043 -0.005,0.012 -0.013,0.022 -0.023,0.029 -0.011,0.007 -0.023,0.011 -0.039,0.011 -0.017,0 -0.03,-0.001 -0.038,-0.003l0 -0.047c0.006,0.001 0.011,0.001 0.016,0.001 0.012,0 0.02,-0.003 0.024,-0.01 0.004,-0.006 0.007,-0.017 0.007,-0.031l0 -0.175z"/>
  <path id="25" class="fil0" d="M8.287 2.763l0 -0.261 0.062 0 0 0.1 0.087 0c0.024,0 0.042,0.007 0.056,0.02 0.013,0.013 0.02,0.033 0.02,0.061 0,0.027 -0.007,0.047 -0.02,0.061 -0.013,0.014 -0.032,0.02 -0.056,0.02l-0.149 0zm0.062 -0.116l0 0.071 0.062 0c0.013,0 0.023,-0.003 0.029,-0.008 0.006,-0.005 0.009,-0.015 0.009,-0.028 0,-0.014 -0.003,-0.023 -0.009,-0.028 -0.006,-0.005 -0.016,-0.007 -0.029,-0.007l-0.062 0z"/>
  <g id="_2008366438160">
   <rect class="fil1" x="0" y="1.652" width="0.441" height="0.441" rx="0.088" ry="0.084"/>
   <g>
    <path class="fil2" d="M0.084 1.728c-0.001,0.003 -0.008,0.008 -0.013,0.026 -0.002,0.006 -0.003,0.018 -0.003,0.024 0,0.023 0.003,0.033 0.009,0.054 0.004,0.013 0.017,0.041 0.024,0.053 0.003,0.004 0.005,0.008 0.007,0.012 0.011,0.017 0.034,0.049 0.048,0.064l0.011 0.012c0.012,0.013 0.026,0.026 0.04,0.037l0.017 0.012c0.002,0.001 0.004,0.002 0.006,0.004 0.021,0.012 0.048,0.024 0.072,0.023 0.008,-0 0.023,-0.002 0.029,-0.008 -0.003,-0.004 -0.006,-0.007 -0.009,-0.011l-0.007 -0.008c-0.001,-0.001 -0.001,-0.001 -0.002,-0.003 -0.011,-0.014 -0.024,-0.03 -0.035,-0.044l-0.017 -0.022c-0.004,0.002 -0.004,0.003 -0.01,0.003 -0.013,0 -0.042,-0.031 -0.051,-0.042 -0.01,-0.011 -0.016,-0.019 -0.025,-0.03l-0.016 -0.023c-0.005,-0.009 -0.014,-0.023 -0.012,-0.034 0.001,-0.004 0.003,-0.006 0.006,-0.009l-0.054 -0.068c-0.003,-0.004 -0.006,-0.007 -0.009,-0.011 -0.001,-0.002 -0.003,-0.004 -0.004,-0.006 -0.001,-0.002 -0.003,-0.005 -0.005,-0.005z"/>
    <path class="fil2" d="M0.114 1.742c0.014,0.018 0.032,0.038 0.045,0.055l0.009 0.011c0.002,-0.001 0.016,-0.013 0.019,-0.015 0.007,-0.005 0.014,-0.011 0.009,-0.02 -0.001,-0.003 -0.013,-0.016 -0.015,-0.02l-0.036 -0.045c-0.011,-0.012 -0.012,-0.018 -0.03,-0.004l-0.018 0.015 0.018 0.023z"/>
    <path class="fil2" d="M0.306 1.921c-0.005,0 -0.007,0.002 -0.01,0.004 -0.004,0.003 -0.02,0.016 -0.023,0.018l0.016 0.02c0,0 0,0 0,0l0.054 0.067 0.007 -0.006c0.002,-0.002 0.004,-0.004 0.007,-0.006 0.002,-0.002 0.005,-0.004 0.007,-0.006 0.003,-0.002 0.005,-0.003 0.006,-0.006 0.004,-0.007 -0.001,-0.014 -0.004,-0.018l-0.04 -0.05c-0.001,-0.001 -0.002,-0.002 -0.003,-0.004 -0.006,-0.007 -0.009,-0.015 -0.018,-0.015z"/>
   </g>
  </g>
  <g id="_2008366442864">
   <rect class="fil1" x="0" y="0.952" width="0.441" height="0.441" rx="0.088" ry="0.084"/>
   <g>
    <path class="fil2" d="M0.159 1.109l0.057 -0.034c0.001,-0.001 0.003,-0.002 0.004,-0.002 0,0 0,0 0,0l0.056 0.034c0.001,0.001 0.003,0.002 0.004,0.002 -0,0.002 -0.007,0.012 -0.007,0.013l0 0.058 -0.107 0 0 -0.058c0,-0.001 -0.001,-0.003 -0.002,-0.004l-0.006 -0.01zm0.061 0.239c0.003,0 0.005,-0.002 0.007,-0.004l0.017 -0.021c0.001,-0.001 0.002,-0.002 0.002,-0.003 0.001,-0.001 0.002,-0.002 0.002,-0.003l0.007 -0.009c0.001,-0.001 0.002,-0.002 0.002,-0.003 0.001,-0.001 0.002,-0.002 0.002,-0.003l0.014 -0.019c0.004,-0.007 0.009,-0.013 0.013,-0.02l0.008 -0.014c0.001,-0.002 0.003,-0.004 0.004,-0.007 0.003,-0.004 0.006,-0.01 0.008,-0.014l0.004 -0.007c0.001,-0.002 0.002,-0.005 0.004,-0.007 0.001,-0.001 0.001,-0.002 0.002,-0.004 0.006,-0.011 0.01,-0.023 0.014,-0.035 0.001,-0.003 0.002,-0.006 0.003,-0.008 0.004,-0.015 0.008,-0.029 0.008,-0.047 0,-0.038 -0.017,-0.068 -0.036,-0.087l-0.01 -0.009c-0.004,-0.003 -0.007,-0.005 -0.011,-0.008 -0.003,-0.002 -0.006,-0.004 -0.01,-0.006l-0.005 -0.003c-0.03,-0.014 -0.065,-0.014 -0.097,-0.002 -0.006,0.003 -0.012,0.006 -0.018,0.009 -0.005,0.003 -0.009,0.006 -0.014,0.01l-0.007 0.007c-0.001,0.001 -0.001,0.001 -0.002,0.002l-0.007 0.008c-0.001,0.002 -0.003,0.003 -0.004,0.005 -0.006,0.009 -0.011,0.017 -0.015,0.027 -0.002,0.005 -0.003,0.009 -0.005,0.014 -0,0.001 -0.001,0.002 -0.001,0.004 -0.003,0.014 -0.004,0.028 -0.002,0.042 0.002,0.021 0.009,0.042 0.018,0.061 0.005,0.011 0.01,0.022 0.016,0.033 0.005,0.009 0.01,0.017 0.015,0.025 0.002,0.004 0.005,0.008 0.007,0.012 0.004,0.006 0.013,0.019 0.017,0.025l0.008 0.011c0.007,0.01 0.015,0.02 0.022,0.029 0.004,0.005 0.008,0.009 0.011,0.014 0.002,0.002 0.004,0.005 0.007,0.005z"/>
    <path class="fil2" d="M0.182 1.113l0 0.052 0.023 0 0 -0.038 0.031 0 0 0.038 0.023 0 0 -0.052c0,-0.001 -0.001,-0.001 -0.002,-0.002 -0.001,-0.001 -0.001,-0.001 -0.002,-0.001l-0.034 -0.02c-0.001,-0 -0.004,0.002 -0.005,0.003l-0.032 0.019c-0.001,0 -0.001,0 -0.001,0.001z"/>
   </g>
  </g>
  <g id="_2008366444464">
   <rect class="fil1" x="0" y="2.352" width="0.441" height="0.441" rx="0.088" ry="0.084"/>
   <g>
    <path class="fil2" d="M0.191 2.411c0,0.021 0.003,0.028 -0.004,0.034 -0.007,-0.005 -0.004,-0.001 -0.004,-0.025 -0.018,0.004 -0.031,0.031 -0.035,0.05 -0.002,0.009 0,0.005 -0.004,0.011 -0.003,0.004 -0.006,0.003 -0.006,0.009 0,0.029 0.104,0.029 0.139,0.02 0.011,-0.003 0.037,-0.013 0.025,-0.025 -0.016,-0.017 -0.002,-0.009 -0.014,-0.035 -0.005,-0.011 -0.016,-0.027 -0.027,-0.03 0,0.012 0,0.016 -0.002,0.025l-0.006 0c-0.003,-0.012 -0.002,-0.02 -0.002,-0.034 -0.029,-0.007 -0.043,-0.004 -0.059,0z"/>
    <path class="fil2" d="M0.146 2.532c0,0.022 0.013,0.033 0.025,0.058 0.016,0.035 0.071,0.063 0.105,-0.011 0.008,-0.018 0.019,-0.015 0.019,-0.051 0,-0.023 -0.014,-0.004 -0.059,-0.004 -0.047,0 -0.037,0.002 -0.083,-0.008 -0.003,0.005 -0.006,0.009 -0.006,0.017z"/>
    <path class="fil2" d="M0.125 2.734c0.018,0 0.032,0.004 0.053,0.004l0.087 0c0.021,0 0.036,-0.004 0.055,-0.004l0 -0.038 -0.195 0 0 0.038z"/>
    <path class="fil2" d="M0.157 2.606l0 0.068 0.13 0 0 -0.068 -0.015 -0.005c-0.018,0.027 -0.05,0.04 -0.081,0.02 -0.011,-0.007 -0.014,-0.014 -0.023,-0.02 -0.004,0.002 -0.005,0.003 -0.011,0.004z"/>
    <path class="fil2" d="M0.068 2.711c0,0.01 0.01,0.012 0.021,0.015 0.041,0.013 -0.017,-0.046 0.047,-0.051l0 -0.057c-0.035,0.003 -0.068,0.05 -0.068,0.093z"/>
    <path class="fil2" d="M0.305 2.623l0 0.051c0.04,0 0.036,0.021 0.036,0.053 0.012,-0 0.021,-0.006 0.032,-0.008l0 -0.012c-0,-0.01 -0.001,-0.016 -0.004,-0.027 -0.011,-0.036 -0.023,-0.044 -0.051,-0.059 -0.004,-0.002 -0.013,-0.008 -0.013,0.002z"/>
   </g>
  </g>
 </g>
</svg>
