<?xml version="1.0" encoding="UTF-8"?>
<!DOCTYPE svg PUBLIC "-//W3C//DTD SVG 1.1//EN" "http://www.w3.org/Graphics/SVG/1.1/DTD/svg11.dtd">
<!-- Creator: CorelDRAW 2019 (64-Bit) -->
<svg xmlns="http://www.w3.org/2000/svg" xml:space="preserve" width="2.0864cm" height="0.81508cm" version="1.1" style="shape-rendering:geometricPrecision; text-rendering:geometricPrecision; image-rendering:optimizeQuality; fill-rule:evenodd; clip-rule:evenodd"
viewBox="0 0 6.343 2.478"
 xmlns:xlink="http://www.w3.org/1999/xlink"
 xmlns:xodm="http://www.corel.com/coreldraw/odm/2003">
 <defs>
  <style type="text/css">
   <![CDATA[
    .fil1 {fill:#1B5A5C}
    .fil2 {fill:#29878C}
    .fil0 {fill:white;fill-rule:nonzero}
   ]]>
  </style>
 </defs>
 <g id="Слой_x0020_1">
  <metadata id="CorelCorpID_0Corel-Layer"/>
  <polygon class="fil0" points="0.679,0.34 0.867,0.34 0.867,0.004 0.944,0.004 0.944,0.34 0.98,0.34 0.98,0.499 0.908,0.499 0.908,0.406 0.602,0.406 0.602,0.004 0.679,0.004 "/>
  <path id="1" class="fil0" d="M1.274 0.262l0.076 0 0 0.024c0,0.031 -0.005,0.056 -0.016,0.074 -0.011,0.018 -0.028,0.031 -0.052,0.039 -0.024,0.008 -0.057,0.012 -0.098,0.012 -0.034,0 -0.062,-0.003 -0.083,-0.01 -0.021,-0.006 -0.038,-0.017 -0.051,-0.033 -0.013,-0.016 -0.022,-0.037 -0.027,-0.064 -0.005,-0.027 -0.008,-0.062 -0.008,-0.106 0,-0.048 0.005,-0.086 0.015,-0.115 0.01,-0.028 0.027,-0.049 0.051,-0.063 0.024,-0.014 0.058,-0.02 0.102,-0.02 0.043,0 0.077,0.005 0.1,0.015 0.023,0.01 0.04,0.025 0.049,0.045 0.009,0.02 0.015,0.046 0.018,0.079l-0.075 0c-0.001,-0.021 -0.005,-0.037 -0.01,-0.047 -0.005,-0.01 -0.014,-0.017 -0.027,-0.02 -0.012,-0.003 -0.031,-0.005 -0.055,-0.005 -0.025,0 -0.044,0.003 -0.056,0.01 -0.012,0.007 -0.02,0.019 -0.025,0.038 -0.005,0.019 -0.007,0.049 -0.007,0.091 0,0.029 0.001,0.053 0.004,0.071 0.003,0.018 0.007,0.032 0.014,0.042 0.007,0.01 0.015,0.017 0.027,0.021 0.011,0.004 0.026,0.006 0.045,0.006 0.024,0 0.043,-0.002 0.056,-0.005 0.013,-0.003 0.022,-0.009 0.028,-0.017 0.005,-0.008 0.008,-0.02 0.008,-0.035l0 -0.025z"/>
  <path id="2" class="fil0" d="M1.404 0.34c0.008,-0.008 0.015,-0.018 0.02,-0.028 0.005,-0.01 0.01,-0.022 0.013,-0.035 0.003,-0.013 0.005,-0.028 0.007,-0.045 0.001,-0.017 0.002,-0.037 0.002,-0.06l0 -0.169 0.291 0 0 0.336 0.036 0 0 0.159 -0.072 0 0 -0.093 -0.255 0 0 0.093 -0.072 0 0 -0.159 0.03 0zm0.117 -0.27l0 0.103c0,0.029 -0.001,0.053 -0.003,0.074 -0.002,0.02 -0.006,0.038 -0.011,0.054 -0.005,0.015 -0.012,0.029 -0.021,0.039l0.174 0 0 -0.27 -0.138 0z"/>
  <polygon id="3" class="fil0" points="1.901,0.004 1.901,0.168 1.937,0.168 2.071,0.004 2.165,0.004 2.002,0.2 2.182,0.406 2.085,0.406 1.937,0.234 1.901,0.234 1.901,0.406 1.823,0.406 1.823,0.004 "/>
  <path id="4" class="fil0" d="M2.431 0.115l0.045 0.025 -0.056 0.116 0.06 0.113 -0.042 0.028 -0.077 -0.141 0.07 -0.141zm0.11 -0.002l0.045 0.026 -0.057 0.115 0.061 0.113 -0.043 0.027 -0.077 -0.14 0.071 -0.141z"/>
  <polygon id="5" class="fil0" points="2.993,0.004 2.993,0.406 2.916,0.406 2.916,0.07 2.729,0.07 2.729,0.406 2.652,0.406 2.652,0.004 "/>
  <path id="6" class="fil0" d="M3.243 0.406l0.005 -0.039 -0.002 0c-0.006,0.013 -0.013,0.022 -0.021,0.028 -0.008,0.006 -0.018,0.01 -0.029,0.012 -0.011,0.002 -0.025,0.003 -0.043,0.003 -0.024,0 -0.043,-0.003 -0.058,-0.009 -0.015,-0.006 -0.026,-0.015 -0.033,-0.028 -0.007,-0.013 -0.011,-0.03 -0.011,-0.052 0,-0.018 0.002,-0.033 0.006,-0.044 0.004,-0.012 0.01,-0.021 0.018,-0.027 0.008,-0.007 0.019,-0.011 0.033,-0.014 0.014,-0.003 0.031,-0.004 0.052,-0.004 0.025,0 0.042,0.003 0.053,0.008 0.011,0.005 0.019,0.015 0.026,0.028l0.003 0 0 -0.048c0,-0.015 -0.002,-0.027 -0.006,-0.035 -0.004,-0.008 -0.01,-0.014 -0.019,-0.017 -0.009,-0.003 -0.021,-0.005 -0.037,-0.005 -0.02,0 -0.034,0.003 -0.042,0.009 -0.008,0.006 -0.011,0.017 -0.011,0.033l-0.068 0c0.001,-0.017 0.004,-0.031 0.01,-0.043 0.006,-0.011 0.014,-0.02 0.024,-0.026 0.01,-0.006 0.022,-0.01 0.036,-0.013 0.013,-0.002 0.029,-0.003 0.048,-0.003 0.03,0 0.054,0.002 0.072,0.007 0.018,0.004 0.033,0.014 0.043,0.028 0.011,0.015 0.016,0.036 0.016,0.065l0 0.185 -0.067 0zm0 -0.084c0,-0.016 -0.005,-0.028 -0.014,-0.034 -0.009,-0.006 -0.027,-0.009 -0.052,-0.009 -0.015,0 -0.027,0.001 -0.035,0.004 -0.008,0.003 -0.014,0.007 -0.018,0.013 -0.003,0.006 -0.005,0.014 -0.005,0.025 0,0.016 0.004,0.026 0.013,0.033 0.008,0.006 0.023,0.01 0.044,0.01 0.024,0 0.041,-0.003 0.052,-0.009 0.01,-0.006 0.015,-0.017 0.015,-0.034z"/>
  <path id="7" class="fil0" d="M3.445 0.258c0,0.028 0.001,0.049 0.004,0.062 0.003,0.013 0.009,0.023 0.018,0.029 0.009,0.006 0.023,0.009 0.042,0.009 0.019,0 0.033,-0.003 0.042,-0.011 0.009,-0.007 0.014,-0.017 0.017,-0.03 0.002,-0.013 0.004,-0.032 0.004,-0.057 0,-0.026 -0.002,-0.045 -0.005,-0.056 -0.003,-0.012 -0.009,-0.02 -0.018,-0.024 -0.008,-0.004 -0.021,-0.006 -0.038,-0.006 -0.018,0 -0.031,0.002 -0.04,0.007 -0.009,0.005 -0.016,0.013 -0.019,0.025 -0.004,0.012 -0.006,0.03 -0.006,0.053zm0 0.109l0 0.158 -0.067 0 0 -0.4 0.064 0 -0.003 0.04 0.002 0c0.011,-0.017 0.023,-0.028 0.036,-0.034 0.013,-0.006 0.03,-0.01 0.051,-0.01 0.03,0 0.054,0.006 0.07,0.017 0.016,0.011 0.027,0.027 0.033,0.047 0.006,0.02 0.009,0.047 0.009,0.079 0,0.023 -0.001,0.043 -0.003,0.06 -0.002,0.017 -0.007,0.032 -0.014,0.045 -0.007,0.013 -0.018,0.023 -0.032,0.031 -0.015,0.007 -0.034,0.011 -0.058,0.011 -0.022,0 -0.04,-0.003 -0.053,-0.009 -0.013,-0.006 -0.025,-0.017 -0.035,-0.034z"/>
  <path id="8" class="fil0" d="M3.808 0.285l-0.027 0 0 -0.045 0.027 0c0.023,0 0.039,-0.003 0.047,-0.01 0.008,-0.006 0.012,-0.016 0.012,-0.028 0,-0.008 -0.002,-0.015 -0.005,-0.02 -0.003,-0.005 -0.009,-0.008 -0.017,-0.01 -0.008,-0.002 -0.019,-0.003 -0.033,-0.003 -0.014,0 -0.024,0.001 -0.032,0.002 -0.007,0.001 -0.013,0.005 -0.017,0.01 -0.004,0.005 -0.006,0.013 -0.007,0.024l-0.066 0c0.002,-0.022 0.007,-0.038 0.016,-0.051 0.008,-0.012 0.021,-0.021 0.038,-0.026 0.017,-0.005 0.04,-0.008 0.069,-0.008 0.025,0 0.047,0.002 0.064,0.007 0.018,0.005 0.031,0.013 0.041,0.024 0.01,0.011 0.014,0.026 0.014,0.044 0,0.017 -0.004,0.031 -0.012,0.041 -0.008,0.01 -0.021,0.017 -0.039,0.021 0.019,0.005 0.033,0.013 0.041,0.025 0.009,0.012 0.013,0.026 0.013,0.043 0,0.017 -0.003,0.031 -0.008,0.043 -0.005,0.011 -0.013,0.02 -0.024,0.026 -0.01,0.006 -0.023,0.011 -0.038,0.013 -0.015,0.003 -0.033,0.004 -0.055,0.004 -0.032,0 -0.057,-0.003 -0.076,-0.008 -0.019,-0.005 -0.032,-0.014 -0.04,-0.025 -0.008,-0.011 -0.012,-0.026 -0.012,-0.045l0 -0.016 0.066 0c0,0.013 0.002,0.022 0.005,0.028 0.003,0.006 0.009,0.011 0.018,0.013 0.009,0.002 0.021,0.004 0.039,0.004 0.023,0 0.039,-0.003 0.047,-0.007 0.009,-0.005 0.013,-0.015 0.013,-0.031 0,-0.015 -0.004,-0.025 -0.013,-0.031 -0.009,-0.006 -0.026,-0.008 -0.05,-0.008z"/>
  <path id="9" class="fil0" d="M3.991 0.125l0 0.281 0.082 0 0.092 -0.175c0.004,-0.008 0.015,-0.029 0.031,-0.063 -0.003,0.007 -0.006,0.02 -0.009,0.039 -0.003,0.019 -0.005,0.033 -0.005,0.044l0 0.155 0.064 0 0 -0.281 -0.082 0 -0.092 0.176c-0.006,0.011 -0.016,0.032 -0.031,0.063 0.003,-0.008 0.006,-0.019 0.009,-0.035 0.003,-0.015 0.004,-0.029 0.004,-0.041l0 -0.164 -0.064 0z"/>
  <polygon id="10" class="fil0" points="4.381,0.284 4.5,0.284 4.5,0.406 4.567,0.406 4.567,0.125 4.5,0.125 4.5,0.232 4.381,0.232 4.381,0.125 4.314,0.125 4.314,0.406 4.381,0.406 "/>
  <path id="11" class="fil0" d="M4.816 0.3l0.066 0c0,0.02 -0.002,0.038 -0.007,0.052 -0.004,0.014 -0.011,0.025 -0.021,0.034 -0.01,0.009 -0.023,0.015 -0.039,0.019 -0.016,0.004 -0.036,0.006 -0.06,0.006 -0.033,0 -0.058,-0.005 -0.077,-0.014 -0.019,-0.009 -0.032,-0.024 -0.04,-0.045 -0.008,-0.021 -0.012,-0.05 -0.012,-0.086 0,-0.037 0.004,-0.066 0.012,-0.087 0.008,-0.021 0.021,-0.036 0.04,-0.045 0.019,-0.009 0.044,-0.013 0.077,-0.013 0.024,0 0.046,0.003 0.064,0.008 0.018,0.005 0.033,0.015 0.044,0.028 0.011,0.014 0.016,0.033 0.016,0.056l0 0.01 -0.065 0 0 -0.004c0,-0.013 -0.002,-0.023 -0.006,-0.03 -0.004,-0.007 -0.01,-0.011 -0.018,-0.014 -0.008,-0.002 -0.02,-0.004 -0.035,-0.004 -0.016,0 -0.028,0.003 -0.037,0.008 -0.009,0.006 -0.015,0.015 -0.018,0.028 -0.004,0.013 -0.005,0.032 -0.005,0.057 0,0.024 0.002,0.043 0.005,0.056 0.004,0.013 0.01,0.023 0.018,0.028 0.009,0.006 0.021,0.008 0.037,0.008 0.018,0 0.031,-0.002 0.039,-0.006 0.009,-0.004 0.014,-0.009 0.017,-0.018 0.003,-0.008 0.004,-0.02 0.004,-0.036z"/>
  <polygon id="12" class="fil0" points="5.003,0.125 5.003,0.234 5.019,0.234 5.098,0.125 5.175,0.125 5.074,0.257 5.194,0.406 5.113,0.406 5.019,0.28 5.003,0.28 5.003,0.406 4.936,0.406 4.936,0.125 "/>
  <path id="13" class="fil0" d="M5.236 0.125l0 0.281 0.082 0 0.092 -0.175c0.004,-0.008 0.015,-0.029 0.031,-0.063 -0.003,0.007 -0.006,0.02 -0.009,0.039 -0.003,0.019 -0.005,0.033 -0.005,0.044l0 0.155 0.064 0 0 -0.281 -0.082 0 -0.092 0.176c-0.006,0.011 -0.016,0.032 -0.031,0.063 0.003,-0.008 0.006,-0.019 0.009,-0.035 0.003,-0.015 0.004,-0.029 0.004,-0.041l0 -0.164 -0.064 0z"/>
  <path id="14" class="fil0" d="M5.559 0.124l0 0.282 0.082 0 0.092 -0.176c0.007,-0.013 0.017,-0.034 0.031,-0.062 -0.003,0.008 -0.006,0.02 -0.009,0.039 -0.003,0.018 -0.005,0.033 -0.005,0.044l0 0.155 0.064 0 0 -0.282 -0.082 0 -0.092 0.177c-0.005,0.009 -0.015,0.029 -0.031,0.062 0.003,-0.008 0.006,-0.019 0.009,-0.035 0.003,-0.015 0.004,-0.029 0.004,-0.041l0 -0.164 -0.064 0zm0.125 -0.02c-0.022,0 -0.038,-0.004 -0.05,-0.013 -0.012,-0.008 -0.018,-0.024 -0.018,-0.045l0.037 0c0,0.009 0.002,0.016 0.007,0.019 0.005,0.003 0.013,0.005 0.025,0.005 0.013,0 0.022,-0.002 0.026,-0.005 0.004,-0.003 0.006,-0.01 0.006,-0.019l0.036 0c0,0.022 -0.006,0.037 -0.018,0.045 -0.012,0.008 -0.029,0.013 -0.051,0.013z"/>
  <path id="15" class="fil0" d="M6.034 0.115l0.07 0.141 -0.077 0.141 -0.044 -0.028 0.061 -0.113 -0.057 -0.116 0.045 -0.025zm-0.11 -0.002l0.071 0.141 -0.076 0.14 -0.043 -0.027 0.061 -0.113 -0.057 -0.115 0.045 -0.026z"/>
  <path class="fil0" d="M0.76 1.039l0.053 0c0,0.016 -0.002,0.03 -0.005,0.041 -0.003,0.011 -0.009,0.02 -0.017,0.027 -0.008,0.007 -0.018,0.012 -0.031,0.015 -0.013,0.003 -0.029,0.005 -0.048,0.005 -0.026,0 -0.047,-0.004 -0.062,-0.011 -0.015,-0.007 -0.026,-0.019 -0.032,-0.036 -0.007,-0.017 -0.01,-0.04 -0.01,-0.069 0,-0.03 0.003,-0.053 0.01,-0.07 0.006,-0.017 0.017,-0.029 0.032,-0.036 0.015,-0.007 0.035,-0.011 0.062,-0.011 0.02,0 0.037,0.002 0.051,0.006 0.015,0.004 0.026,0.012 0.035,0.023 0.009,0.011 0.013,0.026 0.013,0.045l0 0.008 -0.052 0 0 -0.003c0,-0.011 -0.002,-0.019 -0.004,-0.024 -0.003,-0.005 -0.008,-0.009 -0.014,-0.011 -0.007,-0.002 -0.016,-0.003 -0.028,-0.003 -0.013,0 -0.023,0.002 -0.03,0.007 -0.007,0.004 -0.012,0.012 -0.015,0.023 -0.003,0.011 -0.004,0.026 -0.004,0.045 0,0.019 0.001,0.034 0.004,0.045 0.003,0.011 0.008,0.018 0.015,0.023 0.007,0.004 0.017,0.007 0.029,0.007 0.014,0 0.024,-0.001 0.031,-0.004 0.007,-0.003 0.011,-0.008 0.014,-0.014 0.002,-0.007 0.003,-0.016 0.003,-0.029z"/>
  <polygon id="1" class="fil0" points="0.906,1.066 0.906,1.124 0.853,1.124 0.853,1.066 "/>
  <polygon id="2" class="fil0" points="1.346,0.803 1.346,1.124 1.284,1.124 1.284,0.855 1.134,0.855 1.134,1.124 1.073,1.124 1.073,0.803 "/>
  <path id="3" class="fil0" d="M1.545 1.124l0.004 -0.031 -0.001 0c-0.005,0.01 -0.01,0.018 -0.017,0.023 -0.007,0.005 -0.014,0.008 -0.023,0.01 -0.009,0.001 -0.02,0.002 -0.034,0.002 -0.019,0 -0.035,-0.002 -0.047,-0.007 -0.012,-0.005 -0.021,-0.012 -0.027,-0.022 -0.006,-0.01 -0.009,-0.024 -0.009,-0.041 0,-0.014 0.002,-0.026 0.005,-0.035 0.003,-0.009 0.008,-0.017 0.015,-0.022 0.007,-0.005 0.016,-0.009 0.026,-0.011 0.011,-0.002 0.025,-0.003 0.042,-0.003 0.02,0 0.034,0.002 0.043,0.006 0.009,0.004 0.016,0.012 0.021,0.022l0.002 0 0 -0.038c0,-0.012 -0.001,-0.022 -0.004,-0.028 -0.003,-0.007 -0.008,-0.011 -0.015,-0.014 -0.007,-0.002 -0.017,-0.004 -0.03,-0.004 -0.016,0 -0.027,0.002 -0.033,0.007 -0.006,0.005 -0.009,0.013 -0.009,0.027l-0.054 0c0,-0.014 0.003,-0.025 0.008,-0.034 0.005,-0.009 0.011,-0.016 0.02,-0.021 0.008,-0.005 0.018,-0.008 0.029,-0.01 0.011,-0.002 0.024,-0.003 0.038,-0.003 0.024,0 0.043,0.002 0.057,0.005 0.015,0.003 0.026,0.011 0.035,0.023 0.008,0.012 0.013,0.029 0.013,0.052l0 0.148 -0.054 0zm0 -0.067c0,-0.013 -0.004,-0.022 -0.011,-0.027 -0.007,-0.005 -0.021,-0.007 -0.042,-0.007 -0.012,0 -0.021,0.001 -0.028,0.003 -0.007,0.002 -0.011,0.006 -0.014,0.01 -0.003,0.005 -0.004,0.012 -0.004,0.02 0,0.012 0.003,0.021 0.01,0.026 0.007,0.005 0.019,0.008 0.035,0.008 0.019,0 0.033,-0.002 0.041,-0.007 0.008,-0.005 0.012,-0.014 0.012,-0.027z"/>
  <path id="4" class="fil0" d="M1.708 1.006c0,0.022 0.001,0.039 0.003,0.05 0.002,0.011 0.007,0.018 0.014,0.023 0.007,0.005 0.019,0.007 0.034,0.007 0.015,0 0.026,-0.003 0.034,-0.008 0.007,-0.006 0.012,-0.014 0.013,-0.024 0.002,-0.01 0.003,-0.026 0.003,-0.046 0,-0.021 -0.001,-0.036 -0.004,-0.045 -0.003,-0.01 -0.007,-0.016 -0.014,-0.019 -0.007,-0.003 -0.017,-0.005 -0.031,-0.005 -0.014,0 -0.025,0.002 -0.032,0.005 -0.007,0.004 -0.013,0.01 -0.016,0.02 -0.003,0.01 -0.005,0.024 -0.005,0.043zm0 0.087l0 0.126 -0.054 0 0 -0.32 0.052 0 -0.002 0.032 0.002 0c0.009,-0.013 0.019,-0.022 0.029,-0.028 0.011,-0.005 0.024,-0.008 0.04,-0.008 0.024,0 0.043,0.004 0.056,0.013 0.013,0.009 0.022,0.021 0.026,0.038 0.005,0.016 0.007,0.037 0.007,0.063 0,0.019 -0.001,0.035 -0.003,0.048 -0.002,0.013 -0.005,0.025 -0.011,0.036 -0.006,0.011 -0.014,0.019 -0.026,0.025 -0.012,0.006 -0.027,0.009 -0.046,0.009 -0.018,0 -0.032,-0.002 -0.043,-0.007 -0.011,-0.005 -0.02,-0.014 -0.028,-0.027z"/>
  <path id="5" class="fil0" d="M1.998 1.027l-0.022 0 0 -0.036 0.022 0c0.018,0 0.031,-0.003 0.038,-0.008 0.007,-0.005 0.01,-0.013 0.01,-0.023 0,-0.007 -0.001,-0.012 -0.004,-0.016 -0.003,-0.004 -0.007,-0.007 -0.014,-0.008 -0.006,-0.002 -0.015,-0.003 -0.026,-0.003 -0.011,0 -0.019,0.001 -0.025,0.002 -0.006,0.001 -0.01,0.004 -0.014,0.008 -0.003,0.004 -0.005,0.011 -0.005,0.019l-0.053 0c0.002,-0.017 0.006,-0.031 0.012,-0.04 0.007,-0.01 0.017,-0.017 0.031,-0.021 0.014,-0.004 0.032,-0.006 0.056,-0.006 0.02,0 0.038,0.002 0.052,0.006 0.014,0.004 0.025,0.01 0.033,0.019 0.008,0.009 0.012,0.021 0.012,0.035 0,0.014 -0.003,0.025 -0.009,0.033 -0.006,0.008 -0.017,0.014 -0.031,0.017 0.015,0.004 0.026,0.01 0.033,0.02 0.007,0.009 0.011,0.021 0.011,0.034 0,0.014 -0.002,0.025 -0.007,0.034 -0.004,0.009 -0.011,0.016 -0.019,0.021 -0.008,0.005 -0.019,0.009 -0.031,0.011 -0.012,0.002 -0.027,0.003 -0.044,0.003 -0.025,0 -0.046,-0.002 -0.061,-0.006 -0.015,-0.004 -0.026,-0.011 -0.032,-0.02 -0.007,-0.009 -0.01,-0.021 -0.01,-0.036l0 -0.012 0.053 0c0,0.01 0.001,0.018 0.004,0.023 0.003,0.005 0.007,0.009 0.014,0.01 0.007,0.002 0.017,0.003 0.031,0.003 0.018,0 0.031,-0.002 0.038,-0.006 0.007,-0.004 0.011,-0.012 0.011,-0.025 0,-0.012 -0.004,-0.02 -0.011,-0.025 -0.007,-0.004 -0.02,-0.007 -0.04,-0.007z"/>
  <path id="6" class="fil0" d="M2.144 0.899l0 0.225 0.066 0 0.073 -0.14c0.004,-0.007 0.012,-0.023 0.025,-0.05 -0.002,0.006 -0.005,0.016 -0.007,0.031 -0.003,0.015 -0.004,0.027 -0.004,0.035l0 0.124 0.051 0 0 -0.225 -0.066 0 -0.073 0.141c-0.005,0.009 -0.013,0.026 -0.024,0.051 0.002,-0.006 0.005,-0.016 0.007,-0.028 0.002,-0.012 0.004,-0.023 0.004,-0.033l0 -0.131 -0.051 0z"/>
  <path id="7" class="fil0" d="M2.455 1.066l0 0.056c0,0.014 -0.001,0.025 -0.004,0.033 -0.003,0.008 -0.008,0.013 -0.015,0.017 -0.008,0.004 -0.019,0.005 -0.033,0.005 -0.003,0 -0.004,-0 -0.006,-0l0 -0.025c0.009,-0 0.016,-0.002 0.02,-0.005 0.004,-0.003 0.006,-0.009 0.006,-0.017l0 -0.007 -0.022 0 0 -0.057 0.054 0z"/>
  <path id="8" class="fil0" d="M2.816 0.899l-0.06 0.239c-0.003,0.014 -0.007,0.026 -0.011,0.036 -0.004,0.01 -0.009,0.019 -0.015,0.027 -0.006,0.008 -0.014,0.013 -0.024,0.018 -0.01,0.004 -0.022,0.006 -0.036,0.006 -0.01,0 -0.017,-0.001 -0.022,-0.002l0 -0.039c0.004,0.001 0.008,0.001 0.012,0.001 0.013,-0 0.023,-0.005 0.029,-0.015 0.006,-0.01 0.011,-0.025 0.016,-0.046l-0.028 0 -0.074 -0.225 0.057 0 0.056 0.191 0.044 -0.191 0.056 0z"/>
  <path id="9" class="fil0" d="M2.868 0.899l0.187 0 0 0.225 -0.054 0 0 -0.183 -0.081 0 0 0.114c0,0.014 -0.002,0.027 -0.006,0.037 -0.004,0.011 -0.011,0.019 -0.02,0.025 -0.009,0.006 -0.02,0.009 -0.034,0.009 -0.015,0 -0.026,-0.001 -0.033,-0.002l0 -0.04c0.005,0.001 0.01,0.001 0.014,0.001 0.01,0 0.017,-0.003 0.021,-0.008 0.004,-0.006 0.006,-0.015 0.006,-0.027l0 -0.151z"/>
  <polygon id="10" class="fil0" points="3.164,1.066 3.164,1.124 3.111,1.124 3.111,1.066 "/>
  <polygon id="11" class="fil0" points="3.604,0.803 3.604,1.124 3.542,1.124 3.542,0.855 3.392,0.855 3.392,1.124 3.331,1.124 3.331,0.803 "/>
  <path id="12" class="fil0" d="M3.713 1.006c0,0.022 0.001,0.039 0.003,0.05 0.002,0.011 0.007,0.018 0.014,0.023 0.007,0.005 0.019,0.007 0.034,0.007 0.015,0 0.026,-0.003 0.034,-0.008 0.007,-0.006 0.012,-0.014 0.013,-0.024 0.002,-0.01 0.003,-0.026 0.003,-0.046 0,-0.021 -0.001,-0.036 -0.004,-0.045 -0.003,-0.01 -0.007,-0.016 -0.014,-0.019 -0.007,-0.003 -0.017,-0.005 -0.031,-0.005 -0.014,0 -0.025,0.002 -0.032,0.005 -0.007,0.004 -0.013,0.01 -0.016,0.02 -0.003,0.01 -0.005,0.024 -0.005,0.043zm0 0.087l0 0.126 -0.054 0 0 -0.32 0.052 0 -0.002 0.032 0.002 0c0.009,-0.013 0.019,-0.022 0.029,-0.028 0.011,-0.005 0.024,-0.008 0.04,-0.008 0.024,0 0.043,0.004 0.056,0.013 0.013,0.009 0.022,0.021 0.026,0.038 0.005,0.016 0.007,0.037 0.007,0.063 0,0.019 -0.001,0.035 -0.003,0.048 -0.002,0.013 -0.005,0.025 -0.011,0.036 -0.006,0.011 -0.014,0.019 -0.026,0.025 -0.012,0.006 -0.027,0.009 -0.046,0.009 -0.018,0 -0.032,-0.002 -0.043,-0.007 -0.011,-0.005 -0.02,-0.014 -0.028,-0.027z"/>
  <path id="13" class="fil0" d="M4.109 0.899l-0.06 0.239c-0.003,0.014 -0.007,0.026 -0.011,0.036 -0.004,0.01 -0.009,0.019 -0.015,0.027 -0.006,0.008 -0.014,0.013 -0.024,0.018 -0.01,0.004 -0.022,0.006 -0.036,0.006 -0.01,0 -0.017,-0.001 -0.022,-0.002l0 -0.039c0.004,0.001 0.008,0.001 0.012,0.001 0.013,-0 0.023,-0.005 0.029,-0.015 0.006,-0.01 0.011,-0.025 0.016,-0.046l-0.028 0 -0.074 -0.225 0.057 0 0.056 0.191 0.044 -0.191 0.056 0z"/>
  <path id="14" class="fil0" d="M4.144 1.084c0.007,-0.009 0.012,-0.017 0.016,-0.026 0.004,-0.008 0.007,-0.018 0.009,-0.03 0.002,-0.012 0.003,-0.027 0.003,-0.044l0 -0.085 0.175 0 0 0.185 0.029 0 0 0.101 -0.049 0 0 -0.061 -0.157 0 0 0.061 -0.049 0 0 -0.101 0.024 0zm0.149 0l0 -0.145 -0.071 0 0 0.049c0,0.044 -0.008,0.076 -0.025,0.097l0.096 0z"/>
  <path id="15" class="fil0" d="M4.4 1.011c0,-0.03 0.003,-0.053 0.009,-0.069 0.006,-0.016 0.017,-0.028 0.032,-0.035 0.015,-0.007 0.037,-0.011 0.064,-0.011 0.028,0 0.049,0.004 0.064,0.011 0.015,0.007 0.026,0.019 0.033,0.036 0.006,0.017 0.01,0.04 0.01,0.069 0,0.022 -0.002,0.04 -0.005,0.055 -0.003,0.015 -0.009,0.027 -0.017,0.036 -0.008,0.009 -0.019,0.016 -0.033,0.02 -0.013,0.004 -0.031,0.006 -0.051,0.006 -0.02,0 -0.038,-0.002 -0.051,-0.006 -0.014,-0.004 -0.025,-0.011 -0.032,-0.02 -0.008,-0.009 -0.014,-0.021 -0.017,-0.035 -0.003,-0.015 -0.005,-0.033 -0.005,-0.055zm0.055 0c0,0.021 0.002,0.037 0.005,0.047 0.003,0.011 0.008,0.018 0.015,0.022 0.007,0.004 0.017,0.006 0.031,0.006 0.014,0 0.024,-0.002 0.031,-0.006 0.007,-0.004 0.012,-0.011 0.016,-0.022 0.003,-0.011 0.005,-0.026 0.005,-0.047 0,-0.016 -0.001,-0.028 -0.003,-0.038 -0.002,-0.009 -0.005,-0.017 -0.009,-0.022 -0.004,-0.005 -0.009,-0.009 -0.015,-0.011 -0.006,-0.002 -0.015,-0.003 -0.025,-0.003 -0.013,0 -0.024,0.002 -0.031,0.006 -0.007,0.004 -0.012,0.011 -0.015,0.021 -0.003,0.011 -0.005,0.026 -0.005,0.047z"/>
  <path id="16" class="fil0" d="M4.711 0.938l0 0.053 0.051 0c0.013,0 0.023,-0.002 0.029,-0.006 0.006,-0.004 0.009,-0.011 0.009,-0.02 0,-0.01 -0.002,-0.017 -0.007,-0.021 -0.005,-0.004 -0.013,-0.007 -0.025,-0.007l-0.056 0zm0 0.089l0 0.057 0.059 0c0.012,0 0.021,-0.002 0.027,-0.007 0.005,-0.005 0.008,-0.012 0.008,-0.022 0,-0.019 -0.011,-0.029 -0.032,-0.029l-0.061 0zm-0.053 0.097l0 -0.225 0.124 0c0.025,0 0.043,0.005 0.054,0.015 0.011,0.01 0.016,0.025 0.016,0.047 0,0.012 -0.004,0.022 -0.011,0.03 -0.007,0.008 -0.017,0.014 -0.03,0.017l0 0.001c0.014,0.003 0.025,0.009 0.033,0.017 0.008,0.009 0.012,0.021 0.012,0.036 0,0.015 -0.002,0.026 -0.006,0.035 -0.004,0.009 -0.011,0.016 -0.021,0.02 -0.01,0.004 -0.024,0.007 -0.042,0.007l-0.13 0z"/>
  <path id="17" class="fil0" d="M5.046 1.124l0.004 -0.031 -0.001 0c-0.005,0.01 -0.01,0.018 -0.017,0.023 -0.007,0.005 -0.014,0.008 -0.023,0.01 -0.009,0.001 -0.02,0.002 -0.034,0.002 -0.019,0 -0.035,-0.002 -0.047,-0.007 -0.012,-0.005 -0.021,-0.012 -0.027,-0.022 -0.006,-0.01 -0.009,-0.024 -0.009,-0.041 0,-0.014 0.002,-0.026 0.005,-0.035 0.003,-0.009 0.008,-0.017 0.015,-0.022 0.007,-0.005 0.016,-0.009 0.026,-0.011 0.011,-0.002 0.025,-0.003 0.042,-0.003 0.02,0 0.034,0.002 0.043,0.006 0.009,0.004 0.016,0.012 0.021,0.022l0.002 0 0 -0.038c0,-0.012 -0.001,-0.022 -0.004,-0.028 -0.003,-0.007 -0.008,-0.011 -0.015,-0.014 -0.007,-0.002 -0.017,-0.004 -0.03,-0.004 -0.016,0 -0.027,0.002 -0.033,0.007 -0.006,0.005 -0.009,0.013 -0.009,0.027l-0.054 0c0,-0.014 0.003,-0.025 0.008,-0.034 0.005,-0.009 0.011,-0.016 0.02,-0.021 0.008,-0.005 0.018,-0.008 0.029,-0.01 0.011,-0.002 0.024,-0.003 0.038,-0.003 0.024,0 0.043,0.002 0.057,0.005 0.015,0.003 0.026,0.011 0.035,0.023 0.008,0.012 0.013,0.029 0.013,0.052l0 0.148 -0.054 0zm0 -0.067c0,-0.013 -0.004,-0.022 -0.011,-0.027 -0.007,-0.005 -0.021,-0.007 -0.042,-0.007 -0.012,0 -0.021,0.001 -0.028,0.003 -0.007,0.002 -0.011,0.006 -0.014,0.01 -0.003,0.005 -0.004,0.012 -0.004,0.02 0,0.012 0.003,0.021 0.01,0.026 0.007,0.005 0.019,0.008 0.035,0.008 0.019,0 0.033,-0.002 0.041,-0.007 0.008,-0.005 0.012,-0.014 0.012,-0.027z"/>
  <path id="18" class="fil0" d="M5.34 0.899l0 0.225 -0.054 0 0 -0.086 -0.041 0 -0.051 0.086 -0.057 0 0.056 -0.093c-0.033,-0.009 -0.049,-0.03 -0.049,-0.064 0,-0.045 0.021,-0.068 0.064,-0.068l0.132 0zm-0.054 0.1l0 -0.061 -0.057 0c-0.011,0 -0.019,0.002 -0.024,0.007 -0.005,0.004 -0.007,0.012 -0.007,0.024 0,0.012 0.003,0.02 0.009,0.024 0.006,0.004 0.015,0.006 0.026,0.006l0.052 0z"/>
  <path id="19" class="fil0" d="M5.627 1.084c0.007,-0.009 0.012,-0.017 0.016,-0.026 0.004,-0.008 0.007,-0.018 0.009,-0.03 0.002,-0.012 0.003,-0.027 0.003,-0.044l0 -0.085 0.175 0 0 0.185 0.029 0 0 0.101 -0.049 0 0 -0.061 -0.157 0 0 0.061 -0.049 0 0 -0.101 0.024 0zm0.149 0l0 -0.145 -0.071 0 0 0.049c0,0.044 -0.008,0.076 -0.025,0.097l0.096 0z"/>
  <polygon id="20" class="fil0" points="5.943,1.066 5.943,1.124 5.889,1.124 5.889,1.066 "/>
  <polygon id="21" class="fil0" points="6.343,0.803 6.343,0.862 6.212,1.124 6.146,1.124 6.284,0.854 6.105,0.854 6.105,0.803 "/>
  <path class="fil0" d="M0.721 1.637c-0.02,0 -0.034,0.001 -0.043,0.003 -0.009,0.002 -0.015,0.007 -0.018,0.013 -0.003,0.006 -0.005,0.017 -0.005,0.031 0,0.013 0.002,0.024 0.005,0.031 0.004,0.007 0.01,0.012 0.019,0.015 0.009,0.003 0.023,0.005 0.042,0.005 0.018,0 0.032,-0.002 0.042,-0.005 0.01,-0.003 0.016,-0.008 0.02,-0.015 0.004,-0.007 0.005,-0.017 0.005,-0.03 0,-0.014 -0.002,-0.024 -0.005,-0.031 -0.003,-0.007 -0.01,-0.011 -0.019,-0.013 -0.009,-0.002 -0.023,-0.003 -0.043,-0.003zm0 -0.135c-0.018,0 -0.031,0.001 -0.039,0.004 -0.009,0.002 -0.015,0.007 -0.018,0.013 -0.003,0.006 -0.005,0.016 -0.005,0.028 0,0.01 0.001,0.018 0.003,0.023 0.002,0.006 0.005,0.01 0.009,0.013 0.004,0.003 0.01,0.005 0.018,0.006 0.008,0.001 0.018,0.002 0.032,0.002 0.014,0 0.024,-0 0.032,-0.002 0.008,-0.001 0.014,-0.003 0.018,-0.006 0.004,-0.003 0.007,-0.007 0.009,-0.013 0.002,-0.006 0.003,-0.013 0.003,-0.024 0,-0.013 -0.002,-0.022 -0.005,-0.029 -0.003,-0.006 -0.009,-0.011 -0.018,-0.013 -0.009,-0.002 -0.021,-0.004 -0.039,-0.004zm-0.069 0.111c-0.014,-0.004 -0.024,-0.01 -0.032,-0.016 -0.008,-0.007 -0.013,-0.014 -0.016,-0.024 -0.003,-0.009 -0.004,-0.02 -0.004,-0.033 0,-0.017 0.002,-0.03 0.007,-0.041 0.004,-0.011 0.011,-0.02 0.021,-0.026 0.009,-0.007 0.022,-0.011 0.037,-0.014 0.015,-0.003 0.034,-0.004 0.057,-0.004 0.03,0 0.054,0.003 0.071,0.008 0.017,0.005 0.03,0.014 0.037,0.026 0.008,0.012 0.012,0.03 0.012,0.052 0,0.013 -0.001,0.025 -0.004,0.033 -0.002,0.009 -0.007,0.017 -0.014,0.023 -0.007,0.007 -0.018,0.012 -0.032,0.016 0.014,0.003 0.025,0.008 0.033,0.015 0.008,0.006 0.014,0.014 0.017,0.024 0.003,0.01 0.005,0.021 0.005,0.036 0,0.018 -0.002,0.033 -0.006,0.045 -0.004,0.012 -0.011,0.022 -0.02,0.029 -0.009,0.007 -0.022,0.013 -0.038,0.017 -0.016,0.004 -0.036,0.005 -0.061,0.005 -0.024,0 -0.044,-0.002 -0.061,-0.005 -0.016,-0.003 -0.029,-0.009 -0.038,-0.016 -0.009,-0.008 -0.016,-0.017 -0.02,-0.029 -0.004,-0.012 -0.006,-0.027 -0.006,-0.045 0,-0.014 0.002,-0.026 0.005,-0.036 0.003,-0.01 0.009,-0.017 0.017,-0.024 0.008,-0.006 0.019,-0.011 0.033,-0.014z"/>
  <path id="1" class="fil0" d="M1.116 1.453l0 0.05c-0.016,0 -0.027,0.004 -0.033,0.011 -0.006,0.007 -0.009,0.02 -0.009,0.04l0 0.17c0,0.021 0.002,0.035 0.008,0.043 0.005,0.007 0.014,0.011 0.026,0.011l0.009 0 0 0.05c-0.023,0 -0.042,-0.003 -0.055,-0.008 -0.014,-0.005 -0.024,-0.013 -0.03,-0.023 -0.007,-0.01 -0.011,-0.023 -0.013,-0.039 -0.002,-0.015 -0.003,-0.036 -0.003,-0.062l0 -0.115c0,-0.025 0.001,-0.045 0.003,-0.06 0.002,-0.015 0.006,-0.028 0.013,-0.038 0.007,-0.01 0.017,-0.018 0.031,-0.024 0.014,-0.005 0.032,-0.008 0.055,-0.008z"/>
  <path id="2" class="fil0" d="M1.262 1.637l0 -0.046 0.034 0c0.015,0 0.026,-0.001 0.033,-0.003 0.007,-0.002 0.011,-0.006 0.014,-0.012 0.003,-0.006 0.004,-0.017 0.004,-0.032 0,-0.012 -0.002,-0.02 -0.005,-0.026 -0.004,-0.006 -0.01,-0.01 -0.018,-0.012 -0.009,-0.002 -0.022,-0.003 -0.038,-0.003 -0.019,0 -0.032,0.001 -0.041,0.004 -0.008,0.003 -0.014,0.009 -0.017,0.017 -0.003,0.008 -0.004,0.021 -0.004,0.038l-0.057 0c0,-0.027 0.004,-0.048 0.011,-0.063 0.008,-0.016 0.02,-0.027 0.036,-0.034 0.017,-0.007 0.039,-0.01 0.068,-0.01 0.031,0 0.055,0.003 0.073,0.008 0.018,0.005 0.031,0.014 0.039,0.027 0.008,0.012 0.012,0.029 0.012,0.05 0,0.015 -0.001,0.027 -0.004,0.037 -0.002,0.01 -0.007,0.018 -0.015,0.025 -0.008,0.007 -0.018,0.011 -0.033,0.013l0 0.002c0.015,0.002 0.026,0.006 0.034,0.011 0.008,0.005 0.014,0.013 0.017,0.022 0.003,0.01 0.005,0.022 0.005,0.037 0,0.017 -0.002,0.031 -0.005,0.043 -0.004,0.012 -0.01,0.022 -0.019,0.03 -0.009,0.008 -0.022,0.014 -0.038,0.018 -0.016,0.004 -0.037,0.006 -0.062,0.006 -0.031,0 -0.056,-0.003 -0.074,-0.01 -0.018,-0.006 -0.031,-0.016 -0.039,-0.03 -0.008,-0.014 -0.012,-0.032 -0.012,-0.055l0 -0.018 0.057 0c0,0.019 0.001,0.033 0.004,0.041 0.003,0.008 0.009,0.014 0.018,0.017 0.009,0.003 0.025,0.005 0.046,0.005 0.018,0 0.031,-0.002 0.041,-0.005 0.009,-0.003 0.016,-0.009 0.019,-0.016 0.003,-0.007 0.005,-0.018 0.005,-0.03 0,-0.013 -0.002,-0.023 -0.005,-0.029 -0.003,-0.006 -0.009,-0.011 -0.016,-0.013 -0.007,-0.002 -0.018,-0.003 -0.031,-0.003l-0.038 0z"/>
  <path id="3" class="fil0" d="M1.686 1.457l0 0.206 0.037 0 0 0.046 -0.037 0 0 0.069 -0.059 0 0 -0.069 -0.174 0 0 -0.066 0.143 -0.186 0.091 0zm-0.185 0.206l0.126 0 0 -0.162 -0.126 0.162z"/>
  <polygon id="4" class="fil0" points="1.953,1.457 1.953,1.778 1.894,1.778 1.894,1.508 1.811,1.592 1.775,1.554 1.879,1.457 "/>
  <path id="5" class="fil0" d="M2.29 1.457l0 0.206 0.037 0 0 0.046 -0.037 0 0 0.069 -0.059 0 0 -0.069 -0.174 0 0 -0.066 0.143 -0.186 0.091 0zm-0.185 0.206l0.126 0 0 -0.162 -0.126 0.162z"/>
  <polygon id="6" class="fil0" points="2.557,1.457 2.557,1.778 2.498,1.778 2.498,1.508 2.415,1.592 2.379,1.554 2.483,1.457 "/>
  <path id="7" class="fil0" d="M2.673 1.453l0 0.05c0.016,0 0.027,0.004 0.033,0.011 0.006,0.008 0.009,0.021 0.009,0.041l0 0.166c0,0.021 -0.003,0.036 -0.008,0.044 -0.005,0.008 -0.014,0.012 -0.026,0.012l-0.009 0 0 0.05c0.023,0 0.042,-0.003 0.055,-0.008 0.014,-0.005 0.024,-0.013 0.031,-0.023 0.007,-0.01 0.011,-0.023 0.013,-0.039 0.002,-0.015 0.003,-0.036 0.003,-0.061l0 -0.115c0,-0.024 -0.001,-0.044 -0.003,-0.059 -0.002,-0.015 -0.007,-0.028 -0.013,-0.039 -0.007,-0.011 -0.017,-0.018 -0.031,-0.024 -0.014,-0.005 -0.032,-0.008 -0.055,-0.008z"/>
  <path id="8" class="fil0" d="M2.936 1.689l0.058 0c0,0.012 0.001,0.021 0.004,0.027 0.003,0.006 0.007,0.011 0.013,0.014 0.006,0.003 0.015,0.004 0.027,0.004l0.028 0c0.014,0 0.024,-0.001 0.032,-0.004 0.008,-0.003 0.013,-0.007 0.017,-0.014 0.003,-0.007 0.005,-0.016 0.005,-0.029l0 -0.065c-0.007,0.014 -0.016,0.022 -0.028,0.026 -0.011,0.004 -0.027,0.005 -0.046,0.005 -0.028,0 -0.05,-0.003 -0.066,-0.008 -0.016,-0.005 -0.029,-0.015 -0.036,-0.028 -0.008,-0.013 -0.012,-0.033 -0.012,-0.057 0,-0.019 0.002,-0.035 0.005,-0.048 0.004,-0.013 0.01,-0.024 0.019,-0.033 0.009,-0.009 0.022,-0.015 0.038,-0.019 0.016,-0.004 0.037,-0.006 0.062,-0.006 0.028,0 0.051,0.003 0.069,0.008 0.018,0.006 0.031,0.016 0.041,0.032 0.01,0.016 0.014,0.038 0.014,0.067l0 0.113c0,0.023 -0.002,0.041 -0.008,0.055 -0.005,0.014 -0.013,0.025 -0.023,0.033 -0.01,0.008 -0.023,0.013 -0.038,0.016 -0.015,0.003 -0.034,0.004 -0.056,0.004 -0.02,0 -0.037,-0.001 -0.051,-0.003 -0.014,-0.002 -0.026,-0.006 -0.036,-0.012 -0.01,-0.006 -0.018,-0.016 -0.024,-0.028 -0.006,-0.013 -0.008,-0.029 -0.008,-0.05zm0.184 -0.134c0,-0.014 -0.002,-0.024 -0.005,-0.032 -0.003,-0.007 -0.01,-0.012 -0.019,-0.016 -0.009,-0.003 -0.023,-0.005 -0.041,-0.005 -0.017,0 -0.03,0.002 -0.039,0.005 -0.009,0.003 -0.015,0.008 -0.019,0.016 -0.003,0.007 -0.005,0.018 -0.005,0.032 0,0.012 0.001,0.021 0.002,0.028 0.001,0.006 0.004,0.011 0.009,0.015 0.004,0.004 0.011,0.006 0.019,0.007 0.008,0.001 0.02,0.002 0.035,0.002 0.02,0 0.034,-0.001 0.042,-0.004 0.009,-0.002 0.014,-0.007 0.017,-0.014 0.003,-0.007 0.004,-0.018 0.004,-0.034z"/>
  <path id="9" class="fil0" d="M3.615 1.618c0,0.036 -0.002,0.065 -0.005,0.085 -0.003,0.02 -0.01,0.036 -0.019,0.048 -0.009,0.012 -0.023,0.02 -0.04,0.024 -0.018,0.005 -0.042,0.007 -0.073,0.007 -0.031,0 -0.055,-0.002 -0.072,-0.007 -0.017,-0.005 -0.03,-0.013 -0.039,-0.024 -0.009,-0.012 -0.015,-0.027 -0.018,-0.048 -0.003,-0.02 -0.005,-0.049 -0.005,-0.085 0,-0.036 0.002,-0.065 0.005,-0.085 0.003,-0.02 0.009,-0.036 0.018,-0.048 0.009,-0.012 0.022,-0.02 0.04,-0.024 0.017,-0.004 0.041,-0.007 0.072,-0.007 0.031,0 0.055,0.002 0.072,0.007 0.017,0.005 0.031,0.013 0.04,0.024 0.009,0.012 0.015,0.028 0.019,0.048 0.003,0.02 0.005,0.049 0.005,0.085zm-0.21 0c0,0.029 0.001,0.05 0.002,0.064 0.001,0.014 0.004,0.024 0.009,0.031 0.004,0.007 0.011,0.012 0.021,0.014 0.009,0.002 0.024,0.003 0.043,0.003 0.019,0 0.034,-0.001 0.043,-0.003 0.01,-0.002 0.017,-0.007 0.022,-0.014 0.005,-0.007 0.008,-0.017 0.009,-0.031 0.001,-0.014 0.002,-0.035 0.002,-0.064 0,-0.029 -0.001,-0.051 -0.002,-0.064 -0.001,-0.014 -0.004,-0.024 -0.009,-0.031 -0.005,-0.007 -0.012,-0.011 -0.021,-0.014 -0.009,-0.002 -0.024,-0.003 -0.044,-0.003 -0.019,0 -0.034,0.001 -0.043,0.003 -0.009,0.002 -0.016,0.007 -0.021,0.014 -0.005,0.007 -0.008,0.018 -0.009,0.031 -0.001,0.013 -0.002,0.035 -0.002,0.064z"/>
  <path id="10" class="fil0" d="M3.891 1.456l0 0.046 -0.171 0 0 0.08c0.008,-0.011 0.018,-0.017 0.031,-0.021 0.012,-0.003 0.027,-0.005 0.045,-0.005 0.019,0 0.036,0.002 0.049,0.006 0.014,0.004 0.025,0.01 0.034,0.019 0.009,0.008 0.015,0.019 0.02,0.032 0.004,0.013 0.006,0.029 0.006,0.047 0,0.023 -0.002,0.042 -0.005,0.056 -0.003,0.015 -0.009,0.027 -0.017,0.036 -0.009,0.01 -0.021,0.017 -0.037,0.021 -0.016,0.005 -0.037,0.007 -0.064,0.007 -0.023,0 -0.042,-0.001 -0.058,-0.005 -0.015,-0.003 -0.028,-0.008 -0.037,-0.015 -0.01,-0.007 -0.017,-0.017 -0.021,-0.03 -0.005,-0.013 -0.007,-0.028 -0.007,-0.047l0.06 0c0,0.013 0.002,0.023 0.006,0.03 0.004,0.007 0.01,0.012 0.018,0.014 0.008,0.002 0.019,0.004 0.032,0.004 0.02,0 0.035,-0.002 0.045,-0.005 0.01,-0.003 0.016,-0.01 0.02,-0.018 0.003,-0.009 0.005,-0.022 0.005,-0.04 0,-0.017 -0.002,-0.03 -0.004,-0.039 -0.003,-0.009 -0.008,-0.015 -0.016,-0.019 -0.008,-0.004 -0.019,-0.006 -0.033,-0.006l-0.021 0c-0.013,0 -0.025,0.001 -0.033,0.004 -0.009,0.002 -0.014,0.009 -0.016,0.019l-0.054 0 0 -0.172 0.225 0z"/>
  <path id="11" class="fil0" d="M4.194 1.637c-0.02,0 -0.034,0.001 -0.043,0.003 -0.009,0.002 -0.015,0.007 -0.018,0.013 -0.003,0.006 -0.005,0.017 -0.005,0.031 0,0.013 0.002,0.024 0.005,0.031 0.004,0.007 0.01,0.012 0.019,0.015 0.009,0.003 0.023,0.005 0.042,0.005 0.018,0 0.032,-0.002 0.042,-0.005 0.01,-0.003 0.016,-0.008 0.02,-0.015 0.004,-0.007 0.005,-0.017 0.005,-0.03 0,-0.014 -0.002,-0.024 -0.005,-0.031 -0.003,-0.007 -0.01,-0.011 -0.019,-0.013 -0.009,-0.002 -0.023,-0.003 -0.043,-0.003zm0 -0.135c-0.018,0 -0.031,0.001 -0.039,0.004 -0.009,0.002 -0.015,0.007 -0.018,0.013 -0.003,0.006 -0.005,0.016 -0.005,0.028 0,0.01 0.001,0.018 0.003,0.023 0.002,0.006 0.005,0.01 0.009,0.013 0.004,0.003 0.01,0.005 0.018,0.006 0.008,0.001 0.018,0.002 0.032,0.002 0.014,0 0.024,-0 0.032,-0.002 0.008,-0.001 0.014,-0.003 0.018,-0.006 0.004,-0.003 0.007,-0.007 0.009,-0.013 0.002,-0.006 0.003,-0.013 0.003,-0.024 0,-0.013 -0.002,-0.022 -0.005,-0.029 -0.003,-0.006 -0.009,-0.011 -0.018,-0.013 -0.009,-0.002 -0.021,-0.004 -0.039,-0.004zm-0.069 0.111c-0.014,-0.004 -0.024,-0.01 -0.032,-0.016 -0.008,-0.007 -0.013,-0.014 -0.016,-0.024 -0.003,-0.009 -0.004,-0.02 -0.004,-0.033 0,-0.017 0.002,-0.03 0.007,-0.041 0.004,-0.011 0.011,-0.02 0.021,-0.026 0.009,-0.007 0.022,-0.011 0.037,-0.014 0.015,-0.003 0.034,-0.004 0.057,-0.004 0.03,0 0.054,0.003 0.071,0.008 0.017,0.005 0.03,0.014 0.037,0.026 0.008,0.012 0.012,0.03 0.012,0.052 0,0.013 -0.001,0.025 -0.004,0.033 -0.002,0.009 -0.007,0.017 -0.014,0.023 -0.007,0.007 -0.018,0.012 -0.032,0.016 0.014,0.003 0.025,0.008 0.033,0.015 0.008,0.006 0.014,0.014 0.017,0.024 0.003,0.01 0.005,0.021 0.005,0.036 0,0.018 -0.002,0.033 -0.006,0.045 -0.004,0.012 -0.011,0.022 -0.02,0.029 -0.009,0.007 -0.022,0.013 -0.038,0.017 -0.016,0.004 -0.036,0.005 -0.061,0.005 -0.024,0 -0.044,-0.002 -0.061,-0.005 -0.016,-0.003 -0.029,-0.009 -0.038,-0.016 -0.009,-0.008 -0.016,-0.017 -0.02,-0.029 -0.004,-0.012 -0.006,-0.027 -0.006,-0.045 0,-0.014 0.002,-0.026 0.005,-0.036 0.003,-0.01 0.009,-0.017 0.017,-0.024 0.008,-0.006 0.019,-0.011 0.033,-0.014z"/>
  <path id="12" class="fil0" d="M4.594 1.457l0 0.206 0.037 0 0 0.046 -0.037 0 0 0.069 -0.059 0 0 -0.069 -0.174 0 0 -0.066 0.143 -0.186 0.091 0zm-0.185 0.206l0.126 0 0 -0.162 -0.126 0.162z"/>
  <path class="fil0" d="M0.799 2.321l-0.139 0 -0.02 0.061 -0.064 0 0.107 -0.321 0.091 0 0.109 0.321 -0.063 0 -0.021 -0.061zm-0.014 -0.046l-0.056 -0.167 -0.055 0.167 0.111 0z"/>
  <polygon id="1" class="fil0" points="0.97,2.158 0.97,2.245 0.983,2.245 1.046,2.158 1.107,2.158 1.027,2.263 1.123,2.383 1.058,2.383 0.983,2.282 0.97,2.282 0.97,2.383 0.917,2.383 0.917,2.158 "/>
  <polygon id="2" class="fil0" points="1.21,2.158 1.21,2.245 1.223,2.245 1.286,2.158 1.347,2.158 1.267,2.263 1.363,2.383 1.298,2.383 1.223,2.282 1.21,2.282 1.21,2.383 1.156,2.383 1.156,2.158 "/>
  <path id="3" class="fil0" d="M1.387 2.27c0,-0.03 0.003,-0.053 0.009,-0.069 0.006,-0.016 0.017,-0.028 0.032,-0.035 0.015,-0.007 0.037,-0.011 0.064,-0.011 0.028,0 0.049,0.004 0.064,0.011 0.015,0.007 0.026,0.019 0.033,0.036 0.006,0.017 0.01,0.04 0.01,0.069 0,0.022 -0.002,0.04 -0.005,0.055 -0.003,0.015 -0.009,0.027 -0.017,0.036 -0.008,0.009 -0.019,0.016 -0.033,0.02 -0.013,0.004 -0.031,0.006 -0.051,0.006 -0.02,0 -0.038,-0.002 -0.051,-0.006 -0.014,-0.004 -0.025,-0.011 -0.032,-0.02 -0.008,-0.009 -0.014,-0.021 -0.017,-0.035 -0.003,-0.015 -0.005,-0.033 -0.005,-0.055zm0.055 0c0,0.021 0.002,0.037 0.005,0.047 0.003,0.011 0.008,0.018 0.015,0.022 0.007,0.004 0.017,0.006 0.031,0.006 0.014,0 0.024,-0.002 0.031,-0.006 0.007,-0.004 0.012,-0.011 0.016,-0.022 0.003,-0.011 0.005,-0.026 0.005,-0.047 0,-0.016 -0.001,-0.028 -0.003,-0.038 -0.002,-0.009 -0.005,-0.017 -0.009,-0.022 -0.004,-0.005 -0.009,-0.009 -0.015,-0.011 -0.006,-0.002 -0.015,-0.003 -0.025,-0.003 -0.013,0 -0.024,0.002 -0.031,0.006 -0.007,0.004 -0.012,0.011 -0.015,0.021 -0.003,0.011 -0.005,0.026 -0.005,0.047z"/>
  <path id="4" class="fil0" d="M1.81 2.383l0.045 -0.135c0.003,-0.01 0.008,-0.021 0.012,-0.034 0.005,-0.013 0.008,-0.022 0.009,-0.028 -0.003,0.022 -0.005,0.041 -0.005,0.057l0 0.14 0.051 0 0 -0.225 -0.082 0 -0.05 0.151c-0.001,0.003 -0.004,0.016 -0.007,0.037 -0.003,-0.021 -0.005,-0.033 -0.007,-0.037l-0.05 -0.151 -0.081 0 0 0.225 0.051 0 0 -0.14c0,-0.016 -0.002,-0.035 -0.005,-0.057 0.001,0.005 0.005,0.016 0.011,0.033 0.006,0.017 0.009,0.027 0.01,0.029l0.045 0.135 0.052 0z"/>
  <polygon id="5" class="fil0" points="2.031,2.2 2.125,2.2 2.125,2.383 2.179,2.383 2.179,2.158 1.977,2.158 1.977,2.383 2.031,2.383 "/>
  <path id="6" class="fil0" d="M2.377 2.383l0.004 -0.031 -0.001 0c-0.005,0.01 -0.01,0.018 -0.017,0.023 -0.007,0.005 -0.014,0.008 -0.023,0.01 -0.009,0.001 -0.02,0.002 -0.034,0.002 -0.019,0 -0.035,-0.002 -0.047,-0.007 -0.012,-0.005 -0.021,-0.012 -0.027,-0.022 -0.006,-0.01 -0.009,-0.024 -0.009,-0.041 0,-0.014 0.002,-0.026 0.005,-0.035 0.003,-0.009 0.008,-0.017 0.015,-0.022 0.007,-0.005 0.016,-0.009 0.026,-0.011 0.011,-0.002 0.025,-0.003 0.042,-0.003 0.02,0 0.034,0.002 0.043,0.006 0.009,0.004 0.016,0.012 0.021,0.022l0.002 0 0 -0.038c0,-0.012 -0.001,-0.022 -0.004,-0.028 -0.003,-0.007 -0.008,-0.011 -0.015,-0.014 -0.007,-0.002 -0.017,-0.004 -0.03,-0.004 -0.016,0 -0.027,0.002 -0.033,0.007 -0.006,0.005 -0.009,0.013 -0.009,0.027l-0.054 0c0,-0.014 0.003,-0.025 0.008,-0.034 0.005,-0.009 0.011,-0.016 0.02,-0.021 0.008,-0.005 0.018,-0.008 0.029,-0.01 0.011,-0.002 0.024,-0.003 0.038,-0.003 0.024,0 0.043,0.002 0.057,0.005 0.015,0.003 0.026,0.011 0.035,0.023 0.008,0.012 0.013,0.029 0.013,0.052l0 0.148 -0.054 0zm0 -0.067c0,-0.013 -0.004,-0.022 -0.011,-0.027 -0.007,-0.005 -0.021,-0.007 -0.042,-0.007 -0.012,0 -0.021,0.001 -0.028,0.003 -0.007,0.002 -0.011,0.006 -0.014,0.01 -0.003,0.005 -0.004,0.012 -0.004,0.02 0,0.012 0.003,0.021 0.01,0.026 0.007,0.005 0.019,0.008 0.035,0.008 0.019,0 0.033,-0.002 0.041,-0.007 0.008,-0.005 0.012,-0.014 0.012,-0.027z"/>
  <polygon id="7" class="fil0" points="2.54,2.285 2.635,2.285 2.635,2.383 2.688,2.383 2.688,2.158 2.635,2.158 2.635,2.243 2.54,2.243 2.54,2.158 2.486,2.158 2.486,2.383 2.54,2.383 "/>
  <path id="8" class="fil0" d="M2.746 2.158l0 0.225 0.066 0 0.073 -0.14c0.004,-0.007 0.012,-0.023 0.025,-0.05 -0.002,0.006 -0.005,0.016 -0.007,0.031 -0.003,0.015 -0.004,0.027 -0.004,0.035l0 0.124 0.051 0 0 -0.225 -0.066 0 -0.073 0.141c-0.005,0.009 -0.013,0.026 -0.024,0.051 0.002,-0.006 0.005,-0.016 0.007,-0.028 0.002,-0.012 0.004,-0.023 0.004,-0.033l0 -0.131 -0.051 0z"/>
  <path id="9" class="fil0" d="M3.148 2.383l0.004 -0.031 -0.001 0c-0.005,0.01 -0.01,0.018 -0.017,0.023 -0.007,0.005 -0.014,0.008 -0.023,0.01 -0.009,0.001 -0.02,0.002 -0.034,0.002 -0.019,0 -0.035,-0.002 -0.047,-0.007 -0.012,-0.005 -0.021,-0.012 -0.027,-0.022 -0.006,-0.01 -0.009,-0.024 -0.009,-0.041 0,-0.014 0.002,-0.026 0.005,-0.035 0.003,-0.009 0.008,-0.017 0.015,-0.022 0.007,-0.005 0.016,-0.009 0.026,-0.011 0.011,-0.002 0.025,-0.003 0.042,-0.003 0.02,0 0.034,0.002 0.043,0.006 0.009,0.004 0.016,0.012 0.021,0.022l0.002 0 0 -0.038c0,-0.012 -0.001,-0.022 -0.004,-0.028 -0.003,-0.007 -0.008,-0.011 -0.015,-0.014 -0.007,-0.002 -0.017,-0.004 -0.03,-0.004 -0.016,0 -0.027,0.002 -0.033,0.007 -0.006,0.005 -0.009,0.013 -0.009,0.027l-0.054 0c0,-0.014 0.003,-0.025 0.008,-0.034 0.005,-0.009 0.011,-0.016 0.02,-0.021 0.008,-0.005 0.018,-0.008 0.029,-0.01 0.011,-0.002 0.024,-0.003 0.038,-0.003 0.024,0 0.043,0.002 0.057,0.005 0.015,0.003 0.026,0.011 0.035,0.023 0.008,0.012 0.013,0.029 0.013,0.052l0 0.148 -0.054 0zm0 -0.067c0,-0.013 -0.004,-0.022 -0.011,-0.027 -0.007,-0.005 -0.021,-0.007 -0.042,-0.007 -0.012,0 -0.021,0.001 -0.028,0.003 -0.007,0.002 -0.011,0.006 -0.014,0.01 -0.003,0.005 -0.004,0.012 -0.004,0.02 0,0.012 0.003,0.021 0.01,0.026 0.007,0.005 0.019,0.008 0.035,0.008 0.019,0 0.033,-0.002 0.041,-0.007 0.008,-0.005 0.012,-0.014 0.012,-0.027z"/>
  <polygon id="10" class="fil0" points="3.313,2.383 3.366,2.383 3.366,2.2 3.438,2.2 3.438,2.158 3.24,2.158 3.24,2.2 3.313,2.2 "/>
  <path id="11" class="fil0" d="M3.466 2.27c0,-0.03 0.003,-0.053 0.009,-0.069 0.006,-0.016 0.017,-0.028 0.032,-0.035 0.015,-0.007 0.037,-0.011 0.064,-0.011 0.028,0 0.049,0.004 0.064,0.011 0.015,0.007 0.026,0.019 0.033,0.036 0.006,0.017 0.01,0.04 0.01,0.069 0,0.022 -0.002,0.04 -0.005,0.055 -0.003,0.015 -0.009,0.027 -0.017,0.036 -0.008,0.009 -0.019,0.016 -0.033,0.02 -0.013,0.004 -0.031,0.006 -0.051,0.006 -0.02,0 -0.038,-0.002 -0.051,-0.006 -0.014,-0.004 -0.025,-0.011 -0.032,-0.02 -0.008,-0.009 -0.014,-0.021 -0.017,-0.035 -0.003,-0.015 -0.005,-0.033 -0.005,-0.055zm0.055 0c0,0.021 0.002,0.037 0.005,0.047 0.003,0.011 0.008,0.018 0.015,0.022 0.007,0.004 0.017,0.006 0.031,0.006 0.014,0 0.024,-0.002 0.031,-0.006 0.007,-0.004 0.012,-0.011 0.016,-0.022 0.003,-0.011 0.005,-0.026 0.005,-0.047 0,-0.016 -0.001,-0.028 -0.003,-0.038 -0.002,-0.009 -0.005,-0.017 -0.009,-0.022 -0.004,-0.005 -0.009,-0.009 -0.015,-0.011 -0.006,-0.002 -0.015,-0.003 -0.025,-0.003 -0.013,0 -0.024,0.002 -0.031,0.006 -0.007,0.004 -0.012,0.011 -0.015,0.021 -0.003,0.011 -0.005,0.026 -0.005,0.047z"/>
  <path id="12" class="fil0" d="M3.778 2.264c0,0.022 0.001,0.039 0.003,0.05 0.002,0.011 0.007,0.018 0.014,0.023 0.007,0.005 0.019,0.007 0.034,0.007 0.015,0 0.026,-0.003 0.034,-0.008 0.007,-0.006 0.012,-0.014 0.013,-0.024 0.002,-0.01 0.003,-0.026 0.003,-0.046 0,-0.021 -0.001,-0.036 -0.004,-0.045 -0.003,-0.01 -0.007,-0.016 -0.014,-0.019 -0.007,-0.003 -0.017,-0.005 -0.031,-0.005 -0.014,0 -0.025,0.002 -0.032,0.005 -0.007,0.004 -0.013,0.01 -0.016,0.02 -0.003,0.01 -0.005,0.024 -0.005,0.043zm0 0.087l0 0.126 -0.054 0 0 -0.32 0.052 0 -0.002 0.032 0.002 0c0.009,-0.013 0.019,-0.022 0.029,-0.028 0.011,-0.005 0.024,-0.008 0.04,-0.008 0.024,0 0.043,0.004 0.056,0.013 0.013,0.009 0.022,0.021 0.026,0.038 0.005,0.016 0.007,0.037 0.007,0.063 0,0.019 -0.001,0.035 -0.003,0.048 -0.002,0.013 -0.005,0.025 -0.011,0.036 -0.006,0.011 -0.014,0.019 -0.026,0.025 -0.012,0.006 -0.027,0.009 -0.046,0.009 -0.018,0 -0.032,-0.002 -0.043,-0.007 -0.011,-0.005 -0.02,-0.014 -0.028,-0.027z"/>
  <g id="_2008514339488">
   <rect class="fil1" x="0" y="1.424" width="0.38" height="0.38" rx="0.076" ry="0.072"/>
   <g>
    <path class="fil2" d="M0.073 1.49c-0.001,0.002 -0.007,0.007 -0.011,0.023 -0.001,0.005 -0.003,0.016 -0.003,0.021 0,0.02 0.002,0.028 0.008,0.047 0.003,0.011 0.015,0.035 0.021,0.046 0.002,0.003 0.004,0.007 0.006,0.01 0.009,0.015 0.03,0.042 0.041,0.055l0.01 0.011c0.011,0.011 0.022,0.022 0.035,0.032l0.015 0.01c0.002,0.001 0.004,0.002 0.005,0.003 0.018,0.011 0.041,0.021 0.062,0.02 0.007,-0 0.02,-0.002 0.025,-0.007 -0.003,-0.003 -0.005,-0.006 -0.008,-0.01l-0.006 -0.007c-0.001,-0.001 -0.001,-0.001 -0.002,-0.002 -0.009,-0.012 -0.021,-0.026 -0.03,-0.038l-0.015 -0.019c-0.003,0.001 -0.004,0.003 -0.008,0.003 -0.012,0 -0.036,-0.027 -0.044,-0.036 -0.008,-0.009 -0.014,-0.016 -0.021,-0.026l-0.013 -0.02c-0.005,-0.008 -0.012,-0.02 -0.01,-0.029 0.001,-0.004 0.002,-0.005 0.005,-0.008l-0.046 -0.058c-0.003,-0.003 -0.005,-0.006 -0.008,-0.01 -0.001,-0.002 -0.003,-0.003 -0.004,-0.005 -0.001,-0.001 -0.002,-0.004 -0.004,-0.004z"/>
    <path class="fil2" d="M0.098 1.502c0.012,0.016 0.027,0.033 0.038,0.048l0.008 0.009c0.002,-0.001 0.014,-0.011 0.016,-0.013 0.006,-0.004 0.012,-0.01 0.008,-0.018 -0.001,-0.002 -0.011,-0.014 -0.013,-0.017l-0.031 -0.039c-0.009,-0.01 -0.01,-0.016 -0.026,-0.003l-0.016 0.013 0.015 0.019z"/>
    <path class="fil2" d="M0.264 1.656c-0.004,0 -0.006,0.002 -0.009,0.004 -0.003,0.003 -0.018,0.014 -0.019,0.016l0.014 0.017c0,0 0,0 0,0l0.046 0.058 0.006 -0.005c0.002,-0.001 0.004,-0.003 0.006,-0.005 0.002,-0.002 0.004,-0.003 0.006,-0.005 0.002,-0.002 0.004,-0.003 0.005,-0.005 0.004,-0.006 -0.001,-0.012 -0.004,-0.015l-0.035 -0.043c-0.001,-0.001 -0.001,-0.002 -0.003,-0.003 -0.005,-0.006 -0.008,-0.013 -0.015,-0.013z"/>
   </g>
  </g>
  <g id="_2008514274976">
   <rect class="fil1" x="0" y="0.821" width="0.38" height="0.38" rx="0.076" ry="0.072"/>
   <g>
    <path class="fil2" d="M0.138 0.956l0.049 -0.03c0.001,-0.001 0.002,-0.001 0.003,-0.002 0,0 0,0 0,0l0.049 0.029c0.001,0 0.003,0.002 0.003,0.002 -0,0.002 -0.006,0.01 -0.006,0.012l0 0.05 -0.092 0 0 -0.05c0,-0.001 -0.001,-0.002 -0.002,-0.003l-0.005 -0.009zm0.052 0.206c0.003,0 0.005,-0.002 0.006,-0.004l0.015 -0.018c0.001,-0.001 0.001,-0.002 0.002,-0.003 0.001,-0.001 0.001,-0.002 0.002,-0.003l0.006 -0.008c0.001,-0.001 0.001,-0.002 0.002,-0.003 0.001,-0.001 0.001,-0.002 0.002,-0.003l0.012 -0.016c0.004,-0.006 0.008,-0.011 0.011,-0.017l0.007 -0.012c0.001,-0.002 0.002,-0.004 0.003,-0.006 0.002,-0.004 0.005,-0.009 0.007,-0.012l0.003 -0.006c0.001,-0.002 0.002,-0.004 0.003,-0.006 0.001,-0.001 0.001,-0.002 0.002,-0.003 0.005,-0.01 0.009,-0.02 0.012,-0.03 0.001,-0.002 0.002,-0.005 0.002,-0.007 0.004,-0.013 0.007,-0.025 0.007,-0.041 0,-0.033 -0.014,-0.058 -0.031,-0.075l-0.009 -0.008c-0.003,-0.002 -0.006,-0.005 -0.01,-0.007 -0.003,-0.002 -0.006,-0.003 -0.008,-0.005l-0.004 -0.002c-0.026,-0.012 -0.056,-0.012 -0.083,-0.002 -0.006,0.002 -0.011,0.005 -0.016,0.008 -0.004,0.003 -0.008,0.005 -0.012,0.008l-0.006 0.006c-0.001,0.001 -0.001,0.001 -0.002,0.002l-0.006 0.007c-0.001,0.002 -0.002,0.003 -0.004,0.005 -0.005,0.008 -0.009,0.014 -0.013,0.023 -0.002,0.004 -0.003,0.008 -0.004,0.012 -0,0.001 -0.001,0.002 -0.001,0.003 -0.003,0.012 -0.003,0.024 -0.002,0.037 0.002,0.018 0.008,0.036 0.015,0.053 0.004,0.01 0.009,0.019 0.014,0.028 0.004,0.007 0.008,0.014 0.013,0.022 0.002,0.003 0.004,0.007 0.006,0.01 0.003,0.006 0.011,0.017 0.015,0.022l0.007 0.009c0.006,0.009 0.013,0.017 0.019,0.025 0.003,0.004 0.006,0.008 0.01,0.012 0.002,0.002 0.003,0.004 0.006,0.004z"/>
    <path class="fil2" d="M0.157 0.96l0 0.045 0.02 0 0 -0.033 0.026 0 0 0.033 0.02 0 0 -0.045c0,-0.001 -0.001,-0.001 -0.002,-0.002 -0.001,-0 -0.001,-0.001 -0.002,-0.001l-0.029 -0.017c-0.001,-0 -0.003,0.002 -0.004,0.002l-0.028 0.017c-0.001,0 -0.001,0 -0.001,0.001z"/>
   </g>
  </g>
  <g id="_2008514276224">
   <rect class="fil1" x="0" y="2.028" width="0.38" height="0.38" rx="0.076" ry="0.072"/>
   <g>
    <path class="fil2" d="M0.164 2.079c0,0.018 0.003,0.025 -0.004,0.029 -0.006,-0.004 -0.004,-0.001 -0.004,-0.022 -0.016,0.004 -0.027,0.027 -0.03,0.043 -0.002,0.008 0,0.004 -0.003,0.01 -0.002,0.003 -0.005,0.003 -0.005,0.008 0,0.025 0.09,0.025 0.12,0.017 0.009,-0.003 0.032,-0.011 0.022,-0.021 -0.014,-0.015 -0.002,-0.008 -0.012,-0.03 -0.004,-0.009 -0.013,-0.024 -0.023,-0.026 0,0.011 0,0.014 -0.002,0.022l-0.005 0c-0.002,-0.01 -0.002,-0.017 -0.002,-0.029 -0.025,-0.006 -0.037,-0.003 -0.051,0z"/>
    <path class="fil2" d="M0.126 2.183c0,0.019 0.011,0.028 0.021,0.05 0.014,0.03 0.061,0.054 0.09,-0.01 0.007,-0.015 0.016,-0.013 0.016,-0.044 0,-0.02 -0.012,-0.004 -0.051,-0.004 -0.041,0 -0.032,0.002 -0.071,-0.007 -0.003,0.004 -0.006,0.008 -0.006,0.015z"/>
    <path class="fil2" d="M0.108 2.357c0.016,0 0.028,0.004 0.046,0.004l0.075 0c0.019,0 0.031,-0.004 0.048,-0.004l0 -0.033 -0.168 0 0 0.033z"/>
    <path class="fil2" d="M0.135 2.247l0 0.059 0.112 0 0 -0.059 -0.013 -0.004c-0.016,0.024 -0.043,0.034 -0.07,0.017 -0.009,-0.006 -0.012,-0.012 -0.02,-0.017 -0.004,0.002 -0.004,0.003 -0.009,0.004z"/>
    <path class="fil2" d="M0.058 2.337c0,0.009 0.008,0.01 0.018,0.013 0.035,0.011 -0.014,-0.04 0.04,-0.044l0 -0.049c-0.03,0.003 -0.059,0.043 -0.059,0.081z"/>
    <path class="fil2" d="M0.263 2.262l0 0.044c0.035,0 0.031,0.018 0.031,0.046 0.01,-0 0.018,-0.005 0.027,-0.007l0 -0.01c-0,-0.009 -0.001,-0.014 -0.003,-0.023 -0.01,-0.031 -0.02,-0.038 -0.044,-0.051 -0.004,-0.002 -0.011,-0.007 -0.011,0.002z"/>
   </g>
  </g>
 </g>
</svg>
