<?xml version="1.0" encoding="UTF-8"?>
<!DOCTYPE svg PUBLIC "-//W3C//DTD SVG 1.1//EN" "http://www.w3.org/Graphics/SVG/1.1/DTD/svg11.dtd">
<!-- Creator: CorelDRAW 2019 (64-Bit) -->
<svg xmlns="http://www.w3.org/2000/svg" xml:space="preserve" width="3.08872cm" height="0.81508cm" version="1.1" style="shape-rendering:geometricPrecision; text-rendering:geometricPrecision; image-rendering:optimizeQuality; fill-rule:evenodd; clip-rule:evenodd"
viewBox="0 0 13.907 3.67"
 xmlns:xlink="http://www.w3.org/1999/xlink"
 xmlns:xodm="http://www.corel.com/coreldraw/odm/2003">
 <defs>
  <style type="text/css">
   <![CDATA[
    .fil1 {fill:#1B5A5C}
    .fil2 {fill:#29878C}
    .fil0 {fill:white;fill-rule:nonzero}
   ]]>
  </style>
 </defs>
 <g id="Слой_x0020_1">
  <metadata id="CorelCorpID_0Corel-Layer"/>
  <polygon class="fil0" points="1.006,0.503 1.284,0.503 1.284,0.006 1.398,0.006 1.398,0.503 1.451,0.503 1.451,0.739 1.345,0.739 1.345,0.601 0.891,0.601 0.891,0.006 1.006,0.006 "/>
  <path id="1" class="fil0" d="M1.887 0.388l0.112 0 0 0.035c0,0.046 -0.008,0.082 -0.024,0.109 -0.016,0.027 -0.041,0.046 -0.077,0.058 -0.036,0.012 -0.084,0.018 -0.145,0.018 -0.05,0 -0.092,-0.005 -0.123,-0.014 -0.032,-0.009 -0.057,-0.026 -0.076,-0.049 -0.019,-0.023 -0.032,-0.055 -0.04,-0.095 -0.008,-0.04 -0.012,-0.092 -0.012,-0.157 0,-0.071 0.007,-0.128 0.021,-0.17 0.014,-0.042 0.039,-0.073 0.075,-0.093 0.036,-0.02 0.086,-0.03 0.15,-0.03 0.064,0 0.113,0.007 0.148,0.022 0.035,0.015 0.059,0.037 0.073,0.066 0.014,0.029 0.023,0.068 0.026,0.117l-0.111 0c-0.002,-0.031 -0.007,-0.055 -0.015,-0.069 -0.008,-0.015 -0.021,-0.025 -0.039,-0.03 -0.018,-0.005 -0.046,-0.008 -0.082,-0.008 -0.037,0 -0.065,0.005 -0.083,0.015 -0.018,0.01 -0.03,0.029 -0.037,0.057 -0.007,0.028 -0.01,0.073 -0.01,0.134 0,0.043 0.002,0.078 0.006,0.105 0.004,0.027 0.011,0.047 0.02,0.062 0.01,0.015 0.023,0.025 0.039,0.03 0.017,0.006 0.039,0.009 0.067,0.009 0.036,0 0.063,-0.002 0.082,-0.007 0.019,-0.005 0.033,-0.013 0.041,-0.025 0.008,-0.012 0.012,-0.029 0.012,-0.052l0 -0.037z"/>
  <path id="2" class="fil0" d="M2.079 0.503c0.012,-0.012 0.022,-0.026 0.029,-0.041 0.008,-0.015 0.014,-0.032 0.019,-0.051 0.005,-0.019 0.008,-0.041 0.01,-0.067 0.002,-0.025 0.003,-0.055 0.004,-0.088l0 -0.251 0.43 0 0 0.498 0.053 0 0 0.235 -0.106 0 0 -0.138 -0.377 0 0 0.138 -0.107 0 0 -0.235 0.045 0zm0.173 -0.4l0 0.153c0,0.043 -0.001,0.079 -0.005,0.109 -0.003,0.03 -0.009,0.057 -0.016,0.08 -0.008,0.023 -0.018,0.042 -0.032,0.058l0.257 0 0 -0.4 -0.205 0z"/>
  <polygon id="3" class="fil0" points="2.815,0.006 2.815,0.249 2.868,0.249 3.067,0.006 3.206,0.006 2.966,0.296 3.232,0.601 3.087,0.601 2.868,0.347 2.815,0.347 2.815,0.601 2.701,0.601 2.701,0.006 "/>
  <path id="4" class="fil0" d="M3.6 0.171l0.067 0.037 -0.084 0.172 0.089 0.167 -0.063 0.042 -0.114 -0.209 0.104 -0.209zm0.162 -0.003l0.067 0.039 -0.085 0.171 0.09 0.168 -0.064 0.04 -0.114 -0.207 0.106 -0.21z"/>
  <polygon id="5" class="fil0" points="4.041,0.006 4.041,0.249 4.094,0.249 4.293,0.006 4.433,0.006 4.192,0.296 4.458,0.601 4.314,0.601 4.094,0.347 4.041,0.347 4.041,0.601 3.927,0.601 3.927,0.006 "/>
  <path id="6" class="fil0" d="M4.557 0.185l0.347 0 0 0.416 -0.099 0 0 -0.339 -0.15 0 0 0.211c0,0.026 -0.004,0.049 -0.012,0.069 -0.008,0.02 -0.02,0.035 -0.037,0.047 -0.017,0.011 -0.037,0.017 -0.062,0.017 -0.028,0 -0.048,-0.001 -0.061,-0.004l0 -0.075c0.009,0.002 0.018,0.002 0.025,0.002 0.019,0 0.032,-0.005 0.039,-0.015 0.007,-0.01 0.01,-0.027 0.01,-0.05l0 -0.28z"/>
  <path id="7" class="fil0" d="M5.111 0.347l0.067 0c0.003,-0.037 0.011,-0.068 0.023,-0.092 0.012,-0.024 0.032,-0.043 0.06,-0.056 0.028,-0.013 0.066,-0.02 0.114,-0.02 0.051,0 0.091,0.007 0.119,0.02 0.028,0.013 0.049,0.035 0.061,0.066 0.012,0.031 0.018,0.073 0.018,0.128 0,0.041 -0.003,0.075 -0.01,0.102 -0.007,0.027 -0.018,0.049 -0.033,0.066 -0.015,0.017 -0.035,0.029 -0.061,0.037 -0.025,0.008 -0.057,0.012 -0.095,0.012 -0.037,0 -0.068,-0.004 -0.092,-0.011 -0.024,-0.008 -0.044,-0.019 -0.058,-0.035 -0.014,-0.016 -0.025,-0.034 -0.032,-0.057 -0.007,-0.022 -0.011,-0.05 -0.014,-0.084l-0.067 0 0 0.179 -0.099 0 0 -0.416 0.099 0 0 0.162zm0.168 0.045c0,0.03 0.002,0.053 0.005,0.071 0.003,0.018 0.009,0.031 0.016,0.042 0.007,0.01 0.017,0.017 0.028,0.021 0.011,0.004 0.026,0.006 0.046,0.006 0.025,0 0.044,-0.004 0.058,-0.011 0.014,-0.007 0.024,-0.021 0.03,-0.041 0.006,-0.02 0.009,-0.049 0.009,-0.087 0,-0.038 -0.003,-0.066 -0.009,-0.086 -0.006,-0.02 -0.016,-0.033 -0.03,-0.04 -0.014,-0.007 -0.033,-0.011 -0.058,-0.011 -0.025,0 -0.044,0.003 -0.057,0.01 -0.013,0.007 -0.023,0.02 -0.029,0.04 -0.006,0.02 -0.009,0.048 -0.009,0.086z"/>
  <path id="8" class="fil0" d="M6.017 0.601l0 -0.417 -0.099 0 0 0.122c0,0.023 -0.007,0.039 -0.02,0.047 -0.013,0.008 -0.037,0.013 -0.07,0.013 -0.023,0 -0.04,-0.002 -0.051,-0.005 -0.011,-0.003 -0.019,-0.009 -0.023,-0.017 -0.004,-0.008 -0.006,-0.02 -0.006,-0.037l0 -0.123 -0.099 0 0 0.127c0,0.031 0.005,0.055 0.015,0.074 0.01,0.019 0.025,0.033 0.047,0.042 0.021,0.009 0.05,0.014 0.085,0.014 0.034,0 0.061,-0.004 0.081,-0.013 0.02,-0.009 0.034,-0.023 0.043,-0.044l0 0.217 0.099 0z"/>
  <path id="9" class="fil0" d="M6.389 0.469l0.098 0 0 0.015c0,0.033 -0.008,0.059 -0.023,0.078 -0.015,0.018 -0.037,0.03 -0.064,0.037 -0.027,0.006 -0.062,0.01 -0.105,0.01 -0.048,0 -0.086,-0.007 -0.113,-0.02 -0.027,-0.013 -0.047,-0.035 -0.059,-0.066 -0.012,-0.031 -0.018,-0.073 -0.018,-0.127 0,-0.054 0.006,-0.096 0.018,-0.127 0.012,-0.031 0.032,-0.054 0.06,-0.068 0.028,-0.014 0.065,-0.021 0.113,-0.021 0.047,0 0.085,0.007 0.113,0.021 0.028,0.014 0.048,0.036 0.061,0.067 0.012,0.03 0.018,0.07 0.018,0.119l0 0.029 -0.283 0c0,0.033 0.003,0.059 0.008,0.076 0.005,0.017 0.014,0.029 0.027,0.036 0.013,0.007 0.031,0.01 0.056,0.01 0.023,0 0.041,-0.002 0.054,-0.005 0.013,-0.003 0.023,-0.009 0.029,-0.018 0.006,-0.008 0.01,-0.021 0.01,-0.036l0 -0.008zm0.002 -0.12c0,-0.025 -0.003,-0.044 -0.009,-0.058 -0.006,-0.014 -0.016,-0.024 -0.029,-0.03 -0.014,-0.006 -0.032,-0.009 -0.056,-0.009 -0.023,0 -0.041,0.003 -0.055,0.009 -0.013,0.006 -0.023,0.016 -0.028,0.03 -0.006,0.014 -0.008,0.034 -0.008,0.058l0.185 0z"/>
  <path id="10" class="fil0" d="M6.671 0.257l0 0.099 0.094 0c0.025,0 0.043,-0.004 0.053,-0.011 0.011,-0.007 0.016,-0.02 0.016,-0.037 0,-0.018 -0.004,-0.031 -0.014,-0.039 -0.009,-0.008 -0.024,-0.012 -0.046,-0.012l-0.104 0zm0 0.165l0 0.106 0.109 0c0.023,0 0.039,-0.004 0.049,-0.013 0.01,-0.009 0.015,-0.022 0.015,-0.04 0,-0.036 -0.02,-0.053 -0.06,-0.053l-0.114 0zm-0.098 0.179l0 -0.416 0.23 0c0.047,0 0.08,0.009 0.101,0.027 0.02,0.018 0.03,0.047 0.03,0.086 0,0.022 -0.007,0.04 -0.02,0.056 -0.014,0.016 -0.032,0.026 -0.055,0.031l0 0.002c0.026,0.005 0.046,0.016 0.062,0.032 0.015,0.017 0.023,0.039 0.023,0.067 0,0.027 -0.004,0.049 -0.012,0.065 -0.008,0.017 -0.021,0.029 -0.04,0.037 -0.019,0.008 -0.044,0.012 -0.077,0.012l-0.241 0z"/>
  <path id="11" class="fil0" d="M7.289 0.444l0.098 0c0,0.03 -0.003,0.056 -0.01,0.076 -0.006,0.021 -0.017,0.038 -0.031,0.051 -0.015,0.013 -0.034,0.022 -0.057,0.028 -0.024,0.006 -0.053,0.009 -0.088,0.009 -0.048,0 -0.087,-0.007 -0.114,-0.02 -0.028,-0.013 -0.047,-0.035 -0.059,-0.066 -0.012,-0.031 -0.018,-0.074 -0.018,-0.128 0,-0.055 0.006,-0.098 0.018,-0.129 0.012,-0.031 0.032,-0.053 0.059,-0.066 0.028,-0.013 0.066,-0.02 0.114,-0.02 0.036,0 0.068,0.004 0.095,0.012 0.027,0.008 0.048,0.022 0.065,0.042 0.016,0.02 0.024,0.048 0.024,0.084l0 0.015 -0.097 0 0 -0.005c0,-0.02 -0.003,-0.035 -0.008,-0.044 -0.005,-0.01 -0.014,-0.017 -0.026,-0.02 -0.012,-0.004 -0.03,-0.005 -0.052,-0.005 -0.024,0 -0.042,0.004 -0.055,0.012 -0.013,0.008 -0.022,0.022 -0.027,0.042 -0.005,0.02 -0.008,0.048 -0.008,0.084 0,0.036 0.003,0.064 0.008,0.083 0.005,0.019 0.014,0.033 0.027,0.042 0.013,0.008 0.031,0.012 0.055,0.012 0.026,0 0.045,-0.003 0.058,-0.008 0.013,-0.005 0.021,-0.014 0.025,-0.026 0.004,-0.012 0.006,-0.03 0.006,-0.053z"/>
  <polygon id="12" class="fil0" points="7.565,0.185 7.565,0.346 7.589,0.346 7.706,0.185 7.819,0.185 7.671,0.38 7.848,0.601 7.728,0.601 7.589,0.414 7.565,0.414 7.565,0.601 7.466,0.601 7.466,0.185 "/>
  <path id="13" class="fil0" d="M7.893 0.392c0,-0.055 0.006,-0.097 0.018,-0.128 0.012,-0.03 0.032,-0.052 0.06,-0.066 0.028,-0.013 0.068,-0.02 0.119,-0.02 0.051,0 0.091,0.007 0.119,0.02 0.028,0.013 0.049,0.035 0.061,0.066 0.012,0.031 0.018,0.073 0.018,0.128 0,0.041 -0.003,0.074 -0.01,0.102 -0.006,0.027 -0.017,0.049 -0.032,0.066 -0.015,0.017 -0.035,0.029 -0.06,0.037 -0.025,0.008 -0.057,0.012 -0.095,0.012 -0.038,0 -0.07,-0.004 -0.095,-0.012 -0.025,-0.008 -0.045,-0.02 -0.06,-0.037 -0.015,-0.017 -0.025,-0.039 -0.032,-0.066 -0.006,-0.027 -0.01,-0.061 -0.01,-0.102zm0.102 0c0,0.039 0.003,0.068 0.009,0.087 0.006,0.02 0.015,0.033 0.028,0.04 0.013,0.007 0.032,0.011 0.057,0.011 0.025,0 0.044,-0.004 0.058,-0.011 0.014,-0.007 0.023,-0.021 0.029,-0.041 0.006,-0.02 0.009,-0.049 0.009,-0.088 0,-0.029 -0.002,-0.053 -0.005,-0.07 -0.003,-0.017 -0.009,-0.031 -0.016,-0.041 -0.007,-0.01 -0.017,-0.016 -0.029,-0.02 -0.012,-0.004 -0.027,-0.006 -0.047,-0.006 -0.025,0 -0.044,0.003 -0.057,0.01 -0.013,0.007 -0.023,0.02 -0.029,0.04 -0.006,0.02 -0.009,0.048 -0.009,0.086z"/>
  <path id="14" class="fil0" d="M8.371 0.184l0 0.417 0.122 0 0.136 -0.26c0.011,-0.019 0.026,-0.05 0.045,-0.092 -0.004,0.011 -0.008,0.03 -0.013,0.058 -0.005,0.027 -0.007,0.049 -0.007,0.066l0 0.23 0.095 0 0 -0.417 -0.122 0 -0.136 0.263c-0.007,0.013 -0.022,0.044 -0.045,0.092 0.005,-0.012 0.009,-0.029 0.013,-0.051 0.004,-0.023 0.006,-0.043 0.006,-0.061l0 -0.242 -0.095 0zm0.185 -0.029c-0.032,0 -0.057,-0.006 -0.074,-0.019 -0.018,-0.013 -0.026,-0.035 -0.026,-0.067l0.055 0c0,0.014 0.003,0.023 0.01,0.029 0.007,0.005 0.019,0.008 0.037,0.008 0.02,0 0.033,-0.003 0.039,-0.008 0.006,-0.005 0.009,-0.015 0.009,-0.029l0.054 0c0,0.032 -0.009,0.054 -0.027,0.067 -0.018,0.012 -0.043,0.019 -0.076,0.019z"/>
  <path id="15" class="fil0" d="M9.075 0.171l0.104 0.209 -0.114 0.209 -0.064 -0.042 0.091 -0.167 -0.084 -0.172 0.067 -0.037zm-0.163 -0.003l0.105 0.21 -0.113 0.207 -0.064 -0.04 0.09 -0.168 -0.085 -0.171 0.067 -0.039z"/>
  <path class="fil0" d="M0.919 1.605c0.01,-0.013 0.017,-0.026 0.023,-0.038 0.005,-0.012 0.01,-0.027 0.013,-0.044 0.003,-0.017 0.004,-0.039 0.004,-0.065l0 -0.126 0.26 0 0 0.274 0.043 0 0 0.149 -0.073 0 0 -0.09 -0.232 0 0 0.09 -0.073 0 0 -0.149 0.036 0zm0.22 0l0 -0.215 -0.105 0 0 0.072c0,0.065 -0.012,0.113 -0.037,0.143l0.142 0z"/>
  <polygon id="1" class="fil0" points="1.387,1.578 1.387,1.664 1.308,1.664 1.308,1.578 "/>
  <path id="2" class="fil0" d="M1.929 1.189l-0.092 0.239c-0.008,0.022 -0.014,0.045 -0.018,0.069 -0.003,-0.034 -0.007,-0.056 -0.013,-0.066l-0.095 -0.242 -0.11 0 0.164 0.351c0.004,0.009 0.006,0.016 0.006,0.022 0,0.005 -0.002,0.01 -0.005,0.015 -0.007,0.009 -0.024,0.014 -0.05,0.014 -0.005,0 -0.016,-0.001 -0.032,-0.003l0 0.078c0.019,0.002 0.038,0.003 0.058,0.003 0.018,0 0.035,-0.003 0.05,-0.009 0.015,-0.006 0.029,-0.017 0.042,-0.032 0.013,-0.016 0.026,-0.037 0.038,-0.065l0.165 -0.372 -0.108 0z"/>
  <path id="3" class="fil0" d="M2.089 1.605c0.01,-0.013 0.017,-0.026 0.023,-0.038 0.005,-0.012 0.01,-0.027 0.013,-0.044 0.003,-0.017 0.004,-0.039 0.004,-0.065l0 -0.126 0.26 0 0 0.274 0.043 0 0 0.149 -0.073 0 0 -0.09 -0.232 0 0 0.09 -0.073 0 0 -0.149 0.036 0zm0.22 0l0 -0.215 -0.105 0 0 0.072c0,0.065 -0.012,0.113 -0.037,0.143l0.142 0z"/>
  <path id="4" class="fil0" d="M2.726 1.664l0.067 -0.2c0.005,-0.015 0.011,-0.032 0.018,-0.051 0.007,-0.019 0.011,-0.033 0.013,-0.041 -0.005,0.032 -0.007,0.06 -0.007,0.085l0 0.208 0.076 0 0 -0.333 -0.121 0 -0.074 0.224c-0.002,0.005 -0.005,0.023 -0.01,0.055 -0.005,-0.031 -0.008,-0.049 -0.01,-0.055l-0.074 -0.224 -0.12 0 0 0.333 0.075 0 0 -0.208c0,-0.024 -0.002,-0.052 -0.007,-0.085 0.002,0.008 0.007,0.024 0.016,0.049 0.009,0.025 0.014,0.039 0.015,0.043l0.067 0.2 0.078 0z"/>
  <path id="5" class="fil0" d="M3.258 1.332l-0.089 0.353c-0.005,0.021 -0.01,0.039 -0.016,0.054 -0.006,0.015 -0.013,0.028 -0.022,0.039 -0.009,0.011 -0.021,0.02 -0.035,0.026 -0.015,0.006 -0.033,0.009 -0.054,0.009 -0.015,0 -0.026,-0.001 -0.033,-0.003l0 -0.057c0.006,0.001 0.012,0.002 0.018,0.002 0.02,-0 0.034,-0.008 0.043,-0.022 0.009,-0.014 0.017,-0.038 0.024,-0.069l-0.042 0 -0.109 -0.333 0.084 0 0.083 0.283 0.065 -0.283 0.083 0z"/>
  <path id="6" class="fil0" d="M3.384 1.489c0,0.033 0.002,0.057 0.005,0.073 0.003,0.016 0.01,0.027 0.021,0.034 0.011,0.007 0.027,0.01 0.05,0.01 0.023,0 0.039,-0.004 0.05,-0.013 0.01,-0.008 0.017,-0.02 0.02,-0.036 0.003,-0.015 0.004,-0.038 0.004,-0.068 0,-0.03 -0.002,-0.053 -0.006,-0.067 -0.004,-0.014 -0.011,-0.024 -0.021,-0.028 -0.01,-0.005 -0.025,-0.007 -0.045,-0.007 -0.021,0 -0.037,0.003 -0.048,0.008 -0.011,0.005 -0.019,0.015 -0.023,0.029 -0.005,0.014 -0.007,0.035 -0.007,0.063zm0 0.129l0 0.187 -0.079 0 0 -0.474 0.076 0 -0.003 0.047 0.002 0c0.013,-0.02 0.027,-0.033 0.043,-0.041 0.016,-0.008 0.036,-0.011 0.06,-0.011 0.036,0 0.064,0.007 0.083,0.02 0.019,0.013 0.032,0.032 0.039,0.056 0.007,0.024 0.01,0.055 0.01,0.094 0,0.028 -0.001,0.051 -0.004,0.071 -0.003,0.02 -0.008,0.038 -0.016,0.053 -0.008,0.016 -0.021,0.028 -0.038,0.037 -0.017,0.009 -0.04,0.013 -0.068,0.013 -0.026,0 -0.047,-0.003 -0.063,-0.01 -0.016,-0.007 -0.03,-0.02 -0.041,-0.041z"/>
  <polygon id="7" class="fil0" points="3.769,1.664 3.849,1.664 3.849,1.393 3.955,1.393 3.955,1.332 3.662,1.332 3.662,1.393 3.769,1.393 "/>
  <path id="8" class="fil0" d="M4.221 1.539l0.078 0c0,0.024 -0.003,0.044 -0.008,0.061 -0.005,0.017 -0.013,0.03 -0.025,0.04 -0.012,0.01 -0.027,0.018 -0.046,0.023 -0.019,0.005 -0.043,0.007 -0.071,0.007 -0.039,0 -0.069,-0.005 -0.091,-0.016 -0.022,-0.011 -0.038,-0.028 -0.047,-0.053 -0.01,-0.025 -0.014,-0.059 -0.014,-0.102 0,-0.044 0.005,-0.078 0.014,-0.103 0.009,-0.025 0.025,-0.043 0.047,-0.053 0.022,-0.011 0.053,-0.016 0.091,-0.016 0.029,0 0.054,0.003 0.076,0.009 0.021,0.006 0.039,0.017 0.052,0.034 0.013,0.016 0.019,0.039 0.019,0.067l0 0.012 -0.077 0 0 -0.004c0,-0.016 -0.002,-0.028 -0.007,-0.036 -0.004,-0.008 -0.011,-0.013 -0.021,-0.016 -0.01,-0.003 -0.024,-0.004 -0.042,-0.004 -0.019,0 -0.033,0.003 -0.044,0.01 -0.01,0.007 -0.017,0.018 -0.022,0.033 -0.004,0.016 -0.006,0.038 -0.006,0.067 0,0.029 0.002,0.051 0.006,0.066 0.004,0.016 0.012,0.027 0.022,0.033 0.01,0.007 0.025,0.01 0.044,0.01 0.021,0 0.036,-0.002 0.046,-0.007 0.01,-0.004 0.017,-0.011 0.02,-0.021 0.003,-0.01 0.005,-0.024 0.005,-0.043z"/>
  <polygon id="9" class="fil0" points="4.442,1.332 4.442,1.46 4.461,1.46 4.554,1.332 4.645,1.332 4.526,1.488 4.668,1.664 4.572,1.664 4.461,1.515 4.442,1.515 4.442,1.664 4.362,1.664 4.362,1.332 "/>
  <path id="10" class="fil0" d="M4.718 1.332l0 0.333 0.097 0 0.109 -0.208c0.005,-0.01 0.017,-0.035 0.036,-0.075 -0.003,0.009 -0.007,0.024 -0.01,0.046 -0.004,0.022 -0.005,0.04 -0.005,0.053l0 0.184 0.076 0 0 -0.333 -0.097 0 -0.109 0.209c-0.007,0.013 -0.019,0.038 -0.036,0.075 0.003,-0.009 0.007,-0.023 0.01,-0.041 0.003,-0.018 0.005,-0.035 0.005,-0.049l0 -0.194 -0.076 0z"/>
  <path id="11" class="fil0" d="M5.314 1.559l0.079 0 0 0.012c0,0.027 -0.006,0.048 -0.018,0.062 -0.012,0.014 -0.029,0.024 -0.051,0.029 -0.022,0.005 -0.05,0.008 -0.084,0.008 -0.039,0 -0.069,-0.005 -0.091,-0.016 -0.022,-0.011 -0.038,-0.028 -0.047,-0.053 -0.009,-0.025 -0.014,-0.059 -0.014,-0.102 0,-0.043 0.005,-0.077 0.015,-0.102 0.01,-0.025 0.026,-0.043 0.048,-0.054 0.022,-0.011 0.052,-0.017 0.09,-0.017 0.038,0 0.068,0.006 0.09,0.017 0.022,0.011 0.039,0.029 0.048,0.053 0.01,0.024 0.015,0.056 0.015,0.095l0 0.023 -0.226 0c0,0.027 0.002,0.047 0.006,0.061 0.004,0.014 0.011,0.023 0.022,0.029 0.01,0.005 0.025,0.008 0.044,0.008 0.018,0 0.033,-0.001 0.043,-0.004 0.01,-0.003 0.018,-0.007 0.024,-0.014 0.005,-0.007 0.008,-0.016 0.008,-0.029l0 -0.006zm0.001 -0.096c0,-0.02 -0.002,-0.035 -0.007,-0.047 -0.005,-0.011 -0.013,-0.019 -0.023,-0.024 -0.011,-0.005 -0.026,-0.007 -0.044,-0.007 -0.019,0 -0.033,0.002 -0.044,0.007 -0.01,0.005 -0.018,0.013 -0.023,0.024 -0.005,0.011 -0.007,0.027 -0.007,0.047l0.148 0z"/>
  <polygon id="12" class="fil0" points="5.724,1.189 5.724,1.383 5.767,1.383 5.925,1.189 6.037,1.189 5.845,1.42 6.058,1.664 5.942,1.664 5.767,1.461 5.724,1.461 5.724,1.664 5.633,1.664 5.633,1.189 "/>
  <path id="13" class="fil0" d="M6.137 1.332l0.278 0 0 0.333 -0.079 0 0 -0.271 -0.12 0 0 0.169c0,0.021 -0.003,0.039 -0.01,0.055 -0.006,0.016 -0.016,0.028 -0.03,0.037 -0.013,0.009 -0.03,0.013 -0.05,0.013 -0.022,0 -0.039,-0.001 -0.049,-0.003l0 -0.06c0.008,0.001 0.014,0.002 0.02,0.002 0.015,0 0.025,-0.004 0.031,-0.012 0.006,-0.008 0.008,-0.021 0.008,-0.04l0 -0.224z"/>
  <path id="14" class="fil0" d="M6.58 1.461l0.053 0c0.003,-0.03 0.009,-0.054 0.018,-0.074 0.009,-0.019 0.025,-0.034 0.048,-0.045 0.022,-0.011 0.053,-0.016 0.091,-0.016 0.041,0 0.073,0.005 0.096,0.016 0.023,0.011 0.039,0.028 0.049,0.053 0.01,0.025 0.014,0.059 0.014,0.102 0,0.033 -0.003,0.06 -0.008,0.082 -0.005,0.022 -0.014,0.039 -0.026,0.053 -0.012,0.013 -0.028,0.023 -0.049,0.029 -0.02,0.006 -0.046,0.009 -0.076,0.009 -0.03,0 -0.054,-0.003 -0.074,-0.009 -0.02,-0.006 -0.035,-0.015 -0.047,-0.028 -0.012,-0.013 -0.02,-0.028 -0.025,-0.045 -0.005,-0.018 -0.009,-0.04 -0.011,-0.067l-0.053 0 0 0.144 -0.079 0 0 -0.333 0.079 0 0 0.13zm0.135 0.036c0,0.024 0.001,0.042 0.004,0.057 0.003,0.014 0.007,0.025 0.013,0.033 0.006,0.008 0.013,0.013 0.022,0.016 0.009,0.003 0.021,0.005 0.037,0.005 0.02,0 0.035,-0.003 0.046,-0.009 0.011,-0.006 0.019,-0.017 0.024,-0.033 0.005,-0.016 0.007,-0.039 0.007,-0.07 0,-0.03 -0.002,-0.053 -0.007,-0.069 -0.005,-0.016 -0.013,-0.026 -0.024,-0.032 -0.011,-0.006 -0.026,-0.009 -0.046,-0.009 -0.02,0 -0.035,0.003 -0.046,0.008 -0.011,0.006 -0.018,0.016 -0.023,0.032 -0.005,0.016 -0.007,0.039 -0.007,0.069z"/>
  <path id="15" class="fil0" d="M7.305 1.664l0 -0.334 -0.08 0 0 0.098c0,0.018 -0.005,0.031 -0.016,0.038 -0.011,0.007 -0.029,0.01 -0.056,0.01 -0.018,0 -0.032,-0.001 -0.041,-0.004 -0.009,-0.003 -0.015,-0.007 -0.018,-0.014 -0.003,-0.007 -0.005,-0.016 -0.005,-0.029l0 -0.098 -0.079 0 0 0.102c0,0.024 0.004,0.044 0.012,0.059 0.008,0.015 0.02,0.026 0.037,0.033 0.017,0.007 0.04,0.011 0.068,0.011 0.027,0 0.049,-0.004 0.064,-0.01 0.016,-0.007 0.027,-0.018 0.034,-0.035l0 0.173 0.08 0z"/>
  <path id="16" class="fil0" d="M7.388 1.332l0 0.333 0.097 0 0.109 -0.208c0.005,-0.01 0.017,-0.035 0.036,-0.075 -0.003,0.009 -0.007,0.024 -0.01,0.046 -0.004,0.022 -0.005,0.04 -0.005,0.053l0 0.184 0.076 0 0 -0.333 -0.097 0 -0.109 0.209c-0.007,0.013 -0.019,0.038 -0.036,0.075 0.003,-0.009 0.007,-0.023 0.01,-0.041 0.003,-0.018 0.005,-0.035 0.005,-0.049l0 -0.194 -0.076 0z"/>
  <path id="17" class="fil0" d="M7.849 1.579l0 0.083c0,0.021 -0.002,0.038 -0.006,0.049 -0.004,0.012 -0.012,0.02 -0.023,0.025 -0.011,0.005 -0.027,0.008 -0.049,0.008 -0.004,0 -0.007,-0 -0.008,-0.001l0 -0.038c0.014,-0 0.023,-0.003 0.029,-0.007 0.006,-0.004 0.009,-0.013 0.009,-0.025l0.001 -0.01 -0.032 0 0 -0.085 0.08 0z"/>
  <path id="18" class="fil0" d="M8.384 1.332l-0.089 0.353c-0.005,0.021 -0.01,0.039 -0.016,0.054 -0.006,0.015 -0.013,0.028 -0.022,0.039 -0.009,0.011 -0.021,0.02 -0.035,0.026 -0.015,0.006 -0.033,0.009 -0.054,0.009 -0.015,0 -0.026,-0.001 -0.033,-0.003l0 -0.057c0.006,0.001 0.012,0.002 0.018,0.002 0.02,-0 0.034,-0.008 0.043,-0.022 0.009,-0.014 0.017,-0.038 0.024,-0.069l-0.042 0 -0.109 -0.333 0.084 0 0.083 0.283 0.065 -0.283 0.083 0z"/>
  <path id="19" class="fil0" d="M8.461 1.332l0.278 0 0 0.333 -0.079 0 0 -0.271 -0.12 0 0 0.169c0,0.021 -0.003,0.039 -0.01,0.055 -0.006,0.016 -0.016,0.028 -0.03,0.037 -0.013,0.009 -0.03,0.013 -0.05,0.013 -0.022,0 -0.039,-0.001 -0.049,-0.003l0 -0.06c0.008,0.001 0.014,0.002 0.02,0.002 0.015,0 0.025,-0.004 0.031,-0.012 0.006,-0.008 0.008,-0.021 0.008,-0.04l0 -0.224z"/>
  <polygon id="20" class="fil0" points="8.899,1.578 8.899,1.664 8.82,1.664 8.82,1.578 "/>
  <polygon id="21" class="fil0" points="9.145,1.664 9.145,1.189 9.236,1.189 9.236,1.586 9.432,1.586 9.432,1.189 9.523,1.189 9.523,1.586 9.719,1.586 9.719,1.189 9.81,1.189 9.81,1.664 "/>
  <polygon id="22" class="fil0" points="9.971,1.332 9.971,1.46 9.99,1.46 10.084,1.332 10.174,1.332 10.056,1.488 10.197,1.664 10.101,1.664 9.99,1.515 9.971,1.515 9.971,1.664 9.892,1.664 9.892,1.332 "/>
  <path id="23" class="fil0" d="M10.234 1.497c0,-0.044 0.005,-0.078 0.014,-0.102 0.009,-0.024 0.025,-0.042 0.048,-0.053 0.022,-0.011 0.054,-0.016 0.095,-0.016 0.041,0 0.073,0.005 0.095,0.016 0.023,0.011 0.039,0.028 0.048,0.053 0.01,0.024 0.014,0.059 0.014,0.102 0,0.032 -0.003,0.06 -0.008,0.081 -0.005,0.022 -0.014,0.039 -0.026,0.053 -0.012,0.013 -0.028,0.023 -0.048,0.029 -0.02,0.006 -0.045,0.009 -0.076,0.009 -0.03,0 -0.056,-0.003 -0.076,-0.009 -0.02,-0.006 -0.036,-0.016 -0.048,-0.029 -0.012,-0.013 -0.02,-0.031 -0.025,-0.053 -0.005,-0.022 -0.008,-0.049 -0.008,-0.082zm0.081 0c0,0.031 0.002,0.054 0.007,0.07 0.005,0.016 0.012,0.026 0.023,0.032 0.011,0.006 0.026,0.009 0.046,0.009 0.02,0 0.035,-0.003 0.046,-0.009 0.011,-0.006 0.019,-0.017 0.023,-0.032 0.005,-0.016 0.007,-0.039 0.007,-0.07 0,-0.023 -0.001,-0.042 -0.004,-0.056 -0.003,-0.014 -0.007,-0.025 -0.013,-0.033 -0.006,-0.008 -0.013,-0.013 -0.023,-0.016 -0.009,-0.003 -0.022,-0.005 -0.037,-0.005 -0.02,0 -0.035,0.003 -0.046,0.008 -0.011,0.006 -0.018,0.016 -0.023,0.032 -0.005,0.016 -0.007,0.039 -0.007,0.069z"/>
  <path id="24" class="fil0" d="M10.646 1.332l0.278 0 0 0.333 -0.079 0 0 -0.271 -0.12 0 0 0.169c0,0.021 -0.003,0.039 -0.01,0.055 -0.006,0.016 -0.016,0.028 -0.03,0.037 -0.013,0.009 -0.03,0.013 -0.05,0.013 -0.022,0 -0.039,-0.001 -0.049,-0.003l0 -0.06c0.008,0.001 0.014,0.002 0.02,0.002 0.015,0 0.025,-0.004 0.031,-0.012 0.006,-0.008 0.008,-0.021 0.008,-0.04l0 -0.224z"/>
  <path id="25" class="fil0" d="M11.01 1.664l0 -0.334 0.079 0 0 0.127 0.111 0c0.031,0 0.054,0.008 0.071,0.025 0.017,0.017 0.025,0.043 0.025,0.077 0,0.035 -0.009,0.06 -0.026,0.078 -0.017,0.017 -0.041,0.026 -0.071,0.026l-0.191 0zm0.079 -0.149l0 0.091 0.079 0c0.017,0 0.029,-0.003 0.037,-0.01 0.008,-0.007 0.011,-0.019 0.011,-0.036 0,-0.018 -0.004,-0.03 -0.011,-0.036 -0.007,-0.006 -0.02,-0.009 -0.037,-0.009l-0.079 0z"/>
  <polygon id="26" class="fil0" points="11.446,1.52 11.586,1.52 11.586,1.664 11.665,1.664 11.665,1.332 11.586,1.332 11.586,1.458 11.446,1.458 11.446,1.332 11.366,1.332 11.366,1.664 11.446,1.664 "/>
  <path id="27" class="fil0" d="M11.964 1.664l0.006 -0.046 -0.002 0c-0.007,0.015 -0.015,0.026 -0.025,0.034 -0.01,0.007 -0.021,0.012 -0.034,0.015 -0.013,0.002 -0.03,0.003 -0.051,0.003 -0.028,0 -0.051,-0.003 -0.069,-0.01 -0.018,-0.007 -0.031,-0.018 -0.039,-0.033 -0.009,-0.015 -0.013,-0.036 -0.013,-0.061 0,-0.021 0.002,-0.039 0.007,-0.052 0.005,-0.014 0.012,-0.025 0.022,-0.033 0.01,-0.008 0.023,-0.014 0.039,-0.017 0.016,-0.003 0.037,-0.005 0.062,-0.005 0.029,0 0.05,0.003 0.063,0.01 0.013,0.006 0.023,0.017 0.03,0.033l0.004 0 0 -0.057c0,-0.018 -0.002,-0.032 -0.007,-0.042 -0.004,-0.01 -0.012,-0.016 -0.022,-0.02 -0.01,-0.004 -0.025,-0.005 -0.044,-0.005 -0.024,0 -0.04,0.003 -0.049,0.01 -0.009,0.007 -0.013,0.02 -0.013,0.039l-0.08 0c0.001,-0.02 0.005,-0.037 0.012,-0.051 0.007,-0.013 0.017,-0.024 0.029,-0.031 0.012,-0.007 0.026,-0.012 0.043,-0.015 0.016,-0.003 0.035,-0.004 0.057,-0.004 0.035,0 0.063,0.003 0.085,0.008 0.022,0.005 0.039,0.017 0.051,0.034 0.012,0.017 0.019,0.043 0.019,0.077l0 0.219 -0.079 0zm0 -0.1c0,-0.019 -0.005,-0.033 -0.016,-0.04 -0.011,-0.007 -0.031,-0.01 -0.062,-0.01 -0.018,0 -0.032,0.002 -0.041,0.005 -0.01,0.003 -0.017,0.008 -0.021,0.015 -0.004,0.007 -0.006,0.017 -0.006,0.03 0,0.018 0.005,0.031 0.015,0.039 0.01,0.008 0.027,0.011 0.052,0.011 0.029,0 0.049,-0.003 0.061,-0.01 0.012,-0.007 0.018,-0.02 0.018,-0.04z"/>
  <path id="28" class="fil0" d="M12.399 1.332l0 0.334 -0.079 0 0 -0.128 -0.061 0 -0.075 0.128 -0.085 0 0.083 -0.138c-0.048,-0.014 -0.072,-0.045 -0.072,-0.095 0,-0.067 0.031,-0.101 0.094,-0.101l0.195 0zm-0.079 0.148l0 -0.09 -0.084 0c-0.016,0 -0.028,0.003 -0.035,0.01 -0.007,0.006 -0.01,0.018 -0.01,0.035 0,0.017 0.004,0.029 0.013,0.036 0.009,0.006 0.022,0.01 0.039,0.01l0.077 0z"/>
  <path id="29" class="fil0" d="M12.558 1.579l0 0.083c0,0.021 -0.002,0.038 -0.006,0.049 -0.004,0.012 -0.012,0.02 -0.023,0.025 -0.011,0.005 -0.027,0.008 -0.049,0.008 -0.004,0 -0.007,-0 -0.008,-0.001l0 -0.038c0.014,-0 0.023,-0.003 0.029,-0.007 0.006,-0.004 0.009,-0.013 0.009,-0.025l0.001 -0.01 -0.032 0 0 -0.085 0.08 0z"/>
  <path id="30" class="fil0" d="M12.814 1.605c0.01,-0.013 0.017,-0.026 0.023,-0.038 0.005,-0.012 0.01,-0.027 0.013,-0.044 0.003,-0.017 0.004,-0.039 0.004,-0.065l0 -0.126 0.26 0 0 0.274 0.043 0 0 0.149 -0.073 0 0 -0.09 -0.232 0 0 0.09 -0.073 0 0 -0.149 0.036 0zm0.22 0l0 -0.215 -0.105 0 0 0.072c0,0.065 -0.012,0.113 -0.037,0.143l0.142 0z"/>
  <polygon id="31" class="fil0" points="13.282,1.578 13.282,1.664 13.202,1.664 13.202,1.578 "/>
  <path id="32" class="fil0" d="M13.851 1.189l0 0.306 0.055 0 0 0.068 -0.055 0 0 0.102 -0.088 0 0 -0.102 -0.258 0 0 -0.098 0.212 -0.275 0.134 0zm-0.274 0.306l0.186 0 0 -0.24 -0.186 0.24z"/>
  <path class="fil0" d="M1.068 2.424c-0.029,0 -0.05,0.002 -0.064,0.005 -0.013,0.003 -0.022,0.01 -0.027,0.019 -0.005,0.01 -0.007,0.025 -0.007,0.045 0,0.02 0.003,0.035 0.008,0.045 0.005,0.011 0.015,0.018 0.029,0.023 0.014,0.005 0.034,0.007 0.062,0.007 0.027,0 0.048,-0.002 0.062,-0.007 0.014,-0.004 0.024,-0.012 0.029,-0.022 0.005,-0.01 0.008,-0.025 0.008,-0.045 0,-0.021 -0.003,-0.036 -0.008,-0.046 -0.005,-0.01 -0.014,-0.016 -0.028,-0.02 -0.014,-0.003 -0.035,-0.005 -0.063,-0.005zm0 -0.2c-0.026,0 -0.045,0.002 -0.058,0.006 -0.013,0.004 -0.022,0.01 -0.026,0.02 -0.005,0.01 -0.007,0.024 -0.007,0.042 0,0.015 0.001,0.026 0.004,0.035 0.003,0.008 0.007,0.015 0.014,0.019 0.007,0.004 0.016,0.007 0.027,0.009 0.011,0.002 0.027,0.002 0.047,0.002 0.02,0 0.036,-0.001 0.048,-0.002 0.011,-0.002 0.02,-0.004 0.027,-0.009 0.006,-0.004 0.011,-0.011 0.013,-0.019 0.003,-0.008 0.004,-0.02 0.004,-0.035 0,-0.019 -0.003,-0.033 -0.008,-0.043 -0.005,-0.009 -0.014,-0.016 -0.027,-0.019 -0.013,-0.004 -0.032,-0.005 -0.057,-0.005zm-0.102 0.165c-0.02,-0.006 -0.036,-0.014 -0.047,-0.024 -0.011,-0.01 -0.019,-0.021 -0.024,-0.035 -0.004,-0.013 -0.007,-0.03 -0.007,-0.049 0,-0.024 0.003,-0.045 0.01,-0.061 0.006,-0.016 0.017,-0.029 0.031,-0.039 0.014,-0.01 0.032,-0.017 0.055,-0.021 0.023,-0.004 0.051,-0.006 0.084,-0.006 0.045,0 0.08,0.004 0.105,0.012 0.026,0.008 0.044,0.021 0.055,0.039 0.011,0.018 0.017,0.044 0.017,0.077 0,0.02 -0.002,0.036 -0.005,0.049 -0.004,0.013 -0.011,0.024 -0.021,0.034 -0.011,0.01 -0.026,0.018 -0.047,0.024 0.021,0.005 0.038,0.012 0.049,0.022 0.012,0.009 0.02,0.021 0.025,0.035 0.005,0.014 0.007,0.032 0.007,0.053 0,0.027 -0.003,0.049 -0.009,0.066 -0.006,0.018 -0.016,0.032 -0.03,0.043 -0.014,0.011 -0.033,0.019 -0.057,0.024 -0.024,0.005 -0.054,0.008 -0.09,0.008 -0.036,0 -0.066,-0.003 -0.09,-0.008 -0.024,-0.005 -0.043,-0.013 -0.057,-0.024 -0.014,-0.011 -0.024,-0.026 -0.03,-0.043 -0.006,-0.018 -0.009,-0.04 -0.009,-0.066 0,-0.021 0.003,-0.039 0.008,-0.053 0.005,-0.014 0.014,-0.026 0.026,-0.035 0.012,-0.009 0.028,-0.016 0.049,-0.021z"/>
  <path id="1" class="fil0" d="M1.653 2.151l0 0.074c-0.024,0 -0.04,0.005 -0.049,0.016 -0.009,0.011 -0.013,0.03 -0.013,0.059l0 0.252c0,0.031 0.004,0.052 0.011,0.064 0.008,0.011 0.02,0.017 0.038,0.017l0.013 0 0 0.074c-0.034,0 -0.062,-0.004 -0.082,-0.011 -0.02,-0.008 -0.035,-0.019 -0.045,-0.034 -0.01,-0.015 -0.016,-0.034 -0.019,-0.057 -0.003,-0.023 -0.004,-0.053 -0.004,-0.091l0 -0.17c0,-0.037 0.001,-0.066 0.004,-0.088 0.003,-0.022 0.009,-0.041 0.019,-0.057 0.01,-0.016 0.025,-0.027 0.045,-0.035 0.02,-0.008 0.048,-0.012 0.082,-0.012z"/>
  <path id="2" class="fil0" d="M1.869 2.424l0 -0.069 0.051 0c0.023,0 0.039,-0.001 0.049,-0.004 0.01,-0.003 0.017,-0.009 0.02,-0.018 0.004,-0.009 0.006,-0.025 0.006,-0.047 0,-0.017 -0.003,-0.03 -0.008,-0.039 -0.005,-0.009 -0.014,-0.015 -0.027,-0.018 -0.013,-0.003 -0.032,-0.005 -0.057,-0.005 -0.028,0 -0.048,0.002 -0.06,0.007 -0.013,0.004 -0.021,0.013 -0.025,0.024 -0.004,0.012 -0.006,0.03 -0.006,0.056l-0.085 0c0,-0.04 0.006,-0.071 0.017,-0.094 0.011,-0.023 0.029,-0.04 0.054,-0.05 0.025,-0.01 0.058,-0.015 0.101,-0.015 0.046,0 0.082,0.004 0.109,0.012 0.026,0.008 0.046,0.021 0.057,0.039 0.012,0.018 0.018,0.043 0.018,0.074 0,0.022 -0.002,0.04 -0.005,0.055 -0.004,0.015 -0.011,0.027 -0.022,0.037 -0.011,0.01 -0.027,0.016 -0.049,0.019l0 0.003c0.021,0.003 0.038,0.008 0.05,0.016 0.012,0.008 0.021,0.019 0.026,0.033 0.005,0.014 0.008,0.032 0.008,0.054 0,0.025 -0.003,0.046 -0.008,0.063 -0.005,0.017 -0.014,0.032 -0.028,0.044 -0.013,0.012 -0.032,0.021 -0.056,0.027 -0.024,0.006 -0.055,0.009 -0.092,0.009 -0.046,0 -0.083,-0.005 -0.11,-0.014 -0.027,-0.009 -0.047,-0.024 -0.058,-0.044 -0.012,-0.02 -0.018,-0.047 -0.018,-0.081l0 -0.026 0.085 0c0,0.028 0.002,0.048 0.006,0.061 0.004,0.012 0.013,0.021 0.027,0.026 0.014,0.005 0.037,0.007 0.068,0.007 0.026,0 0.047,-0.003 0.06,-0.008 0.014,-0.005 0.023,-0.013 0.029,-0.024 0.005,-0.011 0.008,-0.026 0.008,-0.045 0,-0.019 -0.002,-0.034 -0.007,-0.043 -0.005,-0.009 -0.013,-0.016 -0.024,-0.019 -0.011,-0.003 -0.026,-0.005 -0.046,-0.005l-0.056 0z"/>
  <path id="3" class="fil0" d="M2.496 2.158l0 0.306 0.055 0 0 0.068 -0.055 0 0 0.102 -0.088 0 0 -0.102 -0.258 0 0 -0.098 0.212 -0.275 0.134 0zm-0.274 0.306l0.186 0 0 -0.24 -0.186 0.24z"/>
  <polygon id="4" class="fil0" points="2.893,2.158 2.893,2.633 2.805,2.633 2.805,2.234 2.682,2.357 2.629,2.301 2.782,2.158 "/>
  <path id="5" class="fil0" d="M3.391 2.158l0 0.306 0.055 0 0 0.068 -0.055 0 0 0.102 -0.088 0 0 -0.102 -0.258 0 0 -0.098 0.212 -0.275 0.134 0zm-0.274 0.306l0.186 0 0 -0.24 -0.186 0.24z"/>
  <polygon id="6" class="fil0" points="3.787,2.158 3.787,2.633 3.7,2.633 3.7,2.234 3.576,2.357 3.524,2.301 3.677,2.158 "/>
  <path id="7" class="fil0" d="M3.958 2.151l0 0.074c0.024,0 0.04,0.006 0.049,0.017 0.009,0.011 0.013,0.031 0.013,0.061l0 0.246c0,0.032 -0.004,0.054 -0.012,0.066 -0.008,0.012 -0.021,0.018 -0.039,0.018l-0.013 0 0 0.074c0.034,0 0.062,-0.004 0.082,-0.012 0.02,-0.008 0.035,-0.019 0.045,-0.035 0.01,-0.015 0.016,-0.034 0.019,-0.057 0.003,-0.023 0.005,-0.053 0.005,-0.091l0 -0.17c0,-0.036 -0.001,-0.065 -0.005,-0.088 -0.003,-0.022 -0.01,-0.042 -0.02,-0.057 -0.01,-0.016 -0.025,-0.027 -0.046,-0.035 -0.02,-0.008 -0.048,-0.012 -0.082,-0.012z"/>
  <path id="8" class="fil0" d="M4.495 2.424l0 -0.069 0.051 0c0.023,0 0.039,-0.001 0.049,-0.004 0.01,-0.003 0.017,-0.009 0.02,-0.018 0.004,-0.009 0.006,-0.025 0.006,-0.047 0,-0.017 -0.003,-0.03 -0.008,-0.039 -0.005,-0.009 -0.014,-0.015 -0.027,-0.018 -0.013,-0.003 -0.032,-0.005 -0.057,-0.005 -0.028,0 -0.048,0.002 -0.06,0.007 -0.013,0.004 -0.021,0.013 -0.025,0.024 -0.004,0.012 -0.006,0.03 -0.006,0.056l-0.085 0c0,-0.04 0.006,-0.071 0.017,-0.094 0.011,-0.023 0.029,-0.04 0.054,-0.05 0.025,-0.01 0.058,-0.015 0.101,-0.015 0.046,0 0.082,0.004 0.109,0.012 0.026,0.008 0.046,0.021 0.057,0.039 0.012,0.018 0.018,0.043 0.018,0.074 0,0.022 -0.002,0.04 -0.005,0.055 -0.004,0.015 -0.011,0.027 -0.022,0.037 -0.011,0.01 -0.027,0.016 -0.049,0.019l0 0.003c0.021,0.003 0.038,0.008 0.05,0.016 0.012,0.008 0.021,0.019 0.026,0.033 0.005,0.014 0.008,0.032 0.008,0.054 0,0.025 -0.003,0.046 -0.008,0.063 -0.005,0.017 -0.014,0.032 -0.028,0.044 -0.013,0.012 -0.032,0.021 -0.056,0.027 -0.024,0.006 -0.055,0.009 -0.092,0.009 -0.046,0 -0.083,-0.005 -0.11,-0.014 -0.027,-0.009 -0.047,-0.024 -0.058,-0.044 -0.012,-0.02 -0.018,-0.047 -0.018,-0.081l0 -0.026 0.085 0c0,0.028 0.002,0.048 0.006,0.061 0.004,0.012 0.013,0.021 0.027,0.026 0.014,0.005 0.037,0.007 0.068,0.007 0.026,0 0.047,-0.003 0.06,-0.008 0.014,-0.005 0.023,-0.013 0.029,-0.024 0.005,-0.011 0.008,-0.026 0.008,-0.045 0,-0.019 -0.002,-0.034 -0.007,-0.043 -0.005,-0.009 -0.013,-0.016 -0.024,-0.019 -0.011,-0.003 -0.026,-0.005 -0.046,-0.005l-0.056 0z"/>
  <path id="9" class="fil0" d="M5.111 2.424l0 -0.069 0.051 0c0.023,0 0.039,-0.001 0.049,-0.004 0.01,-0.003 0.017,-0.009 0.02,-0.018 0.004,-0.009 0.006,-0.025 0.006,-0.047 0,-0.017 -0.003,-0.03 -0.008,-0.039 -0.005,-0.009 -0.014,-0.015 -0.027,-0.018 -0.013,-0.003 -0.032,-0.005 -0.057,-0.005 -0.028,0 -0.048,0.002 -0.06,0.007 -0.013,0.004 -0.021,0.013 -0.025,0.024 -0.004,0.012 -0.006,0.03 -0.006,0.056l-0.085 0c0,-0.04 0.006,-0.071 0.017,-0.094 0.011,-0.023 0.029,-0.04 0.054,-0.05 0.025,-0.01 0.058,-0.015 0.101,-0.015 0.046,0 0.082,0.004 0.109,0.012 0.026,0.008 0.046,0.021 0.057,0.039 0.012,0.018 0.018,0.043 0.018,0.074 0,0.022 -0.002,0.04 -0.005,0.055 -0.004,0.015 -0.011,0.027 -0.022,0.037 -0.011,0.01 -0.027,0.016 -0.049,0.019l0 0.003c0.021,0.003 0.038,0.008 0.05,0.016 0.012,0.008 0.021,0.019 0.026,0.033 0.005,0.014 0.008,0.032 0.008,0.054 0,0.025 -0.003,0.046 -0.008,0.063 -0.005,0.017 -0.014,0.032 -0.028,0.044 -0.013,0.012 -0.032,0.021 -0.056,0.027 -0.024,0.006 -0.055,0.009 -0.092,0.009 -0.046,0 -0.083,-0.005 -0.11,-0.014 -0.027,-0.009 -0.047,-0.024 -0.058,-0.044 -0.012,-0.02 -0.018,-0.047 -0.018,-0.081l0 -0.026 0.085 0c0,0.028 0.002,0.048 0.006,0.061 0.004,0.012 0.013,0.021 0.027,0.026 0.014,0.005 0.037,0.007 0.068,0.007 0.026,0 0.047,-0.003 0.06,-0.008 0.014,-0.005 0.023,-0.013 0.029,-0.024 0.005,-0.011 0.008,-0.026 0.008,-0.045 0,-0.019 -0.002,-0.034 -0.007,-0.043 -0.005,-0.009 -0.013,-0.016 -0.024,-0.019 -0.011,-0.003 -0.026,-0.005 -0.046,-0.005l-0.056 0z"/>
  <path id="10" class="fil0" d="M5.761 2.157l0 0.069 -0.253 0 0 0.118c0.012,-0.016 0.027,-0.026 0.045,-0.03 0.018,-0.005 0.04,-0.007 0.066,-0.007 0.028,0 0.053,0.003 0.073,0.009 0.02,0.006 0.037,0.015 0.05,0.027 0.013,0.012 0.023,0.028 0.029,0.048 0.006,0.019 0.009,0.043 0.009,0.07 0,0.034 -0.002,0.062 -0.007,0.083 -0.005,0.022 -0.013,0.039 -0.026,0.054 -0.013,0.014 -0.031,0.025 -0.055,0.031 -0.024,0.007 -0.055,0.01 -0.095,0.01 -0.034,0 -0.063,-0.002 -0.085,-0.007 -0.023,-0.004 -0.041,-0.012 -0.055,-0.023 -0.014,-0.011 -0.025,-0.025 -0.032,-0.044 -0.007,-0.019 -0.01,-0.042 -0.01,-0.07l0.088 0c0,0.02 0.003,0.035 0.009,0.045 0.006,0.01 0.015,0.017 0.027,0.021 0.012,0.003 0.028,0.005 0.048,0.005 0.03,0 0.052,-0.003 0.066,-0.008 0.015,-0.005 0.024,-0.014 0.029,-0.027 0.005,-0.013 0.008,-0.033 0.008,-0.059 0,-0.025 -0.002,-0.045 -0.007,-0.058 -0.004,-0.013 -0.012,-0.023 -0.024,-0.028 -0.011,-0.006 -0.028,-0.008 -0.049,-0.008l-0.032 0c-0.02,0 -0.036,0.002 -0.049,0.006 -0.013,0.004 -0.021,0.013 -0.024,0.027l-0.08 0 0 -0.254 0.333 0z"/>
  <path id="11" class="fil0" d="M6.21 2.424c-0.029,0 -0.05,0.002 -0.064,0.005 -0.013,0.003 -0.022,0.01 -0.027,0.019 -0.005,0.01 -0.007,0.025 -0.007,0.045 0,0.02 0.003,0.035 0.008,0.045 0.005,0.011 0.015,0.018 0.029,0.023 0.014,0.005 0.034,0.007 0.062,0.007 0.027,0 0.048,-0.002 0.062,-0.007 0.014,-0.004 0.024,-0.012 0.029,-0.022 0.005,-0.01 0.008,-0.025 0.008,-0.045 0,-0.021 -0.003,-0.036 -0.008,-0.046 -0.005,-0.01 -0.014,-0.016 -0.028,-0.02 -0.014,-0.003 -0.035,-0.005 -0.063,-0.005zm0 -0.2c-0.026,0 -0.045,0.002 -0.058,0.006 -0.013,0.004 -0.022,0.01 -0.026,0.02 -0.005,0.01 -0.007,0.024 -0.007,0.042 0,0.015 0.001,0.026 0.004,0.035 0.003,0.008 0.007,0.015 0.014,0.019 0.007,0.004 0.016,0.007 0.027,0.009 0.011,0.002 0.027,0.002 0.047,0.002 0.02,0 0.036,-0.001 0.048,-0.002 0.011,-0.002 0.02,-0.004 0.027,-0.009 0.006,-0.004 0.011,-0.011 0.013,-0.019 0.003,-0.008 0.004,-0.02 0.004,-0.035 0,-0.019 -0.003,-0.033 -0.008,-0.043 -0.005,-0.009 -0.014,-0.016 -0.027,-0.019 -0.013,-0.004 -0.032,-0.005 -0.057,-0.005zm-0.102 0.165c-0.02,-0.006 -0.036,-0.014 -0.047,-0.024 -0.011,-0.01 -0.019,-0.021 -0.024,-0.035 -0.004,-0.013 -0.007,-0.03 -0.007,-0.049 0,-0.024 0.003,-0.045 0.01,-0.061 0.006,-0.016 0.017,-0.029 0.031,-0.039 0.014,-0.01 0.032,-0.017 0.055,-0.021 0.023,-0.004 0.051,-0.006 0.084,-0.006 0.045,0 0.08,0.004 0.105,0.012 0.026,0.008 0.044,0.021 0.055,0.039 0.011,0.018 0.017,0.044 0.017,0.077 0,0.02 -0.002,0.036 -0.005,0.049 -0.004,0.013 -0.011,0.024 -0.021,0.034 -0.011,0.01 -0.026,0.018 -0.047,0.024 0.021,0.005 0.038,0.012 0.049,0.022 0.012,0.009 0.02,0.021 0.025,0.035 0.005,0.014 0.007,0.032 0.007,0.053 0,0.027 -0.003,0.049 -0.009,0.066 -0.006,0.018 -0.016,0.032 -0.03,0.043 -0.014,0.011 -0.033,0.019 -0.057,0.024 -0.024,0.005 -0.054,0.008 -0.09,0.008 -0.036,0 -0.066,-0.003 -0.09,-0.008 -0.024,-0.005 -0.043,-0.013 -0.057,-0.024 -0.014,-0.011 -0.024,-0.026 -0.03,-0.043 -0.006,-0.018 -0.009,-0.04 -0.009,-0.066 0,-0.021 0.003,-0.039 0.008,-0.053 0.005,-0.014 0.014,-0.026 0.026,-0.035 0.012,-0.009 0.028,-0.016 0.049,-0.021z"/>
  <path id="12" class="fil0" d="M6.863 2.396c0,0.054 -0.002,0.096 -0.007,0.126 -0.005,0.03 -0.014,0.054 -0.028,0.071 -0.014,0.017 -0.033,0.029 -0.059,0.036 -0.026,0.007 -0.062,0.01 -0.107,0.01 -0.045,0 -0.081,-0.003 -0.106,-0.01 -0.025,-0.007 -0.045,-0.019 -0.058,-0.036 -0.013,-0.017 -0.022,-0.041 -0.027,-0.071 -0.005,-0.03 -0.007,-0.072 -0.007,-0.126 0,-0.054 0.002,-0.096 0.007,-0.126 0.005,-0.03 0.014,-0.054 0.027,-0.071 0.013,-0.017 0.033,-0.029 0.059,-0.036 0.026,-0.007 0.061,-0.01 0.107,-0.01 0.046,0 0.082,0.003 0.107,0.01 0.026,0.007 0.045,0.019 0.059,0.036 0.014,0.017 0.023,0.041 0.027,0.071 0.005,0.03 0.007,0.072 0.007,0.126zm-0.311 0c0,0.043 0.001,0.075 0.003,0.095 0.002,0.02 0.006,0.035 0.013,0.046 0.007,0.01 0.017,0.017 0.031,0.02 0.014,0.003 0.035,0.005 0.063,0.005 0.029,0 0.05,-0.002 0.064,-0.005 0.014,-0.003 0.025,-0.01 0.032,-0.02 0.007,-0.01 0.012,-0.026 0.014,-0.046 0.002,-0.02 0.003,-0.052 0.003,-0.094 0,-0.043 -0.001,-0.075 -0.003,-0.095 -0.002,-0.02 -0.006,-0.035 -0.013,-0.046 -0.007,-0.01 -0.017,-0.017 -0.031,-0.02 -0.014,-0.003 -0.035,-0.005 -0.065,-0.005 -0.029,0 -0.05,0.002 -0.064,0.005 -0.014,0.003 -0.024,0.01 -0.031,0.021 -0.007,0.011 -0.011,0.026 -0.013,0.046 -0.002,0.02 -0.003,0.051 -0.003,0.094z"/>
  <path class="fil0" d="M1.179 3.358l0.09 0 0 0.028c0,0.037 -0.006,0.066 -0.019,0.087 -0.013,0.021 -0.033,0.037 -0.062,0.046 -0.029,0.009 -0.067,0.014 -0.116,0.014 -0.04,0 -0.073,-0.004 -0.099,-0.011 -0.025,-0.008 -0.046,-0.021 -0.061,-0.039 -0.015,-0.018 -0.026,-0.044 -0.032,-0.076 -0.006,-0.032 -0.01,-0.074 -0.01,-0.125 0,-0.057 0.006,-0.102 0.017,-0.136 0.011,-0.034 0.031,-0.058 0.06,-0.074 0.028,-0.016 0.069,-0.024 0.12,-0.024 0.051,0 0.091,0.006 0.118,0.018 0.028,0.012 0.047,0.03 0.058,0.053 0.011,0.023 0.018,0.055 0.021,0.094l-0.089 0c-0.001,-0.025 -0.006,-0.044 -0.012,-0.056 -0.006,-0.012 -0.017,-0.02 -0.031,-0.024 -0.015,-0.004 -0.036,-0.006 -0.065,-0.006 -0.03,0 -0.052,0.004 -0.066,0.012 -0.014,0.008 -0.024,0.023 -0.03,0.046 -0.005,0.023 -0.008,0.058 -0.008,0.107 0,0.035 0.002,0.063 0.005,0.084 0.003,0.021 0.009,0.038 0.016,0.049 0.008,0.012 0.018,0.02 0.032,0.024 0.013,0.005 0.031,0.007 0.053,0.007 0.028,0 0.05,-0.002 0.066,-0.006 0.015,-0.004 0.026,-0.011 0.033,-0.02 0.006,-0.01 0.01,-0.023 0.01,-0.041l0 -0.03z"/>
  <polygon id="1" class="fil0" points="1.403,3.257 1.543,3.257 1.543,3.529 1.623,3.529 1.623,3.196 1.324,3.196 1.324,3.529 1.403,3.529 "/>
  <path id="2" class="fil0" d="M1.917 3.423l0.079 0 0 0.012c0,0.027 -0.006,0.048 -0.018,0.062 -0.012,0.014 -0.029,0.024 -0.051,0.029 -0.022,0.005 -0.05,0.008 -0.084,0.008 -0.039,0 -0.069,-0.005 -0.091,-0.016 -0.022,-0.011 -0.038,-0.028 -0.047,-0.053 -0.009,-0.025 -0.014,-0.059 -0.014,-0.102 0,-0.043 0.005,-0.077 0.015,-0.102 0.01,-0.025 0.026,-0.043 0.048,-0.054 0.022,-0.011 0.052,-0.017 0.09,-0.017 0.038,0 0.068,0.006 0.09,0.017 0.022,0.011 0.039,0.029 0.048,0.053 0.01,0.024 0.015,0.056 0.015,0.095l0 0.023 -0.226 0c0,0.027 0.002,0.047 0.006,0.061 0.004,0.014 0.011,0.023 0.022,0.029 0.01,0.005 0.025,0.008 0.044,0.008 0.018,0 0.033,-0.001 0.043,-0.004 0.01,-0.003 0.018,-0.007 0.024,-0.014 0.005,-0.007 0.008,-0.016 0.008,-0.029l0 -0.006zm0.001 -0.096c0,-0.02 -0.002,-0.035 -0.007,-0.047 -0.005,-0.011 -0.013,-0.019 -0.023,-0.024 -0.011,-0.005 -0.026,-0.007 -0.044,-0.007 -0.019,0 -0.033,0.002 -0.044,0.007 -0.01,0.005 -0.018,0.013 -0.023,0.024 -0.005,0.011 -0.007,0.027 -0.007,0.047l0.148 0z"/>
  <polygon id="3" class="fil0" points="2.144,3.467 2.285,3.467 2.285,3.195 2.364,3.195 2.364,3.467 2.408,3.467 2.408,3.619 2.334,3.619 2.334,3.529 2.065,3.529 2.065,3.195 2.144,3.195 "/>
  <path id="4" class="fil0" d="M2.46 3.196l0 0.333 0.097 0 0.109 -0.208c0.005,-0.01 0.017,-0.035 0.036,-0.075 -0.003,0.009 -0.007,0.024 -0.01,0.046 -0.004,0.022 -0.005,0.04 -0.005,0.053l0 0.184 0.076 0 0 -0.333 -0.097 0 -0.109 0.209c-0.007,0.013 -0.019,0.038 -0.036,0.075 0.003,-0.009 0.007,-0.023 0.01,-0.041 0.003,-0.018 0.005,-0.035 0.005,-0.049l0 -0.194 -0.076 0z"/>
  <path id="5" class="fil0" d="M3.056 3.529l0.006 -0.046 -0.002 0c-0.007,0.015 -0.015,0.026 -0.025,0.034 -0.01,0.007 -0.021,0.012 -0.034,0.015 -0.013,0.002 -0.03,0.003 -0.051,0.003 -0.028,0 -0.051,-0.003 -0.069,-0.01 -0.018,-0.007 -0.031,-0.018 -0.039,-0.033 -0.009,-0.015 -0.013,-0.036 -0.013,-0.061 0,-0.021 0.002,-0.039 0.007,-0.052 0.005,-0.014 0.012,-0.025 0.022,-0.033 0.01,-0.008 0.023,-0.014 0.039,-0.017 0.016,-0.003 0.037,-0.005 0.062,-0.005 0.029,0 0.05,0.003 0.063,0.01 0.013,0.006 0.023,0.017 0.03,0.033l0.004 0 0 -0.057c0,-0.018 -0.002,-0.032 -0.007,-0.042 -0.004,-0.01 -0.012,-0.016 -0.022,-0.02 -0.01,-0.004 -0.025,-0.005 -0.044,-0.005 -0.024,0 -0.04,0.003 -0.049,0.01 -0.009,0.007 -0.013,0.02 -0.013,0.039l-0.08 0c0.001,-0.02 0.005,-0.037 0.012,-0.051 0.007,-0.013 0.017,-0.024 0.029,-0.031 0.012,-0.007 0.026,-0.012 0.043,-0.015 0.016,-0.003 0.035,-0.004 0.057,-0.004 0.035,0 0.063,0.003 0.085,0.008 0.022,0.005 0.039,0.017 0.051,0.034 0.012,0.017 0.019,0.043 0.019,0.077l0 0.219 -0.079 0zm0 -0.1c0,-0.019 -0.005,-0.033 -0.016,-0.04 -0.011,-0.007 -0.031,-0.01 -0.062,-0.01 -0.018,0 -0.032,0.002 -0.041,0.005 -0.01,0.003 -0.017,0.008 -0.021,0.015 -0.004,0.007 -0.006,0.017 -0.006,0.03 0,0.018 0.005,0.031 0.015,0.039 0.01,0.008 0.027,0.011 0.052,0.011 0.029,0 0.049,-0.003 0.061,-0.01 0.012,-0.007 0.018,-0.02 0.018,-0.04z"/>
  <path id="6" class="fil0" d="M3.246 3.196l0.278 0 0 0.333 -0.079 0 0 -0.271 -0.12 0 0 0.169c0,0.021 -0.003,0.039 -0.01,0.055 -0.006,0.016 -0.016,0.028 -0.03,0.037 -0.013,0.009 -0.03,0.013 -0.05,0.013 -0.022,0 -0.039,-0.001 -0.049,-0.003l0 -0.06c0.008,0.001 0.014,0.002 0.02,0.002 0.015,0 0.025,-0.004 0.031,-0.012 0.006,-0.008 0.008,-0.021 0.008,-0.04l0 -0.224z"/>
  <path id="7" class="fil0" d="M3.61 3.196l0 0.333 0.097 0 0.109 -0.208c0.005,-0.01 0.017,-0.035 0.036,-0.075 -0.003,0.009 -0.007,0.024 -0.01,0.046 -0.004,0.022 -0.005,0.04 -0.005,0.053l0 0.184 0.076 0 0 -0.333 -0.097 0 -0.109 0.209c-0.007,0.013 -0.019,0.038 -0.036,0.075 0.003,-0.009 0.007,-0.023 0.01,-0.041 0.003,-0.018 0.005,-0.035 0.005,-0.049l0 -0.194 -0.076 0z"/>
  <path id="8" class="fil0" d="M4.203 3.403l0.078 0c0,0.024 -0.003,0.044 -0.008,0.061 -0.005,0.017 -0.013,0.03 -0.025,0.04 -0.012,0.01 -0.027,0.018 -0.046,0.023 -0.019,0.005 -0.043,0.007 -0.071,0.007 -0.039,0 -0.069,-0.005 -0.091,-0.016 -0.022,-0.011 -0.038,-0.028 -0.047,-0.053 -0.01,-0.025 -0.014,-0.059 -0.014,-0.102 0,-0.044 0.005,-0.078 0.014,-0.103 0.009,-0.025 0.025,-0.043 0.047,-0.053 0.022,-0.011 0.053,-0.016 0.091,-0.016 0.029,0 0.054,0.003 0.076,0.009 0.021,0.006 0.039,0.017 0.052,0.034 0.013,0.016 0.019,0.039 0.019,0.067l0 0.012 -0.077 0 0 -0.004c0,-0.016 -0.002,-0.028 -0.007,-0.036 -0.004,-0.008 -0.011,-0.013 -0.021,-0.016 -0.01,-0.003 -0.024,-0.004 -0.042,-0.004 -0.019,0 -0.033,0.003 -0.044,0.01 -0.01,0.007 -0.017,0.018 -0.022,0.033 -0.004,0.016 -0.006,0.038 -0.006,0.067 0,0.029 0.002,0.051 0.006,0.066 0.004,0.016 0.012,0.027 0.022,0.033 0.01,0.007 0.025,0.01 0.044,0.01 0.021,0 0.036,-0.002 0.046,-0.007 0.01,-0.004 0.017,-0.011 0.02,-0.021 0.003,-0.01 0.005,-0.024 0.005,-0.043z"/>
  <polygon id="9" class="fil0" points="4.427,3.529 4.507,3.529 4.507,3.257 4.614,3.257 4.614,3.196 4.321,3.196 4.321,3.257 4.427,3.257 "/>
  <polygon id="10" class="fil0" points="4.917,3.257 5.058,3.257 5.058,3.529 5.137,3.529 5.137,3.196 4.838,3.196 4.838,3.529 4.917,3.529 "/>
  <path id="11" class="fil0" d="M5.204 3.362c0,-0.044 0.005,-0.078 0.014,-0.102 0.009,-0.024 0.025,-0.042 0.048,-0.053 0.022,-0.011 0.054,-0.016 0.095,-0.016 0.041,0 0.073,0.005 0.095,0.016 0.023,0.011 0.039,0.028 0.048,0.053 0.01,0.024 0.014,0.059 0.014,0.102 0,0.032 -0.003,0.06 -0.008,0.081 -0.005,0.022 -0.014,0.039 -0.026,0.053 -0.012,0.013 -0.028,0.023 -0.048,0.029 -0.02,0.006 -0.045,0.009 -0.076,0.009 -0.03,0 -0.056,-0.003 -0.076,-0.009 -0.02,-0.006 -0.036,-0.016 -0.048,-0.029 -0.012,-0.013 -0.02,-0.031 -0.025,-0.053 -0.005,-0.022 -0.008,-0.049 -0.008,-0.082zm0.081 0c0,0.031 0.002,0.054 0.007,0.07 0.005,0.016 0.012,0.026 0.023,0.032 0.011,0.006 0.026,0.009 0.046,0.009 0.02,0 0.035,-0.003 0.046,-0.009 0.011,-0.006 0.019,-0.017 0.023,-0.032 0.005,-0.016 0.007,-0.039 0.007,-0.07 0,-0.023 -0.001,-0.042 -0.004,-0.056 -0.003,-0.014 -0.007,-0.025 -0.013,-0.033 -0.006,-0.008 -0.013,-0.013 -0.023,-0.016 -0.009,-0.003 -0.022,-0.005 -0.037,-0.005 -0.02,0 -0.035,0.003 -0.046,0.008 -0.011,0.006 -0.018,0.016 -0.023,0.032 -0.005,0.016 -0.007,0.039 -0.007,0.069z"/>
  <polygon id="12" class="fil0" points="5.939,3.529 6.017,3.529 6.017,3.38 6.037,3.38 6.137,3.529 6.229,3.529 6.104,3.352 6.21,3.196 6.121,3.196 6.037,3.325 6.017,3.325 6.017,3.196 5.939,3.196 5.939,3.325 5.919,3.325 5.835,3.196 5.746,3.196 5.853,3.352 5.727,3.529 5.819,3.529 5.919,3.38 5.939,3.38 "/>
  <path id="13" class="fil0" d="M6.495 3.529l0.006 -0.046 -0.002 0c-0.007,0.015 -0.015,0.026 -0.025,0.034 -0.01,0.007 -0.021,0.012 -0.034,0.015 -0.013,0.002 -0.03,0.003 -0.051,0.003 -0.028,0 -0.051,-0.003 -0.069,-0.01 -0.018,-0.007 -0.031,-0.018 -0.039,-0.033 -0.009,-0.015 -0.013,-0.036 -0.013,-0.061 0,-0.021 0.002,-0.039 0.007,-0.052 0.005,-0.014 0.012,-0.025 0.022,-0.033 0.01,-0.008 0.023,-0.014 0.039,-0.017 0.016,-0.003 0.037,-0.005 0.062,-0.005 0.029,0 0.05,0.003 0.063,0.01 0.013,0.006 0.023,0.017 0.03,0.033l0.004 0 0 -0.057c0,-0.018 -0.002,-0.032 -0.007,-0.042 -0.004,-0.01 -0.012,-0.016 -0.022,-0.02 -0.01,-0.004 -0.025,-0.005 -0.044,-0.005 -0.024,0 -0.04,0.003 -0.049,0.01 -0.009,0.007 -0.013,0.02 -0.013,0.039l-0.08 0c0.001,-0.02 0.005,-0.037 0.012,-0.051 0.007,-0.013 0.017,-0.024 0.029,-0.031 0.012,-0.007 0.026,-0.012 0.043,-0.015 0.016,-0.003 0.035,-0.004 0.057,-0.004 0.035,0 0.063,0.003 0.085,0.008 0.022,0.005 0.039,0.017 0.051,0.034 0.012,0.017 0.019,0.043 0.019,0.077l0 0.219 -0.079 0zm0 -0.1c0,-0.019 -0.005,-0.033 -0.016,-0.04 -0.011,-0.007 -0.031,-0.01 -0.062,-0.01 -0.018,0 -0.032,0.002 -0.041,0.005 -0.01,0.003 -0.017,0.008 -0.021,0.015 -0.004,0.007 -0.006,0.017 -0.006,0.03 0,0.018 0.005,0.031 0.015,0.039 0.01,0.008 0.027,0.011 0.052,0.011 0.029,0 0.049,-0.003 0.061,-0.01 0.012,-0.007 0.018,-0.02 0.018,-0.04z"/>
  <polygon id="14" class="fil0" points="6.736,3.384 6.876,3.384 6.876,3.529 6.955,3.529 6.955,3.196 6.876,3.196 6.876,3.322 6.736,3.322 6.736,3.196 6.656,3.196 6.656,3.529 6.736,3.529 "/>
  <path id="15" class="fil0" d="M7.12 3.353c0,0.033 0.002,0.057 0.005,0.073 0.003,0.016 0.01,0.027 0.021,0.034 0.011,0.007 0.027,0.01 0.05,0.01 0.023,0 0.039,-0.004 0.05,-0.013 0.01,-0.008 0.017,-0.02 0.02,-0.036 0.003,-0.015 0.004,-0.038 0.004,-0.068 0,-0.03 -0.002,-0.053 -0.006,-0.067 -0.004,-0.014 -0.011,-0.024 -0.021,-0.028 -0.01,-0.005 -0.025,-0.007 -0.045,-0.007 -0.021,0 -0.037,0.003 -0.048,0.008 -0.011,0.005 -0.019,0.015 -0.023,0.029 -0.005,0.014 -0.007,0.035 -0.007,0.063zm0 0.129l0 0.187 -0.079 0 0 -0.474 0.076 0 -0.003 0.047 0.002 0c0.013,-0.02 0.027,-0.033 0.043,-0.041 0.016,-0.008 0.036,-0.011 0.06,-0.011 0.036,0 0.064,0.007 0.083,0.02 0.019,0.013 0.032,0.032 0.039,0.056 0.007,0.024 0.01,0.055 0.01,0.094 0,0.028 -0.001,0.051 -0.004,0.071 -0.003,0.02 -0.008,0.038 -0.016,0.053 -0.008,0.016 -0.021,0.028 -0.038,0.037 -0.017,0.009 -0.04,0.013 -0.068,0.013 -0.026,0 -0.047,-0.003 -0.063,-0.01 -0.016,-0.007 -0.03,-0.02 -0.041,-0.041z"/>
  <path id="16" class="fil0" d="M7.636 3.529l0.006 -0.046 -0.002 0c-0.007,0.015 -0.015,0.026 -0.025,0.034 -0.01,0.007 -0.021,0.012 -0.034,0.015 -0.013,0.002 -0.03,0.003 -0.051,0.003 -0.028,0 -0.051,-0.003 -0.069,-0.01 -0.018,-0.007 -0.031,-0.018 -0.039,-0.033 -0.009,-0.015 -0.013,-0.036 -0.013,-0.061 0,-0.021 0.002,-0.039 0.007,-0.052 0.005,-0.014 0.012,-0.025 0.022,-0.033 0.01,-0.008 0.023,-0.014 0.039,-0.017 0.016,-0.003 0.037,-0.005 0.062,-0.005 0.029,0 0.05,0.003 0.063,0.01 0.013,0.006 0.023,0.017 0.03,0.033l0.004 0 0 -0.057c0,-0.018 -0.002,-0.032 -0.007,-0.042 -0.004,-0.01 -0.012,-0.016 -0.022,-0.02 -0.01,-0.004 -0.025,-0.005 -0.044,-0.005 -0.024,0 -0.04,0.003 -0.049,0.01 -0.009,0.007 -0.013,0.02 -0.013,0.039l-0.08 0c0.001,-0.02 0.005,-0.037 0.012,-0.051 0.007,-0.013 0.017,-0.024 0.029,-0.031 0.012,-0.007 0.026,-0.012 0.043,-0.015 0.016,-0.003 0.035,-0.004 0.057,-0.004 0.035,0 0.063,0.003 0.085,0.008 0.022,0.005 0.039,0.017 0.051,0.034 0.012,0.017 0.019,0.043 0.019,0.077l0 0.219 -0.079 0zm0 -0.1c0,-0.019 -0.005,-0.033 -0.016,-0.04 -0.011,-0.007 -0.031,-0.01 -0.062,-0.01 -0.018,0 -0.032,0.002 -0.041,0.005 -0.01,0.003 -0.017,0.008 -0.021,0.015 -0.004,0.007 -0.006,0.017 -0.006,0.03 0,0.018 0.005,0.031 0.015,0.039 0.01,0.008 0.027,0.011 0.052,0.011 0.029,0 0.049,-0.003 0.061,-0.01 0.012,-0.007 0.018,-0.02 0.018,-0.04z"/>
  <path id="17" class="fil0" d="M8.04 3.529l0.067 -0.2c0.005,-0.015 0.011,-0.032 0.018,-0.051 0.007,-0.019 0.011,-0.033 0.013,-0.041 -0.005,0.032 -0.007,0.06 -0.007,0.085l0 0.208 0.076 0 0 -0.333 -0.121 0 -0.074 0.224c-0.002,0.005 -0.005,0.023 -0.01,0.055 -0.005,-0.031 -0.008,-0.049 -0.01,-0.055l-0.074 -0.224 -0.12 0 0 0.333 0.075 0 0 -0.208c0,-0.024 -0.002,-0.052 -0.007,-0.085 0.002,0.008 0.007,0.024 0.016,0.049 0.009,0.025 0.014,0.039 0.015,0.043l0.067 0.2 0.078 0z"/>
  <g id="_2008596198416">
   <rect class="fil1" x="0" y="2.11" width="0.563" height="0.563" rx="0.113" ry="0.107"/>
   <g>
    <path class="fil2" d="M0.108 2.207c-0.001,0.003 -0.01,0.01 -0.016,0.033 -0.002,0.007 -0.004,0.023 -0.004,0.03 0,0.03 0.003,0.042 0.012,0.069 0.005,0.017 0.022,0.052 0.031,0.067 0.003,0.005 0.006,0.01 0.009,0.015 0.013,0.022 0.044,0.063 0.061,0.081l0.014 0.016c0.016,0.017 0.033,0.033 0.051,0.047l0.021 0.015c0.003,0.002 0.005,0.003 0.008,0.005 0.027,0.016 0.061,0.031 0.092,0.029 0.01,-0 0.03,-0.003 0.037,-0.01 -0.004,-0.005 -0.007,-0.009 -0.011,-0.014l-0.009 -0.011c-0.001,-0.001 -0.001,-0.002 -0.003,-0.003 -0.014,-0.018 -0.03,-0.038 -0.044,-0.056l-0.022 -0.028c-0.005,0.002 -0.005,0.004 -0.012,0.004 -0.017,0 -0.053,-0.04 -0.066,-0.054 -0.012,-0.014 -0.02,-0.024 -0.031,-0.038l-0.02 -0.029c-0.007,-0.011 -0.018,-0.029 -0.015,-0.043 0.001,-0.006 0.004,-0.008 0.007,-0.012l-0.068 -0.086c-0.004,-0.005 -0.008,-0.01 -0.011,-0.014 -0.002,-0.002 -0.004,-0.005 -0.006,-0.007 -0.002,-0.002 -0.004,-0.006 -0.006,-0.006z"/>
    <path class="fil2" d="M0.145 2.225c0.018,0.023 0.04,0.049 0.057,0.071l0.011 0.014c0.003,-0.001 0.021,-0.016 0.024,-0.019 0.008,-0.006 0.018,-0.014 0.012,-0.026 -0.002,-0.003 -0.016,-0.021 -0.02,-0.025l-0.046 -0.057c-0.014,-0.015 -0.015,-0.023 -0.038,-0.005l-0.023 0.019 0.023 0.029z"/>
    <path class="fil2" d="M0.39 2.453c-0.006,0 -0.009,0.003 -0.013,0.006 -0.005,0.004 -0.026,0.02 -0.029,0.023l0.02 0.025c0,0 0,0 0,0l0.069 0.086 0.009 -0.007c0.003,-0.002 0.006,-0.005 0.009,-0.007 0.003,-0.002 0.006,-0.005 0.009,-0.007 0.004,-0.003 0.006,-0.004 0.008,-0.008 0.005,-0.01 -0.001,-0.018 -0.006,-0.023l-0.051 -0.064c-0.001,-0.002 -0.002,-0.003 -0.004,-0.005 -0.008,-0.009 -0.012,-0.019 -0.022,-0.019z"/>
   </g>
  </g>
  <g id="_2008596201232">
   <rect class="fil1" x="0" y="1.216" width="0.563" height="0.563" rx="0.113" ry="0.107"/>
   <g>
    <path class="fil2" d="M0.204 1.416l0.073 -0.044c0.002,-0.001 0.003,-0.002 0.005,-0.003 0,0 0,0 0,0l0.072 0.043c0.001,0.001 0.004,0.003 0.005,0.003 -0.001,0.002 -0.009,0.015 -0.009,0.017l0 0.074 -0.136 0 0 -0.074c0,-0.001 -0.002,-0.004 -0.002,-0.005l-0.008 -0.013zm0.078 0.305c0.004,0 0.007,-0.002 0.009,-0.005l0.022 -0.027c0.001,-0.001 0.002,-0.003 0.003,-0.004 0.001,-0.001 0.002,-0.003 0.003,-0.004l0.009 -0.012c0.001,-0.001 0.002,-0.003 0.003,-0.004 0.001,-0.001 0.002,-0.003 0.003,-0.004l0.017 -0.024c0.006,-0.008 0.011,-0.017 0.017,-0.025l0.011 -0.017c0.002,-0.003 0.003,-0.006 0.005,-0.009 0.003,-0.006 0.007,-0.013 0.01,-0.018l0.005 -0.009c0.002,-0.003 0.003,-0.006 0.005,-0.009 0.001,-0.002 0.002,-0.003 0.002,-0.005 0.007,-0.014 0.013,-0.029 0.018,-0.044 0.001,-0.003 0.002,-0.007 0.003,-0.01 0.005,-0.02 0.01,-0.037 0.01,-0.06 0,-0.048 -0.021,-0.086 -0.046,-0.111l-0.013 -0.012c-0.005,-0.004 -0.009,-0.007 -0.014,-0.01 -0.004,-0.003 -0.008,-0.005 -0.012,-0.007l-0.007 -0.003c-0.039,-0.018 -0.083,-0.018 -0.123,-0.002 -0.008,0.003 -0.016,0.007 -0.024,0.012 -0.006,0.004 -0.012,0.008 -0.017,0.012l-0.009 0.008c-0.001,0.001 -0.002,0.002 -0.003,0.003l-0.008 0.01c-0.002,0.002 -0.004,0.004 -0.005,0.007 -0.008,0.011 -0.014,0.021 -0.019,0.034 -0.002,0.006 -0.004,0.012 -0.006,0.018 -0.001,0.002 -0.001,0.003 -0.001,0.005 -0.004,0.017 -0.005,0.036 -0.003,0.054 0.003,0.026 0.012,0.054 0.023,0.078 0.006,0.014 0.013,0.028 0.02,0.042 0.006,0.011 0.012,0.021 0.019,0.032 0.003,0.005 0.006,0.01 0.009,0.015 0.005,0.008 0.016,0.025 0.021,0.032l0.01 0.014c0.009,0.013 0.019,0.025 0.028,0.037 0.005,0.006 0.01,0.012 0.015,0.018 0.002,0.003 0.005,0.006 0.009,0.006z"/>
    <path class="fil2" d="M0.233 1.421l0 0.066 0.029 0 0 -0.048 0.039 0 0 0.048 0.029 0 0 -0.066c0,-0.001 -0.002,-0.002 -0.003,-0.002 -0.001,-0.001 -0.002,-0.001 -0.003,-0.002l-0.043 -0.026c-0.001,-0 -0.005,0.003 -0.006,0.003l-0.041 0.025c-0.001,0 -0.001,0 -0.001,0.001z"/>
   </g>
  </g>
  <g id="_2008596201456">
   <rect class="fil1" x="0" y="3.003" width="0.563" height="0.563" rx="0.113" ry="0.107"/>
   <g>
    <path class="fil2" d="M0.243 3.079c0,0.026 0.004,0.036 -0.005,0.043 -0.009,-0.006 -0.005,-0.001 -0.005,-0.033 -0.023,0.005 -0.04,0.04 -0.045,0.064 -0.002,0.012 0,0.006 -0.005,0.014 -0.003,0.005 -0.007,0.004 -0.007,0.012 0,0.038 0.133,0.037 0.177,0.025 0.014,-0.004 0.047,-0.016 0.033,-0.032 -0.02,-0.022 -0.003,-0.012 -0.018,-0.044 -0.007,-0.014 -0.02,-0.035 -0.034,-0.039 0,0.016 0,0.02 -0.003,0.033l-0.008 0c-0.003,-0.015 -0.003,-0.025 -0.003,-0.043 -0.037,-0.009 -0.054,-0.005 -0.076,0z"/>
    <path class="fil2" d="M0.187 3.233c0,0.028 0.017,0.042 0.032,0.074 0.021,0.044 0.09,0.08 0.134,-0.014 0.01,-0.022 0.024,-0.019 0.024,-0.065 0,-0.03 -0.018,-0.005 -0.076,-0.005 -0.06,0 -0.047,0.003 -0.106,-0.011 -0.004,0.006 -0.008,0.012 -0.008,0.022z"/>
    <path class="fil2" d="M0.159 3.491c0.023,0 0.041,0.005 0.068,0.005l0.111 0c0.027,0 0.045,-0.005 0.071,-0.005l0 -0.049 -0.249 0 0 0.049z"/>
    <path class="fil2" d="M0.2 3.328l0 0.087 0.165 0 0 -0.087 -0.019 -0.006c-0.023,0.035 -0.063,0.051 -0.104,0.025 -0.013,-0.008 -0.018,-0.017 -0.029,-0.025 -0.006,0.003 -0.006,0.004 -0.014,0.005z"/>
    <path class="fil2" d="M0.086 3.461c0,0.013 0.012,0.015 0.027,0.019 0.052,0.017 -0.021,-0.059 0.06,-0.066l0 -0.073c-0.045,0.004 -0.087,0.063 -0.087,0.119z"/>
    <path class="fil2" d="M0.39 3.35l0 0.065c0.051,0 0.046,0.027 0.046,0.068 0.015,-0 0.027,-0.008 0.041,-0.011l0 -0.015c-0,-0.013 -0.001,-0.021 -0.005,-0.034 -0.014,-0.046 -0.029,-0.057 -0.066,-0.076 -0.005,-0.003 -0.016,-0.01 -0.016,0.003z"/>
   </g>
  </g>
 </g>
</svg>
