<?xml version="1.0" encoding="UTF-8"?>
<!DOCTYPE svg PUBLIC "-//W3C//DTD SVG 1.1//EN" "http://www.w3.org/Graphics/SVG/1.1/DTD/svg11.dtd">
<!-- Creator: CorelDRAW 2019 (64-Bit) -->
<svg xmlns="http://www.w3.org/2000/svg" xml:space="preserve" width="2.91274cm" height="1.15545cm" version="1.1" style="shape-rendering:geometricPrecision; text-rendering:geometricPrecision; image-rendering:optimizeQuality; fill-rule:evenodd; clip-rule:evenodd"
viewBox="0 0 14.809 5.874"
 xmlns:xlink="http://www.w3.org/1999/xlink"
 xmlns:xodm="http://www.corel.com/coreldraw/odm/2003">
 <defs>
  <style type="text/css">
   <![CDATA[
    .fil1 {fill:#1B5A5C}
    .fil2 {fill:#29878C}
    .fil0 {fill:white;fill-rule:nonzero}
   ]]>
  </style>
 </defs>
 <g id="Слой_x0020_1">
  <metadata id="CorelCorpID_0Corel-Layer"/>
  <polygon class="fil0" points="1.136,0.007 1.136,0.282 1.196,0.282 1.42,0.007 1.578,0.007 1.306,0.335 1.606,0.679 1.443,0.679 1.196,0.392 1.136,0.392 1.136,0.679 1.006,0.679 1.006,0.007 "/>
  <path id="1" class="fil0" d="M2.118 0.179l0 0.315 0.085 0c0.046,0 0.078,-0.012 0.096,-0.035 0.018,-0.024 0.028,-0.064 0.028,-0.12 0,-0.038 -0.004,-0.069 -0.012,-0.092 -0.008,-0.023 -0.021,-0.04 -0.039,-0.051 -0.018,-0.011 -0.042,-0.016 -0.074,-0.016l-0.085 0zm-0.127 0.424l-0.081 0c-0.059,0 -0.107,-0.009 -0.145,-0.028 -0.038,-0.018 -0.066,-0.047 -0.084,-0.086 -0.018,-0.039 -0.028,-0.09 -0.028,-0.151 0,-0.048 0.005,-0.088 0.016,-0.122 0.011,-0.034 0.027,-0.062 0.049,-0.083 0.022,-0.022 0.049,-0.038 0.082,-0.048 0.033,-0.01 0.072,-0.015 0.118,-0.015l0.074 0 0 -0.064 0.127 0 0 0.064 0.081 0c0.045,0 0.084,0.005 0.116,0.016 0.032,0.011 0.059,0.027 0.08,0.049 0.021,0.022 0.036,0.049 0.046,0.083 0.01,0.033 0.015,0.074 0.015,0.121 0,0.062 -0.009,0.113 -0.027,0.152 -0.018,0.039 -0.046,0.068 -0.084,0.086 -0.038,0.018 -0.087,0.028 -0.146,0.028l-0.081 0 0 0.075 -0.127 0 0 -0.075zm0 -0.424l-0.085 0c-0.03,0 -0.054,0.005 -0.072,0.016 -0.018,0.011 -0.031,0.028 -0.039,0.051 -0.008,0.023 -0.012,0.054 -0.012,0.092 0,0.037 0.004,0.067 0.012,0.09 0.008,0.023 0.022,0.04 0.04,0.05 0.018,0.01 0.042,0.016 0.072,0.016l0.084 0 0 -0.315z"/>
  <polygon id="2" class="fil0" points="3.119,0.007 2.92,0.332 3.135,0.679 2.986,0.679 2.817,0.396 2.647,0.679 2.495,0.679 2.716,0.332 2.511,0.007 2.661,0.007 2.817,0.274 2.972,0.007 "/>
  <path id="3" class="fil0" d="M3.863 0.439l0.126 0 0 0.039c0,0.052 -0.009,0.093 -0.027,0.123 -0.018,0.03 -0.047,0.052 -0.087,0.065 -0.04,0.013 -0.095,0.02 -0.164,0.02 -0.057,0 -0.103,-0.005 -0.139,-0.016 -0.036,-0.011 -0.064,-0.029 -0.085,-0.055 -0.021,-0.026 -0.036,-0.062 -0.045,-0.107 -0.009,-0.045 -0.013,-0.104 -0.013,-0.177 0,-0.08 0.008,-0.144 0.024,-0.192 0.016,-0.047 0.044,-0.082 0.085,-0.105 0.04,-0.023 0.097,-0.034 0.17,-0.034 0.072,0 0.128,0.008 0.167,0.025 0.039,0.017 0.066,0.042 0.082,0.075 0.016,0.033 0.026,0.077 0.029,0.132l-0.125 0c-0.002,-0.035 -0.008,-0.062 -0.017,-0.078 -0.009,-0.017 -0.024,-0.028 -0.044,-0.034 -0.021,-0.006 -0.051,-0.009 -0.092,-0.009 -0.042,0 -0.074,0.005 -0.093,0.016 -0.02,0.011 -0.034,0.032 -0.042,0.064 -0.008,0.032 -0.012,0.082 -0.012,0.152 0,0.049 0.002,0.088 0.007,0.119 0.004,0.03 0.012,0.053 0.023,0.07 0.011,0.016 0.026,0.028 0.045,0.034 0.019,0.006 0.044,0.01 0.075,0.01 0.04,0 0.071,-0.003 0.093,-0.008 0.022,-0.006 0.037,-0.015 0.047,-0.029 0.009,-0.014 0.014,-0.033 0.014,-0.058l0 -0.042z"/>
  <path id="4" class="fil0" d="M4.368 0.679l0.009 -0.065 -0.003 0c-0.01,0.021 -0.022,0.037 -0.035,0.047 -0.014,0.01 -0.03,0.017 -0.048,0.021 -0.019,0.003 -0.042,0.005 -0.071,0.005 -0.04,0 -0.072,-0.005 -0.097,-0.014 -0.025,-0.01 -0.043,-0.025 -0.056,-0.047 -0.012,-0.022 -0.018,-0.05 -0.018,-0.086 0,-0.03 0.003,-0.054 0.01,-0.074 0.007,-0.019 0.017,-0.035 0.031,-0.046 0.014,-0.011 0.032,-0.019 0.055,-0.024 0.023,-0.005 0.052,-0.007 0.087,-0.007 0.041,0 0.071,0.004 0.089,0.013 0.018,0.009 0.032,0.025 0.043,0.047l0.005 0 0 -0.08c0,-0.026 -0.003,-0.045 -0.009,-0.059 -0.006,-0.014 -0.017,-0.023 -0.031,-0.028 -0.014,-0.005 -0.035,-0.008 -0.062,-0.008 -0.034,0 -0.057,0.005 -0.07,0.014 -0.013,0.01 -0.019,0.028 -0.019,0.055l-0.113 0c0.001,-0.029 0.006,-0.052 0.016,-0.072 0.01,-0.019 0.024,-0.034 0.041,-0.044 0.017,-0.01 0.037,-0.017 0.06,-0.021 0.023,-0.004 0.049,-0.006 0.08,-0.006 0.05,0 0.09,0.004 0.12,0.011 0.031,0.007 0.055,0.023 0.072,0.048 0.018,0.025 0.026,0.061 0.026,0.109l0 0.309 -0.112 0zm0 -0.141c0,-0.027 -0.008,-0.046 -0.023,-0.056 -0.015,-0.01 -0.044,-0.015 -0.087,-0.015 -0.025,0 -0.045,0.002 -0.058,0.007 -0.014,0.004 -0.024,0.012 -0.03,0.022 -0.006,0.01 -0.009,0.024 -0.009,0.042 0,0.026 0.007,0.044 0.021,0.055 0.014,0.011 0.039,0.016 0.074,0.016 0.04,0 0.069,-0.005 0.086,-0.015 0.017,-0.01 0.026,-0.029 0.026,-0.056z"/>
  <path id="5" class="fil0" d="M4.637 0.209l0.392 0 0 0.47 -0.112 0 0 -0.383 -0.17 0 0 0.239c0,0.03 -0.004,0.056 -0.013,0.078 -0.009,0.022 -0.023,0.04 -0.042,0.053 -0.019,0.013 -0.042,0.019 -0.07,0.019 -0.031,0 -0.054,-0.002 -0.069,-0.004l0 -0.084c0.011,0.002 0.02,0.003 0.029,0.003 0.021,0 0.036,-0.006 0.044,-0.017 0.008,-0.012 0.012,-0.03 0.012,-0.056l0 -0.316z"/>
  <path id="6" class="fil0" d="M5.451 0.679l0.009 -0.065 -0.003 0c-0.01,0.021 -0.022,0.037 -0.035,0.047 -0.014,0.01 -0.03,0.017 -0.048,0.021 -0.019,0.003 -0.042,0.005 -0.071,0.005 -0.04,0 -0.072,-0.005 -0.097,-0.014 -0.025,-0.01 -0.043,-0.025 -0.056,-0.047 -0.012,-0.022 -0.018,-0.05 -0.018,-0.086 0,-0.03 0.003,-0.054 0.01,-0.074 0.007,-0.019 0.017,-0.035 0.031,-0.046 0.014,-0.011 0.032,-0.019 0.055,-0.024 0.023,-0.005 0.052,-0.007 0.087,-0.007 0.041,0 0.071,0.004 0.089,0.013 0.018,0.009 0.032,0.025 0.043,0.047l0.005 0 0 -0.08c0,-0.026 -0.003,-0.045 -0.009,-0.059 -0.006,-0.014 -0.017,-0.023 -0.031,-0.028 -0.014,-0.005 -0.035,-0.008 -0.062,-0.008 -0.034,0 -0.057,0.005 -0.07,0.014 -0.013,0.01 -0.019,0.028 -0.019,0.055l-0.113 0c0.001,-0.029 0.006,-0.052 0.016,-0.072 0.01,-0.019 0.024,-0.034 0.041,-0.044 0.017,-0.01 0.037,-0.017 0.06,-0.021 0.023,-0.004 0.049,-0.006 0.08,-0.006 0.05,0 0.09,0.004 0.12,0.011 0.031,0.007 0.055,0.023 0.072,0.048 0.018,0.025 0.026,0.061 0.026,0.109l0 0.309 -0.112 0zm0 -0.141c0,-0.027 -0.008,-0.046 -0.023,-0.056 -0.015,-0.01 -0.044,-0.015 -0.087,-0.015 -0.025,0 -0.045,0.002 -0.058,0.007 -0.014,0.004 -0.024,0.012 -0.03,0.022 -0.006,0.01 -0.009,0.024 -0.009,0.042 0,0.026 0.007,0.044 0.021,0.055 0.014,0.011 0.039,0.016 0.074,0.016 0.04,0 0.069,-0.005 0.086,-0.015 0.017,-0.01 0.026,-0.029 0.026,-0.056z"/>
  <path id="7" class="fil0" d="M6.021 0.679l0.094 -0.282c0.007,-0.021 0.016,-0.045 0.025,-0.072 0.01,-0.027 0.016,-0.047 0.019,-0.058 -0.007,0.045 -0.01,0.085 -0.01,0.119l0 0.293 0.107 0 0 -0.47 -0.17 0 -0.105 0.316c-0.003,0.007 -0.008,0.033 -0.014,0.077 -0.006,-0.044 -0.011,-0.07 -0.014,-0.077l-0.105 -0.316 -0.17 0 0 0.47 0.106 0 0 -0.293c0,-0.034 -0.003,-0.074 -0.01,-0.119 0.003,0.011 0.01,0.034 0.023,0.069 0.012,0.035 0.019,0.056 0.021,0.061l0.094 0.282 0.109 0z"/>
  <path id="8" class="fil0" d="M6.672 0.679l0.009 -0.065 -0.003 0c-0.01,0.021 -0.022,0.037 -0.035,0.047 -0.014,0.01 -0.03,0.017 -0.048,0.021 -0.019,0.003 -0.042,0.005 -0.071,0.005 -0.04,0 -0.072,-0.005 -0.097,-0.014 -0.025,-0.01 -0.043,-0.025 -0.056,-0.047 -0.012,-0.022 -0.018,-0.05 -0.018,-0.086 0,-0.03 0.003,-0.054 0.01,-0.074 0.007,-0.019 0.017,-0.035 0.031,-0.046 0.014,-0.011 0.032,-0.019 0.055,-0.024 0.023,-0.005 0.052,-0.007 0.087,-0.007 0.041,0 0.071,0.004 0.089,0.013 0.018,0.009 0.032,0.025 0.043,0.047l0.005 0 0 -0.08c0,-0.026 -0.003,-0.045 -0.009,-0.059 -0.006,-0.014 -0.017,-0.023 -0.031,-0.028 -0.014,-0.005 -0.035,-0.008 -0.062,-0.008 -0.034,0 -0.057,0.005 -0.07,0.014 -0.013,0.01 -0.019,0.028 -0.019,0.055l-0.113 0c0.001,-0.029 0.006,-0.052 0.016,-0.072 0.01,-0.019 0.024,-0.034 0.041,-0.044 0.017,-0.01 0.037,-0.017 0.06,-0.021 0.023,-0.004 0.049,-0.006 0.08,-0.006 0.05,0 0.09,0.004 0.12,0.011 0.031,0.007 0.055,0.023 0.072,0.048 0.018,0.025 0.026,0.061 0.026,0.109l0 0.309 -0.112 0zm0 -0.141c0,-0.027 -0.008,-0.046 -0.023,-0.056 -0.015,-0.01 -0.044,-0.015 -0.087,-0.015 -0.025,0 -0.045,0.002 -0.058,0.007 -0.014,0.004 -0.024,0.012 -0.03,0.022 -0.006,0.01 -0.009,0.024 -0.009,0.042 0,0.026 0.007,0.044 0.021,0.055 0.014,0.011 0.039,0.016 0.074,0.016 0.04,0 0.069,-0.005 0.086,-0.015 0.017,-0.01 0.026,-0.029 0.026,-0.056z"/>
  <polygon id="9" class="fil0" points="7.016,0.679 7.128,0.679 7.128,0.296 7.279,0.296 7.279,0.209 6.865,0.209 6.865,0.296 7.016,0.296 "/>
  <path id="10" class="fil0" d="M7.337 0.443c0,-0.062 0.007,-0.11 0.02,-0.145 0.013,-0.034 0.036,-0.059 0.067,-0.074 0.032,-0.015 0.077,-0.023 0.134,-0.023 0.058,0 0.102,0.007 0.135,0.023 0.032,0.015 0.055,0.04 0.068,0.074 0.013,0.035 0.02,0.083 0.02,0.144 0,0.046 -0.004,0.084 -0.011,0.115 -0.007,0.031 -0.02,0.056 -0.036,0.075 -0.017,0.019 -0.04,0.033 -0.068,0.041 -0.028,0.009 -0.064,0.013 -0.107,0.013 -0.043,0 -0.078,-0.004 -0.107,-0.013 -0.029,-0.009 -0.051,-0.023 -0.068,-0.041 -0.017,-0.019 -0.029,-0.044 -0.036,-0.074 -0.007,-0.031 -0.011,-0.069 -0.011,-0.115zm0.115 0c0,0.044 0.003,0.077 0.01,0.099 0.007,0.022 0.017,0.037 0.032,0.045 0.015,0.008 0.036,0.012 0.065,0.013 0.028,0 0.05,-0.004 0.065,-0.012 0.015,-0.008 0.026,-0.023 0.033,-0.046 0.007,-0.022 0.01,-0.055 0.01,-0.099 0,-0.033 -0.002,-0.059 -0.006,-0.079 -0.004,-0.02 -0.01,-0.035 -0.018,-0.046 -0.008,-0.011 -0.019,-0.019 -0.032,-0.023 -0.013,-0.004 -0.031,-0.006 -0.053,-0.007 -0.028,0 -0.05,0.004 -0.065,0.012 -0.015,0.008 -0.026,0.023 -0.032,0.045 -0.007,0.022 -0.01,0.055 -0.01,0.097z"/>
  <path id="11" class="fil0" d="M7.987 0.291l0 0.111 0.107 0c0.028,0 0.048,-0.004 0.06,-0.012 0.012,-0.008 0.018,-0.022 0.018,-0.041 0,-0.02 -0.005,-0.035 -0.015,-0.044 -0.01,-0.009 -0.028,-0.014 -0.052,-0.014l-0.117 0zm0 0.187l0 0.12 0.123 0c0.026,0 0.044,-0.005 0.056,-0.014 0.011,-0.01 0.017,-0.025 0.017,-0.045 0,-0.04 -0.022,-0.06 -0.067,-0.06l-0.128 0zm-0.11 0.202l0 -0.47 0.259 0c0.053,0 0.091,0.01 0.114,0.031 0.023,0.02 0.034,0.053 0.034,0.097 0,0.024 -0.008,0.045 -0.023,0.063 -0.015,0.018 -0.036,0.029 -0.062,0.035l0 0.003c0.029,0.006 0.052,0.018 0.07,0.036 0.017,0.019 0.026,0.044 0.026,0.076 0,0.031 -0.004,0.055 -0.013,0.074 -0.009,0.019 -0.024,0.033 -0.045,0.042 -0.021,0.009 -0.05,0.014 -0.087,0.014l-0.273 0z"/>
  <path id="12" class="fil0" d="M9.051 0.551l-0.291 0 -0.042 0.128 -0.134 0 0.223 -0.672 0.189 0 0.228 0.672 -0.131 0 -0.043 -0.128zm-0.03 -0.096l-0.116 -0.349 -0.115 0.349 0.231 0z"/>
  <polygon id="13" class="fil0" points="9.403,0.557 9.403,0.679 9.291,0.679 9.291,0.557 "/>
  <path id="14" class="fil0" d="M9.935 0.551l-0.291 0 -0.042 0.128 -0.134 0 0.223 -0.672 0.189 0 0.228 0.672 -0.131 0 -0.043 -0.128zm-0.03 -0.096l-0.116 -0.349 -0.115 0.349 0.231 0z"/>
  <polygon id="15" class="fil0" points="10.286,0.557 10.286,0.679 10.174,0.679 10.174,0.557 "/>
  <path class="fil0" d="M1.038 1.813c0.011,-0.015 0.02,-0.029 0.026,-0.043 0.006,-0.014 0.011,-0.031 0.014,-0.05 0.003,-0.02 0.005,-0.044 0.005,-0.074l0 -0.143 0.293 0 0 0.31 0.048 0 0 0.169 -0.083 0 0 -0.102 -0.262 0 0 0.102 -0.082 0 0 -0.169 0.04 0zm0.249 0l0 -0.243 -0.118 0 0 0.082c0,0.073 -0.014,0.127 -0.041,0.162l0.16 0z"/>
  <polygon id="1" class="fil0" points="1.566,1.782 1.566,1.879 1.477,1.879 1.477,1.782 "/>
  <polygon id="2" class="fil0" points="2.302,1.342 2.302,1.879 2.199,1.879 2.199,1.43 1.948,1.43 1.948,1.879 1.845,1.879 1.845,1.342 "/>
  <path id="3" class="fil0" d="M2.379 1.691c0,-0.05 0.005,-0.088 0.016,-0.116 0.011,-0.028 0.028,-0.047 0.054,-0.059 0.025,-0.012 0.061,-0.018 0.107,-0.018 0.046,0 0.082,0.006 0.108,0.018 0.026,0.012 0.044,0.032 0.055,0.059 0.011,0.028 0.016,0.066 0.016,0.116 0,0.037 -0.003,0.067 -0.009,0.092 -0.006,0.025 -0.016,0.044 -0.029,0.06 -0.013,0.015 -0.032,0.026 -0.054,0.033 -0.023,0.007 -0.051,0.01 -0.086,0.011 -0.034,0 -0.063,-0.003 -0.086,-0.011 -0.023,-0.007 -0.041,-0.018 -0.054,-0.033 -0.013,-0.015 -0.023,-0.035 -0.029,-0.059 -0.006,-0.024 -0.009,-0.055 -0.009,-0.092zm0.092 0c0,0.035 0.003,0.061 0.008,0.079 0.005,0.018 0.014,0.03 0.026,0.036 0.012,0.006 0.029,0.01 0.052,0.01 0.023,0 0.04,-0.003 0.052,-0.01 0.012,-0.006 0.021,-0.019 0.026,-0.037 0.005,-0.018 0.008,-0.044 0.008,-0.079 0,-0.026 -0.001,-0.047 -0.004,-0.063 -0.003,-0.016 -0.008,-0.028 -0.014,-0.037 -0.006,-0.009 -0.015,-0.015 -0.026,-0.018 -0.011,-0.003 -0.025,-0.005 -0.042,-0.005 -0.023,0 -0.04,0.003 -0.052,0.009 -0.012,0.006 -0.021,0.018 -0.026,0.036 -0.005,0.018 -0.008,0.044 -0.008,0.078z"/>
  <path id="4" class="fil0" d="M2.845 1.504l0.314 0 0 0.376 -0.09 0 0 -0.306 -0.136 0 0 0.191c0,0.024 -0.004,0.044 -0.011,0.062 -0.007,0.018 -0.018,0.032 -0.033,0.042 -0.015,0.01 -0.034,0.015 -0.056,0.015 -0.025,0 -0.044,-0.001 -0.055,-0.004l0 -0.067c0.008,0.001 0.016,0.002 0.023,0.002 0.017,0 0.029,-0.005 0.035,-0.014 0.006,-0.009 0.009,-0.024 0.009,-0.045l0 -0.253z"/>
  <path id="5" class="fil0" d="M3.255 1.88l0 -0.376 0.09 0 0 0.143 0.127 0c0.072,0 0.108,0.039 0.108,0.116 0,0.039 -0.009,0.068 -0.028,0.087 -0.019,0.019 -0.045,0.029 -0.08,0.029l-0.217 0zm0.09 -0.167l0 0.101 0.09 0c0.019,0 0.033,-0.003 0.041,-0.011 0.008,-0.007 0.013,-0.02 0.013,-0.04 0,-0.014 -0.002,-0.024 -0.006,-0.032 -0.004,-0.007 -0.01,-0.012 -0.017,-0.015 -0.008,-0.003 -0.018,-0.004 -0.031,-0.004l-0.09 0zm0.382 -0.209l0 0.376 -0.09 0 0 -0.376 0.09 0z"/>
  <polygon id="6" class="fil0" points="3.912,1.716 4.07,1.716 4.07,1.879 4.16,1.879 4.16,1.504 4.07,1.504 4.07,1.646 3.912,1.646 3.912,1.504 3.822,1.504 3.822,1.879 3.912,1.879 "/>
  <polygon id="7" class="fil0" points="4.503,1.572 4.503,1.504 4.254,1.504 4.254,1.879 4.344,1.879 4.344,1.572 "/>
  <path id="8" class="fil0" d="M4.801 1.879l0.007 -0.052 -0.002 0c-0.008,0.017 -0.017,0.029 -0.028,0.038 -0.011,0.008 -0.024,0.014 -0.039,0.017 -0.015,0.002 -0.034,0.004 -0.057,0.004 -0.032,0 -0.058,-0.004 -0.078,-0.011 -0.02,-0.008 -0.035,-0.02 -0.044,-0.037 -0.01,-0.017 -0.015,-0.04 -0.015,-0.069 0,-0.024 0.003,-0.044 0.008,-0.059 0.005,-0.016 0.013,-0.028 0.025,-0.037 0.011,-0.009 0.026,-0.015 0.044,-0.019 0.018,-0.004 0.041,-0.006 0.07,-0.006 0.033,0 0.057,0.004 0.071,0.011 0.014,0.007 0.026,0.02 0.034,0.037l0.004 0 0 -0.064c0,-0.02 -0.002,-0.036 -0.008,-0.047 -0.005,-0.011 -0.013,-0.019 -0.025,-0.023 -0.012,-0.004 -0.028,-0.006 -0.049,-0.006 -0.027,0 -0.046,0.004 -0.056,0.012 -0.01,0.008 -0.015,0.022 -0.015,0.044l-0.09 0c0.001,-0.023 0.005,-0.042 0.013,-0.057 0.008,-0.015 0.019,-0.027 0.033,-0.035 0.014,-0.008 0.03,-0.014 0.048,-0.017 0.018,-0.003 0.039,-0.005 0.064,-0.005 0.04,0 0.072,0.003 0.096,0.009 0.025,0.006 0.044,0.019 0.058,0.038 0.014,0.02 0.021,0.049 0.021,0.087l0 0.247 -0.09 0zm0 -0.113c0,-0.022 -0.006,-0.037 -0.019,-0.045 -0.012,-0.008 -0.036,-0.012 -0.07,-0.012 -0.02,0 -0.036,0.002 -0.047,0.005 -0.011,0.003 -0.019,0.009 -0.024,0.017 -0.005,0.008 -0.007,0.019 -0.007,0.034 0,0.021 0.006,0.035 0.017,0.044 0.011,0.008 0.031,0.013 0.059,0.013 0.032,0 0.055,-0.004 0.069,-0.012 0.014,-0.008 0.021,-0.023 0.021,-0.045z"/>
  <path id="9" class="fil0" d="M5.071 1.783l0 0.094c0,0.024 -0.002,0.042 -0.007,0.056 -0.005,0.013 -0.013,0.023 -0.026,0.029 -0.013,0.006 -0.031,0.009 -0.055,0.009 -0.004,0 -0.007,-0 -0.009,-0.001l0 -0.042c0.015,-0 0.026,-0.003 0.033,-0.008 0.006,-0.005 0.01,-0.014 0.01,-0.029l0.001 -0.012 -0.037 0 0 -0.096 0.09 0z"/>
  <path id="10" class="fil0" d="M5.675 1.504l-0.1 0.399c-0.006,0.023 -0.012,0.044 -0.018,0.061 -0.006,0.017 -0.015,0.032 -0.025,0.044 -0.01,0.013 -0.023,0.022 -0.04,0.029 -0.017,0.007 -0.037,0.01 -0.061,0.01 -0.017,0 -0.029,-0.001 -0.037,-0.003l0 -0.065c0.007,0.002 0.014,0.002 0.021,0.002 0.022,-0 0.038,-0.009 0.048,-0.025 0.01,-0.016 0.019,-0.042 0.027,-0.077l-0.047 0 -0.123 -0.376 0.095 0 0.094 0.319 0.073 -0.319 0.093 0z"/>
  <path id="11" class="fil0" d="M5.762 1.504l0.314 0 0 0.376 -0.09 0 0 -0.306 -0.136 0 0 0.191c0,0.024 -0.004,0.044 -0.011,0.062 -0.007,0.018 -0.018,0.032 -0.033,0.042 -0.015,0.01 -0.034,0.015 -0.056,0.015 -0.025,0 -0.044,-0.001 -0.055,-0.004l0 -0.067c0.008,0.001 0.016,0.002 0.023,0.002 0.017,0 0.029,-0.005 0.035,-0.014 0.006,-0.009 0.009,-0.024 0.009,-0.045l0 -0.253z"/>
  <polygon id="12" class="fil0" points="6.257,1.782 6.257,1.879 6.167,1.879 6.167,1.782 "/>
  <path id="13" class="fil0" d="M6.535 1.879l0 -0.537 0.375 0 0 0.085 -0.273 0 0 0.124 0.17 0c0.033,0 0.061,0.007 0.084,0.02 0.023,0.013 0.04,0.032 0.052,0.057 0.012,0.025 0.017,0.055 0.017,0.089 0,0.034 -0.006,0.063 -0.017,0.088 -0.011,0.024 -0.029,0.043 -0.051,0.055 -0.023,0.013 -0.05,0.019 -0.083,0.019l-0.274 0zm0.103 -0.085l0.131 0c0.022,0 0.04,-0.002 0.052,-0.006 0.013,-0.004 0.022,-0.012 0.027,-0.023 0.006,-0.011 0.009,-0.027 0.009,-0.048 0,-0.031 -0.006,-0.052 -0.019,-0.063 -0.013,-0.011 -0.035,-0.017 -0.066,-0.017l-0.135 0 0 0.157z"/>
  <path id="14" class="fil0" d="M7.272 1.76l0.089 0 0 0.014c0,0.03 -0.007,0.054 -0.021,0.07 -0.014,0.016 -0.033,0.027 -0.058,0.033 -0.025,0.006 -0.056,0.009 -0.095,0.009 -0.044,0 -0.078,-0.006 -0.102,-0.018 -0.025,-0.012 -0.042,-0.032 -0.053,-0.06 -0.011,-0.028 -0.016,-0.066 -0.016,-0.115 0,-0.048 0.005,-0.087 0.016,-0.115 0.011,-0.028 0.029,-0.049 0.054,-0.061 0.025,-0.013 0.059,-0.019 0.102,-0.019 0.043,0 0.077,0.006 0.102,0.019 0.025,0.013 0.044,0.033 0.055,0.06 0.011,0.027 0.017,0.063 0.017,0.107l0 0.026 -0.255 0c0,0.03 0.002,0.053 0.007,0.069 0.005,0.015 0.013,0.026 0.024,0.032 0.011,0.006 0.028,0.009 0.05,0.009 0.021,0 0.037,-0.001 0.049,-0.004 0.012,-0.003 0.021,-0.008 0.027,-0.016 0.006,-0.008 0.009,-0.019 0.009,-0.033l0 -0.007zm0.002 -0.108c0,-0.022 -0.003,-0.04 -0.008,-0.053 -0.005,-0.013 -0.014,-0.022 -0.026,-0.027 -0.012,-0.005 -0.029,-0.008 -0.05,-0.008 -0.021,0 -0.037,0.003 -0.049,0.008 -0.012,0.005 -0.02,0.014 -0.026,0.027 -0.005,0.013 -0.008,0.03 -0.008,0.053l0.167 0z"/>
  <path id="15" class="fil0" d="M7.528 1.682c0,0.037 0.002,0.065 0.006,0.083 0.004,0.018 0.012,0.031 0.024,0.039 0.012,0.008 0.031,0.012 0.057,0.012 0.026,0 0.044,-0.005 0.056,-0.014 0.012,-0.009 0.019,-0.023 0.022,-0.04 0.003,-0.017 0.005,-0.043 0.005,-0.077 0,-0.034 -0.002,-0.06 -0.007,-0.076 -0.005,-0.016 -0.012,-0.027 -0.024,-0.032 -0.011,-0.005 -0.028,-0.008 -0.051,-0.008 -0.024,0 -0.041,0.003 -0.054,0.009 -0.012,0.006 -0.021,0.017 -0.026,0.033 -0.005,0.016 -0.008,0.04 -0.008,0.071zm0 0.146l0 0.211 -0.09 0 0 -0.535 0.086 0 -0.004 0.053 0.003 0c0.015,-0.022 0.031,-0.038 0.049,-0.046 0.018,-0.008 0.04,-0.013 0.068,-0.013 0.041,0 0.072,0.007 0.094,0.022 0.022,0.015 0.036,0.036 0.044,0.063 0.008,0.027 0.011,0.063 0.011,0.106 0,0.031 -0.001,0.058 -0.004,0.08 -0.003,0.022 -0.009,0.042 -0.019,0.06 -0.009,0.018 -0.024,0.031 -0.043,0.041 -0.019,0.01 -0.045,0.015 -0.077,0.015 -0.03,0 -0.053,-0.004 -0.071,-0.011 -0.018,-0.008 -0.034,-0.023 -0.046,-0.046z"/>
  <path id="16" class="fil0" d="M8.111 1.76l0.089 0 0 0.014c0,0.03 -0.007,0.054 -0.021,0.07 -0.014,0.016 -0.033,0.027 -0.058,0.033 -0.025,0.006 -0.056,0.009 -0.095,0.009 -0.044,0 -0.078,-0.006 -0.102,-0.018 -0.025,-0.012 -0.042,-0.032 -0.053,-0.06 -0.011,-0.028 -0.016,-0.066 -0.016,-0.115 0,-0.048 0.005,-0.087 0.016,-0.115 0.011,-0.028 0.029,-0.049 0.054,-0.061 0.025,-0.013 0.059,-0.019 0.102,-0.019 0.043,0 0.077,0.006 0.102,0.019 0.025,0.013 0.044,0.033 0.055,0.06 0.011,0.027 0.017,0.063 0.017,0.107l0 0.026 -0.255 0c0,0.03 0.002,0.053 0.007,0.069 0.005,0.015 0.013,0.026 0.024,0.032 0.011,0.006 0.028,0.009 0.05,0.009 0.021,0 0.037,-0.001 0.049,-0.004 0.012,-0.003 0.021,-0.008 0.027,-0.016 0.006,-0.008 0.009,-0.019 0.009,-0.033l0 -0.007zm0.002 -0.108c0,-0.022 -0.003,-0.04 -0.008,-0.053 -0.005,-0.013 -0.014,-0.022 -0.026,-0.027 -0.012,-0.005 -0.029,-0.008 -0.05,-0.008 -0.021,0 -0.037,0.003 -0.049,0.008 -0.012,0.005 -0.02,0.014 -0.026,0.027 -0.005,0.013 -0.008,0.03 -0.008,0.053l0.167 0z"/>
  <polygon id="17" class="fil0" points="8.526,1.572 8.526,1.504 8.277,1.504 8.277,1.879 8.366,1.879 8.366,1.572 "/>
  <path id="18" class="fil0" d="M8.567 1.691c0,-0.05 0.005,-0.088 0.016,-0.116 0.011,-0.028 0.028,-0.047 0.054,-0.059 0.025,-0.012 0.061,-0.018 0.107,-0.018 0.046,0 0.082,0.006 0.108,0.018 0.026,0.012 0.044,0.032 0.055,0.059 0.011,0.028 0.016,0.066 0.016,0.116 0,0.037 -0.003,0.067 -0.009,0.092 -0.006,0.025 -0.016,0.044 -0.029,0.06 -0.013,0.015 -0.032,0.026 -0.054,0.033 -0.023,0.007 -0.051,0.01 -0.086,0.011 -0.034,0 -0.063,-0.003 -0.086,-0.011 -0.023,-0.007 -0.041,-0.018 -0.054,-0.033 -0.013,-0.015 -0.023,-0.035 -0.029,-0.059 -0.006,-0.024 -0.009,-0.055 -0.009,-0.092zm0.092 0c0,0.035 0.003,0.061 0.008,0.079 0.005,0.018 0.014,0.03 0.026,0.036 0.012,0.006 0.029,0.01 0.052,0.01 0.023,0 0.04,-0.003 0.052,-0.01 0.012,-0.006 0.021,-0.019 0.026,-0.037 0.005,-0.018 0.008,-0.044 0.008,-0.079 0,-0.026 -0.001,-0.047 -0.004,-0.063 -0.003,-0.016 -0.008,-0.028 -0.014,-0.037 -0.006,-0.009 -0.015,-0.015 -0.026,-0.018 -0.011,-0.003 -0.025,-0.005 -0.042,-0.005 -0.023,0 -0.04,0.003 -0.052,0.009 -0.012,0.006 -0.021,0.018 -0.026,0.036 -0.005,0.018 -0.008,0.044 -0.008,0.078z"/>
  <path id="19" class="fil0" d="M9.087 1.569l0 0.089 0.085 0c0.023,0 0.039,-0.003 0.048,-0.01 0.01,-0.007 0.014,-0.018 0.014,-0.033 0,-0.016 -0.004,-0.028 -0.012,-0.035 -0.008,-0.007 -0.022,-0.011 -0.042,-0.011l-0.094 0zm0 0.149l0 0.096 0.098 0c0.021,0 0.035,-0.004 0.044,-0.012 0.009,-0.008 0.014,-0.02 0.014,-0.036 0,-0.032 -0.018,-0.048 -0.054,-0.048l-0.103 0zm-0.088 0.161l0 -0.376 0.207 0c0.042,0 0.073,0.008 0.091,0.025 0.018,0.016 0.027,0.042 0.027,0.078 0,0.02 -0.006,0.036 -0.018,0.05 -0.012,0.014 -0.029,0.024 -0.05,0.028l0 0.002c0.023,0.004 0.042,0.014 0.056,0.029 0.014,0.015 0.021,0.035 0.021,0.061 0,0.024 -0.004,0.044 -0.011,0.059 -0.007,0.015 -0.019,0.026 -0.036,0.033 -0.017,0.007 -0.04,0.011 -0.07,0.011l-0.218 0z"/>
  <path id="20" class="fil0" d="M9.648 1.879l0.007 -0.052 -0.002 0c-0.008,0.017 -0.017,0.029 -0.028,0.038 -0.011,0.008 -0.024,0.014 -0.039,0.017 -0.015,0.002 -0.034,0.004 -0.057,0.004 -0.032,0 -0.058,-0.004 -0.078,-0.011 -0.02,-0.008 -0.035,-0.02 -0.044,-0.037 -0.01,-0.017 -0.015,-0.04 -0.015,-0.069 0,-0.024 0.003,-0.044 0.008,-0.059 0.005,-0.016 0.013,-0.028 0.025,-0.037 0.011,-0.009 0.026,-0.015 0.044,-0.019 0.018,-0.004 0.041,-0.006 0.07,-0.006 0.033,0 0.057,0.004 0.071,0.011 0.014,0.007 0.026,0.02 0.034,0.037l0.004 0 0 -0.064c0,-0.02 -0.002,-0.036 -0.008,-0.047 -0.005,-0.011 -0.013,-0.019 -0.025,-0.023 -0.012,-0.004 -0.028,-0.006 -0.049,-0.006 -0.027,0 -0.046,0.004 -0.056,0.012 -0.01,0.008 -0.015,0.022 -0.015,0.044l-0.09 0c0.001,-0.023 0.005,-0.042 0.013,-0.057 0.008,-0.015 0.019,-0.027 0.033,-0.035 0.014,-0.008 0.03,-0.014 0.048,-0.017 0.018,-0.003 0.039,-0.005 0.064,-0.005 0.04,0 0.072,0.003 0.096,0.009 0.025,0.006 0.044,0.019 0.058,0.038 0.014,0.02 0.021,0.049 0.021,0.087l0 0.247 -0.09 0zm0 -0.113c0,-0.022 -0.006,-0.037 -0.019,-0.045 -0.012,-0.008 -0.036,-0.012 -0.07,-0.012 -0.02,0 -0.036,0.002 -0.047,0.005 -0.011,0.003 -0.019,0.009 -0.024,0.017 -0.005,0.008 -0.007,0.019 -0.007,0.034 0,0.021 0.006,0.035 0.017,0.044 0.011,0.008 0.031,0.013 0.059,0.013 0.032,0 0.055,-0.004 0.069,-0.012 0.014,-0.008 0.021,-0.023 0.021,-0.045z"/>
  <path id="21" class="fil0" d="M10.139 1.504l0 0.377 -0.09 0 0 -0.144 -0.069 0 -0.085 0.144 -0.096 0 0.094 -0.156c-0.055,-0.015 -0.082,-0.051 -0.082,-0.107 0,-0.076 0.035,-0.114 0.106,-0.114l0.22 0zm-0.09 0.167l0 -0.102 -0.095 0c-0.019,0 -0.032,0.004 -0.04,0.011 -0.008,0.007 -0.012,0.021 -0.012,0.04 0,0.02 0.005,0.033 0.015,0.04 0.01,0.007 0.024,0.011 0.044,0.011l0.087 0z"/>
  <path id="22" class="fil0" d="M10.319 1.783l0 0.094c0,0.024 -0.002,0.042 -0.007,0.056 -0.005,0.013 -0.013,0.023 -0.026,0.029 -0.013,0.006 -0.031,0.009 -0.055,0.009 -0.004,0 -0.007,-0 -0.009,-0.001l0 -0.042c0.015,-0 0.026,-0.003 0.033,-0.008 0.006,-0.005 0.01,-0.014 0.01,-0.029l0.001 -0.012 -0.037 0 0 -0.096 0.09 0z"/>
  <path id="23" class="fil0" d="M10.607 1.813c0.011,-0.015 0.02,-0.029 0.026,-0.043 0.006,-0.014 0.011,-0.031 0.014,-0.05 0.003,-0.02 0.005,-0.044 0.005,-0.074l0 -0.143 0.293 0 0 0.31 0.048 0 0 0.169 -0.083 0 0 -0.102 -0.262 0 0 0.102 -0.082 0 0 -0.169 0.04 0zm0.249 0l0 -0.243 -0.118 0 0 0.082c0,0.073 -0.014,0.127 -0.041,0.162l0.16 0z"/>
  <polygon id="24" class="fil0" points="11.136,1.782 11.136,1.879 11.046,1.879 11.046,1.782 "/>
  <polygon id="25" class="fil0" points="11.805,1.342 11.805,1.441 11.585,1.879 11.475,1.879 11.706,1.428 11.406,1.428 11.406,1.342 "/>
  <path id="26" class="fil0" d="M12.007 1.783l0 0.094c0,0.024 -0.002,0.042 -0.007,0.056 -0.005,0.013 -0.013,0.023 -0.026,0.029 -0.013,0.006 -0.031,0.009 -0.055,0.009 -0.004,0 -0.007,-0 -0.009,-0.001l0 -0.042c0.015,-0 0.026,-0.003 0.033,-0.008 0.006,-0.005 0.01,-0.014 0.01,-0.029l0.001 -0.012 -0.037 0 0 -0.096 0.09 0z"/>
  <polygon id="27" class="fil0" points="12.38,1.504 12.38,1.649 12.402,1.649 12.507,1.504 12.61,1.504 12.475,1.68 12.635,1.879 12.527,1.879 12.402,1.711 12.38,1.711 12.38,1.879 12.29,1.879 12.29,1.504 "/>
  <path id="28" class="fil0" d="M12.676 1.691c0,-0.05 0.005,-0.088 0.016,-0.116 0.011,-0.028 0.028,-0.047 0.054,-0.059 0.025,-0.012 0.061,-0.018 0.107,-0.018 0.046,0 0.082,0.006 0.108,0.018 0.026,0.012 0.044,0.032 0.055,0.059 0.011,0.028 0.016,0.066 0.016,0.116 0,0.037 -0.003,0.067 -0.009,0.092 -0.006,0.025 -0.016,0.044 -0.029,0.06 -0.013,0.015 -0.032,0.026 -0.054,0.033 -0.023,0.007 -0.051,0.01 -0.086,0.011 -0.034,0 -0.063,-0.003 -0.086,-0.011 -0.023,-0.007 -0.041,-0.018 -0.054,-0.033 -0.013,-0.015 -0.023,-0.035 -0.029,-0.059 -0.006,-0.024 -0.009,-0.055 -0.009,-0.092zm0.092 0c0,0.035 0.003,0.061 0.008,0.079 0.005,0.018 0.014,0.03 0.026,0.036 0.012,0.006 0.029,0.01 0.052,0.01 0.023,0 0.04,-0.003 0.052,-0.01 0.012,-0.006 0.021,-0.019 0.026,-0.037 0.005,-0.018 0.008,-0.044 0.008,-0.079 0,-0.026 -0.001,-0.047 -0.004,-0.063 -0.003,-0.016 -0.008,-0.028 -0.014,-0.037 -0.006,-0.009 -0.015,-0.015 -0.026,-0.018 -0.011,-0.003 -0.025,-0.005 -0.042,-0.005 -0.023,0 -0.04,0.003 -0.052,0.009 -0.012,0.006 -0.021,0.018 -0.026,0.036 -0.005,0.018 -0.008,0.044 -0.008,0.078z"/>
  <path id="29" class="fil0" d="M13.198 1.682c0,0.037 0.002,0.065 0.006,0.083 0.004,0.018 0.012,0.031 0.024,0.039 0.012,0.008 0.031,0.012 0.057,0.012 0.026,0 0.044,-0.005 0.056,-0.014 0.012,-0.009 0.019,-0.023 0.022,-0.04 0.003,-0.017 0.005,-0.043 0.005,-0.077 0,-0.034 -0.002,-0.06 -0.007,-0.076 -0.005,-0.016 -0.012,-0.027 -0.024,-0.032 -0.011,-0.005 -0.028,-0.008 -0.051,-0.008 -0.024,0 -0.041,0.003 -0.054,0.009 -0.012,0.006 -0.021,0.017 -0.026,0.033 -0.005,0.016 -0.008,0.04 -0.008,0.071zm0 0.146l0 0.211 -0.09 0 0 -0.535 0.086 0 -0.004 0.053 0.003 0c0.015,-0.022 0.031,-0.038 0.049,-0.046 0.018,-0.008 0.04,-0.013 0.068,-0.013 0.041,0 0.072,0.007 0.094,0.022 0.022,0.015 0.036,0.036 0.044,0.063 0.008,0.027 0.011,0.063 0.011,0.106 0,0.031 -0.001,0.058 -0.004,0.08 -0.003,0.022 -0.009,0.042 -0.019,0.06 -0.009,0.018 -0.024,0.031 -0.043,0.041 -0.019,0.01 -0.045,0.015 -0.077,0.015 -0.03,0 -0.053,-0.004 -0.071,-0.011 -0.018,-0.008 -0.034,-0.023 -0.046,-0.046z"/>
  <polygon id="30" class="fil0" points="13.629,1.573 13.788,1.573 13.788,1.879 13.877,1.879 13.877,1.504 13.539,1.504 13.539,1.879 13.629,1.879 "/>
  <polygon id="31" class="fil0" points="14.052,1.782 14.052,1.879 13.963,1.879 13.963,1.782 "/>
  <path id="32" class="fil0" d="M14.669 1.777l-0.233 0 -0.034 0.103 -0.107 0 0.179 -0.537 0.151 0 0.182 0.537 -0.105 0 -0.034 -0.103zm-0.024 -0.077l-0.093 -0.279 -0.092 0.279 0.185 0z"/>
  <path class="fil0" d="M1.206 2.737c-0.033,0 -0.057,0.002 -0.072,0.006 -0.015,0.004 -0.025,0.011 -0.031,0.022 -0.005,0.011 -0.008,0.028 -0.008,0.051 0,0.022 0.003,0.039 0.009,0.051 0.006,0.012 0.017,0.021 0.032,0.026 0.016,0.005 0.039,0.008 0.069,0.008 0.031,0 0.054,-0.003 0.07,-0.008 0.016,-0.005 0.027,-0.013 0.033,-0.025 0.006,-0.012 0.009,-0.028 0.009,-0.051 0,-0.023 -0.003,-0.041 -0.009,-0.052 -0.006,-0.011 -0.016,-0.019 -0.031,-0.022 -0.015,-0.004 -0.039,-0.006 -0.071,-0.006zm0 -0.226c-0.029,0 -0.051,0.002 -0.066,0.006 -0.014,0.004 -0.024,0.012 -0.03,0.022 -0.006,0.011 -0.008,0.027 -0.008,0.047 0,0.017 0.002,0.03 0.005,0.039 0.003,0.01 0.008,0.017 0.016,0.022 0.007,0.005 0.018,0.008 0.03,0.01 0.013,0.002 0.031,0.003 0.053,0.003 0.023,0 0.041,-0.001 0.054,-0.003 0.013,-0.002 0.023,-0.005 0.03,-0.01 0.007,-0.005 0.012,-0.012 0.015,-0.021 0.003,-0.009 0.004,-0.022 0.004,-0.039 0,-0.022 -0.003,-0.038 -0.009,-0.048 -0.006,-0.011 -0.016,-0.018 -0.03,-0.022 -0.014,-0.004 -0.036,-0.006 -0.064,-0.006zm-0.115 0.186c-0.023,-0.007 -0.04,-0.016 -0.053,-0.027 -0.013,-0.011 -0.022,-0.024 -0.027,-0.039 -0.005,-0.015 -0.007,-0.034 -0.007,-0.055 0,-0.028 0.004,-0.051 0.011,-0.069 0.007,-0.018 0.019,-0.033 0.035,-0.044 0.016,-0.011 0.037,-0.019 0.062,-0.023 0.025,-0.005 0.057,-0.007 0.095,-0.007 0.05,0 0.09,0.004 0.119,0.013 0.029,0.009 0.05,0.023 0.063,0.044 0.013,0.021 0.019,0.05 0.019,0.087 0,0.022 -0.002,0.041 -0.006,0.056 -0.004,0.015 -0.012,0.028 -0.024,0.038 -0.012,0.011 -0.03,0.02 -0.053,0.027 0.024,0.006 0.042,0.014 0.056,0.024 0.013,0.01 0.023,0.023 0.028,0.039 0.005,0.016 0.008,0.036 0.008,0.06 0,0.03 -0.003,0.055 -0.01,0.075 -0.007,0.02 -0.018,0.036 -0.034,0.049 -0.016,0.012 -0.037,0.022 -0.064,0.028 -0.027,0.006 -0.061,0.009 -0.102,0.009 -0.041,0 -0.074,-0.003 -0.101,-0.009 -0.027,-0.006 -0.048,-0.015 -0.064,-0.027 -0.016,-0.013 -0.027,-0.029 -0.034,-0.049 -0.007,-0.02 -0.01,-0.045 -0.01,-0.075 0,-0.024 0.003,-0.044 0.009,-0.06 0.006,-0.016 0.015,-0.029 0.029,-0.04 0.014,-0.01 0.032,-0.018 0.056,-0.024z"/>
  <path id="1" class="fil0" d="M1.866 2.429l0 0.084c-0.027,0 -0.046,0.006 -0.055,0.018 -0.01,0.012 -0.015,0.034 -0.015,0.067l0 0.285c0,0.035 0.004,0.059 0.013,0.072 0.008,0.012 0.023,0.019 0.043,0.019l0.014 0 0 0.084c-0.039,0 -0.07,-0.004 -0.093,-0.013 -0.023,-0.008 -0.04,-0.022 -0.051,-0.039 -0.011,-0.017 -0.018,-0.039 -0.021,-0.065 -0.003,-0.026 -0.005,-0.06 -0.005,-0.103l0 -0.192c0,-0.042 0.002,-0.075 0.005,-0.1 0.003,-0.025 0.01,-0.046 0.022,-0.064 0.011,-0.018 0.028,-0.031 0.051,-0.04 0.023,-0.009 0.054,-0.013 0.092,-0.013z"/>
  <path id="2" class="fil0" d="M2.111 2.738l0 -0.077 0.057 0c0.026,0 0.044,-0.002 0.055,-0.005 0.011,-0.003 0.019,-0.01 0.023,-0.02 0.004,-0.011 0.007,-0.028 0.007,-0.053 0,-0.02 -0.003,-0.034 -0.009,-0.044 -0.006,-0.01 -0.016,-0.017 -0.031,-0.021 -0.015,-0.004 -0.036,-0.006 -0.064,-0.006 -0.031,0 -0.054,0.002 -0.068,0.008 -0.014,0.005 -0.024,0.014 -0.028,0.028 -0.005,0.013 -0.007,0.034 -0.007,0.063l-0.096 0c0,-0.045 0.006,-0.08 0.019,-0.106 0.013,-0.026 0.033,-0.045 0.061,-0.056 0.028,-0.011 0.066,-0.017 0.114,-0.017 0.052,0 0.093,0.005 0.123,0.014 0.03,0.009 0.051,0.024 0.065,0.044 0.013,0.021 0.02,0.048 0.02,0.083 0,0.025 -0.002,0.045 -0.006,0.062 -0.004,0.017 -0.012,0.031 -0.025,0.042 -0.013,0.011 -0.031,0.018 -0.055,0.022l0 0.004c0.024,0.003 0.043,0.009 0.057,0.018 0.014,0.009 0.023,0.021 0.029,0.037 0.006,0.016 0.009,0.036 0.009,0.061 0,0.028 -0.003,0.052 -0.009,0.071 -0.006,0.02 -0.016,0.036 -0.031,0.05 -0.015,0.014 -0.036,0.024 -0.063,0.031 -0.027,0.007 -0.062,0.01 -0.104,0.01 -0.052,0 -0.094,-0.005 -0.124,-0.016 -0.031,-0.011 -0.053,-0.027 -0.066,-0.05 -0.013,-0.023 -0.02,-0.053 -0.02,-0.091l0 -0.029 0.095 0c0,0.032 0.002,0.055 0.007,0.069 0.005,0.014 0.015,0.024 0.031,0.029 0.016,0.005 0.041,0.008 0.077,0.008 0.03,0 0.053,-0.003 0.068,-0.009 0.016,-0.006 0.026,-0.015 0.032,-0.027 0.006,-0.012 0.009,-0.029 0.009,-0.051 0,-0.022 -0.003,-0.038 -0.008,-0.048 -0.006,-0.011 -0.014,-0.018 -0.027,-0.021 -0.012,-0.004 -0.029,-0.005 -0.052,-0.005l-0.063 0z"/>
  <path id="3" class="fil0" d="M2.819 2.436l0 0.345 0.062 0 0 0.077 -0.062 0 0 0.116 -0.099 0 0 -0.116 -0.291 0 0 -0.111 0.239 -0.311 0.151 0zm-0.309 0.345l0.21 0 0 -0.27 -0.21 0.27z"/>
  <polygon id="4" class="fil0" points="3.267,2.437 3.267,2.974 3.168,2.974 3.168,2.523 3.028,2.662 2.969,2.598 3.142,2.437 "/>
  <path id="5" class="fil0" d="M3.829 2.436l0 0.345 0.062 0 0 0.077 -0.062 0 0 0.116 -0.099 0 0 -0.116 -0.291 0 0 -0.111 0.239 -0.311 0.151 0zm-0.309 0.345l0.21 0 0 -0.27 -0.21 0.27z"/>
  <polygon id="6" class="fil0" points="4.277,2.437 4.277,2.974 4.178,2.974 4.178,2.523 4.038,2.662 3.979,2.598 4.152,2.437 "/>
  <path id="7" class="fil0" d="M4.469 2.429l0 0.084c0.027,0 0.046,0.006 0.056,0.019 0.01,0.013 0.015,0.036 0.015,0.069l0 0.278c0,0.036 -0.004,0.061 -0.013,0.074 -0.009,0.014 -0.023,0.02 -0.044,0.02l-0.014 0 0 0.084c0.039,0 0.07,-0.004 0.093,-0.013 0.023,-0.009 0.04,-0.022 0.051,-0.039 0.011,-0.017 0.018,-0.039 0.022,-0.065 0.004,-0.026 0.005,-0.06 0.006,-0.103l0 -0.192c0,-0.041 -0.002,-0.074 -0.005,-0.099 -0.003,-0.025 -0.011,-0.047 -0.022,-0.064 -0.011,-0.018 -0.028,-0.031 -0.051,-0.04 -0.023,-0.009 -0.054,-0.013 -0.093,-0.013z"/>
  <path id="8" class="fil0" d="M4.91 2.824l0.098 0c0,0.019 0.002,0.035 0.007,0.045 0.004,0.011 0.012,0.018 0.022,0.023 0.011,0.005 0.026,0.007 0.045,0.007l0.047 0c0.023,0 0.041,-0.002 0.054,-0.007 0.013,-0.004 0.022,-0.012 0.028,-0.023 0.006,-0.011 0.008,-0.027 0.008,-0.048l0 -0.108c-0.012,0.023 -0.027,0.037 -0.046,0.043 -0.019,0.006 -0.045,0.009 -0.077,0.009 -0.046,0 -0.083,-0.004 -0.111,-0.013 -0.027,-0.009 -0.048,-0.024 -0.061,-0.047 -0.013,-0.022 -0.02,-0.054 -0.02,-0.096 0,-0.032 0.003,-0.058 0.009,-0.08 0.006,-0.022 0.016,-0.04 0.031,-0.054 0.015,-0.014 0.036,-0.025 0.063,-0.032 0.027,-0.007 0.061,-0.011 0.104,-0.011 0.048,0 0.086,0.005 0.116,0.014 0.03,0.009 0.052,0.027 0.068,0.053 0.016,0.026 0.024,0.063 0.024,0.111l0 0.189c0,0.038 -0.004,0.069 -0.013,0.092 -0.008,0.024 -0.021,0.042 -0.038,0.055 -0.017,0.013 -0.038,0.022 -0.063,0.026 -0.025,0.005 -0.057,0.007 -0.094,0.007 -0.034,0 -0.063,-0.002 -0.086,-0.005 -0.023,-0.003 -0.043,-0.01 -0.06,-0.02 -0.017,-0.01 -0.03,-0.026 -0.04,-0.047 -0.009,-0.021 -0.014,-0.049 -0.014,-0.084zm0.308 -0.224c0,-0.023 -0.003,-0.041 -0.008,-0.053 -0.006,-0.012 -0.016,-0.021 -0.031,-0.026 -0.015,-0.005 -0.038,-0.008 -0.069,-0.008 -0.029,0 -0.051,0.003 -0.066,0.008 -0.015,0.005 -0.025,0.014 -0.031,0.026 -0.006,0.012 -0.009,0.03 -0.009,0.053 0,0.02 0.001,0.035 0.004,0.046 0.002,0.011 0.007,0.019 0.014,0.025 0.007,0.006 0.018,0.01 0.031,0.012 0.014,0.002 0.033,0.003 0.059,0.003 0.033,0 0.057,-0.002 0.071,-0.006 0.014,-0.004 0.024,-0.012 0.029,-0.023 0.005,-0.012 0.007,-0.031 0.007,-0.057z"/>
  <polygon id="9" class="fil0" points="6.001,2.436 6.001,2.535 5.782,2.974 5.671,2.974 5.903,2.522 5.603,2.522 5.603,2.436 "/>
  <path id="10" class="fil0" d="M6.516 2.587l-0.098 0c0,-0.019 -0.002,-0.034 -0.007,-0.045 -0.004,-0.011 -0.012,-0.018 -0.022,-0.023 -0.011,-0.005 -0.025,-0.007 -0.045,-0.007l-0.047 0c-0.023,0 -0.041,0.002 -0.054,0.007 -0.013,0.004 -0.022,0.012 -0.028,0.023 -0.006,0.011 -0.008,0.027 -0.008,0.048l0 0.108c0.008,-0.016 0.019,-0.028 0.031,-0.035 0.012,-0.008 0.026,-0.012 0.04,-0.014 0.014,-0.002 0.032,-0.003 0.054,-0.003 0.043,0 0.078,0.004 0.106,0.013 0.027,0.008 0.048,0.024 0.063,0.047 0.015,0.023 0.022,0.055 0.022,0.096 0,0.036 -0.003,0.066 -0.009,0.088 -0.006,0.022 -0.016,0.04 -0.031,0.053 -0.015,0.013 -0.035,0.023 -0.062,0.028 -0.026,0.006 -0.061,0.008 -0.105,0.008 -0.047,0 -0.086,-0.005 -0.116,-0.014 -0.03,-0.009 -0.053,-0.027 -0.07,-0.053 -0.016,-0.026 -0.024,-0.063 -0.024,-0.111l0 -0.189c0,-0.05 0.008,-0.088 0.022,-0.114 0.015,-0.026 0.037,-0.044 0.067,-0.053 0.03,-0.009 0.07,-0.014 0.12,-0.014 0.035,0 0.064,0.002 0.087,0.005 0.023,0.003 0.043,0.01 0.06,0.02 0.017,0.01 0.03,0.026 0.04,0.047 0.009,0.021 0.014,0.049 0.014,0.084zm-0.309 0.224c0,0.02 0.001,0.035 0.004,0.047 0.003,0.011 0.008,0.02 0.015,0.026 0.008,0.006 0.018,0.01 0.032,0.012 0.014,0.002 0.033,0.003 0.057,0.003 0.023,0 0.042,-0.001 0.054,-0.003 0.013,-0.002 0.023,-0.006 0.031,-0.012 0.008,-0.006 0.013,-0.014 0.016,-0.025 0.003,-0.011 0.005,-0.027 0.006,-0.047 0,-0.024 -0.003,-0.042 -0.007,-0.054 -0.005,-0.012 -0.015,-0.02 -0.031,-0.025 -0.015,-0.005 -0.039,-0.007 -0.071,-0.007 -0.025,0 -0.044,0.001 -0.058,0.003 -0.013,0.002 -0.024,0.006 -0.031,0.012 -0.007,0.006 -0.012,0.014 -0.014,0.025 -0.002,0.011 -0.004,0.026 -0.004,0.046z"/>
  <path id="11" class="fil0" d="M6.808 2.824l0.098 0c0,0.019 0.002,0.035 0.007,0.045 0.004,0.011 0.012,0.018 0.022,0.023 0.011,0.005 0.026,0.007 0.045,0.007l0.047 0c0.023,0 0.041,-0.002 0.054,-0.007 0.013,-0.004 0.022,-0.012 0.028,-0.023 0.006,-0.011 0.008,-0.027 0.008,-0.048l0 -0.108c-0.012,0.023 -0.027,0.037 -0.046,0.043 -0.019,0.006 -0.045,0.009 -0.077,0.009 -0.046,0 -0.083,-0.004 -0.111,-0.013 -0.027,-0.009 -0.048,-0.024 -0.061,-0.047 -0.013,-0.022 -0.02,-0.054 -0.02,-0.096 0,-0.032 0.003,-0.058 0.009,-0.08 0.006,-0.022 0.016,-0.04 0.031,-0.054 0.015,-0.014 0.036,-0.025 0.063,-0.032 0.027,-0.007 0.061,-0.011 0.104,-0.011 0.048,0 0.086,0.005 0.116,0.014 0.03,0.009 0.052,0.027 0.068,0.053 0.016,0.026 0.024,0.063 0.024,0.111l0 0.189c0,0.038 -0.004,0.069 -0.013,0.092 -0.008,0.024 -0.021,0.042 -0.038,0.055 -0.017,0.013 -0.038,0.022 -0.063,0.026 -0.025,0.005 -0.057,0.007 -0.094,0.007 -0.034,0 -0.063,-0.002 -0.086,-0.005 -0.023,-0.003 -0.043,-0.01 -0.06,-0.02 -0.017,-0.01 -0.03,-0.026 -0.04,-0.047 -0.009,-0.021 -0.014,-0.049 -0.014,-0.084zm0.308 -0.224c0,-0.023 -0.003,-0.041 -0.008,-0.053 -0.006,-0.012 -0.016,-0.021 -0.031,-0.026 -0.015,-0.005 -0.038,-0.008 -0.069,-0.008 -0.029,0 -0.051,0.003 -0.066,0.008 -0.015,0.005 -0.025,0.014 -0.031,0.026 -0.006,0.012 -0.009,0.03 -0.009,0.053 0,0.02 0.001,0.035 0.004,0.046 0.002,0.011 0.007,0.019 0.014,0.025 0.007,0.006 0.018,0.01 0.031,0.012 0.014,0.002 0.033,0.003 0.059,0.003 0.033,0 0.057,-0.002 0.071,-0.006 0.014,-0.004 0.024,-0.012 0.029,-0.023 0.005,-0.012 0.007,-0.031 0.007,-0.057z"/>
  <path id="12" class="fil0" d="M7.312 2.824l0.098 0c0,0.019 0.002,0.035 0.007,0.045 0.004,0.011 0.012,0.018 0.022,0.023 0.011,0.005 0.026,0.007 0.045,0.007l0.047 0c0.023,0 0.041,-0.002 0.054,-0.007 0.013,-0.004 0.022,-0.012 0.028,-0.023 0.006,-0.011 0.008,-0.027 0.008,-0.048l0 -0.108c-0.012,0.023 -0.027,0.037 -0.046,0.043 -0.019,0.006 -0.045,0.009 -0.077,0.009 -0.046,0 -0.083,-0.004 -0.111,-0.013 -0.027,-0.009 -0.048,-0.024 -0.061,-0.047 -0.013,-0.022 -0.02,-0.054 -0.02,-0.096 0,-0.032 0.003,-0.058 0.009,-0.08 0.006,-0.022 0.016,-0.04 0.031,-0.054 0.015,-0.014 0.036,-0.025 0.063,-0.032 0.027,-0.007 0.061,-0.011 0.104,-0.011 0.048,0 0.086,0.005 0.116,0.014 0.03,0.009 0.052,0.027 0.068,0.053 0.016,0.026 0.024,0.063 0.024,0.111l0 0.189c0,0.038 -0.004,0.069 -0.013,0.092 -0.008,0.024 -0.021,0.042 -0.038,0.055 -0.017,0.013 -0.038,0.022 -0.063,0.026 -0.025,0.005 -0.057,0.007 -0.094,0.007 -0.034,0 -0.063,-0.002 -0.086,-0.005 -0.023,-0.003 -0.043,-0.01 -0.06,-0.02 -0.017,-0.01 -0.03,-0.026 -0.04,-0.047 -0.009,-0.021 -0.014,-0.049 -0.014,-0.084zm0.308 -0.224c0,-0.023 -0.003,-0.041 -0.008,-0.053 -0.006,-0.012 -0.016,-0.021 -0.031,-0.026 -0.015,-0.005 -0.038,-0.008 -0.069,-0.008 -0.029,0 -0.051,0.003 -0.066,0.008 -0.015,0.005 -0.025,0.014 -0.031,0.026 -0.006,0.012 -0.009,0.03 -0.009,0.053 0,0.02 0.001,0.035 0.004,0.046 0.002,0.011 0.007,0.019 0.014,0.025 0.007,0.006 0.018,0.01 0.031,0.012 0.014,0.002 0.033,0.003 0.059,0.003 0.033,0 0.057,-0.002 0.071,-0.006 0.014,-0.004 0.024,-0.012 0.029,-0.023 0.005,-0.012 0.007,-0.031 0.007,-0.057z"/>
  <path class="fil0" d="M1.101 3.668l0.118 0c0.003,-0.045 0.008,-0.081 0.015,-0.11 0.008,-0.028 0.019,-0.051 0.036,-0.068 0.016,-0.017 0.039,-0.03 0.067,-0.037 0.028,-0.008 0.066,-0.012 0.111,-0.012 0.047,0 0.085,0.004 0.114,0.012 0.029,0.008 0.052,0.022 0.069,0.041 0.017,0.019 0.03,0.046 0.037,0.079 0.007,0.034 0.011,0.077 0.011,0.131 0,0.061 -0.004,0.11 -0.011,0.147 -0.007,0.037 -0.02,0.065 -0.037,0.085 -0.017,0.02 -0.04,0.034 -0.069,0.042 -0.029,0.008 -0.067,0.012 -0.114,0.012 -0.047,-0 -0.084,-0.003 -0.112,-0.01 -0.028,-0.006 -0.05,-0.018 -0.066,-0.034 -0.016,-0.017 -0.028,-0.04 -0.036,-0.069 -0.008,-0.03 -0.013,-0.071 -0.015,-0.123l-0.118 0 0 0.23 -0.103 0 0 -0.537 0.103 0 0 0.22zm0.223 0.049c0,0.044 0.002,0.079 0.005,0.103 0.003,0.024 0.009,0.043 0.018,0.055 0.008,0.012 0.02,0.02 0.036,0.023 0.015,0.004 0.038,0.006 0.066,0.006 0.029,-0 0.052,-0.002 0.067,-0.006 0.015,-0.004 0.027,-0.012 0.036,-0.024 0.009,-0.012 0.015,-0.03 0.018,-0.054 0.003,-0.024 0.005,-0.058 0.005,-0.103 0,-0.045 -0.002,-0.079 -0.005,-0.103 -0.003,-0.024 -0.009,-0.042 -0.018,-0.054 -0.009,-0.012 -0.02,-0.02 -0.036,-0.023 -0.015,-0.004 -0.038,-0.006 -0.067,-0.006 -0.029,0 -0.052,0.002 -0.067,0.006 -0.015,0.004 -0.027,0.012 -0.035,0.024 -0.008,0.012 -0.014,0.03 -0.018,0.054 -0.003,0.024 -0.005,0.059 -0.005,0.103z"/>
  <path id="1" class="fil0" d="M1.85 3.787c0,0.037 0.002,0.065 0.006,0.083 0.004,0.018 0.012,0.031 0.024,0.039 0.012,0.008 0.031,0.012 0.057,0.012 0.026,0 0.044,-0.005 0.056,-0.014 0.012,-0.009 0.019,-0.023 0.022,-0.04 0.003,-0.017 0.005,-0.043 0.005,-0.077 0,-0.034 -0.002,-0.06 -0.007,-0.076 -0.005,-0.016 -0.012,-0.027 -0.024,-0.032 -0.011,-0.005 -0.028,-0.008 -0.051,-0.008 -0.024,0 -0.041,0.003 -0.054,0.009 -0.012,0.006 -0.021,0.017 -0.026,0.033 -0.005,0.016 -0.008,0.04 -0.008,0.071zm0 0.146l0 0.211 -0.09 0 0 -0.535 0.086 0 -0.004 0.053 0.003 0c0.015,-0.022 0.031,-0.038 0.049,-0.046 0.018,-0.008 0.04,-0.013 0.068,-0.013 0.041,0 0.072,0.007 0.094,0.022 0.022,0.015 0.036,0.036 0.044,0.063 0.008,0.027 0.011,0.063 0.011,0.106 0,0.031 -0.001,0.058 -0.004,0.08 -0.003,0.022 -0.009,0.042 -0.019,0.06 -0.009,0.018 -0.024,0.031 -0.043,0.041 -0.019,0.01 -0.045,0.015 -0.077,0.015 -0.03,0 -0.053,-0.004 -0.071,-0.011 -0.018,-0.008 -0.034,-0.023 -0.046,-0.046z"/>
  <path id="2" class="fil0" d="M2.191 3.609l0 0.376 0.11 0 0.123 -0.234c0.006,-0.011 0.02,-0.039 0.041,-0.084 -0.004,0.01 -0.008,0.027 -0.012,0.052 -0.004,0.025 -0.006,0.045 -0.006,0.059l0 0.207 0.085 0 0 -0.376 -0.11 0 -0.123 0.236c-0.008,0.015 -0.022,0.043 -0.041,0.085 0.004,-0.01 0.008,-0.026 0.012,-0.047 0.004,-0.021 0.006,-0.039 0.006,-0.055l0 -0.219 -0.085 0z"/>
  <path id="3" class="fil0" d="M2.861 3.843l0.088 0c0,0.027 -0.003,0.05 -0.009,0.069 -0.006,0.019 -0.015,0.034 -0.028,0.046 -0.013,0.012 -0.03,0.02 -0.052,0.026 -0.022,0.005 -0.048,0.008 -0.08,0.008 -0.044,0 -0.078,-0.006 -0.103,-0.018 -0.025,-0.012 -0.043,-0.032 -0.054,-0.06 -0.011,-0.028 -0.016,-0.066 -0.016,-0.116 0,-0.05 0.005,-0.088 0.016,-0.116 0.011,-0.028 0.029,-0.048 0.054,-0.06 0.025,-0.012 0.059,-0.018 0.103,-0.018 0.033,0 0.061,0.004 0.086,0.011 0.024,0.007 0.044,0.02 0.058,0.038 0.015,0.018 0.022,0.044 0.022,0.076l0 0.013 -0.087 0 0 -0.005c0,-0.018 -0.003,-0.031 -0.007,-0.04 -0.005,-0.009 -0.013,-0.015 -0.024,-0.018 -0.011,-0.003 -0.027,-0.005 -0.047,-0.005 -0.021,0 -0.038,0.004 -0.049,0.011 -0.012,0.007 -0.02,0.02 -0.025,0.038 -0.005,0.018 -0.007,0.043 -0.007,0.076 0,0.032 0.002,0.058 0.007,0.075 0.005,0.018 0.013,0.03 0.025,0.038 0.012,0.008 0.028,0.011 0.049,0.011 0.023,0 0.041,-0.002 0.052,-0.007 0.011,-0.005 0.019,-0.013 0.023,-0.023 0.004,-0.011 0.005,-0.027 0.005,-0.048z"/>
  <polygon id="4" class="fil0" points="3.111,3.609 3.111,3.754 3.133,3.754 3.238,3.609 3.341,3.609 3.206,3.785 3.366,3.985 3.258,3.985 3.133,3.816 3.111,3.816 3.111,3.985 3.021,3.985 3.021,3.609 "/>
  <path id="5" class="fil0" d="M3.407 3.796c0,-0.05 0.005,-0.088 0.016,-0.116 0.011,-0.028 0.028,-0.047 0.054,-0.059 0.025,-0.012 0.061,-0.018 0.107,-0.018 0.046,0 0.082,0.006 0.108,0.018 0.026,0.012 0.044,0.032 0.055,0.059 0.011,0.028 0.016,0.066 0.016,0.116 0,0.037 -0.003,0.067 -0.009,0.092 -0.006,0.025 -0.016,0.044 -0.029,0.06 -0.013,0.015 -0.032,0.026 -0.054,0.033 -0.023,0.007 -0.051,0.01 -0.086,0.011 -0.034,0 -0.063,-0.003 -0.086,-0.011 -0.023,-0.007 -0.041,-0.018 -0.054,-0.033 -0.013,-0.015 -0.023,-0.035 -0.029,-0.059 -0.006,-0.024 -0.009,-0.055 -0.009,-0.092zm0.092 0c0,0.035 0.003,0.061 0.008,0.079 0.005,0.018 0.014,0.03 0.026,0.036 0.012,0.006 0.029,0.01 0.052,0.01 0.023,0 0.04,-0.003 0.052,-0.01 0.012,-0.006 0.021,-0.019 0.026,-0.037 0.005,-0.018 0.008,-0.044 0.008,-0.079 0,-0.026 -0.001,-0.047 -0.004,-0.063 -0.003,-0.016 -0.008,-0.028 -0.014,-0.037 -0.006,-0.009 -0.015,-0.015 -0.026,-0.018 -0.011,-0.003 -0.025,-0.005 -0.042,-0.005 -0.023,0 -0.04,0.003 -0.052,0.009 -0.012,0.006 -0.021,0.018 -0.026,0.036 -0.005,0.018 -0.008,0.044 -0.008,0.078z"/>
  <polygon id="6" class="fil0" points="3.93,3.821 4.088,3.821 4.088,3.985 4.178,3.985 4.178,3.609 4.088,3.609 4.088,3.751 3.93,3.751 3.93,3.609 3.84,3.609 3.84,3.985 3.93,3.985 "/>
  <path id="7" class="fil0" d="M4.512 3.843l0.088 0c0,0.027 -0.003,0.05 -0.009,0.069 -0.006,0.019 -0.015,0.034 -0.028,0.046 -0.013,0.012 -0.03,0.02 -0.052,0.026 -0.022,0.005 -0.048,0.008 -0.08,0.008 -0.044,0 -0.078,-0.006 -0.103,-0.018 -0.025,-0.012 -0.043,-0.032 -0.054,-0.06 -0.011,-0.028 -0.016,-0.066 -0.016,-0.116 0,-0.05 0.005,-0.088 0.016,-0.116 0.011,-0.028 0.029,-0.048 0.054,-0.06 0.025,-0.012 0.059,-0.018 0.103,-0.018 0.033,0 0.061,0.004 0.086,0.011 0.024,0.007 0.044,0.02 0.058,0.038 0.015,0.018 0.022,0.044 0.022,0.076l0 0.013 -0.087 0 0 -0.005c0,-0.018 -0.003,-0.031 -0.007,-0.04 -0.005,-0.009 -0.013,-0.015 -0.024,-0.018 -0.011,-0.003 -0.027,-0.005 -0.047,-0.005 -0.021,0 -0.038,0.004 -0.049,0.011 -0.012,0.007 -0.02,0.02 -0.025,0.038 -0.005,0.018 -0.007,0.043 -0.007,0.076 0,0.032 0.002,0.058 0.007,0.075 0.005,0.018 0.013,0.03 0.025,0.038 0.012,0.008 0.028,0.011 0.049,0.011 0.023,0 0.041,-0.002 0.052,-0.007 0.011,-0.005 0.019,-0.013 0.023,-0.023 0.004,-0.011 0.005,-0.027 0.005,-0.048z"/>
  <path id="8" class="fil0" d="M4.993 3.609l-0.1 0.399c-0.006,0.023 -0.012,0.044 -0.018,0.061 -0.006,0.017 -0.015,0.032 -0.025,0.044 -0.01,0.013 -0.023,0.022 -0.04,0.029 -0.017,0.007 -0.037,0.01 -0.061,0.01 -0.017,0 -0.029,-0.001 -0.037,-0.003l0 -0.065c0.007,0.002 0.014,0.002 0.021,0.002 0.022,-0 0.038,-0.009 0.048,-0.025 0.01,-0.016 0.019,-0.042 0.027,-0.077l-0.047 0 -0.123 -0.376 0.095 0 0.094 0.319 0.073 -0.319 0.093 0z"/>
  <path id="9" class="fil0" d="M5.08 3.609l0.314 0 0 0.376 -0.09 0 0 -0.306 -0.136 0 0 0.191c0,0.024 -0.004,0.044 -0.011,0.062 -0.007,0.018 -0.018,0.032 -0.033,0.042 -0.015,0.01 -0.034,0.015 -0.056,0.015 -0.025,0 -0.044,-0.001 -0.055,-0.004l0 -0.067c0.008,0.001 0.016,0.002 0.023,0.002 0.017,0 0.029,-0.005 0.035,-0.014 0.006,-0.009 0.009,-0.024 0.009,-0.045l0 -0.253z"/>
  <path id="10" class="fil0" d="M5.491 3.985l0 -0.377 0.09 0 0 0.143 0.126 0c0.034,0 0.061,0.01 0.08,0.029 0.019,0.019 0.029,0.048 0.029,0.087 0,0.039 -0.01,0.068 -0.029,0.088 -0.019,0.019 -0.046,0.029 -0.08,0.029l-0.215 0zm0.09 -0.168l0 0.103 0.09 0c0.019,0 0.033,-0.004 0.042,-0.011 0.009,-0.007 0.013,-0.021 0.013,-0.041 0,-0.02 -0.004,-0.034 -0.012,-0.04 -0.008,-0.007 -0.022,-0.01 -0.042,-0.01l-0.09 0z"/>
  <polygon id="11" class="fil0" points="5.986,3.985 6.075,3.985 6.075,3.678 6.196,3.678 6.196,3.609 5.865,3.609 5.865,3.678 5.986,3.678 "/>
  <path id="12" class="fil0" d="M6.615 3.44l0 0.084c-0.027,0 -0.046,0.006 -0.055,0.018 -0.01,0.012 -0.015,0.034 -0.015,0.067l0 0.285c0,0.035 0.004,0.059 0.013,0.072 0.008,0.012 0.023,0.019 0.043,0.019l0.014 0 0 0.084c-0.039,0 -0.07,-0.004 -0.093,-0.013 -0.023,-0.008 -0.04,-0.022 -0.051,-0.039 -0.011,-0.017 -0.018,-0.039 -0.021,-0.065 -0.003,-0.026 -0.005,-0.06 -0.005,-0.103l0 -0.192c0,-0.042 0.002,-0.075 0.005,-0.1 0.003,-0.025 0.01,-0.046 0.022,-0.064 0.011,-0.018 0.028,-0.031 0.051,-0.04 0.023,-0.009 0.054,-0.013 0.092,-0.013z"/>
  <path id="13" class="fil0" d="M6.698 3.609l0 0.376 0.11 0 0.123 -0.234c0.006,-0.011 0.02,-0.039 0.041,-0.084 -0.004,0.01 -0.008,0.027 -0.012,0.052 -0.004,0.025 -0.006,0.045 -0.006,0.059l0 0.207 0.085 0 0 -0.376 -0.11 0 -0.123 0.236c-0.008,0.015 -0.022,0.043 -0.041,0.085 0.004,-0.01 0.008,-0.026 0.012,-0.047 0.004,-0.021 0.006,-0.039 0.006,-0.055l0 -0.219 -0.085 0z"/>
  <polygon id="14" class="fil0" points="7.22,3.821 7.379,3.821 7.379,3.985 7.469,3.985 7.469,3.609 7.379,3.609 7.379,3.751 7.22,3.751 7.22,3.609 7.131,3.609 7.131,3.985 7.22,3.985 "/>
  <path id="15" class="fil0" d="M7.653 3.674l0 0.089 0.085 0c0.023,0 0.039,-0.003 0.048,-0.01 0.01,-0.007 0.014,-0.018 0.014,-0.033 0,-0.016 -0.004,-0.028 -0.012,-0.035 -0.008,-0.007 -0.022,-0.011 -0.042,-0.011l-0.094 0zm0 0.149l0 0.096 0.098 0c0.021,0 0.035,-0.004 0.044,-0.012 0.009,-0.008 0.014,-0.02 0.014,-0.036 0,-0.032 -0.018,-0.048 -0.054,-0.048l-0.103 0zm-0.088 0.161l0 -0.376 0.207 0c0.042,0 0.073,0.008 0.091,0.025 0.018,0.016 0.027,0.042 0.027,0.078 0,0.02 -0.006,0.036 -0.018,0.05 -0.012,0.014 -0.029,0.024 -0.05,0.028l0 0.002c0.023,0.004 0.042,0.014 0.056,0.029 0.014,0.015 0.021,0.035 0.021,0.061 0,0.024 -0.004,0.044 -0.011,0.059 -0.007,0.015 -0.019,0.026 -0.036,0.033 -0.017,0.007 -0.04,0.011 -0.07,0.011l-0.218 0z"/>
  <path id="16" class="fil0" d="M8.213 3.985l0.007 -0.052 -0.002 0c-0.008,0.017 -0.017,0.029 -0.028,0.038 -0.011,0.008 -0.024,0.014 -0.039,0.017 -0.015,0.002 -0.034,0.004 -0.057,0.004 -0.032,0 -0.058,-0.004 -0.078,-0.011 -0.02,-0.008 -0.035,-0.02 -0.044,-0.037 -0.01,-0.017 -0.015,-0.04 -0.015,-0.069 0,-0.024 0.003,-0.044 0.008,-0.059 0.005,-0.016 0.013,-0.028 0.025,-0.037 0.011,-0.009 0.026,-0.015 0.044,-0.019 0.018,-0.004 0.041,-0.006 0.07,-0.006 0.033,0 0.057,0.004 0.071,0.011 0.014,0.007 0.026,0.02 0.034,0.037l0.004 0 0 -0.064c0,-0.02 -0.002,-0.036 -0.008,-0.047 -0.005,-0.011 -0.013,-0.019 -0.025,-0.023 -0.012,-0.004 -0.028,-0.006 -0.049,-0.006 -0.027,0 -0.046,0.004 -0.056,0.012 -0.01,0.008 -0.015,0.022 -0.015,0.044l-0.09 0c0.001,-0.023 0.005,-0.042 0.013,-0.057 0.008,-0.015 0.019,-0.027 0.033,-0.035 0.014,-0.008 0.03,-0.014 0.048,-0.017 0.018,-0.003 0.039,-0.005 0.064,-0.005 0.04,0 0.072,0.003 0.096,0.009 0.025,0.006 0.044,0.019 0.058,0.038 0.014,0.02 0.021,0.049 0.021,0.087l0 0.247 -0.09 0zm0 -0.113c0,-0.022 -0.006,-0.037 -0.019,-0.045 -0.012,-0.008 -0.036,-0.012 -0.07,-0.012 -0.02,0 -0.036,0.002 -0.047,0.005 -0.011,0.003 -0.019,0.009 -0.024,0.017 -0.005,0.008 -0.007,0.019 -0.007,0.034 0,0.021 0.006,0.035 0.017,0.044 0.011,0.008 0.031,0.013 0.059,0.013 0.032,0 0.055,-0.004 0.069,-0.012 0.014,-0.008 0.021,-0.023 0.021,-0.045z"/>
  <path id="17" class="fil0" d="M8.429 3.609l0.314 0 0 0.376 -0.09 0 0 -0.306 -0.136 0 0 0.191c0,0.024 -0.004,0.044 -0.011,0.062 -0.007,0.018 -0.018,0.032 -0.033,0.042 -0.015,0.01 -0.034,0.015 -0.056,0.015 -0.025,0 -0.044,-0.001 -0.055,-0.004l0 -0.067c0.008,0.001 0.016,0.002 0.023,0.002 0.017,0 0.029,-0.005 0.035,-0.014 0.006,-0.009 0.009,-0.024 0.009,-0.045l0 -0.253z"/>
  <path id="18" class="fil0" d="M8.839 3.609l0 0.376 0.11 0 0.123 -0.234c0.006,-0.011 0.02,-0.039 0.041,-0.084 -0.004,0.01 -0.008,0.027 -0.012,0.052 -0.004,0.025 -0.006,0.045 -0.006,0.059l0 0.207 0.085 0 0 -0.376 -0.11 0 -0.123 0.236c-0.008,0.015 -0.022,0.043 -0.041,0.085 0.004,-0.01 0.008,-0.026 0.012,-0.047 0.004,-0.021 0.006,-0.039 0.006,-0.055l0 -0.219 -0.085 0z"/>
  <path id="19" class="fil0" d="M9.276 3.918c0.011,-0.015 0.02,-0.029 0.026,-0.043 0.006,-0.014 0.011,-0.031 0.014,-0.05 0.003,-0.02 0.005,-0.044 0.005,-0.074l0 -0.143 0.293 0 0 0.31 0.048 0 0 0.169 -0.083 0 0 -0.102 -0.262 0 0 0.102 -0.082 0 0 -0.169 0.04 0zm0.249 0l0 -0.243 -0.118 0 0 0.082c0,0.073 -0.014,0.127 -0.041,0.162l0.16 0z"/>
  <path id="20" class="fil0" d="M9.72 3.985l0 -0.376 0.09 0 0 0.143 0.127 0c0.072,0 0.108,0.039 0.108,0.116 0,0.039 -0.009,0.068 -0.028,0.087 -0.019,0.019 -0.045,0.029 -0.08,0.029l-0.217 0zm0.09 -0.167l0 0.101 0.09 0c0.019,0 0.033,-0.003 0.041,-0.011 0.008,-0.007 0.013,-0.02 0.013,-0.04 0,-0.014 -0.002,-0.024 -0.006,-0.032 -0.004,-0.007 -0.01,-0.012 -0.017,-0.015 -0.008,-0.003 -0.018,-0.004 -0.031,-0.004l-0.09 0zm0.382 -0.209l0 0.376 -0.09 0 0 -0.376 0.09 0z"/>
  <path id="21" class="fil0" d="M10.282 3.44l0 0.084c0.027,0 0.046,0.006 0.056,0.019 0.01,0.013 0.015,0.036 0.015,0.069l0 0.278c0,0.036 -0.004,0.061 -0.013,0.074 -0.009,0.014 -0.023,0.02 -0.044,0.02l-0.014 0 0 0.084c0.039,0 0.07,-0.004 0.093,-0.013 0.023,-0.009 0.04,-0.022 0.051,-0.039 0.011,-0.017 0.018,-0.039 0.022,-0.065 0.004,-0.026 0.005,-0.06 0.006,-0.103l0 -0.192c0,-0.041 -0.002,-0.074 -0.005,-0.099 -0.003,-0.025 -0.011,-0.047 -0.022,-0.064 -0.011,-0.018 -0.028,-0.031 -0.051,-0.04 -0.023,-0.009 -0.054,-0.013 -0.093,-0.013z"/>
  <g id="_2335581009680">
   <rect class="fil1" x="0" y="2.382" width="0.636" height="0.636" rx="0.127" ry="0.121"/>
   <g>
    <path class="fil2" d="M0.122 2.492c-0.001,0.004 -0.011,0.011 -0.018,0.038 -0.002,0.008 -0.005,0.026 -0.005,0.034 0.001,0.034 0.004,0.047 0.013,0.078 0.006,0.019 0.025,0.059 0.035,0.076 0.004,0.006 0.007,0.011 0.01,0.017 0.015,0.024 0.049,0.071 0.069,0.092l0.016 0.018c0.018,0.019 0.037,0.037 0.058,0.053l0.024 0.017c0.003,0.002 0.006,0.003 0.009,0.005 0.03,0.018 0.069,0.035 0.104,0.033 0.012,-0.001 0.034,-0.003 0.042,-0.011 -0.004,-0.006 -0.008,-0.01 -0.013,-0.016l-0.01 -0.012c-0.001,-0.001 -0.002,-0.002 -0.003,-0.004 -0.016,-0.02 -0.034,-0.043 -0.05,-0.063l-0.025 -0.031c-0.006,0.002 -0.006,0.005 -0.014,0.005 -0.019,0 -0.06,-0.045 -0.074,-0.061 -0.014,-0.015 -0.023,-0.027 -0.035,-0.043l-0.022 -0.033c-0.008,-0.013 -0.02,-0.033 -0.017,-0.049 0.001,-0.006 0.004,-0.009 0.008,-0.013l-0.077 -0.098c-0.005,-0.006 -0.009,-0.011 -0.013,-0.016 -0.002,-0.003 -0.004,-0.005 -0.006,-0.008 -0.002,-0.002 -0.004,-0.007 -0.007,-0.007z"/>
    <path class="fil2" d="M0.164 2.512c0.02,0.026 0.046,0.055 0.064,0.08l0.013 0.016c0.004,-0.001 0.024,-0.018 0.027,-0.021 0.009,-0.007 0.021,-0.016 0.013,-0.029 -0.002,-0.004 -0.018,-0.023 -0.022,-0.029l-0.052 -0.065c-0.015,-0.017 -0.017,-0.026 -0.043,-0.006l-0.026 0.021 0.026 0.033z"/>
    <path class="fil2" d="M0.441 2.77c-0.007,0 -0.011,0.003 -0.015,0.006 -0.005,0.005 -0.029,0.023 -0.033,0.026l0.023 0.028c0,0 0,0 0,0l0.077 0.097 0.011 -0.008c0.003,-0.002 0.006,-0.005 0.01,-0.008 0.004,-0.003 0.007,-0.005 0.011,-0.008 0.004,-0.003 0.007,-0.005 0.009,-0.009 0.006,-0.011 -0.002,-0.02 -0.006,-0.026l-0.058 -0.073c-0.001,-0.002 -0.002,-0.003 -0.004,-0.005 -0.009,-0.011 -0.013,-0.021 -0.025,-0.021z"/>
   </g>
  </g>
  <g id="_2335581011600">
   <rect class="fil1" x="0" y="1.373" width="0.636" height="0.636" rx="0.127" ry="0.121"/>
   <g>
    <path class="fil2" d="M0.23 1.599l0.082 -0.05c0.002,-0.001 0.004,-0.002 0.006,-0.003 0,0 0,0 0.001,0.001l0.081 0.049c0.001,0.001 0.004,0.003 0.006,0.003 -0.001,0.003 -0.011,0.017 -0.011,0.019l0 0.083 -0.154 0 0 -0.083c0,-0.001 -0.002,-0.004 -0.003,-0.005l-0.009 -0.014zm0.088 0.345c0.005,0 0.008,-0.003 0.011,-0.006l0.025 -0.03c0.001,-0.001 0.002,-0.003 0.004,-0.004 0.001,-0.002 0.002,-0.003 0.003,-0.005l0.01 -0.013c0.001,-0.002 0.002,-0.003 0.003,-0.005 0.001,-0.002 0.002,-0.003 0.003,-0.005l0.02 -0.028c0.006,-0.01 0.013,-0.019 0.019,-0.029l0.012 -0.019c0.002,-0.003 0.004,-0.006 0.006,-0.01 0.004,-0.006 0.008,-0.015 0.011,-0.02l0.005 -0.01c0.002,-0.003 0.003,-0.007 0.005,-0.01 0.001,-0.002 0.002,-0.003 0.003,-0.005 0.008,-0.016 0.014,-0.033 0.021,-0.05 0.001,-0.004 0.003,-0.008 0.004,-0.012 0.006,-0.022 0.011,-0.042 0.011,-0.068 0,-0.055 -0.024,-0.097 -0.052,-0.125l-0.014 -0.013c-0.005,-0.004 -0.01,-0.008 -0.016,-0.011 -0.004,-0.003 -0.009,-0.006 -0.014,-0.008l-0.008 -0.004c-0.044,-0.02 -0.094,-0.021 -0.139,-0.003 -0.009,0.004 -0.018,0.008 -0.027,0.014 -0.007,0.004 -0.013,0.009 -0.019,0.014l-0.011 0.01c-0.001,0.001 -0.002,0.002 -0.003,0.003l-0.01 0.011c-0.002,0.003 -0.004,0.005 -0.006,0.008 -0.009,0.013 -0.016,0.024 -0.022,0.039 -0.003,0.007 -0.005,0.013 -0.007,0.02 -0.001,0.002 -0.001,0.004 -0.001,0.006 -0.005,0.02 -0.005,0.04 -0.003,0.061 0.003,0.03 0.014,0.061 0.026,0.088 0.007,0.016 0.015,0.032 0.023,0.047 0.007,0.012 0.014,0.024 0.021,0.036 0.003,0.006 0.007,0.011 0.01,0.017 0.006,0.009 0.018,0.028 0.024,0.036l0.011 0.016c0.01,0.014 0.021,0.028 0.032,0.042 0.005,0.007 0.011,0.014 0.017,0.02 0.003,0.003 0.005,0.007 0.01,0.007z"/>
    <path class="fil2" d="M0.263 1.605l0 0.075 0.033 0 0 -0.055 0.044 0 0 0.055 0.033 0 0 -0.074c0,-0.001 -0.002,-0.002 -0.003,-0.003 -0.001,-0.001 -0.002,-0.001 -0.003,-0.002l-0.049 -0.029c-0.001,-0 -0.006,0.003 -0.007,0.004l-0.047 0.028c-0.001,0.001 -0.002,0.001 -0.002,0.002z"/>
   </g>
  </g>
  <g id="_2335581011280">
   <rect class="fil1" x="0" y="3.391" width="0.636" height="0.636" rx="0.127" ry="0.121"/>
   <g>
    <path class="fil2" d="M0.275 3.477c0,0.03 0.005,0.041 -0.006,0.049 -0.01,-0.007 -0.006,-0.001 -0.006,-0.037 -0.026,0.006 -0.045,0.045 -0.051,0.072 -0.003,0.013 0,0.007 -0.005,0.016 -0.004,0.006 -0.008,0.005 -0.008,0.013 0,0.043 0.151,0.042 0.2,0.029 0.016,-0.004 0.053,-0.018 0.037,-0.036 -0.023,-0.025 -0.003,-0.014 -0.02,-0.05 -0.007,-0.016 -0.022,-0.039 -0.039,-0.044 0,0.018 0,0.023 -0.003,0.037l-0.009 0c-0.004,-0.017 -0.003,-0.029 -0.003,-0.049 -0.042,-0.011 -0.062,-0.005 -0.086,0z"/>
    <path class="fil2" d="M0.211 3.651c0,0.032 0.019,0.047 0.036,0.084 0.023,0.05 0.102,0.09 0.151,-0.016 0.012,-0.025 0.028,-0.022 0.028,-0.073 0,-0.034 -0.021,-0.006 -0.086,-0.006 -0.068,0 -0.054,0.003 -0.119,-0.012 -0.004,0.007 -0.009,0.013 -0.009,0.025z"/>
    <path class="fil2" d="M0.18 3.942c0.026,0 0.047,0.006 0.077,0.006l0.126 0c0.031,0 0.051,-0.006 0.08,-0.006l0 -0.055 -0.282 0 0 0.055z"/>
    <path class="fil2" d="M0.226 3.758l0 0.098 0.187 0 0 -0.098 -0.021 -0.007c-0.026,0.04 -0.072,0.057 -0.117,0.029 -0.015,-0.01 -0.02,-0.02 -0.033,-0.028 -0.006,0.003 -0.007,0.004 -0.015,0.006z"/>
    <path class="fil2" d="M0.097 3.908c0,0.015 0.014,0.017 0.03,0.022 0.059,0.019 -0.024,-0.066 0.068,-0.074l0 -0.083c-0.051,0.004 -0.098,0.072 -0.098,0.135z"/>
    <path class="fil2" d="M0.44 3.783l0 0.073c0.058,0 0.052,0.031 0.052,0.077 0.017,-0 0.031,-0.009 0.046,-0.012l0 -0.017c-0,-0.015 -0.001,-0.023 -0.006,-0.038 -0.016,-0.052 -0.033,-0.064 -0.074,-0.086 -0.006,-0.003 -0.018,-0.011 -0.018,0.003z"/>
   </g>
  </g>
  <path class="fil0" d="M1.507 4.28l-0.148 0 -0.183 0.36c-0.006,0.012 -0.011,0.023 -0.016,0.032 -0.004,0.009 -0.014,0.028 -0.028,0.056 0.005,-0.026 0.008,-0.058 0.008,-0.095l0 -0.353 -0.103 0 0 0.537 0.148 0 0.183 -0.361c0.006,-0.013 0.012,-0.024 0.018,-0.035 0.005,-0.011 0.014,-0.028 0.027,-0.053 -0.005,0.026 -0.008,0.058 -0.008,0.096l0 0.354 0.103 0 0 -0.537z"/>
  <polygon id="1" class="fil0" points="1.693,4.654 1.852,4.654 1.852,4.818 1.942,4.818 1.942,4.442 1.852,4.442 1.852,4.585 1.693,4.585 1.693,4.442 1.604,4.442 1.604,4.818 1.693,4.818 "/>
  <path id="2" class="fil0" d="M2.276 4.676l0.088 0c0,0.027 -0.003,0.05 -0.009,0.069 -0.006,0.019 -0.015,0.034 -0.028,0.046 -0.013,0.012 -0.03,0.02 -0.052,0.026 -0.022,0.005 -0.048,0.008 -0.08,0.008 -0.044,0 -0.078,-0.006 -0.103,-0.018 -0.025,-0.012 -0.043,-0.032 -0.054,-0.06 -0.011,-0.028 -0.016,-0.066 -0.016,-0.116 0,-0.05 0.005,-0.088 0.016,-0.116 0.011,-0.028 0.029,-0.048 0.054,-0.06 0.025,-0.012 0.059,-0.018 0.103,-0.018 0.033,0 0.061,0.004 0.086,0.011 0.024,0.007 0.044,0.02 0.058,0.038 0.015,0.018 0.022,0.044 0.022,0.076l0 0.013 -0.087 0 0 -0.005c0,-0.018 -0.003,-0.031 -0.007,-0.04 -0.005,-0.009 -0.013,-0.015 -0.024,-0.018 -0.011,-0.003 -0.027,-0.005 -0.047,-0.005 -0.021,0 -0.038,0.004 -0.049,0.011 -0.012,0.007 -0.02,0.02 -0.025,0.038 -0.005,0.018 -0.007,0.043 -0.007,0.076 0,0.032 0.002,0.058 0.007,0.075 0.005,0.018 0.013,0.03 0.025,0.038 0.012,0.008 0.028,0.011 0.049,0.011 0.023,0 0.041,-0.002 0.052,-0.007 0.011,-0.005 0.019,-0.013 0.023,-0.023 0.004,-0.011 0.005,-0.027 0.005,-0.048z"/>
  <polygon id="3" class="fil0" points="2.526,4.511 2.684,4.511 2.684,4.818 2.774,4.818 2.774,4.442 2.436,4.442 2.436,4.818 2.526,4.818 "/>
  <path id="4" class="fil0" d="M3.106 4.699l0.089 0 0 0.014c0,0.03 -0.007,0.054 -0.021,0.07 -0.014,0.016 -0.033,0.027 -0.058,0.033 -0.025,0.006 -0.056,0.009 -0.095,0.009 -0.044,0 -0.078,-0.006 -0.102,-0.018 -0.025,-0.012 -0.042,-0.032 -0.053,-0.06 -0.011,-0.028 -0.016,-0.066 -0.016,-0.115 0,-0.048 0.005,-0.087 0.016,-0.115 0.011,-0.028 0.029,-0.049 0.054,-0.061 0.025,-0.013 0.059,-0.019 0.102,-0.019 0.043,0 0.077,0.006 0.102,0.019 0.025,0.013 0.044,0.033 0.055,0.06 0.011,0.027 0.017,0.063 0.017,0.107l0 0.026 -0.255 0c0,0.03 0.002,0.053 0.007,0.069 0.005,0.015 0.013,0.026 0.024,0.032 0.011,0.006 0.028,0.009 0.05,0.009 0.021,0 0.037,-0.001 0.049,-0.004 0.012,-0.003 0.021,-0.008 0.027,-0.016 0.006,-0.008 0.009,-0.019 0.009,-0.033l0 -0.007zm0.002 -0.108c0,-0.022 -0.003,-0.04 -0.008,-0.053 -0.005,-0.013 -0.014,-0.022 -0.026,-0.027 -0.012,-0.005 -0.029,-0.008 -0.05,-0.008 -0.021,0 -0.037,0.003 -0.049,0.008 -0.012,0.005 -0.02,0.014 -0.026,0.027 -0.005,0.013 -0.008,0.03 -0.008,0.053l0.167 0z"/>
  <polygon id="5" class="fil0" points="3.362,4.442 3.362,4.588 3.384,4.588 3.489,4.442 3.592,4.442 3.458,4.618 3.618,4.818 3.509,4.818 3.384,4.649 3.362,4.649 3.362,4.818 3.273,4.818 3.273,4.442 "/>
  <polygon id="6" class="fil0" points="3.767,4.818 3.857,4.818 3.857,4.511 3.977,4.511 3.977,4.442 3.646,4.442 3.646,4.511 3.767,4.511 "/>
  <path id="7" class="fil0" d="M4.024 4.629c0,-0.05 0.005,-0.088 0.016,-0.116 0.011,-0.028 0.028,-0.047 0.054,-0.059 0.025,-0.012 0.061,-0.018 0.107,-0.018 0.046,0 0.082,0.006 0.108,0.018 0.026,0.012 0.044,0.032 0.055,0.059 0.011,0.028 0.016,0.066 0.016,0.116 0,0.037 -0.003,0.067 -0.009,0.092 -0.006,0.025 -0.016,0.044 -0.029,0.06 -0.013,0.015 -0.032,0.026 -0.054,0.033 -0.023,0.007 -0.051,0.01 -0.086,0.011 -0.034,0 -0.063,-0.003 -0.086,-0.011 -0.023,-0.007 -0.041,-0.018 -0.054,-0.033 -0.013,-0.015 -0.023,-0.035 -0.029,-0.059 -0.006,-0.024 -0.009,-0.055 -0.009,-0.092zm0.092 0c0,0.035 0.003,0.061 0.008,0.079 0.005,0.018 0.014,0.03 0.026,0.036 0.012,0.006 0.029,0.01 0.052,0.01 0.023,0 0.04,-0.003 0.052,-0.01 0.012,-0.006 0.021,-0.019 0.026,-0.037 0.005,-0.018 0.008,-0.044 0.008,-0.079 0,-0.026 -0.001,-0.047 -0.004,-0.063 -0.003,-0.016 -0.008,-0.028 -0.014,-0.037 -0.006,-0.009 -0.015,-0.015 -0.026,-0.018 -0.011,-0.003 -0.025,-0.005 -0.042,-0.005 -0.023,0 -0.04,0.003 -0.052,0.009 -0.012,0.006 -0.021,0.018 -0.026,0.036 -0.005,0.018 -0.008,0.044 -0.008,0.078z"/>
  <path id="8" class="fil0" d="M4.545 4.62c0,0.037 0.002,0.065 0.006,0.083 0.004,0.018 0.012,0.031 0.024,0.039 0.012,0.008 0.031,0.012 0.057,0.012 0.026,0 0.044,-0.005 0.056,-0.014 0.012,-0.009 0.019,-0.023 0.022,-0.04 0.003,-0.017 0.005,-0.043 0.005,-0.077 0,-0.034 -0.002,-0.06 -0.007,-0.076 -0.005,-0.016 -0.012,-0.027 -0.024,-0.032 -0.011,-0.005 -0.028,-0.008 -0.051,-0.008 -0.024,0 -0.041,0.003 -0.054,0.009 -0.012,0.006 -0.021,0.017 -0.026,0.033 -0.005,0.016 -0.008,0.04 -0.008,0.071zm0 0.146l0 0.211 -0.09 0 0 -0.535 0.086 0 -0.004 0.053 0.003 0c0.015,-0.022 0.031,-0.038 0.049,-0.046 0.018,-0.008 0.04,-0.013 0.068,-0.013 0.041,0 0.072,0.007 0.094,0.022 0.022,0.015 0.036,0.036 0.044,0.063 0.008,0.027 0.011,0.063 0.011,0.106 0,0.031 -0.001,0.058 -0.004,0.08 -0.003,0.022 -0.009,0.042 -0.019,0.06 -0.009,0.018 -0.024,0.031 -0.043,0.041 -0.019,0.01 -0.045,0.015 -0.077,0.015 -0.03,0 -0.053,-0.004 -0.071,-0.011 -0.018,-0.008 -0.034,-0.023 -0.046,-0.046z"/>
  <polygon id="9" class="fil0" points="5.168,4.511 5.327,4.511 5.327,4.818 5.416,4.818 5.416,4.442 5.078,4.442 5.078,4.818 5.168,4.818 "/>
  <path id="10" class="fil0" d="M5.492 4.629c0,-0.05 0.005,-0.088 0.016,-0.116 0.011,-0.028 0.028,-0.047 0.054,-0.059 0.025,-0.012 0.061,-0.018 0.107,-0.018 0.046,0 0.082,0.006 0.108,0.018 0.026,0.012 0.044,0.032 0.055,0.059 0.011,0.028 0.016,0.066 0.016,0.116 0,0.037 -0.003,0.067 -0.009,0.092 -0.006,0.025 -0.016,0.044 -0.029,0.06 -0.013,0.015 -0.032,0.026 -0.054,0.033 -0.023,0.007 -0.051,0.01 -0.086,0.011 -0.034,0 -0.063,-0.003 -0.086,-0.011 -0.023,-0.007 -0.041,-0.018 -0.054,-0.033 -0.013,-0.015 -0.023,-0.035 -0.029,-0.059 -0.006,-0.024 -0.009,-0.055 -0.009,-0.092zm0.092 0c0,0.035 0.003,0.061 0.008,0.079 0.005,0.018 0.014,0.03 0.026,0.036 0.012,0.006 0.029,0.01 0.052,0.01 0.023,0 0.04,-0.003 0.052,-0.01 0.012,-0.006 0.021,-0.019 0.026,-0.037 0.005,-0.018 0.008,-0.044 0.008,-0.079 0,-0.026 -0.001,-0.047 -0.004,-0.063 -0.003,-0.016 -0.008,-0.028 -0.014,-0.037 -0.006,-0.009 -0.015,-0.015 -0.026,-0.018 -0.011,-0.003 -0.025,-0.005 -0.042,-0.005 -0.023,0 -0.04,0.003 -0.052,0.009 -0.012,0.006 -0.021,0.018 -0.026,0.036 -0.005,0.018 -0.008,0.044 -0.008,0.078z"/>
  <polygon id="11" class="fil0" points="6.205,4.442 6.205,4.588 6.226,4.588 6.332,4.442 6.434,4.442 6.3,4.618 6.46,4.818 6.352,4.818 6.226,4.649 6.205,4.649 6.205,4.818 6.115,4.818 6.115,4.442 "/>
  <path id="12" class="fil0" d="M6.757 4.818l0.007 -0.052 -0.002 0c-0.008,0.017 -0.017,0.029 -0.028,0.038 -0.011,0.008 -0.024,0.014 -0.039,0.017 -0.015,0.002 -0.034,0.004 -0.057,0.004 -0.032,0 -0.058,-0.004 -0.078,-0.011 -0.02,-0.008 -0.035,-0.02 -0.044,-0.037 -0.01,-0.017 -0.015,-0.04 -0.015,-0.069 0,-0.024 0.003,-0.044 0.008,-0.059 0.005,-0.016 0.013,-0.028 0.025,-0.037 0.011,-0.009 0.026,-0.015 0.044,-0.019 0.018,-0.004 0.041,-0.006 0.07,-0.006 0.033,0 0.057,0.004 0.071,0.011 0.014,0.007 0.026,0.02 0.034,0.037l0.004 0 0 -0.064c0,-0.02 -0.002,-0.036 -0.008,-0.047 -0.005,-0.011 -0.013,-0.019 -0.025,-0.023 -0.012,-0.004 -0.028,-0.006 -0.049,-0.006 -0.027,0 -0.046,0.004 -0.056,0.012 -0.01,0.008 -0.015,0.022 -0.015,0.044l-0.09 0c0.001,-0.023 0.005,-0.042 0.013,-0.057 0.008,-0.015 0.019,-0.027 0.033,-0.035 0.014,-0.008 0.03,-0.014 0.048,-0.017 0.018,-0.003 0.039,-0.005 0.064,-0.005 0.04,0 0.072,0.003 0.096,0.009 0.025,0.006 0.044,0.019 0.058,0.038 0.014,0.02 0.021,0.049 0.021,0.087l0 0.247 -0.09 0zm0 -0.113c0,-0.022 -0.006,-0.037 -0.019,-0.045 -0.012,-0.008 -0.036,-0.012 -0.07,-0.012 -0.02,0 -0.036,0.002 -0.047,0.005 -0.011,0.003 -0.019,0.009 -0.024,0.017 -0.005,0.008 -0.007,0.019 -0.007,0.034 0,0.021 0.006,0.035 0.017,0.044 0.011,0.008 0.031,0.013 0.059,0.013 0.032,0 0.055,-0.004 0.069,-0.012 0.014,-0.008 0.021,-0.023 0.021,-0.045z"/>
  <path id="13" class="fil0" d="M6.944 4.751c0.011,-0.015 0.02,-0.029 0.026,-0.043 0.006,-0.014 0.011,-0.031 0.014,-0.05 0.003,-0.02 0.005,-0.044 0.005,-0.074l0 -0.143 0.293 0 0 0.31 0.048 0 0 0.169 -0.083 0 0 -0.102 -0.262 0 0 0.102 -0.082 0 0 -0.169 0.04 0zm0.249 0l0 -0.243 -0.118 0 0 0.082c0,0.073 -0.014,0.127 -0.041,0.162l0.16 0z"/>
  <path id="14" class="fil0" d="M7.478 4.62c0,0.037 0.002,0.065 0.006,0.083 0.004,0.018 0.012,0.031 0.024,0.039 0.012,0.008 0.031,0.012 0.057,0.012 0.026,0 0.044,-0.005 0.056,-0.014 0.012,-0.009 0.019,-0.023 0.022,-0.04 0.003,-0.017 0.005,-0.043 0.005,-0.077 0,-0.034 -0.002,-0.06 -0.007,-0.076 -0.005,-0.016 -0.012,-0.027 -0.024,-0.032 -0.011,-0.005 -0.028,-0.008 -0.051,-0.008 -0.024,0 -0.041,0.003 -0.054,0.009 -0.012,0.006 -0.021,0.017 -0.026,0.033 -0.005,0.016 -0.008,0.04 -0.008,0.071zm0 0.146l0 0.211 -0.09 0 0 -0.535 0.086 0 -0.004 0.053 0.003 0c0.015,-0.022 0.031,-0.038 0.049,-0.046 0.018,-0.008 0.04,-0.013 0.068,-0.013 0.041,0 0.072,0.007 0.094,0.022 0.022,0.015 0.036,0.036 0.044,0.063 0.008,0.027 0.011,0.063 0.011,0.106 0,0.031 -0.001,0.058 -0.004,0.08 -0.003,0.022 -0.009,0.042 -0.019,0.06 -0.009,0.018 -0.024,0.031 -0.043,0.041 -0.019,0.01 -0.045,0.015 -0.077,0.015 -0.03,0 -0.053,-0.004 -0.071,-0.011 -0.018,-0.008 -0.034,-0.023 -0.046,-0.046z"/>
  <path id="15" class="fil0" d="M8.06 4.818l0.007 -0.052 -0.002 0c-0.008,0.017 -0.017,0.029 -0.028,0.038 -0.011,0.008 -0.024,0.014 -0.039,0.017 -0.015,0.002 -0.034,0.004 -0.057,0.004 -0.032,0 -0.058,-0.004 -0.078,-0.011 -0.02,-0.008 -0.035,-0.02 -0.044,-0.037 -0.01,-0.017 -0.015,-0.04 -0.015,-0.069 0,-0.024 0.003,-0.044 0.008,-0.059 0.005,-0.016 0.013,-0.028 0.025,-0.037 0.011,-0.009 0.026,-0.015 0.044,-0.019 0.018,-0.004 0.041,-0.006 0.07,-0.006 0.033,0 0.057,0.004 0.071,0.011 0.014,0.007 0.026,0.02 0.034,0.037l0.004 0 0 -0.064c0,-0.02 -0.002,-0.036 -0.008,-0.047 -0.005,-0.011 -0.013,-0.019 -0.025,-0.023 -0.012,-0.004 -0.028,-0.006 -0.049,-0.006 -0.027,0 -0.046,0.004 -0.056,0.012 -0.01,0.008 -0.015,0.022 -0.015,0.044l-0.09 0c0.001,-0.023 0.005,-0.042 0.013,-0.057 0.008,-0.015 0.019,-0.027 0.033,-0.035 0.014,-0.008 0.03,-0.014 0.048,-0.017 0.018,-0.003 0.039,-0.005 0.064,-0.005 0.04,0 0.072,0.003 0.096,0.009 0.025,0.006 0.044,0.019 0.058,0.038 0.014,0.02 0.021,0.049 0.021,0.087l0 0.247 -0.09 0zm0 -0.113c0,-0.022 -0.006,-0.037 -0.019,-0.045 -0.012,-0.008 -0.036,-0.012 -0.07,-0.012 -0.02,0 -0.036,0.002 -0.047,0.005 -0.011,0.003 -0.019,0.009 -0.024,0.017 -0.005,0.008 -0.007,0.019 -0.007,0.034 0,0.021 0.006,0.035 0.017,0.044 0.011,0.008 0.031,0.013 0.059,0.013 0.032,0 0.055,-0.004 0.069,-0.012 0.014,-0.008 0.021,-0.023 0.021,-0.045z"/>
  <path id="16" class="fil0" d="M8.517 4.818l0.075 -0.226c0.006,-0.017 0.013,-0.036 0.02,-0.058 0.008,-0.022 0.013,-0.037 0.015,-0.047 -0.005,0.036 -0.008,0.068 -0.008,0.096l0 0.234 0.085 0 0 -0.376 -0.136 0 -0.084 0.252c-0.002,0.006 -0.006,0.026 -0.011,0.062 -0.005,-0.035 -0.009,-0.056 -0.012,-0.062l-0.084 -0.252 -0.136 0 0 0.376 0.085 0 0 -0.234c0,-0.028 -0.003,-0.059 -0.008,-0.096 0.002,0.008 0.008,0.027 0.018,0.055 0.01,0.028 0.016,0.044 0.017,0.049l0.075 0.226 0.088 0z"/>
  <g id="_2335581016720">
   <rect class="fil1" x="0" y="4.224" width="0.636" height="0.636" rx="0.127" ry="0.121"/>
   <g>
    <path class="fil2" d="M0.275 4.309c0,0.03 0.005,0.041 -0.006,0.049 -0.01,-0.007 -0.006,-0.001 -0.006,-0.037 -0.026,0.006 -0.045,0.045 -0.051,0.072 -0.003,0.013 0,0.007 -0.005,0.016 -0.004,0.006 -0.008,0.005 -0.008,0.013 0,0.043 0.151,0.042 0.2,0.029 0.016,-0.004 0.053,-0.018 0.037,-0.036 -0.023,-0.025 -0.003,-0.014 -0.02,-0.05 -0.007,-0.016 -0.022,-0.039 -0.039,-0.044 0,0.018 0,0.023 -0.003,0.037l-0.009 0c-0.004,-0.017 -0.003,-0.029 -0.003,-0.049 -0.042,-0.011 -0.062,-0.005 -0.086,0z"/>
    <path class="fil2" d="M0.211 4.483c0,0.032 0.019,0.047 0.036,0.084 0.023,0.05 0.102,0.09 0.151,-0.016 0.012,-0.025 0.028,-0.022 0.028,-0.073 0,-0.034 -0.021,-0.006 -0.086,-0.006 -0.068,0 -0.054,0.003 -0.119,-0.012 -0.004,0.007 -0.009,0.013 -0.009,0.025z"/>
    <path class="fil2" d="M0.18 4.774c0.026,0 0.047,0.006 0.077,0.006l0.126 0c0.031,0 0.051,-0.006 0.08,-0.006l0 -0.055 -0.282 0 0 0.055z"/>
    <path class="fil2" d="M0.226 4.591l0 0.098 0.187 0 0 -0.098 -0.021 -0.007c-0.026,0.04 -0.072,0.057 -0.117,0.029 -0.015,-0.01 -0.02,-0.02 -0.033,-0.028 -0.006,0.003 -0.007,0.004 -0.015,0.006z"/>
    <path class="fil2" d="M0.097 4.741c0,0.015 0.014,0.017 0.03,0.022 0.059,0.019 -0.024,-0.066 0.068,-0.074l0 -0.083c-0.051,0.004 -0.098,0.072 -0.098,0.135z"/>
    <path class="fil2" d="M0.44 4.615l0 0.073c0.058,0 0.052,0.031 0.052,0.077 0.017,-0 0.031,-0.009 0.046,-0.012l0 -0.017c-0,-0.015 -0.001,-0.023 -0.006,-0.038 -0.016,-0.052 -0.033,-0.064 -0.074,-0.086 -0.006,-0.003 -0.018,-0.011 -0.018,0.003z"/>
   </g>
  </g>
  <path class="fil0" d="M0.997 5.707l0 -0.537 0.375 0 0 0.085 -0.273 0 0 0.124 0.17 0c0.033,0 0.061,0.007 0.084,0.02 0.023,0.013 0.04,0.032 0.052,0.057 0.012,0.025 0.017,0.055 0.017,0.089 0,0.034 -0.006,0.063 -0.017,0.088 -0.011,0.024 -0.029,0.043 -0.051,0.055 -0.023,0.013 -0.05,0.019 -0.083,0.019l-0.274 0zm0.103 -0.085l0.131 0c0.022,0 0.04,-0.002 0.052,-0.006 0.013,-0.004 0.022,-0.012 0.027,-0.023 0.006,-0.011 0.009,-0.027 0.009,-0.048 0,-0.031 -0.006,-0.052 -0.019,-0.063 -0.013,-0.011 -0.035,-0.017 -0.066,-0.017l-0.135 0 0 0.157z"/>
  <path id="1" class="fil0" d="M1.813 5.331l-0.1 0.399c-0.006,0.023 -0.012,0.044 -0.018,0.061 -0.006,0.017 -0.015,0.032 -0.025,0.044 -0.01,0.013 -0.023,0.022 -0.04,0.029 -0.017,0.007 -0.037,0.01 -0.061,0.01 -0.017,0 -0.029,-0.001 -0.037,-0.003l0 -0.065c0.007,0.002 0.014,0.002 0.021,0.002 0.022,-0 0.038,-0.009 0.048,-0.025 0.01,-0.016 0.019,-0.042 0.027,-0.077l-0.047 0 -0.123 -0.376 0.095 0 0.094 0.319 0.073 -0.319 0.093 0z"/>
  <polygon id="2" class="fil0" points="2.185,5.331 2.075,5.508 2.197,5.707 2.091,5.707 2.015,5.568 1.94,5.707 1.832,5.707 1.956,5.508 1.846,5.331 1.949,5.331 2.015,5.451 2.08,5.331 "/>
  <polygon id="3" class="fil0" points="2.499,5.399 2.499,5.331 2.25,5.331 2.25,5.707 2.34,5.707 2.34,5.399 "/>
  <path id="4" class="fil0" d="M2.797 5.707l0.007 -0.052 -0.002 0c-0.008,0.017 -0.017,0.029 -0.028,0.038 -0.011,0.008 -0.024,0.014 -0.039,0.017 -0.015,0.002 -0.034,0.004 -0.057,0.004 -0.032,0 -0.058,-0.004 -0.078,-0.011 -0.02,-0.008 -0.035,-0.02 -0.044,-0.037 -0.01,-0.017 -0.015,-0.04 -0.015,-0.069 0,-0.024 0.003,-0.044 0.008,-0.059 0.005,-0.016 0.013,-0.028 0.025,-0.037 0.011,-0.009 0.026,-0.015 0.044,-0.019 0.018,-0.004 0.041,-0.006 0.07,-0.006 0.033,0 0.057,0.004 0.071,0.011 0.014,0.007 0.026,0.02 0.034,0.037l0.004 0 0 -0.064c0,-0.02 -0.002,-0.036 -0.008,-0.047 -0.005,-0.011 -0.013,-0.019 -0.025,-0.023 -0.012,-0.004 -0.028,-0.006 -0.049,-0.006 -0.027,0 -0.046,0.004 -0.056,0.012 -0.01,0.008 -0.015,0.022 -0.015,0.044l-0.09 0c0.001,-0.023 0.005,-0.042 0.013,-0.057 0.008,-0.015 0.019,-0.027 0.033,-0.035 0.014,-0.008 0.03,-0.014 0.048,-0.017 0.018,-0.003 0.039,-0.005 0.064,-0.005 0.04,0 0.072,0.003 0.096,0.009 0.025,0.006 0.044,0.019 0.058,0.038 0.014,0.02 0.021,0.049 0.021,0.087l0 0.247 -0.09 0zm0 -0.113c0,-0.022 -0.006,-0.037 -0.019,-0.045 -0.012,-0.008 -0.036,-0.012 -0.07,-0.012 -0.02,0 -0.036,0.002 -0.047,0.005 -0.011,0.003 -0.019,0.009 -0.024,0.017 -0.005,0.008 -0.007,0.019 -0.007,0.034 0,0.021 0.006,0.035 0.017,0.044 0.011,0.008 0.031,0.013 0.059,0.013 0.032,0 0.055,-0.004 0.069,-0.012 0.014,-0.008 0.021,-0.023 0.021,-0.045z"/>
  <path id="5" class="fil0" d="M3.012 5.331l0.314 0 0 0.376 -0.09 0 0 -0.306 -0.136 0 0 0.191c0,0.024 -0.004,0.044 -0.011,0.062 -0.007,0.018 -0.018,0.032 -0.033,0.042 -0.015,0.01 -0.034,0.015 -0.056,0.015 -0.025,0 -0.044,-0.001 -0.055,-0.004l0 -0.067c0.008,0.001 0.016,0.002 0.023,0.002 0.017,0 0.029,-0.005 0.035,-0.014 0.006,-0.009 0.009,-0.024 0.009,-0.045l0 -0.253z"/>
  <polygon id="6" class="fil0" points="3.516,5.707 3.605,5.707 3.605,5.4 3.726,5.4 3.726,5.331 3.395,5.331 3.395,5.4 3.516,5.4 "/>
  <path id="7" class="fil0" d="M4.029 5.587l0.089 0 0 0.014c0,0.03 -0.007,0.054 -0.021,0.07 -0.014,0.016 -0.033,0.027 -0.058,0.033 -0.025,0.006 -0.056,0.009 -0.095,0.009 -0.044,0 -0.078,-0.006 -0.102,-0.018 -0.025,-0.012 -0.042,-0.032 -0.053,-0.06 -0.011,-0.028 -0.016,-0.066 -0.016,-0.115 0,-0.048 0.005,-0.087 0.016,-0.115 0.011,-0.028 0.029,-0.049 0.054,-0.061 0.025,-0.013 0.059,-0.019 0.102,-0.019 0.043,0 0.077,0.006 0.102,0.019 0.025,0.013 0.044,0.033 0.055,0.06 0.011,0.027 0.017,0.063 0.017,0.107l0 0.026 -0.255 0c0,0.03 0.002,0.053 0.007,0.069 0.005,0.015 0.013,0.026 0.024,0.032 0.011,0.006 0.028,0.009 0.05,0.009 0.021,0 0.037,-0.001 0.049,-0.004 0.012,-0.003 0.021,-0.008 0.027,-0.016 0.006,-0.008 0.009,-0.019 0.009,-0.033l0 -0.007zm0.002 -0.108c0,-0.022 -0.003,-0.04 -0.008,-0.053 -0.005,-0.013 -0.014,-0.022 -0.026,-0.027 -0.012,-0.005 -0.029,-0.008 -0.05,-0.008 -0.021,0 -0.037,0.003 -0.049,0.008 -0.012,0.005 -0.02,0.014 -0.026,0.027 -0.005,0.013 -0.008,0.03 -0.008,0.053l0.167 0z"/>
  <path id="8" class="fil0" d="M4.286 5.509c0,0.037 0.002,0.065 0.006,0.083 0.004,0.018 0.012,0.031 0.024,0.039 0.012,0.008 0.031,0.012 0.057,0.012 0.026,0 0.044,-0.005 0.056,-0.014 0.012,-0.009 0.019,-0.023 0.022,-0.04 0.003,-0.017 0.005,-0.043 0.005,-0.077 0,-0.034 -0.002,-0.06 -0.007,-0.076 -0.005,-0.016 -0.012,-0.027 -0.024,-0.032 -0.011,-0.005 -0.028,-0.008 -0.051,-0.008 -0.024,0 -0.041,0.003 -0.054,0.009 -0.012,0.006 -0.021,0.017 -0.026,0.033 -0.005,0.016 -0.008,0.04 -0.008,0.071zm0 0.146l0 0.211 -0.09 0 0 -0.535 0.086 0 -0.004 0.053 0.003 0c0.015,-0.022 0.031,-0.038 0.049,-0.046 0.018,-0.008 0.04,-0.013 0.068,-0.013 0.041,0 0.072,0.007 0.094,0.022 0.022,0.015 0.036,0.036 0.044,0.063 0.008,0.027 0.011,0.063 0.011,0.106 0,0.031 -0.001,0.058 -0.004,0.08 -0.003,0.022 -0.009,0.042 -0.019,0.06 -0.009,0.018 -0.024,0.031 -0.043,0.041 -0.019,0.01 -0.045,0.015 -0.077,0.015 -0.03,0 -0.053,-0.004 -0.071,-0.011 -0.018,-0.008 -0.034,-0.023 -0.046,-0.046z"/>
  <g id="_2335581021392">
   <rect class="fil1" x="0" y="5.113" width="0.636" height="0.636" rx="0.127" ry="0.121"/>
   <g>
    <path class="fil2" d="M0.275 5.198c0,0.03 0.005,0.041 -0.006,0.049 -0.01,-0.007 -0.006,-0.001 -0.006,-0.037 -0.026,0.006 -0.045,0.045 -0.051,0.072 -0.003,0.013 0,0.007 -0.005,0.016 -0.004,0.006 -0.008,0.005 -0.008,0.013 0,0.043 0.151,0.042 0.2,0.029 0.016,-0.004 0.053,-0.018 0.037,-0.036 -0.023,-0.025 -0.003,-0.014 -0.02,-0.05 -0.007,-0.016 -0.022,-0.039 -0.039,-0.044 0,0.018 0,0.023 -0.003,0.037l-0.009 0c-0.004,-0.017 -0.003,-0.029 -0.003,-0.049 -0.042,-0.011 -0.062,-0.005 -0.086,0z"/>
    <path class="fil2" d="M0.211 5.373c0,0.032 0.019,0.047 0.036,0.084 0.023,0.05 0.102,0.09 0.151,-0.016 0.012,-0.025 0.028,-0.022 0.028,-0.073 0,-0.034 -0.021,-0.006 -0.086,-0.006 -0.068,0 -0.054,0.003 -0.119,-0.012 -0.004,0.007 -0.009,0.013 -0.009,0.025z"/>
    <path class="fil2" d="M0.18 5.664c0.026,0 0.047,0.006 0.077,0.006l0.126 0c0.031,0 0.051,-0.006 0.08,-0.006l0 -0.055 -0.282 0 0 0.055z"/>
    <path class="fil2" d="M0.226 5.48l0 0.098 0.187 0 0 -0.098 -0.021 -0.007c-0.026,0.04 -0.072,0.057 -0.117,0.029 -0.015,-0.01 -0.02,-0.02 -0.033,-0.028 -0.006,0.003 -0.007,0.004 -0.015,0.006z"/>
    <path class="fil2" d="M0.097 5.63c0,0.015 0.014,0.017 0.03,0.022 0.059,0.019 -0.024,-0.066 0.068,-0.074l0 -0.083c-0.051,0.004 -0.098,0.072 -0.098,0.135z"/>
    <path class="fil2" d="M0.44 5.505l0 0.073c0.058,0 0.052,0.031 0.052,0.077 0.017,-0 0.031,-0.009 0.046,-0.012l0 -0.017c-0,-0.015 -0.001,-0.023 -0.006,-0.038 -0.016,-0.052 -0.033,-0.064 -0.074,-0.086 -0.006,-0.003 -0.018,-0.011 -0.018,0.003z"/>
   </g>
  </g>
 </g>
</svg>
