<?xml version="1.0" encoding="UTF-8"?>
<!DOCTYPE svg PUBLIC "-//W3C//DTD SVG 1.1//EN" "http://www.w3.org/Graphics/SVG/1.1/DTD/svg11.dtd">
<!-- Creator: CorelDRAW 2019 (64-Bit) -->
<svg xmlns="http://www.w3.org/2000/svg" xml:space="preserve" width="2.03338cm" height="1.15376cm" version="1.1" style="shape-rendering:geometricPrecision; text-rendering:geometricPrecision; image-rendering:optimizeQuality; fill-rule:evenodd; clip-rule:evenodd"
viewBox="0 0 7.21 4.091"
 xmlns:xlink="http://www.w3.org/1999/xlink"
 xmlns:xodm="http://www.corel.com/coreldraw/odm/2003">
 <defs>
  <style type="text/css">
   <![CDATA[
    .fil1 {fill:#1B5A5C}
    .fil2 {fill:#29878C}
    .fil0 {fill:white;fill-rule:nonzero}
   ]]>
  </style>
 </defs>
 <g id="Слой_x0020_1">
  <metadata id="CorelCorpID_0Corel-Layer"/>
  <path class="fil0" d="M0.696 0.23c0,-0.046 0.003,-0.084 0.009,-0.113 0.006,-0.029 0.016,-0.052 0.031,-0.069 0.015,-0.017 0.035,-0.029 0.06,-0.037 0.025,-0.007 0.059,-0.011 0.1,-0.011 0.041,0 0.074,0.004 0.099,0.011 0.025,0.007 0.046,0.02 0.06,0.037 0.015,0.017 0.025,0.04 0.032,0.069 0.006,0.029 0.01,0.067 0.01,0.113 0,0.053 -0.003,0.096 -0.01,0.128 -0.006,0.032 -0.017,0.057 -0.032,0.075 -0.015,0.018 -0.035,0.03 -0.06,0.037 -0.025,0.007 -0.058,0.01 -0.1,0.01 -0.044,0 -0.078,-0.003 -0.104,-0.01 -0.025,-0.007 -0.045,-0.019 -0.059,-0.037 -0.014,-0.018 -0.024,-0.042 -0.029,-0.074 -0.005,-0.032 -0.008,-0.075 -0.008,-0.129zm0.091 0.01c0,0.039 0.001,0.069 0.004,0.09 0.003,0.021 0.008,0.036 0.015,0.047 0.007,0.011 0.018,0.018 0.031,0.021 0.014,0.004 0.033,0.005 0.058,0.005 0.025,0 0.044,-0.002 0.058,-0.006 0.014,-0.004 0.025,-0.011 0.032,-0.022 0.007,-0.011 0.012,-0.026 0.015,-0.047 0.003,-0.021 0.004,-0.05 0.004,-0.089 0,-0.039 -0.001,-0.069 -0.004,-0.09 -0.003,-0.021 -0.008,-0.037 -0.016,-0.047 -0.008,-0.01 -0.018,-0.017 -0.031,-0.02 -0.013,-0.003 -0.033,-0.005 -0.058,-0.005 -0.026,0 -0.046,0.002 -0.059,0.005 -0.013,0.003 -0.023,0.01 -0.031,0.02 -0.007,0.01 -0.012,0.026 -0.015,0.047 -0.003,0.021 -0.004,0.051 -0.004,0.091z"/>
  <path id="1" class="fil0" d="M1.164 0.23c0,-0.046 0.003,-0.084 0.009,-0.113 0.006,-0.029 0.016,-0.052 0.031,-0.069 0.015,-0.017 0.035,-0.029 0.06,-0.037 0.025,-0.007 0.059,-0.011 0.1,-0.011 0.041,0 0.074,0.004 0.099,0.011 0.025,0.007 0.046,0.02 0.06,0.037 0.015,0.017 0.025,0.04 0.032,0.069 0.006,0.029 0.01,0.067 0.01,0.113 0,0.053 -0.003,0.096 -0.01,0.128 -0.006,0.032 -0.017,0.057 -0.032,0.075 -0.015,0.018 -0.035,0.03 -0.06,0.037 -0.025,0.007 -0.058,0.01 -0.1,0.01 -0.044,0 -0.078,-0.003 -0.104,-0.01 -0.025,-0.007 -0.045,-0.019 -0.059,-0.037 -0.014,-0.018 -0.024,-0.042 -0.029,-0.074 -0.005,-0.032 -0.008,-0.075 -0.008,-0.129zm0.091 0.01c0,0.039 0.001,0.069 0.004,0.09 0.003,0.021 0.008,0.036 0.015,0.047 0.007,0.011 0.018,0.018 0.031,0.021 0.014,0.004 0.033,0.005 0.058,0.005 0.025,0 0.044,-0.002 0.058,-0.006 0.014,-0.004 0.025,-0.011 0.032,-0.022 0.007,-0.011 0.012,-0.026 0.015,-0.047 0.003,-0.021 0.004,-0.05 0.004,-0.089 0,-0.039 -0.001,-0.069 -0.004,-0.09 -0.003,-0.021 -0.008,-0.037 -0.016,-0.047 -0.008,-0.01 -0.018,-0.017 -0.031,-0.02 -0.013,-0.003 -0.033,-0.005 -0.058,-0.005 -0.026,0 -0.046,0.002 -0.059,0.005 -0.013,0.003 -0.023,0.01 -0.031,0.02 -0.007,0.01 -0.012,0.026 -0.015,0.047 -0.003,0.021 -0.004,0.051 -0.004,0.091z"/>
  <path id="2" class="fil0" d="M1.631 0.23c0,-0.046 0.003,-0.084 0.009,-0.113 0.006,-0.029 0.016,-0.052 0.031,-0.069 0.015,-0.017 0.035,-0.029 0.06,-0.037 0.025,-0.007 0.059,-0.011 0.1,-0.011 0.041,0 0.074,0.004 0.099,0.011 0.025,0.007 0.046,0.02 0.06,0.037 0.015,0.017 0.025,0.04 0.032,0.069 0.006,0.029 0.01,0.067 0.01,0.113 0,0.053 -0.003,0.096 -0.01,0.128 -0.006,0.032 -0.017,0.057 -0.032,0.075 -0.015,0.018 -0.035,0.03 -0.06,0.037 -0.025,0.007 -0.058,0.01 -0.1,0.01 -0.044,0 -0.078,-0.003 -0.104,-0.01 -0.025,-0.007 -0.045,-0.019 -0.059,-0.037 -0.014,-0.018 -0.024,-0.042 -0.029,-0.074 -0.005,-0.032 -0.008,-0.075 -0.008,-0.129zm0.091 0.01c0,0.039 0.001,0.069 0.004,0.09 0.003,0.021 0.008,0.036 0.015,0.047 0.007,0.011 0.018,0.018 0.031,0.021 0.014,0.004 0.033,0.005 0.058,0.005 0.025,0 0.044,-0.002 0.058,-0.006 0.014,-0.004 0.025,-0.011 0.032,-0.022 0.007,-0.011 0.012,-0.026 0.015,-0.047 0.003,-0.021 0.004,-0.05 0.004,-0.089 0,-0.039 -0.001,-0.069 -0.004,-0.09 -0.003,-0.021 -0.008,-0.037 -0.016,-0.047 -0.008,-0.01 -0.018,-0.017 -0.031,-0.02 -0.013,-0.003 -0.033,-0.005 -0.058,-0.005 -0.026,0 -0.046,0.002 -0.059,0.005 -0.013,0.003 -0.023,0.01 -0.031,0.02 -0.007,0.01 -0.012,0.026 -0.015,0.047 -0.003,0.021 -0.004,0.051 -0.004,0.091z"/>
  <path id="3" class="fil0" d="M2.346 0.134l0.053 0.029 -0.066 0.135 0.07 0.131 -0.049 0.033 -0.089 -0.164 0.082 -0.164zm0.128 -0.002l0.053 0.031 -0.067 0.134 0.071 0.132 -0.051 0.031 -0.09 -0.163 0.083 -0.165z"/>
  <path id="4" class="fil0" d="M2.894 0.306l0.088 0 0 0.027c0,0.036 -0.006,0.065 -0.019,0.086 -0.012,0.021 -0.033,0.036 -0.061,0.045 -0.028,0.009 -0.066,0.014 -0.115,0.014 -0.04,0 -0.072,-0.004 -0.097,-0.011 -0.025,-0.007 -0.045,-0.02 -0.06,-0.038 -0.015,-0.018 -0.025,-0.043 -0.031,-0.074 -0.006,-0.031 -0.009,-0.073 -0.009,-0.124 0,-0.056 0.006,-0.101 0.017,-0.134 0.011,-0.033 0.031,-0.057 0.059,-0.073 0.028,-0.016 0.068,-0.024 0.119,-0.024 0.05,0 0.089,0.006 0.117,0.018 0.027,0.012 0.046,0.029 0.057,0.052 0.011,0.023 0.018,0.054 0.021,0.092l-0.087 0c-0.001,-0.025 -0.005,-0.043 -0.012,-0.055 -0.006,-0.012 -0.017,-0.019 -0.031,-0.024 -0.014,-0.004 -0.036,-0.006 -0.064,-0.006 -0.03,0 -0.051,0.004 -0.065,0.011 -0.014,0.008 -0.024,0.023 -0.029,0.045 -0.005,0.022 -0.008,0.057 -0.008,0.106 0,0.034 0.002,0.062 0.005,0.083 0.003,0.021 0.008,0.037 0.016,0.049 0.008,0.011 0.018,0.02 0.031,0.024 0.013,0.005 0.031,0.007 0.053,0.007 0.028,0 0.05,-0.002 0.065,-0.006 0.015,-0.004 0.026,-0.01 0.033,-0.02 0.006,-0.009 0.01,-0.023 0.01,-0.041l0 -0.029z"/>
  <path id="5" class="fil0" d="M3.247 0.37l0.078 0 0 0.012c0,0.026 -0.006,0.047 -0.018,0.061 -0.012,0.014 -0.029,0.024 -0.05,0.029 -0.022,0.005 -0.049,0.008 -0.083,0.008 -0.038,0 -0.068,-0.005 -0.089,-0.016 -0.021,-0.01 -0.037,-0.028 -0.046,-0.052 -0.009,-0.024 -0.014,-0.058 -0.014,-0.1 0,-0.042 0.005,-0.076 0.014,-0.1 0.01,-0.025 0.025,-0.042 0.047,-0.053 0.022,-0.011 0.051,-0.016 0.089,-0.016 0.037,0 0.067,0.006 0.089,0.017 0.022,0.011 0.038,0.029 0.048,0.052 0.01,0.024 0.015,0.055 0.015,0.094l0 0.023 -0.223 0c0,0.026 0.002,0.046 0.006,0.06 0.004,0.013 0.011,0.023 0.021,0.028 0.01,0.005 0.025,0.008 0.044,0.008 0.018,0 0.032,-0.001 0.042,-0.004 0.01,-0.003 0.018,-0.007 0.023,-0.014 0.005,-0.007 0.008,-0.016 0.008,-0.029l0 -0.006zm0.001 -0.094c0,-0.019 -0.002,-0.035 -0.007,-0.046 -0.005,-0.011 -0.012,-0.019 -0.023,-0.024 -0.011,-0.005 -0.025,-0.007 -0.044,-0.007 -0.018,0 -0.033,0.002 -0.043,0.007 -0.01,0.005 -0.018,0.013 -0.022,0.024 -0.004,0.011 -0.007,0.026 -0.007,0.046l0.146 0z"/>
  <path id="6" class="fil0" d="M3.469 0.203l0 0.078 0.074 0c0.02,0 0.034,-0.003 0.042,-0.009 0.008,-0.006 0.012,-0.015 0.012,-0.029 0,-0.014 -0.004,-0.024 -0.011,-0.031 -0.007,-0.006 -0.019,-0.01 -0.036,-0.01l-0.082 0zm0 0.13l0 0.084 0.086 0c0.018,0 0.031,-0.003 0.039,-0.01 0.008,-0.007 0.012,-0.017 0.012,-0.032 0,-0.028 -0.016,-0.042 -0.047,-0.042l-0.089 0zm-0.077 0.141l0 -0.328 0.181 0c0.037,0 0.063,0.007 0.079,0.021 0.016,0.014 0.024,0.037 0.024,0.068 0,0.017 -0.005,0.032 -0.016,0.044 -0.011,0.012 -0.025,0.021 -0.044,0.025l0 0.002c0.02,0.004 0.037,0.012 0.049,0.025 0.012,0.013 0.018,0.031 0.018,0.053 0,0.021 -0.003,0.038 -0.009,0.051 -0.006,0.013 -0.017,0.023 -0.031,0.029 -0.015,0.006 -0.035,0.01 -0.061,0.01l-0.19 0z"/>
  <path id="7" class="fil0" d="M3.958 0.37l0.078 0 0 0.012c0,0.026 -0.006,0.047 -0.018,0.061 -0.012,0.014 -0.029,0.024 -0.05,0.029 -0.022,0.005 -0.049,0.008 -0.083,0.008 -0.038,0 -0.068,-0.005 -0.089,-0.016 -0.021,-0.01 -0.037,-0.028 -0.046,-0.052 -0.009,-0.024 -0.014,-0.058 -0.014,-0.1 0,-0.042 0.005,-0.076 0.014,-0.1 0.01,-0.025 0.025,-0.042 0.047,-0.053 0.022,-0.011 0.051,-0.016 0.089,-0.016 0.037,0 0.067,0.006 0.089,0.017 0.022,0.011 0.038,0.029 0.048,0.052 0.01,0.024 0.015,0.055 0.015,0.094l0 0.023 -0.223 0c0,0.026 0.002,0.046 0.006,0.06 0.004,0.013 0.011,0.023 0.021,0.028 0.01,0.005 0.025,0.008 0.044,0.008 0.018,0 0.032,-0.001 0.042,-0.004 0.01,-0.003 0.018,-0.007 0.023,-0.014 0.005,-0.007 0.008,-0.016 0.008,-0.029l0 -0.006zm0.001 -0.094c0,-0.019 -0.002,-0.035 -0.007,-0.046 -0.005,-0.011 -0.012,-0.019 -0.023,-0.024 -0.011,-0.005 -0.025,-0.007 -0.044,-0.007 -0.018,0 -0.033,0.002 -0.043,0.007 -0.01,0.005 -0.018,0.013 -0.022,0.024 -0.004,0.011 -0.007,0.026 -0.007,0.046l0.146 0z"/>
  <path id="8" class="fil0" d="M4.182 0.301c0,0.033 0.002,0.057 0.005,0.072 0.003,0.016 0.01,0.027 0.021,0.034 0.01,0.007 0.027,0.01 0.05,0.01 0.022,0 0.039,-0.004 0.049,-0.012 0.01,-0.008 0.017,-0.02 0.019,-0.035 0.003,-0.015 0.004,-0.038 0.004,-0.067 0,-0.03 -0.002,-0.052 -0.006,-0.066 -0.004,-0.014 -0.011,-0.023 -0.021,-0.028 -0.01,-0.005 -0.025,-0.007 -0.045,-0.007 -0.021,0 -0.036,0.003 -0.047,0.008 -0.011,0.005 -0.018,0.015 -0.023,0.029 -0.004,0.014 -0.007,0.035 -0.007,0.062zm0 0.127l0 0.184 -0.078 0 0 -0.467 0.075 0 -0.003 0.046 0.002 0c0.013,-0.019 0.027,-0.033 0.042,-0.04 0.015,-0.007 0.035,-0.011 0.059,-0.011 0.036,0 0.063,0.006 0.082,0.019 0.019,0.013 0.032,0.031 0.038,0.055 0.007,0.024 0.01,0.055 0.01,0.092 0,0.027 -0.001,0.051 -0.004,0.07 -0.003,0.02 -0.008,0.037 -0.016,0.052 -0.008,0.015 -0.021,0.027 -0.038,0.036 -0.017,0.009 -0.039,0.013 -0.067,0.013 -0.026,0 -0.047,-0.003 -0.062,-0.01 -0.016,-0.007 -0.029,-0.02 -0.04,-0.04z"/>
  <polygon id="9" class="fil0" points="4.558,0.331 4.697,0.331 4.697,0.473 4.775,0.473 4.775,0.146 4.697,0.146 4.697,0.27 4.558,0.27 4.558,0.146 4.48,0.146 4.48,0.473 4.558,0.473 "/>
  <path id="10" class="fil0" d="M4.859 0.474l0 -0.328 0.078 0 0 0.125 0.111 0c0.063,0 0.094,0.034 0.094,0.101 0,0.034 -0.008,0.06 -0.024,0.076 -0.016,0.017 -0.039,0.025 -0.069,0.025l-0.189 0zm0.078 -0.146l0 0.088 0.079 0c0.017,0 0.029,-0.003 0.036,-0.009 0.007,-0.006 0.011,-0.018 0.011,-0.035 0,-0.012 -0.002,-0.021 -0.005,-0.028 -0.003,-0.006 -0.008,-0.011 -0.015,-0.013 -0.007,-0.002 -0.016,-0.004 -0.027,-0.004l-0.078 0zm0.333 -0.182l0 0.328 -0.078 0 0 -0.328 0.078 0z"/>
  <path id="11" class="fil0" d="M5.352 0.145l0 0.328 0.096 0 0.107 -0.205c0.008,-0.015 0.02,-0.039 0.036,-0.073 -0.003,0.009 -0.007,0.024 -0.01,0.045 -0.004,0.021 -0.005,0.039 -0.005,0.052l0 0.181 0.074 0 0 -0.328 -0.096 0 -0.107 0.207c-0.006,0.01 -0.018,0.034 -0.036,0.073 0.004,-0.009 0.007,-0.023 0.01,-0.041 0.003,-0.018 0.005,-0.034 0.005,-0.048l0 -0.191 -0.074 0zm0.146 -0.023c-0.025,0 -0.045,-0.005 -0.059,-0.015 -0.014,-0.01 -0.021,-0.027 -0.021,-0.053l0.043 0c0,0.011 0.003,0.018 0.008,0.023 0.005,0.004 0.015,0.006 0.029,0.006 0.016,0 0.026,-0.002 0.031,-0.006 0.005,-0.004 0.007,-0.012 0.007,-0.023l0.043 0c0,0.025 -0.007,0.043 -0.021,0.053 -0.014,0.01 -0.034,0.015 -0.06,0.015z"/>
  <path id="12" class="fil0" d="M5.907 0.134l0.082 0.164 -0.089 0.164 -0.051 -0.033 0.071 -0.131 -0.066 -0.135 0.053 -0.029zm-0.128 -0.002l0.082 0.165 -0.089 0.163 -0.05 -0.031 0.071 -0.132 -0.067 -0.134 0.053 -0.031z"/>
  <path class="fil0" d="M0.724 1.264c0.008,-0.01 0.014,-0.02 0.018,-0.03 0.004,-0.01 0.008,-0.021 0.01,-0.035 0.002,-0.014 0.003,-0.031 0.003,-0.052l0 -0.1 0.205 0 0 0.216 0.034 0 0 0.118 -0.058 0 0 -0.071 -0.183 0 0 0.071 -0.058 0 0 -0.118 0.028 0zm0.174 0l0 -0.17 -0.083 0 0 0.057c0,0.051 -0.01,0.089 -0.029,0.113l0.111 0z"/>
  <polygon id="1" class="fil0" points="1.092,1.243 1.092,1.311 1.03,1.311 1.03,1.243 "/>
  <polygon id="2" class="fil0" points="1.286,1.311 1.286,0.936 1.358,0.936 1.358,1.249 1.512,1.249 1.512,0.936 1.584,0.936 1.584,1.249 1.738,1.249 1.738,0.936 1.81,0.936 1.81,1.311 "/>
  <path id="3" class="fil0" d="M2.098 1.049l-0.07 0.278c-0.004,0.016 -0.008,0.03 -0.013,0.042 -0.005,0.012 -0.01,0.022 -0.017,0.031 -0.007,0.009 -0.016,0.016 -0.028,0.02 -0.012,0.005 -0.026,0.007 -0.042,0.007 -0.012,0 -0.02,-0.001 -0.026,-0.002l0 -0.045c0.005,0.001 0.01,0.002 0.015,0.002 0.016,-0 0.027,-0.006 0.034,-0.018 0.007,-0.011 0.013,-0.03 0.019,-0.054l-0.033 0 -0.086 -0.262 0.067 0 0.066 0.223 0.051 -0.223 0.065 0z"/>
  <path id="4" class="fil0" d="M2.138 1.264c0.008,-0.01 0.014,-0.02 0.018,-0.03 0.004,-0.01 0.008,-0.021 0.01,-0.035 0.002,-0.014 0.003,-0.031 0.003,-0.052l0 -0.1 0.205 0 0 0.216 0.034 0 0 0.118 -0.058 0 0 -0.071 -0.183 0 0 0.071 -0.058 0 0 -0.118 0.028 0zm0.174 0l0 -0.17 -0.083 0 0 0.057c0,0.051 -0.01,0.089 -0.029,0.113l0.111 0z"/>
  <path id="5" class="fil0" d="M2.549 1.198l-0.026 0 0 -0.042 0.026 0c0.022,0 0.036,-0.003 0.044,-0.009 0.008,-0.006 0.012,-0.015 0.012,-0.027 0,-0.008 -0.002,-0.014 -0.005,-0.018 -0.003,-0.005 -0.009,-0.008 -0.016,-0.01 -0.007,-0.002 -0.018,-0.003 -0.031,-0.003 -0.013,0 -0.023,0.001 -0.029,0.002 -0.007,0.001 -0.012,0.004 -0.016,0.009 -0.004,0.005 -0.006,0.012 -0.006,0.022l-0.062 0c0.002,-0.02 0.007,-0.036 0.015,-0.047 0.008,-0.011 0.02,-0.02 0.036,-0.025 0.016,-0.005 0.038,-0.007 0.065,-0.007 0.024,0 0.044,0.002 0.06,0.007 0.016,0.004 0.029,0.012 0.038,0.022 0.009,0.01 0.013,0.024 0.013,0.041 0,0.016 -0.004,0.029 -0.011,0.039 -0.007,0.009 -0.019,0.016 -0.037,0.02 0.018,0.004 0.031,0.012 0.039,0.023 0.008,0.011 0.012,0.024 0.012,0.04 0,0.016 -0.002,0.029 -0.008,0.04 -0.005,0.011 -0.012,0.019 -0.022,0.025 -0.01,0.006 -0.022,0.01 -0.036,0.013 -0.014,0.002 -0.031,0.004 -0.051,0.004 -0.03,0 -0.053,-0.003 -0.071,-0.007 -0.017,-0.005 -0.03,-0.013 -0.038,-0.023 -0.008,-0.011 -0.011,-0.025 -0.011,-0.042l0 -0.015 0.062 0c0,0.012 0.002,0.021 0.005,0.026 0.003,0.006 0.009,0.01 0.017,0.012 0.008,0.002 0.02,0.003 0.036,0.003 0.021,0 0.036,-0.002 0.044,-0.007 0.008,-0.005 0.012,-0.014 0.012,-0.029 0,-0.014 -0.004,-0.023 -0.013,-0.029 -0.008,-0.005 -0.024,-0.008 -0.047,-0.008z"/>
  <path id="6" class="fil0" d="M2.935 1.049l0 0.263 -0.063 0 0 -0.101 -0.048 0 -0.059 0.101 -0.067 0 0.066 -0.109c-0.038,-0.011 -0.057,-0.036 -0.057,-0.074 0,-0.053 0.025,-0.08 0.074,-0.08l0.154 0zm-0.063 0.117l0 -0.071 -0.066 0c-0.013,0 -0.022,0.002 -0.028,0.008 -0.005,0.005 -0.008,0.014 -0.008,0.028 0,0.014 0.003,0.023 0.01,0.028 0.007,0.005 0.017,0.008 0.031,0.008l0.061 0z"/>
  <path id="7" class="fil0" d="M3.06 1.244l0 0.066c0,0.017 -0.002,0.03 -0.005,0.039 -0.003,0.009 -0.009,0.016 -0.018,0.02 -0.009,0.004 -0.022,0.006 -0.039,0.006 -0.003,0 -0.005,-0 -0.006,-0l0 -0.03c0.011,-0 0.018,-0.002 0.023,-0.005 0.005,-0.003 0.007,-0.01 0.007,-0.02l0 -0.008 -0.025 0 0 -0.067 0.063 0z"/>
  <path id="8" class="fil0" d="M3.481 1.049l-0.07 0.278c-0.004,0.016 -0.008,0.03 -0.013,0.042 -0.005,0.012 -0.01,0.022 -0.017,0.031 -0.007,0.009 -0.016,0.016 -0.028,0.02 -0.012,0.005 -0.026,0.007 -0.042,0.007 -0.012,0 -0.02,-0.001 -0.026,-0.002l0 -0.045c0.005,0.001 0.01,0.002 0.015,0.002 0.016,-0 0.027,-0.006 0.034,-0.018 0.007,-0.011 0.013,-0.03 0.019,-0.054l-0.033 0 -0.086 -0.262 0.067 0 0.066 0.223 0.051 -0.223 0.065 0z"/>
  <path id="9" class="fil0" d="M3.542 1.049l0.219 0 0 0.262 -0.063 0 0 -0.214 -0.095 0 0 0.133c0,0.017 -0.003,0.031 -0.008,0.044 -0.005,0.013 -0.013,0.022 -0.023,0.029 -0.011,0.007 -0.024,0.011 -0.039,0.011 -0.018,0 -0.03,-0.001 -0.039,-0.003l0 -0.047c0.006,0.001 0.011,0.001 0.016,0.001 0.012,0 0.02,-0.003 0.024,-0.01 0.004,-0.006 0.007,-0.017 0.007,-0.031l0 -0.176z"/>
  <polygon id="10" class="fil0" points="3.887,1.243 3.887,1.311 3.825,1.311 3.825,1.243 "/>
  <path id="11" class="fil0" d="M4.313 0.936l-0.073 0.188c-0.006,0.017 -0.011,0.035 -0.015,0.054 -0.002,-0.027 -0.006,-0.044 -0.01,-0.052l-0.075 -0.19 -0.087 0 0.129 0.276c0.003,0.007 0.005,0.013 0.005,0.017 0,0.004 -0.001,0.008 -0.004,0.012 -0.005,0.007 -0.019,0.011 -0.039,0.011 -0.004,0 -0.013,-0.001 -0.026,-0.003l0 0.061c0.015,0.002 0.03,0.002 0.045,0.002 0.015,0 0.028,-0.002 0.039,-0.007 0.012,-0.005 0.023,-0.013 0.033,-0.025 0.011,-0.012 0.021,-0.029 0.03,-0.051l0.13 -0.293 -0.085 0z"/>
  <polygon id="12" class="fil0" points="4.609,1.097 4.609,1.049 4.435,1.049 4.435,1.311 4.498,1.311 4.498,1.097 "/>
  <path id="13" class="fil0" d="M4.672 1.049l0.219 0 0 0.262 -0.063 0 0 -0.214 -0.095 0 0 0.133c0,0.017 -0.003,0.031 -0.008,0.044 -0.005,0.013 -0.013,0.022 -0.023,0.029 -0.011,0.007 -0.024,0.011 -0.039,0.011 -0.018,0 -0.03,-0.001 -0.039,-0.003l0 -0.047c0.006,0.001 0.011,0.001 0.016,0.001 0.012,0 0.02,-0.003 0.024,-0.01 0.004,-0.006 0.007,-0.017 0.007,-0.031l0 -0.176z"/>
  <path id="14" class="fil0" d="M4.948 1.179c0,-0.035 0.004,-0.061 0.011,-0.081 0.007,-0.019 0.02,-0.033 0.038,-0.041 0.018,-0.008 0.043,-0.013 0.075,-0.013 0.032,0 0.057,0.004 0.075,0.013 0.018,0.008 0.031,0.022 0.038,0.041 0.008,0.019 0.011,0.046 0.011,0.081 0,0.025 -0.002,0.047 -0.006,0.064 -0.004,0.017 -0.011,0.031 -0.02,0.042 -0.009,0.01 -0.022,0.018 -0.038,0.023 -0.016,0.005 -0.036,0.007 -0.06,0.007 -0.024,0 -0.044,-0.002 -0.06,-0.007 -0.016,-0.005 -0.029,-0.013 -0.038,-0.023 -0.009,-0.011 -0.016,-0.024 -0.02,-0.041 -0.004,-0.017 -0.006,-0.038 -0.006,-0.064zm0.064 0c0,0.024 0.002,0.043 0.005,0.055 0.004,0.012 0.01,0.021 0.018,0.025 0.008,0.005 0.02,0.007 0.036,0.007 0.016,0 0.028,-0.002 0.036,-0.007 0.009,-0.005 0.015,-0.013 0.018,-0.026 0.004,-0.012 0.006,-0.031 0.006,-0.055 0,-0.018 -0.001,-0.033 -0.003,-0.044 -0.002,-0.011 -0.005,-0.02 -0.01,-0.026 -0.005,-0.006 -0.01,-0.01 -0.018,-0.013 -0.007,-0.002 -0.017,-0.004 -0.029,-0.004 -0.016,0 -0.028,0.002 -0.036,0.007 -0.008,0.004 -0.014,0.013 -0.018,0.025 -0.004,0.012 -0.005,0.03 -0.005,0.054z"/>
  <path id="15" class="fil0" d="M5.31 1.094l0 0.062 0.059 0c0.016,0 0.027,-0.002 0.034,-0.007 0.007,-0.005 0.01,-0.012 0.01,-0.023 0,-0.011 -0.003,-0.019 -0.009,-0.024 -0.006,-0.005 -0.015,-0.008 -0.029,-0.008l-0.065 0zm0 0.104l0 0.067 0.069 0c0.014,0 0.025,-0.003 0.031,-0.008 0.006,-0.005 0.01,-0.014 0.01,-0.025 0,-0.022 -0.013,-0.034 -0.038,-0.034l-0.072 0zm-0.062 0.113l0 -0.262 0.145 0c0.03,0 0.051,0.006 0.063,0.017 0.013,0.011 0.019,0.03 0.019,0.054 0,0.014 -0.004,0.025 -0.013,0.035 -0.009,0.01 -0.02,0.016 -0.035,0.02l0 0.001c0.016,0.003 0.029,0.01 0.039,0.02 0.01,0.01 0.015,0.025 0.015,0.042 0,0.017 -0.003,0.031 -0.007,0.041 -0.005,0.01 -0.013,0.018 -0.025,0.023 -0.012,0.005 -0.028,0.008 -0.049,0.008l-0.152 0z"/>
  <path id="16" class="fil0" d="M5.701 1.311l0.005 -0.036 -0.001 0c-0.005,0.012 -0.012,0.02 -0.02,0.026 -0.008,0.006 -0.017,0.01 -0.027,0.012 -0.01,0.002 -0.024,0.003 -0.04,0.003 -0.022,0 -0.04,-0.003 -0.054,-0.008 -0.014,-0.005 -0.024,-0.014 -0.031,-0.026 -0.007,-0.012 -0.01,-0.028 -0.01,-0.048 0,-0.017 0.002,-0.03 0.005,-0.041 0.004,-0.011 0.009,-0.019 0.017,-0.026 0.008,-0.006 0.018,-0.011 0.031,-0.013 0.013,-0.003 0.029,-0.004 0.049,-0.004 0.023,0 0.04,0.003 0.05,0.008 0.01,0.005 0.018,0.014 0.024,0.026l0.003 0 0 -0.045c0,-0.014 -0.002,-0.025 -0.005,-0.033 -0.004,-0.008 -0.009,-0.013 -0.017,-0.016 -0.008,-0.003 -0.02,-0.004 -0.034,-0.004 -0.019,0 -0.032,0.003 -0.039,0.008 -0.007,0.005 -0.011,0.016 -0.011,0.031l-0.063 0c0,-0.016 0.004,-0.029 0.009,-0.04 0.006,-0.011 0.013,-0.019 0.023,-0.025 0.01,-0.006 0.021,-0.01 0.034,-0.012 0.013,-0.002 0.027,-0.003 0.045,-0.003 0.028,0 0.05,0.002 0.067,0.006 0.017,0.004 0.031,0.013 0.04,0.027 0.01,0.014 0.015,0.034 0.015,0.061l0 0.173 -0.063 0zm0 -0.079c0,-0.015 -0.004,-0.026 -0.013,-0.031 -0.009,-0.006 -0.025,-0.008 -0.049,-0.008 -0.014,0 -0.025,0.001 -0.033,0.004 -0.008,0.002 -0.013,0.006 -0.017,0.012 -0.003,0.006 -0.005,0.014 -0.005,0.024 0,0.015 0.004,0.025 0.012,0.031 0.008,0.006 0.022,0.009 0.041,0.009 0.023,0 0.039,-0.003 0.048,-0.008 0.01,-0.006 0.014,-0.016 0.014,-0.031z"/>
  <path id="17" class="fil0" d="M6.044 1.049l0 0.263 -0.063 0 0 -0.101 -0.048 0 -0.059 0.101 -0.067 0 0.066 -0.109c-0.038,-0.011 -0.057,-0.036 -0.057,-0.074 0,-0.053 0.025,-0.08 0.074,-0.08l0.154 0zm-0.063 0.117l0 -0.071 -0.066 0c-0.013,0 -0.022,0.002 -0.028,0.008 -0.005,0.005 -0.008,0.014 -0.008,0.028 0,0.014 0.003,0.023 0.01,0.028 0.007,0.005 0.017,0.008 0.031,0.008l0.061 0z"/>
  <path id="18" class="fil0" d="M6.169 1.244l0 0.066c0,0.017 -0.002,0.03 -0.005,0.039 -0.003,0.009 -0.009,0.016 -0.018,0.02 -0.009,0.004 -0.022,0.006 -0.039,0.006 -0.003,0 -0.005,-0 -0.006,-0l0 -0.03c0.011,-0 0.018,-0.002 0.023,-0.005 0.005,-0.003 0.007,-0.01 0.007,-0.02l0 -0.008 -0.025 0 0 -0.067 0.063 0z"/>
  <path id="19" class="fil0" d="M6.371 1.264c0.008,-0.01 0.014,-0.02 0.018,-0.03 0.004,-0.01 0.008,-0.021 0.01,-0.035 0.002,-0.014 0.003,-0.031 0.003,-0.052l0 -0.1 0.205 0 0 0.216 0.034 0 0 0.118 -0.058 0 0 -0.071 -0.183 0 0 0.071 -0.058 0 0 -0.118 0.028 0zm0.174 0l0 -0.17 -0.083 0 0 0.057c0,0.051 -0.01,0.089 -0.029,0.113l0.111 0z"/>
  <polygon id="20" class="fil0" points="6.739,1.243 6.739,1.311 6.677,1.311 6.677,1.243 "/>
  <polygon id="21" class="fil0" points="7.148,0.937 7.148,1.311 7.079,1.311 7.079,0.996 6.982,1.093 6.941,1.049 7.061,0.937 "/>
  <path class="fil0" d="M0.841 1.909c-0.023,0 -0.04,0.001 -0.05,0.004 -0.01,0.003 -0.017,0.008 -0.021,0.015 -0.004,0.008 -0.006,0.019 -0.006,0.036 0,0.015 0.002,0.027 0.006,0.036 0.004,0.008 0.012,0.014 0.023,0.018 0.011,0.004 0.027,0.005 0.048,0.005 0.021,0 0.037,-0.002 0.049,-0.005 0.011,-0.004 0.019,-0.009 0.023,-0.017 0.004,-0.008 0.006,-0.02 0.006,-0.035 0,-0.016 -0.002,-0.028 -0.006,-0.036 -0.004,-0.008 -0.011,-0.013 -0.022,-0.016 -0.011,-0.003 -0.027,-0.004 -0.05,-0.004zm0 -0.158c-0.02,0 -0.036,0.002 -0.046,0.004 -0.01,0.003 -0.017,0.008 -0.021,0.015 -0.004,0.008 -0.006,0.019 -0.006,0.033 0,0.012 0.001,0.021 0.003,0.027 0.002,0.007 0.006,0.012 0.011,0.015 0.005,0.003 0.012,0.006 0.021,0.007 0.009,0.001 0.021,0.002 0.037,0.002 0.016,0 0.029,-0.001 0.038,-0.002 0.009,-0.001 0.016,-0.004 0.021,-0.007 0.005,-0.003 0.009,-0.008 0.011,-0.015 0.002,-0.007 0.003,-0.016 0.003,-0.027 0,-0.015 -0.002,-0.026 -0.006,-0.034 -0.004,-0.007 -0.011,-0.012 -0.021,-0.015 -0.01,-0.003 -0.025,-0.004 -0.045,-0.004zm-0.08 0.13c-0.016,-0.005 -0.028,-0.011 -0.037,-0.019 -0.009,-0.008 -0.015,-0.017 -0.019,-0.027 -0.003,-0.011 -0.005,-0.023 -0.005,-0.039 0,-0.019 0.002,-0.035 0.008,-0.048 0.005,-0.013 0.013,-0.023 0.024,-0.031 0.011,-0.008 0.025,-0.013 0.043,-0.016 0.018,-0.003 0.04,-0.005 0.066,-0.005 0.035,0 0.063,0.003 0.083,0.009 0.02,0.006 0.035,0.016 0.044,0.031 0.009,0.015 0.014,0.035 0.014,0.061 0,0.016 -0.001,0.029 -0.004,0.039 -0.003,0.01 -0.009,0.019 -0.017,0.027 -0.008,0.008 -0.021,0.014 -0.037,0.019 0.017,0.004 0.03,0.01 0.039,0.017 0.009,0.007 0.016,0.016 0.02,0.027 0.004,0.011 0.006,0.025 0.006,0.042 0,0.021 -0.002,0.038 -0.007,0.052 -0.005,0.014 -0.013,0.025 -0.023,0.034 -0.011,0.009 -0.026,0.015 -0.045,0.019 -0.019,0.004 -0.043,0.006 -0.071,0.006 -0.028,0 -0.052,-0.002 -0.071,-0.006 -0.019,-0.004 -0.034,-0.01 -0.045,-0.019 -0.011,-0.009 -0.019,-0.02 -0.023,-0.034 -0.005,-0.014 -0.007,-0.031 -0.007,-0.052 0,-0.017 0.002,-0.03 0.006,-0.042 0.004,-0.011 0.011,-0.02 0.02,-0.028 0.009,-0.007 0.022,-0.013 0.039,-0.017z"/>
  <path id="1" class="fil0" d="M1.302 1.694l0 0.059c-0.019,0 -0.032,0.004 -0.039,0.012 -0.007,0.008 -0.01,0.024 -0.01,0.047l0 0.199c0,0.025 0.003,0.041 0.009,0.05 0.006,0.009 0.016,0.013 0.03,0.013l0.01 0 0 0.059c-0.027,0 -0.049,-0.003 -0.065,-0.009 -0.016,-0.006 -0.028,-0.015 -0.035,-0.027 -0.008,-0.012 -0.013,-0.027 -0.015,-0.045 -0.002,-0.018 -0.004,-0.042 -0.004,-0.072l0 -0.134c0,-0.029 0.001,-0.052 0.003,-0.069 0.002,-0.017 0.007,-0.032 0.015,-0.045 0.008,-0.012 0.02,-0.021 0.036,-0.028 0.016,-0.006 0.038,-0.009 0.064,-0.009z"/>
  <path id="2" class="fil0" d="M1.472 1.909l0 -0.054 0.04 0c0.018,0 0.031,-0.001 0.038,-0.003 0.008,-0.002 0.013,-0.007 0.016,-0.014 0.003,-0.007 0.005,-0.02 0.005,-0.037 0,-0.014 -0.002,-0.024 -0.006,-0.031 -0.004,-0.007 -0.011,-0.012 -0.022,-0.014 -0.01,-0.003 -0.025,-0.004 -0.045,-0.004 -0.022,0 -0.038,0.002 -0.048,0.005 -0.01,0.003 -0.016,0.01 -0.02,0.019 -0.003,0.009 -0.005,0.024 -0.005,0.044l-0.067 0c0,-0.031 0.004,-0.056 0.013,-0.074 0.009,-0.018 0.023,-0.031 0.043,-0.039 0.02,-0.008 0.046,-0.012 0.079,-0.012 0.036,0 0.065,0.003 0.086,0.01 0.021,0.006 0.036,0.017 0.045,0.031 0.009,0.014 0.014,0.034 0.014,0.058 0,0.017 -0.001,0.032 -0.004,0.043 -0.003,0.012 -0.009,0.021 -0.017,0.029 -0.009,0.008 -0.021,0.013 -0.038,0.015l0 0.003c0.017,0.002 0.03,0.006 0.04,0.013 0.01,0.006 0.016,0.015 0.02,0.026 0.004,0.011 0.006,0.025 0.006,0.043 0,0.019 -0.002,0.036 -0.006,0.05 -0.004,0.014 -0.011,0.025 -0.022,0.035 -0.01,0.009 -0.025,0.017 -0.044,0.021 -0.019,0.005 -0.043,0.007 -0.073,0.007 -0.036,0 -0.065,-0.004 -0.087,-0.011 -0.021,-0.007 -0.037,-0.019 -0.046,-0.035 -0.009,-0.016 -0.014,-0.037 -0.014,-0.064l0 -0.021 0.067 0c0,0.022 0.002,0.038 0.005,0.048 0.003,0.01 0.011,0.017 0.022,0.02 0.011,0.004 0.029,0.006 0.054,0.006 0.021,0 0.037,-0.002 0.048,-0.006 0.011,-0.004 0.018,-0.01 0.023,-0.019 0.004,-0.009 0.006,-0.021 0.006,-0.036 0,-0.015 -0.002,-0.026 -0.006,-0.034 -0.004,-0.007 -0.01,-0.012 -0.019,-0.015 -0.008,-0.002 -0.02,-0.004 -0.036,-0.004l-0.044 0z"/>
  <path id="3" class="fil0" d="M1.966 1.699l0 0.241 0.044 0 0 0.054 -0.044 0 0 0.081 -0.069 0 0 -0.081 -0.203 0 0 -0.078 0.167 -0.217 0.106 0zm-0.216 0.241l0.147 0 0 -0.189 -0.147 0.189z"/>
  <polygon id="4" class="fil0" points="2.278,1.7 2.278,2.074 2.209,2.074 2.209,1.759 2.112,1.856 2.071,1.812 2.191,1.7 "/>
  <path id="5" class="fil0" d="M2.671 1.699l0 0.241 0.044 0 0 0.054 -0.044 0 0 0.081 -0.069 0 0 -0.081 -0.203 0 0 -0.078 0.167 -0.217 0.106 0zm-0.216 0.241l0.147 0 0 -0.189 -0.147 0.189z"/>
  <polygon id="6" class="fil0" points="2.983,1.7 2.983,2.074 2.914,2.074 2.914,1.759 2.817,1.856 2.775,1.812 2.896,1.7 "/>
  <path id="7" class="fil0" d="M3.117 1.694l0 0.058c0.019,0 0.032,0.004 0.039,0.013 0.007,0.009 0.01,0.025 0.01,0.048l0 0.194c0,0.025 -0.003,0.042 -0.009,0.052 -0.006,0.009 -0.016,0.014 -0.03,0.014l-0.01 0 0 0.059c0.027,0 0.049,-0.003 0.065,-0.009 0.016,-0.006 0.028,-0.015 0.036,-0.027 0.008,-0.012 0.013,-0.027 0.015,-0.045 0.002,-0.018 0.004,-0.042 0.004,-0.072l0 -0.134c0,-0.028 -0.001,-0.051 -0.004,-0.069 -0.002,-0.018 -0.008,-0.033 -0.015,-0.045 -0.008,-0.012 -0.02,-0.021 -0.036,-0.028 -0.016,-0.006 -0.038,-0.009 -0.065,-0.009z"/>
  <path id="8" class="fil0" d="M3.425 1.969l0.068 0c0,0.014 0.001,0.024 0.005,0.031 0.003,0.007 0.008,0.013 0.016,0.016 0.007,0.003 0.018,0.005 0.031,0.005l0.032 0c0.016,0 0.028,-0.001 0.037,-0.005 0.009,-0.003 0.015,-0.008 0.019,-0.016 0.004,-0.008 0.006,-0.019 0.006,-0.033l0 -0.076c-0.008,0.016 -0.019,0.026 -0.032,0.03 -0.013,0.004 -0.031,0.006 -0.054,0.006 -0.032,0 -0.058,-0.003 -0.077,-0.009 -0.019,-0.006 -0.033,-0.017 -0.042,-0.033 -0.009,-0.016 -0.014,-0.038 -0.014,-0.067 0,-0.022 0.002,-0.041 0.006,-0.056 0.004,-0.015 0.011,-0.028 0.022,-0.038 0.011,-0.01 0.025,-0.018 0.044,-0.023 0.019,-0.005 0.043,-0.008 0.072,-0.008 0.033,0 0.06,0.003 0.081,0.01 0.021,0.006 0.036,0.019 0.047,0.037 0.011,0.018 0.017,0.044 0.017,0.078l0 0.132c0,0.026 -0.003,0.048 -0.009,0.064 -0.006,0.017 -0.015,0.029 -0.026,0.038 -0.012,0.009 -0.026,0.015 -0.044,0.018 -0.018,0.003 -0.039,0.005 -0.066,0.005 -0.024,0 -0.044,-0.001 -0.06,-0.003 -0.016,-0.002 -0.03,-0.007 -0.042,-0.014 -0.012,-0.007 -0.021,-0.018 -0.028,-0.033 -0.006,-0.015 -0.01,-0.034 -0.01,-0.058zm0.215 -0.157c0,-0.016 -0.002,-0.028 -0.006,-0.037 -0.004,-0.009 -0.011,-0.015 -0.022,-0.018 -0.011,-0.004 -0.027,-0.005 -0.048,-0.005 -0.02,0 -0.035,0.002 -0.046,0.005 -0.01,0.004 -0.018,0.01 -0.022,0.018 -0.004,0.009 -0.006,0.021 -0.006,0.037 0,0.014 0.001,0.025 0.002,0.032 0.002,0.007 0.005,0.013 0.01,0.017 0.005,0.004 0.012,0.007 0.022,0.008 0.01,0.001 0.023,0.002 0.041,0.002 0.023,0 0.04,-0.001 0.05,-0.004 0.01,-0.003 0.017,-0.008 0.02,-0.016 0.003,-0.008 0.005,-0.021 0.005,-0.039z"/>
  <path id="9" class="fil0" d="M4.053 1.909c-0.023,0 -0.04,0.001 -0.05,0.004 -0.01,0.003 -0.017,0.008 -0.021,0.015 -0.004,0.008 -0.006,0.019 -0.006,0.036 0,0.015 0.002,0.027 0.006,0.036 0.004,0.008 0.012,0.014 0.023,0.018 0.011,0.004 0.027,0.005 0.048,0.005 0.021,0 0.037,-0.002 0.049,-0.005 0.011,-0.004 0.019,-0.009 0.023,-0.017 0.004,-0.008 0.006,-0.02 0.006,-0.035 0,-0.016 -0.002,-0.028 -0.006,-0.036 -0.004,-0.008 -0.011,-0.013 -0.022,-0.016 -0.011,-0.003 -0.027,-0.004 -0.05,-0.004zm0 -0.158c-0.02,0 -0.036,0.002 -0.046,0.004 -0.01,0.003 -0.017,0.008 -0.021,0.015 -0.004,0.008 -0.006,0.019 -0.006,0.033 0,0.012 0.001,0.021 0.003,0.027 0.002,0.007 0.006,0.012 0.011,0.015 0.005,0.003 0.012,0.006 0.021,0.007 0.009,0.001 0.021,0.002 0.037,0.002 0.016,0 0.029,-0.001 0.038,-0.002 0.009,-0.001 0.016,-0.004 0.021,-0.007 0.005,-0.003 0.009,-0.008 0.011,-0.015 0.002,-0.007 0.003,-0.016 0.003,-0.027 0,-0.015 -0.002,-0.026 -0.006,-0.034 -0.004,-0.007 -0.011,-0.012 -0.021,-0.015 -0.01,-0.003 -0.025,-0.004 -0.045,-0.004zm-0.08 0.13c-0.016,-0.005 -0.028,-0.011 -0.037,-0.019 -0.009,-0.008 -0.015,-0.017 -0.019,-0.027 -0.003,-0.011 -0.005,-0.023 -0.005,-0.039 0,-0.019 0.002,-0.035 0.008,-0.048 0.005,-0.013 0.013,-0.023 0.024,-0.031 0.011,-0.008 0.025,-0.013 0.043,-0.016 0.018,-0.003 0.04,-0.005 0.066,-0.005 0.035,0 0.063,0.003 0.083,0.009 0.02,0.006 0.035,0.016 0.044,0.031 0.009,0.015 0.014,0.035 0.014,0.061 0,0.016 -0.001,0.029 -0.004,0.039 -0.003,0.01 -0.009,0.019 -0.017,0.027 -0.008,0.008 -0.021,0.014 -0.037,0.019 0.017,0.004 0.03,0.01 0.039,0.017 0.009,0.007 0.016,0.016 0.02,0.027 0.004,0.011 0.006,0.025 0.006,0.042 0,0.021 -0.002,0.038 -0.007,0.052 -0.005,0.014 -0.013,0.025 -0.023,0.034 -0.011,0.009 -0.026,0.015 -0.045,0.019 -0.019,0.004 -0.043,0.006 -0.071,0.006 -0.028,0 -0.052,-0.002 -0.071,-0.006 -0.019,-0.004 -0.034,-0.01 -0.045,-0.019 -0.011,-0.009 -0.019,-0.02 -0.023,-0.034 -0.005,-0.014 -0.007,-0.031 -0.007,-0.052 0,-0.017 0.002,-0.03 0.006,-0.042 0.004,-0.011 0.011,-0.02 0.02,-0.028 0.009,-0.007 0.022,-0.013 0.039,-0.017z"/>
  <path id="10" class="fil0" d="M4.377 1.909l0 -0.054 0.04 0c0.018,0 0.031,-0.001 0.038,-0.003 0.008,-0.002 0.013,-0.007 0.016,-0.014 0.003,-0.007 0.005,-0.02 0.005,-0.037 0,-0.014 -0.002,-0.024 -0.006,-0.031 -0.004,-0.007 -0.011,-0.012 -0.022,-0.014 -0.01,-0.003 -0.025,-0.004 -0.045,-0.004 -0.022,0 -0.038,0.002 -0.048,0.005 -0.01,0.003 -0.016,0.01 -0.02,0.019 -0.003,0.009 -0.005,0.024 -0.005,0.044l-0.067 0c0,-0.031 0.004,-0.056 0.013,-0.074 0.009,-0.018 0.023,-0.031 0.043,-0.039 0.02,-0.008 0.046,-0.012 0.079,-0.012 0.036,0 0.065,0.003 0.086,0.01 0.021,0.006 0.036,0.017 0.045,0.031 0.009,0.014 0.014,0.034 0.014,0.058 0,0.017 -0.001,0.032 -0.004,0.043 -0.003,0.012 -0.009,0.021 -0.017,0.029 -0.009,0.008 -0.021,0.013 -0.038,0.015l0 0.003c0.017,0.002 0.03,0.006 0.04,0.013 0.01,0.006 0.016,0.015 0.02,0.026 0.004,0.011 0.006,0.025 0.006,0.043 0,0.019 -0.002,0.036 -0.006,0.05 -0.004,0.014 -0.011,0.025 -0.022,0.035 -0.01,0.009 -0.025,0.017 -0.044,0.021 -0.019,0.005 -0.043,0.007 -0.073,0.007 -0.036,0 -0.065,-0.004 -0.087,-0.011 -0.021,-0.007 -0.037,-0.019 -0.046,-0.035 -0.009,-0.016 -0.014,-0.037 -0.014,-0.064l0 -0.021 0.067 0c0,0.022 0.002,0.038 0.005,0.048 0.003,0.01 0.011,0.017 0.022,0.02 0.011,0.004 0.029,0.006 0.054,0.006 0.021,0 0.037,-0.002 0.048,-0.006 0.011,-0.004 0.018,-0.01 0.023,-0.019 0.004,-0.009 0.006,-0.021 0.006,-0.036 0,-0.015 -0.002,-0.026 -0.006,-0.034 -0.004,-0.007 -0.01,-0.012 -0.019,-0.015 -0.008,-0.002 -0.02,-0.004 -0.036,-0.004l-0.044 0z"/>
  <polygon id="11" class="fil0" points="5.022,1.699 5.022,1.768 4.869,2.074 4.792,2.074 4.954,1.759 4.744,1.759 4.744,1.699 "/>
  <path id="12" class="fil0" d="M5.215 1.909l0 -0.054 0.04 0c0.018,0 0.031,-0.001 0.038,-0.003 0.008,-0.002 0.013,-0.007 0.016,-0.014 0.003,-0.007 0.005,-0.02 0.005,-0.037 0,-0.014 -0.002,-0.024 -0.006,-0.031 -0.004,-0.007 -0.011,-0.012 -0.022,-0.014 -0.01,-0.003 -0.025,-0.004 -0.045,-0.004 -0.022,0 -0.038,0.002 -0.048,0.005 -0.01,0.003 -0.016,0.01 -0.02,0.019 -0.003,0.009 -0.005,0.024 -0.005,0.044l-0.067 0c0,-0.031 0.004,-0.056 0.013,-0.074 0.009,-0.018 0.023,-0.031 0.043,-0.039 0.02,-0.008 0.046,-0.012 0.079,-0.012 0.036,0 0.065,0.003 0.086,0.01 0.021,0.006 0.036,0.017 0.045,0.031 0.009,0.014 0.014,0.034 0.014,0.058 0,0.017 -0.001,0.032 -0.004,0.043 -0.003,0.012 -0.009,0.021 -0.017,0.029 -0.009,0.008 -0.021,0.013 -0.038,0.015l0 0.003c0.017,0.002 0.03,0.006 0.04,0.013 0.01,0.006 0.016,0.015 0.02,0.026 0.004,0.011 0.006,0.025 0.006,0.043 0,0.019 -0.002,0.036 -0.006,0.05 -0.004,0.014 -0.011,0.025 -0.022,0.035 -0.01,0.009 -0.025,0.017 -0.044,0.021 -0.019,0.005 -0.043,0.007 -0.073,0.007 -0.036,0 -0.065,-0.004 -0.087,-0.011 -0.021,-0.007 -0.037,-0.019 -0.046,-0.035 -0.009,-0.016 -0.014,-0.037 -0.014,-0.064l0 -0.021 0.067 0c0,0.022 0.002,0.038 0.005,0.048 0.003,0.01 0.011,0.017 0.022,0.02 0.011,0.004 0.029,0.006 0.054,0.006 0.021,0 0.037,-0.002 0.048,-0.006 0.011,-0.004 0.018,-0.01 0.023,-0.019 0.004,-0.009 0.006,-0.021 0.006,-0.036 0,-0.015 -0.002,-0.026 -0.006,-0.034 -0.004,-0.007 -0.01,-0.012 -0.019,-0.015 -0.008,-0.002 -0.02,-0.004 -0.036,-0.004l-0.044 0z"/>
  <path class="fil0" d="M0.696 2.779l0 -0.375 0.16 0c0.033,0 0.059,0.003 0.079,0.01 0.02,0.007 0.035,0.019 0.046,0.037 0.01,0.018 0.015,0.043 0.015,0.077 0,0.026 -0.002,0.047 -0.007,0.063 -0.005,0.017 -0.012,0.03 -0.023,0.039 -0.01,0.01 -0.024,0.016 -0.041,0.02 -0.017,0.004 -0.038,0.006 -0.063,0.006l-0.094 0 0 0.123 -0.072 0zm0.072 -0.183l0.089 0c0.017,0 0.03,-0.002 0.039,-0.005 0.009,-0.004 0.016,-0.01 0.02,-0.019 0.004,-0.009 0.006,-0.022 0.006,-0.038 0,-0.018 -0.002,-0.032 -0.006,-0.042 -0.004,-0.01 -0.011,-0.017 -0.02,-0.021 -0.01,-0.004 -0.023,-0.006 -0.039,-0.006l-0.089 0 0 0.131z"/>
  <path id="1" class="fil0" d="M1.216 2.779l0.005 -0.036 -0.001 0c-0.005,0.012 -0.012,0.02 -0.02,0.026 -0.008,0.006 -0.017,0.01 -0.027,0.012 -0.01,0.002 -0.024,0.003 -0.04,0.003 -0.022,0 -0.04,-0.003 -0.054,-0.008 -0.014,-0.005 -0.024,-0.014 -0.031,-0.026 -0.007,-0.012 -0.01,-0.028 -0.01,-0.048 0,-0.017 0.002,-0.03 0.005,-0.041 0.004,-0.011 0.009,-0.019 0.017,-0.026 0.008,-0.006 0.018,-0.011 0.031,-0.013 0.013,-0.003 0.029,-0.004 0.049,-0.004 0.023,0 0.04,0.003 0.05,0.008 0.01,0.005 0.018,0.014 0.024,0.026l0.003 0 0 -0.045c0,-0.014 -0.002,-0.025 -0.005,-0.033 -0.004,-0.008 -0.009,-0.013 -0.017,-0.016 -0.008,-0.003 -0.02,-0.004 -0.034,-0.004 -0.019,0 -0.032,0.003 -0.039,0.008 -0.007,0.005 -0.011,0.016 -0.011,0.031l-0.063 0c0,-0.016 0.004,-0.029 0.009,-0.04 0.006,-0.011 0.013,-0.019 0.023,-0.025 0.01,-0.006 0.021,-0.01 0.034,-0.012 0.013,-0.002 0.027,-0.003 0.045,-0.003 0.028,0 0.05,0.002 0.067,0.006 0.017,0.004 0.031,0.013 0.04,0.027 0.01,0.014 0.015,0.034 0.015,0.061l0 0.173 -0.063 0zm0 -0.079c0,-0.015 -0.004,-0.026 -0.013,-0.031 -0.009,-0.006 -0.025,-0.008 -0.049,-0.008 -0.014,0 -0.025,0.001 -0.033,0.004 -0.008,0.002 -0.013,0.006 -0.017,0.012 -0.003,0.006 -0.005,0.014 -0.005,0.024 0,0.015 0.004,0.025 0.012,0.031 0.008,0.006 0.022,0.009 0.041,0.009 0.023,0 0.039,-0.003 0.048,-0.008 0.01,-0.006 0.014,-0.016 0.014,-0.031z"/>
  <path id="2" class="fil0" d="M1.443 2.666l-0.026 0 0 -0.042 0.026 0c0.022,0 0.036,-0.003 0.044,-0.009 0.008,-0.006 0.012,-0.015 0.012,-0.027 0,-0.008 -0.002,-0.014 -0.005,-0.018 -0.003,-0.005 -0.009,-0.008 -0.016,-0.01 -0.007,-0.002 -0.018,-0.003 -0.031,-0.003 -0.013,0 -0.023,0.001 -0.029,0.002 -0.007,0.001 -0.012,0.004 -0.016,0.009 -0.004,0.005 -0.006,0.012 -0.006,0.022l-0.062 0c0.002,-0.02 0.007,-0.036 0.015,-0.047 0.008,-0.011 0.02,-0.02 0.036,-0.025 0.016,-0.005 0.038,-0.007 0.065,-0.007 0.024,0 0.044,0.002 0.06,0.007 0.016,0.004 0.029,0.012 0.038,0.022 0.009,0.01 0.013,0.024 0.013,0.041 0,0.016 -0.004,0.029 -0.011,0.039 -0.007,0.009 -0.019,0.016 -0.037,0.02 0.018,0.004 0.031,0.012 0.039,0.023 0.008,0.011 0.012,0.024 0.012,0.04 0,0.016 -0.002,0.029 -0.008,0.04 -0.005,0.011 -0.012,0.019 -0.022,0.025 -0.01,0.006 -0.022,0.01 -0.036,0.013 -0.014,0.002 -0.031,0.004 -0.051,0.004 -0.03,0 -0.053,-0.003 -0.071,-0.007 -0.017,-0.005 -0.03,-0.013 -0.038,-0.023 -0.008,-0.011 -0.011,-0.025 -0.011,-0.042l0 -0.015 0.062 0c0,0.012 0.002,0.021 0.005,0.026 0.003,0.006 0.009,0.01 0.017,0.012 0.008,0.002 0.02,0.003 0.036,0.003 0.021,0 0.036,-0.002 0.044,-0.007 0.008,-0.005 0.012,-0.014 0.012,-0.029 0,-0.014 -0.004,-0.023 -0.013,-0.029 -0.008,-0.005 -0.024,-0.008 -0.047,-0.008z"/>
  <polygon id="3" class="fil0" points="1.676,2.665 1.787,2.665 1.787,2.779 1.849,2.779 1.849,2.517 1.787,2.517 1.787,2.616 1.676,2.616 1.676,2.517 1.613,2.517 1.613,2.779 1.676,2.779 "/>
  <path id="4" class="fil0" d="M1.906 2.648c0,-0.035 0.004,-0.061 0.011,-0.081 0.007,-0.019 0.02,-0.033 0.038,-0.041 0.018,-0.008 0.043,-0.013 0.075,-0.013 0.032,0 0.057,0.004 0.075,0.013 0.018,0.008 0.031,0.022 0.038,0.041 0.008,0.019 0.011,0.046 0.011,0.081 0,0.025 -0.002,0.047 -0.006,0.064 -0.004,0.017 -0.011,0.031 -0.02,0.042 -0.009,0.01 -0.022,0.018 -0.038,0.023 -0.016,0.005 -0.036,0.007 -0.06,0.007 -0.024,0 -0.044,-0.002 -0.06,-0.007 -0.016,-0.005 -0.029,-0.013 -0.038,-0.023 -0.009,-0.011 -0.016,-0.024 -0.02,-0.041 -0.004,-0.017 -0.006,-0.038 -0.006,-0.064zm0.064 0c0,0.024 0.002,0.043 0.005,0.055 0.004,0.012 0.01,0.021 0.018,0.025 0.008,0.005 0.02,0.007 0.036,0.007 0.016,0 0.028,-0.002 0.036,-0.007 0.009,-0.005 0.015,-0.013 0.018,-0.026 0.004,-0.012 0.006,-0.031 0.006,-0.055 0,-0.018 -0.001,-0.033 -0.003,-0.044 -0.002,-0.011 -0.005,-0.02 -0.01,-0.026 -0.005,-0.006 -0.01,-0.01 -0.018,-0.013 -0.007,-0.002 -0.017,-0.004 -0.029,-0.004 -0.016,0 -0.028,0.002 -0.036,0.007 -0.008,0.004 -0.014,0.013 -0.018,0.025 -0.004,0.012 -0.005,0.03 -0.005,0.054z"/>
  <path id="5" class="fil0" d="M2.269 2.641c0,0.026 0.001,0.045 0.004,0.058 0.003,0.012 0.008,0.021 0.017,0.027 0.008,0.005 0.022,0.008 0.04,0.008 0.018,0 0.031,-0.003 0.039,-0.01 0.008,-0.007 0.013,-0.016 0.016,-0.028 0.002,-0.012 0.003,-0.03 0.003,-0.054 0,-0.024 -0.002,-0.042 -0.005,-0.053 -0.003,-0.011 -0.009,-0.019 -0.017,-0.022 -0.008,-0.004 -0.02,-0.006 -0.036,-0.006 -0.016,0 -0.029,0.002 -0.038,0.006 -0.009,0.004 -0.015,0.012 -0.018,0.023 -0.004,0.011 -0.005,0.028 -0.005,0.05zm0 0.102l0 0.147 -0.063 0 0 -0.373 0.06 0 -0.003 0.037 0.002 0c0.01,-0.015 0.022,-0.026 0.034,-0.032 0.012,-0.006 0.028,-0.009 0.047,-0.009 0.028,0 0.05,0.005 0.065,0.015 0.015,0.01 0.025,0.025 0.031,0.044 0.005,0.019 0.008,0.044 0.008,0.074 0,0.022 -0.001,0.04 -0.003,0.056 -0.002,0.016 -0.006,0.03 -0.013,0.042 -0.007,0.012 -0.017,0.022 -0.03,0.029 -0.014,0.007 -0.032,0.01 -0.054,0.01 -0.021,0 -0.037,-0.003 -0.05,-0.008 -0.013,-0.005 -0.023,-0.016 -0.032,-0.032z"/>
  <path id="6" class="fil0" d="M2.676 2.779l0.005 -0.036 -0.001 0c-0.005,0.012 -0.012,0.02 -0.02,0.026 -0.008,0.006 -0.017,0.01 -0.027,0.012 -0.01,0.002 -0.024,0.003 -0.04,0.003 -0.022,0 -0.04,-0.003 -0.054,-0.008 -0.014,-0.005 -0.024,-0.014 -0.031,-0.026 -0.007,-0.012 -0.01,-0.028 -0.01,-0.048 0,-0.017 0.002,-0.03 0.005,-0.041 0.004,-0.011 0.009,-0.019 0.017,-0.026 0.008,-0.006 0.018,-0.011 0.031,-0.013 0.013,-0.003 0.029,-0.004 0.049,-0.004 0.023,0 0.04,0.003 0.05,0.008 0.01,0.005 0.018,0.014 0.024,0.026l0.003 0 0 -0.045c0,-0.014 -0.002,-0.025 -0.005,-0.033 -0.004,-0.008 -0.009,-0.013 -0.017,-0.016 -0.008,-0.003 -0.02,-0.004 -0.034,-0.004 -0.019,0 -0.032,0.003 -0.039,0.008 -0.007,0.005 -0.011,0.016 -0.011,0.031l-0.063 0c0,-0.016 0.004,-0.029 0.009,-0.04 0.006,-0.011 0.013,-0.019 0.023,-0.025 0.01,-0.006 0.021,-0.01 0.034,-0.012 0.013,-0.002 0.027,-0.003 0.045,-0.003 0.028,0 0.05,0.002 0.067,0.006 0.017,0.004 0.031,0.013 0.04,0.027 0.01,0.014 0.015,0.034 0.015,0.061l0 0.173 -0.063 0zm0 -0.079c0,-0.015 -0.004,-0.026 -0.013,-0.031 -0.009,-0.006 -0.025,-0.008 -0.049,-0.008 -0.014,0 -0.025,0.001 -0.033,0.004 -0.008,0.002 -0.013,0.006 -0.017,0.012 -0.003,0.006 -0.005,0.014 -0.005,0.024 0,0.015 0.004,0.025 0.012,0.031 0.008,0.006 0.022,0.009 0.041,0.009 0.023,0 0.039,-0.003 0.048,-0.008 0.01,-0.006 0.014,-0.016 0.014,-0.031z"/>
  <path id="7" class="fil0" d="M2.85 2.56l0.001 0.001c0.005,-0.011 0.013,-0.02 0.026,-0.029 0.012,-0.009 0.027,-0.013 0.045,-0.013 0.023,0 0.041,0.003 0.056,0.008 0.015,0.005 0.027,0.013 0.036,0.023 0.009,0.01 0.016,0.024 0.02,0.04 0.004,0.016 0.006,0.035 0.006,0.058 0,0.034 -0.004,0.06 -0.011,0.079 -0.007,0.02 -0.02,0.034 -0.038,0.043 -0.018,0.009 -0.043,0.014 -0.076,0.014 -0.024,0 -0.044,-0.002 -0.06,-0.007 -0.016,-0.005 -0.028,-0.012 -0.038,-0.022 -0.009,-0.01 -0.016,-0.024 -0.02,-0.04 -0.004,-0.017 -0.006,-0.038 -0.006,-0.064l0 -0.084c0,-0.026 0.003,-0.049 0.01,-0.069 0.007,-0.02 0.019,-0.037 0.037,-0.05 0.018,-0.013 0.043,-0.02 0.075,-0.02 0.016,0 0.028,-0 0.036,-0.001 0.008,-0.001 0.014,-0.003 0.017,-0.005 0.003,-0.002 0.005,-0.006 0.005,-0.011l0.047 0c0,0.017 -0.004,0.03 -0.011,0.04 -0.008,0.009 -0.019,0.015 -0.033,0.019 -0.014,0.003 -0.033,0.005 -0.055,0.005 -0.025,0 -0.044,0.007 -0.055,0.021 -0.011,0.014 -0.017,0.031 -0.017,0.052l0 0.015 0.003 0zm0.006 0.087c0,0.02 0.001,0.035 0.004,0.047 0.002,0.012 0.006,0.02 0.011,0.026 0.005,0.006 0.011,0.01 0.018,0.012 0.007,0.002 0.016,0.003 0.027,0.003 0.015,0 0.026,-0.002 0.035,-0.006 0.008,-0.004 0.015,-0.012 0.019,-0.025 0.004,-0.013 0.007,-0.032 0.007,-0.057 0,-0.021 -0.002,-0.038 -0.006,-0.049 -0.004,-0.012 -0.01,-0.02 -0.019,-0.024 -0.009,-0.005 -0.02,-0.007 -0.035,-0.007 -0.015,0 -0.026,0.002 -0.035,0.007 -0.009,0.005 -0.015,0.013 -0.019,0.024 -0.004,0.011 -0.006,0.028 -0.006,0.049z"/>
  <path id="8" class="fil0" d="M3.085 2.648c0,-0.035 0.004,-0.061 0.011,-0.081 0.007,-0.019 0.02,-0.033 0.038,-0.041 0.018,-0.008 0.043,-0.013 0.075,-0.013 0.032,0 0.057,0.004 0.075,0.013 0.018,0.008 0.031,0.022 0.038,0.041 0.008,0.019 0.011,0.046 0.011,0.081 0,0.025 -0.002,0.047 -0.006,0.064 -0.004,0.017 -0.011,0.031 -0.02,0.042 -0.009,0.01 -0.022,0.018 -0.038,0.023 -0.016,0.005 -0.036,0.007 -0.06,0.007 -0.024,0 -0.044,-0.002 -0.06,-0.007 -0.016,-0.005 -0.029,-0.013 -0.038,-0.023 -0.009,-0.011 -0.016,-0.024 -0.02,-0.041 -0.004,-0.017 -0.006,-0.038 -0.006,-0.064zm0.064 0c0,0.024 0.002,0.043 0.005,0.055 0.004,0.012 0.01,0.021 0.018,0.025 0.008,0.005 0.02,0.007 0.036,0.007 0.016,0 0.028,-0.002 0.036,-0.007 0.009,-0.005 0.015,-0.013 0.018,-0.026 0.004,-0.012 0.006,-0.031 0.006,-0.055 0,-0.018 -0.001,-0.033 -0.003,-0.044 -0.002,-0.011 -0.005,-0.02 -0.01,-0.026 -0.005,-0.006 -0.01,-0.01 -0.018,-0.013 -0.007,-0.002 -0.017,-0.004 -0.029,-0.004 -0.016,0 -0.028,0.002 -0.036,0.007 -0.008,0.004 -0.014,0.013 -0.018,0.025 -0.004,0.012 -0.005,0.03 -0.005,0.054z"/>
  <path id="9" class="fil0" d="M3.614 2.779l0 -0.263 -0.063 0 0 0.077c0,0.015 -0.004,0.024 -0.013,0.03 -0.008,0.005 -0.023,0.008 -0.044,0.008 -0.015,0 -0.025,-0.001 -0.032,-0.003 -0.007,-0.002 -0.012,-0.006 -0.014,-0.011 -0.003,-0.005 -0.004,-0.013 -0.004,-0.023l0 -0.077 -0.063 0 0 0.08c0,0.019 0.003,0.035 0.009,0.047 0.006,0.012 0.016,0.021 0.029,0.026 0.014,0.006 0.031,0.009 0.053,0.009 0.021,0 0.038,-0.003 0.051,-0.008 0.012,-0.005 0.021,-0.015 0.027,-0.027l0 0.137 0.063 0z"/>
  <path id="10" class="fil0" d="M3.68 2.517l0 0.262 0.077 0 0.085 -0.164c0.004,-0.008 0.014,-0.027 0.029,-0.059 -0.003,0.007 -0.005,0.019 -0.008,0.036 -0.003,0.017 -0.004,0.031 -0.004,0.041l0 0.145 0.06 0 0 -0.262 -0.077 0 -0.085 0.165c-0.006,0.01 -0.015,0.03 -0.029,0.059 0.003,-0.007 0.005,-0.018 0.008,-0.033 0.003,-0.014 0.004,-0.027 0.004,-0.039l0 -0.153 -0.06 0z"/>
  <path id="11" class="fil0" d="M3.981 2.516l0 0.263 0.077 0 0.085 -0.164c0.007,-0.012 0.016,-0.031 0.029,-0.058 -0.003,0.007 -0.005,0.019 -0.008,0.036 -0.003,0.017 -0.004,0.031 -0.004,0.041l0 0.145 0.06 0 0 -0.263 -0.077 0 -0.085 0.166c-0.004,0.008 -0.014,0.027 -0.029,0.058 0.003,-0.007 0.006,-0.018 0.008,-0.032 0.003,-0.014 0.004,-0.027 0.004,-0.039l0 -0.153 -0.06 0zm0.117 -0.019c-0.02,0 -0.036,-0.004 -0.047,-0.012 -0.011,-0.008 -0.017,-0.022 -0.017,-0.042l0.035 0c0,0.009 0.002,0.015 0.006,0.018 0.004,0.003 0.012,0.005 0.023,0.005 0.012,0 0.021,-0.002 0.025,-0.005 0.004,-0.003 0.006,-0.009 0.006,-0.018l0.034 0c0,0.02 -0.006,0.034 -0.017,0.042 -0.011,0.008 -0.027,0.012 -0.048,0.012z"/>
  <path id="12" class="fil0" d="M4.533 2.399l0 0.059c-0.019,0 -0.032,0.004 -0.039,0.012 -0.007,0.008 -0.01,0.024 -0.01,0.047l0 0.199c0,0.025 0.003,0.041 0.009,0.05 0.006,0.009 0.016,0.013 0.03,0.013l0.01 0 0 0.059c-0.027,0 -0.049,-0.003 -0.065,-0.009 -0.016,-0.006 -0.028,-0.015 -0.035,-0.027 -0.008,-0.012 -0.013,-0.027 -0.015,-0.045 -0.002,-0.018 -0.004,-0.042 -0.004,-0.072l0 -0.134c0,-0.029 0.001,-0.052 0.003,-0.069 0.002,-0.017 0.007,-0.032 0.015,-0.045 0.008,-0.012 0.02,-0.021 0.036,-0.028 0.016,-0.006 0.038,-0.009 0.064,-0.009z"/>
  <path id="13" class="fil0" d="M4.591 2.517l0 0.262 0.077 0 0.085 -0.164c0.004,-0.008 0.014,-0.027 0.029,-0.059 -0.003,0.007 -0.005,0.019 -0.008,0.036 -0.003,0.017 -0.004,0.031 -0.004,0.041l0 0.145 0.06 0 0 -0.262 -0.077 0 -0.085 0.165c-0.006,0.01 -0.015,0.03 -0.029,0.059 0.003,-0.007 0.005,-0.018 0.008,-0.033 0.003,-0.014 0.004,-0.027 0.004,-0.039l0 -0.153 -0.06 0z"/>
  <polygon id="14" class="fil0" points="4.955,2.665 5.066,2.665 5.066,2.779 5.128,2.779 5.128,2.517 5.066,2.517 5.066,2.616 4.955,2.616 4.955,2.517 4.892,2.517 4.892,2.779 4.955,2.779 "/>
  <path id="15" class="fil0" d="M5.257 2.562l0 0.062 0.059 0c0.016,0 0.027,-0.002 0.034,-0.007 0.007,-0.005 0.01,-0.012 0.01,-0.023 0,-0.011 -0.003,-0.019 -0.009,-0.024 -0.006,-0.005 -0.015,-0.008 -0.029,-0.008l-0.065 0zm0 0.104l0 0.067 0.069 0c0.014,0 0.025,-0.003 0.031,-0.008 0.006,-0.005 0.01,-0.014 0.01,-0.025 0,-0.022 -0.013,-0.034 -0.038,-0.034l-0.072 0zm-0.062 0.113l0 -0.262 0.145 0c0.03,0 0.051,0.006 0.063,0.017 0.013,0.011 0.019,0.03 0.019,0.054 0,0.014 -0.004,0.025 -0.013,0.035 -0.009,0.01 -0.02,0.016 -0.035,0.02l0 0.001c0.016,0.003 0.029,0.01 0.039,0.02 0.01,0.01 0.015,0.025 0.015,0.042 0,0.017 -0.003,0.031 -0.007,0.041 -0.005,0.01 -0.013,0.018 -0.025,0.023 -0.012,0.005 -0.028,0.008 -0.049,0.008l-0.152 0z"/>
  <path id="16" class="fil0" d="M5.648 2.779l0.005 -0.036 -0.001 0c-0.005,0.012 -0.012,0.02 -0.02,0.026 -0.008,0.006 -0.017,0.01 -0.027,0.012 -0.01,0.002 -0.024,0.003 -0.04,0.003 -0.022,0 -0.04,-0.003 -0.054,-0.008 -0.014,-0.005 -0.024,-0.014 -0.031,-0.026 -0.007,-0.012 -0.01,-0.028 -0.01,-0.048 0,-0.017 0.002,-0.03 0.005,-0.041 0.004,-0.011 0.009,-0.019 0.017,-0.026 0.008,-0.006 0.018,-0.011 0.031,-0.013 0.013,-0.003 0.029,-0.004 0.049,-0.004 0.023,0 0.04,0.003 0.05,0.008 0.01,0.005 0.018,0.014 0.024,0.026l0.003 0 0 -0.045c0,-0.014 -0.002,-0.025 -0.005,-0.033 -0.004,-0.008 -0.009,-0.013 -0.017,-0.016 -0.008,-0.003 -0.02,-0.004 -0.034,-0.004 -0.019,0 -0.032,0.003 -0.039,0.008 -0.007,0.005 -0.011,0.016 -0.011,0.031l-0.063 0c0,-0.016 0.004,-0.029 0.009,-0.04 0.006,-0.011 0.013,-0.019 0.023,-0.025 0.01,-0.006 0.021,-0.01 0.034,-0.012 0.013,-0.002 0.027,-0.003 0.045,-0.003 0.028,0 0.05,0.002 0.067,0.006 0.017,0.004 0.031,0.013 0.04,0.027 0.01,0.014 0.015,0.034 0.015,0.061l0 0.173 -0.063 0zm0 -0.079c0,-0.015 -0.004,-0.026 -0.013,-0.031 -0.009,-0.006 -0.025,-0.008 -0.049,-0.008 -0.014,0 -0.025,0.001 -0.033,0.004 -0.008,0.002 -0.013,0.006 -0.017,0.012 -0.003,0.006 -0.005,0.014 -0.005,0.024 0,0.015 0.004,0.025 0.012,0.031 0.008,0.006 0.022,0.009 0.041,0.009 0.023,0 0.039,-0.003 0.048,-0.008 0.01,-0.006 0.014,-0.016 0.014,-0.031z"/>
  <path id="17" class="fil0" d="M5.798 2.517l0.219 0 0 0.262 -0.063 0 0 -0.214 -0.095 0 0 0.133c0,0.017 -0.003,0.031 -0.008,0.044 -0.005,0.013 -0.013,0.022 -0.023,0.029 -0.011,0.007 -0.024,0.011 -0.039,0.011 -0.018,0 -0.03,-0.001 -0.039,-0.003l0 -0.047c0.006,0.001 0.011,0.001 0.016,0.001 0.012,0 0.02,-0.003 0.024,-0.01 0.004,-0.006 0.007,-0.017 0.007,-0.031l0 -0.176z"/>
  <path id="18" class="fil0" d="M6.084 2.517l0 0.262 0.077 0 0.085 -0.164c0.004,-0.008 0.014,-0.027 0.029,-0.059 -0.003,0.007 -0.005,0.019 -0.008,0.036 -0.003,0.017 -0.004,0.031 -0.004,0.041l0 0.145 0.06 0 0 -0.262 -0.077 0 -0.085 0.165c-0.006,0.01 -0.015,0.03 -0.029,0.059 0.003,-0.007 0.005,-0.018 0.008,-0.033 0.003,-0.014 0.004,-0.027 0.004,-0.039l0 -0.153 -0.06 0z"/>
  <path id="19" class="fil0" d="M6.389 2.733c0.008,-0.01 0.014,-0.02 0.018,-0.03 0.004,-0.01 0.008,-0.021 0.01,-0.035 0.002,-0.014 0.003,-0.031 0.003,-0.052l0 -0.1 0.205 0 0 0.216 0.034 0 0 0.118 -0.058 0 0 -0.071 -0.183 0 0 0.071 -0.058 0 0 -0.118 0.028 0zm0.174 0l0 -0.17 -0.083 0 0 0.057c0,0.051 -0.01,0.089 -0.029,0.113l0.111 0z"/>
  <path id="20" class="fil0" d="M6.698 2.78l0 -0.262 0.063 0 0 0.1 0.089 0c0.05,0 0.075,0.027 0.075,0.081 0,0.027 -0.006,0.048 -0.02,0.061 -0.013,0.013 -0.032,0.02 -0.056,0.02l-0.151 0zm0.063 -0.117l0 0.071 0.063 0c0.013,0 0.023,-0.002 0.029,-0.007 0.006,-0.005 0.009,-0.014 0.009,-0.028 0,-0.01 -0.001,-0.017 -0.004,-0.022 -0.003,-0.005 -0.007,-0.009 -0.012,-0.011 -0.005,-0.002 -0.013,-0.003 -0.022,-0.003l-0.063 0zm0.266 -0.146l0 0.262 -0.063 0 0 -0.262 0.063 0z"/>
  <path id="21" class="fil0" d="M7.091 2.399l0 0.058c0.019,0 0.032,0.004 0.039,0.013 0.007,0.009 0.01,0.025 0.01,0.048l0 0.194c0,0.025 -0.003,0.042 -0.009,0.052 -0.006,0.009 -0.016,0.014 -0.03,0.014l-0.01 0 0 0.059c0.027,0 0.049,-0.003 0.065,-0.009 0.016,-0.006 0.028,-0.015 0.036,-0.027 0.008,-0.012 0.013,-0.027 0.015,-0.045 0.002,-0.018 0.004,-0.042 0.004,-0.072l0 -0.134c0,-0.028 -0.001,-0.051 -0.004,-0.069 -0.002,-0.018 -0.008,-0.033 -0.015,-0.045 -0.008,-0.012 -0.02,-0.021 -0.036,-0.028 -0.016,-0.006 -0.038,-0.009 -0.065,-0.009z"/>
  <g id="_2335743994656">
   <rect class="fil1" x="0" y="1.661" width="0.443" height="0.443" rx="0.089" ry="0.084"/>
   <g>
    <path class="fil2" d="M0.085 1.738c-0.001,0.003 -0.008,0.008 -0.013,0.026 -0.002,0.006 -0.003,0.018 -0.003,0.024 0,0.023 0.003,0.033 0.009,0.054 0.004,0.013 0.017,0.041 0.025,0.053 0.003,0.004 0.005,0.008 0.007,0.012 0.011,0.017 0.034,0.049 0.048,0.064l0.011 0.012c0.012,0.013 0.026,0.026 0.04,0.037l0.017 0.012c0.002,0.001 0.004,0.002 0.006,0.004 0.021,0.012 0.048,0.024 0.073,0.023 0.008,-0 0.024,-0.002 0.029,-0.008 -0.003,-0.004 -0.006,-0.007 -0.009,-0.011l-0.007 -0.009c-0.001,-0.001 -0.001,-0.001 -0.002,-0.003 -0.011,-0.014 -0.024,-0.03 -0.035,-0.044l-0.017 -0.022c-0.004,0.002 -0.004,0.003 -0.01,0.003 -0.013,0 -0.042,-0.031 -0.052,-0.042 -0.01,-0.011 -0.016,-0.019 -0.025,-0.03l-0.016 -0.023c-0.005,-0.009 -0.014,-0.023 -0.012,-0.034 0.001,-0.005 0.003,-0.006 0.006,-0.009l-0.054 -0.068c-0.003,-0.004 -0.006,-0.008 -0.009,-0.011 -0.001,-0.002 -0.003,-0.004 -0.004,-0.006 -0.001,-0.002 -0.003,-0.005 -0.005,-0.005z"/>
    <path class="fil2" d="M0.114 1.752c0.014,0.018 0.032,0.038 0.045,0.056l0.009 0.011c0.002,-0.001 0.016,-0.013 0.019,-0.015 0.007,-0.005 0.014,-0.011 0.009,-0.021 -0.001,-0.003 -0.013,-0.016 -0.016,-0.02l-0.036 -0.045c-0.011,-0.012 -0.012,-0.018 -0.03,-0.004l-0.018 0.015 0.018 0.023z"/>
    <path class="fil2" d="M0.307 1.932c-0.005,0 -0.007,0.002 -0.01,0.004 -0.004,0.003 -0.02,0.016 -0.023,0.018l0.016 0.02c0,0 0,0 0,0l0.054 0.068 0.007 -0.006c0.002,-0.002 0.004,-0.004 0.007,-0.006 0.002,-0.002 0.005,-0.004 0.007,-0.006 0.003,-0.002 0.005,-0.003 0.006,-0.006 0.004,-0.008 -0.001,-0.014 -0.005,-0.018l-0.04 -0.051c-0.001,-0.001 -0.002,-0.002 -0.003,-0.004 -0.006,-0.007 -0.009,-0.015 -0.018,-0.015z"/>
   </g>
  </g>
  <g id="_2335743985536">
   <rect class="fil1" x="0" y="0.957" width="0.443" height="0.443" rx="0.089" ry="0.084"/>
   <g>
    <path class="fil2" d="M0.16 1.115l0.057 -0.035c0.001,-0.001 0.003,-0.002 0.004,-0.002 0,0 0,0 0,0l0.057 0.034c0.001,0.001 0.003,0.002 0.004,0.002 -0,0.002 -0.007,0.012 -0.007,0.014l0 0.058 -0.107 0 0 -0.058c0,-0.001 -0.001,-0.003 -0.002,-0.004l-0.006 -0.01zm0.061 0.24c0.003,0 0.005,-0.002 0.007,-0.004l0.017 -0.021c0.001,-0.001 0.002,-0.002 0.002,-0.003 0.001,-0.001 0.002,-0.002 0.002,-0.003l0.007 -0.009c0.001,-0.001 0.002,-0.002 0.002,-0.003 0.001,-0.001 0.002,-0.002 0.002,-0.003l0.014 -0.019c0.004,-0.007 0.009,-0.013 0.013,-0.02l0.008 -0.014c0.001,-0.002 0.003,-0.004 0.004,-0.007 0.003,-0.004 0.006,-0.01 0.008,-0.014l0.004 -0.007c0.001,-0.002 0.002,-0.005 0.004,-0.007 0.001,-0.001 0.001,-0.002 0.002,-0.004 0.006,-0.011 0.01,-0.023 0.015,-0.035 0.001,-0.003 0.002,-0.006 0.003,-0.008 0.004,-0.016 0.008,-0.029 0.008,-0.047 0,-0.038 -0.017,-0.068 -0.036,-0.087l-0.01 -0.009c-0.004,-0.003 -0.007,-0.005 -0.011,-0.008 -0.003,-0.002 -0.006,-0.004 -0.01,-0.006l-0.005 -0.003c-0.031,-0.014 -0.065,-0.014 -0.097,-0.002 -0.006,0.003 -0.013,0.006 -0.019,0.01 -0.005,0.003 -0.009,0.006 -0.014,0.01l-0.007 0.007c-0.001,0.001 -0.001,0.001 -0.002,0.002l-0.007 0.008c-0.001,0.002 -0.003,0.003 -0.004,0.005 -0.006,0.009 -0.011,0.017 -0.015,0.027 -0.002,0.005 -0.003,0.009 -0.005,0.014 -0,0.001 -0.001,0.002 -0.001,0.004 -0.004,0.014 -0.004,0.028 -0.002,0.043 0.002,0.021 0.01,0.043 0.018,0.061 0.005,0.011 0.01,0.022 0.016,0.033 0.005,0.009 0.01,0.017 0.015,0.025 0.002,0.004 0.005,0.008 0.007,0.012 0.004,0.006 0.013,0.019 0.017,0.025l0.008 0.011c0.007,0.01 0.015,0.02 0.022,0.029 0.004,0.005 0.008,0.01 0.012,0.014 0.002,0.002 0.004,0.005 0.007,0.005z"/>
    <path class="fil2" d="M0.183 1.119l0 0.052 0.023 0 0 -0.038 0.031 0 0 0.038 0.023 0 0 -0.052c0,-0.001 -0.001,-0.001 -0.002,-0.002 -0.001,-0.001 -0.001,-0.001 -0.002,-0.001l-0.034 -0.02c-0.001,-0 -0.004,0.002 -0.005,0.003l-0.033 0.02c-0.001,0 -0.001,0 -0.001,0.001z"/>
   </g>
  </g>
  <g id="_2335373424368">
   <rect class="fil1" x="0" y="2.365" width="0.443" height="0.443" rx="0.089" ry="0.084"/>
   <g>
    <path class="fil2" d="M0.192 2.425c0,0.021 0.003,0.029 -0.004,0.034 -0.007,-0.005 -0.004,-0.001 -0.004,-0.026 -0.018,0.004 -0.031,0.031 -0.035,0.05 -0.002,0.009 0,0.005 -0.004,0.011 -0.003,0.004 -0.006,0.003 -0.006,0.009 0,0.03 0.105,0.029 0.14,0.02 0.011,-0.003 0.037,-0.013 0.026,-0.025 -0.016,-0.018 -0.002,-0.009 -0.014,-0.035 -0.005,-0.011 -0.016,-0.027 -0.027,-0.031 0,0.012 0,0.016 -0.002,0.026l-0.006 0c-0.003,-0.012 -0.002,-0.02 -0.002,-0.034 -0.029,-0.007 -0.043,-0.004 -0.06,0z"/>
    <path class="fil2" d="M0.147 2.546c0,0.022 0.013,0.033 0.025,0.058 0.016,0.035 0.071,0.063 0.105,-0.011 0.008,-0.018 0.019,-0.015 0.019,-0.051 0,-0.023 -0.015,-0.004 -0.06,-0.004 -0.047,0 -0.037,0.002 -0.083,-0.009 -0.003,0.005 -0.006,0.009 -0.006,0.017z"/>
    <path class="fil2" d="M0.126 2.749c0.018,0 0.033,0.004 0.053,0.004l0.088 0c0.022,0 0.036,-0.004 0.056,-0.004l0 -0.038 -0.196 0 0 0.038z"/>
    <path class="fil2" d="M0.158 2.621l0 0.068 0.13 0 0 -0.068 -0.015 -0.005c-0.018,0.028 -0.05,0.04 -0.082,0.02 -0.011,-0.007 -0.014,-0.014 -0.023,-0.02 -0.004,0.002 -0.005,0.003 -0.011,0.004z"/>
    <path class="fil2" d="M0.068 2.726c0,0.01 0.01,0.012 0.021,0.015 0.041,0.013 -0.017,-0.046 0.047,-0.052l0 -0.058c-0.035,0.003 -0.068,0.05 -0.068,0.094z"/>
    <path class="fil2" d="M0.307 2.638l0 0.051c0.04,0 0.036,0.021 0.036,0.053 0.012,-0 0.021,-0.006 0.032,-0.009l0 -0.012c-0,-0.01 -0.001,-0.016 -0.004,-0.027 -0.011,-0.036 -0.023,-0.045 -0.052,-0.06 -0.004,-0.002 -0.013,-0.008 -0.013,0.002z"/>
   </g>
  </g>
  <path class="fil0" d="M0.794 3.045l0 0.097 0.091 0c0.016,0 0.029,-0.001 0.038,-0.004 0.009,-0.003 0.015,-0.008 0.019,-0.015 0.004,-0.007 0.006,-0.019 0.006,-0.033 0,-0.017 -0.004,-0.029 -0.012,-0.036 -0.008,-0.006 -0.021,-0.01 -0.039,-0.01l-0.103 0zm0 0.151l0 0.105 0.091 0c0.025,0 0.043,-0.004 0.054,-0.012 0.011,-0.008 0.017,-0.022 0.017,-0.042 0,-0.013 -0.002,-0.024 -0.006,-0.031 -0.004,-0.007 -0.01,-0.013 -0.018,-0.016 -0.008,-0.003 -0.02,-0.005 -0.034,-0.005l-0.104 0zm-0.071 0.165l0 -0.375 0.192 0c0.023,0 0.042,0.003 0.057,0.01 0.015,0.007 0.027,0.017 0.035,0.031 0.008,0.014 0.012,0.032 0.012,0.053 0,0.048 -0.018,0.076 -0.054,0.086l0 0.002c0.02,0.003 0.035,0.012 0.046,0.027 0.011,0.015 0.016,0.034 0.016,0.058 0,0.017 -0.002,0.032 -0.006,0.045 -0.004,0.013 -0.011,0.025 -0.02,0.034 -0.009,0.009 -0.02,0.017 -0.033,0.021 -0.013,0.005 -0.029,0.007 -0.047,0.007l-0.198 0z"/>
  <path id="1" class="fil0" d="M1.248 3.277l0.062 0 0 0.01c0,0.021 -0.005,0.037 -0.015,0.049 -0.01,0.011 -0.023,0.019 -0.04,0.023 -0.017,0.004 -0.039,0.006 -0.066,0.006 -0.03,0 -0.054,-0.004 -0.071,-0.013 -0.017,-0.008 -0.03,-0.022 -0.037,-0.042 -0.007,-0.019 -0.011,-0.046 -0.011,-0.08 0,-0.034 0.004,-0.06 0.011,-0.08 0.008,-0.02 0.02,-0.034 0.038,-0.043 0.018,-0.009 0.041,-0.013 0.071,-0.013 0.03,0 0.054,0.005 0.071,0.013 0.018,0.009 0.03,0.023 0.038,0.042 0.008,0.019 0.012,0.044 0.012,0.075l0 0.018 -0.178 0c0,0.021 0.002,0.037 0.005,0.048 0.003,0.011 0.009,0.018 0.017,0.023 0.008,0.004 0.02,0.006 0.035,0.006 0.014,0 0.026,-0.001 0.034,-0.003 0.008,-0.002 0.014,-0.006 0.019,-0.011 0.004,-0.005 0.006,-0.013 0.006,-0.023l0 -0.005zm0.001 -0.076c0,-0.016 -0.002,-0.028 -0.006,-0.037 -0.004,-0.009 -0.01,-0.015 -0.018,-0.019 -0.009,-0.004 -0.02,-0.006 -0.035,-0.006 -0.015,0 -0.026,0.002 -0.034,0.006 -0.008,0.004 -0.014,0.01 -0.018,0.019 -0.004,0.009 -0.005,0.021 -0.005,0.037l0.117 0z"/>
  <polygon id="2" class="fil0" points="1.429,3.36 1.492,3.36 1.492,3.147 1.576,3.147 1.576,3.098 1.345,3.098 1.345,3.147 1.429,3.147 "/>
  <path id="3" class="fil0" d="M1.787 3.277l0.062 0 0 0.01c0,0.021 -0.005,0.037 -0.015,0.049 -0.01,0.011 -0.023,0.019 -0.04,0.023 -0.017,0.004 -0.039,0.006 -0.066,0.006 -0.03,0 -0.054,-0.004 -0.071,-0.013 -0.017,-0.008 -0.03,-0.022 -0.037,-0.042 -0.007,-0.019 -0.011,-0.046 -0.011,-0.08 0,-0.034 0.004,-0.06 0.011,-0.08 0.008,-0.02 0.02,-0.034 0.038,-0.043 0.018,-0.009 0.041,-0.013 0.071,-0.013 0.03,0 0.054,0.005 0.071,0.013 0.018,0.009 0.03,0.023 0.038,0.042 0.008,0.019 0.012,0.044 0.012,0.075l0 0.018 -0.178 0c0,0.021 0.002,0.037 0.005,0.048 0.003,0.011 0.009,0.018 0.017,0.023 0.008,0.004 0.02,0.006 0.035,0.006 0.014,0 0.026,-0.001 0.034,-0.003 0.008,-0.002 0.014,-0.006 0.019,-0.011 0.004,-0.005 0.006,-0.013 0.006,-0.023l0 -0.005zm0.001 -0.076c0,-0.016 -0.002,-0.028 -0.006,-0.037 -0.004,-0.009 -0.01,-0.015 -0.018,-0.019 -0.009,-0.004 -0.02,-0.006 -0.035,-0.006 -0.015,0 -0.026,0.002 -0.034,0.006 -0.008,0.004 -0.014,0.01 -0.018,0.019 -0.004,0.009 -0.005,0.021 -0.005,0.037l0.117 0z"/>
  <path id="4" class="fil0" d="M1.966 3.222c0,0.026 0.001,0.045 0.004,0.058 0.003,0.012 0.008,0.021 0.017,0.027 0.008,0.005 0.022,0.008 0.04,0.008 0.018,0 0.031,-0.003 0.039,-0.01 0.008,-0.007 0.013,-0.016 0.016,-0.028 0.002,-0.012 0.003,-0.03 0.003,-0.054 0,-0.024 -0.002,-0.042 -0.005,-0.053 -0.003,-0.011 -0.009,-0.019 -0.017,-0.022 -0.008,-0.004 -0.02,-0.006 -0.036,-0.006 -0.016,0 -0.029,0.002 -0.038,0.006 -0.009,0.004 -0.015,0.012 -0.018,0.023 -0.004,0.011 -0.005,0.028 -0.005,0.05zm0 0.102l0 0.147 -0.063 0 0 -0.373 0.06 0 -0.003 0.037 0.002 0c0.01,-0.015 0.022,-0.026 0.034,-0.032 0.012,-0.006 0.028,-0.009 0.047,-0.009 0.028,0 0.05,0.005 0.065,0.015 0.015,0.01 0.025,0.025 0.031,0.044 0.005,0.019 0.008,0.044 0.008,0.074 0,0.022 -0.001,0.04 -0.003,0.056 -0.002,0.016 -0.006,0.03 -0.013,0.042 -0.007,0.012 -0.017,0.022 -0.03,0.029 -0.014,0.007 -0.032,0.01 -0.054,0.01 -0.021,0 -0.037,-0.003 -0.05,-0.008 -0.013,-0.005 -0.023,-0.016 -0.032,-0.032z"/>
  <path id="5" class="fil0" d="M2.204 3.098l0 0.262 0.077 0 0.085 -0.164c0.004,-0.008 0.014,-0.027 0.029,-0.059 -0.003,0.007 -0.005,0.019 -0.008,0.036 -0.003,0.017 -0.004,0.031 -0.004,0.041l0 0.145 0.06 0 0 -0.262 -0.077 0 -0.085 0.165c-0.006,0.01 -0.015,0.03 -0.029,0.059 0.003,-0.007 0.005,-0.018 0.008,-0.033 0.003,-0.014 0.004,-0.027 0.004,-0.039l0 -0.153 -0.06 0z"/>
  <polygon id="6" class="fil0" points="2.568,3.246 2.679,3.246 2.679,3.36 2.741,3.36 2.741,3.098 2.679,3.098 2.679,3.198 2.568,3.198 2.568,3.098 2.506,3.098 2.506,3.36 2.568,3.36 "/>
  <path id="7" class="fil0" d="M2.977 3.36l0.005 -0.036 -0.001 0c-0.005,0.012 -0.012,0.02 -0.02,0.026 -0.008,0.006 -0.017,0.01 -0.027,0.012 -0.01,0.002 -0.024,0.003 -0.04,0.003 -0.022,0 -0.04,-0.003 -0.054,-0.008 -0.014,-0.005 -0.024,-0.014 -0.031,-0.026 -0.007,-0.012 -0.01,-0.028 -0.01,-0.048 0,-0.017 0.002,-0.03 0.005,-0.041 0.004,-0.011 0.009,-0.019 0.017,-0.026 0.008,-0.006 0.018,-0.011 0.031,-0.013 0.013,-0.003 0.029,-0.004 0.049,-0.004 0.023,0 0.04,0.003 0.05,0.008 0.01,0.005 0.018,0.014 0.024,0.026l0.003 0 0 -0.045c0,-0.014 -0.002,-0.025 -0.005,-0.033 -0.004,-0.008 -0.009,-0.013 -0.017,-0.016 -0.008,-0.003 -0.02,-0.004 -0.034,-0.004 -0.019,0 -0.032,0.003 -0.039,0.008 -0.007,0.005 -0.011,0.016 -0.011,0.031l-0.063 0c0,-0.016 0.004,-0.029 0.009,-0.04 0.006,-0.011 0.013,-0.019 0.023,-0.025 0.01,-0.006 0.021,-0.01 0.034,-0.012 0.013,-0.002 0.027,-0.003 0.045,-0.003 0.028,0 0.05,0.002 0.067,0.006 0.017,0.004 0.031,0.013 0.04,0.027 0.01,0.014 0.015,0.034 0.015,0.061l0 0.173 -0.063 0zm0 -0.079c0,-0.015 -0.004,-0.026 -0.013,-0.031 -0.009,-0.006 -0.025,-0.008 -0.049,-0.008 -0.014,0 -0.025,0.001 -0.033,0.004 -0.008,0.002 -0.013,0.006 -0.017,0.012 -0.003,0.006 -0.005,0.014 -0.005,0.024 0,0.015 0.004,0.025 0.012,0.031 0.008,0.006 0.022,0.009 0.041,0.009 0.023,0 0.039,-0.003 0.048,-0.008 0.01,-0.006 0.014,-0.016 0.014,-0.031z"/>
  <path id="8" class="fil0" d="M3.166 3.222c0,0.026 0.001,0.045 0.004,0.058 0.003,0.012 0.008,0.021 0.017,0.027 0.008,0.005 0.022,0.008 0.04,0.008 0.018,0 0.031,-0.003 0.039,-0.01 0.008,-0.007 0.013,-0.016 0.016,-0.028 0.002,-0.012 0.003,-0.03 0.003,-0.054 0,-0.024 -0.002,-0.042 -0.005,-0.053 -0.003,-0.011 -0.009,-0.019 -0.017,-0.022 -0.008,-0.004 -0.02,-0.006 -0.036,-0.006 -0.016,0 -0.029,0.002 -0.038,0.006 -0.009,0.004 -0.015,0.012 -0.018,0.023 -0.004,0.011 -0.005,0.028 -0.005,0.05zm0 0.102l0 0.147 -0.063 0 0 -0.373 0.06 0 -0.003 0.037 0.002 0c0.01,-0.015 0.022,-0.026 0.034,-0.032 0.012,-0.006 0.028,-0.009 0.047,-0.009 0.028,0 0.05,0.005 0.065,0.015 0.015,0.01 0.025,0.025 0.031,0.044 0.005,0.019 0.008,0.044 0.008,0.074 0,0.022 -0.001,0.04 -0.003,0.056 -0.002,0.016 -0.006,0.03 -0.013,0.042 -0.007,0.012 -0.017,0.022 -0.03,0.029 -0.014,0.007 -0.032,0.01 -0.054,0.01 -0.021,0 -0.037,-0.003 -0.05,-0.008 -0.013,-0.005 -0.023,-0.016 -0.032,-0.032z"/>
  <polygon id="9" class="fil0" points="3.467,3.246 3.578,3.246 3.578,3.36 3.64,3.36 3.64,3.098 3.578,3.098 3.578,3.198 3.467,3.198 3.467,3.098 3.405,3.098 3.405,3.36 3.467,3.36 "/>
  <path id="10" class="fil0" d="M3.707 3.361l0 -0.262 0.063 0 0 0.1 0.089 0c0.05,0 0.075,0.027 0.075,0.081 0,0.027 -0.006,0.048 -0.02,0.061 -0.013,0.013 -0.032,0.02 -0.056,0.02l-0.151 0zm0.063 -0.117l0 0.071 0.063 0c0.013,0 0.023,-0.002 0.029,-0.007 0.006,-0.005 0.009,-0.014 0.009,-0.028 0,-0.01 -0.001,-0.017 -0.004,-0.022 -0.003,-0.005 -0.007,-0.009 -0.012,-0.011 -0.005,-0.002 -0.013,-0.003 -0.022,-0.003l-0.063 0zm0.266 -0.146l0 0.262 -0.063 0 0 -0.262 0.063 0z"/>
  <path id="11" class="fil0" d="M4.102 3.098l0 0.263 0.077 0 0.085 -0.164c0.007,-0.012 0.016,-0.031 0.029,-0.058 -0.003,0.007 -0.005,0.019 -0.008,0.036 -0.003,0.017 -0.004,0.031 -0.004,0.041l0 0.145 0.06 0 0 -0.263 -0.077 0 -0.085 0.166c-0.004,0.008 -0.014,0.027 -0.029,0.058 0.003,-0.007 0.006,-0.018 0.008,-0.032 0.003,-0.014 0.004,-0.027 0.004,-0.039l0 -0.153 -0.06 0zm0.117 -0.019c-0.02,0 -0.036,-0.004 -0.047,-0.012 -0.011,-0.008 -0.017,-0.022 -0.017,-0.042l0.035 0c0,0.009 0.002,0.015 0.006,0.018 0.004,0.003 0.012,0.005 0.023,0.005 0.012,0 0.021,-0.002 0.025,-0.005 0.004,-0.003 0.006,-0.009 0.006,-0.018l0.034 0c0,0.02 -0.006,0.034 -0.017,0.042 -0.011,0.008 -0.027,0.012 -0.048,0.012z"/>
  <path id="12" class="fil0" d="M4.638 3.143c-0.015,0 -0.026,0.002 -0.033,0.006 -0.007,0.004 -0.012,0.012 -0.014,0.024 -0.003,0.012 -0.004,0.03 -0.004,0.056 0,0.024 0.001,0.042 0.003,0.054 0.002,0.012 0.007,0.021 0.014,0.026 0.007,0.005 0.019,0.008 0.034,0.008 0.012,0 0.021,-0.001 0.028,-0.004 0.007,-0.003 0.012,-0.007 0.015,-0.014 0.003,-0.006 0.005,-0.015 0.006,-0.026 0.001,-0.011 0.002,-0.025 0.002,-0.044 0,-0.026 -0.001,-0.044 -0.004,-0.056 -0.002,-0.012 -0.007,-0.02 -0.014,-0.024 -0.007,-0.004 -0.018,-0.006 -0.034,-0.006zm0.052 0.329l0 -0.148c-0.005,0.011 -0.012,0.019 -0.018,0.025 -0.007,0.006 -0.014,0.01 -0.022,0.012 -0.008,0.002 -0.018,0.003 -0.03,0.003 -0.023,0 -0.041,-0.005 -0.055,-0.015 -0.014,-0.01 -0.024,-0.025 -0.03,-0.046 -0.006,-0.021 -0.009,-0.048 -0.009,-0.081 0,-0.034 0.003,-0.06 0.01,-0.079 0.007,-0.019 0.017,-0.032 0.031,-0.039 0.014,-0.007 0.033,-0.011 0.056,-0.011 0.032,0 0.054,0.012 0.067,0.037l0 -0.146 0.063 0 0 0.146c0.012,-0.025 0.035,-0.037 0.067,-0.037 0.023,0 0.042,0.004 0.056,0.011 0.014,0.007 0.025,0.021 0.032,0.039 0.007,0.019 0.01,0.045 0.01,0.079 0,0.05 -0.007,0.086 -0.021,0.108 -0.014,0.022 -0.039,0.033 -0.073,0.033 -0.018,0 -0.032,-0.003 -0.042,-0.008 -0.011,-0.005 -0.02,-0.016 -0.028,-0.032l0 0.148 -0.063 0zm0.063 -0.244c0,0.025 0.001,0.043 0.003,0.055 0.002,0.012 0.007,0.02 0.014,0.025 0.007,0.005 0.018,0.008 0.034,0.008 0.016,0 0.027,-0.003 0.034,-0.008 0.007,-0.005 0.012,-0.014 0.014,-0.026 0.002,-0.012 0.003,-0.03 0.003,-0.054 0,-0.026 -0.001,-0.044 -0.003,-0.056 -0.002,-0.012 -0.007,-0.02 -0.014,-0.024 -0.007,-0.004 -0.018,-0.006 -0.034,-0.006 -0.012,0 -0.021,0.001 -0.027,0.003 -0.006,0.002 -0.011,0.006 -0.015,0.012 -0.004,0.006 -0.006,0.014 -0.008,0.025 -0.001,0.011 -0.002,0.026 -0.002,0.045z"/>
  <path id="13" class="fil0" d="M5.138 3.277l0.062 0 0 0.01c0,0.021 -0.005,0.037 -0.015,0.049 -0.01,0.011 -0.023,0.019 -0.04,0.023 -0.017,0.004 -0.039,0.006 -0.066,0.006 -0.03,0 -0.054,-0.004 -0.071,-0.013 -0.017,-0.008 -0.03,-0.022 -0.037,-0.042 -0.007,-0.019 -0.011,-0.046 -0.011,-0.08 0,-0.034 0.004,-0.06 0.011,-0.08 0.008,-0.02 0.02,-0.034 0.038,-0.043 0.018,-0.009 0.041,-0.013 0.071,-0.013 0.03,0 0.054,0.005 0.071,0.013 0.018,0.009 0.03,0.023 0.038,0.042 0.008,0.019 0.012,0.044 0.012,0.075l0 0.018 -0.178 0c0,0.021 0.002,0.037 0.005,0.048 0.003,0.011 0.009,0.018 0.017,0.023 0.008,0.004 0.02,0.006 0.035,0.006 0.014,0 0.026,-0.001 0.034,-0.003 0.008,-0.002 0.014,-0.006 0.019,-0.011 0.004,-0.005 0.006,-0.013 0.006,-0.023l0 -0.005zm0.001 -0.076c0,-0.016 -0.002,-0.028 -0.006,-0.037 -0.004,-0.009 -0.01,-0.015 -0.018,-0.019 -0.009,-0.004 -0.02,-0.006 -0.035,-0.006 -0.015,0 -0.026,0.002 -0.034,0.006 -0.008,0.004 -0.014,0.01 -0.018,0.019 -0.004,0.009 -0.005,0.021 -0.005,0.037l0.117 0z"/>
  <path id="14" class="fil0" d="M5.278 3.098l0.219 0 0 0.262 -0.063 0 0 -0.214 -0.095 0 0 0.133c0,0.017 -0.003,0.031 -0.008,0.044 -0.005,0.013 -0.013,0.022 -0.023,0.029 -0.011,0.007 -0.024,0.011 -0.039,0.011 -0.018,0 -0.03,-0.001 -0.039,-0.003l0 -0.047c0.006,0.001 0.011,0.001 0.016,0.001 0.012,0 0.02,-0.003 0.024,-0.01 0.004,-0.006 0.007,-0.017 0.007,-0.031l0 -0.176z"/>
  <path id="15" class="fil0" d="M5.565 3.36l0 -0.263 0.063 0 0 0.1 0.088 0c0.024,0 0.043,0.007 0.056,0.02 0.013,0.013 0.02,0.034 0.02,0.061 0,0.027 -0.007,0.048 -0.02,0.061 -0.014,0.014 -0.032,0.02 -0.056,0.02l-0.15 0zm0.063 -0.117l0 0.072 0.063 0c0.013,0 0.023,-0.003 0.029,-0.008 0.006,-0.005 0.009,-0.015 0.009,-0.028 0,-0.014 -0.003,-0.023 -0.009,-0.028 -0.006,-0.005 -0.016,-0.007 -0.029,-0.007l-0.063 0z"/>
  <path id="16" class="fil0" d="M5.849 3.314c0.008,-0.01 0.014,-0.02 0.018,-0.03 0.004,-0.01 0.008,-0.021 0.01,-0.035 0.002,-0.014 0.003,-0.031 0.003,-0.052l0 -0.1 0.205 0 0 0.216 0.034 0 0 0.118 -0.058 0 0 -0.071 -0.183 0 0 0.071 -0.058 0 0 -0.118 0.028 0zm0.174 0l0 -0.17 -0.083 0 0 0.057c0,0.051 -0.01,0.089 -0.029,0.113l0.111 0z"/>
  <polygon id="17" class="fil0" points="6.221,3.098 6.221,3.312 6.314,3.312 6.314,3.098 6.376,3.098 6.376,3.312 6.469,3.312 6.469,3.098 6.532,3.098 6.532,3.36 6.158,3.36 6.158,3.098 "/>
  <path id="18" class="fil0" d="M6.764 3.277l0.062 0 0 0.01c0,0.021 -0.005,0.037 -0.015,0.049 -0.01,0.011 -0.023,0.019 -0.04,0.023 -0.017,0.004 -0.039,0.006 -0.066,0.006 -0.03,0 -0.054,-0.004 -0.071,-0.013 -0.017,-0.008 -0.03,-0.022 -0.037,-0.042 -0.007,-0.019 -0.011,-0.046 -0.011,-0.08 0,-0.034 0.004,-0.06 0.011,-0.08 0.008,-0.02 0.02,-0.034 0.038,-0.043 0.018,-0.009 0.041,-0.013 0.071,-0.013 0.03,0 0.054,0.005 0.071,0.013 0.018,0.009 0.03,0.023 0.038,0.042 0.008,0.019 0.012,0.044 0.012,0.075l0 0.018 -0.178 0c0,0.021 0.002,0.037 0.005,0.048 0.003,0.011 0.009,0.018 0.017,0.023 0.008,0.004 0.02,0.006 0.035,0.006 0.014,0 0.026,-0.001 0.034,-0.003 0.008,-0.002 0.014,-0.006 0.019,-0.011 0.004,-0.005 0.006,-0.013 0.006,-0.023l0 -0.005zm0.001 -0.076c0,-0.016 -0.002,-0.028 -0.006,-0.037 -0.004,-0.009 -0.01,-0.015 -0.018,-0.019 -0.009,-0.004 -0.02,-0.006 -0.035,-0.006 -0.015,0 -0.026,0.002 -0.034,0.006 -0.008,0.004 -0.014,0.01 -0.018,0.019 -0.004,0.009 -0.005,0.021 -0.005,0.037l0.117 0z"/>
  <path id="19" class="fil0" d="M6.943 3.222c0,0.026 0.001,0.045 0.004,0.058 0.003,0.012 0.008,0.021 0.017,0.027 0.008,0.005 0.022,0.008 0.04,0.008 0.018,0 0.031,-0.003 0.039,-0.01 0.008,-0.007 0.013,-0.016 0.016,-0.028 0.002,-0.012 0.003,-0.03 0.003,-0.054 0,-0.024 -0.002,-0.042 -0.005,-0.053 -0.003,-0.011 -0.009,-0.019 -0.017,-0.022 -0.008,-0.004 -0.02,-0.006 -0.036,-0.006 -0.016,0 -0.029,0.002 -0.038,0.006 -0.009,0.004 -0.015,0.012 -0.018,0.023 -0.004,0.011 -0.005,0.028 -0.005,0.05zm0 0.102l0 0.147 -0.063 0 0 -0.373 0.06 0 -0.003 0.037 0.002 0c0.01,-0.015 0.022,-0.026 0.034,-0.032 0.012,-0.006 0.028,-0.009 0.047,-0.009 0.028,0 0.05,0.005 0.065,0.015 0.015,0.01 0.025,0.025 0.031,0.044 0.005,0.019 0.008,0.044 0.008,0.074 0,0.022 -0.001,0.04 -0.003,0.056 -0.002,0.016 -0.006,0.03 -0.013,0.042 -0.007,0.012 -0.017,0.022 -0.03,0.029 -0.014,0.007 -0.032,0.01 -0.054,0.01 -0.021,0 -0.037,-0.003 -0.05,-0.008 -0.013,-0.005 -0.023,-0.016 -0.032,-0.032z"/>
  <g id="_2335276037104">
   <rect class="fil1" x="0" y="2.946" width="0.443" height="0.443" rx="0.089" ry="0.084"/>
   <g>
    <path class="fil2" d="M0.192 3.005c0,0.021 0.003,0.029 -0.004,0.034 -0.007,-0.005 -0.004,-0.001 -0.004,-0.026 -0.018,0.004 -0.031,0.031 -0.035,0.05 -0.002,0.009 0,0.005 -0.004,0.011 -0.003,0.004 -0.006,0.003 -0.006,0.009 0,0.03 0.105,0.029 0.14,0.02 0.011,-0.003 0.037,-0.013 0.026,-0.025 -0.016,-0.018 -0.002,-0.009 -0.014,-0.035 -0.005,-0.011 -0.016,-0.027 -0.027,-0.031 0,0.012 0,0.016 -0.002,0.026l-0.006 0c-0.003,-0.012 -0.002,-0.02 -0.002,-0.034 -0.029,-0.007 -0.043,-0.004 -0.06,0z"/>
    <path class="fil2" d="M0.147 3.127c0,0.022 0.013,0.033 0.025,0.058 0.016,0.035 0.071,0.063 0.105,-0.011 0.008,-0.018 0.019,-0.015 0.019,-0.051 0,-0.023 -0.015,-0.004 -0.06,-0.004 -0.047,0 -0.037,0.002 -0.083,-0.009 -0.003,0.005 -0.006,0.009 -0.006,0.017z"/>
    <path class="fil2" d="M0.126 3.33c0.018,0 0.033,0.004 0.053,0.004l0.088 0c0.022,0 0.036,-0.004 0.056,-0.004l0 -0.038 -0.196 0 0 0.038z"/>
    <path class="fil2" d="M0.158 3.202l0 0.068 0.13 0 0 -0.068 -0.015 -0.005c-0.018,0.028 -0.05,0.04 -0.082,0.02 -0.011,-0.007 -0.014,-0.014 -0.023,-0.02 -0.004,0.002 -0.005,0.003 -0.011,0.004z"/>
    <path class="fil2" d="M0.068 3.306c0,0.01 0.01,0.012 0.021,0.015 0.041,0.013 -0.017,-0.046 0.047,-0.052l0 -0.058c-0.035,0.003 -0.068,0.05 -0.068,0.094z"/>
    <path class="fil2" d="M0.307 3.219l0 0.051c0.04,0 0.036,0.021 0.036,0.053 0.012,-0 0.021,-0.006 0.032,-0.009l0 -0.012c-0,-0.01 -0.001,-0.016 -0.004,-0.027 -0.011,-0.036 -0.023,-0.045 -0.052,-0.06 -0.004,-0.002 -0.013,-0.008 -0.013,0.002z"/>
   </g>
  </g>
  <path class="fil0" d="M0.702 3.918c0.007,-0.008 0.014,-0.016 0.019,-0.026 0.005,-0.009 0.009,-0.02 0.012,-0.032 0.003,-0.012 0.005,-0.026 0.006,-0.042 0.001,-0.016 0.002,-0.034 0.002,-0.056l0 -0.158 0.271 0 0 0.314 0.034 0 0 0.148 -0.067 0 0 -0.087 -0.238 0 0 0.087 -0.068 0 0 -0.148 0.028 0zm0.109 -0.252l0 0.096c0,0.027 -0.001,0.05 -0.003,0.069 -0.002,0.019 -0.005,0.036 -0.01,0.05 -0.005,0.014 -0.012,0.027 -0.02,0.037l0.162 0 0 -0.252 -0.129 0z"/>
  <path id="1" class="fil0" d="M1.082 3.848c0,-0.035 0.004,-0.061 0.011,-0.081 0.007,-0.019 0.02,-0.033 0.038,-0.041 0.018,-0.008 0.043,-0.013 0.075,-0.013 0.032,0 0.057,0.004 0.075,0.013 0.018,0.008 0.031,0.022 0.038,0.041 0.008,0.019 0.011,0.046 0.011,0.081 0,0.025 -0.002,0.047 -0.006,0.064 -0.004,0.017 -0.011,0.031 -0.02,0.042 -0.009,0.01 -0.022,0.018 -0.038,0.023 -0.016,0.005 -0.036,0.007 -0.06,0.007 -0.024,0 -0.044,-0.002 -0.06,-0.007 -0.016,-0.005 -0.029,-0.013 -0.038,-0.023 -0.009,-0.011 -0.016,-0.024 -0.02,-0.041 -0.004,-0.017 -0.006,-0.038 -0.006,-0.064zm0.064 0c0,0.024 0.002,0.043 0.005,0.055 0.004,0.012 0.01,0.021 0.018,0.025 0.008,0.005 0.02,0.007 0.036,0.007 0.016,0 0.028,-0.002 0.036,-0.007 0.009,-0.005 0.015,-0.013 0.018,-0.026 0.004,-0.012 0.006,-0.031 0.006,-0.055 0,-0.018 -0.001,-0.033 -0.003,-0.044 -0.002,-0.011 -0.005,-0.02 -0.01,-0.026 -0.005,-0.006 -0.01,-0.01 -0.018,-0.013 -0.007,-0.002 -0.017,-0.004 -0.029,-0.004 -0.016,0 -0.028,0.002 -0.036,0.007 -0.008,0.004 -0.014,0.013 -0.018,0.025 -0.004,0.012 -0.005,0.03 -0.005,0.054z"/>
  <path id="2" class="fil0" d="M1.599 3.718l0 0.263 -0.063 0 0 -0.101 -0.048 0 -0.059 0.101 -0.067 0 0.066 -0.109c-0.038,-0.011 -0.057,-0.036 -0.057,-0.074 0,-0.053 0.025,-0.08 0.074,-0.08l0.154 0zm-0.063 0.117l0 -0.071 -0.066 0c-0.013,0 -0.022,0.002 -0.028,0.008 -0.005,0.005 -0.008,0.014 -0.008,0.028 0,0.014 0.003,0.023 0.01,0.028 0.007,0.005 0.017,0.008 0.031,0.008l0.061 0z"/>
  <path id="3" class="fil0" d="M1.725 3.842c0,0.026 0.001,0.045 0.004,0.058 0.003,0.012 0.008,0.021 0.017,0.027 0.008,0.005 0.022,0.008 0.04,0.008 0.018,0 0.031,-0.003 0.039,-0.01 0.008,-0.007 0.013,-0.016 0.016,-0.028 0.002,-0.012 0.003,-0.03 0.003,-0.054 0,-0.024 -0.002,-0.042 -0.005,-0.053 -0.003,-0.011 -0.009,-0.019 -0.017,-0.022 -0.008,-0.004 -0.02,-0.006 -0.036,-0.006 -0.016,0 -0.029,0.002 -0.038,0.006 -0.009,0.004 -0.015,0.012 -0.018,0.023 -0.004,0.011 -0.005,0.028 -0.005,0.05zm0 0.102l0 0.147 -0.063 0 0 -0.373 0.06 0 -0.003 0.037 0.002 0c0.01,-0.015 0.022,-0.026 0.034,-0.032 0.012,-0.006 0.028,-0.009 0.047,-0.009 0.028,0 0.05,0.005 0.065,0.015 0.015,0.01 0.025,0.025 0.031,0.044 0.005,0.019 0.008,0.044 0.008,0.074 0,0.022 -0.001,0.04 -0.003,0.056 -0.002,0.016 -0.006,0.03 -0.013,0.042 -0.007,0.012 -0.017,0.022 -0.03,0.029 -0.014,0.007 -0.032,0.01 -0.054,0.01 -0.021,0 -0.037,-0.003 -0.05,-0.008 -0.013,-0.005 -0.023,-0.016 -0.032,-0.032z"/>
  <g id="_2335296762128">
   <rect class="fil1" x="0" y="3.566" width="0.443" height="0.443" rx="0.089" ry="0.084"/>
   <g>
    <path class="fil2" d="M0.192 3.626c0,0.021 0.003,0.029 -0.004,0.034 -0.007,-0.005 -0.004,-0.001 -0.004,-0.026 -0.018,0.004 -0.031,0.031 -0.035,0.05 -0.002,0.009 0,0.005 -0.004,0.011 -0.003,0.004 -0.006,0.003 -0.006,0.009 0,0.03 0.105,0.029 0.14,0.02 0.011,-0.003 0.037,-0.013 0.026,-0.025 -0.016,-0.018 -0.002,-0.009 -0.014,-0.035 -0.005,-0.011 -0.016,-0.027 -0.027,-0.031 0,0.012 0,0.016 -0.002,0.026l-0.006 0c-0.003,-0.012 -0.002,-0.02 -0.002,-0.034 -0.029,-0.007 -0.043,-0.004 -0.06,0z"/>
    <path class="fil2" d="M0.147 3.747c0,0.022 0.013,0.033 0.025,0.058 0.016,0.035 0.071,0.063 0.105,-0.011 0.008,-0.018 0.019,-0.015 0.019,-0.051 0,-0.023 -0.015,-0.004 -0.06,-0.004 -0.047,0 -0.037,0.002 -0.083,-0.009 -0.003,0.005 -0.006,0.009 -0.006,0.017z"/>
    <path class="fil2" d="M0.126 3.95c0.018,0 0.033,0.004 0.053,0.004l0.088 0c0.022,0 0.036,-0.004 0.056,-0.004l0 -0.038 -0.196 0 0 0.038z"/>
    <path class="fil2" d="M0.158 3.822l0 0.068 0.13 0 0 -0.068 -0.015 -0.005c-0.018,0.028 -0.05,0.04 -0.082,0.02 -0.011,-0.007 -0.014,-0.014 -0.023,-0.02 -0.004,0.002 -0.005,0.003 -0.011,0.004z"/>
    <path class="fil2" d="M0.068 3.927c0,0.01 0.01,0.012 0.021,0.015 0.041,0.013 -0.017,-0.046 0.047,-0.052l0 -0.058c-0.035,0.003 -0.068,0.05 -0.068,0.094z"/>
    <path class="fil2" d="M0.307 3.839l0 0.051c0.04,0 0.036,0.021 0.036,0.053 0.012,-0 0.021,-0.006 0.032,-0.009l0 -0.012c-0,-0.01 -0.001,-0.016 -0.004,-0.027 -0.011,-0.036 -0.023,-0.045 -0.052,-0.06 -0.004,-0.002 -0.013,-0.008 -0.013,0.002z"/>
   </g>
  </g>
 </g>
</svg>
