<?xml version="1.0" encoding="UTF-8"?>
<!DOCTYPE svg PUBLIC "-//W3C//DTD SVG 1.1//EN" "http://www.w3.org/Graphics/SVG/1.1/DTD/svg11.dtd">
<!-- Creator: CorelDRAW 2019 (64-Bit) -->
<svg xmlns="http://www.w3.org/2000/svg" xml:space="preserve" width="3.06047cm" height="0.81508cm" version="1.1" style="shape-rendering:geometricPrecision; text-rendering:geometricPrecision; image-rendering:optimizeQuality; fill-rule:evenodd; clip-rule:evenodd"
viewBox="0 0 13.611 3.625"
 xmlns:xlink="http://www.w3.org/1999/xlink"
 xmlns:xodm="http://www.corel.com/coreldraw/odm/2003">
 <defs>
  <style type="text/css">
   <![CDATA[
    .fil1 {fill:#1B5A5C}
    .fil2 {fill:#29878C}
    .fil0 {fill:white;fill-rule:nonzero}
   ]]>
  </style>
 </defs>
 <g id="Слой_x0020_1">
  <metadata id="CorelCorpID_0Corel-Layer"/>
  <polygon class="fil0" points="0.993,0.497 1.268,0.497 1.268,0.006 1.381,0.006 1.381,0.497 1.434,0.497 1.434,0.73 1.328,0.73 1.328,0.594 0.88,0.594 0.88,0.006 0.993,0.006 "/>
  <path id="1" class="fil0" d="M1.864 0.384l0.111 0 0 0.034c0,0.045 -0.008,0.081 -0.023,0.108 -0.016,0.026 -0.041,0.045 -0.076,0.057 -0.035,0.012 -0.083,0.017 -0.144,0.017 -0.05,0 -0.09,-0.005 -0.122,-0.014 -0.031,-0.009 -0.056,-0.025 -0.075,-0.048 -0.018,-0.023 -0.032,-0.054 -0.039,-0.093 -0.008,-0.039 -0.012,-0.091 -0.012,-0.155 0,-0.07 0.007,-0.126 0.021,-0.168 0.014,-0.041 0.039,-0.072 0.074,-0.092 0.035,-0.02 0.085,-0.03 0.149,-0.03 0.063,0 0.112,0.007 0.146,0.022 0.034,0.015 0.058,0.036 0.072,0.065 0.014,0.029 0.022,0.067 0.026,0.116l-0.11 0c-0.002,-0.031 -0.007,-0.054 -0.015,-0.069 -0.008,-0.014 -0.021,-0.024 -0.039,-0.03 -0.018,-0.005 -0.045,-0.008 -0.081,-0.008 -0.037,0 -0.064,0.005 -0.082,0.014 -0.018,0.01 -0.03,0.028 -0.037,0.056 -0.007,0.028 -0.01,0.072 -0.01,0.133 0,0.043 0.002,0.077 0.006,0.104 0.004,0.026 0.011,0.047 0.02,0.061 0.01,0.014 0.023,0.024 0.039,0.03 0.017,0.006 0.038,0.008 0.066,0.008 0.035,0 0.062,-0.002 0.081,-0.007 0.019,-0.005 0.033,-0.013 0.041,-0.025 0.008,-0.012 0.012,-0.029 0.012,-0.051l0 -0.037z"/>
  <path id="2" class="fil0" d="M2.053 0.497c0.012,-0.012 0.021,-0.026 0.029,-0.04 0.008,-0.015 0.014,-0.032 0.019,-0.05 0.005,-0.019 0.008,-0.041 0.01,-0.066 0.002,-0.025 0.003,-0.054 0.004,-0.087l0 -0.248 0.425 0 0 0.492 0.053 0 0 0.232 -0.105 0 0 -0.136 -0.373 0 0 0.136 -0.106 0 0 -0.232 0.045 0zm0.171 -0.395l0 0.151c0,0.042 -0.001,0.078 -0.004,0.108 -0.003,0.03 -0.008,0.056 -0.016,0.079 -0.008,0.023 -0.018,0.042 -0.031,0.057l0.254 0 0 -0.395 -0.202 0z"/>
  <polygon id="3" class="fil0" points="2.781,0.006 2.781,0.246 2.833,0.246 3.029,0.006 3.167,0.006 2.929,0.293 3.192,0.594 3.05,0.594 2.833,0.343 2.781,0.343 2.781,0.594 2.668,0.594 2.668,0.006 "/>
  <path id="4" class="fil0" d="M3.556 0.169l0.066 0.037 -0.083 0.17 0.088 0.165 -0.062 0.042 -0.112 -0.206 0.103 -0.206zm0.16 -0.003l0.067 0.038 -0.084 0.169 0.089 0.166 -0.064 0.039 -0.112 -0.205 0.104 -0.207z"/>
  <polygon id="5" class="fil0" points="3.992,0.006 3.992,0.246 4.044,0.246 4.241,0.006 4.379,0.006 4.141,0.293 4.404,0.594 4.261,0.594 4.044,0.343 3.992,0.343 3.992,0.594 3.879,0.594 3.879,0.006 "/>
  <path id="6" class="fil0" d="M4.816 0.183l-0.11 0.436c-0.006,0.026 -0.013,0.048 -0.02,0.066 -0.007,0.019 -0.016,0.035 -0.027,0.049 -0.011,0.014 -0.026,0.024 -0.044,0.032 -0.018,0.008 -0.04,0.011 -0.066,0.011 -0.018,0 -0.032,-0.001 -0.041,-0.003l0 -0.071c0.008,0.002 0.015,0.002 0.023,0.002 0.024,-0 0.042,-0.01 0.053,-0.027 0.011,-0.018 0.021,-0.046 0.03,-0.085l-0.052 0 -0.135 -0.411 0.104 0 0.103 0.349 0.08 -0.349 0.102 0z"/>
  <path id="7" class="fil0" d="M4.972 0.377c0,0.041 0.002,0.071 0.006,0.091 0.004,0.02 0.013,0.034 0.026,0.042 0.013,0.008 0.034,0.013 0.062,0.013 0.028,0 0.048,-0.005 0.061,-0.015 0.013,-0.01 0.021,-0.025 0.024,-0.044 0.004,-0.019 0.005,-0.047 0.005,-0.084 0,-0.037 -0.002,-0.065 -0.007,-0.083 -0.005,-0.018 -0.014,-0.029 -0.026,-0.035 -0.012,-0.006 -0.031,-0.009 -0.056,-0.009 -0.026,0 -0.045,0.003 -0.059,0.01 -0.013,0.007 -0.023,0.019 -0.029,0.036 -0.006,0.018 -0.008,0.044 -0.008,0.078zm0 0.16l0 0.231 -0.098 0 0 -0.585 0.094 0 -0.004 0.058 0.003 0c0.016,-0.024 0.034,-0.041 0.053,-0.05 0.019,-0.009 0.044,-0.014 0.074,-0.014 0.045,0 0.079,0.008 0.103,0.024 0.024,0.016 0.04,0.039 0.048,0.069 0.008,0.03 0.013,0.068 0.013,0.116 0,0.034 -0.002,0.063 -0.005,0.088 -0.003,0.025 -0.01,0.046 -0.02,0.066 -0.01,0.019 -0.026,0.034 -0.047,0.045 -0.021,0.011 -0.049,0.016 -0.084,0.016 -0.032,0 -0.058,-0.004 -0.078,-0.013 -0.02,-0.008 -0.037,-0.025 -0.05,-0.05z"/>
  <path id="8" class="fil0" d="M5.609 0.464l0.097 0 0 0.015c0,0.033 -0.008,0.059 -0.023,0.077 -0.015,0.018 -0.036,0.03 -0.063,0.036 -0.027,0.006 -0.062,0.009 -0.104,0.009 -0.048,0 -0.085,-0.007 -0.112,-0.02 -0.027,-0.013 -0.046,-0.035 -0.058,-0.066 -0.012,-0.03 -0.018,-0.072 -0.018,-0.126 0,-0.053 0.006,-0.095 0.018,-0.126 0.012,-0.031 0.032,-0.053 0.059,-0.067 0.027,-0.014 0.064,-0.021 0.111,-0.021 0.047,0 0.084,0.007 0.112,0.021 0.028,0.014 0.048,0.036 0.06,0.066 0.012,0.03 0.018,0.069 0.018,0.117l0 0.029 -0.279 0c0,0.033 0.003,0.058 0.008,0.075 0.005,0.017 0.014,0.029 0.027,0.035 0.013,0.007 0.031,0.01 0.055,0.01 0.022,0 0.04,-0.002 0.053,-0.005 0.013,-0.003 0.023,-0.009 0.029,-0.017 0.006,-0.008 0.009,-0.02 0.009,-0.036l0 -0.008zm0.002 -0.118c0,-0.024 -0.003,-0.044 -0.009,-0.058 -0.006,-0.014 -0.016,-0.024 -0.029,-0.03 -0.013,-0.006 -0.032,-0.009 -0.055,-0.009 -0.023,0 -0.041,0.003 -0.054,0.009 -0.013,0.006 -0.022,0.016 -0.028,0.03 -0.006,0.014 -0.008,0.033 -0.008,0.058l0.183 0z"/>
  <polygon id="9" class="fil0" points="6.062,0.258 6.062,0.183 5.79,0.183 5.79,0.594 5.888,0.594 5.888,0.258 "/>
  <path id="10" class="fil0" d="M6.108 0.388c0,-0.054 0.006,-0.096 0.017,-0.126 0.012,-0.03 0.031,-0.052 0.059,-0.065 0.028,-0.013 0.067,-0.02 0.117,-0.02 0.05,0 0.09,0.007 0.118,0.02 0.028,0.013 0.048,0.035 0.06,0.065 0.012,0.03 0.018,0.072 0.018,0.126 0,0.04 -0.003,0.073 -0.01,0.1 -0.006,0.027 -0.017,0.049 -0.032,0.065 -0.015,0.016 -0.035,0.029 -0.06,0.036 -0.025,0.007 -0.056,0.011 -0.094,0.012 -0.037,0 -0.069,-0.004 -0.094,-0.012 -0.025,-0.008 -0.045,-0.02 -0.059,-0.036 -0.014,-0.017 -0.025,-0.038 -0.031,-0.065 -0.006,-0.027 -0.01,-0.06 -0.01,-0.101zm0.1 0c0,0.038 0.003,0.067 0.009,0.086 0.006,0.019 0.015,0.033 0.028,0.04 0.013,0.007 0.032,0.011 0.057,0.011 0.025,0 0.044,-0.004 0.057,-0.011 0.013,-0.007 0.023,-0.02 0.029,-0.04 0.006,-0.019 0.009,-0.048 0.009,-0.087 0,-0.029 -0.002,-0.052 -0.005,-0.069 -0.003,-0.017 -0.008,-0.031 -0.016,-0.04 -0.007,-0.01 -0.016,-0.016 -0.028,-0.02 -0.012,-0.004 -0.027,-0.006 -0.046,-0.006 -0.025,0 -0.044,0.003 -0.057,0.01 -0.013,0.007 -0.023,0.02 -0.028,0.039 -0.006,0.019 -0.009,0.048 -0.009,0.085z"/>
  <path id="11" class="fil0" d="M6.677 0.254l0 0.097 0.093 0c0.025,0 0.042,-0.004 0.053,-0.011 0.01,-0.007 0.016,-0.019 0.016,-0.036 0,-0.018 -0.004,-0.03 -0.013,-0.038 -0.009,-0.008 -0.024,-0.012 -0.045,-0.012l-0.103 0zm0 0.163l0 0.105 0.107 0c0.023,0 0.039,-0.004 0.049,-0.013 0.01,-0.008 0.015,-0.022 0.015,-0.04 0,-0.035 -0.02,-0.053 -0.059,-0.053l-0.112 0zm-0.097 0.177l0 -0.411 0.227 0c0.046,0 0.079,0.009 0.099,0.027 0.02,0.018 0.03,0.046 0.03,0.085 0,0.021 -0.007,0.04 -0.02,0.055 -0.013,0.015 -0.032,0.026 -0.055,0.031l0 0.002c0.026,0.005 0.046,0.016 0.061,0.032 0.015,0.017 0.023,0.038 0.023,0.066 0,0.027 -0.004,0.048 -0.012,0.065 -0.008,0.017 -0.021,0.029 -0.039,0.036 -0.018,0.008 -0.044,0.012 -0.076,0.012l-0.238 0z"/>
  <path id="12" class="fil0" d="M7.286 0.439l0.097 0c0,0.03 -0.003,0.055 -0.01,0.075 -0.006,0.021 -0.017,0.037 -0.031,0.05 -0.014,0.013 -0.033,0.022 -0.057,0.028 -0.024,0.006 -0.053,0.009 -0.087,0.009 -0.048,0 -0.086,-0.007 -0.113,-0.02 -0.027,-0.013 -0.047,-0.035 -0.059,-0.066 -0.012,-0.031 -0.018,-0.073 -0.018,-0.126 0,-0.054 0.006,-0.097 0.018,-0.127 0.012,-0.031 0.031,-0.053 0.059,-0.066 0.027,-0.013 0.065,-0.02 0.113,-0.02 0.036,0 0.067,0.004 0.093,0.012 0.027,0.008 0.048,0.022 0.064,0.042 0.016,0.02 0.024,0.048 0.024,0.083l0 0.015 -0.096 0 0 -0.005c0,-0.019 -0.003,-0.034 -0.008,-0.044 -0.005,-0.01 -0.014,-0.017 -0.026,-0.02 -0.012,-0.004 -0.029,-0.005 -0.052,-0.005 -0.023,0 -0.041,0.004 -0.054,0.012 -0.013,0.008 -0.022,0.022 -0.027,0.041 -0.005,0.019 -0.008,0.047 -0.008,0.083 0,0.035 0.003,0.063 0.008,0.082 0.005,0.019 0.014,0.033 0.027,0.041 0.013,0.008 0.031,0.012 0.054,0.012 0.026,0 0.045,-0.003 0.057,-0.008 0.013,-0.005 0.021,-0.014 0.025,-0.026 0.004,-0.012 0.006,-0.029 0.006,-0.053z"/>
  <polygon id="13" class="fil0" points="7.559,0.183 7.559,0.342 7.583,0.342 7.698,0.183 7.81,0.183 7.664,0.376 7.838,0.594 7.72,0.594 7.583,0.409 7.559,0.409 7.559,0.594 7.461,0.594 7.461,0.183 "/>
  <path id="14" class="fil0" d="M7.9 0.183l0 0.411 0.12 0 0.134 -0.256c0.007,-0.012 0.021,-0.043 0.045,-0.092 -0.004,0.011 -0.008,0.03 -0.013,0.057 -0.005,0.027 -0.007,0.049 -0.007,0.065l0 0.227 0.093 0 0 -0.411 -0.12 0 -0.134 0.258c-0.009,0.016 -0.024,0.047 -0.045,0.093 0.004,-0.011 0.009,-0.029 0.013,-0.051 0.004,-0.023 0.007,-0.043 0.007,-0.06l0 -0.239 -0.093 0z"/>
  <path id="15" class="fil0" d="M8.372 0.182l0 0.412 0.12 0 0.134 -0.257c0.01,-0.019 0.025,-0.049 0.045,-0.091 -0.004,0.011 -0.008,0.03 -0.013,0.057 -0.005,0.027 -0.007,0.049 -0.007,0.065l0 0.227 0.093 0 0 -0.412 -0.12 0 -0.134 0.26c-0.007,0.013 -0.022,0.043 -0.045,0.091 0.004,-0.011 0.009,-0.028 0.013,-0.051 0.004,-0.022 0.006,-0.043 0.006,-0.061l0 -0.239 -0.093 0zm0.183 -0.029c-0.032,0 -0.056,-0.006 -0.073,-0.018 -0.017,-0.012 -0.026,-0.034 -0.026,-0.066l0.054 0c0,0.014 0.003,0.023 0.01,0.028 0.007,0.005 0.019,0.008 0.036,0.008 0.019,0 0.032,-0.002 0.038,-0.007 0.006,-0.005 0.009,-0.015 0.009,-0.029l0.053 0c0,0.032 -0.009,0.054 -0.027,0.066 -0.018,0.012 -0.043,0.018 -0.075,0.018z"/>
  <path id="16" class="fil0" d="M9.068 0.169l0.103 0.206 -0.112 0.206 -0.064 -0.042 0.089 -0.165 -0.083 -0.17 0.067 -0.037zm-0.161 -0.003l0.103 0.207 -0.111 0.205 -0.063 -0.039 0.089 -0.166 -0.084 -0.169 0.066 -0.038z"/>
  <path class="fil0" d="M0.908 1.586c0.01,-0.013 0.017,-0.026 0.023,-0.038 0.005,-0.012 0.01,-0.027 0.012,-0.044 0.003,-0.017 0.004,-0.039 0.004,-0.065l0 -0.125 0.257 0 0 0.271 0.042 0 0 0.148 -0.072 0 0 -0.089 -0.229 0 0 0.089 -0.072 0 0 -0.148 0.035 0zm0.218 0l0 -0.213 -0.104 0 0 0.071c0,0.064 -0.012,0.111 -0.036,0.141l0.14 0z"/>
  <polygon id="1" class="fil0" points="1.37,1.559 1.37,1.644 1.292,1.644 1.292,1.559 "/>
  <polygon id="2" class="fil0" points="1.704,1.174 1.704,1.366 1.746,1.366 1.903,1.174 2.013,1.174 1.823,1.403 2.034,1.644 1.919,1.644 1.746,1.443 1.704,1.443 1.704,1.644 1.614,1.644 1.614,1.174 "/>
  <path id="3" class="fil0" d="M2.363 1.315l-0.088 0.349c-0.005,0.021 -0.01,0.038 -0.016,0.053 -0.006,0.015 -0.013,0.028 -0.022,0.039 -0.009,0.011 -0.02,0.02 -0.035,0.026 -0.015,0.006 -0.032,0.009 -0.053,0.009 -0.015,0 -0.026,-0.001 -0.033,-0.002l0 -0.057c0.006,0.001 0.012,0.002 0.018,0.002 0.02,-0 0.034,-0.008 0.042,-0.022 0.009,-0.014 0.017,-0.037 0.024,-0.068l-0.041 0 -0.108 -0.329 0.083 0 0.082 0.279 0.064 -0.279 0.082 0z"/>
  <path id="4" class="fil0" d="M2.488 1.471c0,0.033 0.002,0.057 0.005,0.072 0.003,0.016 0.01,0.027 0.021,0.034 0.01,0.007 0.027,0.01 0.05,0.01 0.022,0 0.039,-0.004 0.049,-0.012 0.01,-0.008 0.017,-0.02 0.02,-0.035 0.003,-0.015 0.004,-0.038 0.004,-0.067 0,-0.03 -0.002,-0.052 -0.006,-0.066 -0.004,-0.014 -0.011,-0.023 -0.021,-0.028 -0.01,-0.005 -0.025,-0.007 -0.045,-0.007 -0.021,0 -0.036,0.003 -0.047,0.008 -0.011,0.005 -0.018,0.015 -0.023,0.029 -0.004,0.014 -0.007,0.035 -0.007,0.062zm0 0.128l0 0.185 -0.078 0 0 -0.468 0.075 0 -0.003 0.047 0.002 0c0.013,-0.019 0.027,-0.033 0.043,-0.04 0.015,-0.007 0.035,-0.011 0.059,-0.011 0.036,0 0.063,0.006 0.082,0.019 0.019,0.013 0.032,0.031 0.038,0.055 0.007,0.024 0.01,0.055 0.01,0.093 0,0.027 -0.001,0.051 -0.004,0.07 -0.002,0.02 -0.008,0.037 -0.016,0.052 -0.008,0.015 -0.021,0.027 -0.038,0.036 -0.017,0.009 -0.04,0.013 -0.068,0.013 -0.026,0 -0.047,-0.003 -0.063,-0.01 -0.016,-0.007 -0.029,-0.02 -0.04,-0.04z"/>
  <path id="5" class="fil0" d="M2.998 1.54l0.078 0 0 0.012c0,0.026 -0.006,0.047 -0.018,0.061 -0.012,0.014 -0.029,0.024 -0.051,0.029 -0.022,0.005 -0.049,0.008 -0.083,0.008 -0.038,0 -0.068,-0.005 -0.09,-0.016 -0.022,-0.01 -0.037,-0.028 -0.046,-0.053 -0.009,-0.024 -0.014,-0.058 -0.014,-0.101 0,-0.042 0.005,-0.076 0.014,-0.101 0.01,-0.025 0.025,-0.043 0.047,-0.054 0.022,-0.011 0.052,-0.017 0.089,-0.017 0.037,0 0.067,0.006 0.089,0.017 0.022,0.011 0.038,0.029 0.048,0.053 0.01,0.024 0.015,0.055 0.015,0.094l0 0.023 -0.223 0c0,0.026 0.002,0.046 0.006,0.06 0.004,0.013 0.011,0.023 0.021,0.028 0.01,0.005 0.025,0.008 0.044,0.008 0.018,0 0.032,-0.001 0.043,-0.004 0.01,-0.003 0.018,-0.007 0.023,-0.014 0.005,-0.007 0.008,-0.016 0.008,-0.029l0 -0.006zm0.001 -0.095c0,-0.02 -0.002,-0.035 -0.007,-0.046 -0.005,-0.011 -0.012,-0.019 -0.023,-0.024 -0.011,-0.005 -0.025,-0.007 -0.044,-0.007 -0.018,0 -0.033,0.002 -0.043,0.007 -0.01,0.005 -0.018,0.013 -0.022,0.024 -0.004,0.011 -0.007,0.027 -0.007,0.046l0.146 0z"/>
  <polygon id="6" class="fil0" points="3.36,1.376 3.36,1.315 3.143,1.315 3.143,1.644 3.221,1.644 3.221,1.376 "/>
  <path id="7" class="fil0" d="M3.397 1.479c0,-0.043 0.005,-0.077 0.014,-0.101 0.009,-0.024 0.025,-0.041 0.047,-0.052 0.022,-0.011 0.054,-0.016 0.094,-0.016 0.04,0 0.072,0.005 0.094,0.016 0.023,0.01 0.038,0.028 0.048,0.052 0.009,0.024 0.014,0.058 0.014,0.101 0,0.032 -0.003,0.059 -0.008,0.08 -0.005,0.022 -0.014,0.039 -0.026,0.052 -0.012,0.013 -0.028,0.023 -0.048,0.029 -0.02,0.006 -0.045,0.009 -0.075,0.009 -0.03,0 -0.055,-0.003 -0.075,-0.009 -0.02,-0.006 -0.036,-0.016 -0.047,-0.029 -0.012,-0.013 -0.02,-0.031 -0.025,-0.052 -0.005,-0.021 -0.008,-0.048 -0.008,-0.081zm0.08 0c0,0.031 0.002,0.054 0.007,0.069 0.005,0.016 0.012,0.026 0.023,0.032 0.01,0.006 0.026,0.009 0.045,0.009 0.02,0 0.035,-0.003 0.046,-0.008 0.011,-0.006 0.018,-0.016 0.023,-0.032 0.005,-0.016 0.007,-0.039 0.007,-0.069 0,-0.023 -0.001,-0.042 -0.004,-0.055 -0.003,-0.014 -0.007,-0.025 -0.013,-0.032 -0.006,-0.008 -0.013,-0.013 -0.023,-0.016 -0.009,-0.003 -0.022,-0.005 -0.037,-0.005 -0.02,0 -0.035,0.003 -0.045,0.008 -0.01,0.006 -0.018,0.016 -0.023,0.031 -0.005,0.015 -0.007,0.038 -0.007,0.068z"/>
  <path id="8" class="fil0" d="M3.852 1.372l0 0.078 0.075 0c0.02,0 0.034,-0.003 0.042,-0.009 0.008,-0.006 0.013,-0.015 0.013,-0.029 0,-0.014 -0.004,-0.024 -0.011,-0.031 -0.007,-0.006 -0.019,-0.01 -0.036,-0.01l-0.082 0zm0 0.131l0 0.084 0.086 0c0.018,0 0.031,-0.003 0.039,-0.01 0.008,-0.007 0.012,-0.017 0.012,-0.032 0,-0.028 -0.016,-0.042 -0.047,-0.042l-0.09 0zm-0.077 0.141l0 -0.329 0.181 0c0.037,0 0.064,0.007 0.08,0.022 0.016,0.014 0.024,0.037 0.024,0.068 0,0.017 -0.005,0.032 -0.016,0.044 -0.011,0.012 -0.025,0.021 -0.044,0.025l0 0.002c0.021,0.004 0.037,0.012 0.049,0.026 0.012,0.013 0.018,0.031 0.018,0.053 0,0.021 -0.003,0.039 -0.009,0.052 -0.006,0.013 -0.017,0.023 -0.031,0.029 -0.015,0.006 -0.035,0.01 -0.061,0.01l-0.191 0z"/>
  <path id="9" class="fil0" d="M4.118 1.479c0,-0.043 0.005,-0.077 0.014,-0.101 0.009,-0.024 0.025,-0.041 0.047,-0.052 0.022,-0.011 0.054,-0.016 0.094,-0.016 0.04,0 0.072,0.005 0.094,0.016 0.023,0.01 0.038,0.028 0.048,0.052 0.009,0.024 0.014,0.058 0.014,0.101 0,0.032 -0.003,0.059 -0.008,0.08 -0.005,0.022 -0.014,0.039 -0.026,0.052 -0.012,0.013 -0.028,0.023 -0.048,0.029 -0.02,0.006 -0.045,0.009 -0.075,0.009 -0.03,0 -0.055,-0.003 -0.075,-0.009 -0.02,-0.006 -0.036,-0.016 -0.047,-0.029 -0.012,-0.013 -0.02,-0.031 -0.025,-0.052 -0.005,-0.021 -0.008,-0.048 -0.008,-0.081zm0.08 0c0,0.031 0.002,0.054 0.007,0.069 0.005,0.016 0.012,0.026 0.023,0.032 0.01,0.006 0.026,0.009 0.045,0.009 0.02,0 0.035,-0.003 0.046,-0.008 0.011,-0.006 0.018,-0.016 0.023,-0.032 0.005,-0.016 0.007,-0.039 0.007,-0.069 0,-0.023 -0.001,-0.042 -0.004,-0.055 -0.003,-0.014 -0.007,-0.025 -0.013,-0.032 -0.006,-0.008 -0.013,-0.013 -0.023,-0.016 -0.009,-0.003 -0.022,-0.005 -0.037,-0.005 -0.02,0 -0.035,0.003 -0.045,0.008 -0.01,0.006 -0.018,0.016 -0.023,0.031 -0.005,0.015 -0.007,0.038 -0.007,0.068z"/>
  <path id="10" class="fil0" d="M4.573 1.56l0 0.082c0,0.021 -0.002,0.037 -0.006,0.049 -0.004,0.011 -0.011,0.02 -0.022,0.025 -0.011,0.005 -0.027,0.008 -0.048,0.008 -0.004,0 -0.006,-0 -0.008,-0.001l0 -0.037c0.013,-0 0.023,-0.002 0.029,-0.007 0.006,-0.004 0.008,-0.013 0.008,-0.025l0.001 -0.01 -0.032 0 0 -0.084 0.079 0z"/>
  <polygon id="11" class="fil0" points="4.899,1.376 5.038,1.376 5.038,1.644 5.117,1.644 5.117,1.315 4.821,1.315 4.821,1.644 4.899,1.644 "/>
  <path id="12" class="fil0" d="M5.407 1.54l0.078 0 0 0.012c0,0.026 -0.006,0.047 -0.018,0.061 -0.012,0.014 -0.029,0.024 -0.051,0.029 -0.022,0.005 -0.049,0.008 -0.083,0.008 -0.038,0 -0.068,-0.005 -0.09,-0.016 -0.022,-0.01 -0.037,-0.028 -0.046,-0.053 -0.009,-0.024 -0.014,-0.058 -0.014,-0.101 0,-0.042 0.005,-0.076 0.014,-0.101 0.01,-0.025 0.025,-0.043 0.047,-0.054 0.022,-0.011 0.052,-0.017 0.089,-0.017 0.037,0 0.067,0.006 0.089,0.017 0.022,0.011 0.038,0.029 0.048,0.053 0.01,0.024 0.015,0.055 0.015,0.094l0 0.023 -0.223 0c0,0.026 0.002,0.046 0.006,0.06 0.004,0.013 0.011,0.023 0.021,0.028 0.01,0.005 0.025,0.008 0.044,0.008 0.018,0 0.032,-0.001 0.043,-0.004 0.01,-0.003 0.018,-0.007 0.023,-0.014 0.005,-0.007 0.008,-0.016 0.008,-0.029l0 -0.006zm0.001 -0.095c0,-0.02 -0.002,-0.035 -0.007,-0.046 -0.005,-0.011 -0.012,-0.019 -0.023,-0.024 -0.011,-0.005 -0.025,-0.007 -0.044,-0.007 -0.018,0 -0.033,0.002 -0.043,0.007 -0.01,0.005 -0.018,0.013 -0.022,0.024 -0.004,0.011 -0.007,0.027 -0.007,0.046l0.146 0z"/>
  <path id="13" class="fil0" d="M5.631 1.471c0,0.033 0.002,0.057 0.005,0.072 0.003,0.016 0.01,0.027 0.021,0.034 0.01,0.007 0.027,0.01 0.05,0.01 0.022,0 0.039,-0.004 0.049,-0.012 0.01,-0.008 0.017,-0.02 0.02,-0.035 0.003,-0.015 0.004,-0.038 0.004,-0.067 0,-0.03 -0.002,-0.052 -0.006,-0.066 -0.004,-0.014 -0.011,-0.023 -0.021,-0.028 -0.01,-0.005 -0.025,-0.007 -0.045,-0.007 -0.021,0 -0.036,0.003 -0.047,0.008 -0.011,0.005 -0.018,0.015 -0.023,0.029 -0.004,0.014 -0.007,0.035 -0.007,0.062zm0 0.128l0 0.185 -0.078 0 0 -0.468 0.075 0 -0.003 0.047 0.002 0c0.013,-0.019 0.027,-0.033 0.043,-0.04 0.015,-0.007 0.035,-0.011 0.059,-0.011 0.036,0 0.063,0.006 0.082,0.019 0.019,0.013 0.032,0.031 0.038,0.055 0.007,0.024 0.01,0.055 0.01,0.093 0,0.027 -0.001,0.051 -0.004,0.07 -0.002,0.02 -0.008,0.037 -0.016,0.052 -0.008,0.015 -0.021,0.027 -0.038,0.036 -0.017,0.009 -0.04,0.013 -0.068,0.013 -0.026,0 -0.047,-0.003 -0.063,-0.01 -0.016,-0.007 -0.029,-0.02 -0.04,-0.04z"/>
  <path id="14" class="fil0" d="M6.141 1.54l0.078 0 0 0.012c0,0.026 -0.006,0.047 -0.018,0.061 -0.012,0.014 -0.029,0.024 -0.051,0.029 -0.022,0.005 -0.049,0.008 -0.083,0.008 -0.038,0 -0.068,-0.005 -0.09,-0.016 -0.022,-0.01 -0.037,-0.028 -0.046,-0.053 -0.009,-0.024 -0.014,-0.058 -0.014,-0.101 0,-0.042 0.005,-0.076 0.014,-0.101 0.01,-0.025 0.025,-0.043 0.047,-0.054 0.022,-0.011 0.052,-0.017 0.089,-0.017 0.037,0 0.067,0.006 0.089,0.017 0.022,0.011 0.038,0.029 0.048,0.053 0.01,0.024 0.015,0.055 0.015,0.094l0 0.023 -0.223 0c0,0.026 0.002,0.046 0.006,0.06 0.004,0.013 0.011,0.023 0.021,0.028 0.01,0.005 0.025,0.008 0.044,0.008 0.018,0 0.032,-0.001 0.043,-0.004 0.01,-0.003 0.018,-0.007 0.023,-0.014 0.005,-0.007 0.008,-0.016 0.008,-0.029l0 -0.006zm0.001 -0.095c0,-0.02 -0.002,-0.035 -0.007,-0.046 -0.005,-0.011 -0.012,-0.019 -0.023,-0.024 -0.011,-0.005 -0.025,-0.007 -0.044,-0.007 -0.018,0 -0.033,0.002 -0.043,0.007 -0.01,0.005 -0.018,0.013 -0.022,0.024 -0.004,0.011 -0.007,0.027 -0.007,0.046l0.146 0z"/>
  <path id="15" class="fil0" d="M6.568 1.315l-0.088 0.349c-0.005,0.021 -0.01,0.038 -0.016,0.053 -0.006,0.015 -0.013,0.028 -0.022,0.039 -0.009,0.011 -0.02,0.02 -0.035,0.026 -0.015,0.006 -0.032,0.009 -0.053,0.009 -0.015,0 -0.026,-0.001 -0.033,-0.002l0 -0.057c0.006,0.001 0.012,0.002 0.018,0.002 0.02,-0 0.034,-0.008 0.042,-0.022 0.009,-0.014 0.017,-0.037 0.024,-0.068l-0.041 0 -0.108 -0.329 0.083 0 0.082 0.279 0.064 -0.279 0.082 0z"/>
  <path id="16" class="fil0" d="M6.644 1.315l0.274 0 0 0.329 -0.078 0 0 -0.268 -0.119 0 0 0.167c0,0.021 -0.003,0.039 -0.009,0.055 -0.006,0.016 -0.016,0.028 -0.029,0.037 -0.013,0.009 -0.03,0.013 -0.049,0.013 -0.022,0 -0.038,-0.001 -0.048,-0.003l0 -0.059c0.007,0.001 0.014,0.002 0.02,0.002 0.015,0 0.025,-0.004 0.031,-0.012 0.006,-0.008 0.008,-0.021 0.008,-0.039l0 -0.221z"/>
  <path id="17" class="fil0" d="M6.989 1.479c0,-0.043 0.005,-0.077 0.014,-0.101 0.009,-0.024 0.025,-0.041 0.047,-0.052 0.022,-0.011 0.054,-0.016 0.094,-0.016 0.04,0 0.072,0.005 0.094,0.016 0.023,0.01 0.038,0.028 0.048,0.052 0.009,0.024 0.014,0.058 0.014,0.101 0,0.032 -0.003,0.059 -0.008,0.08 -0.005,0.022 -0.014,0.039 -0.026,0.052 -0.012,0.013 -0.028,0.023 -0.048,0.029 -0.02,0.006 -0.045,0.009 -0.075,0.009 -0.03,0 -0.055,-0.003 -0.075,-0.009 -0.02,-0.006 -0.036,-0.016 -0.047,-0.029 -0.012,-0.013 -0.02,-0.031 -0.025,-0.052 -0.005,-0.021 -0.008,-0.048 -0.008,-0.081zm0.08 0c0,0.031 0.002,0.054 0.007,0.069 0.005,0.016 0.012,0.026 0.023,0.032 0.01,0.006 0.026,0.009 0.045,0.009 0.02,0 0.035,-0.003 0.046,-0.008 0.011,-0.006 0.018,-0.016 0.023,-0.032 0.005,-0.016 0.007,-0.039 0.007,-0.069 0,-0.023 -0.001,-0.042 -0.004,-0.055 -0.003,-0.014 -0.007,-0.025 -0.013,-0.032 -0.006,-0.008 -0.013,-0.013 -0.023,-0.016 -0.009,-0.003 -0.022,-0.005 -0.037,-0.005 -0.02,0 -0.035,0.003 -0.045,0.008 -0.01,0.006 -0.018,0.016 -0.023,0.031 -0.005,0.015 -0.007,0.038 -0.007,0.068z"/>
  <polygon id="18" class="fil0" points="7.446,1.315 7.446,1.443 7.465,1.443 7.557,1.315 7.647,1.315 7.529,1.47 7.669,1.644 7.574,1.644 7.465,1.497 7.446,1.497 7.446,1.644 7.367,1.644 7.367,1.315 "/>
  <polygon id="19" class="fil0" points="7.886,1.644 7.886,1.174 7.976,1.174 7.976,1.567 8.169,1.567 8.169,1.174 8.26,1.174 8.26,1.567 8.453,1.567 8.453,1.174 8.543,1.174 8.543,1.644 "/>
  <polygon id="20" class="fil0" points="8.702,1.315 8.702,1.443 8.721,1.443 8.813,1.315 8.903,1.315 8.786,1.47 8.926,1.644 8.831,1.644 8.721,1.497 8.702,1.497 8.702,1.644 8.624,1.644 8.624,1.315 "/>
  <path id="21" class="fil0" d="M8.961 1.479c0,-0.043 0.005,-0.077 0.014,-0.101 0.009,-0.024 0.025,-0.041 0.047,-0.052 0.022,-0.011 0.054,-0.016 0.094,-0.016 0.04,0 0.072,0.005 0.094,0.016 0.023,0.01 0.038,0.028 0.048,0.052 0.009,0.024 0.014,0.058 0.014,0.101 0,0.032 -0.003,0.059 -0.008,0.08 -0.005,0.022 -0.014,0.039 -0.026,0.052 -0.012,0.013 -0.028,0.023 -0.048,0.029 -0.02,0.006 -0.045,0.009 -0.075,0.009 -0.03,0 -0.055,-0.003 -0.075,-0.009 -0.02,-0.006 -0.036,-0.016 -0.047,-0.029 -0.012,-0.013 -0.02,-0.031 -0.025,-0.052 -0.005,-0.021 -0.008,-0.048 -0.008,-0.081zm0.08 0c0,0.031 0.002,0.054 0.007,0.069 0.005,0.016 0.012,0.026 0.023,0.032 0.01,0.006 0.026,0.009 0.045,0.009 0.02,0 0.035,-0.003 0.046,-0.008 0.011,-0.006 0.018,-0.016 0.023,-0.032 0.005,-0.016 0.007,-0.039 0.007,-0.069 0,-0.023 -0.001,-0.042 -0.004,-0.055 -0.003,-0.014 -0.007,-0.025 -0.013,-0.032 -0.006,-0.008 -0.013,-0.013 -0.023,-0.016 -0.009,-0.003 -0.022,-0.005 -0.037,-0.005 -0.02,0 -0.035,0.003 -0.045,0.008 -0.01,0.006 -0.018,0.016 -0.023,0.031 -0.005,0.015 -0.007,0.038 -0.007,0.068z"/>
  <path id="22" class="fil0" d="M9.369 1.315l0.274 0 0 0.329 -0.078 0 0 -0.268 -0.119 0 0 0.167c0,0.021 -0.003,0.039 -0.009,0.055 -0.006,0.016 -0.016,0.028 -0.029,0.037 -0.013,0.009 -0.03,0.013 -0.049,0.013 -0.022,0 -0.038,-0.001 -0.048,-0.003l0 -0.059c0.007,0.001 0.014,0.002 0.02,0.002 0.015,0 0.025,-0.004 0.031,-0.012 0.006,-0.008 0.008,-0.021 0.008,-0.039l0 -0.221z"/>
  <path id="23" class="fil0" d="M9.728 1.644l0 -0.329 0.078 0 0 0.126 0.11 0c0.03,0 0.054,0.008 0.07,0.025 0.017,0.017 0.025,0.042 0.025,0.076 0,0.034 -0.008,0.06 -0.025,0.077 -0.017,0.017 -0.04,0.026 -0.07,0.026l-0.188 0zm0.078 -0.147l0 0.09 0.078 0c0.017,0 0.029,-0.003 0.036,-0.01 0.008,-0.006 0.011,-0.018 0.011,-0.035 0,-0.017 -0.004,-0.029 -0.011,-0.035 -0.007,-0.006 -0.02,-0.009 -0.037,-0.009l-0.078 0z"/>
  <polygon id="24" class="fil0" points="10.159,1.501 10.297,1.501 10.297,1.644 10.376,1.644 10.376,1.315 10.297,1.315 10.297,1.44 10.159,1.44 10.159,1.315 10.08,1.315 10.08,1.644 10.159,1.644 "/>
  <path id="25" class="fil0" d="M10.46 1.645l0 -0.329 0.078 0 0 0.126 0.111 0c0.063,0 0.094,0.034 0.094,0.102 0,0.034 -0.008,0.06 -0.024,0.076 -0.016,0.017 -0.04,0.025 -0.07,0.025l-0.19 0zm0.078 -0.146l0 0.089 0.079 0c0.017,0 0.029,-0.003 0.036,-0.009 0.007,-0.006 0.011,-0.018 0.011,-0.035 0,-0.012 -0.002,-0.021 -0.005,-0.028 -0.003,-0.006 -0.008,-0.011 -0.015,-0.013 -0.007,-0.002 -0.016,-0.004 -0.027,-0.004l-0.078 0zm0.334 -0.183l0 0.329 -0.078 0 0 -0.329 0.078 0z"/>
  <path id="26" class="fil0" d="M10.955 1.315l0 0.329 0.096 0 0.107 -0.206c0.008,-0.015 0.02,-0.039 0.036,-0.073 -0.003,0.009 -0.007,0.024 -0.01,0.045 -0.004,0.021 -0.005,0.039 -0.005,0.052l0 0.181 0.075 0 0 -0.329 -0.096 0 -0.107 0.208c-0.006,0.01 -0.018,0.034 -0.036,0.073 0.004,-0.009 0.007,-0.023 0.01,-0.041 0.003,-0.018 0.005,-0.034 0.005,-0.049l0 -0.191 -0.075 0zm0.146 -0.023c-0.025,0 -0.045,-0.005 -0.059,-0.015 -0.014,-0.01 -0.021,-0.028 -0.021,-0.053l0.043 0c0,0.011 0.003,0.018 0.008,0.023 0.005,0.004 0.015,0.006 0.029,0.006 0.016,0 0.026,-0.002 0.031,-0.006 0.005,-0.004 0.007,-0.012 0.007,-0.023l0.043 0c0,0.025 -0.007,0.043 -0.021,0.053 -0.014,0.01 -0.034,0.015 -0.06,0.015z"/>
  <path id="27" class="fil0" d="M11.506 1.586c0.01,-0.013 0.017,-0.026 0.023,-0.038 0.005,-0.012 0.01,-0.027 0.012,-0.044 0.003,-0.017 0.004,-0.039 0.004,-0.065l0 -0.125 0.257 0 0 0.271 0.042 0 0 0.148 -0.072 0 0 -0.089 -0.229 0 0 0.089 -0.072 0 0 -0.148 0.035 0zm0.218 0l0 -0.213 -0.104 0 0 0.071c0,0.064 -0.012,0.111 -0.036,0.141l0.14 0z"/>
  <polygon id="28" class="fil0" points="11.969,1.559 11.969,1.644 11.89,1.644 11.89,1.559 "/>
  <path id="29" class="fil0" d="M12.562 1.573l0 0.071 -0.355 0 0 -0.097c0,-0.028 0.003,-0.05 0.01,-0.067 0.007,-0.017 0.017,-0.03 0.029,-0.039 0.013,-0.009 0.027,-0.015 0.044,-0.02 0.017,-0.004 0.04,-0.009 0.07,-0.014 0.032,-0.004 0.055,-0.009 0.069,-0.013 0.014,-0.004 0.025,-0.012 0.033,-0.023 0.008,-0.011 0.012,-0.029 0.012,-0.053 0,-0.023 -0.003,-0.041 -0.009,-0.052 -0.006,-0.011 -0.015,-0.019 -0.027,-0.023 -0.012,-0.004 -0.03,-0.005 -0.055,-0.005 -0.027,0 -0.047,0.002 -0.059,0.006 -0.013,0.004 -0.022,0.012 -0.027,0.024 -0.005,0.012 -0.008,0.031 -0.008,0.058l0 0.015 -0.085 0 0 -0.021c0,-0.041 0.005,-0.073 0.016,-0.095 0.011,-0.022 0.029,-0.037 0.054,-0.045 0.025,-0.008 0.061,-0.013 0.108,-0.013 0.031,0 0.057,0.002 0.078,0.006 0.021,0.004 0.039,0.011 0.054,0.022 0.015,0.011 0.026,0.026 0.034,0.046 0.008,0.02 0.012,0.045 0.012,0.077 0,0.034 -0.005,0.061 -0.015,0.081 -0.01,0.02 -0.023,0.035 -0.041,0.045 -0.017,0.01 -0.035,0.017 -0.052,0.021 -0.017,0.004 -0.048,0.009 -0.093,0.017 -0.022,0.004 -0.037,0.008 -0.047,0.013 -0.01,0.005 -0.016,0.012 -0.019,0.022 -0.003,0.009 -0.005,0.024 -0.005,0.043l0 0.013 0.271 0z"/>
  <path id="30" class="fil0" d="M12.728 1.304l0.053 0.029 -0.066 0.136 0.07 0.132 -0.049 0.033 -0.09 -0.165 0.082 -0.165zm0.128 -0.002l0.053 0.031 -0.067 0.135 0.071 0.132 -0.051 0.031 -0.09 -0.164 0.084 -0.166z"/>
  <path id="31" class="fil0" d="M13.044 1.37l0.001 0.001c0.006,-0.013 0.017,-0.026 0.032,-0.036 0.015,-0.011 0.034,-0.016 0.057,-0.016 0.028,0 0.052,0.003 0.071,0.01 0.019,0.006 0.034,0.016 0.045,0.029 0.011,0.013 0.019,0.03 0.025,0.05 0.005,0.02 0.008,0.045 0.008,0.073 0,0.042 -0.004,0.075 -0.014,0.1 -0.009,0.024 -0.025,0.042 -0.048,0.054 -0.023,0.012 -0.054,0.017 -0.095,0.017 -0.03,0 -0.055,-0.003 -0.075,-0.009 -0.02,-0.006 -0.035,-0.015 -0.047,-0.028 -0.012,-0.013 -0.02,-0.03 -0.025,-0.051 -0.005,-0.021 -0.008,-0.048 -0.008,-0.08l0 -0.105c0,-0.032 0.004,-0.061 0.013,-0.087 0.008,-0.026 0.024,-0.047 0.047,-0.063 0.023,-0.016 0.054,-0.025 0.094,-0.025 0.02,0 0.035,-0.001 0.046,-0.002 0.01,-0.001 0.018,-0.003 0.022,-0.006 0.004,-0.003 0.006,-0.008 0.006,-0.014l0.059 0c0,0.022 -0.005,0.038 -0.014,0.05 -0.01,0.012 -0.024,0.019 -0.042,0.023 -0.018,0.004 -0.041,0.006 -0.069,0.006 -0.032,0 -0.055,0.009 -0.069,0.026 -0.014,0.017 -0.022,0.039 -0.022,0.065l0 0.019 0.004 0zm0.008 0.109c0,0.025 0.002,0.044 0.005,0.059 0.003,0.015 0.008,0.026 0.014,0.033 0.006,0.007 0.014,0.012 0.023,0.015 0.009,0.002 0.02,0.004 0.034,0.004 0.019,0 0.033,-0.002 0.044,-0.007 0.01,-0.005 0.019,-0.015 0.024,-0.031 0.006,-0.016 0.008,-0.04 0.008,-0.072 0,-0.026 -0.003,-0.047 -0.008,-0.062 -0.005,-0.015 -0.013,-0.025 -0.024,-0.031 -0.011,-0.006 -0.025,-0.009 -0.044,-0.009 -0.018,0 -0.033,0.003 -0.044,0.009 -0.011,0.006 -0.019,0.016 -0.024,0.031 -0.005,0.014 -0.008,0.035 -0.008,0.062z"/>
  <path id="32" class="fil0" d="M13.529 1.304l0.082 0.165 -0.09 0.165 -0.051 -0.033 0.072 -0.132 -0.066 -0.136 0.053 -0.029zm-0.129 -0.002l0.083 0.166 -0.089 0.164 -0.05 -0.031 0.071 -0.132 -0.067 -0.135 0.053 -0.031z"/>
  <path class="fil0" d="M1.055 2.394c-0.029,0 -0.05,0.002 -0.063,0.005 -0.013,0.003 -0.022,0.01 -0.027,0.019 -0.005,0.009 -0.007,0.024 -0.007,0.045 0,0.019 0.003,0.034 0.008,0.045 0.005,0.011 0.015,0.018 0.028,0.022 0.014,0.004 0.034,0.007 0.061,0.007 0.027,0 0.047,-0.002 0.061,-0.007 0.014,-0.004 0.024,-0.012 0.029,-0.022 0.005,-0.01 0.008,-0.025 0.008,-0.044 0,-0.021 -0.002,-0.036 -0.008,-0.045 -0.005,-0.01 -0.014,-0.016 -0.027,-0.019 -0.013,-0.003 -0.034,-0.005 -0.062,-0.005zm0 -0.198c-0.026,0 -0.045,0.002 -0.058,0.006 -0.013,0.004 -0.021,0.01 -0.026,0.019 -0.005,0.009 -0.007,0.023 -0.007,0.042 0,0.014 0.001,0.026 0.004,0.034 0.003,0.008 0.007,0.015 0.014,0.019 0.006,0.004 0.015,0.007 0.027,0.009 0.011,0.002 0.027,0.002 0.047,0.002 0.02,0 0.036,-0.001 0.047,-0.002 0.011,-0.002 0.02,-0.004 0.026,-0.009 0.006,-0.004 0.011,-0.01 0.013,-0.019 0.002,-0.008 0.004,-0.02 0.004,-0.034 0,-0.019 -0.002,-0.033 -0.008,-0.042 -0.005,-0.009 -0.014,-0.016 -0.026,-0.019 -0.013,-0.003 -0.031,-0.005 -0.056,-0.005zm-0.101 0.163c-0.02,-0.006 -0.035,-0.014 -0.046,-0.024 -0.011,-0.01 -0.019,-0.021 -0.023,-0.034 -0.004,-0.013 -0.006,-0.029 -0.006,-0.048 0,-0.024 0.003,-0.044 0.01,-0.06 0.006,-0.016 0.016,-0.029 0.03,-0.038 0.014,-0.01 0.032,-0.016 0.054,-0.021 0.022,-0.004 0.05,-0.006 0.083,-0.006 0.044,0 0.079,0.004 0.104,0.011 0.025,0.008 0.043,0.021 0.055,0.039 0.011,0.018 0.017,0.044 0.017,0.076 0,0.02 -0.002,0.036 -0.005,0.049 -0.004,0.013 -0.011,0.024 -0.021,0.034 -0.01,0.01 -0.026,0.017 -0.046,0.023 0.021,0.005 0.037,0.012 0.049,0.021 0.012,0.009 0.02,0.021 0.024,0.034 0.005,0.014 0.007,0.031 0.007,0.052 0,0.026 -0.003,0.048 -0.009,0.066 -0.006,0.017 -0.016,0.031 -0.029,0.042 -0.014,0.011 -0.032,0.019 -0.056,0.024 -0.024,0.005 -0.053,0.008 -0.089,0.008 -0.035,0 -0.065,-0.002 -0.089,-0.008 -0.024,-0.005 -0.042,-0.013 -0.056,-0.024 -0.014,-0.011 -0.024,-0.025 -0.029,-0.043 -0.006,-0.018 -0.009,-0.039 -0.009,-0.066 0,-0.021 0.002,-0.038 0.008,-0.052 0.005,-0.014 0.013,-0.026 0.025,-0.035 0.012,-0.009 0.028,-0.016 0.049,-0.021z"/>
  <path id="1" class="fil0" d="M1.632 2.125l0 0.073c-0.024,0 -0.04,0.005 -0.049,0.016 -0.009,0.01 -0.013,0.03 -0.013,0.059l0 0.249c0,0.031 0.004,0.052 0.011,0.063 0.007,0.011 0.02,0.016 0.038,0.016l0.013 0 0 0.073c-0.034,0 -0.061,-0.004 -0.081,-0.011 -0.02,-0.007 -0.035,-0.019 -0.044,-0.034 -0.01,-0.015 -0.016,-0.034 -0.019,-0.056 -0.003,-0.023 -0.004,-0.053 -0.004,-0.09l0 -0.168c0,-0.036 0.001,-0.065 0.004,-0.087 0.003,-0.022 0.009,-0.04 0.019,-0.056 0.01,-0.015 0.025,-0.027 0.045,-0.035 0.02,-0.008 0.047,-0.012 0.081,-0.012z"/>
  <path id="2" class="fil0" d="M1.847 2.395l0 -0.068 0.05 0c0.022,0 0.038,-0.001 0.048,-0.004 0.01,-0.003 0.017,-0.009 0.02,-0.018 0.004,-0.009 0.006,-0.025 0.006,-0.046 0,-0.017 -0.003,-0.03 -0.008,-0.039 -0.005,-0.009 -0.014,-0.015 -0.027,-0.018 -0.013,-0.003 -0.031,-0.005 -0.056,-0.005 -0.027,0 -0.047,0.002 -0.06,0.007 -0.012,0.004 -0.021,0.012 -0.025,0.024 -0.004,0.012 -0.006,0.03 -0.006,0.055l-0.084 0c0,-0.039 0.006,-0.07 0.017,-0.093 0.011,-0.023 0.029,-0.039 0.053,-0.049 0.025,-0.01 0.058,-0.015 0.099,-0.015 0.045,0 0.081,0.004 0.107,0.012 0.026,0.008 0.045,0.021 0.057,0.039 0.012,0.018 0.017,0.042 0.017,0.073 0,0.022 -0.002,0.04 -0.005,0.054 -0.004,0.015 -0.011,0.027 -0.022,0.037 -0.011,0.01 -0.027,0.016 -0.048,0.019l0 0.003c0.021,0.003 0.038,0.008 0.05,0.016 0.012,0.008 0.021,0.019 0.026,0.033 0.005,0.014 0.008,0.032 0.008,0.054 0,0.024 -0.003,0.045 -0.008,0.062 -0.005,0.017 -0.014,0.032 -0.027,0.044 -0.013,0.012 -0.032,0.021 -0.056,0.027 -0.024,0.006 -0.054,0.009 -0.091,0.009 -0.046,0 -0.082,-0.005 -0.109,-0.014 -0.027,-0.009 -0.046,-0.024 -0.058,-0.044 -0.012,-0.02 -0.017,-0.047 -0.017,-0.08l0 -0.026 0.083 0c0,0.028 0.002,0.048 0.006,0.06 0.004,0.012 0.013,0.021 0.027,0.026 0.014,0.005 0.036,0.007 0.067,0.007 0.026,0 0.046,-0.002 0.06,-0.008 0.014,-0.005 0.023,-0.013 0.028,-0.024 0.005,-0.011 0.008,-0.026 0.008,-0.045 0,-0.019 -0.002,-0.033 -0.007,-0.042 -0.005,-0.009 -0.013,-0.015 -0.023,-0.018 -0.011,-0.003 -0.026,-0.005 -0.045,-0.005l-0.055 0z"/>
  <path id="3" class="fil0" d="M2.466 2.131l0 0.302 0.055 0 0 0.067 -0.055 0 0 0.101 -0.087 0 0 -0.101 -0.255 0 0 -0.097 0.209 -0.272 0.132 0zm-0.27 0.302l0.184 0 0 -0.237 -0.184 0.237z"/>
  <polygon id="4" class="fil0" points="2.857,2.132 2.857,2.601 2.771,2.601 2.771,2.207 2.649,2.328 2.597,2.273 2.748,2.132 "/>
  <path id="5" class="fil0" d="M3.35 2.131l0 0.302 0.055 0 0 0.067 -0.055 0 0 0.101 -0.087 0 0 -0.101 -0.255 0 0 -0.097 0.209 -0.272 0.132 0zm-0.27 0.302l0.184 0 0 -0.237 -0.184 0.237z"/>
  <polygon id="6" class="fil0" points="3.741,2.132 3.741,2.601 3.654,2.601 3.654,2.207 3.533,2.328 3.481,2.273 3.632,2.132 "/>
  <path id="7" class="fil0" d="M3.91 2.125l0 0.073c0.024,0 0.04,0.006 0.049,0.017 0.009,0.011 0.013,0.031 0.013,0.06l0 0.243c0,0.031 -0.004,0.053 -0.012,0.065 -0.008,0.012 -0.02,0.018 -0.038,0.018l-0.012 0 0 0.073c0.034,0 0.061,-0.004 0.081,-0.011 0.02,-0.008 0.035,-0.019 0.045,-0.034 0.01,-0.015 0.016,-0.034 0.019,-0.057 0.003,-0.023 0.005,-0.052 0.005,-0.09l0 -0.168c0,-0.036 -0.001,-0.064 -0.004,-0.087 -0.003,-0.022 -0.01,-0.041 -0.019,-0.056 -0.01,-0.015 -0.025,-0.027 -0.045,-0.035 -0.02,-0.008 -0.047,-0.012 -0.081,-0.012z"/>
  <polygon id="8" class="fil0" points="4.641,2.131 4.641,2.218 4.449,2.601 4.352,2.601 4.555,2.206 4.293,2.206 4.293,2.131 "/>
  <path id="9" class="fil0" d="M5.251 2.131l0 0.068 -0.25 0 0 0.117c0.012,-0.015 0.027,-0.025 0.045,-0.03 0.018,-0.005 0.04,-0.007 0.066,-0.007 0.028,0 0.052,0.003 0.072,0.009 0.02,0.006 0.037,0.015 0.049,0.027 0.013,0.012 0.022,0.028 0.029,0.047 0.006,0.019 0.009,0.042 0.009,0.069 0,0.034 -0.002,0.061 -0.007,0.082 -0.005,0.021 -0.013,0.039 -0.026,0.053 -0.012,0.014 -0.031,0.024 -0.054,0.031 -0.024,0.007 -0.055,0.01 -0.093,0.01 -0.034,0 -0.062,-0.002 -0.084,-0.007 -0.022,-0.004 -0.04,-0.012 -0.055,-0.022 -0.014,-0.011 -0.025,-0.025 -0.031,-0.043 -0.007,-0.018 -0.01,-0.041 -0.01,-0.069l0.087 0c0,0.019 0.003,0.034 0.009,0.045 0.006,0.01 0.015,0.017 0.027,0.021 0.012,0.003 0.028,0.005 0.047,0.005 0.029,0 0.051,-0.003 0.065,-0.008 0.014,-0.005 0.024,-0.014 0.029,-0.027 0.005,-0.013 0.007,-0.032 0.007,-0.058 0,-0.025 -0.002,-0.044 -0.006,-0.057 -0.004,-0.013 -0.012,-0.023 -0.023,-0.028 -0.011,-0.006 -0.027,-0.008 -0.049,-0.008l-0.031 0c-0.02,0 -0.036,0.002 -0.048,0.006 -0.013,0.004 -0.021,0.013 -0.024,0.027l-0.079 0 0 -0.251 0.329 0z"/>
  <path id="10" class="fil0" d="M5.732 2.367c0,0.053 -0.002,0.095 -0.007,0.124 -0.005,0.03 -0.014,0.053 -0.027,0.07 -0.014,0.017 -0.033,0.029 -0.059,0.035 -0.026,0.007 -0.061,0.01 -0.106,0.01 -0.045,0 -0.08,-0.003 -0.105,-0.01 -0.025,-0.007 -0.044,-0.018 -0.058,-0.035 -0.013,-0.017 -0.022,-0.04 -0.026,-0.07 -0.004,-0.03 -0.007,-0.071 -0.007,-0.125 0,-0.053 0.002,-0.095 0.007,-0.125 0.005,-0.03 0.013,-0.053 0.027,-0.07 0.013,-0.017 0.033,-0.029 0.058,-0.035 0.025,-0.007 0.06,-0.01 0.105,-0.01 0.045,0 0.081,0.003 0.106,0.01 0.025,0.007 0.045,0.018 0.058,0.035 0.013,0.017 0.022,0.04 0.027,0.07 0.005,0.03 0.007,0.071 0.007,0.125zm-0.307 0c0,0.042 0.001,0.074 0.003,0.093 0.002,0.02 0.006,0.035 0.013,0.045 0.007,0.01 0.017,0.017 0.03,0.02 0.014,0.003 0.034,0.005 0.062,0.005 0.028,0 0.049,-0.002 0.063,-0.005 0.014,-0.003 0.024,-0.01 0.031,-0.02 0.007,-0.01 0.012,-0.025 0.014,-0.045 0.002,-0.02 0.003,-0.051 0.003,-0.093 0,-0.043 -0.001,-0.074 -0.003,-0.094 -0.002,-0.02 -0.006,-0.035 -0.013,-0.045 -0.007,-0.01 -0.017,-0.017 -0.031,-0.02 -0.014,-0.003 -0.035,-0.004 -0.064,-0.004 -0.028,0 -0.049,0.002 -0.063,0.005 -0.014,0.003 -0.024,0.01 -0.031,0.021 -0.007,0.011 -0.011,0.026 -0.013,0.045 -0.002,0.02 -0.003,0.051 -0.003,0.093z"/>
  <path id="11" class="fil0" d="M6.137 2.394c-0.029,0 -0.05,0.002 -0.063,0.005 -0.013,0.003 -0.022,0.01 -0.027,0.019 -0.005,0.009 -0.007,0.024 -0.007,0.045 0,0.019 0.003,0.034 0.008,0.045 0.005,0.011 0.015,0.018 0.028,0.022 0.014,0.004 0.034,0.007 0.061,0.007 0.027,0 0.047,-0.002 0.061,-0.007 0.014,-0.004 0.024,-0.012 0.029,-0.022 0.005,-0.01 0.008,-0.025 0.008,-0.044 0,-0.021 -0.002,-0.036 -0.008,-0.045 -0.005,-0.01 -0.014,-0.016 -0.027,-0.019 -0.013,-0.003 -0.034,-0.005 -0.062,-0.005zm0 -0.198c-0.026,0 -0.045,0.002 -0.058,0.006 -0.013,0.004 -0.021,0.01 -0.026,0.019 -0.005,0.009 -0.007,0.023 -0.007,0.042 0,0.014 0.001,0.026 0.004,0.034 0.003,0.008 0.007,0.015 0.014,0.019 0.006,0.004 0.015,0.007 0.027,0.009 0.011,0.002 0.027,0.002 0.047,0.002 0.02,0 0.036,-0.001 0.047,-0.002 0.011,-0.002 0.02,-0.004 0.026,-0.009 0.006,-0.004 0.011,-0.01 0.013,-0.019 0.002,-0.008 0.004,-0.02 0.004,-0.034 0,-0.019 -0.002,-0.033 -0.008,-0.042 -0.005,-0.009 -0.014,-0.016 -0.026,-0.019 -0.013,-0.003 -0.031,-0.005 -0.056,-0.005zm-0.101 0.163c-0.02,-0.006 -0.035,-0.014 -0.046,-0.024 -0.011,-0.01 -0.019,-0.021 -0.023,-0.034 -0.004,-0.013 -0.006,-0.029 -0.006,-0.048 0,-0.024 0.003,-0.044 0.01,-0.06 0.006,-0.016 0.016,-0.029 0.03,-0.038 0.014,-0.01 0.032,-0.016 0.054,-0.021 0.022,-0.004 0.05,-0.006 0.083,-0.006 0.044,0 0.079,0.004 0.104,0.011 0.025,0.008 0.043,0.021 0.055,0.039 0.011,0.018 0.017,0.044 0.017,0.076 0,0.02 -0.002,0.036 -0.005,0.049 -0.004,0.013 -0.011,0.024 -0.021,0.034 -0.01,0.01 -0.026,0.017 -0.046,0.023 0.021,0.005 0.037,0.012 0.049,0.021 0.012,0.009 0.02,0.021 0.024,0.034 0.005,0.014 0.007,0.031 0.007,0.052 0,0.026 -0.003,0.048 -0.009,0.066 -0.006,0.017 -0.016,0.031 -0.029,0.042 -0.014,0.011 -0.032,0.019 -0.056,0.024 -0.024,0.005 -0.053,0.008 -0.089,0.008 -0.035,0 -0.065,-0.002 -0.089,-0.008 -0.024,-0.005 -0.042,-0.013 -0.056,-0.024 -0.014,-0.011 -0.024,-0.025 -0.029,-0.043 -0.006,-0.018 -0.009,-0.039 -0.009,-0.066 0,-0.021 0.002,-0.038 0.008,-0.052 0.005,-0.014 0.013,-0.026 0.025,-0.035 0.012,-0.009 0.028,-0.016 0.049,-0.021z"/>
  <polygon id="12" class="fil0" points="6.744,2.131 6.744,2.218 6.552,2.601 6.456,2.601 6.658,2.206 6.396,2.206 6.396,2.131 "/>
  <path class="fil0" d="M1.165 3.317l0.089 0 0 0.028c0,0.036 -0.006,0.065 -0.019,0.086 -0.012,0.021 -0.033,0.036 -0.061,0.046 -0.028,0.009 -0.067,0.014 -0.115,0.014 -0.04,0 -0.072,-0.004 -0.097,-0.011 -0.025,-0.007 -0.045,-0.02 -0.06,-0.039 -0.015,-0.018 -0.025,-0.043 -0.032,-0.075 -0.006,-0.031 -0.009,-0.073 -0.009,-0.124 0,-0.056 0.006,-0.101 0.017,-0.134 0.011,-0.033 0.031,-0.058 0.059,-0.074 0.028,-0.016 0.068,-0.024 0.119,-0.024 0.051,0 0.09,0.006 0.117,0.018 0.027,0.012 0.046,0.029 0.058,0.052 0.011,0.023 0.018,0.054 0.021,0.093l-0.088 0c-0.001,-0.025 -0.005,-0.043 -0.012,-0.055 -0.006,-0.012 -0.017,-0.02 -0.031,-0.024 -0.014,-0.004 -0.036,-0.006 -0.065,-0.006 -0.03,0 -0.051,0.004 -0.065,0.011 -0.014,0.008 -0.024,0.023 -0.029,0.045 -0.005,0.022 -0.008,0.058 -0.008,0.106 0,0.034 0.002,0.062 0.005,0.083 0.003,0.021 0.008,0.037 0.016,0.049 0.008,0.011 0.018,0.02 0.031,0.024 0.013,0.004 0.031,0.007 0.053,0.007 0.028,0 0.05,-0.002 0.065,-0.006 0.015,-0.004 0.026,-0.01 0.033,-0.02 0.006,-0.01 0.01,-0.023 0.01,-0.041l0 -0.029z"/>
  <polygon id="1" class="fil0" points="1.386,3.218 1.525,3.218 1.525,3.486 1.603,3.486 1.603,3.157 1.308,3.157 1.308,3.486 1.386,3.486 "/>
  <path id="2" class="fil0" d="M1.894 3.382l0.078 0 0 0.012c0,0.026 -0.006,0.047 -0.018,0.061 -0.012,0.014 -0.029,0.024 -0.051,0.029 -0.022,0.005 -0.049,0.008 -0.083,0.008 -0.038,0 -0.068,-0.005 -0.09,-0.016 -0.022,-0.01 -0.037,-0.028 -0.046,-0.053 -0.009,-0.024 -0.014,-0.058 -0.014,-0.101 0,-0.042 0.005,-0.076 0.014,-0.101 0.01,-0.025 0.025,-0.043 0.047,-0.054 0.022,-0.011 0.052,-0.017 0.089,-0.017 0.037,0 0.067,0.006 0.089,0.017 0.022,0.011 0.038,0.029 0.048,0.053 0.01,0.024 0.015,0.055 0.015,0.094l0 0.023 -0.223 0c0,0.026 0.002,0.046 0.006,0.06 0.004,0.013 0.011,0.023 0.021,0.028 0.01,0.005 0.025,0.008 0.044,0.008 0.018,0 0.032,-0.001 0.043,-0.004 0.01,-0.003 0.018,-0.007 0.023,-0.014 0.005,-0.007 0.008,-0.016 0.008,-0.029l0 -0.006zm0.001 -0.095c0,-0.02 -0.002,-0.035 -0.007,-0.046 -0.005,-0.011 -0.012,-0.019 -0.023,-0.024 -0.011,-0.005 -0.025,-0.007 -0.044,-0.007 -0.018,0 -0.033,0.002 -0.043,0.007 -0.01,0.005 -0.018,0.013 -0.022,0.024 -0.004,0.011 -0.007,0.027 -0.007,0.046l0.146 0z"/>
  <polygon id="3" class="fil0" points="2.118,3.425 2.257,3.425 2.257,3.156 2.336,3.156 2.336,3.425 2.378,3.425 2.378,3.575 2.305,3.575 2.305,3.486 2.039,3.486 2.039,3.156 2.118,3.156 "/>
  <path id="4" class="fil0" d="M2.43 3.157l0 0.329 0.096 0 0.107 -0.205c0.005,-0.01 0.017,-0.034 0.036,-0.074 -0.003,0.009 -0.007,0.024 -0.01,0.045 -0.004,0.022 -0.005,0.039 -0.005,0.052l0 0.181 0.075 0 0 -0.329 -0.096 0 -0.107 0.206c-0.007,0.013 -0.019,0.038 -0.036,0.074 0.003,-0.009 0.007,-0.023 0.01,-0.041 0.003,-0.018 0.005,-0.034 0.005,-0.048l0 -0.191 -0.075 0z"/>
  <path id="5" class="fil0" d="M3.018 3.486l0.006 -0.045 -0.002 0c-0.007,0.015 -0.015,0.026 -0.025,0.033 -0.01,0.007 -0.021,0.012 -0.034,0.014 -0.013,0.002 -0.03,0.003 -0.05,0.003 -0.028,0 -0.051,-0.003 -0.068,-0.01 -0.017,-0.007 -0.03,-0.018 -0.039,-0.033 -0.008,-0.015 -0.013,-0.035 -0.013,-0.06 0,-0.021 0.002,-0.038 0.007,-0.052 0.005,-0.014 0.012,-0.024 0.022,-0.032 0.01,-0.008 0.023,-0.013 0.039,-0.017 0.016,-0.003 0.036,-0.005 0.061,-0.005 0.029,0 0.05,0.003 0.062,0.009 0.013,0.006 0.023,0.017 0.03,0.033l0.004 0 0 -0.056c0,-0.018 -0.002,-0.032 -0.007,-0.041 -0.004,-0.01 -0.012,-0.016 -0.022,-0.02 -0.01,-0.004 -0.024,-0.005 -0.043,-0.005 -0.024,0 -0.04,0.003 -0.049,0.01 -0.009,0.007 -0.013,0.02 -0.013,0.039l-0.079 0c0.001,-0.02 0.004,-0.037 0.011,-0.05 0.007,-0.013 0.017,-0.024 0.029,-0.031 0.012,-0.007 0.026,-0.012 0.042,-0.015 0.016,-0.003 0.034,-0.004 0.056,-0.004 0.035,0 0.063,0.003 0.084,0.008 0.021,0.005 0.038,0.016 0.051,0.033 0.012,0.017 0.019,0.043 0.019,0.076l0 0.217 -0.078 0zm0 -0.099c0,-0.019 -0.005,-0.032 -0.016,-0.039 -0.011,-0.007 -0.031,-0.01 -0.061,-0.01 -0.017,0 -0.031,0.002 -0.041,0.005 -0.01,0.003 -0.017,0.008 -0.021,0.015 -0.004,0.007 -0.006,0.017 -0.006,0.03 0,0.018 0.005,0.031 0.015,0.038 0.01,0.007 0.027,0.011 0.052,0.011 0.028,0 0.048,-0.003 0.06,-0.01 0.012,-0.007 0.018,-0.02 0.018,-0.039z"/>
  <path id="6" class="fil0" d="M3.207 3.157l0.274 0 0 0.329 -0.078 0 0 -0.268 -0.119 0 0 0.167c0,0.021 -0.003,0.039 -0.009,0.055 -0.006,0.016 -0.016,0.028 -0.029,0.037 -0.013,0.009 -0.03,0.013 -0.049,0.013 -0.022,0 -0.038,-0.001 -0.048,-0.003l0 -0.059c0.007,0.001 0.014,0.002 0.02,0.002 0.015,0 0.025,-0.004 0.031,-0.012 0.006,-0.008 0.008,-0.021 0.008,-0.039l0 -0.221z"/>
  <path id="7" class="fil0" d="M3.566 3.157l0 0.329 0.096 0 0.107 -0.205c0.005,-0.01 0.017,-0.034 0.036,-0.074 -0.003,0.009 -0.007,0.024 -0.01,0.045 -0.004,0.022 -0.005,0.039 -0.005,0.052l0 0.181 0.075 0 0 -0.329 -0.096 0 -0.107 0.206c-0.007,0.013 -0.019,0.038 -0.036,0.074 0.003,-0.009 0.007,-0.023 0.01,-0.041 0.003,-0.018 0.005,-0.034 0.005,-0.048l0 -0.191 -0.075 0z"/>
  <path id="8" class="fil0" d="M4.152 3.361l0.077 0c0,0.024 -0.003,0.044 -0.008,0.06 -0.005,0.016 -0.013,0.03 -0.025,0.04 -0.012,0.01 -0.027,0.018 -0.045,0.023 -0.019,0.005 -0.042,0.007 -0.07,0.007 -0.038,0 -0.068,-0.005 -0.09,-0.016 -0.022,-0.011 -0.037,-0.028 -0.047,-0.052 -0.01,-0.024 -0.014,-0.058 -0.014,-0.101 0,-0.043 0.005,-0.077 0.014,-0.102 0.009,-0.025 0.025,-0.042 0.047,-0.053 0.022,-0.011 0.052,-0.016 0.09,-0.016 0.029,0 0.054,0.003 0.075,0.009 0.021,0.006 0.038,0.017 0.051,0.033 0.013,0.016 0.019,0.038 0.019,0.066l0 0.012 -0.076 0 0 -0.004c0,-0.016 -0.002,-0.027 -0.006,-0.035 -0.004,-0.008 -0.011,-0.013 -0.021,-0.016 -0.01,-0.003 -0.023,-0.004 -0.041,-0.004 -0.019,0 -0.033,0.003 -0.043,0.01 -0.01,0.006 -0.017,0.017 -0.021,0.033 -0.004,0.015 -0.006,0.038 -0.006,0.066 0,0.028 0.002,0.05 0.006,0.066 0.004,0.015 0.011,0.026 0.022,0.033 0.01,0.007 0.025,0.01 0.043,0.01 0.021,0 0.036,-0.002 0.046,-0.006 0.01,-0.004 0.017,-0.011 0.02,-0.021 0.003,-0.01 0.005,-0.024 0.005,-0.042z"/>
  <polygon id="9" class="fil0" points="4.373,3.486 4.452,3.486 4.452,3.218 4.557,3.218 4.557,3.157 4.268,3.157 4.268,3.218 4.373,3.218 "/>
  <polygon id="10" class="fil0" points="4.857,3.218 4.996,3.218 4.996,3.486 5.074,3.486 5.074,3.157 4.779,3.157 4.779,3.486 4.857,3.486 "/>
  <path id="11" class="fil0" d="M5.14 3.321c0,-0.043 0.005,-0.077 0.014,-0.101 0.009,-0.024 0.025,-0.041 0.047,-0.052 0.022,-0.011 0.054,-0.016 0.094,-0.016 0.04,0 0.072,0.005 0.094,0.016 0.023,0.01 0.038,0.028 0.048,0.052 0.009,0.024 0.014,0.058 0.014,0.101 0,0.032 -0.003,0.059 -0.008,0.08 -0.005,0.022 -0.014,0.039 -0.026,0.052 -0.012,0.013 -0.028,0.023 -0.048,0.029 -0.02,0.006 -0.045,0.009 -0.075,0.009 -0.03,0 -0.055,-0.003 -0.075,-0.009 -0.02,-0.006 -0.036,-0.016 -0.047,-0.029 -0.012,-0.013 -0.02,-0.031 -0.025,-0.052 -0.005,-0.021 -0.008,-0.048 -0.008,-0.081zm0.08 0c0,0.031 0.002,0.054 0.007,0.069 0.005,0.016 0.012,0.026 0.023,0.032 0.01,0.006 0.026,0.009 0.045,0.009 0.02,0 0.035,-0.003 0.046,-0.008 0.011,-0.006 0.018,-0.016 0.023,-0.032 0.005,-0.016 0.007,-0.039 0.007,-0.069 0,-0.023 -0.001,-0.042 -0.004,-0.055 -0.003,-0.014 -0.007,-0.025 -0.013,-0.032 -0.006,-0.008 -0.013,-0.013 -0.023,-0.016 -0.009,-0.003 -0.022,-0.005 -0.037,-0.005 -0.02,0 -0.035,0.003 -0.045,0.008 -0.01,0.006 -0.018,0.016 -0.023,0.031 -0.005,0.015 -0.007,0.038 -0.007,0.068z"/>
  <polygon id="12" class="fil0" points="5.867,3.486 5.944,3.486 5.944,3.339 5.963,3.339 6.062,3.486 6.153,3.486 6.029,3.311 6.134,3.157 6.047,3.157 5.963,3.285 5.944,3.285 5.944,3.157 5.867,3.157 5.867,3.285 5.847,3.285 5.764,3.157 5.676,3.157 5.781,3.311 5.657,3.486 5.748,3.486 5.847,3.339 5.867,3.339 "/>
  <path id="13" class="fil0" d="M6.416 3.486l0.006 -0.045 -0.002 0c-0.007,0.015 -0.015,0.026 -0.025,0.033 -0.01,0.007 -0.021,0.012 -0.034,0.014 -0.013,0.002 -0.03,0.003 -0.05,0.003 -0.028,0 -0.051,-0.003 -0.068,-0.01 -0.017,-0.007 -0.03,-0.018 -0.039,-0.033 -0.008,-0.015 -0.013,-0.035 -0.013,-0.06 0,-0.021 0.002,-0.038 0.007,-0.052 0.005,-0.014 0.012,-0.024 0.022,-0.032 0.01,-0.008 0.023,-0.013 0.039,-0.017 0.016,-0.003 0.036,-0.005 0.061,-0.005 0.029,0 0.05,0.003 0.062,0.009 0.013,0.006 0.023,0.017 0.03,0.033l0.004 0 0 -0.056c0,-0.018 -0.002,-0.032 -0.007,-0.041 -0.004,-0.01 -0.012,-0.016 -0.022,-0.02 -0.01,-0.004 -0.024,-0.005 -0.043,-0.005 -0.024,0 -0.04,0.003 -0.049,0.01 -0.009,0.007 -0.013,0.02 -0.013,0.039l-0.079 0c0.001,-0.02 0.004,-0.037 0.011,-0.05 0.007,-0.013 0.017,-0.024 0.029,-0.031 0.012,-0.007 0.026,-0.012 0.042,-0.015 0.016,-0.003 0.034,-0.004 0.056,-0.004 0.035,0 0.063,0.003 0.084,0.008 0.021,0.005 0.038,0.016 0.051,0.033 0.012,0.017 0.019,0.043 0.019,0.076l0 0.217 -0.078 0zm0 -0.099c0,-0.019 -0.005,-0.032 -0.016,-0.039 -0.011,-0.007 -0.031,-0.01 -0.061,-0.01 -0.017,0 -0.031,0.002 -0.041,0.005 -0.01,0.003 -0.017,0.008 -0.021,0.015 -0.004,0.007 -0.006,0.017 -0.006,0.03 0,0.018 0.005,0.031 0.015,0.038 0.01,0.007 0.027,0.011 0.052,0.011 0.028,0 0.048,-0.003 0.06,-0.01 0.012,-0.007 0.018,-0.02 0.018,-0.039z"/>
  <polygon id="14" class="fil0" points="6.654,3.343 6.792,3.343 6.792,3.486 6.871,3.486 6.871,3.157 6.792,3.157 6.792,3.282 6.654,3.282 6.654,3.157 6.575,3.157 6.575,3.486 6.654,3.486 "/>
  <path id="15" class="fil0" d="M7.033 3.313c0,0.033 0.002,0.057 0.005,0.072 0.003,0.016 0.01,0.027 0.021,0.034 0.01,0.007 0.027,0.01 0.05,0.01 0.022,0 0.039,-0.004 0.049,-0.012 0.01,-0.008 0.017,-0.02 0.02,-0.035 0.003,-0.015 0.004,-0.038 0.004,-0.067 0,-0.03 -0.002,-0.052 -0.006,-0.066 -0.004,-0.014 -0.011,-0.023 -0.021,-0.028 -0.01,-0.005 -0.025,-0.007 -0.045,-0.007 -0.021,0 -0.036,0.003 -0.047,0.008 -0.011,0.005 -0.018,0.015 -0.023,0.029 -0.004,0.014 -0.007,0.035 -0.007,0.062zm0 0.128l0 0.185 -0.078 0 0 -0.468 0.075 0 -0.003 0.047 0.002 0c0.013,-0.019 0.027,-0.033 0.043,-0.04 0.015,-0.007 0.035,-0.011 0.059,-0.011 0.036,0 0.063,0.006 0.082,0.019 0.019,0.013 0.032,0.031 0.038,0.055 0.007,0.024 0.01,0.055 0.01,0.093 0,0.027 -0.001,0.051 -0.004,0.07 -0.002,0.02 -0.008,0.037 -0.016,0.052 -0.008,0.015 -0.021,0.027 -0.038,0.036 -0.017,0.009 -0.04,0.013 -0.068,0.013 -0.026,0 -0.047,-0.003 -0.063,-0.01 -0.016,-0.007 -0.029,-0.02 -0.04,-0.04z"/>
  <path id="16" class="fil0" d="M7.543 3.486l0.006 -0.045 -0.002 0c-0.007,0.015 -0.015,0.026 -0.025,0.033 -0.01,0.007 -0.021,0.012 -0.034,0.014 -0.013,0.002 -0.03,0.003 -0.05,0.003 -0.028,0 -0.051,-0.003 -0.068,-0.01 -0.017,-0.007 -0.03,-0.018 -0.039,-0.033 -0.008,-0.015 -0.013,-0.035 -0.013,-0.06 0,-0.021 0.002,-0.038 0.007,-0.052 0.005,-0.014 0.012,-0.024 0.022,-0.032 0.01,-0.008 0.023,-0.013 0.039,-0.017 0.016,-0.003 0.036,-0.005 0.061,-0.005 0.029,0 0.05,0.003 0.062,0.009 0.013,0.006 0.023,0.017 0.03,0.033l0.004 0 0 -0.056c0,-0.018 -0.002,-0.032 -0.007,-0.041 -0.004,-0.01 -0.012,-0.016 -0.022,-0.02 -0.01,-0.004 -0.024,-0.005 -0.043,-0.005 -0.024,0 -0.04,0.003 -0.049,0.01 -0.009,0.007 -0.013,0.02 -0.013,0.039l-0.079 0c0.001,-0.02 0.004,-0.037 0.011,-0.05 0.007,-0.013 0.017,-0.024 0.029,-0.031 0.012,-0.007 0.026,-0.012 0.042,-0.015 0.016,-0.003 0.034,-0.004 0.056,-0.004 0.035,0 0.063,0.003 0.084,0.008 0.021,0.005 0.038,0.016 0.051,0.033 0.012,0.017 0.019,0.043 0.019,0.076l0 0.217 -0.078 0zm0 -0.099c0,-0.019 -0.005,-0.032 -0.016,-0.039 -0.011,-0.007 -0.031,-0.01 -0.061,-0.01 -0.017,0 -0.031,0.002 -0.041,0.005 -0.01,0.003 -0.017,0.008 -0.021,0.015 -0.004,0.007 -0.006,0.017 -0.006,0.03 0,0.018 0.005,0.031 0.015,0.038 0.01,0.007 0.027,0.011 0.052,0.011 0.028,0 0.048,-0.003 0.06,-0.01 0.012,-0.007 0.018,-0.02 0.018,-0.039z"/>
  <path id="17" class="fil0" d="M7.942 3.486l0.066 -0.198c0.005,-0.015 0.011,-0.031 0.018,-0.05 0.007,-0.019 0.011,-0.033 0.013,-0.041 -0.005,0.032 -0.007,0.06 -0.007,0.084l0 0.205 0.075 0 0 -0.329 -0.119 0 -0.074 0.221c-0.002,0.005 -0.005,0.023 -0.01,0.054 -0.004,-0.031 -0.008,-0.049 -0.01,-0.054l-0.073 -0.221 -0.119 0 0 0.329 0.074 0 0 -0.205c0,-0.024 -0.002,-0.052 -0.007,-0.084 0.002,0.007 0.007,0.024 0.016,0.048 0.009,0.025 0.014,0.039 0.015,0.043l0.066 0.198 0.077 0z"/>
  <g id="_2008571387376">
   <rect class="fil1" x="0" y="2.084" width="0.556" height="0.556" rx="0.111" ry="0.106"/>
   <g>
    <path class="fil2" d="M0.107 2.18c-0.001,0.003 -0.01,0.01 -0.016,0.033 -0.002,0.007 -0.004,0.023 -0.004,0.03 0,0.029 0.003,0.041 0.012,0.068 0.005,0.017 0.022,0.052 0.031,0.067 0.003,0.005 0.006,0.01 0.009,0.015 0.013,0.021 0.043,0.062 0.06,0.08l0.014 0.016c0.015,0.016 0.033,0.032 0.051,0.046l0.021 0.015c0.003,0.002 0.005,0.003 0.008,0.004 0.026,0.016 0.06,0.03 0.091,0.029 0.01,-0 0.03,-0.003 0.037,-0.01 -0.004,-0.005 -0.007,-0.009 -0.011,-0.014l-0.008 -0.011c-0.001,-0.001 -0.001,-0.002 -0.003,-0.003 -0.014,-0.018 -0.03,-0.038 -0.044,-0.055l-0.022 -0.027c-0.005,0.002 -0.005,0.004 -0.012,0.004 -0.017,0 -0.053,-0.039 -0.065,-0.053 -0.012,-0.013 -0.02,-0.024 -0.031,-0.038l-0.02 -0.029c-0.007,-0.011 -0.018,-0.029 -0.015,-0.043 0.001,-0.006 0.004,-0.008 0.007,-0.012l-0.068 -0.085c-0.004,-0.005 -0.007,-0.009 -0.011,-0.014 -0.002,-0.002 -0.004,-0.005 -0.006,-0.007 -0.002,-0.002 -0.004,-0.006 -0.006,-0.006z"/>
    <path class="fil2" d="M0.143 2.198c0.018,0.023 0.04,0.048 0.056,0.07l0.011 0.014c0.003,-0.001 0.021,-0.016 0.024,-0.018 0.008,-0.006 0.018,-0.014 0.012,-0.026 -0.002,-0.003 -0.016,-0.021 -0.02,-0.025l-0.046 -0.056c-0.014,-0.015 -0.015,-0.023 -0.037,-0.005l-0.023 0.019 0.023 0.029z"/>
    <path class="fil2" d="M0.386 2.423c-0.006,0 -0.009,0.002 -0.013,0.006 -0.005,0.004 -0.026,0.02 -0.028,0.023l0.02 0.025c0,0 0,0 0,0l0.068 0.085 0.009 -0.007c0.003,-0.002 0.006,-0.005 0.009,-0.007 0.003,-0.002 0.006,-0.005 0.009,-0.007 0.004,-0.003 0.006,-0.004 0.008,-0.008 0.005,-0.009 -0.001,-0.017 -0.006,-0.023l-0.051 -0.064c-0.001,-0.002 -0.002,-0.003 -0.004,-0.005 -0.008,-0.009 -0.012,-0.018 -0.022,-0.018z"/>
   </g>
  </g>
  <g id="_2008571323632">
   <rect class="fil1" x="0" y="1.201" width="0.556" height="0.556" rx="0.111" ry="0.106"/>
   <g>
    <path class="fil2" d="M0.201 1.399l0.072 -0.043c0.002,-0.001 0.003,-0.002 0.005,-0.003 0,0 0,0 0,0l0.071 0.043c0.001,0.001 0.004,0.003 0.005,0.003 -0.001,0.002 -0.009,0.015 -0.009,0.017l0 0.073 -0.135 0 0 -0.073c0,-0.001 -0.002,-0.004 -0.002,-0.004l-0.007 -0.012zm0.077 0.302c0.004,0 0.007,-0.002 0.009,-0.005l0.022 -0.026c0.001,-0.001 0.002,-0.002 0.003,-0.004 0.001,-0.001 0.002,-0.003 0.003,-0.004l0.009 -0.012c0.001,-0.001 0.002,-0.003 0.003,-0.004 0.001,-0.001 0.002,-0.003 0.003,-0.004l0.017 -0.024c0.006,-0.008 0.011,-0.016 0.017,-0.025l0.011 -0.017c0.002,-0.003 0.003,-0.006 0.005,-0.009 0.003,-0.006 0.007,-0.013 0.01,-0.018l0.005 -0.009c0.002,-0.003 0.003,-0.006 0.005,-0.009 0.001,-0.002 0.002,-0.003 0.002,-0.005 0.007,-0.014 0.013,-0.029 0.018,-0.044 0.001,-0.003 0.002,-0.007 0.003,-0.01 0.005,-0.019 0.01,-0.037 0.01,-0.059 0,-0.048 -0.021,-0.085 -0.045,-0.109l-0.013 -0.011c-0.004,-0.004 -0.009,-0.007 -0.014,-0.01 -0.004,-0.003 -0.008,-0.005 -0.012,-0.007l-0.007 -0.003c-0.038,-0.018 -0.082,-0.018 -0.122,-0.002 -0.008,0.003 -0.016,0.007 -0.023,0.012 -0.006,0.004 -0.012,0.008 -0.017,0.012l-0.009 0.008c-0.001,0.001 -0.002,0.002 -0.003,0.003l-0.008 0.01c-0.002,0.002 -0.004,0.004 -0.005,0.007 -0.008,0.011 -0.014,0.021 -0.019,0.034 -0.002,0.006 -0.004,0.012 -0.006,0.018 -0.001,0.002 -0.001,0.003 -0.001,0.005 -0.004,0.017 -0.005,0.035 -0.003,0.053 0.003,0.026 0.012,0.053 0.022,0.077 0.006,0.014 0.013,0.028 0.02,0.041 0.006,0.011 0.012,0.021 0.018,0.032 0.003,0.005 0.006,0.01 0.009,0.015 0.005,0.008 0.016,0.024 0.021,0.032l0.01 0.014c0.009,0.013 0.019,0.025 0.028,0.037 0.005,0.006 0.009,0.012 0.014,0.018 0.002,0.003 0.005,0.006 0.009,0.006z"/>
    <path class="fil2" d="M0.23 1.404l0 0.065 0.029 0 0 -0.048 0.039 0 0 0.048 0.029 0 0 -0.065c0,-0.001 -0.002,-0.002 -0.003,-0.002 -0.001,-0.001 -0.002,-0.001 -0.003,-0.002l-0.042 -0.025c-0.001,-0 -0.005,0.003 -0.006,0.003l-0.041 0.025c-0.001,0 -0.001,0 -0.001,0.001z"/>
   </g>
  </g>
  <g id="_2008571326704">
   <rect class="fil1" x="0" y="2.967" width="0.556" height="0.556" rx="0.111" ry="0.106"/>
   <g>
    <path class="fil2" d="M0.241 3.041c0,0.026 0.004,0.036 -0.005,0.043 -0.009,-0.006 -0.005,-0.001 -0.005,-0.032 -0.023,0.005 -0.039,0.039 -0.044,0.063 -0.002,0.011 0,0.006 -0.005,0.014 -0.003,0.005 -0.007,0.004 -0.007,0.012 0,0.037 0.132,0.037 0.175,0.025 0.014,-0.004 0.046,-0.016 0.032,-0.031 -0.02,-0.022 -0.003,-0.012 -0.018,-0.044 -0.006,-0.014 -0.02,-0.034 -0.034,-0.038 0,0.016 0,0.02 -0.003,0.032l-0.008 0c-0.003,-0.015 -0.003,-0.025 -0.003,-0.043 -0.036,-0.009 -0.054,-0.005 -0.075,0z"/>
    <path class="fil2" d="M0.184 3.194c0,0.028 0.017,0.042 0.031,0.073 0.02,0.044 0.089,0.079 0.132,-0.014 0.01,-0.022 0.024,-0.019 0.024,-0.064 0,-0.029 -0.018,-0.005 -0.075,-0.005 -0.06,0 -0.047,0.003 -0.104,-0.011 -0.004,0.006 -0.008,0.011 -0.008,0.021z"/>
    <path class="fil2" d="M0.157 3.448c0.023,0 0.041,0.005 0.067,0.005l0.11 0c0.027,0 0.045,-0.005 0.07,-0.005l0 -0.048 -0.246 0 0 0.048z"/>
    <path class="fil2" d="M0.198 3.288l0 0.086 0.163 0 0 -0.086 -0.019 -0.006c-0.023,0.035 -0.063,0.05 -0.102,0.025 -0.013,-0.008 -0.018,-0.017 -0.029,-0.025 -0.006,0.003 -0.006,0.004 -0.013,0.005z"/>
    <path class="fil2" d="M0.085 3.419c0,0.013 0.012,0.015 0.027,0.019 0.051,0.017 -0.021,-0.058 0.059,-0.065l0 -0.072c-0.044,0.004 -0.086,0.063 -0.086,0.118z"/>
    <path class="fil2" d="M0.385 3.309l0 0.064c0.051,0 0.046,0.027 0.046,0.067 0.015,-0 0.027,-0.008 0.04,-0.011l0 -0.015c-0,-0.013 -0.001,-0.02 -0.005,-0.034 -0.014,-0.045 -0.029,-0.056 -0.065,-0.075 -0.005,-0.003 -0.016,-0.01 -0.016,0.003z"/>
   </g>
  </g>
 </g>
</svg>
