<?xml version="1.0" encoding="UTF-8"?>
<!DOCTYPE svg PUBLIC "-//W3C//DTD SVG 1.1//EN" "http://www.w3.org/Graphics/SVG/1.1/DTD/svg11.dtd">
<!-- Creator: CorelDRAW 2019 (64-Bit) -->
<svg xmlns="http://www.w3.org/2000/svg" xml:space="preserve" width="2.63818cm" height="0.81508cm" version="1.1" style="shape-rendering:geometricPrecision; text-rendering:geometricPrecision; image-rendering:optimizeQuality; fill-rule:evenodd; clip-rule:evenodd"
viewBox="0 0 10.157 3.138"
 xmlns:xlink="http://www.w3.org/1999/xlink"
 xmlns:xodm="http://www.corel.com/coreldraw/odm/2003">
 <defs>
  <style type="text/css">
   <![CDATA[
    .fil1 {fill:#1B5A5C}
    .fil2 {fill:#29878C}
    .fil0 {fill:white;fill-rule:nonzero}
   ]]>
  </style>
 </defs>
 <g id="Слой_x0020_1">
  <metadata id="CorelCorpID_0Corel-Layer"/>
  <polygon class="fil0" points="0.86,0.431 1.098,0.431 1.098,0.005 1.195,0.005 1.195,0.431 1.241,0.431 1.241,0.632 1.15,0.632 1.15,0.514 0.762,0.514 0.762,0.005 0.86,0.005 "/>
  <path id="1" class="fil0" d="M1.614 0.332l0.096 0 0 0.03c0,0.039 -0.007,0.07 -0.02,0.093 -0.013,0.023 -0.035,0.039 -0.066,0.049 -0.031,0.01 -0.072,0.015 -0.124,0.015 -0.043,0 -0.078,-0.004 -0.105,-0.012 -0.027,-0.008 -0.049,-0.022 -0.065,-0.042 -0.016,-0.02 -0.027,-0.047 -0.034,-0.081 -0.007,-0.034 -0.01,-0.079 -0.01,-0.134 0,-0.061 0.006,-0.109 0.018,-0.145 0.012,-0.036 0.034,-0.062 0.064,-0.08 0.03,-0.017 0.073,-0.026 0.129,-0.026 0.055,0 0.097,0.006 0.127,0.019 0.03,0.013 0.05,0.032 0.062,0.057 0.012,0.025 0.019,0.058 0.022,0.1l-0.095 0c-0.002,-0.027 -0.006,-0.047 -0.013,-0.059 -0.007,-0.013 -0.018,-0.021 -0.034,-0.026 -0.016,-0.004 -0.039,-0.007 -0.07,-0.007 -0.032,0 -0.056,0.004 -0.071,0.012 -0.015,0.008 -0.026,0.024 -0.032,0.049 -0.006,0.024 -0.009,0.062 -0.009,0.115 0,0.037 0.002,0.067 0.005,0.09 0.003,0.023 0.009,0.04 0.017,0.053 0.008,0.012 0.02,0.021 0.034,0.026 0.014,0.005 0.033,0.007 0.057,0.007 0.03,0 0.054,-0.002 0.07,-0.006 0.017,-0.004 0.028,-0.011 0.035,-0.022 0.007,-0.01 0.01,-0.025 0.01,-0.044l0 -0.032z"/>
  <path id="2" class="fil0" d="M1.777 0.431c0.01,-0.011 0.018,-0.022 0.025,-0.035 0.007,-0.013 0.012,-0.027 0.016,-0.044 0.004,-0.016 0.007,-0.035 0.009,-0.057 0.002,-0.022 0.003,-0.047 0.003,-0.076l0 -0.215 0.368 0 0 0.426 0.046 0 0 0.201 -0.091 0 0 -0.118 -0.323 0 0 0.118 -0.092 0 0 -0.201 0.039 0zm0.148 -0.342l0 0.131c0,0.036 -0.001,0.068 -0.004,0.093 -0.003,0.026 -0.007,0.049 -0.014,0.068 -0.007,0.02 -0.016,0.036 -0.027,0.05l0.22 0 0 -0.342 -0.175 0z"/>
  <polygon id="3" class="fil0" points="2.407,0.005 2.407,0.213 2.452,0.213 2.622,0.005 2.742,0.005 2.536,0.253 2.764,0.514 2.64,0.514 2.452,0.297 2.407,0.297 2.407,0.514 2.309,0.514 2.309,0.005 "/>
  <path id="4" class="fil0" d="M3.079 0.146l0.057 0.032 -0.071 0.147 0.076 0.142 -0.054 0.036 -0.097 -0.178 0.089 -0.179zm0.139 -0.003l0.058 0.033 -0.073 0.146 0.077 0.143 -0.055 0.034 -0.097 -0.177 0.09 -0.179z"/>
  <path id="5" class="fil0" d="M3.482 0.219l0.079 0c0.03,0 0.053,-0.006 0.067,-0.017 0.014,-0.011 0.021,-0.029 0.021,-0.053 0,-0.019 -0.003,-0.033 -0.01,-0.044 -0.006,-0.011 -0.017,-0.018 -0.032,-0.022 -0.015,-0.004 -0.036,-0.007 -0.064,-0.007 -0.023,0 -0.041,0.001 -0.054,0.004 -0.013,0.002 -0.024,0.007 -0.032,0.012 -0.008,0.006 -0.013,0.014 -0.017,0.024 -0.003,0.01 -0.005,0.023 -0.005,0.039l-0.093 0c0.003,-0.041 0.011,-0.073 0.025,-0.095 0.014,-0.022 0.034,-0.038 0.062,-0.047 0.028,-0.009 0.066,-0.013 0.114,-0.013 0.067,0 0.116,0.011 0.148,0.032 0.032,0.021 0.049,0.054 0.049,0.099 0,0.036 -0.005,0.062 -0.016,0.08 -0.011,0.018 -0.029,0.031 -0.056,0.039l0 0.003c0.022,0.006 0.039,0.014 0.051,0.023 0.012,0.01 0.021,0.022 0.026,0.037 0.005,0.015 0.008,0.034 0.008,0.056 0,0.036 -0.006,0.064 -0.018,0.086 -0.012,0.022 -0.034,0.038 -0.064,0.049 -0.031,0.011 -0.073,0.016 -0.128,0.016 -0.034,0 -0.064,-0.002 -0.089,-0.006 -0.025,-0.004 -0.046,-0.011 -0.063,-0.022 -0.017,-0.01 -0.03,-0.025 -0.039,-0.045 -0.009,-0.019 -0.014,-0.045 -0.014,-0.075l0 -0.021 0.092 0c0.001,0.026 0.003,0.045 0.007,0.057 0.004,0.012 0.014,0.021 0.03,0.026 0.016,0.006 0.041,0.009 0.076,0.009 0.031,0 0.054,-0.002 0.071,-0.007 0.017,-0.005 0.029,-0.012 0.036,-0.023 0.007,-0.011 0.011,-0.025 0.011,-0.045 0,-0.027 -0.007,-0.047 -0.021,-0.059 -0.014,-0.012 -0.036,-0.018 -0.065,-0.018l-0.094 0 0 -0.073z"/>
  <path id="6" class="fil0" d="M3.806 0.335c0,-0.047 0.005,-0.083 0.015,-0.109 0.01,-0.026 0.027,-0.045 0.051,-0.056 0.024,-0.011 0.058,-0.017 0.102,-0.017 0.044,0 0.078,0.006 0.102,0.017 0.024,0.011 0.042,0.03 0.052,0.056 0.01,0.026 0.015,0.063 0.015,0.109 0,0.035 -0.003,0.064 -0.009,0.087 -0.006,0.023 -0.015,0.042 -0.028,0.056 -0.013,0.014 -0.03,0.025 -0.052,0.031 -0.021,0.006 -0.049,0.01 -0.081,0.01 -0.032,0 -0.059,-0.003 -0.081,-0.01 -0.022,-0.007 -0.039,-0.017 -0.051,-0.031 -0.013,-0.014 -0.022,-0.033 -0.027,-0.056 -0.006,-0.023 -0.008,-0.052 -0.008,-0.087zm0.087 0c0,0.033 0.002,0.058 0.007,0.075 0.005,0.017 0.013,0.028 0.024,0.034 0.011,0.006 0.028,0.009 0.049,0.01 0.021,0 0.038,-0.003 0.049,-0.009 0.012,-0.006 0.02,-0.018 0.025,-0.035 0.005,-0.017 0.008,-0.042 0.008,-0.075 0,-0.025 -0.001,-0.045 -0.004,-0.06 -0.003,-0.015 -0.007,-0.027 -0.014,-0.035 -0.006,-0.008 -0.014,-0.014 -0.024,-0.017 -0.01,-0.003 -0.023,-0.005 -0.04,-0.005 -0.021,0 -0.038,0.003 -0.049,0.009 -0.011,0.006 -0.019,0.017 -0.024,0.034 -0.005,0.017 -0.007,0.041 -0.007,0.074z"/>
  <path id="7" class="fil0" d="M4.247 0.158l0.297 0 0 0.356 -0.085 0 0 -0.29 -0.128 0 0 0.181c0,0.022 -0.003,0.042 -0.01,0.059 -0.007,0.017 -0.017,0.03 -0.032,0.04 -0.014,0.01 -0.032,0.014 -0.053,0.014 -0.024,0 -0.041,-0.001 -0.052,-0.003l0 -0.064c0.008,0.001 0.015,0.002 0.022,0.002 0.016,0 0.027,-0.004 0.033,-0.013 0.006,-0.009 0.009,-0.023 0.009,-0.043l0 -0.239z"/>
  <path id="8" class="fil0" d="M4.621 0.335c0,-0.047 0.005,-0.083 0.015,-0.109 0.01,-0.026 0.027,-0.045 0.051,-0.056 0.024,-0.011 0.058,-0.017 0.102,-0.017 0.044,0 0.078,0.006 0.102,0.017 0.024,0.011 0.042,0.03 0.052,0.056 0.01,0.026 0.015,0.063 0.015,0.109 0,0.035 -0.003,0.064 -0.009,0.087 -0.006,0.023 -0.015,0.042 -0.028,0.056 -0.013,0.014 -0.03,0.025 -0.052,0.031 -0.021,0.006 -0.049,0.01 -0.081,0.01 -0.032,0 -0.059,-0.003 -0.081,-0.01 -0.022,-0.007 -0.039,-0.017 -0.051,-0.031 -0.013,-0.014 -0.022,-0.033 -0.027,-0.056 -0.006,-0.023 -0.008,-0.052 -0.008,-0.087zm0.087 0c0,0.033 0.002,0.058 0.007,0.075 0.005,0.017 0.013,0.028 0.024,0.034 0.011,0.006 0.028,0.009 0.049,0.01 0.021,0 0.038,-0.003 0.049,-0.009 0.012,-0.006 0.02,-0.018 0.025,-0.035 0.005,-0.017 0.008,-0.042 0.008,-0.075 0,-0.025 -0.001,-0.045 -0.004,-0.06 -0.003,-0.015 -0.007,-0.027 -0.014,-0.035 -0.006,-0.008 -0.014,-0.014 -0.024,-0.017 -0.01,-0.003 -0.023,-0.005 -0.04,-0.005 -0.021,0 -0.038,0.003 -0.049,0.009 -0.011,0.006 -0.019,0.017 -0.024,0.034 -0.005,0.017 -0.007,0.041 -0.007,0.074z"/>
  <polygon id="9" class="fil0" points="5.118,0.514 5.203,0.514 5.203,0.224 5.317,0.224 5.317,0.158 5.004,0.158 5.004,0.224 5.118,0.224 "/>
  <path id="10" class="fil0" d="M5.604 0.514l0.007 -0.049 -0.002 0c-0.007,0.016 -0.016,0.028 -0.027,0.036 -0.011,0.008 -0.023,0.013 -0.037,0.016 -0.014,0.002 -0.032,0.004 -0.054,0.004 -0.03,0 -0.055,-0.004 -0.074,-0.011 -0.019,-0.007 -0.033,-0.019 -0.042,-0.035 -0.009,-0.016 -0.014,-0.038 -0.014,-0.065 0,-0.023 0.003,-0.041 0.007,-0.056 0.005,-0.015 0.013,-0.026 0.023,-0.035 0.011,-0.008 0.025,-0.014 0.042,-0.018 0.017,-0.004 0.039,-0.005 0.066,-0.005 0.031,0 0.054,0.003 0.067,0.01 0.014,0.007 0.025,0.019 0.032,0.035l0.004 0 0 -0.06c0,-0.019 -0.002,-0.034 -0.007,-0.045 -0.005,-0.01 -0.013,-0.018 -0.024,-0.021 -0.011,-0.004 -0.026,-0.006 -0.047,-0.006 -0.026,0 -0.043,0.004 -0.053,0.011 -0.01,0.007 -0.014,0.021 -0.014,0.042l-0.086 0c0.001,-0.022 0.005,-0.04 0.012,-0.054 0.007,-0.014 0.018,-0.025 0.031,-0.033 0.013,-0.008 0.028,-0.013 0.046,-0.016 0.017,-0.003 0.037,-0.004 0.06,-0.004 0.038,0 0.068,0.003 0.091,0.008 0.023,0.006 0.041,0.018 0.055,0.036 0.013,0.019 0.02,0.046 0.02,0.083l0 0.234 -0.085 0zm0 -0.107c0,-0.021 -0.006,-0.035 -0.018,-0.042 -0.012,-0.007 -0.034,-0.011 -0.066,-0.011 -0.019,0 -0.034,0.002 -0.044,0.005 -0.011,0.003 -0.018,0.009 -0.022,0.017 -0.004,0.008 -0.007,0.018 -0.007,0.032 0,0.02 0.005,0.033 0.016,0.042 0.011,0.008 0.029,0.012 0.056,0.012 0.031,0 0.052,-0.004 0.065,-0.011 0.013,-0.007 0.019,-0.022 0.019,-0.042z"/>
  <path id="11" class="fil0" d="M5.861 0.327c0,0.035 0.002,0.061 0.005,0.078 0.004,0.017 0.011,0.029 0.022,0.037 0.011,0.007 0.029,0.011 0.054,0.011 0.024,0 0.042,-0.004 0.053,-0.013 0.011,-0.009 0.018,-0.022 0.021,-0.038 0.003,-0.017 0.005,-0.041 0.005,-0.073 0,-0.032 -0.002,-0.056 -0.006,-0.071 -0.004,-0.015 -0.012,-0.025 -0.022,-0.03 -0.011,-0.005 -0.027,-0.008 -0.049,-0.008 -0.022,0 -0.039,0.003 -0.051,0.008 -0.012,0.006 -0.02,0.016 -0.025,0.031 -0.005,0.015 -0.007,0.038 -0.007,0.068zm0 0.138l0 0.2 -0.085 0 0 -0.507 0.082 0 -0.004 0.05 0.003 0c0.014,-0.021 0.029,-0.036 0.046,-0.044 0.017,-0.008 0.038,-0.012 0.064,-0.012 0.039,0 0.068,0.007 0.089,0.021 0.02,0.014 0.034,0.034 0.042,0.059 0.007,0.026 0.011,0.059 0.011,0.1 0,0.03 -0.001,0.055 -0.004,0.076 -0.003,0.021 -0.009,0.04 -0.018,0.057 -0.009,0.017 -0.023,0.03 -0.041,0.039 -0.018,0.009 -0.043,0.014 -0.073,0.014 -0.028,0 -0.051,-0.004 -0.068,-0.011 -0.017,-0.007 -0.032,-0.022 -0.044,-0.043z"/>
  <path id="12" class="fil0" d="M6.413 0.401l0.084 0 0 0.013c0,0.029 -0.007,0.051 -0.02,0.066 -0.013,0.016 -0.031,0.026 -0.055,0.031 -0.023,0.005 -0.053,0.008 -0.09,0.008 -0.041,0 -0.074,-0.006 -0.097,-0.017 -0.023,-0.011 -0.04,-0.03 -0.05,-0.057 -0.01,-0.026 -0.015,-0.063 -0.015,-0.109 0,-0.046 0.005,-0.082 0.016,-0.109 0.01,-0.027 0.027,-0.046 0.051,-0.058 0.024,-0.012 0.056,-0.018 0.096,-0.018 0.04,0 0.073,0.006 0.097,0.018 0.024,0.012 0.041,0.031 0.052,0.057 0.011,0.026 0.016,0.06 0.016,0.102l0 0.025 -0.242 0c0,0.029 0.002,0.05 0.007,0.065 0.005,0.015 0.012,0.025 0.023,0.031 0.011,0.006 0.027,0.009 0.048,0.009 0.019,0 0.035,-0.001 0.046,-0.004 0.011,-0.003 0.02,-0.008 0.025,-0.015 0.005,-0.007 0.008,-0.018 0.008,-0.031l0 -0.007zm0.001 -0.103c0,-0.021 -0.003,-0.038 -0.008,-0.05 -0.005,-0.012 -0.013,-0.021 -0.025,-0.026 -0.012,-0.005 -0.027,-0.008 -0.048,-0.008 -0.02,0 -0.035,0.003 -0.047,0.008 -0.011,0.005 -0.019,0.014 -0.024,0.026 -0.005,0.012 -0.007,0.029 -0.007,0.05l0.158 0z"/>
  <path id="13" class="fil0" d="M6.654 0.22l0 0.084 0.081 0c0.021,0 0.037,-0.003 0.046,-0.009 0.009,-0.006 0.014,-0.017 0.014,-0.031 0,-0.015 -0.004,-0.026 -0.012,-0.033 -0.008,-0.007 -0.021,-0.01 -0.039,-0.01l-0.089 0zm0 0.141l0 0.091 0.093 0c0.019,0 0.034,-0.004 0.042,-0.011 0.009,-0.007 0.013,-0.019 0.013,-0.034 0,-0.03 -0.017,-0.046 -0.051,-0.046l-0.097 0zm-0.084 0.153l0 -0.356 0.196 0c0.04,0 0.069,0.008 0.086,0.023 0.017,0.016 0.026,0.04 0.026,0.074 0,0.018 -0.006,0.034 -0.017,0.048 -0.012,0.013 -0.027,0.022 -0.047,0.027l0 0.002c0.022,0.004 0.04,0.013 0.053,0.028 0.013,0.014 0.02,0.033 0.02,0.057 0,0.023 -0.003,0.042 -0.01,0.056 -0.007,0.014 -0.018,0.025 -0.034,0.032 -0.016,0.007 -0.038,0.01 -0.066,0.01l-0.206 0z"/>
  <path id="14" class="fil0" d="M7.182 0.38l0.084 0c0,0.026 -0.003,0.048 -0.008,0.065 -0.005,0.018 -0.014,0.032 -0.027,0.043 -0.012,0.011 -0.029,0.019 -0.049,0.024 -0.02,0.005 -0.046,0.008 -0.076,0.008 -0.041,0 -0.074,-0.006 -0.098,-0.017 -0.024,-0.011 -0.041,-0.03 -0.051,-0.057 -0.01,-0.026 -0.015,-0.063 -0.015,-0.109 0,-0.047 0.005,-0.084 0.015,-0.11 0.01,-0.026 0.027,-0.046 0.051,-0.057 0.024,-0.011 0.056,-0.017 0.097,-0.017 0.031,0 0.058,0.003 0.081,0.01 0.023,0.007 0.041,0.019 0.055,0.036 0.014,0.017 0.021,0.041 0.021,0.072l0 0.013 -0.083 0 0 -0.005c0,-0.017 -0.002,-0.03 -0.007,-0.038 -0.005,-0.009 -0.012,-0.014 -0.022,-0.017 -0.01,-0.003 -0.025,-0.005 -0.045,-0.005 -0.02,0 -0.036,0.004 -0.047,0.011 -0.011,0.007 -0.019,0.019 -0.023,0.036 -0.005,0.017 -0.007,0.041 -0.007,0.072 0,0.031 0.002,0.054 0.007,0.071 0.005,0.017 0.012,0.029 0.023,0.036 0.011,0.007 0.026,0.011 0.047,0.011 0.022,0 0.039,-0.002 0.049,-0.007 0.011,-0.005 0.018,-0.012 0.021,-0.022 0.004,-0.01 0.005,-0.025 0.005,-0.046z"/>
  <polygon id="15" class="fil0" points="7.418,0.158 7.418,0.296 7.438,0.296 7.538,0.158 7.635,0.158 7.508,0.325 7.66,0.514 7.557,0.514 7.438,0.354 7.418,0.354 7.418,0.514 7.333,0.514 7.333,0.158 "/>
  <path id="16" class="fil0" d="M7.713 0.158l0 0.356 0.104 0 0.116 -0.222c0.006,-0.01 0.019,-0.037 0.039,-0.08 -0.004,0.009 -0.007,0.026 -0.011,0.049 -0.004,0.024 -0.006,0.042 -0.006,0.056l0 0.196 0.081 0 0 -0.356 -0.104 0 -0.116 0.223c-0.008,0.014 -0.02,0.041 -0.039,0.08 0.004,-0.01 0.007,-0.025 0.011,-0.044 0.004,-0.02 0.006,-0.037 0.006,-0.052l0 -0.207 -0.081 0z"/>
  <path id="17" class="fil0" d="M8.122 0.158l0 0.357 0.104 0 0.116 -0.223c0.009,-0.016 0.022,-0.042 0.039,-0.079 -0.004,0.01 -0.007,0.026 -0.011,0.049 -0.004,0.023 -0.006,0.042 -0.006,0.056l0 0.196 0.081 0 0 -0.357 -0.104 0 -0.116 0.225c-0.006,0.011 -0.019,0.037 -0.039,0.079 0.004,-0.01 0.008,-0.025 0.011,-0.044 0.004,-0.019 0.006,-0.037 0.006,-0.053l0 -0.207 -0.081 0zm0.158 -0.025c-0.027,0 -0.049,-0.005 -0.064,-0.016 -0.015,-0.011 -0.023,-0.03 -0.023,-0.057l0.047 0c0,0.012 0.003,0.02 0.009,0.024 0.006,0.004 0.016,0.007 0.032,0.007 0.017,0 0.028,-0.002 0.033,-0.006 0.005,-0.004 0.008,-0.013 0.008,-0.025l0.046 0c0,0.027 -0.008,0.047 -0.023,0.057 -0.015,0.011 -0.037,0.016 -0.065,0.016z"/>
  <path id="18" class="fil0" d="M8.724 0.146l0.089 0.179 -0.097 0.178 -0.055 -0.036 0.077 -0.142 -0.072 -0.147 0.058 -0.032zm-0.139 -0.003l0.09 0.179 -0.096 0.177 -0.054 -0.034 0.077 -0.143 -0.073 -0.146 0.057 -0.033z"/>
  <path class="fil0" d="M0.786 1.373c0.008,-0.011 0.015,-0.022 0.02,-0.033 0.005,-0.01 0.008,-0.023 0.011,-0.038 0.002,-0.015 0.004,-0.034 0.004,-0.056l0 -0.108 0.222 0 0 0.235 0.036 0 0 0.128 -0.062 0 0 -0.077 -0.198 0 0 0.077 -0.062 0 0 -0.128 0.03 0zm0.188 0l0 -0.184 -0.09 0 0 0.062c0,0.056 -0.011,0.096 -0.031,0.122l0.121 0z"/>
  <polygon id="1" class="fil0" points="1.186,1.349 1.186,1.423 1.118,1.423 1.118,1.349 "/>
  <path id="2" class="fil0" d="M1.496 1.188l0.063 0c0.024,0 0.042,-0.004 0.054,-0.013 0.011,-0.009 0.017,-0.023 0.017,-0.043 0,-0.015 -0.003,-0.027 -0.008,-0.035 -0.005,-0.008 -0.014,-0.014 -0.026,-0.018 -0.012,-0.004 -0.029,-0.005 -0.051,-0.005 -0.018,0 -0.032,0.001 -0.043,0.003 -0.011,0.002 -0.019,0.005 -0.025,0.01 -0.006,0.005 -0.011,0.011 -0.013,0.019 -0.003,0.008 -0.004,0.018 -0.004,0.031l-0.074 0c0.002,-0.033 0.009,-0.058 0.02,-0.076 0.011,-0.018 0.027,-0.03 0.05,-0.037 0.022,-0.007 0.053,-0.011 0.091,-0.011 0.053,0 0.093,0.009 0.119,0.025 0.026,0.017 0.039,0.043 0.039,0.079 0,0.029 -0.004,0.05 -0.013,0.064 -0.008,0.014 -0.023,0.025 -0.045,0.031l0 0.002c0.018,0.005 0.031,0.011 0.041,0.019 0.01,0.008 0.017,0.017 0.021,0.029 0.004,0.012 0.006,0.027 0.006,0.045 0,0.029 -0.005,0.052 -0.015,0.069 -0.01,0.017 -0.027,0.03 -0.051,0.039 -0.024,0.009 -0.059,0.013 -0.102,0.013 -0.027,0 -0.051,-0.002 -0.071,-0.005 -0.02,-0.003 -0.036,-0.009 -0.05,-0.017 -0.014,-0.008 -0.024,-0.02 -0.032,-0.036 -0.007,-0.016 -0.011,-0.036 -0.011,-0.06l0 -0.017 0.073 0c0,0.021 0.002,0.036 0.006,0.045 0.003,0.01 0.011,0.017 0.024,0.021 0.013,0.005 0.033,0.007 0.061,0.007 0.024,0 0.043,-0.002 0.057,-0.005 0.013,-0.004 0.023,-0.01 0.029,-0.018 0.006,-0.008 0.009,-0.02 0.009,-0.036 0,-0.022 -0.006,-0.038 -0.017,-0.047 -0.011,-0.009 -0.028,-0.014 -0.052,-0.014l-0.076 0 0 -0.058z"/>
  <path id="3" class="fil0" d="M1.756 1.28c0,-0.037 0.004,-0.067 0.012,-0.088 0.008,-0.021 0.022,-0.036 0.041,-0.045 0.019,-0.009 0.046,-0.014 0.081,-0.014 0.035,0 0.062,0.005 0.082,0.014 0.019,0.009 0.033,0.024 0.041,0.045 0.008,0.021 0.012,0.05 0.012,0.087 0,0.028 -0.002,0.051 -0.007,0.07 -0.004,0.019 -0.012,0.034 -0.022,0.045 -0.01,0.011 -0.024,0.02 -0.041,0.025 -0.017,0.005 -0.039,0.008 -0.065,0.008 -0.026,0 -0.048,-0.003 -0.065,-0.008 -0.017,-0.005 -0.031,-0.014 -0.041,-0.025 -0.01,-0.012 -0.017,-0.026 -0.022,-0.045 -0.004,-0.018 -0.007,-0.042 -0.007,-0.07zm0.07 0c0,0.026 0.002,0.046 0.006,0.06 0.004,0.014 0.011,0.023 0.019,0.028 0.009,0.005 0.022,0.007 0.039,0.008 0.017,0 0.03,-0.002 0.04,-0.007 0.009,-0.005 0.016,-0.014 0.02,-0.028 0.004,-0.013 0.006,-0.033 0.006,-0.06 0,-0.02 -0.001,-0.036 -0.003,-0.048 -0.002,-0.012 -0.006,-0.021 -0.011,-0.028 -0.005,-0.007 -0.011,-0.011 -0.02,-0.014 -0.008,-0.003 -0.019,-0.004 -0.032,-0.004 -0.017,0 -0.03,0.002 -0.039,0.007 -0.009,0.005 -0.016,0.014 -0.02,0.027 -0.004,0.013 -0.006,0.033 -0.006,0.059z"/>
  <path id="4" class="fil0" d="M2.108 1.139l0.237 0 0 0.285 -0.068 0 0 -0.232 -0.103 0 0 0.144c0,0.018 -0.003,0.034 -0.008,0.047 -0.005,0.014 -0.014,0.024 -0.025,0.032 -0.012,0.008 -0.026,0.012 -0.043,0.012 -0.019,0 -0.033,-0.001 -0.042,-0.003l0 -0.051c0.006,0.001 0.012,0.002 0.017,0.002 0.013,0 0.022,-0.004 0.027,-0.011 0.005,-0.007 0.007,-0.018 0.007,-0.034l0 -0.191z"/>
  <path id="5" class="fil0" d="M2.408 1.28c0,-0.037 0.004,-0.067 0.012,-0.088 0.008,-0.021 0.022,-0.036 0.041,-0.045 0.019,-0.009 0.046,-0.014 0.081,-0.014 0.035,0 0.062,0.005 0.082,0.014 0.019,0.009 0.033,0.024 0.041,0.045 0.008,0.021 0.012,0.05 0.012,0.087 0,0.028 -0.002,0.051 -0.007,0.07 -0.004,0.019 -0.012,0.034 -0.022,0.045 -0.01,0.011 -0.024,0.02 -0.041,0.025 -0.017,0.005 -0.039,0.008 -0.065,0.008 -0.026,0 -0.048,-0.003 -0.065,-0.008 -0.017,-0.005 -0.031,-0.014 -0.041,-0.025 -0.01,-0.012 -0.017,-0.026 -0.022,-0.045 -0.004,-0.018 -0.007,-0.042 -0.007,-0.07zm0.07 0c0,0.026 0.002,0.046 0.006,0.06 0.004,0.014 0.011,0.023 0.019,0.028 0.009,0.005 0.022,0.007 0.039,0.008 0.017,0 0.03,-0.002 0.04,-0.007 0.009,-0.005 0.016,-0.014 0.02,-0.028 0.004,-0.013 0.006,-0.033 0.006,-0.06 0,-0.02 -0.001,-0.036 -0.003,-0.048 -0.002,-0.012 -0.006,-0.021 -0.011,-0.028 -0.005,-0.007 -0.011,-0.011 -0.02,-0.014 -0.008,-0.003 -0.019,-0.004 -0.032,-0.004 -0.017,0 -0.03,0.002 -0.039,0.007 -0.009,0.005 -0.016,0.014 -0.02,0.027 -0.004,0.013 -0.006,0.033 -0.006,0.059z"/>
  <polygon id="6" class="fil0" points="2.805,1.423 2.873,1.423 2.873,1.191 2.964,1.191 2.964,1.139 2.714,1.139 2.714,1.191 2.805,1.191 "/>
  <path id="7" class="fil0" d="M3.194 1.423l0.005 -0.039 -0.002 0c-0.006,0.013 -0.013,0.022 -0.021,0.029 -0.008,0.006 -0.018,0.011 -0.029,0.013 -0.011,0.002 -0.026,0.003 -0.043,0.003 -0.024,0 -0.044,-0.003 -0.059,-0.009 -0.015,-0.006 -0.026,-0.015 -0.034,-0.028 -0.007,-0.013 -0.011,-0.031 -0.011,-0.052 0,-0.018 0.002,-0.033 0.006,-0.045 0.004,-0.012 0.01,-0.021 0.019,-0.028 0.009,-0.007 0.02,-0.012 0.034,-0.014 0.014,-0.003 0.031,-0.004 0.053,-0.004 0.025,0 0.043,0.003 0.054,0.008 0.011,0.005 0.02,0.015 0.026,0.028l0.003 0 0 -0.048c0,-0.015 -0.002,-0.027 -0.006,-0.036 -0.004,-0.008 -0.01,-0.014 -0.019,-0.017 -0.009,-0.003 -0.021,-0.005 -0.037,-0.005 -0.021,0 -0.035,0.003 -0.042,0.009 -0.008,0.006 -0.011,0.017 -0.011,0.034l-0.068 0c0.001,-0.017 0.004,-0.032 0.01,-0.043 0.006,-0.012 0.014,-0.02 0.025,-0.027 0.011,-0.006 0.023,-0.011 0.036,-0.013 0.014,-0.002 0.03,-0.004 0.048,-0.004 0.03,0 0.054,0.002 0.073,0.007 0.019,0.004 0.033,0.014 0.044,0.029 0.011,0.015 0.016,0.037 0.016,0.066l0 0.187 -0.068 0zm0 -0.085c0,-0.017 -0.005,-0.028 -0.014,-0.034 -0.009,-0.006 -0.027,-0.009 -0.053,-0.009 -0.015,0 -0.027,0.001 -0.035,0.004 -0.008,0.003 -0.014,0.007 -0.018,0.013 -0.004,0.006 -0.005,0.015 -0.005,0.026 0,0.016 0.004,0.027 0.013,0.033 0.009,0.006 0.023,0.01 0.045,0.01 0.024,0 0.042,-0.003 0.052,-0.009 0.01,-0.006 0.016,-0.017 0.016,-0.034z"/>
  <path id="8" class="fil0" d="M3.399 1.273c0,0.028 0.001,0.049 0.004,0.063 0.003,0.014 0.009,0.023 0.018,0.029 0.009,0.006 0.023,0.009 0.043,0.009 0.019,0 0.033,-0.004 0.042,-0.011 0.009,-0.007 0.015,-0.017 0.017,-0.03 0.002,-0.013 0.004,-0.033 0.004,-0.058 0,-0.026 -0.002,-0.045 -0.005,-0.057 -0.003,-0.012 -0.009,-0.02 -0.018,-0.024 -0.008,-0.004 -0.021,-0.006 -0.039,-0.006 -0.018,0 -0.031,0.002 -0.041,0.007 -0.009,0.005 -0.016,0.013 -0.02,0.025 -0.004,0.012 -0.006,0.03 -0.006,0.054zm0 0.111l0 0.16 -0.068 0 0 -0.405 0.065 0 -0.003 0.04 0.002 0c0.011,-0.017 0.023,-0.028 0.037,-0.035 0.013,-0.006 0.031,-0.01 0.051,-0.01 0.031,0 0.055,0.006 0.071,0.017 0.016,0.011 0.028,0.027 0.033,0.048 0.006,0.021 0.009,0.047 0.009,0.08 0,0.024 -0.001,0.044 -0.003,0.061 -0.002,0.017 -0.007,0.032 -0.014,0.045 -0.007,0.013 -0.018,0.024 -0.033,0.031 -0.015,0.008 -0.034,0.011 -0.058,0.011 -0.022,0 -0.04,-0.003 -0.054,-0.009 -0.014,-0.006 -0.025,-0.017 -0.035,-0.035z"/>
  <path id="9" class="fil0" d="M3.841 1.333l0.067 0 0 0.01c0,0.023 -0.005,0.041 -0.016,0.053 -0.011,0.012 -0.025,0.021 -0.044,0.025 -0.019,0.004 -0.043,0.007 -0.072,0.007 -0.033,0 -0.059,-0.005 -0.078,-0.014 -0.019,-0.009 -0.032,-0.024 -0.04,-0.045 -0.008,-0.021 -0.012,-0.05 -0.012,-0.087 0,-0.037 0.004,-0.066 0.012,-0.087 0.008,-0.021 0.022,-0.037 0.041,-0.046 0.019,-0.01 0.045,-0.014 0.077,-0.014 0.032,0 0.058,0.005 0.077,0.015 0.019,0.01 0.033,0.025 0.041,0.046 0.008,0.021 0.013,0.048 0.013,0.081l0 0.02 -0.193 0c0,0.023 0.002,0.04 0.005,0.052 0.004,0.012 0.01,0.02 0.018,0.024 0.009,0.005 0.021,0.007 0.038,0.007 0.016,0 0.028,-0.001 0.037,-0.003 0.009,-0.002 0.016,-0.006 0.02,-0.012 0.004,-0.006 0.007,-0.014 0.007,-0.025l0 -0.005zm0.001 -0.082c0,-0.017 -0.002,-0.03 -0.006,-0.04 -0.004,-0.01 -0.011,-0.016 -0.02,-0.021 -0.009,-0.004 -0.022,-0.006 -0.038,-0.006 -0.016,0 -0.028,0.002 -0.037,0.006 -0.009,0.004 -0.016,0.011 -0.019,0.021 -0.004,0.01 -0.006,0.023 -0.006,0.04l0.127 0z"/>
  <path id="10" class="fil0" d="M4.034 1.188l0 0.067 0.065 0c0.017,0 0.029,-0.003 0.036,-0.008 0.007,-0.005 0.011,-0.013 0.011,-0.025 0,-0.012 -0.003,-0.021 -0.009,-0.027 -0.006,-0.006 -0.017,-0.008 -0.031,-0.008l-0.071 0zm0 0.113l0 0.073 0.074 0c0.016,0 0.027,-0.003 0.034,-0.009 0.007,-0.006 0.01,-0.015 0.01,-0.028 0,-0.024 -0.014,-0.036 -0.041,-0.036l-0.078 0zm-0.067 0.122l0 -0.285 0.157 0c0.032,0 0.055,0.006 0.069,0.019 0.014,0.012 0.021,0.032 0.021,0.059 0,0.015 -0.005,0.027 -0.014,0.038 -0.009,0.011 -0.022,0.018 -0.038,0.021l0 0.002c0.018,0.003 0.032,0.011 0.042,0.022 0.01,0.011 0.016,0.027 0.016,0.046 0,0.018 -0.003,0.033 -0.008,0.045 -0.005,0.011 -0.014,0.02 -0.027,0.025 -0.013,0.006 -0.03,0.008 -0.053,0.008l-0.165 0z"/>
  <path id="11" class="fil0" d="M4.264 1.28c0,-0.037 0.004,-0.067 0.012,-0.088 0.008,-0.021 0.022,-0.036 0.041,-0.045 0.019,-0.009 0.046,-0.014 0.081,-0.014 0.035,0 0.062,0.005 0.082,0.014 0.019,0.009 0.033,0.024 0.041,0.045 0.008,0.021 0.012,0.05 0.012,0.087 0,0.028 -0.002,0.051 -0.007,0.07 -0.004,0.019 -0.012,0.034 -0.022,0.045 -0.01,0.011 -0.024,0.02 -0.041,0.025 -0.017,0.005 -0.039,0.008 -0.065,0.008 -0.026,0 -0.048,-0.003 -0.065,-0.008 -0.017,-0.005 -0.031,-0.014 -0.041,-0.025 -0.01,-0.012 -0.017,-0.026 -0.022,-0.045 -0.004,-0.018 -0.007,-0.042 -0.007,-0.07zm0.07 0c0,0.026 0.002,0.046 0.006,0.06 0.004,0.014 0.011,0.023 0.019,0.028 0.009,0.005 0.022,0.007 0.039,0.008 0.017,0 0.03,-0.002 0.04,-0.007 0.009,-0.005 0.016,-0.014 0.02,-0.028 0.004,-0.013 0.006,-0.033 0.006,-0.06 0,-0.02 -0.001,-0.036 -0.003,-0.048 -0.002,-0.012 -0.006,-0.021 -0.011,-0.028 -0.005,-0.007 -0.011,-0.011 -0.02,-0.014 -0.008,-0.003 -0.019,-0.004 -0.032,-0.004 -0.017,0 -0.03,0.002 -0.039,0.007 -0.009,0.005 -0.016,0.014 -0.02,0.027 -0.004,0.013 -0.006,0.033 -0.006,0.059z"/>
  <path id="12" class="fil0" d="M4.658 1.35l0 0.071c0,0.018 -0.002,0.032 -0.005,0.042 -0.003,0.01 -0.01,0.017 -0.019,0.022 -0.01,0.005 -0.023,0.007 -0.042,0.007 -0.003,0 -0.006,-0 -0.007,-0.001l0 -0.032c0.012,-0 0.02,-0.002 0.025,-0.006 0.005,-0.004 0.007,-0.011 0.007,-0.022l0.001 -0.009 -0.028 0 0 -0.073 0.068 0z"/>
  <path id="13" class="fil0" d="M5.116 1.139l-0.076 0.302c-0.004,0.018 -0.009,0.033 -0.014,0.046 -0.005,0.013 -0.011,0.024 -0.019,0.034 -0.008,0.01 -0.018,0.017 -0.03,0.022 -0.013,0.005 -0.028,0.008 -0.046,0.008 -0.013,0 -0.022,-0.001 -0.028,-0.002l0 -0.049c0.005,0.001 0.011,0.002 0.016,0.002 0.017,-0 0.029,-0.007 0.037,-0.019 0.008,-0.012 0.014,-0.032 0.02,-0.059l-0.036 0 -0.094 -0.285 0.072 0 0.071 0.242 0.055 -0.242 0.071 0z"/>
  <path id="14" class="fil0" d="M5.181 1.139l0.237 0 0 0.285 -0.068 0 0 -0.232 -0.103 0 0 0.144c0,0.018 -0.003,0.034 -0.008,0.047 -0.005,0.014 -0.014,0.024 -0.025,0.032 -0.012,0.008 -0.026,0.012 -0.043,0.012 -0.019,0 -0.033,-0.001 -0.042,-0.003l0 -0.051c0.006,0.001 0.012,0.002 0.017,0.002 0.013,0 0.022,-0.004 0.027,-0.011 0.005,-0.007 0.007,-0.018 0.007,-0.034l0 -0.191z"/>
  <polygon id="15" class="fil0" points="5.556,1.349 5.556,1.423 5.488,1.423 5.488,1.349 "/>
  <path id="16" class="fil0" d="M6.02 1.278l0.077 0 0 0.024c0,0.031 -0.005,0.056 -0.016,0.075 -0.011,0.018 -0.028,0.031 -0.053,0.039 -0.024,0.008 -0.058,0.012 -0.1,0.012 -0.034,0 -0.063,-0.003 -0.084,-0.01 -0.022,-0.006 -0.039,-0.018 -0.052,-0.033 -0.013,-0.016 -0.022,-0.037 -0.027,-0.065 -0.005,-0.027 -0.008,-0.063 -0.008,-0.107 0,-0.049 0.005,-0.087 0.015,-0.116 0.01,-0.029 0.027,-0.05 0.051,-0.064 0.024,-0.014 0.059,-0.021 0.103,-0.021 0.044,0 0.078,0.005 0.101,0.015 0.024,0.01 0.04,0.025 0.05,0.045 0.01,0.02 0.016,0.047 0.018,0.08l-0.076 0c-0.001,-0.021 -0.005,-0.037 -0.01,-0.047 -0.005,-0.01 -0.014,-0.017 -0.027,-0.021 -0.013,-0.004 -0.031,-0.005 -0.056,-0.005 -0.026,0 -0.045,0.003 -0.057,0.01 -0.012,0.007 -0.021,0.02 -0.025,0.039 -0.005,0.019 -0.007,0.05 -0.007,0.092 0,0.03 0.001,0.054 0.004,0.072 0.003,0.018 0.007,0.032 0.014,0.042 0.007,0.01 0.016,0.017 0.027,0.021 0.011,0.004 0.027,0.006 0.046,0.006 0.024,0 0.043,-0.002 0.056,-0.005 0.013,-0.003 0.023,-0.009 0.028,-0.017 0.006,-0.008 0.008,-0.02 0.008,-0.035l0 -0.026z"/>
  <path id="17" class="fil0" d="M6.132 1.28c0,-0.037 0.004,-0.067 0.012,-0.088 0.008,-0.021 0.022,-0.036 0.041,-0.045 0.019,-0.009 0.046,-0.014 0.081,-0.014 0.035,0 0.062,0.005 0.082,0.014 0.019,0.009 0.033,0.024 0.041,0.045 0.008,0.021 0.012,0.05 0.012,0.087 0,0.028 -0.002,0.051 -0.007,0.07 -0.004,0.019 -0.012,0.034 -0.022,0.045 -0.01,0.011 -0.024,0.02 -0.041,0.025 -0.017,0.005 -0.039,0.008 -0.065,0.008 -0.026,0 -0.048,-0.003 -0.065,-0.008 -0.017,-0.005 -0.031,-0.014 -0.041,-0.025 -0.01,-0.012 -0.017,-0.026 -0.022,-0.045 -0.004,-0.018 -0.007,-0.042 -0.007,-0.07zm0.07 0c0,0.026 0.002,0.046 0.006,0.06 0.004,0.014 0.011,0.023 0.019,0.028 0.009,0.005 0.022,0.007 0.039,0.008 0.017,0 0.03,-0.002 0.04,-0.007 0.009,-0.005 0.016,-0.014 0.02,-0.028 0.004,-0.013 0.006,-0.033 0.006,-0.06 0,-0.02 -0.001,-0.036 -0.003,-0.048 -0.002,-0.012 -0.006,-0.021 -0.011,-0.028 -0.005,-0.007 -0.011,-0.011 -0.02,-0.014 -0.008,-0.003 -0.019,-0.004 -0.032,-0.004 -0.017,0 -0.03,0.002 -0.039,0.007 -0.009,0.005 -0.016,0.014 -0.02,0.027 -0.004,0.013 -0.006,0.033 -0.006,0.059z"/>
  <path id="18" class="fil0" d="M6.526 1.188l0 0.067 0.065 0c0.017,0 0.029,-0.003 0.036,-0.008 0.007,-0.005 0.011,-0.013 0.011,-0.025 0,-0.012 -0.003,-0.021 -0.009,-0.027 -0.006,-0.006 -0.017,-0.008 -0.031,-0.008l-0.071 0zm0 0.113l0 0.073 0.074 0c0.016,0 0.027,-0.003 0.034,-0.009 0.007,-0.006 0.01,-0.015 0.01,-0.028 0,-0.024 -0.014,-0.036 -0.041,-0.036l-0.078 0zm-0.067 0.122l0 -0.285 0.157 0c0.032,0 0.055,0.006 0.069,0.019 0.014,0.012 0.021,0.032 0.021,0.059 0,0.015 -0.005,0.027 -0.014,0.038 -0.009,0.011 -0.022,0.018 -0.038,0.021l0 0.002c0.018,0.003 0.032,0.011 0.042,0.022 0.01,0.011 0.016,0.027 0.016,0.046 0,0.018 -0.003,0.033 -0.008,0.045 -0.005,0.011 -0.014,0.02 -0.027,0.025 -0.013,0.006 -0.03,0.008 -0.053,0.008l-0.165 0z"/>
  <path id="19" class="fil0" d="M6.951 1.333l0.067 0 0 0.01c0,0.023 -0.005,0.041 -0.016,0.053 -0.011,0.012 -0.025,0.021 -0.044,0.025 -0.019,0.004 -0.043,0.007 -0.072,0.007 -0.033,0 -0.059,-0.005 -0.078,-0.014 -0.019,-0.009 -0.032,-0.024 -0.04,-0.045 -0.008,-0.021 -0.012,-0.05 -0.012,-0.087 0,-0.037 0.004,-0.066 0.012,-0.087 0.008,-0.021 0.022,-0.037 0.041,-0.046 0.019,-0.01 0.045,-0.014 0.077,-0.014 0.032,0 0.058,0.005 0.077,0.015 0.019,0.01 0.033,0.025 0.041,0.046 0.008,0.021 0.013,0.048 0.013,0.081l0 0.02 -0.193 0c0,0.023 0.002,0.04 0.005,0.052 0.004,0.012 0.01,0.02 0.018,0.024 0.009,0.005 0.021,0.007 0.038,0.007 0.016,0 0.028,-0.001 0.037,-0.003 0.009,-0.002 0.016,-0.006 0.02,-0.012 0.004,-0.006 0.007,-0.014 0.007,-0.025l0 -0.005zm0.001 -0.082c0,-0.017 -0.002,-0.03 -0.006,-0.04 -0.004,-0.01 -0.011,-0.016 -0.02,-0.021 -0.009,-0.004 -0.022,-0.006 -0.038,-0.006 -0.016,0 -0.028,0.002 -0.037,0.006 -0.009,0.004 -0.016,0.011 -0.019,0.021 -0.004,0.01 -0.006,0.023 -0.006,0.04l0.127 0z"/>
  <polygon id="20" class="fil0" points="7.148,1.423 7.216,1.423 7.216,1.191 7.307,1.191 7.307,1.139 7.056,1.139 7.056,1.191 7.148,1.191 "/>
  <path id="21" class="fil0" d="M7.534 1.316l0.067 0c0,0.021 -0.002,0.038 -0.007,0.052 -0.004,0.014 -0.012,0.026 -0.021,0.035 -0.01,0.009 -0.023,0.015 -0.039,0.019 -0.016,0.004 -0.036,0.006 -0.06,0.006 -0.033,0 -0.059,-0.005 -0.078,-0.014 -0.019,-0.009 -0.032,-0.024 -0.041,-0.045 -0.008,-0.021 -0.012,-0.05 -0.012,-0.088 0,-0.038 0.004,-0.067 0.012,-0.088 0.008,-0.021 0.022,-0.036 0.041,-0.045 0.019,-0.009 0.045,-0.014 0.078,-0.014 0.025,0 0.046,0.003 0.065,0.008 0.018,0.005 0.033,0.015 0.044,0.029 0.011,0.014 0.017,0.033 0.017,0.057l0 0.01 -0.066 0 0 -0.004c0,-0.014 -0.002,-0.024 -0.006,-0.03 -0.004,-0.007 -0.01,-0.012 -0.018,-0.014 -0.008,-0.002 -0.02,-0.004 -0.036,-0.004 -0.016,0 -0.029,0.003 -0.037,0.009 -0.009,0.006 -0.015,0.015 -0.019,0.029 -0.004,0.013 -0.005,0.033 -0.005,0.057 0,0.025 0.002,0.044 0.005,0.057 0.004,0.013 0.01,0.023 0.019,0.029 0.009,0.006 0.021,0.009 0.037,0.009 0.018,0 0.031,-0.002 0.04,-0.006 0.009,-0.004 0.014,-0.01 0.017,-0.018 0.003,-0.008 0.004,-0.02 0.004,-0.036z"/>
  <polygon id="22" class="fil0" points="7.723,1.139 7.723,1.249 7.739,1.249 7.819,1.139 7.897,1.139 7.795,1.272 7.916,1.423 7.834,1.423 7.739,1.296 7.723,1.296 7.723,1.423 7.655,1.423 7.655,1.139 "/>
  <path id="23" class="fil0" d="M8.141 1.423l0.005 -0.039 -0.002 0c-0.006,0.013 -0.013,0.022 -0.021,0.029 -0.008,0.006 -0.018,0.011 -0.029,0.013 -0.011,0.002 -0.026,0.003 -0.043,0.003 -0.024,0 -0.044,-0.003 -0.059,-0.009 -0.015,-0.006 -0.026,-0.015 -0.034,-0.028 -0.007,-0.013 -0.011,-0.031 -0.011,-0.052 0,-0.018 0.002,-0.033 0.006,-0.045 0.004,-0.012 0.01,-0.021 0.019,-0.028 0.009,-0.007 0.02,-0.012 0.034,-0.014 0.014,-0.003 0.031,-0.004 0.053,-0.004 0.025,0 0.043,0.003 0.054,0.008 0.011,0.005 0.02,0.015 0.026,0.028l0.003 0 0 -0.048c0,-0.015 -0.002,-0.027 -0.006,-0.036 -0.004,-0.008 -0.01,-0.014 -0.019,-0.017 -0.009,-0.003 -0.021,-0.005 -0.037,-0.005 -0.021,0 -0.035,0.003 -0.042,0.009 -0.008,0.006 -0.011,0.017 -0.011,0.034l-0.068 0c0.001,-0.017 0.004,-0.032 0.01,-0.043 0.006,-0.012 0.014,-0.02 0.025,-0.027 0.011,-0.006 0.023,-0.011 0.036,-0.013 0.014,-0.002 0.03,-0.004 0.048,-0.004 0.03,0 0.054,0.002 0.073,0.007 0.019,0.004 0.033,0.014 0.044,0.029 0.011,0.015 0.016,0.037 0.016,0.066l0 0.187 -0.068 0zm0 -0.085c0,-0.017 -0.005,-0.028 -0.014,-0.034 -0.009,-0.006 -0.027,-0.009 -0.053,-0.009 -0.015,0 -0.027,0.001 -0.035,0.004 -0.008,0.003 -0.014,0.007 -0.018,0.013 -0.004,0.006 -0.005,0.015 -0.005,0.026 0,0.016 0.004,0.027 0.013,0.033 0.009,0.006 0.023,0.01 0.045,0.01 0.024,0 0.042,-0.003 0.052,-0.009 0.01,-0.006 0.016,-0.017 0.016,-0.034z"/>
  <path id="24" class="fil0" d="M8.513 1.139l0 0.285 -0.068 0 0 -0.109 -0.052 0 -0.064 0.109 -0.072 0 0.071 -0.118c-0.041,-0.012 -0.062,-0.039 -0.062,-0.081 0,-0.058 0.027,-0.086 0.08,-0.086l0.167 0zm-0.068 0.127l0 -0.077 -0.072 0c-0.014,0 -0.024,0.003 -0.03,0.008 -0.006,0.006 -0.009,0.016 -0.009,0.03 0,0.015 0.004,0.025 0.011,0.03 0.007,0.005 0.018,0.008 0.034,0.008l0.066 0z"/>
  <path id="25" class="fil0" d="M8.649 1.35l0 0.071c0,0.018 -0.002,0.032 -0.005,0.042 -0.003,0.01 -0.01,0.017 -0.019,0.022 -0.01,0.005 -0.023,0.007 -0.042,0.007 -0.003,0 -0.006,-0 -0.007,-0.001l0 -0.032c0.012,-0 0.02,-0.002 0.025,-0.006 0.005,-0.004 0.007,-0.011 0.007,-0.022l0.001 -0.009 -0.028 0 0 -0.073 0.068 0z"/>
  <path id="26" class="fil0" d="M8.868 1.373c0.008,-0.011 0.015,-0.022 0.02,-0.033 0.005,-0.01 0.008,-0.023 0.011,-0.038 0.002,-0.015 0.004,-0.034 0.004,-0.056l0 -0.108 0.222 0 0 0.235 0.036 0 0 0.128 -0.062 0 0 -0.077 -0.198 0 0 0.077 -0.062 0 0 -0.128 0.03 0zm0.188 0l0 -0.184 -0.09 0 0 0.062c0,0.056 -0.011,0.096 -0.031,0.122l0.121 0z"/>
  <polygon id="27" class="fil0" points="9.268,1.349 9.268,1.423 9.2,1.423 9.2,1.349 "/>
  <path id="28" class="fil0" d="M9.782 1.362l0 0.061 -0.308 0 0 -0.084c0,-0.024 0.003,-0.044 0.009,-0.058 0.006,-0.015 0.014,-0.026 0.025,-0.033 0.011,-0.008 0.024,-0.013 0.038,-0.017 0.015,-0.004 0.035,-0.008 0.061,-0.012 0.028,-0.004 0.048,-0.007 0.06,-0.011 0.012,-0.003 0.022,-0.01 0.029,-0.02 0.007,-0.01 0.01,-0.025 0.01,-0.046 0,-0.02 -0.002,-0.035 -0.007,-0.045 -0.005,-0.01 -0.013,-0.016 -0.023,-0.02 -0.011,-0.003 -0.026,-0.005 -0.047,-0.005 -0.023,0 -0.04,0.002 -0.051,0.005 -0.011,0.003 -0.019,0.01 -0.023,0.021 -0.004,0.011 -0.007,0.027 -0.007,0.05l0 0.013 -0.073 0 0 -0.018c0,-0.036 0.005,-0.063 0.014,-0.082 0.009,-0.019 0.025,-0.032 0.047,-0.039 0.022,-0.007 0.053,-0.011 0.093,-0.011 0.027,0 0.049,0.002 0.068,0.005 0.018,0.003 0.034,0.01 0.047,0.019 0.013,0.009 0.022,0.022 0.029,0.04 0.007,0.017 0.01,0.039 0.01,0.067 0,0.029 -0.004,0.053 -0.013,0.07 -0.008,0.017 -0.02,0.03 -0.035,0.039 -0.015,0.009 -0.03,0.015 -0.045,0.018 -0.015,0.003 -0.042,0.008 -0.08,0.015 -0.019,0.003 -0.032,0.007 -0.041,0.011 -0.008,0.004 -0.014,0.011 -0.017,0.019 -0.003,0.008 -0.004,0.02 -0.004,0.037l0 0.011 0.234 0z"/>
  <polygon id="29" class="fil0" points="10.157,1.016 10.157,1.091 9.991,1.423 9.907,1.423 10.083,1.081 9.856,1.081 9.856,1.016 "/>
  <path class="fil0" d="M0.913 2.073c-0.025,0 -0.043,0.001 -0.054,0.004 -0.011,0.003 -0.019,0.008 -0.023,0.016 -0.004,0.008 -0.006,0.021 -0.006,0.039 0,0.017 0.002,0.03 0.007,0.039 0.004,0.009 0.013,0.016 0.025,0.019 0.012,0.004 0.029,0.006 0.053,0.006 0.023,0 0.041,-0.002 0.053,-0.006 0.012,-0.004 0.02,-0.01 0.025,-0.019 0.004,-0.009 0.007,-0.022 0.007,-0.038 0,-0.018 -0.002,-0.031 -0.007,-0.039 -0.004,-0.008 -0.012,-0.014 -0.024,-0.017 -0.012,-0.003 -0.03,-0.004 -0.054,-0.004zm0 -0.171c-0.022,0 -0.039,0.002 -0.05,0.005 -0.011,0.003 -0.018,0.009 -0.023,0.017 -0.004,0.008 -0.006,0.02 -0.006,0.036 0,0.013 0.001,0.022 0.003,0.03 0.002,0.007 0.006,0.013 0.012,0.016 0.006,0.004 0.013,0.006 0.023,0.008 0.01,0.001 0.023,0.002 0.04,0.002 0.017,0 0.031,-0.001 0.041,-0.002 0.01,-0.001 0.017,-0.004 0.023,-0.008 0.006,-0.004 0.009,-0.009 0.012,-0.016 0.002,-0.007 0.003,-0.017 0.003,-0.03 0,-0.016 -0.002,-0.028 -0.007,-0.036 -0.004,-0.008 -0.012,-0.014 -0.023,-0.017 -0.011,-0.003 -0.027,-0.005 -0.049,-0.005zm-0.087 0.141c-0.017,-0.005 -0.031,-0.012 -0.04,-0.021 -0.01,-0.008 -0.016,-0.018 -0.02,-0.03 -0.004,-0.012 -0.006,-0.025 -0.006,-0.042 0,-0.021 0.003,-0.038 0.008,-0.052 0.006,-0.014 0.014,-0.025 0.026,-0.033 0.012,-0.008 0.028,-0.014 0.047,-0.018 0.019,-0.004 0.043,-0.005 0.072,-0.005 0.038,0 0.068,0.003 0.09,0.01 0.022,0.007 0.038,0.018 0.047,0.033 0.01,0.016 0.015,0.038 0.015,0.066 0,0.017 -0.002,0.031 -0.005,0.042 -0.003,0.011 -0.009,0.021 -0.018,0.029 -0.009,0.008 -0.022,0.015 -0.04,0.02 0.018,0.004 0.032,0.011 0.042,0.018 0.01,0.008 0.017,0.018 0.021,0.03 0.004,0.012 0.006,0.027 0.006,0.045 0,0.023 -0.003,0.042 -0.008,0.057 -0.005,0.015 -0.014,0.027 -0.025,0.037 -0.012,0.009 -0.028,0.016 -0.048,0.021 -0.02,0.005 -0.046,0.007 -0.077,0.007 -0.031,0 -0.056,-0.002 -0.077,-0.007 -0.02,-0.004 -0.036,-0.011 -0.048,-0.021 -0.012,-0.01 -0.02,-0.022 -0.025,-0.037 -0.005,-0.015 -0.008,-0.034 -0.008,-0.057 0,-0.018 0.002,-0.033 0.007,-0.045 0.004,-0.012 0.012,-0.022 0.022,-0.03 0.01,-0.008 0.024,-0.014 0.042,-0.018z"/>
  <path id="1" class="fil0" d="M1.413 1.84l0 0.064c-0.021,0 -0.035,0.005 -0.042,0.013 -0.007,0.009 -0.011,0.026 -0.011,0.051l0 0.216c0,0.027 0.003,0.045 0.01,0.054 0.006,0.009 0.017,0.014 0.033,0.014l0.011 0 0 0.064c-0.029,0 -0.053,-0.003 -0.07,-0.01 -0.017,-0.006 -0.03,-0.016 -0.039,-0.029 -0.008,-0.013 -0.014,-0.029 -0.016,-0.049 -0.003,-0.019 -0.004,-0.045 -0.004,-0.078l0 -0.145c0,-0.031 0.001,-0.057 0.004,-0.075 0.002,-0.019 0.008,-0.035 0.016,-0.048 0.008,-0.013 0.021,-0.023 0.039,-0.03 0.017,-0.007 0.041,-0.01 0.07,-0.01z"/>
  <path id="2" class="fil0" d="M1.599 2.073l0 -0.059 0.043 0c0.019,0 0.033,-0.001 0.042,-0.004 0.008,-0.002 0.014,-0.008 0.017,-0.015 0.003,-0.008 0.005,-0.021 0.006,-0.04 0,-0.015 -0.002,-0.026 -0.007,-0.033 -0.005,-0.008 -0.012,-0.013 -0.023,-0.016 -0.011,-0.003 -0.027,-0.004 -0.049,-0.004 -0.024,0 -0.041,0.002 -0.052,0.006 -0.011,0.004 -0.018,0.011 -0.021,0.021 -0.004,0.01 -0.005,0.026 -0.005,0.048l-0.073 0c0,-0.034 0.005,-0.061 0.014,-0.08 0.01,-0.02 0.025,-0.034 0.046,-0.043 0.021,-0.009 0.05,-0.013 0.086,-0.013 0.039,0 0.07,0.003 0.093,0.01 0.023,0.007 0.039,0.018 0.049,0.034 0.01,0.016 0.015,0.037 0.015,0.063 0,0.019 -0.002,0.034 -0.005,0.047 -0.003,0.013 -0.009,0.023 -0.019,0.032 -0.01,0.008 -0.023,0.014 -0.042,0.016l0 0.003c0.018,0.002 0.033,0.007 0.043,0.014 0.01,0.007 0.018,0.016 0.022,0.028 0.004,0.012 0.007,0.028 0.007,0.046 0,0.021 -0.002,0.039 -0.007,0.054 -0.005,0.015 -0.012,0.028 -0.024,0.038 -0.011,0.01 -0.027,0.018 -0.048,0.023 -0.021,0.005 -0.047,0.008 -0.079,0.008 -0.04,0 -0.071,-0.004 -0.094,-0.012 -0.023,-0.008 -0.04,-0.021 -0.05,-0.038 -0.01,-0.017 -0.015,-0.04 -0.015,-0.069l0 -0.022 0.072 0c0,0.024 0.002,0.041 0.005,0.052 0.004,0.011 0.011,0.018 0.023,0.022 0.012,0.004 0.031,0.006 0.058,0.006 0.023,0 0.04,-0.002 0.052,-0.007 0.012,-0.004 0.02,-0.011 0.024,-0.021 0.004,-0.009 0.007,-0.022 0.007,-0.039 0,-0.016 -0.002,-0.029 -0.006,-0.037 -0.004,-0.008 -0.011,-0.013 -0.02,-0.016 -0.009,-0.003 -0.022,-0.004 -0.039,-0.004l-0.048 0z"/>
  <path id="3" class="fil0" d="M2.135 1.845l0 0.261 0.047 0 0 0.058 -0.047 0 0 0.087 -0.075 0 0 -0.087 -0.221 0 0 -0.084 0.181 -0.235 0.115 0zm-0.234 0.261l0.159 0 0 -0.205 -0.159 0.205z"/>
  <polygon id="4" class="fil0" points="2.474,1.846 2.474,2.252 2.399,2.252 2.399,1.91 2.293,2.016 2.248,1.968 2.379,1.846 "/>
  <path id="5" class="fil0" d="M2.9 1.845l0 0.261 0.047 0 0 0.058 -0.047 0 0 0.087 -0.075 0 0 -0.087 -0.221 0 0 -0.084 0.181 -0.235 0.115 0zm-0.234 0.261l0.159 0 0 -0.205 -0.159 0.205z"/>
  <polygon id="6" class="fil0" points="3.239,1.846 3.239,2.252 3.164,2.252 3.164,1.91 3.058,2.016 3.013,1.968 3.144,1.846 "/>
  <path id="7" class="fil0" d="M3.385 1.84l0 0.063c0.021,0 0.035,0.005 0.042,0.014 0.008,0.01 0.011,0.027 0.011,0.052l0 0.21c0,0.027 -0.003,0.046 -0.01,0.056 -0.007,0.01 -0.018,0.015 -0.033,0.015l-0.011 0 0 0.064c0.029,0 0.053,-0.003 0.07,-0.01 0.017,-0.007 0.03,-0.016 0.039,-0.03 0.008,-0.013 0.014,-0.029 0.016,-0.049 0.003,-0.02 0.004,-0.045 0.004,-0.078l0 -0.145c0,-0.031 -0.001,-0.056 -0.004,-0.075 -0.003,-0.019 -0.008,-0.035 -0.017,-0.049 -0.009,-0.013 -0.022,-0.023 -0.039,-0.03 -0.017,-0.007 -0.041,-0.01 -0.07,-0.01z"/>
  <path id="8" class="fil0" d="M3.844 2.073l0 -0.059 0.043 0c0.019,0 0.033,-0.001 0.042,-0.004 0.008,-0.002 0.014,-0.008 0.017,-0.015 0.003,-0.008 0.005,-0.021 0.006,-0.04 0,-0.015 -0.002,-0.026 -0.007,-0.033 -0.005,-0.008 -0.012,-0.013 -0.023,-0.016 -0.011,-0.003 -0.027,-0.004 -0.049,-0.004 -0.024,0 -0.041,0.002 -0.052,0.006 -0.011,0.004 -0.018,0.011 -0.021,0.021 -0.004,0.01 -0.005,0.026 -0.005,0.048l-0.073 0c0,-0.034 0.005,-0.061 0.014,-0.08 0.01,-0.02 0.025,-0.034 0.046,-0.043 0.021,-0.009 0.05,-0.013 0.086,-0.013 0.039,0 0.07,0.003 0.093,0.01 0.023,0.007 0.039,0.018 0.049,0.034 0.01,0.016 0.015,0.037 0.015,0.063 0,0.019 -0.002,0.034 -0.005,0.047 -0.003,0.013 -0.009,0.023 -0.019,0.032 -0.01,0.008 -0.023,0.014 -0.042,0.016l0 0.003c0.018,0.002 0.033,0.007 0.043,0.014 0.01,0.007 0.018,0.016 0.022,0.028 0.004,0.012 0.007,0.028 0.007,0.046 0,0.021 -0.002,0.039 -0.007,0.054 -0.005,0.015 -0.012,0.028 -0.024,0.038 -0.011,0.01 -0.027,0.018 -0.048,0.023 -0.021,0.005 -0.047,0.008 -0.079,0.008 -0.04,0 -0.071,-0.004 -0.094,-0.012 -0.023,-0.008 -0.04,-0.021 -0.05,-0.038 -0.01,-0.017 -0.015,-0.04 -0.015,-0.069l0 -0.022 0.072 0c0,0.024 0.002,0.041 0.005,0.052 0.004,0.011 0.011,0.018 0.023,0.022 0.012,0.004 0.031,0.006 0.058,0.006 0.023,0 0.04,-0.002 0.052,-0.007 0.012,-0.004 0.02,-0.011 0.024,-0.021 0.004,-0.009 0.007,-0.022 0.007,-0.039 0,-0.016 -0.002,-0.029 -0.006,-0.037 -0.004,-0.008 -0.011,-0.013 -0.02,-0.016 -0.009,-0.003 -0.022,-0.004 -0.039,-0.004l-0.048 0z"/>
  <path id="9" class="fil0" d="M4.371 2.073l0 -0.059 0.043 0c0.019,0 0.033,-0.001 0.042,-0.004 0.008,-0.002 0.014,-0.008 0.017,-0.015 0.003,-0.008 0.005,-0.021 0.006,-0.04 0,-0.015 -0.002,-0.026 -0.007,-0.033 -0.005,-0.008 -0.012,-0.013 -0.023,-0.016 -0.011,-0.003 -0.027,-0.004 -0.049,-0.004 -0.024,0 -0.041,0.002 -0.052,0.006 -0.011,0.004 -0.018,0.011 -0.021,0.021 -0.004,0.01 -0.005,0.026 -0.005,0.048l-0.073 0c0,-0.034 0.005,-0.061 0.014,-0.08 0.01,-0.02 0.025,-0.034 0.046,-0.043 0.021,-0.009 0.05,-0.013 0.086,-0.013 0.039,0 0.07,0.003 0.093,0.01 0.023,0.007 0.039,0.018 0.049,0.034 0.01,0.016 0.015,0.037 0.015,0.063 0,0.019 -0.002,0.034 -0.005,0.047 -0.003,0.013 -0.009,0.023 -0.019,0.032 -0.01,0.008 -0.023,0.014 -0.042,0.016l0 0.003c0.018,0.002 0.033,0.007 0.043,0.014 0.01,0.007 0.018,0.016 0.022,0.028 0.004,0.012 0.007,0.028 0.007,0.046 0,0.021 -0.002,0.039 -0.007,0.054 -0.005,0.015 -0.012,0.028 -0.024,0.038 -0.011,0.01 -0.027,0.018 -0.048,0.023 -0.021,0.005 -0.047,0.008 -0.079,0.008 -0.04,0 -0.071,-0.004 -0.094,-0.012 -0.023,-0.008 -0.04,-0.021 -0.05,-0.038 -0.01,-0.017 -0.015,-0.04 -0.015,-0.069l0 -0.022 0.072 0c0,0.024 0.002,0.041 0.005,0.052 0.004,0.011 0.011,0.018 0.023,0.022 0.012,0.004 0.031,0.006 0.058,0.006 0.023,0 0.04,-0.002 0.052,-0.007 0.012,-0.004 0.02,-0.011 0.024,-0.021 0.004,-0.009 0.007,-0.022 0.007,-0.039 0,-0.016 -0.002,-0.029 -0.006,-0.037 -0.004,-0.008 -0.011,-0.013 -0.02,-0.016 -0.009,-0.003 -0.022,-0.004 -0.039,-0.004l-0.048 0z"/>
  <path id="10" class="fil0" d="M4.926 1.844l0 0.059 -0.216 0 0 0.101c0.01,-0.013 0.023,-0.022 0.039,-0.026 0.016,-0.004 0.035,-0.006 0.057,-0.006 0.024,0 0.045,0.003 0.063,0.008 0.017,0.005 0.032,0.013 0.043,0.023 0.011,0.011 0.019,0.024 0.025,0.041 0.005,0.017 0.008,0.037 0.008,0.06 0,0.029 -0.002,0.053 -0.006,0.071 -0.004,0.018 -0.011,0.034 -0.022,0.046 -0.011,0.012 -0.026,0.021 -0.047,0.027 -0.02,0.006 -0.047,0.009 -0.081,0.009 -0.029,0 -0.054,-0.002 -0.073,-0.006 -0.019,-0.004 -0.035,-0.01 -0.047,-0.019 -0.012,-0.009 -0.021,-0.022 -0.027,-0.037 -0.006,-0.016 -0.009,-0.036 -0.009,-0.06l0.076 0c0,0.017 0.003,0.03 0.008,0.039 0.005,0.009 0.013,0.015 0.023,0.018 0.01,0.003 0.024,0.005 0.041,0.005 0.025,0 0.044,-0.002 0.057,-0.007 0.012,-0.004 0.021,-0.012 0.025,-0.023 0.004,-0.011 0.006,-0.028 0.006,-0.05 0,-0.022 -0.002,-0.038 -0.006,-0.05 -0.004,-0.012 -0.011,-0.02 -0.02,-0.024 -0.01,-0.005 -0.024,-0.007 -0.042,-0.007l-0.027 0c-0.017,0 -0.031,0.002 -0.042,0.005 -0.011,0.003 -0.018,0.011 -0.021,0.023l-0.068 0 0 -0.217 0.285 0z"/>
  <path id="11" class="fil0" d="M5.311 2.073c-0.025,0 -0.043,0.001 -0.054,0.004 -0.011,0.003 -0.019,0.008 -0.023,0.016 -0.004,0.008 -0.006,0.021 -0.006,0.039 0,0.017 0.002,0.03 0.007,0.039 0.004,0.009 0.013,0.016 0.025,0.019 0.012,0.004 0.029,0.006 0.053,0.006 0.023,0 0.041,-0.002 0.053,-0.006 0.012,-0.004 0.02,-0.01 0.025,-0.019 0.004,-0.009 0.007,-0.022 0.007,-0.038 0,-0.018 -0.002,-0.031 -0.007,-0.039 -0.004,-0.008 -0.012,-0.014 -0.024,-0.017 -0.012,-0.003 -0.03,-0.004 -0.054,-0.004zm0 -0.171c-0.022,0 -0.039,0.002 -0.05,0.005 -0.011,0.003 -0.018,0.009 -0.023,0.017 -0.004,0.008 -0.006,0.02 -0.006,0.036 0,0.013 0.001,0.022 0.003,0.03 0.002,0.007 0.006,0.013 0.012,0.016 0.006,0.004 0.013,0.006 0.023,0.008 0.01,0.001 0.023,0.002 0.04,0.002 0.017,0 0.031,-0.001 0.041,-0.002 0.01,-0.001 0.017,-0.004 0.023,-0.008 0.006,-0.004 0.009,-0.009 0.012,-0.016 0.002,-0.007 0.003,-0.017 0.003,-0.03 0,-0.016 -0.002,-0.028 -0.007,-0.036 -0.004,-0.008 -0.012,-0.014 -0.023,-0.017 -0.011,-0.003 -0.027,-0.005 -0.049,-0.005zm-0.087 0.141c-0.017,-0.005 -0.031,-0.012 -0.04,-0.021 -0.01,-0.008 -0.016,-0.018 -0.02,-0.03 -0.004,-0.012 -0.006,-0.025 -0.006,-0.042 0,-0.021 0.003,-0.038 0.008,-0.052 0.006,-0.014 0.014,-0.025 0.026,-0.033 0.012,-0.008 0.028,-0.014 0.047,-0.018 0.019,-0.004 0.043,-0.005 0.072,-0.005 0.038,0 0.068,0.003 0.09,0.01 0.022,0.007 0.038,0.018 0.047,0.033 0.01,0.016 0.015,0.038 0.015,0.066 0,0.017 -0.002,0.031 -0.005,0.042 -0.003,0.011 -0.009,0.021 -0.018,0.029 -0.009,0.008 -0.022,0.015 -0.04,0.02 0.018,0.004 0.032,0.011 0.042,0.018 0.01,0.008 0.017,0.018 0.021,0.03 0.004,0.012 0.006,0.027 0.006,0.045 0,0.023 -0.003,0.042 -0.008,0.057 -0.005,0.015 -0.014,0.027 -0.025,0.037 -0.012,0.009 -0.028,0.016 -0.048,0.021 -0.02,0.005 -0.046,0.007 -0.077,0.007 -0.031,0 -0.056,-0.002 -0.077,-0.007 -0.02,-0.004 -0.036,-0.011 -0.048,-0.021 -0.012,-0.01 -0.02,-0.022 -0.025,-0.037 -0.005,-0.015 -0.008,-0.034 -0.008,-0.057 0,-0.018 0.002,-0.033 0.007,-0.045 0.004,-0.012 0.012,-0.022 0.022,-0.03 0.01,-0.008 0.024,-0.014 0.042,-0.018z"/>
  <path id="12" class="fil0" d="M5.869 2.049c0,0.046 -0.002,0.082 -0.006,0.108 -0.004,0.026 -0.012,0.046 -0.024,0.061 -0.012,0.015 -0.029,0.025 -0.051,0.031 -0.022,0.006 -0.053,0.009 -0.092,0.009 -0.039,0 -0.069,-0.003 -0.091,-0.009 -0.022,-0.006 -0.038,-0.016 -0.05,-0.031 -0.011,-0.015 -0.019,-0.035 -0.023,-0.06 -0.004,-0.026 -0.006,-0.062 -0.006,-0.108 0,-0.046 0.002,-0.082 0.006,-0.108 0.004,-0.026 0.012,-0.046 0.023,-0.061 0.011,-0.015 0.028,-0.025 0.05,-0.031 0.022,-0.006 0.052,-0.009 0.091,-0.009 0.039,0 0.07,0.003 0.092,0.009 0.022,0.006 0.039,0.016 0.05,0.031 0.012,0.015 0.019,0.035 0.023,0.061 0.004,0.026 0.006,0.062 0.006,0.108zm-0.266 0c0,0.037 0.001,0.064 0.002,0.081 0.001,0.017 0.005,0.03 0.011,0.039 0.006,0.009 0.014,0.015 0.026,0.017 0.012,0.003 0.03,0.004 0.054,0.004 0.024,0 0.043,-0.001 0.055,-0.004 0.012,-0.003 0.021,-0.008 0.027,-0.017 0.006,-0.009 0.01,-0.022 0.012,-0.039 0.002,-0.017 0.003,-0.044 0.003,-0.081 0,-0.037 -0.001,-0.064 -0.002,-0.082 -0.002,-0.017 -0.005,-0.03 -0.011,-0.039 -0.006,-0.009 -0.015,-0.015 -0.026,-0.017 -0.012,-0.003 -0.03,-0.004 -0.055,-0.004 -0.025,0 -0.043,0.001 -0.055,0.004 -0.012,0.003 -0.021,0.009 -0.027,0.018 -0.006,0.009 -0.01,0.022 -0.011,0.039 -0.002,0.017 -0.002,0.044 -0.002,0.081z"/>
  <path class="fil0" d="M1.009 2.872l0.077 0 0 0.024c0,0.031 -0.005,0.056 -0.016,0.075 -0.011,0.018 -0.028,0.031 -0.053,0.039 -0.024,0.008 -0.058,0.012 -0.1,0.012 -0.034,0 -0.063,-0.003 -0.084,-0.01 -0.022,-0.006 -0.039,-0.018 -0.052,-0.033 -0.013,-0.016 -0.022,-0.037 -0.027,-0.065 -0.005,-0.027 -0.008,-0.063 -0.008,-0.107 0,-0.049 0.005,-0.087 0.015,-0.116 0.01,-0.029 0.027,-0.05 0.051,-0.064 0.024,-0.014 0.059,-0.021 0.103,-0.021 0.044,0 0.078,0.005 0.101,0.015 0.024,0.01 0.04,0.025 0.05,0.045 0.01,0.02 0.016,0.047 0.018,0.08l-0.076 0c-0.001,-0.021 -0.005,-0.037 -0.01,-0.047 -0.005,-0.01 -0.014,-0.017 -0.027,-0.021 -0.013,-0.004 -0.031,-0.005 -0.056,-0.005 -0.026,0 -0.045,0.003 -0.057,0.01 -0.012,0.007 -0.021,0.02 -0.025,0.039 -0.005,0.019 -0.007,0.05 -0.007,0.092 0,0.03 0.001,0.054 0.004,0.072 0.003,0.018 0.007,0.032 0.014,0.042 0.007,0.01 0.016,0.017 0.027,0.021 0.011,0.004 0.027,0.006 0.046,0.006 0.024,0 0.043,-0.002 0.056,-0.005 0.013,-0.003 0.023,-0.009 0.028,-0.017 0.006,-0.008 0.008,-0.02 0.008,-0.035l0 -0.026z"/>
  <polygon id="1" class="fil0" points="1.2,2.786 1.32,2.786 1.32,3.017 1.388,3.017 1.388,2.733 1.132,2.733 1.132,3.017 1.2,3.017 "/>
  <path id="2" class="fil0" d="M1.639 2.927l0.067 0 0 0.01c0,0.023 -0.005,0.041 -0.016,0.053 -0.011,0.012 -0.025,0.021 -0.044,0.025 -0.019,0.004 -0.043,0.007 -0.072,0.007 -0.033,0 -0.059,-0.005 -0.078,-0.014 -0.019,-0.009 -0.032,-0.024 -0.04,-0.045 -0.008,-0.021 -0.012,-0.05 -0.012,-0.087 0,-0.037 0.004,-0.066 0.012,-0.087 0.008,-0.021 0.022,-0.037 0.041,-0.046 0.019,-0.01 0.045,-0.014 0.077,-0.014 0.032,0 0.058,0.005 0.077,0.015 0.019,0.01 0.033,0.025 0.041,0.046 0.008,0.021 0.013,0.048 0.013,0.081l0 0.02 -0.193 0c0,0.023 0.002,0.04 0.005,0.052 0.004,0.012 0.01,0.02 0.018,0.024 0.009,0.005 0.021,0.007 0.038,0.007 0.016,0 0.028,-0.001 0.037,-0.003 0.009,-0.002 0.016,-0.006 0.02,-0.012 0.004,-0.006 0.007,-0.014 0.007,-0.025l0 -0.005zm0.001 -0.082c0,-0.017 -0.002,-0.03 -0.006,-0.04 -0.004,-0.01 -0.011,-0.016 -0.02,-0.021 -0.009,-0.004 -0.022,-0.006 -0.038,-0.006 -0.016,0 -0.028,0.002 -0.037,0.006 -0.009,0.004 -0.016,0.011 -0.019,0.021 -0.004,0.01 -0.006,0.023 -0.006,0.04l0.127 0z"/>
  <polygon id="3" class="fil0" points="1.833,2.965 1.954,2.965 1.954,2.732 2.022,2.732 2.022,2.965 2.059,2.965 2.059,3.095 1.996,3.095 1.996,3.017 1.765,3.017 1.765,2.732 1.833,2.732 "/>
  <path id="4" class="fil0" d="M2.103 2.733l0 0.285 0.083 0 0.093 -0.178c0.005,-0.008 0.015,-0.03 0.031,-0.064 -0.003,0.008 -0.006,0.021 -0.009,0.039 -0.003,0.019 -0.005,0.034 -0.005,0.045l0 0.157 0.065 0 0 -0.285 -0.083 0 -0.093 0.179c-0.006,0.011 -0.016,0.033 -0.031,0.064 0.003,-0.008 0.006,-0.02 0.009,-0.035 0.003,-0.016 0.005,-0.03 0.005,-0.042l0 -0.166 -0.065 0z"/>
  <path id="5" class="fil0" d="M2.613 3.017l0.005 -0.039 -0.002 0c-0.006,0.013 -0.013,0.022 -0.021,0.029 -0.008,0.006 -0.018,0.011 -0.029,0.013 -0.011,0.002 -0.026,0.003 -0.043,0.003 -0.024,0 -0.044,-0.003 -0.059,-0.009 -0.015,-0.006 -0.026,-0.015 -0.034,-0.028 -0.007,-0.013 -0.011,-0.031 -0.011,-0.052 0,-0.018 0.002,-0.033 0.006,-0.045 0.004,-0.012 0.01,-0.021 0.019,-0.028 0.009,-0.007 0.02,-0.012 0.034,-0.014 0.014,-0.003 0.031,-0.004 0.053,-0.004 0.025,0 0.043,0.003 0.054,0.008 0.011,0.005 0.02,0.015 0.026,0.028l0.003 0 0 -0.048c0,-0.015 -0.002,-0.027 -0.006,-0.036 -0.004,-0.008 -0.01,-0.014 -0.019,-0.017 -0.009,-0.003 -0.021,-0.005 -0.037,-0.005 -0.021,0 -0.035,0.003 -0.042,0.009 -0.008,0.006 -0.011,0.017 -0.011,0.034l-0.068 0c0.001,-0.017 0.004,-0.032 0.01,-0.043 0.006,-0.012 0.014,-0.02 0.025,-0.027 0.011,-0.006 0.023,-0.011 0.036,-0.013 0.014,-0.002 0.03,-0.004 0.048,-0.004 0.03,0 0.054,0.002 0.073,0.007 0.019,0.004 0.033,0.014 0.044,0.029 0.011,0.015 0.016,0.037 0.016,0.066l0 0.187 -0.068 0zm0 -0.085c0,-0.017 -0.005,-0.028 -0.014,-0.034 -0.009,-0.006 -0.027,-0.009 -0.053,-0.009 -0.015,0 -0.027,0.001 -0.035,0.004 -0.008,0.003 -0.014,0.007 -0.018,0.013 -0.004,0.006 -0.005,0.015 -0.005,0.026 0,0.016 0.004,0.027 0.013,0.033 0.009,0.006 0.023,0.01 0.045,0.01 0.024,0 0.042,-0.003 0.052,-0.009 0.01,-0.006 0.016,-0.017 0.016,-0.034z"/>
  <path id="6" class="fil0" d="M2.776 2.733l0.237 0 0 0.285 -0.068 0 0 -0.232 -0.103 0 0 0.144c0,0.018 -0.003,0.034 -0.008,0.047 -0.005,0.014 -0.014,0.024 -0.025,0.032 -0.012,0.008 -0.026,0.012 -0.043,0.012 -0.019,0 -0.033,-0.001 -0.042,-0.003l0 -0.051c0.006,0.001 0.012,0.002 0.017,0.002 0.013,0 0.022,-0.004 0.027,-0.011 0.005,-0.007 0.007,-0.018 0.007,-0.034l0 -0.191z"/>
  <path id="7" class="fil0" d="M3.087 2.733l0 0.285 0.083 0 0.093 -0.178c0.005,-0.008 0.015,-0.03 0.031,-0.064 -0.003,0.008 -0.006,0.021 -0.009,0.039 -0.003,0.019 -0.005,0.034 -0.005,0.045l0 0.157 0.065 0 0 -0.285 -0.083 0 -0.093 0.179c-0.006,0.011 -0.016,0.033 -0.031,0.064 0.003,-0.008 0.006,-0.02 0.009,-0.035 0.003,-0.016 0.005,-0.03 0.005,-0.042l0 -0.166 -0.065 0z"/>
  <path id="8" class="fil0" d="M3.594 2.91l0.067 0c0,0.021 -0.002,0.038 -0.007,0.052 -0.004,0.014 -0.012,0.026 -0.021,0.035 -0.01,0.009 -0.023,0.015 -0.039,0.019 -0.016,0.004 -0.036,0.006 -0.06,0.006 -0.033,0 -0.059,-0.005 -0.078,-0.014 -0.019,-0.009 -0.032,-0.024 -0.041,-0.045 -0.008,-0.021 -0.012,-0.05 -0.012,-0.088 0,-0.038 0.004,-0.067 0.012,-0.088 0.008,-0.021 0.022,-0.036 0.041,-0.045 0.019,-0.009 0.045,-0.014 0.078,-0.014 0.025,0 0.046,0.003 0.065,0.008 0.018,0.005 0.033,0.015 0.044,0.029 0.011,0.014 0.017,0.033 0.017,0.057l0 0.01 -0.066 0 0 -0.004c0,-0.014 -0.002,-0.024 -0.006,-0.03 -0.004,-0.007 -0.01,-0.012 -0.018,-0.014 -0.008,-0.002 -0.02,-0.004 -0.036,-0.004 -0.016,0 -0.029,0.003 -0.037,0.009 -0.009,0.006 -0.015,0.015 -0.019,0.029 -0.004,0.013 -0.005,0.033 -0.005,0.057 0,0.025 0.002,0.044 0.005,0.057 0.004,0.013 0.01,0.023 0.019,0.029 0.009,0.006 0.021,0.009 0.037,0.009 0.018,0 0.031,-0.002 0.04,-0.006 0.009,-0.004 0.014,-0.01 0.017,-0.018 0.003,-0.008 0.004,-0.02 0.004,-0.036z"/>
  <polygon id="9" class="fil0" points="3.786,3.017 3.854,3.017 3.854,2.786 3.945,2.786 3.945,2.733 3.695,2.733 3.695,2.786 3.786,2.786 "/>
  <polygon id="10" class="fil0" points="4.205,2.786 4.325,2.786 4.325,3.017 4.393,3.017 4.393,2.733 4.137,2.733 4.137,3.017 4.205,3.017 "/>
  <path id="11" class="fil0" d="M4.45 2.875c0,-0.037 0.004,-0.067 0.012,-0.088 0.008,-0.021 0.022,-0.036 0.041,-0.045 0.019,-0.009 0.046,-0.014 0.081,-0.014 0.035,0 0.062,0.005 0.082,0.014 0.019,0.009 0.033,0.024 0.041,0.045 0.008,0.021 0.012,0.05 0.012,0.087 0,0.028 -0.002,0.051 -0.007,0.07 -0.004,0.019 -0.012,0.034 -0.022,0.045 -0.01,0.011 -0.024,0.02 -0.041,0.025 -0.017,0.005 -0.039,0.008 -0.065,0.008 -0.026,0 -0.048,-0.003 -0.065,-0.008 -0.017,-0.005 -0.031,-0.014 -0.041,-0.025 -0.01,-0.012 -0.017,-0.026 -0.022,-0.045 -0.004,-0.018 -0.007,-0.042 -0.007,-0.07zm0.07 0c0,0.026 0.002,0.046 0.006,0.06 0.004,0.014 0.011,0.023 0.019,0.028 0.009,0.005 0.022,0.007 0.039,0.008 0.017,0 0.03,-0.002 0.04,-0.007 0.009,-0.005 0.016,-0.014 0.02,-0.028 0.004,-0.013 0.006,-0.033 0.006,-0.06 0,-0.02 -0.001,-0.036 -0.003,-0.048 -0.002,-0.012 -0.006,-0.021 -0.011,-0.028 -0.005,-0.007 -0.011,-0.011 -0.02,-0.014 -0.008,-0.003 -0.019,-0.004 -0.032,-0.004 -0.017,0 -0.03,0.002 -0.039,0.007 -0.009,0.005 -0.016,0.014 -0.02,0.027 -0.004,0.013 -0.006,0.033 -0.006,0.059z"/>
  <polygon id="12" class="fil0" points="5.079,3.017 5.145,3.017 5.145,2.89 5.162,2.89 5.248,3.017 5.327,3.017 5.219,2.866 5.31,2.733 5.234,2.733 5.162,2.844 5.145,2.844 5.145,2.733 5.079,2.733 5.079,2.844 5.062,2.844 4.989,2.733 4.914,2.733 5.005,2.866 4.897,3.017 4.976,3.017 5.062,2.89 5.079,2.89 "/>
  <path id="13" class="fil0" d="M5.554 3.017l0.005 -0.039 -0.002 0c-0.006,0.013 -0.013,0.022 -0.021,0.029 -0.008,0.006 -0.018,0.011 -0.029,0.013 -0.011,0.002 -0.026,0.003 -0.043,0.003 -0.024,0 -0.044,-0.003 -0.059,-0.009 -0.015,-0.006 -0.026,-0.015 -0.034,-0.028 -0.007,-0.013 -0.011,-0.031 -0.011,-0.052 0,-0.018 0.002,-0.033 0.006,-0.045 0.004,-0.012 0.01,-0.021 0.019,-0.028 0.009,-0.007 0.02,-0.012 0.034,-0.014 0.014,-0.003 0.031,-0.004 0.053,-0.004 0.025,0 0.043,0.003 0.054,0.008 0.011,0.005 0.02,0.015 0.026,0.028l0.003 0 0 -0.048c0,-0.015 -0.002,-0.027 -0.006,-0.036 -0.004,-0.008 -0.01,-0.014 -0.019,-0.017 -0.009,-0.003 -0.021,-0.005 -0.037,-0.005 -0.021,0 -0.035,0.003 -0.042,0.009 -0.008,0.006 -0.011,0.017 -0.011,0.034l-0.068 0c0.001,-0.017 0.004,-0.032 0.01,-0.043 0.006,-0.012 0.014,-0.02 0.025,-0.027 0.011,-0.006 0.023,-0.011 0.036,-0.013 0.014,-0.002 0.03,-0.004 0.048,-0.004 0.03,0 0.054,0.002 0.073,0.007 0.019,0.004 0.033,0.014 0.044,0.029 0.011,0.015 0.016,0.037 0.016,0.066l0 0.187 -0.068 0zm0 -0.085c0,-0.017 -0.005,-0.028 -0.014,-0.034 -0.009,-0.006 -0.027,-0.009 -0.053,-0.009 -0.015,0 -0.027,0.001 -0.035,0.004 -0.008,0.003 -0.014,0.007 -0.018,0.013 -0.004,0.006 -0.005,0.015 -0.005,0.026 0,0.016 0.004,0.027 0.013,0.033 0.009,0.006 0.023,0.01 0.045,0.01 0.024,0 0.042,-0.003 0.052,-0.009 0.01,-0.006 0.016,-0.017 0.016,-0.034z"/>
  <polygon id="14" class="fil0" points="5.76,2.894 5.88,2.894 5.88,3.017 5.948,3.017 5.948,2.733 5.88,2.733 5.88,2.841 5.76,2.841 5.76,2.733 5.692,2.733 5.692,3.017 5.76,3.017 "/>
  <path id="15" class="fil0" d="M6.088 2.868c0,0.028 0.001,0.049 0.004,0.063 0.003,0.014 0.009,0.023 0.018,0.029 0.009,0.006 0.023,0.009 0.043,0.009 0.019,0 0.033,-0.004 0.042,-0.011 0.009,-0.007 0.015,-0.017 0.017,-0.03 0.002,-0.013 0.004,-0.033 0.004,-0.058 0,-0.026 -0.002,-0.045 -0.005,-0.057 -0.003,-0.012 -0.009,-0.02 -0.018,-0.024 -0.008,-0.004 -0.021,-0.006 -0.039,-0.006 -0.018,0 -0.031,0.002 -0.041,0.007 -0.009,0.005 -0.016,0.013 -0.02,0.025 -0.004,0.012 -0.006,0.03 -0.006,0.054zm0 0.111l0 0.16 -0.068 0 0 -0.405 0.065 0 -0.003 0.04 0.002 0c0.011,-0.017 0.023,-0.028 0.037,-0.035 0.013,-0.006 0.031,-0.01 0.051,-0.01 0.031,0 0.055,0.006 0.071,0.017 0.016,0.011 0.028,0.027 0.033,0.048 0.006,0.021 0.009,0.047 0.009,0.08 0,0.024 -0.001,0.044 -0.003,0.061 -0.002,0.017 -0.007,0.032 -0.014,0.045 -0.007,0.013 -0.018,0.024 -0.033,0.031 -0.015,0.008 -0.034,0.011 -0.058,0.011 -0.022,0 -0.04,-0.003 -0.054,-0.009 -0.014,-0.006 -0.025,-0.017 -0.035,-0.035z"/>
  <path id="16" class="fil0" d="M6.53 3.017l0.005 -0.039 -0.002 0c-0.006,0.013 -0.013,0.022 -0.021,0.029 -0.008,0.006 -0.018,0.011 -0.029,0.013 -0.011,0.002 -0.026,0.003 -0.043,0.003 -0.024,0 -0.044,-0.003 -0.059,-0.009 -0.015,-0.006 -0.026,-0.015 -0.034,-0.028 -0.007,-0.013 -0.011,-0.031 -0.011,-0.052 0,-0.018 0.002,-0.033 0.006,-0.045 0.004,-0.012 0.01,-0.021 0.019,-0.028 0.009,-0.007 0.02,-0.012 0.034,-0.014 0.014,-0.003 0.031,-0.004 0.053,-0.004 0.025,0 0.043,0.003 0.054,0.008 0.011,0.005 0.02,0.015 0.026,0.028l0.003 0 0 -0.048c0,-0.015 -0.002,-0.027 -0.006,-0.036 -0.004,-0.008 -0.01,-0.014 -0.019,-0.017 -0.009,-0.003 -0.021,-0.005 -0.037,-0.005 -0.021,0 -0.035,0.003 -0.042,0.009 -0.008,0.006 -0.011,0.017 -0.011,0.034l-0.068 0c0.001,-0.017 0.004,-0.032 0.01,-0.043 0.006,-0.012 0.014,-0.02 0.025,-0.027 0.011,-0.006 0.023,-0.011 0.036,-0.013 0.014,-0.002 0.03,-0.004 0.048,-0.004 0.03,0 0.054,0.002 0.073,0.007 0.019,0.004 0.033,0.014 0.044,0.029 0.011,0.015 0.016,0.037 0.016,0.066l0 0.187 -0.068 0zm0 -0.085c0,-0.017 -0.005,-0.028 -0.014,-0.034 -0.009,-0.006 -0.027,-0.009 -0.053,-0.009 -0.015,0 -0.027,0.001 -0.035,0.004 -0.008,0.003 -0.014,0.007 -0.018,0.013 -0.004,0.006 -0.005,0.015 -0.005,0.026 0,0.016 0.004,0.027 0.013,0.033 0.009,0.006 0.023,0.01 0.045,0.01 0.024,0 0.042,-0.003 0.052,-0.009 0.01,-0.006 0.016,-0.017 0.016,-0.034z"/>
  <path id="17" class="fil0" d="M6.875 3.017l0.057 -0.171c0.004,-0.013 0.01,-0.027 0.015,-0.044 0.006,-0.016 0.01,-0.028 0.011,-0.035 -0.004,0.027 -0.006,0.052 -0.006,0.072l0 0.178 0.065 0 0 -0.285 -0.103 0 -0.064 0.191c-0.002,0.004 -0.005,0.02 -0.009,0.047 -0.004,-0.027 -0.007,-0.042 -0.009,-0.047l-0.063 -0.191 -0.103 0 0 0.285 0.064 0 0 -0.178c0,-0.021 -0.002,-0.045 -0.006,-0.072 0.002,0.006 0.006,0.02 0.014,0.042 0.008,0.021 0.012,0.034 0.013,0.037l0.057 0.171 0.066 0z"/>
  <g id="_2008489044880">
   <rect class="fil1" x="0" y="1.804" width="0.481" height="0.481" rx="0.096" ry="0.091"/>
   <g>
    <path class="fil2" d="M0.092 1.887c-0.001,0.003 -0.008,0.008 -0.014,0.029 -0.002,0.006 -0.004,0.02 -0.004,0.026 0,0.025 0.003,0.036 0.01,0.059 0.004,0.014 0.019,0.045 0.027,0.058 0.003,0.004 0.005,0.008 0.008,0.013 0.012,0.018 0.037,0.054 0.052,0.069l0.012 0.014c0.013,0.014 0.028,0.028 0.044,0.04l0.018 0.013c0.002,0.002 0.004,0.003 0.007,0.004 0.023,0.013 0.052,0.026 0.079,0.025 0.009,-0 0.026,-0.002 0.032,-0.009 -0.003,-0.004 -0.006,-0.008 -0.01,-0.012l-0.007 -0.009c-0.001,-0.001 -0.001,-0.002 -0.002,-0.003 -0.012,-0.015 -0.026,-0.033 -0.038,-0.048l-0.019 -0.024c-0.004,0.002 -0.005,0.003 -0.01,0.003 -0.015,0 -0.045,-0.034 -0.056,-0.046 -0.01,-0.012 -0.017,-0.021 -0.027,-0.033l-0.017 -0.025c-0.006,-0.01 -0.015,-0.025 -0.013,-0.037 0.001,-0.005 0.003,-0.007 0.006,-0.01l-0.059 -0.074c-0.003,-0.004 -0.006,-0.008 -0.01,-0.012 -0.002,-0.002 -0.003,-0.004 -0.005,-0.006 -0.001,-0.002 -0.003,-0.005 -0.005,-0.005z"/>
    <path class="fil2" d="M0.124 1.902c0.015,0.02 0.034,0.042 0.049,0.061l0.01 0.012c0.003,-0.001 0.018,-0.014 0.02,-0.016 0.007,-0.005 0.016,-0.012 0.01,-0.022 -0.002,-0.003 -0.014,-0.018 -0.017,-0.022l-0.039 -0.049c-0.012,-0.013 -0.013,-0.02 -0.032,-0.004l-0.02 0.016 0.02 0.025z"/>
    <path class="fil2" d="M0.334 2.098c-0.005,0 -0.008,0.002 -0.011,0.005 -0.004,0.003 -0.022,0.017 -0.025,0.02l0.017 0.021c0,0 0,0 0,0l0.059 0.074 0.008 -0.006c0.002,-0.002 0.005,-0.004 0.008,-0.006 0.003,-0.002 0.005,-0.004 0.008,-0.006 0.003,-0.003 0.005,-0.004 0.007,-0.007 0.005,-0.008 -0.001,-0.015 -0.005,-0.02l-0.044 -0.055c-0.001,-0.001 -0.002,-0.002 -0.003,-0.004 -0.007,-0.008 -0.01,-0.016 -0.019,-0.016z"/>
   </g>
  </g>
  <g id="_2008489050608">
   <rect class="fil1" x="0" y="1.039" width="0.481" height="0.481" rx="0.096" ry="0.091"/>
   <g>
    <path class="fil2" d="M0.174 1.211l0.062 -0.038c0.001,-0.001 0.003,-0.002 0.004,-0.003 0,0 0,0 0,0l0.062 0.037c0.001,0.001 0.003,0.002 0.004,0.002 -0,0.002 -0.008,0.013 -0.008,0.015l0 0.063 -0.117 0 0 -0.063c0,-0.001 -0.001,-0.003 -0.002,-0.004l-0.006 -0.011zm0.066 0.261c0.004,0 0.006,-0.002 0.008,-0.005l0.019 -0.023c0.001,-0.001 0.002,-0.002 0.003,-0.003 0.001,-0.001 0.002,-0.002 0.003,-0.003l0.008 -0.01c0.001,-0.001 0.002,-0.002 0.003,-0.003 0.001,-0.001 0.002,-0.002 0.003,-0.003l0.015 -0.021c0.005,-0.007 0.01,-0.014 0.014,-0.022l0.009 -0.015c0.002,-0.003 0.003,-0.005 0.004,-0.007 0.003,-0.005 0.006,-0.011 0.009,-0.015l0.004 -0.008c0.001,-0.003 0.003,-0.005 0.004,-0.008 0.001,-0.001 0.001,-0.003 0.002,-0.004 0.006,-0.012 0.011,-0.025 0.016,-0.038 0.001,-0.003 0.002,-0.006 0.003,-0.009 0.005,-0.017 0.009,-0.032 0.009,-0.051 0,-0.041 -0.018,-0.074 -0.039,-0.095l-0.011 -0.01c-0.004,-0.003 -0.008,-0.006 -0.012,-0.009 -0.003,-0.002 -0.007,-0.004 -0.011,-0.006l-0.006 -0.003c-0.033,-0.016 -0.071,-0.016 -0.106,-0.002 -0.007,0.003 -0.014,0.006 -0.02,0.01 -0.005,0.003 -0.01,0.007 -0.015,0.011l-0.008 0.007c-0.001,0.001 -0.002,0.002 -0.003,0.003l-0.007 0.008c-0.002,0.002 -0.003,0.004 -0.005,0.006 -0.007,0.01 -0.012,0.018 -0.016,0.029 -0.002,0.005 -0.004,0.01 -0.005,0.015 -0,0.001 -0.001,0.003 -0.001,0.004 -0.004,0.015 -0.004,0.031 -0.002,0.046 0.002,0.022 0.01,0.046 0.019,0.067 0.005,0.012 0.011,0.024 0.017,0.036 0.005,0.009 0.01,0.018 0.016,0.027 0.003,0.004 0.005,0.008 0.008,0.013 0.004,0.007 0.014,0.021 0.018,0.027l0.008 0.012c0.008,0.011 0.016,0.021 0.024,0.032 0.004,0.005 0.008,0.01 0.013,0.015 0.002,0.002 0.004,0.005 0.008,0.005z"/>
    <path class="fil2" d="M0.199 1.215l0 0.057 0.025 0 0 -0.041 0.033 0 0 0.041 0.025 0 0 -0.056c0,-0.001 -0.002,-0.002 -0.002,-0.002 -0.001,-0.001 -0.002,-0.001 -0.003,-0.002l-0.037 -0.022c-0.001,-0 -0.004,0.002 -0.005,0.003l-0.035 0.021c-0.001,0 -0.001,0 -0.001,0.001z"/>
   </g>
  </g>
  <g id="_2008489052240">
   <rect class="fil1" x="0" y="2.568" width="0.481" height="0.481" rx="0.096" ry="0.091"/>
   <g>
    <path class="fil2" d="M0.208 2.633c0,0.022 0.004,0.031 -0.005,0.037 -0.007,-0.005 -0.005,-0.001 -0.005,-0.028 -0.02,0.005 -0.034,0.034 -0.038,0.054 -0.002,0.01 0,0.005 -0.004,0.012 -0.003,0.004 -0.006,0.004 -0.006,0.01 0,0.032 0.114,0.032 0.152,0.022 0.012,-0.003 0.04,-0.014 0.028,-0.027 -0.017,-0.019 -0.002,-0.01 -0.015,-0.038 -0.006,-0.012 -0.017,-0.03 -0.029,-0.033 0,0.013 0,0.017 -0.002,0.028l-0.007 0c-0.003,-0.013 -0.002,-0.022 -0.002,-0.037 -0.031,-0.008 -0.047,-0.004 -0.065,0z"/>
    <path class="fil2" d="M0.16 2.765c0,0.024 0.014,0.036 0.027,0.063 0.018,0.038 0.077,0.068 0.114,-0.012 0.009,-0.019 0.021,-0.016 0.021,-0.056 0,-0.025 -0.016,-0.005 -0.065,-0.005 -0.052,0 -0.041,0.002 -0.09,-0.009 -0.003,0.005 -0.007,0.01 -0.007,0.019z"/>
    <path class="fil2" d="M0.136 2.985c0.02,0 0.035,0.005 0.058,0.005l0.095 0c0.023,0 0.039,-0.005 0.06,-0.005l0 -0.042 -0.213 0 0 0.042z"/>
    <path class="fil2" d="M0.171 2.846l0 0.074 0.141 0 0 -0.074 -0.016 -0.005c-0.02,0.03 -0.054,0.043 -0.089,0.022 -0.011,-0.007 -0.015,-0.015 -0.025,-0.021 -0.005,0.003 -0.005,0.003 -0.012,0.005z"/>
    <path class="fil2" d="M0.074 2.96c0,0.011 0.011,0.013 0.023,0.017 0.044,0.014 -0.018,-0.05 0.051,-0.056l0 -0.063c-0.038,0.003 -0.074,0.054 -0.074,0.102z"/>
    <path class="fil2" d="M0.333 2.865l0 0.056c0.044,0 0.039,0.023 0.039,0.058 0.013,-0 0.023,-0.007 0.035,-0.009l0 -0.013c-0,-0.011 -0.001,-0.018 -0.004,-0.029 -0.012,-0.039 -0.025,-0.049 -0.056,-0.065 -0.005,-0.002 -0.014,-0.009 -0.014,0.003z"/>
   </g>
  </g>
 </g>
</svg>
