<?xml version="1.0" encoding="UTF-8"?>
<!DOCTYPE svg PUBLIC "-//W3C//DTD SVG 1.1//EN" "http://www.w3.org/Graphics/SVG/1.1/DTD/svg11.dtd">
<!-- Creator: CorelDRAW 2019 (64-Bit) -->
<svg xmlns="http://www.w3.org/2000/svg" xml:space="preserve" width="3.73856cm" height="1.11954cm" version="1.1" style="shape-rendering:geometricPrecision; text-rendering:geometricPrecision; image-rendering:optimizeQuality; fill-rule:evenodd; clip-rule:evenodd"
viewBox="0 0 24.433 7.317"
 xmlns:xlink="http://www.w3.org/1999/xlink"
 xmlns:xodm="http://www.corel.com/coreldraw/odm/2003">
 <defs>
  <style type="text/css">
   <![CDATA[
    .fil1 {fill:#1B5A5C}
    .fil2 {fill:#29878C}
    .fil0 {fill:white;fill-rule:nonzero}
   ]]>
  </style>
 </defs>
 <g id="Слой_x0020_1">
  <metadata id="CorelCorpID_0Corel-Layer"/>
  <path class="fil0" d="M1.831 0.564l0.163 0 0 0.051c0,0.067 -0.012,0.12 -0.034,0.158 -0.023,0.039 -0.06,0.067 -0.112,0.084 -0.052,0.017 -0.122,0.026 -0.211,0.026 -0.073,0 -0.133,-0.007 -0.179,-0.021 -0.046,-0.014 -0.083,-0.037 -0.11,-0.071 -0.027,-0.033 -0.047,-0.079 -0.058,-0.137 -0.012,-0.058 -0.017,-0.134 -0.017,-0.228 0,-0.103 0.01,-0.185 0.031,-0.247 0.021,-0.061 0.057,-0.106 0.109,-0.135 0.052,-0.029 0.125,-0.044 0.218,-0.044 0.093,0 0.164,0.011 0.215,0.032 0.05,0.022 0.085,0.054 0.106,0.096 0.02,0.042 0.033,0.099 0.038,0.17l-0.161 0c-0.003,-0.046 -0.01,-0.079 -0.022,-0.101 -0.012,-0.021 -0.031,-0.036 -0.057,-0.044 -0.027,-0.008 -0.066,-0.011 -0.119,-0.011 -0.054,0 -0.095,0.007 -0.12,0.021 -0.026,0.014 -0.044,0.041 -0.054,0.083 -0.01,0.041 -0.015,0.106 -0.015,0.195 0,0.063 0.003,0.114 0.009,0.152 0.006,0.039 0.016,0.068 0.03,0.09 0.014,0.021 0.033,0.036 0.057,0.044 0.024,0.008 0.057,0.012 0.097,0.012 0.052,0 0.091,-0.003 0.12,-0.011 0.028,-0.007 0.048,-0.019 0.06,-0.037 0.012,-0.017 0.018,-0.042 0.018,-0.075l0 -0.054z"/>
  <polygon id="1" class="fil0" points="2.83,0.009 2.574,0.427 2.85,0.873 2.659,0.873 2.442,0.51 2.223,0.873 2.028,0.873 2.311,0.427 2.049,0.009 2.241,0.009 2.442,0.352 2.641,0.009 "/>
  <polygon id="2" class="fil0" points="3.675,0.009 3.675,0.873 3.509,0.873 3.509,0.151 3.107,0.151 3.107,0.873 2.941,0.873 2.941,0.009 "/>
  <polygon id="3" class="fil0" points="3.992,0.009 3.992,0.362 4.069,0.362 4.357,0.009 4.56,0.009 4.211,0.43 4.597,0.873 4.388,0.873 4.069,0.504 3.992,0.504 3.992,0.873 3.826,0.873 3.826,0.009 "/>
  <path id="4" class="fil0" d="M5.132 0.248l0.097 0.054 -0.121 0.249 0.129 0.242 -0.091 0.061 -0.165 -0.303 0.151 -0.303zm0.235 -0.004l0.098 0.056 -0.123 0.248 0.13 0.243 -0.093 0.058 -0.165 -0.301 0.154 -0.304z"/>
  <path id="5" class="fil0" d="M5.816 0.372l0.134 0c0.052,0 0.09,-0.009 0.114,-0.028 0.024,-0.019 0.036,-0.049 0.036,-0.091 0,-0.032 -0.005,-0.056 -0.016,-0.074 -0.011,-0.018 -0.029,-0.03 -0.055,-0.038 -0.025,-0.008 -0.061,-0.011 -0.108,-0.011 -0.038,0 -0.069,0.002 -0.091,0.006 -0.023,0.004 -0.041,0.011 -0.054,0.021 -0.013,0.01 -0.023,0.023 -0.028,0.04 -0.006,0.017 -0.008,0.038 -0.009,0.066l-0.158 0c0.005,-0.07 0.019,-0.124 0.042,-0.161 0.023,-0.038 0.058,-0.064 0.105,-0.079 0.047,-0.015 0.112,-0.023 0.194,-0.023 0.113,0 0.197,0.018 0.252,0.054 0.055,0.036 0.082,0.092 0.082,0.168 0,0.061 -0.009,0.106 -0.027,0.136 -0.018,0.03 -0.05,0.052 -0.095,0.067l0 0.004c0.037,0.01 0.066,0.023 0.087,0.04 0.021,0.016 0.036,0.037 0.044,0.062 0.009,0.025 0.013,0.057 0.013,0.095 0,0.061 -0.01,0.109 -0.031,0.146 -0.021,0.037 -0.057,0.064 -0.109,0.083 -0.052,0.018 -0.124,0.027 -0.217,0.027 -0.058,0 -0.108,-0.003 -0.15,-0.01 -0.042,-0.007 -0.077,-0.019 -0.107,-0.037 -0.029,-0.018 -0.051,-0.043 -0.067,-0.076 -0.015,-0.033 -0.023,-0.076 -0.023,-0.127l0 -0.036 0.156 0c0.001,0.044 0.005,0.076 0.012,0.096 0.007,0.02 0.024,0.035 0.051,0.045 0.027,0.01 0.07,0.015 0.129,0.015 0.052,0 0.092,-0.004 0.121,-0.011 0.028,-0.008 0.049,-0.02 0.061,-0.038 0.012,-0.018 0.019,-0.043 0.019,-0.076 0,-0.047 -0.012,-0.08 -0.036,-0.1 -0.024,-0.02 -0.06,-0.03 -0.11,-0.03l-0.16 0 0 -0.123z"/>
  <path id="6" class="fil0" d="M6.779 0.873l0.012 -0.083 -0.003 0c-0.012,0.027 -0.028,0.047 -0.045,0.061 -0.018,0.013 -0.039,0.022 -0.062,0.027 -0.024,0.004 -0.054,0.006 -0.092,0.006 -0.051,0 -0.093,-0.006 -0.125,-0.018 -0.032,-0.012 -0.056,-0.032 -0.071,-0.06 -0.016,-0.028 -0.023,-0.065 -0.023,-0.111 0,-0.038 0.004,-0.07 0.012,-0.095 0.008,-0.025 0.022,-0.045 0.04,-0.059 0.018,-0.014 0.042,-0.025 0.071,-0.031 0.029,-0.006 0.066,-0.009 0.112,-0.009 0.053,0 0.091,0.006 0.114,0.017 0.023,0.012 0.042,0.032 0.055,0.06l0.007 0 0 -0.103c0,-0.033 -0.004,-0.058 -0.012,-0.076 -0.008,-0.018 -0.021,-0.03 -0.04,-0.036 -0.019,-0.007 -0.045,-0.01 -0.079,-0.01 -0.044,0 -0.073,0.006 -0.09,0.019 -0.016,0.012 -0.024,0.036 -0.024,0.071l-0.145 0c0.001,-0.037 0.008,-0.067 0.021,-0.092 0.013,-0.024 0.03,-0.043 0.053,-0.056 0.022,-0.013 0.048,-0.022 0.077,-0.027 0.029,-0.005 0.063,-0.008 0.103,-0.008 0.064,0 0.115,0.005 0.154,0.014 0.039,0.009 0.07,0.03 0.093,0.061 0.023,0.032 0.034,0.078 0.034,0.14l0 0.398 -0.144 0zm0 -0.181c0,-0.035 -0.01,-0.059 -0.03,-0.072 -0.02,-0.013 -0.057,-0.019 -0.112,-0.019 -0.032,0 -0.057,0.003 -0.075,0.009 -0.018,0.006 -0.031,0.015 -0.038,0.028 -0.008,0.013 -0.011,0.031 -0.011,0.054 0,0.033 0.009,0.057 0.027,0.071 0.018,0.014 0.05,0.021 0.095,0.021 0.052,0 0.089,-0.006 0.111,-0.019 0.022,-0.013 0.033,-0.037 0.033,-0.072z"/>
  <path id="7" class="fil0" d="M7.215 0.555c0,0.06 0.003,0.104 0.009,0.133 0.006,0.029 0.019,0.05 0.038,0.062 0.019,0.012 0.05,0.019 0.091,0.019 0.041,0 0.071,-0.007 0.09,-0.023 0.019,-0.015 0.031,-0.037 0.036,-0.065 0.005,-0.028 0.008,-0.069 0.008,-0.123 0,-0.055 -0.004,-0.096 -0.011,-0.121 -0.007,-0.026 -0.02,-0.043 -0.038,-0.051 -0.018,-0.009 -0.045,-0.013 -0.082,-0.013 -0.038,0 -0.067,0.005 -0.086,0.014 -0.02,0.01 -0.034,0.028 -0.042,0.053 -0.008,0.026 -0.012,0.064 -0.012,0.115zm0 0.235l0 0.339 -0.144 0 0 -0.86 0.139 0 -0.006 0.085 0.004 0c0.024,-0.036 0.05,-0.061 0.078,-0.074 0.028,-0.014 0.065,-0.021 0.109,-0.021 0.065,0 0.116,0.012 0.151,0.036 0.035,0.024 0.058,0.057 0.071,0.101 0.012,0.044 0.018,0.101 0.018,0.17 0,0.05 -0.002,0.093 -0.007,0.129 -0.005,0.036 -0.015,0.068 -0.03,0.096 -0.015,0.028 -0.038,0.05 -0.07,0.067 -0.031,0.016 -0.073,0.024 -0.124,0.024 -0.048,0 -0.086,-0.006 -0.115,-0.018 -0.029,-0.012 -0.054,-0.037 -0.074,-0.074z"/>
  <path id="8" class="fil0" d="M8.152 0.681l0.143 0 0 0.022c0,0.049 -0.011,0.086 -0.033,0.113 -0.022,0.026 -0.053,0.044 -0.093,0.053 -0.04,0.009 -0.09,0.014 -0.152,0.014 -0.07,0 -0.125,-0.01 -0.165,-0.029 -0.04,-0.019 -0.068,-0.051 -0.085,-0.096 -0.017,-0.045 -0.026,-0.106 -0.026,-0.185 0,-0.078 0.009,-0.139 0.027,-0.185 0.018,-0.045 0.047,-0.078 0.087,-0.099 0.04,-0.02 0.095,-0.03 0.164,-0.03 0.069,0 0.123,0.01 0.164,0.031 0.041,0.021 0.07,0.053 0.088,0.097 0.018,0.044 0.027,0.101 0.027,0.172l0 0.042 -0.41 0c0,0.049 0.004,0.085 0.012,0.11 0.008,0.025 0.021,0.042 0.039,0.052 0.018,0.01 0.045,0.014 0.081,0.014 0.033,0 0.059,-0.002 0.078,-0.007 0.019,-0.005 0.033,-0.013 0.043,-0.026 0.009,-0.012 0.014,-0.03 0.014,-0.053l0 -0.012zm0.002 -0.174c0,-0.036 -0.004,-0.064 -0.013,-0.085 -0.009,-0.02 -0.023,-0.035 -0.042,-0.044 -0.02,-0.009 -0.047,-0.013 -0.081,-0.013 -0.034,0 -0.06,0.004 -0.079,0.013 -0.019,0.009 -0.033,0.023 -0.041,0.044 -0.008,0.02 -0.012,0.049 -0.012,0.085l0.269 0z"/>
  <path id="9" class="fil0" d="M8.946 0.873l0 -0.605 -0.144 0 0 0.177c0,0.033 -0.01,0.056 -0.029,0.068 -0.019,0.012 -0.053,0.018 -0.101,0.018 -0.033,0 -0.058,-0.002 -0.074,-0.008 -0.016,-0.005 -0.027,-0.013 -0.033,-0.025 -0.006,-0.012 -0.009,-0.03 -0.009,-0.053l0 -0.178 -0.144 0 0 0.184c0,0.044 0.007,0.08 0.022,0.108 0.014,0.027 0.037,0.048 0.068,0.061 0.031,0.013 0.072,0.02 0.123,0.02 0.049,0 0.088,-0.006 0.117,-0.019 0.029,-0.012 0.049,-0.033 0.062,-0.063l0 0.315 0.144 0z"/>
  <polygon id="10" class="fil0" points="9.243,0.61 9.497,0.61 9.497,0.873 9.641,0.873 9.641,0.269 9.497,0.269 9.497,0.498 9.243,0.498 9.243,0.269 9.098,0.269 9.098,0.873 9.243,0.873 "/>
  <path id="11" class="fil0" d="M9.796 0.874l0 -0.604 0.144 0 0 0.231 0.204 0c0.115,0 0.173,0.062 0.173,0.187 0,0.063 -0.015,0.11 -0.045,0.14 -0.03,0.031 -0.073,0.046 -0.128,0.046l-0.348 0zm0.144 -0.269l0 0.163 0.145 0c0.031,0 0.053,-0.006 0.066,-0.017 0.013,-0.011 0.02,-0.032 0.02,-0.064 0,-0.022 -0.003,-0.039 -0.009,-0.051 -0.006,-0.012 -0.015,-0.02 -0.028,-0.025 -0.013,-0.004 -0.029,-0.007 -0.051,-0.007l-0.144 0zm0.613 -0.335l0 0.604 -0.144 0 0 -0.604 0.144 0z"/>
  <path id="12" class="fil0" d="M10.705 0.267l0 0.605 0.177 0 0.197 -0.378c0.015,-0.027 0.037,-0.072 0.066,-0.134 -0.006,0.016 -0.012,0.044 -0.019,0.084 -0.007,0.039 -0.01,0.071 -0.01,0.095l0 0.333 0.137 0 0 -0.605 -0.176 0 -0.197 0.381c-0.01,0.019 -0.032,0.063 -0.066,0.134 0.007,-0.017 0.013,-0.042 0.019,-0.075 0.006,-0.033 0.009,-0.063 0.009,-0.089l0 -0.352 -0.137 0zm0.269 -0.043c-0.046,0 -0.083,-0.009 -0.108,-0.027 -0.026,-0.018 -0.038,-0.051 -0.038,-0.097l0.08 0c0,0.02 0.005,0.034 0.014,0.041 0.01,0.007 0.028,0.011 0.054,0.011 0.029,0 0.047,-0.004 0.056,-0.011 0.009,-0.007 0.014,-0.021 0.014,-0.042l0.078 0c0,0.047 -0.013,0.079 -0.039,0.097 -0.026,0.018 -0.063,0.027 -0.111,0.027z"/>
  <path id="13" class="fil0" d="M11.728 0.248l0.151 0.303 -0.165 0.303 -0.094 -0.061 0.131 -0.242 -0.122 -0.249 0.098 -0.054zm-0.236 -0.004l0.152 0.304 -0.164 0.301 -0.092 -0.058 0.13 -0.243 -0.124 -0.248 0.097 -0.056z"/>
  <path class="fil0" d="M1.334 2.33c0.014,-0.019 0.025,-0.038 0.034,-0.055 0.008,-0.018 0.014,-0.039 0.018,-0.065 0.004,-0.025 0.006,-0.057 0.006,-0.095l0 -0.184 0.377 0 0 0.398 0.062 0 0 0.217 -0.106 0 0 -0.131 -0.337 0 0 0.131 -0.106 0 0 -0.217 0.052 0zm0.32 0l0 -0.313 -0.152 0 0 0.105c0,0.094 -0.018,0.164 -0.053,0.208l0.205 0z"/>
  <path id="1" class="fil0" d="M2.503 1.835l0 0.179 0.168 0c0.03,0 0.053,-0.002 0.069,-0.007 0.016,-0.005 0.028,-0.014 0.035,-0.028 0.007,-0.014 0.011,-0.034 0.011,-0.061 0,-0.032 -0.007,-0.054 -0.021,-0.065 -0.014,-0.012 -0.038,-0.018 -0.072,-0.018l-0.19 0zm0 0.278l0 0.194 0.168 0c0.046,0 0.079,-0.007 0.1,-0.022 0.021,-0.015 0.031,-0.04 0.031,-0.077 0,-0.024 -0.004,-0.044 -0.011,-0.058 -0.007,-0.014 -0.018,-0.024 -0.034,-0.029 -0.015,-0.006 -0.036,-0.008 -0.063,-0.008l-0.192 0zm-0.131 0.303l0 -0.691 0.354 0c0.042,0 0.077,0.006 0.106,0.018 0.028,0.012 0.05,0.031 0.065,0.057 0.015,0.026 0.022,0.059 0.022,0.098 0,0.088 -0.033,0.141 -0.099,0.159l0 0.004c0.037,0.006 0.065,0.022 0.085,0.049 0.02,0.027 0.03,0.063 0.03,0.107 0,0.031 -0.004,0.058 -0.012,0.083 -0.008,0.024 -0.02,0.045 -0.037,0.063 -0.016,0.017 -0.037,0.03 -0.062,0.04 -0.025,0.009 -0.054,0.014 -0.087,0.014l-0.365 0z"/>
  <path id="2" class="fil0" d="M3.339 2.263l0.114 0 0 0.018c0,0.039 -0.009,0.069 -0.027,0.09 -0.018,0.021 -0.043,0.035 -0.074,0.043 -0.032,0.007 -0.072,0.011 -0.122,0.011 -0.056,0 -0.1,-0.008 -0.132,-0.023 -0.032,-0.015 -0.054,-0.041 -0.068,-0.077 -0.014,-0.036 -0.021,-0.085 -0.021,-0.148 0,-0.062 0.007,-0.111 0.021,-0.148 0.014,-0.036 0.037,-0.063 0.069,-0.079 0.032,-0.016 0.076,-0.024 0.131,-0.024 0.055,0 0.099,0.008 0.131,0.025 0.033,0.017 0.056,0.042 0.07,0.077 0.014,0.035 0.021,0.081 0.021,0.138l0 0.034 -0.328 0c0,0.039 0.003,0.068 0.009,0.088 0.006,0.02 0.017,0.034 0.031,0.041 0.015,0.008 0.036,0.012 0.065,0.012 0.026,0 0.047,-0.002 0.063,-0.006 0.015,-0.004 0.027,-0.011 0.034,-0.02 0.007,-0.01 0.011,-0.024 0.011,-0.042l0 -0.009zm0.002 -0.139c0,-0.029 -0.003,-0.051 -0.01,-0.068 -0.007,-0.016 -0.018,-0.028 -0.034,-0.035 -0.016,-0.007 -0.037,-0.011 -0.065,-0.011 -0.027,0 -0.048,0.004 -0.063,0.01 -0.015,0.007 -0.026,0.019 -0.033,0.035 -0.007,0.016 -0.01,0.039 -0.01,0.068l0.215 0z"/>
  <path id="3" class="fil0" d="M3.668 2.162c0,0.048 0.002,0.083 0.007,0.107 0.005,0.023 0.015,0.04 0.03,0.05 0.015,0.01 0.04,0.015 0.073,0.015 0.033,0 0.057,-0.006 0.072,-0.018 0.015,-0.012 0.025,-0.029 0.029,-0.052 0.004,-0.022 0.006,-0.055 0.006,-0.099 0,-0.044 -0.003,-0.077 -0.009,-0.097 -0.006,-0.021 -0.016,-0.034 -0.03,-0.041 -0.014,-0.007 -0.036,-0.01 -0.066,-0.01 -0.03,0 -0.053,0.004 -0.069,0.012 -0.016,0.008 -0.027,0.022 -0.034,0.043 -0.007,0.021 -0.01,0.051 -0.01,0.092zm0 0.188l0 0.271 -0.115 0 0 -0.688 0.111 0 -0.005 0.068 0.004 0c0.019,-0.029 0.04,-0.048 0.063,-0.059 0.023,-0.011 0.052,-0.016 0.087,-0.016 0.052,0 0.093,0.01 0.121,0.028 0.028,0.019 0.047,0.046 0.057,0.081 0.01,0.035 0.015,0.08 0.015,0.136 0,0.04 -0.002,0.075 -0.006,0.103 -0.004,0.029 -0.012,0.055 -0.024,0.077 -0.012,0.023 -0.031,0.04 -0.056,0.053 -0.025,0.013 -0.058,0.019 -0.099,0.019 -0.038,0 -0.069,-0.005 -0.092,-0.015 -0.023,-0.01 -0.043,-0.029 -0.059,-0.059z"/>
  <polygon id="4" class="fil0" points="4.517,1.933 4.376,2.161 4.533,2.416 4.396,2.416 4.298,2.238 4.203,2.416 4.063,2.416 4.223,2.161 4.082,1.933 4.214,1.933 4.298,2.088 4.382,1.933 "/>
  <polygon id="5" class="fil0" points="4.719,2.206 4.923,2.206 4.923,2.416 5.038,2.416 5.038,1.933 4.923,1.933 4.923,2.116 4.719,2.116 4.719,1.933 4.604,1.933 4.604,2.416 4.719,2.416 "/>
  <path id="6" class="fil0" d="M5.56 1.933l0 0.484 -0.115 0 0 -0.185 -0.089 0 -0.109 0.185 -0.123 0 0.121 -0.2c-0.07,-0.02 -0.105,-0.065 -0.105,-0.137 0,-0.098 0.046,-0.147 0.137,-0.147l0.283 0zm-0.115 0.215l0 -0.131 -0.122 0c-0.024,0 -0.041,0.005 -0.051,0.014 -0.01,0.009 -0.015,0.027 -0.015,0.051 0,0.025 0.006,0.042 0.019,0.052 0.012,0.009 0.031,0.014 0.057,0.014l0.112 0z"/>
  <path id="7" class="fil0" d="M6.076 1.933l0 0.484 -0.115 0 0 -0.185 -0.089 0 -0.109 0.185 -0.123 0 0.121 -0.2c-0.07,-0.02 -0.105,-0.065 -0.105,-0.137 0,-0.098 0.046,-0.147 0.137,-0.147l0.283 0zm-0.115 0.215l0 -0.131 -0.122 0c-0.024,0 -0.041,0.005 -0.051,0.014 -0.01,0.009 -0.015,0.027 -0.015,0.051 0,0.025 0.006,0.042 0.019,0.052 0.012,0.009 0.031,0.014 0.057,0.014l0.112 0z"/>
  <path id="8" class="fil0" d="M6.441 2.416l0 -0.691 0.482 0 0 0.11 -0.35 0 0 0.16 0.219 0c0.042,0 0.078,0.008 0.108,0.025 0.029,0.017 0.051,0.041 0.066,0.073 0.015,0.032 0.022,0.07 0.022,0.114 0,0.044 -0.007,0.081 -0.022,0.113 -0.015,0.031 -0.037,0.055 -0.066,0.071 -0.029,0.016 -0.065,0.024 -0.107,0.024l-0.352 0zm0.132 -0.11l0.169 0c0.029,0 0.051,-0.003 0.067,-0.008 0.016,-0.006 0.028,-0.015 0.035,-0.029 0.007,-0.014 0.011,-0.034 0.011,-0.061 0,-0.04 -0.008,-0.067 -0.025,-0.081 -0.016,-0.015 -0.045,-0.022 -0.084,-0.022l-0.173 0 0 0.202z"/>
  <path id="9" class="fil0" d="M7.058 2.173c0,-0.064 0.007,-0.113 0.02,-0.149 0.014,-0.035 0.037,-0.061 0.069,-0.076 0.033,-0.015 0.079,-0.023 0.138,-0.023 0.059,0 0.105,0.008 0.138,0.023 0.033,0.015 0.056,0.041 0.07,0.076 0.014,0.035 0.021,0.085 0.021,0.148 0,0.047 -0.004,0.086 -0.012,0.118 -0.008,0.032 -0.02,0.057 -0.038,0.077 -0.017,0.019 -0.041,0.033 -0.07,0.042 -0.029,0.009 -0.066,0.013 -0.111,0.014 -0.044,0 -0.081,-0.004 -0.11,-0.014 -0.029,-0.009 -0.053,-0.023 -0.07,-0.043 -0.017,-0.02 -0.029,-0.045 -0.037,-0.076 -0.008,-0.031 -0.011,-0.071 -0.011,-0.118zm0.118 0c0,0.045 0.003,0.079 0.01,0.102 0.007,0.023 0.018,0.038 0.033,0.047 0.015,0.008 0.038,0.013 0.067,0.013 0.029,0 0.051,-0.004 0.067,-0.012 0.016,-0.008 0.027,-0.024 0.034,-0.047 0.007,-0.023 0.01,-0.057 0.01,-0.102 0,-0.034 -0.002,-0.061 -0.006,-0.081 -0.004,-0.02 -0.01,-0.036 -0.018,-0.047 -0.008,-0.011 -0.019,-0.019 -0.033,-0.023 -0.014,-0.004 -0.032,-0.007 -0.054,-0.007 -0.029,0 -0.051,0.004 -0.067,0.012 -0.015,0.008 -0.026,0.023 -0.033,0.046 -0.007,0.023 -0.01,0.056 -0.01,0.1z"/>
  <polygon id="10" class="fil0" points="7.931,2.021 7.931,1.933 7.611,1.933 7.611,2.416 7.726,2.416 7.726,2.021 "/>
  <path id="11" class="fil0" d="M8.314 2.416l0.009 -0.067 -0.003 0c-0.01,0.022 -0.022,0.038 -0.036,0.049 -0.014,0.011 -0.031,0.018 -0.05,0.021 -0.019,0.003 -0.044,0.005 -0.073,0.005 -0.041,0 -0.075,-0.005 -0.1,-0.015 -0.026,-0.01 -0.045,-0.026 -0.057,-0.048 -0.012,-0.022 -0.019,-0.052 -0.019,-0.089 0,-0.031 0.003,-0.056 0.01,-0.076 0.007,-0.02 0.017,-0.036 0.032,-0.047 0.014,-0.011 0.033,-0.02 0.057,-0.024 0.023,-0.005 0.053,-0.007 0.09,-0.007 0.042,0 0.073,0.005 0.091,0.014 0.019,0.009 0.033,0.025 0.044,0.048l0.005 0 0 -0.082c0,-0.026 -0.003,-0.046 -0.01,-0.061 -0.006,-0.014 -0.017,-0.024 -0.032,-0.029 -0.015,-0.005 -0.036,-0.008 -0.063,-0.008 -0.035,0 -0.059,0.005 -0.072,0.015 -0.013,0.01 -0.019,0.029 -0.019,0.057l-0.116 0c0.001,-0.03 0.007,-0.054 0.017,-0.074 0.01,-0.02 0.024,-0.035 0.042,-0.045 0.018,-0.011 0.038,-0.018 0.062,-0.022 0.023,-0.004 0.051,-0.006 0.082,-0.006 0.051,0 0.092,0.004 0.124,0.011 0.032,0.008 0.056,0.024 0.074,0.049 0.018,0.025 0.027,0.063 0.027,0.112l0 0.318 -0.115 0zm0 -0.145c0,-0.028 -0.008,-0.047 -0.024,-0.058 -0.016,-0.01 -0.046,-0.015 -0.09,-0.015 -0.026,0 -0.046,0.002 -0.06,0.007 -0.014,0.004 -0.024,0.012 -0.03,0.022 -0.006,0.01 -0.009,0.025 -0.009,0.044 0,0.027 0.007,0.045 0.022,0.056 0.015,0.011 0.04,0.016 0.076,0.016 0.041,0 0.071,-0.005 0.089,-0.015 0.018,-0.01 0.026,-0.029 0.026,-0.058z"/>
  <polygon id="12" class="fil0" points="8.667,2.416 8.782,2.416 8.782,2.022 8.937,2.022 8.937,1.933 8.512,1.933 8.512,2.022 8.667,2.022 "/>
  <path id="13" class="fil0" d="M9.016 2.417l0 -0.483 0.115 0 0 0.184 0.163 0c0.092,0 0.138,0.05 0.138,0.15 0,0.05 -0.012,0.088 -0.036,0.112 -0.024,0.025 -0.058,0.037 -0.102,0.037l-0.279 0zm0.115 -0.215l0 0.13 0.116 0c0.025,0 0.042,-0.004 0.053,-0.014 0.011,-0.009 0.016,-0.026 0.016,-0.051 0,-0.018 -0.002,-0.031 -0.007,-0.041 -0.005,-0.01 -0.012,-0.016 -0.022,-0.02 -0.01,-0.004 -0.024,-0.005 -0.04,-0.005l-0.115 0zm0.491 -0.268l0 0.483 -0.115 0 0 -0.483 0.115 0z"/>
  <path id="14" class="fil0" d="M9.859 2.162c0,0.048 0.002,0.083 0.007,0.107 0.005,0.023 0.015,0.04 0.03,0.05 0.015,0.01 0.04,0.015 0.073,0.015 0.033,0 0.057,-0.006 0.072,-0.018 0.015,-0.012 0.025,-0.029 0.029,-0.052 0.004,-0.022 0.006,-0.055 0.006,-0.099 0,-0.044 -0.003,-0.077 -0.009,-0.097 -0.006,-0.021 -0.016,-0.034 -0.03,-0.041 -0.014,-0.007 -0.036,-0.01 -0.066,-0.01 -0.03,0 -0.053,0.004 -0.069,0.012 -0.016,0.008 -0.027,0.022 -0.034,0.043 -0.007,0.021 -0.01,0.051 -0.01,0.092zm0 0.188l0 0.271 -0.115 0 0 -0.688 0.111 0 -0.005 0.068 0.004 0c0.019,-0.029 0.04,-0.048 0.063,-0.059 0.023,-0.011 0.052,-0.016 0.087,-0.016 0.052,0 0.093,0.01 0.121,0.028 0.028,0.019 0.047,0.046 0.057,0.081 0.01,0.035 0.015,0.08 0.015,0.136 0,0.04 -0.002,0.075 -0.006,0.103 -0.004,0.029 -0.012,0.055 -0.024,0.077 -0.012,0.023 -0.031,0.04 -0.056,0.053 -0.025,0.013 -0.058,0.019 -0.099,0.019 -0.038,0 -0.069,-0.005 -0.092,-0.015 -0.023,-0.01 -0.043,-0.029 -0.059,-0.059z"/>
  <polygon id="15" class="fil0" points="10.414,1.933 10.414,2.12 10.441,2.12 10.577,1.933 10.709,1.933 10.536,2.159 10.742,2.416 10.603,2.416 10.441,2.199 10.414,2.199 10.414,2.416 10.298,2.416 10.298,1.933 "/>
  <path id="16" class="fil0" d="M11.124 2.416l0.009 -0.067 -0.003 0c-0.01,0.022 -0.022,0.038 -0.036,0.049 -0.014,0.011 -0.031,0.018 -0.05,0.021 -0.019,0.003 -0.044,0.005 -0.073,0.005 -0.041,0 -0.075,-0.005 -0.1,-0.015 -0.026,-0.01 -0.045,-0.026 -0.057,-0.048 -0.012,-0.022 -0.019,-0.052 -0.019,-0.089 0,-0.031 0.003,-0.056 0.01,-0.076 0.007,-0.02 0.017,-0.036 0.032,-0.047 0.014,-0.011 0.033,-0.02 0.057,-0.024 0.023,-0.005 0.053,-0.007 0.09,-0.007 0.042,0 0.073,0.005 0.091,0.014 0.019,0.009 0.033,0.025 0.044,0.048l0.005 0 0 -0.082c0,-0.026 -0.003,-0.046 -0.01,-0.061 -0.006,-0.014 -0.017,-0.024 -0.032,-0.029 -0.015,-0.005 -0.036,-0.008 -0.063,-0.008 -0.035,0 -0.059,0.005 -0.072,0.015 -0.013,0.01 -0.019,0.029 -0.019,0.057l-0.116 0c0.001,-0.03 0.007,-0.054 0.017,-0.074 0.01,-0.02 0.024,-0.035 0.042,-0.045 0.018,-0.011 0.038,-0.018 0.062,-0.022 0.023,-0.004 0.051,-0.006 0.082,-0.006 0.051,0 0.092,0.004 0.124,0.011 0.032,0.008 0.056,0.024 0.074,0.049 0.018,0.025 0.027,0.063 0.027,0.112l0 0.318 -0.115 0zm0 -0.145c0,-0.028 -0.008,-0.047 -0.024,-0.058 -0.016,-0.01 -0.046,-0.015 -0.09,-0.015 -0.026,0 -0.046,0.002 -0.06,0.007 -0.014,0.004 -0.024,0.012 -0.03,0.022 -0.006,0.01 -0.009,0.025 -0.009,0.044 0,0.027 0.007,0.045 0.022,0.056 0.015,0.011 0.04,0.016 0.076,0.016 0.041,0 0.071,-0.005 0.089,-0.015 0.018,-0.01 0.026,-0.029 0.026,-0.058z"/>
  <path id="17" class="fil0" d="M11.471 2.292l0 0.121c0,0.031 -0.003,0.055 -0.009,0.071 -0.006,0.017 -0.017,0.029 -0.033,0.037 -0.016,0.008 -0.04,0.012 -0.071,0.012 -0.006,0 -0.01,-0 -0.012,-0.001l0 -0.055c0.02,-0 0.034,-0.004 0.042,-0.01 0.008,-0.006 0.012,-0.018 0.012,-0.037l0.001 -0.015 -0.047 0 0 -0.124 0.116 0z"/>
  <path id="18" class="fil0" d="M12.247 1.933l-0.129 0.513c-0.007,0.03 -0.015,0.056 -0.023,0.078 -0.008,0.022 -0.019,0.041 -0.032,0.057 -0.013,0.016 -0.03,0.029 -0.051,0.038 -0.021,0.009 -0.047,0.013 -0.078,0.013 -0.022,0 -0.038,-0.001 -0.048,-0.004l0 -0.083c0.009,0.002 0.018,0.003 0.027,0.003 0.029,-0 0.049,-0.011 0.062,-0.032 0.013,-0.021 0.024,-0.054 0.035,-0.1l-0.061 0 -0.159 -0.483 0.123 0 0.121 0.41 0.094 -0.41 0.12 0z"/>
  <path id="19" class="fil0" d="M12.359 1.933l0.403 0 0 0.483 -0.115 0 0 -0.394 -0.174 0 0 0.245c0,0.03 -0.005,0.057 -0.014,0.08 -0.009,0.023 -0.024,0.041 -0.043,0.054 -0.02,0.013 -0.044,0.02 -0.072,0.02 -0.032,0 -0.056,-0.002 -0.071,-0.005l0 -0.087c0.011,0.002 0.021,0.003 0.029,0.003 0.022,0 0.037,-0.006 0.045,-0.018 0.008,-0.012 0.012,-0.031 0.012,-0.058l0 -0.325z"/>
  <path id="20" class="fil0" d="M13.485 1.835l0 0.179 0.168 0c0.03,0 0.053,-0.002 0.069,-0.007 0.016,-0.005 0.028,-0.014 0.035,-0.028 0.007,-0.014 0.011,-0.034 0.011,-0.061 0,-0.032 -0.007,-0.054 -0.021,-0.065 -0.014,-0.012 -0.038,-0.018 -0.072,-0.018l-0.19 0zm0 0.278l0 0.194 0.168 0c0.046,0 0.079,-0.007 0.1,-0.022 0.021,-0.015 0.031,-0.04 0.031,-0.077 0,-0.024 -0.004,-0.044 -0.011,-0.058 -0.007,-0.014 -0.018,-0.024 -0.034,-0.029 -0.015,-0.006 -0.036,-0.008 -0.063,-0.008l-0.192 0zm-0.131 0.303l0 -0.691 0.354 0c0.042,0 0.077,0.006 0.106,0.018 0.028,0.012 0.05,0.031 0.065,0.057 0.015,0.026 0.022,0.059 0.022,0.098 0,0.088 -0.033,0.141 -0.099,0.159l0 0.004c0.037,0.006 0.065,0.022 0.085,0.049 0.02,0.027 0.03,0.063 0.03,0.107 0,0.031 -0.004,0.058 -0.012,0.083 -0.008,0.024 -0.02,0.045 -0.037,0.063 -0.016,0.017 -0.037,0.03 -0.062,0.04 -0.025,0.009 -0.054,0.014 -0.087,0.014l-0.365 0z"/>
  <path id="21" class="fil0" d="M14.32 2.263l0.114 0 0 0.018c0,0.039 -0.009,0.069 -0.027,0.09 -0.018,0.021 -0.043,0.035 -0.074,0.043 -0.032,0.007 -0.072,0.011 -0.122,0.011 -0.056,0 -0.1,-0.008 -0.132,-0.023 -0.032,-0.015 -0.054,-0.041 -0.068,-0.077 -0.014,-0.036 -0.021,-0.085 -0.021,-0.148 0,-0.062 0.007,-0.111 0.021,-0.148 0.014,-0.036 0.037,-0.063 0.069,-0.079 0.032,-0.016 0.076,-0.024 0.131,-0.024 0.055,0 0.099,0.008 0.131,0.025 0.033,0.017 0.056,0.042 0.07,0.077 0.014,0.035 0.021,0.081 0.021,0.138l0 0.034 -0.328 0c0,0.039 0.003,0.068 0.009,0.088 0.006,0.02 0.017,0.034 0.031,0.041 0.015,0.008 0.036,0.012 0.065,0.012 0.026,0 0.047,-0.002 0.063,-0.006 0.015,-0.004 0.027,-0.011 0.034,-0.02 0.007,-0.01 0.011,-0.024 0.011,-0.042l0 -0.009zm0.002 -0.139c0,-0.029 -0.003,-0.051 -0.01,-0.068 -0.007,-0.016 -0.018,-0.028 -0.034,-0.035 -0.016,-0.007 -0.037,-0.011 -0.065,-0.011 -0.027,0 -0.048,0.004 -0.063,0.01 -0.015,0.007 -0.026,0.019 -0.033,0.035 -0.007,0.016 -0.01,0.039 -0.01,0.068l0.215 0z"/>
  <path id="22" class="fil0" d="M14.65 2.162c0,0.048 0.002,0.083 0.007,0.107 0.005,0.023 0.015,0.04 0.03,0.05 0.015,0.01 0.04,0.015 0.073,0.015 0.033,0 0.057,-0.006 0.072,-0.018 0.015,-0.012 0.025,-0.029 0.029,-0.052 0.004,-0.022 0.006,-0.055 0.006,-0.099 0,-0.044 -0.003,-0.077 -0.009,-0.097 -0.006,-0.021 -0.016,-0.034 -0.03,-0.041 -0.014,-0.007 -0.036,-0.01 -0.066,-0.01 -0.03,0 -0.053,0.004 -0.069,0.012 -0.016,0.008 -0.027,0.022 -0.034,0.043 -0.007,0.021 -0.01,0.051 -0.01,0.092zm0 0.188l0 0.271 -0.115 0 0 -0.688 0.111 0 -0.005 0.068 0.004 0c0.019,-0.029 0.04,-0.048 0.063,-0.059 0.023,-0.011 0.052,-0.016 0.087,-0.016 0.052,0 0.093,0.01 0.121,0.028 0.028,0.019 0.047,0.046 0.057,0.081 0.01,0.035 0.015,0.08 0.015,0.136 0,0.04 -0.002,0.075 -0.006,0.103 -0.004,0.029 -0.012,0.055 -0.024,0.077 -0.012,0.023 -0.031,0.04 -0.056,0.053 -0.025,0.013 -0.058,0.019 -0.099,0.019 -0.038,0 -0.069,-0.005 -0.092,-0.015 -0.023,-0.01 -0.043,-0.029 -0.059,-0.059z"/>
  <polygon id="23" class="fil0" points="15.499,1.933 15.358,2.161 15.514,2.416 15.378,2.416 15.28,2.238 15.184,2.416 15.045,2.416 15.204,2.161 15.063,1.933 15.196,1.933 15.28,2.088 15.364,1.933 "/>
  <polygon id="24" class="fil0" points="15.701,2.206 15.904,2.206 15.904,2.416 16.02,2.416 16.02,1.933 15.904,1.933 15.904,2.116 15.701,2.116 15.701,1.933 15.585,1.933 15.585,2.416 15.701,2.416 "/>
  <path id="25" class="fil0" d="M16.454 2.263l0.114 0 0 0.018c0,0.039 -0.009,0.069 -0.027,0.09 -0.018,0.021 -0.043,0.035 -0.074,0.043 -0.032,0.007 -0.072,0.011 -0.122,0.011 -0.056,0 -0.1,-0.008 -0.132,-0.023 -0.032,-0.015 -0.054,-0.041 -0.068,-0.077 -0.014,-0.036 -0.021,-0.085 -0.021,-0.148 0,-0.062 0.007,-0.111 0.021,-0.148 0.014,-0.036 0.037,-0.063 0.069,-0.079 0.032,-0.016 0.076,-0.024 0.131,-0.024 0.055,0 0.099,0.008 0.131,0.025 0.033,0.017 0.056,0.042 0.07,0.077 0.014,0.035 0.021,0.081 0.021,0.138l0 0.034 -0.328 0c0,0.039 0.003,0.068 0.009,0.088 0.006,0.02 0.017,0.034 0.031,0.041 0.015,0.008 0.036,0.012 0.065,0.012 0.026,0 0.047,-0.002 0.063,-0.006 0.015,-0.004 0.027,-0.011 0.034,-0.02 0.007,-0.01 0.011,-0.024 0.011,-0.042l0 -0.009zm0.002 -0.139c0,-0.029 -0.003,-0.051 -0.01,-0.068 -0.007,-0.016 -0.018,-0.028 -0.034,-0.035 -0.016,-0.007 -0.037,-0.011 -0.065,-0.011 -0.027,0 -0.048,0.004 -0.063,0.01 -0.015,0.007 -0.026,0.019 -0.033,0.035 -0.007,0.016 -0.01,0.039 -0.01,0.068l0.215 0z"/>
  <path id="26" class="fil0" d="M16.756 2.013l0.002 0.001c0.009,-0.02 0.025,-0.038 0.047,-0.054 0.023,-0.016 0.05,-0.024 0.084,-0.024 0.041,0 0.076,0.005 0.104,0.014 0.028,0.009 0.05,0.024 0.067,0.043 0.017,0.019 0.029,0.043 0.036,0.073 0.008,0.03 0.011,0.065 0.011,0.107 0,0.062 -0.007,0.111 -0.02,0.146 -0.013,0.036 -0.037,0.062 -0.07,0.079 -0.033,0.017 -0.08,0.025 -0.14,0.025 -0.044,0 -0.081,-0.004 -0.11,-0.013 -0.029,-0.008 -0.052,-0.022 -0.069,-0.041 -0.017,-0.019 -0.03,-0.043 -0.037,-0.074 -0.008,-0.031 -0.011,-0.07 -0.011,-0.118l0 -0.154c0,-0.047 0.006,-0.09 0.018,-0.127 0.012,-0.038 0.035,-0.069 0.068,-0.093 0.033,-0.024 0.079,-0.036 0.138,-0.036 0.029,0 0.052,-0.001 0.067,-0.003 0.015,-0.002 0.026,-0.005 0.032,-0.01 0.006,-0.005 0.009,-0.012 0.009,-0.021l0.087 0c0,0.032 -0.007,0.056 -0.021,0.073 -0.014,0.017 -0.035,0.028 -0.061,0.034 -0.026,0.006 -0.061,0.009 -0.102,0.009 -0.047,0 -0.081,0.013 -0.102,0.038 -0.021,0.025 -0.032,0.057 -0.032,0.096l0 0.028 0.005 0zm0.011 0.161c0,0.036 0.002,0.065 0.007,0.086 0.005,0.022 0.011,0.038 0.02,0.048 0.009,0.011 0.02,0.018 0.033,0.022 0.013,0.004 0.03,0.005 0.05,0.005 0.027,0 0.048,-0.004 0.064,-0.011 0.015,-0.007 0.027,-0.022 0.035,-0.046 0.008,-0.023 0.012,-0.058 0.012,-0.105 0,-0.039 -0.004,-0.069 -0.011,-0.091 -0.008,-0.021 -0.019,-0.036 -0.035,-0.045 -0.016,-0.009 -0.037,-0.013 -0.064,-0.013 -0.027,0 -0.048,0.004 -0.064,0.013 -0.016,0.009 -0.028,0.024 -0.035,0.045 -0.008,0.021 -0.011,0.052 -0.011,0.091z"/>
  <path id="27" class="fil0" d="M17.188 2.173c0,-0.064 0.007,-0.113 0.02,-0.149 0.014,-0.035 0.037,-0.061 0.069,-0.076 0.033,-0.015 0.079,-0.023 0.138,-0.023 0.059,0 0.105,0.008 0.138,0.023 0.033,0.015 0.056,0.041 0.07,0.076 0.014,0.035 0.021,0.085 0.021,0.148 0,0.047 -0.004,0.086 -0.012,0.118 -0.008,0.032 -0.02,0.057 -0.038,0.077 -0.017,0.019 -0.041,0.033 -0.07,0.042 -0.029,0.009 -0.066,0.013 -0.111,0.014 -0.044,0 -0.081,-0.004 -0.11,-0.014 -0.029,-0.009 -0.053,-0.023 -0.07,-0.043 -0.017,-0.02 -0.029,-0.045 -0.037,-0.076 -0.008,-0.031 -0.011,-0.071 -0.011,-0.118zm0.118 0c0,0.045 0.003,0.079 0.01,0.102 0.007,0.023 0.018,0.038 0.033,0.047 0.015,0.008 0.038,0.013 0.067,0.013 0.029,0 0.051,-0.004 0.067,-0.012 0.016,-0.008 0.027,-0.024 0.034,-0.047 0.007,-0.023 0.01,-0.057 0.01,-0.102 0,-0.034 -0.002,-0.061 -0.006,-0.081 -0.004,-0.02 -0.01,-0.036 -0.018,-0.047 -0.008,-0.011 -0.019,-0.019 -0.033,-0.023 -0.014,-0.004 -0.032,-0.007 -0.054,-0.007 -0.029,0 -0.051,0.004 -0.067,0.012 -0.015,0.008 -0.026,0.023 -0.033,0.046 -0.007,0.023 -0.01,0.056 -0.01,0.1z"/>
  <polygon id="28" class="fil0" points="18.062,2.021 18.062,1.933 17.742,1.933 17.742,2.416 17.857,2.416 17.857,2.021 "/>
  <path id="29" class="fil0" d="M18.444 2.416l0.009 -0.067 -0.003 0c-0.01,0.022 -0.022,0.038 -0.036,0.049 -0.014,0.011 -0.031,0.018 -0.05,0.021 -0.019,0.003 -0.044,0.005 -0.073,0.005 -0.041,0 -0.075,-0.005 -0.1,-0.015 -0.026,-0.01 -0.045,-0.026 -0.057,-0.048 -0.012,-0.022 -0.019,-0.052 -0.019,-0.089 0,-0.031 0.003,-0.056 0.01,-0.076 0.007,-0.02 0.017,-0.036 0.032,-0.047 0.014,-0.011 0.033,-0.02 0.057,-0.024 0.023,-0.005 0.053,-0.007 0.09,-0.007 0.042,0 0.073,0.005 0.091,0.014 0.019,0.009 0.033,0.025 0.044,0.048l0.005 0 0 -0.082c0,-0.026 -0.003,-0.046 -0.01,-0.061 -0.006,-0.014 -0.017,-0.024 -0.032,-0.029 -0.015,-0.005 -0.036,-0.008 -0.063,-0.008 -0.035,0 -0.059,0.005 -0.072,0.015 -0.013,0.01 -0.019,0.029 -0.019,0.057l-0.116 0c0.001,-0.03 0.007,-0.054 0.017,-0.074 0.01,-0.02 0.024,-0.035 0.042,-0.045 0.018,-0.011 0.038,-0.018 0.062,-0.022 0.023,-0.004 0.051,-0.006 0.082,-0.006 0.051,0 0.092,0.004 0.124,0.011 0.032,0.008 0.056,0.024 0.074,0.049 0.018,0.025 0.027,0.063 0.027,0.112l0 0.318 -0.115 0zm0 -0.145c0,-0.028 -0.008,-0.047 -0.024,-0.058 -0.016,-0.01 -0.046,-0.015 -0.09,-0.015 -0.026,0 -0.046,0.002 -0.06,0.007 -0.014,0.004 -0.024,0.012 -0.03,0.022 -0.006,0.01 -0.009,0.025 -0.009,0.044 0,0.027 0.007,0.045 0.022,0.056 0.015,0.011 0.04,0.016 0.076,0.016 0.041,0 0.071,-0.005 0.089,-0.015 0.018,-0.01 0.026,-0.029 0.026,-0.058z"/>
  <polygon id="30" class="fil0" points="18.798,2.416 18.913,2.416 18.913,2.022 19.068,2.022 19.068,1.933 18.643,1.933 18.643,2.022 18.798,2.022 "/>
  <path id="31" class="fil0" d="M19.147 2.417l0 -0.483 0.115 0 0 0.184 0.163 0c0.092,0 0.138,0.05 0.138,0.15 0,0.05 -0.012,0.088 -0.036,0.112 -0.024,0.025 -0.058,0.037 -0.102,0.037l-0.279 0zm0.115 -0.215l0 0.13 0.116 0c0.025,0 0.042,-0.004 0.053,-0.014 0.011,-0.009 0.016,-0.026 0.016,-0.051 0,-0.018 -0.002,-0.031 -0.007,-0.041 -0.005,-0.01 -0.012,-0.016 -0.022,-0.02 -0.01,-0.004 -0.024,-0.005 -0.04,-0.005l-0.115 0zm0.491 -0.268l0 0.483 -0.115 0 0 -0.483 0.115 0z"/>
  <path id="32" class="fil0" d="M19.99 2.162c0,0.048 0.002,0.083 0.007,0.107 0.005,0.023 0.015,0.04 0.03,0.05 0.015,0.01 0.04,0.015 0.073,0.015 0.033,0 0.057,-0.006 0.072,-0.018 0.015,-0.012 0.025,-0.029 0.029,-0.052 0.004,-0.022 0.006,-0.055 0.006,-0.099 0,-0.044 -0.003,-0.077 -0.009,-0.097 -0.006,-0.021 -0.016,-0.034 -0.03,-0.041 -0.014,-0.007 -0.036,-0.01 -0.066,-0.01 -0.03,0 -0.053,0.004 -0.069,0.012 -0.016,0.008 -0.027,0.022 -0.034,0.043 -0.007,0.021 -0.01,0.051 -0.01,0.092zm0 0.188l0 0.271 -0.115 0 0 -0.688 0.111 0 -0.005 0.068 0.004 0c0.019,-0.029 0.04,-0.048 0.063,-0.059 0.023,-0.011 0.052,-0.016 0.087,-0.016 0.052,0 0.093,0.01 0.121,0.028 0.028,0.019 0.047,0.046 0.057,0.081 0.01,0.035 0.015,0.08 0.015,0.136 0,0.04 -0.002,0.075 -0.006,0.103 -0.004,0.029 -0.012,0.055 -0.024,0.077 -0.012,0.023 -0.031,0.04 -0.056,0.053 -0.025,0.013 -0.058,0.019 -0.099,0.019 -0.038,0 -0.069,-0.005 -0.092,-0.015 -0.023,-0.01 -0.043,-0.029 -0.059,-0.059z"/>
  <path id="33" class="fil0" d="M20.735 2.233l0.114 0c0,0.035 -0.004,0.065 -0.011,0.089 -0.007,0.024 -0.02,0.044 -0.036,0.059 -0.017,0.015 -0.039,0.026 -0.067,0.033 -0.028,0.007 -0.062,0.01 -0.103,0.01 -0.056,0 -0.101,-0.008 -0.132,-0.023 -0.032,-0.016 -0.055,-0.041 -0.069,-0.077 -0.014,-0.036 -0.021,-0.085 -0.021,-0.149 0,-0.064 0.007,-0.114 0.021,-0.15 0.014,-0.036 0.037,-0.062 0.069,-0.077 0.032,-0.015 0.076,-0.023 0.132,-0.023 0.042,0 0.079,0.005 0.11,0.014 0.031,0.009 0.056,0.025 0.075,0.049 0.019,0.024 0.028,0.056 0.028,0.097l0 0.017 -0.112 0 0 -0.006c0,-0.023 -0.003,-0.04 -0.01,-0.052 -0.006,-0.012 -0.016,-0.02 -0.03,-0.024 -0.014,-0.004 -0.034,-0.006 -0.061,-0.006 -0.027,0 -0.049,0.005 -0.063,0.014 -0.015,0.01 -0.025,0.026 -0.032,0.048 -0.006,0.023 -0.009,0.055 -0.009,0.098 0,0.042 0.003,0.074 0.009,0.097 0.006,0.023 0.017,0.039 0.032,0.049 0.015,0.01 0.036,0.014 0.063,0.014 0.03,0 0.053,-0.003 0.067,-0.01 0.015,-0.006 0.024,-0.016 0.029,-0.03 0.005,-0.014 0.007,-0.035 0.007,-0.062z"/>
  <polygon id="34" class="fil0" points="21.056,1.933 21.056,2.12 21.084,2.12 21.219,1.933 21.351,1.933 21.179,2.159 21.384,2.416 21.245,2.416 21.084,2.199 21.056,2.199 21.056,2.416 20.941,2.416 20.941,1.933 "/>
  <path id="35" class="fil0" d="M21.766 2.416l0.009 -0.067 -0.003 0c-0.01,0.022 -0.022,0.038 -0.036,0.049 -0.014,0.011 -0.031,0.018 -0.05,0.021 -0.019,0.003 -0.044,0.005 -0.073,0.005 -0.041,0 -0.075,-0.005 -0.1,-0.015 -0.026,-0.01 -0.045,-0.026 -0.057,-0.048 -0.012,-0.022 -0.019,-0.052 -0.019,-0.089 0,-0.031 0.003,-0.056 0.01,-0.076 0.007,-0.02 0.017,-0.036 0.032,-0.047 0.014,-0.011 0.033,-0.02 0.057,-0.024 0.023,-0.005 0.053,-0.007 0.09,-0.007 0.042,0 0.073,0.005 0.091,0.014 0.019,0.009 0.033,0.025 0.044,0.048l0.005 0 0 -0.082c0,-0.026 -0.003,-0.046 -0.01,-0.061 -0.006,-0.014 -0.017,-0.024 -0.032,-0.029 -0.015,-0.005 -0.036,-0.008 -0.063,-0.008 -0.035,0 -0.059,0.005 -0.072,0.015 -0.013,0.01 -0.019,0.029 -0.019,0.057l-0.116 0c0.001,-0.03 0.007,-0.054 0.017,-0.074 0.01,-0.02 0.024,-0.035 0.042,-0.045 0.018,-0.011 0.038,-0.018 0.062,-0.022 0.023,-0.004 0.051,-0.006 0.082,-0.006 0.051,0 0.092,0.004 0.124,0.011 0.032,0.008 0.056,0.024 0.074,0.049 0.018,0.025 0.027,0.063 0.027,0.112l0 0.318 -0.115 0zm0 -0.145c0,-0.028 -0.008,-0.047 -0.024,-0.058 -0.016,-0.01 -0.046,-0.015 -0.09,-0.015 -0.026,0 -0.046,0.002 -0.06,0.007 -0.014,0.004 -0.024,0.012 -0.03,0.022 -0.006,0.01 -0.009,0.025 -0.009,0.044 0,0.027 0.007,0.045 0.022,0.056 0.015,0.011 0.04,0.016 0.076,0.016 0.041,0 0.071,-0.005 0.089,-0.015 0.018,-0.01 0.026,-0.029 0.026,-0.058z"/>
  <path id="36" class="fil0" d="M22.398 1.933l0 0.484 -0.115 0 0 -0.185 -0.089 0 -0.109 0.185 -0.123 0 0.121 -0.2c-0.07,-0.02 -0.105,-0.065 -0.105,-0.137 0,-0.098 0.046,-0.147 0.137,-0.147l0.283 0zm-0.115 0.215l0 -0.131 -0.122 0c-0.024,0 -0.041,0.005 -0.051,0.014 -0.01,0.009 -0.015,0.027 -0.015,0.051 0,0.025 0.006,0.042 0.019,0.052 0.012,0.009 0.031,0.014 0.057,0.014l0.112 0z"/>
  <path id="37" class="fil0" d="M22.629 2.292l0 0.121c0,0.031 -0.003,0.055 -0.009,0.071 -0.006,0.017 -0.017,0.029 -0.033,0.037 -0.016,0.008 -0.04,0.012 -0.071,0.012 -0.006,0 -0.01,-0 -0.012,-0.001l0 -0.055c0.02,-0 0.034,-0.004 0.042,-0.01 0.008,-0.006 0.012,-0.018 0.012,-0.037l0.001 -0.015 -0.047 0 0 -0.124 0.116 0z"/>
  <path id="38" class="fil0" d="M23 2.33c0.014,-0.019 0.025,-0.038 0.034,-0.055 0.008,-0.018 0.014,-0.039 0.018,-0.065 0.004,-0.025 0.006,-0.057 0.006,-0.095l0 -0.184 0.377 0 0 0.398 0.062 0 0 0.217 -0.106 0 0 -0.131 -0.337 0 0 0.131 -0.106 0 0 -0.217 0.052 0zm0.32 0l0 -0.313 -0.152 0 0 0.105c0,0.094 -0.018,0.164 -0.053,0.208l0.205 0z"/>
  <polygon id="39" class="fil0" points="23.679,2.291 23.679,2.416 23.564,2.416 23.564,2.291 "/>
  <polygon id="40" class="fil0" points="24.433,1.726 24.433,2.416 24.306,2.416 24.306,1.836 24.127,2.015 24.05,1.934 24.272,1.726 "/>
  <polygon id="41" class="fil0" points="2.013,2.291 2.013,2.416 1.898,2.416 1.898,2.291 "/>
  <polygon id="42" class="fil0" points="12.995,2.291 12.995,2.416 12.88,2.416 12.88,2.291 "/>
  <path class="fil0" d="M1.551 3.518c-0.042,0 -0.073,0.002 -0.092,0.007 -0.019,0.005 -0.032,0.014 -0.039,0.028 -0.007,0.014 -0.011,0.036 -0.011,0.066 0,0.029 0.004,0.051 0.011,0.066 0.008,0.015 0.021,0.026 0.042,0.033 0.02,0.007 0.05,0.01 0.089,0.01 0.039,0 0.069,-0.003 0.089,-0.01 0.02,-0.006 0.035,-0.017 0.042,-0.032 0.008,-0.015 0.011,-0.037 0.011,-0.065 0,-0.03 -0.004,-0.052 -0.011,-0.066 -0.007,-0.014 -0.021,-0.024 -0.04,-0.029 -0.02,-0.005 -0.05,-0.007 -0.091,-0.007zm0 -0.29c-0.038,0 -0.066,0.003 -0.085,0.008 -0.019,0.005 -0.031,0.015 -0.038,0.029 -0.007,0.014 -0.011,0.034 -0.011,0.061 0,0.021 0.002,0.038 0.006,0.05 0.004,0.012 0.011,0.022 0.02,0.028 0.009,0.006 0.023,0.01 0.039,0.013 0.017,0.002 0.039,0.003 0.069,0.003 0.03,0 0.053,-0.001 0.069,-0.003 0.016,-0.002 0.029,-0.006 0.039,-0.013 0.009,-0.006 0.016,-0.015 0.02,-0.027 0.004,-0.012 0.005,-0.029 0.005,-0.051 0,-0.028 -0.004,-0.048 -0.011,-0.062 -0.007,-0.014 -0.02,-0.023 -0.039,-0.028 -0.018,-0.005 -0.046,-0.008 -0.083,-0.008zm-0.148 0.239c-0.029,-0.009 -0.052,-0.021 -0.068,-0.035 -0.016,-0.014 -0.028,-0.031 -0.034,-0.051 -0.006,-0.02 -0.01,-0.043 -0.01,-0.071 0,-0.036 0.005,-0.065 0.014,-0.089 0.009,-0.024 0.024,-0.042 0.044,-0.056 0.02,-0.014 0.047,-0.024 0.08,-0.03 0.033,-0.006 0.073,-0.009 0.122,-0.009 0.065,0 0.116,0.006 0.153,0.017 0.037,0.011 0.064,0.03 0.081,0.057 0.017,0.027 0.025,0.064 0.025,0.112 0,0.029 -0.003,0.053 -0.008,0.072 -0.005,0.019 -0.016,0.035 -0.031,0.049 -0.015,0.014 -0.038,0.026 -0.068,0.034 0.031,0.008 0.055,0.018 0.072,0.031 0.017,0.013 0.029,0.03 0.036,0.051 0.007,0.02 0.01,0.046 0.01,0.077 0,0.039 -0.004,0.071 -0.013,0.096 -0.009,0.026 -0.023,0.046 -0.043,0.062 -0.02,0.016 -0.048,0.028 -0.082,0.036 -0.035,0.008 -0.078,0.012 -0.131,0.012 -0.052,0 -0.095,-0.004 -0.13,-0.011 -0.035,-0.007 -0.062,-0.019 -0.082,-0.035 -0.02,-0.016 -0.035,-0.037 -0.043,-0.063 -0.009,-0.026 -0.013,-0.058 -0.013,-0.096 0,-0.03 0.004,-0.056 0.011,-0.077 0.007,-0.02 0.02,-0.038 0.037,-0.051 0.017,-0.013 0.041,-0.024 0.071,-0.031z"/>
  <path id="1" class="fil0" d="M2.399 3.123l0 0.108c-0.035,0 -0.059,0.008 -0.071,0.023 -0.013,0.015 -0.019,0.044 -0.019,0.086l0 0.366c0,0.045 0.005,0.076 0.016,0.092 0.011,0.016 0.029,0.024 0.055,0.024l0.018 0 0 0.108c-0.05,0 -0.09,-0.006 -0.119,-0.017 -0.029,-0.011 -0.051,-0.028 -0.065,-0.05 -0.014,-0.022 -0.023,-0.05 -0.028,-0.083 -0.004,-0.033 -0.006,-0.077 -0.006,-0.133l0 -0.246c0,-0.053 0.002,-0.096 0.006,-0.128 0.004,-0.032 0.013,-0.059 0.028,-0.082 0.014,-0.023 0.036,-0.04 0.066,-0.051 0.03,-0.012 0.069,-0.017 0.119,-0.017z"/>
  <path id="2" class="fil0" d="M2.714 3.519l0 -0.1 0.074 0c0.033,0 0.057,-0.002 0.071,-0.006 0.014,-0.004 0.024,-0.013 0.03,-0.026 0.005,-0.014 0.009,-0.036 0.009,-0.068 0,-0.025 -0.004,-0.044 -0.012,-0.057 -0.008,-0.013 -0.021,-0.022 -0.04,-0.026 -0.019,-0.005 -0.046,-0.007 -0.083,-0.007 -0.04,0 -0.069,0.003 -0.088,0.01 -0.018,0.006 -0.03,0.018 -0.036,0.035 -0.006,0.017 -0.009,0.044 -0.009,0.081l-0.124 0c0,-0.057 0.008,-0.103 0.024,-0.136 0.016,-0.034 0.042,-0.058 0.078,-0.072 0.036,-0.015 0.085,-0.022 0.146,-0.022 0.067,0 0.119,0.006 0.158,0.018 0.038,0.012 0.066,0.031 0.083,0.057 0.017,0.026 0.026,0.062 0.026,0.107 0,0.032 -0.003,0.058 -0.008,0.08 -0.005,0.021 -0.016,0.039 -0.032,0.054 -0.016,0.014 -0.04,0.024 -0.071,0.028l0 0.005c0.031,0.004 0.056,0.012 0.073,0.023 0.018,0.011 0.03,0.027 0.038,0.048 0.007,0.02 0.011,0.047 0.011,0.079 0,0.036 -0.004,0.066 -0.012,0.091 -0.008,0.025 -0.021,0.047 -0.04,0.064 -0.019,0.017 -0.046,0.031 -0.082,0.039 -0.035,0.009 -0.08,0.013 -0.134,0.013 -0.067,0 -0.12,-0.007 -0.16,-0.021 -0.039,-0.014 -0.068,-0.035 -0.085,-0.065 -0.017,-0.029 -0.026,-0.069 -0.026,-0.118l0 -0.038 0.123 0c0,0.041 0.003,0.07 0.009,0.088 0.006,0.018 0.019,0.03 0.04,0.038 0.02,0.007 0.053,0.011 0.099,0.011 0.038,0 0.068,-0.004 0.088,-0.011 0.02,-0.008 0.034,-0.019 0.041,-0.035 0.007,-0.016 0.011,-0.038 0.011,-0.065 0,-0.028 -0.004,-0.049 -0.011,-0.062 -0.007,-0.014 -0.019,-0.023 -0.034,-0.027 -0.015,-0.005 -0.038,-0.007 -0.067,-0.007l-0.081 0z"/>
  <path id="3" class="fil0" d="M3.624 3.132l0 0.444 0.08 0 0 0.099 -0.08 0 0 0.148 -0.127 0 0 -0.148 -0.374 0 0 -0.143 0.307 -0.399 0.195 0zm-0.397 0.444l0.27 0 0 -0.348 -0.27 0.348z"/>
  <polygon id="4" class="fil0" points="4.199,3.133 4.199,3.823 4.072,3.823 4.072,3.243 3.893,3.421 3.816,3.34 4.039,3.133 "/>
  <path id="5" class="fil0" d="M4.922 3.132l0 0.444 0.08 0 0 0.099 -0.08 0 0 0.148 -0.127 0 0 -0.148 -0.374 0 0 -0.143 0.307 -0.399 0.195 0zm-0.397 0.444l0.27 0 0 -0.348 -0.27 0.348z"/>
  <polygon id="6" class="fil0" points="5.497,3.133 5.497,3.823 5.37,3.823 5.37,3.243 5.191,3.421 5.115,3.34 5.337,3.133 "/>
  <path id="7" class="fil0" d="M5.745 3.123l0 0.108c0.035,0 0.059,0.008 0.072,0.024 0.013,0.016 0.019,0.046 0.019,0.088l0 0.357c0,0.046 -0.006,0.078 -0.017,0.096 -0.011,0.017 -0.03,0.026 -0.056,0.026l-0.018 0 0 0.108c0.05,0 0.09,-0.006 0.119,-0.017 0.03,-0.011 0.051,-0.028 0.066,-0.05 0.014,-0.022 0.023,-0.05 0.028,-0.083 0.005,-0.033 0.007,-0.077 0.008,-0.132l0 -0.246c0,-0.052 -0.002,-0.095 -0.007,-0.127 -0.004,-0.033 -0.014,-0.06 -0.028,-0.083 -0.014,-0.023 -0.037,-0.039 -0.066,-0.051 -0.03,-0.012 -0.069,-0.017 -0.119,-0.017z"/>
  <path id="8" class="fil0" d="M6.312 3.63l0.126 0c0,0.025 0.003,0.044 0.008,0.058 0.006,0.014 0.015,0.023 0.029,0.029 0.014,0.006 0.033,0.009 0.058,0.009l0.06 0c0.03,0 0.052,-0.003 0.069,-0.008 0.016,-0.006 0.028,-0.016 0.035,-0.03 0.007,-0.014 0.011,-0.035 0.011,-0.061l0 -0.139c-0.015,0.029 -0.035,0.048 -0.059,0.056 -0.024,0.008 -0.058,0.012 -0.099,0.012 -0.06,0 -0.107,-0.006 -0.142,-0.017 -0.035,-0.011 -0.061,-0.031 -0.078,-0.06 -0.017,-0.029 -0.026,-0.07 -0.026,-0.123 0,-0.041 0.004,-0.075 0.011,-0.103 0.008,-0.028 0.021,-0.051 0.04,-0.07 0.019,-0.019 0.046,-0.033 0.081,-0.042 0.035,-0.009 0.079,-0.014 0.133,-0.014 0.061,0 0.111,0.006 0.149,0.018 0.038,0.012 0.067,0.034 0.087,0.068 0.02,0.033 0.031,0.081 0.031,0.143l0 0.244c0,0.049 -0.005,0.088 -0.016,0.119 -0.011,0.031 -0.027,0.054 -0.049,0.07 -0.022,0.016 -0.049,0.028 -0.081,0.034 -0.032,0.006 -0.073,0.009 -0.121,0.009 -0.044,0 -0.081,-0.002 -0.11,-0.006 -0.03,-0.004 -0.055,-0.013 -0.078,-0.026 -0.022,-0.013 -0.039,-0.033 -0.051,-0.06 -0.012,-0.027 -0.018,-0.063 -0.018,-0.108zm0.396 -0.289c0,-0.03 -0.004,-0.052 -0.011,-0.068 -0.007,-0.016 -0.021,-0.027 -0.04,-0.034 -0.02,-0.007 -0.049,-0.01 -0.088,-0.01 -0.037,0 -0.065,0.003 -0.085,0.01 -0.019,0.007 -0.033,0.018 -0.04,0.034 -0.008,0.016 -0.011,0.038 -0.011,0.068 0,0.026 0.002,0.046 0.005,0.059 0.003,0.014 0.009,0.024 0.018,0.032 0.009,0.008 0.023,0.013 0.04,0.015 0.018,0.003 0.043,0.004 0.075,0.004 0.042,0 0.073,-0.003 0.091,-0.008 0.019,-0.005 0.031,-0.015 0.037,-0.03 0.006,-0.015 0.009,-0.039 0.009,-0.073z"/>
  <polygon id="9" class="fil0" points="7.714,3.132 7.714,3.259 7.432,3.823 7.29,3.823 7.588,3.242 7.203,3.242 7.203,3.132 "/>
  <path id="10" class="fil0" d="M8.421 3.478c0,0.078 -0.004,0.139 -0.011,0.183 -0.007,0.043 -0.02,0.078 -0.04,0.103 -0.02,0.025 -0.049,0.042 -0.086,0.052 -0.038,0.01 -0.09,0.015 -0.156,0.015 -0.066,0 -0.118,-0.005 -0.154,-0.015 -0.037,-0.01 -0.065,-0.027 -0.085,-0.052 -0.019,-0.025 -0.032,-0.059 -0.039,-0.102 -0.007,-0.043 -0.01,-0.105 -0.01,-0.183 0,-0.078 0.003,-0.139 0.01,-0.183 0.007,-0.044 0.02,-0.078 0.039,-0.103 0.019,-0.025 0.048,-0.042 0.085,-0.052 0.037,-0.01 0.089,-0.015 0.155,-0.015 0.067,0 0.119,0.005 0.156,0.015 0.037,0.01 0.066,0.027 0.086,0.052 0.02,0.025 0.033,0.059 0.04,0.103 0.007,0.044 0.01,0.105 0.01,0.183zm-0.452 0c0,0.062 0.001,0.108 0.004,0.137 0.002,0.029 0.009,0.051 0.018,0.066 0.01,0.015 0.025,0.025 0.045,0.029 0.02,0.005 0.051,0.007 0.092,0.007 0.041,0 0.072,-0.002 0.093,-0.007 0.02,-0.004 0.036,-0.014 0.046,-0.029 0.01,-0.015 0.017,-0.037 0.02,-0.067 0.003,-0.03 0.005,-0.075 0.005,-0.137 0,-0.063 -0.001,-0.109 -0.004,-0.139 -0.003,-0.029 -0.009,-0.051 -0.019,-0.066 -0.01,-0.015 -0.025,-0.025 -0.045,-0.029 -0.02,-0.005 -0.051,-0.007 -0.094,-0.007 -0.042,0 -0.073,0.002 -0.093,0.007 -0.02,0.005 -0.035,0.015 -0.045,0.03 -0.01,0.016 -0.016,0.038 -0.019,0.067 -0.003,0.029 -0.004,0.075 -0.004,0.137z"/>
  <path id="11" class="fil0" d="M8.966 3.519l0 -0.1 0.074 0c0.033,0 0.057,-0.002 0.071,-0.006 0.014,-0.004 0.024,-0.013 0.03,-0.026 0.005,-0.014 0.009,-0.036 0.009,-0.068 0,-0.025 -0.004,-0.044 -0.012,-0.057 -0.008,-0.013 -0.021,-0.022 -0.04,-0.026 -0.019,-0.005 -0.046,-0.007 -0.083,-0.007 -0.04,0 -0.069,0.003 -0.088,0.01 -0.018,0.006 -0.03,0.018 -0.036,0.035 -0.006,0.017 -0.009,0.044 -0.009,0.081l-0.124 0c0,-0.057 0.008,-0.103 0.024,-0.136 0.016,-0.034 0.042,-0.058 0.078,-0.072 0.036,-0.015 0.085,-0.022 0.146,-0.022 0.067,0 0.119,0.006 0.158,0.018 0.038,0.012 0.066,0.031 0.083,0.057 0.017,0.026 0.026,0.062 0.026,0.107 0,0.032 -0.003,0.058 -0.008,0.08 -0.005,0.021 -0.016,0.039 -0.032,0.054 -0.016,0.014 -0.04,0.024 -0.071,0.028l0 0.005c0.031,0.004 0.056,0.012 0.073,0.023 0.018,0.011 0.03,0.027 0.038,0.048 0.007,0.02 0.011,0.047 0.011,0.079 0,0.036 -0.004,0.066 -0.012,0.091 -0.008,0.025 -0.021,0.047 -0.04,0.064 -0.019,0.017 -0.046,0.031 -0.082,0.039 -0.035,0.009 -0.08,0.013 -0.134,0.013 -0.067,0 -0.12,-0.007 -0.16,-0.021 -0.039,-0.014 -0.068,-0.035 -0.085,-0.065 -0.017,-0.029 -0.026,-0.069 -0.026,-0.118l0 -0.038 0.123 0c0,0.041 0.003,0.07 0.009,0.088 0.006,0.018 0.019,0.03 0.04,0.038 0.02,0.007 0.053,0.011 0.099,0.011 0.038,0 0.068,-0.004 0.088,-0.011 0.02,-0.008 0.034,-0.019 0.041,-0.035 0.007,-0.016 0.011,-0.038 0.011,-0.065 0,-0.028 -0.004,-0.049 -0.011,-0.062 -0.007,-0.014 -0.019,-0.023 -0.034,-0.027 -0.015,-0.005 -0.038,-0.007 -0.067,-0.007l-0.081 0z"/>
  <path id="12" class="fil0" d="M9.665 3.518c-0.042,0 -0.073,0.002 -0.092,0.007 -0.019,0.005 -0.032,0.014 -0.039,0.028 -0.007,0.014 -0.011,0.036 -0.011,0.066 0,0.029 0.004,0.051 0.011,0.066 0.008,0.015 0.021,0.026 0.042,0.033 0.02,0.007 0.05,0.01 0.089,0.01 0.039,0 0.069,-0.003 0.089,-0.01 0.02,-0.006 0.035,-0.017 0.042,-0.032 0.008,-0.015 0.011,-0.037 0.011,-0.065 0,-0.03 -0.004,-0.052 -0.011,-0.066 -0.007,-0.014 -0.021,-0.024 -0.04,-0.029 -0.02,-0.005 -0.05,-0.007 -0.091,-0.007zm0 -0.29c-0.038,0 -0.066,0.003 -0.085,0.008 -0.019,0.005 -0.031,0.015 -0.038,0.029 -0.007,0.014 -0.011,0.034 -0.011,0.061 0,0.021 0.002,0.038 0.006,0.05 0.004,0.012 0.011,0.022 0.02,0.028 0.009,0.006 0.023,0.01 0.039,0.013 0.017,0.002 0.039,0.003 0.069,0.003 0.03,0 0.053,-0.001 0.069,-0.003 0.016,-0.002 0.029,-0.006 0.039,-0.013 0.009,-0.006 0.016,-0.015 0.02,-0.027 0.004,-0.012 0.005,-0.029 0.005,-0.051 0,-0.028 -0.004,-0.048 -0.011,-0.062 -0.007,-0.014 -0.02,-0.023 -0.039,-0.028 -0.018,-0.005 -0.046,-0.008 -0.083,-0.008zm-0.148 0.239c-0.029,-0.009 -0.052,-0.021 -0.068,-0.035 -0.016,-0.014 -0.028,-0.031 -0.034,-0.051 -0.006,-0.02 -0.01,-0.043 -0.01,-0.071 0,-0.036 0.005,-0.065 0.014,-0.089 0.009,-0.024 0.024,-0.042 0.044,-0.056 0.02,-0.014 0.047,-0.024 0.08,-0.03 0.033,-0.006 0.073,-0.009 0.122,-0.009 0.065,0 0.116,0.006 0.153,0.017 0.037,0.011 0.064,0.03 0.081,0.057 0.017,0.027 0.025,0.064 0.025,0.112 0,0.029 -0.003,0.053 -0.008,0.072 -0.005,0.019 -0.016,0.035 -0.031,0.049 -0.015,0.014 -0.038,0.026 -0.068,0.034 0.031,0.008 0.055,0.018 0.072,0.031 0.017,0.013 0.029,0.03 0.036,0.051 0.007,0.02 0.01,0.046 0.01,0.077 0,0.039 -0.004,0.071 -0.013,0.096 -0.009,0.026 -0.023,0.046 -0.043,0.062 -0.02,0.016 -0.048,0.028 -0.082,0.036 -0.035,0.008 -0.078,0.012 -0.131,0.012 -0.052,0 -0.095,-0.004 -0.13,-0.011 -0.035,-0.007 -0.062,-0.019 -0.082,-0.035 -0.02,-0.016 -0.035,-0.037 -0.043,-0.063 -0.009,-0.026 -0.013,-0.058 -0.013,-0.096 0,-0.03 0.004,-0.056 0.011,-0.077 0.007,-0.02 0.02,-0.038 0.037,-0.051 0.017,-0.013 0.041,-0.024 0.071,-0.031z"/>
  <path class="fil0" d="M1.414 4.541l0 0.179 0.168 0c0.03,0 0.053,-0.002 0.069,-0.007 0.016,-0.005 0.028,-0.014 0.035,-0.028 0.007,-0.014 0.011,-0.034 0.011,-0.061 0,-0.032 -0.007,-0.054 -0.021,-0.065 -0.014,-0.012 -0.038,-0.018 -0.072,-0.018l-0.19 0zm0 0.278l0 0.194 0.168 0c0.046,0 0.079,-0.007 0.1,-0.022 0.021,-0.015 0.031,-0.04 0.031,-0.077 0,-0.024 -0.004,-0.044 -0.011,-0.058 -0.007,-0.014 -0.018,-0.024 -0.034,-0.029 -0.015,-0.006 -0.036,-0.008 -0.063,-0.008l-0.192 0zm-0.131 0.303l0 -0.691 0.354 0c0.042,0 0.077,0.006 0.106,0.018 0.028,0.012 0.05,0.031 0.065,0.057 0.015,0.026 0.022,0.059 0.022,0.098 0,0.088 -0.033,0.141 -0.099,0.159l0 0.004c0.037,0.006 0.065,0.022 0.085,0.049 0.02,0.027 0.03,0.063 0.03,0.107 0,0.031 -0.004,0.058 -0.012,0.083 -0.008,0.024 -0.02,0.045 -0.037,0.063 -0.016,0.017 -0.037,0.03 -0.062,0.04 -0.025,0.009 -0.054,0.014 -0.087,0.014l-0.365 0z"/>
  <path id="1" class="fil0" d="M2.25 4.969l0.114 0 0 0.018c0,0.039 -0.009,0.069 -0.027,0.09 -0.018,0.021 -0.043,0.035 -0.074,0.043 -0.032,0.007 -0.072,0.011 -0.122,0.011 -0.056,0 -0.1,-0.008 -0.132,-0.023 -0.032,-0.015 -0.054,-0.041 -0.068,-0.077 -0.014,-0.036 -0.021,-0.085 -0.021,-0.148 0,-0.062 0.007,-0.111 0.021,-0.148 0.014,-0.036 0.037,-0.063 0.069,-0.079 0.032,-0.016 0.076,-0.024 0.131,-0.024 0.055,0 0.099,0.008 0.131,0.025 0.033,0.017 0.056,0.042 0.07,0.077 0.014,0.035 0.021,0.081 0.021,0.138l0 0.034 -0.328 0c0,0.039 0.003,0.068 0.009,0.088 0.006,0.02 0.017,0.034 0.031,0.041 0.015,0.008 0.036,0.012 0.065,0.012 0.026,0 0.047,-0.002 0.063,-0.006 0.015,-0.004 0.027,-0.011 0.034,-0.02 0.007,-0.01 0.011,-0.024 0.011,-0.042l0 -0.009zm0.002 -0.139c0,-0.029 -0.003,-0.051 -0.01,-0.068 -0.007,-0.016 -0.018,-0.028 -0.034,-0.035 -0.016,-0.007 -0.037,-0.011 -0.065,-0.011 -0.027,0 -0.048,0.004 -0.063,0.01 -0.015,0.007 -0.026,0.019 -0.033,0.035 -0.007,0.016 -0.01,0.039 -0.01,0.068l0.215 0z"/>
  <polygon id="2" class="fil0" points="2.584,5.122 2.699,5.122 2.699,4.728 2.854,4.728 2.854,4.639 2.429,4.639 2.429,4.728 2.584,4.728 "/>
  <path id="3" class="fil0" d="M3.244 4.969l0.114 0 0 0.018c0,0.039 -0.009,0.069 -0.027,0.09 -0.018,0.021 -0.043,0.035 -0.074,0.043 -0.032,0.007 -0.072,0.011 -0.122,0.011 -0.056,0 -0.1,-0.008 -0.132,-0.023 -0.032,-0.015 -0.054,-0.041 -0.068,-0.077 -0.014,-0.036 -0.021,-0.085 -0.021,-0.148 0,-0.062 0.007,-0.111 0.021,-0.148 0.014,-0.036 0.037,-0.063 0.069,-0.079 0.032,-0.016 0.076,-0.024 0.131,-0.024 0.055,0 0.099,0.008 0.131,0.025 0.033,0.017 0.056,0.042 0.07,0.077 0.014,0.035 0.021,0.081 0.021,0.138l0 0.034 -0.328 0c0,0.039 0.003,0.068 0.009,0.088 0.006,0.02 0.017,0.034 0.031,0.041 0.015,0.008 0.036,0.012 0.065,0.012 0.026,0 0.047,-0.002 0.063,-0.006 0.015,-0.004 0.027,-0.011 0.034,-0.02 0.007,-0.01 0.011,-0.024 0.011,-0.042l0 -0.009zm0.002 -0.139c0,-0.029 -0.003,-0.051 -0.01,-0.068 -0.007,-0.016 -0.018,-0.028 -0.034,-0.035 -0.016,-0.007 -0.037,-0.011 -0.065,-0.011 -0.027,0 -0.048,0.004 -0.063,0.01 -0.015,0.007 -0.026,0.019 -0.033,0.035 -0.007,0.016 -0.01,0.039 -0.01,0.068l0.215 0z"/>
  <path id="4" class="fil0" d="M3.574 4.868c0,0.048 0.002,0.083 0.007,0.107 0.005,0.023 0.015,0.04 0.03,0.05 0.015,0.01 0.04,0.015 0.073,0.015 0.033,0 0.057,-0.006 0.072,-0.018 0.015,-0.012 0.025,-0.029 0.029,-0.052 0.004,-0.022 0.006,-0.055 0.006,-0.099 0,-0.044 -0.003,-0.077 -0.009,-0.097 -0.006,-0.021 -0.016,-0.034 -0.03,-0.041 -0.014,-0.007 -0.036,-0.01 -0.066,-0.01 -0.03,0 -0.053,0.004 -0.069,0.012 -0.016,0.008 -0.027,0.022 -0.034,0.043 -0.007,0.021 -0.01,0.051 -0.01,0.092zm0 0.188l0 0.271 -0.115 0 0 -0.688 0.111 0 -0.005 0.068 0.004 0c0.019,-0.029 0.04,-0.048 0.063,-0.059 0.023,-0.011 0.052,-0.016 0.087,-0.016 0.052,0 0.093,0.01 0.121,0.028 0.028,0.019 0.047,0.046 0.057,0.081 0.01,0.035 0.015,0.08 0.015,0.136 0,0.04 -0.002,0.075 -0.006,0.103 -0.004,0.029 -0.012,0.055 -0.024,0.077 -0.012,0.023 -0.031,0.04 -0.056,0.053 -0.025,0.013 -0.058,0.019 -0.099,0.019 -0.038,0 -0.069,-0.005 -0.092,-0.015 -0.023,-0.01 -0.043,-0.029 -0.059,-0.059z"/>
  <path id="5" class="fil0" d="M4.013 4.639l0 0.483 0.141 0 0.158 -0.301c0.008,-0.014 0.025,-0.05 0.053,-0.108 -0.005,0.013 -0.01,0.035 -0.015,0.067 -0.005,0.032 -0.008,0.057 -0.008,0.076l0 0.267 0.11 0 0 -0.483 -0.141 0 -0.158 0.303c-0.01,0.019 -0.028,0.056 -0.053,0.109 0.005,-0.013 0.01,-0.034 0.015,-0.06 0.005,-0.027 0.008,-0.05 0.008,-0.071l0 -0.281 -0.11 0z"/>
  <polygon id="6" class="fil0" points="4.684,4.912 4.888,4.912 4.888,5.122 5.003,5.122 5.003,4.639 4.888,4.639 4.888,4.822 4.684,4.822 4.684,4.639 4.569,4.639 4.569,5.122 4.684,5.122 "/>
  <path id="7" class="fil0" d="M5.436 5.122l0.009 -0.067 -0.003 0c-0.01,0.022 -0.022,0.038 -0.036,0.049 -0.014,0.011 -0.031,0.018 -0.05,0.021 -0.019,0.003 -0.044,0.005 -0.073,0.005 -0.041,0 -0.075,-0.005 -0.1,-0.015 -0.026,-0.01 -0.045,-0.026 -0.057,-0.048 -0.012,-0.022 -0.019,-0.052 -0.019,-0.089 0,-0.031 0.003,-0.056 0.01,-0.076 0.007,-0.02 0.017,-0.036 0.032,-0.047 0.014,-0.011 0.033,-0.02 0.057,-0.024 0.023,-0.005 0.053,-0.007 0.09,-0.007 0.042,0 0.073,0.005 0.091,0.014 0.019,0.009 0.033,0.025 0.044,0.048l0.005 0 0 -0.082c0,-0.026 -0.003,-0.046 -0.01,-0.061 -0.006,-0.014 -0.017,-0.024 -0.032,-0.029 -0.015,-0.005 -0.036,-0.008 -0.063,-0.008 -0.035,0 -0.059,0.005 -0.072,0.015 -0.013,0.01 -0.019,0.029 -0.019,0.057l-0.116 0c0.001,-0.03 0.007,-0.054 0.017,-0.074 0.01,-0.02 0.024,-0.035 0.042,-0.045 0.018,-0.011 0.038,-0.018 0.062,-0.022 0.023,-0.004 0.051,-0.006 0.082,-0.006 0.051,0 0.092,0.004 0.124,0.011 0.032,0.008 0.056,0.024 0.074,0.049 0.018,0.025 0.027,0.063 0.027,0.112l0 0.318 -0.115 0zm0 -0.145c0,-0.028 -0.008,-0.047 -0.024,-0.058 -0.016,-0.01 -0.046,-0.015 -0.09,-0.015 -0.026,0 -0.046,0.002 -0.06,0.007 -0.014,0.004 -0.024,0.012 -0.03,0.022 -0.006,0.01 -0.009,0.025 -0.009,0.044 0,0.027 0.007,0.045 0.022,0.056 0.015,0.011 0.04,0.016 0.076,0.016 0.041,0 0.071,-0.005 0.089,-0.015 0.018,-0.01 0.026,-0.029 0.026,-0.058z"/>
  <path id="8" class="fil0" d="M5.785 4.868c0,0.048 0.002,0.083 0.007,0.107 0.005,0.023 0.015,0.04 0.03,0.05 0.015,0.01 0.04,0.015 0.073,0.015 0.033,0 0.057,-0.006 0.072,-0.018 0.015,-0.012 0.025,-0.029 0.029,-0.052 0.004,-0.022 0.006,-0.055 0.006,-0.099 0,-0.044 -0.003,-0.077 -0.009,-0.097 -0.006,-0.021 -0.016,-0.034 -0.03,-0.041 -0.014,-0.007 -0.036,-0.01 -0.066,-0.01 -0.03,0 -0.053,0.004 -0.069,0.012 -0.016,0.008 -0.027,0.022 -0.034,0.043 -0.007,0.021 -0.01,0.051 -0.01,0.092zm0 0.188l0 0.271 -0.115 0 0 -0.688 0.111 0 -0.005 0.068 0.004 0c0.019,-0.029 0.04,-0.048 0.063,-0.059 0.023,-0.011 0.052,-0.016 0.087,-0.016 0.052,0 0.093,0.01 0.121,0.028 0.028,0.019 0.047,0.046 0.057,0.081 0.01,0.035 0.015,0.08 0.015,0.136 0,0.04 -0.002,0.075 -0.006,0.103 -0.004,0.029 -0.012,0.055 -0.024,0.077 -0.012,0.023 -0.031,0.04 -0.056,0.053 -0.025,0.013 -0.058,0.019 -0.099,0.019 -0.038,0 -0.069,-0.005 -0.092,-0.015 -0.023,-0.01 -0.043,-0.029 -0.059,-0.059z"/>
  <polygon id="9" class="fil0" points="6.34,4.912 6.544,4.912 6.544,5.122 6.659,5.122 6.659,4.639 6.544,4.639 6.544,4.822 6.34,4.822 6.34,4.639 6.225,4.639 6.225,5.122 6.34,5.122 "/>
  <path id="10" class="fil0" d="M6.783 5.123l0 -0.483 0.115 0 0 0.184 0.163 0c0.092,0 0.138,0.05 0.138,0.15 0,0.05 -0.012,0.088 -0.036,0.112 -0.024,0.025 -0.058,0.037 -0.102,0.037l-0.279 0zm0.115 -0.215l0 0.13 0.116 0c0.025,0 0.042,-0.004 0.053,-0.014 0.011,-0.009 0.016,-0.026 0.016,-0.051 0,-0.018 -0.002,-0.031 -0.007,-0.041 -0.005,-0.01 -0.012,-0.016 -0.022,-0.02 -0.01,-0.004 -0.024,-0.005 -0.04,-0.005l-0.115 0zm0.491 -0.268l0 0.483 -0.115 0 0 -0.483 0.115 0z"/>
  <path id="11" class="fil0" d="M7.511 4.638l0 0.484 0.141 0 0.158 -0.302c0.012,-0.022 0.03,-0.058 0.053,-0.107 -0.005,0.013 -0.01,0.035 -0.015,0.067 -0.005,0.032 -0.008,0.057 -0.008,0.076l0 0.267 0.11 0 0 -0.484 -0.141 0 -0.158 0.305c-0.008,0.015 -0.026,0.051 -0.053,0.107 0.005,-0.013 0.01,-0.033 0.015,-0.06 0.005,-0.026 0.008,-0.05 0.008,-0.071l0 -0.281 -0.11 0zm0.215 -0.034c-0.037,0 -0.066,-0.007 -0.086,-0.022 -0.02,-0.015 -0.031,-0.04 -0.031,-0.078l0.064 0c0,0.016 0.004,0.027 0.012,0.033 0.008,0.006 0.022,0.009 0.043,0.009 0.023,0 0.038,-0.003 0.045,-0.009 0.007,-0.006 0.011,-0.017 0.011,-0.034l0.063 0c0,0.037 -0.01,0.063 -0.032,0.078 -0.021,0.014 -0.05,0.022 -0.088,0.022z"/>
  <path id="12" class="fil0" d="M8.499 4.721c-0.027,0 -0.047,0.004 -0.06,0.012 -0.013,0.008 -0.022,0.023 -0.026,0.044 -0.005,0.022 -0.007,0.056 -0.007,0.103 0,0.045 0.002,0.078 0.006,0.1 0.004,0.022 0.013,0.038 0.026,0.047 0.013,0.009 0.035,0.014 0.063,0.014 0.022,0 0.039,-0.003 0.052,-0.008 0.012,-0.005 0.021,-0.014 0.027,-0.025 0.006,-0.012 0.01,-0.028 0.011,-0.047 0.002,-0.02 0.003,-0.047 0.003,-0.081 0,-0.047 -0.002,-0.082 -0.007,-0.103 -0.004,-0.022 -0.013,-0.036 -0.026,-0.044 -0.013,-0.008 -0.034,-0.012 -0.062,-0.012zm0.095 0.607l0 -0.272c-0.01,0.02 -0.021,0.035 -0.034,0.046 -0.012,0.011 -0.026,0.019 -0.041,0.023 -0.015,0.004 -0.033,0.006 -0.055,0.006 -0.042,0 -0.076,-0.009 -0.102,-0.028 -0.025,-0.018 -0.044,-0.047 -0.055,-0.085 -0.011,-0.038 -0.017,-0.088 -0.017,-0.149 0,-0.063 0.006,-0.111 0.019,-0.146 0.013,-0.035 0.032,-0.059 0.058,-0.072 0.026,-0.014 0.061,-0.02 0.104,-0.02 0.059,0 0.1,0.023 0.123,0.068l0 -0.268 0.115 0 0 0.268c0.023,-0.045 0.064,-0.068 0.123,-0.068 0.043,0 0.078,0.007 0.104,0.021 0.026,0.014 0.046,0.038 0.059,0.073 0.013,0.035 0.019,0.083 0.019,0.146 0,0.092 -0.013,0.159 -0.039,0.2 -0.026,0.041 -0.071,0.061 -0.135,0.061 -0.032,0 -0.058,-0.005 -0.078,-0.015 -0.019,-0.01 -0.037,-0.03 -0.052,-0.06l0 0.272 -0.115 0zm0.115 -0.449c0,0.046 0.002,0.08 0.006,0.102 0.004,0.021 0.012,0.037 0.025,0.046 0.013,0.009 0.034,0.014 0.062,0.014 0.029,0 0.05,-0.005 0.063,-0.014 0.014,-0.01 0.022,-0.025 0.026,-0.048 0.004,-0.022 0.006,-0.055 0.006,-0.1 0,-0.047 -0.002,-0.081 -0.006,-0.103 -0.005,-0.021 -0.013,-0.036 -0.026,-0.044 -0.013,-0.008 -0.034,-0.012 -0.062,-0.012 -0.021,0 -0.038,0.002 -0.05,0.006 -0.012,0.004 -0.021,0.011 -0.028,0.022 -0.007,0.011 -0.011,0.026 -0.014,0.046 -0.003,0.02 -0.004,0.047 -0.004,0.083z"/>
  <path id="13" class="fil0" d="M9.421 4.969l0.114 0 0 0.018c0,0.039 -0.009,0.069 -0.027,0.09 -0.018,0.021 -0.043,0.035 -0.074,0.043 -0.032,0.007 -0.072,0.011 -0.122,0.011 -0.056,0 -0.1,-0.008 -0.132,-0.023 -0.032,-0.015 -0.054,-0.041 -0.068,-0.077 -0.014,-0.036 -0.021,-0.085 -0.021,-0.148 0,-0.062 0.007,-0.111 0.021,-0.148 0.014,-0.036 0.037,-0.063 0.069,-0.079 0.032,-0.016 0.076,-0.024 0.131,-0.024 0.055,0 0.099,0.008 0.131,0.025 0.033,0.017 0.056,0.042 0.07,0.077 0.014,0.035 0.021,0.081 0.021,0.138l0 0.034 -0.328 0c0,0.039 0.003,0.068 0.009,0.088 0.006,0.02 0.017,0.034 0.031,0.041 0.015,0.008 0.036,0.012 0.065,0.012 0.026,0 0.047,-0.002 0.063,-0.006 0.015,-0.004 0.027,-0.011 0.034,-0.02 0.007,-0.01 0.011,-0.024 0.011,-0.042l0 -0.009zm0.002 -0.139c0,-0.029 -0.003,-0.051 -0.01,-0.068 -0.007,-0.016 -0.018,-0.028 -0.034,-0.035 -0.016,-0.007 -0.037,-0.011 -0.065,-0.011 -0.027,0 -0.048,0.004 -0.063,0.01 -0.015,0.007 -0.026,0.019 -0.033,0.035 -0.007,0.016 -0.01,0.039 -0.01,0.068l0.215 0z"/>
  <path id="14" class="fil0" d="M9.678 4.639l0.403 0 0 0.483 -0.115 0 0 -0.394 -0.174 0 0 0.245c0,0.03 -0.005,0.057 -0.014,0.08 -0.009,0.023 -0.024,0.041 -0.043,0.054 -0.02,0.013 -0.044,0.02 -0.072,0.02 -0.032,0 -0.056,-0.002 -0.071,-0.005l0 -0.087c0.011,0.002 0.021,0.003 0.029,0.003 0.022,0 0.037,-0.006 0.045,-0.018 0.008,-0.012 0.012,-0.031 0.012,-0.058l0 -0.325z"/>
  <path id="15" class="fil0" d="M10.206 5.122l0 -0.484 0.115 0 0 0.184 0.161 0c0.044,0 0.079,0.012 0.103,0.037 0.025,0.024 0.037,0.062 0.037,0.112 0,0.05 -0.012,0.088 -0.037,0.113 -0.025,0.025 -0.059,0.038 -0.103,0.038l-0.277 0zm0.115 -0.216l0 0.132 0.115 0c0.025,0 0.042,-0.005 0.053,-0.014 0.011,-0.01 0.017,-0.027 0.017,-0.052 0,-0.026 -0.005,-0.043 -0.016,-0.052 -0.011,-0.009 -0.029,-0.013 -0.054,-0.013l-0.115 0z"/>
  <path id="16" class="fil0" d="M10.729 5.036c0.014,-0.019 0.025,-0.038 0.034,-0.055 0.008,-0.018 0.014,-0.039 0.018,-0.065 0.004,-0.025 0.006,-0.057 0.006,-0.095l0 -0.184 0.377 0 0 0.398 0.062 0 0 0.217 -0.106 0 0 -0.131 -0.337 0 0 0.131 -0.106 0 0 -0.217 0.052 0zm0.32 0l0 -0.313 -0.152 0 0 0.105c0,0.094 -0.018,0.164 -0.053,0.208l0.205 0z"/>
  <polygon id="17" class="fil0" points="11.415,4.639 11.415,5.033 11.587,5.033 11.587,4.639 11.702,4.639 11.702,5.033 11.874,5.033 11.874,4.639 11.989,4.639 11.989,5.122 11.3,5.122 11.3,4.639 "/>
  <path id="18" class="fil0" d="M12.417 4.969l0.114 0 0 0.018c0,0.039 -0.009,0.069 -0.027,0.09 -0.018,0.021 -0.043,0.035 -0.074,0.043 -0.032,0.007 -0.072,0.011 -0.122,0.011 -0.056,0 -0.1,-0.008 -0.132,-0.023 -0.032,-0.015 -0.054,-0.041 -0.068,-0.077 -0.014,-0.036 -0.021,-0.085 -0.021,-0.148 0,-0.062 0.007,-0.111 0.021,-0.148 0.014,-0.036 0.037,-0.063 0.069,-0.079 0.032,-0.016 0.076,-0.024 0.131,-0.024 0.055,0 0.099,0.008 0.131,0.025 0.033,0.017 0.056,0.042 0.07,0.077 0.014,0.035 0.021,0.081 0.021,0.138l0 0.034 -0.328 0c0,0.039 0.003,0.068 0.009,0.088 0.006,0.02 0.017,0.034 0.031,0.041 0.015,0.008 0.036,0.012 0.065,0.012 0.026,0 0.047,-0.002 0.063,-0.006 0.015,-0.004 0.027,-0.011 0.034,-0.02 0.007,-0.01 0.011,-0.024 0.011,-0.042l0 -0.009zm0.002 -0.139c0,-0.029 -0.003,-0.051 -0.01,-0.068 -0.007,-0.016 -0.018,-0.028 -0.034,-0.035 -0.016,-0.007 -0.037,-0.011 -0.065,-0.011 -0.027,0 -0.048,0.004 -0.063,0.01 -0.015,0.007 -0.026,0.019 -0.033,0.035 -0.007,0.016 -0.01,0.039 -0.01,0.068l0.215 0z"/>
  <path id="19" class="fil0" d="M12.746 4.868c0,0.048 0.002,0.083 0.007,0.107 0.005,0.023 0.015,0.04 0.03,0.05 0.015,0.01 0.04,0.015 0.073,0.015 0.033,0 0.057,-0.006 0.072,-0.018 0.015,-0.012 0.025,-0.029 0.029,-0.052 0.004,-0.022 0.006,-0.055 0.006,-0.099 0,-0.044 -0.003,-0.077 -0.009,-0.097 -0.006,-0.021 -0.016,-0.034 -0.03,-0.041 -0.014,-0.007 -0.036,-0.01 -0.066,-0.01 -0.03,0 -0.053,0.004 -0.069,0.012 -0.016,0.008 -0.027,0.022 -0.034,0.043 -0.007,0.021 -0.01,0.051 -0.01,0.092zm0 0.188l0 0.271 -0.115 0 0 -0.688 0.111 0 -0.005 0.068 0.004 0c0.019,-0.029 0.04,-0.048 0.063,-0.059 0.023,-0.011 0.052,-0.016 0.087,-0.016 0.052,0 0.093,0.01 0.121,0.028 0.028,0.019 0.047,0.046 0.057,0.081 0.01,0.035 0.015,0.08 0.015,0.136 0,0.04 -0.002,0.075 -0.006,0.103 -0.004,0.029 -0.012,0.055 -0.024,0.077 -0.012,0.023 -0.031,0.04 -0.056,0.053 -0.025,0.013 -0.058,0.019 -0.099,0.019 -0.038,0 -0.069,-0.005 -0.092,-0.015 -0.023,-0.01 -0.043,-0.029 -0.059,-0.059z"/>
  <g id="_2335732726096">
   <rect class="fil1" x="0" y="3.062" width="0.817" height="0.817" rx="0.163" ry="0.155"/>
   <g>
    <path class="fil2" d="M0.157 3.204c-0.002,0.005 -0.014,0.014 -0.024,0.048 -0.003,0.011 -0.006,0.033 -0.006,0.044 0.001,0.043 0.005,0.061 0.017,0.1 0.007,0.024 0.032,0.076 0.045,0.098 0.005,0.008 0.008,0.014 0.013,0.022 0.02,0.031 0.064,0.091 0.088,0.118l0.021 0.023c0.023,0.024 0.048,0.048 0.074,0.068l0.031 0.022c0.004,0.003 0.008,0.004 0.011,0.007 0.039,0.023 0.088,0.045 0.134,0.042 0.015,-0.001 0.043,-0.004 0.054,-0.015 -0.006,-0.008 -0.011,-0.013 -0.016,-0.02l-0.012 -0.016c-0.001,-0.002 -0.002,-0.003 -0.004,-0.005 -0.02,-0.026 -0.044,-0.055 -0.064,-0.081l-0.032 -0.04c-0.007,0.003 -0.008,0.006 -0.018,0.006 -0.025,0 -0.077,-0.058 -0.095,-0.078 -0.018,-0.02 -0.029,-0.035 -0.045,-0.056l-0.029 -0.042c-0.01,-0.016 -0.026,-0.042 -0.022,-0.063 0.002,-0.008 0.005,-0.012 0.011,-0.017l-0.099 -0.125c-0.006,-0.007 -0.011,-0.014 -0.017,-0.021 -0.003,-0.003 -0.005,-0.007 -0.008,-0.01 -0.002,-0.003 -0.005,-0.008 -0.009,-0.009z"/>
    <path class="fil2" d="M0.211 3.229c0.026,0.033 0.058,0.071 0.083,0.103l0.016 0.02c0.005,-0.001 0.03,-0.024 0.035,-0.027 0.012,-0.009 0.026,-0.021 0.017,-0.038 -0.003,-0.005 -0.023,-0.03 -0.029,-0.037l-0.067 -0.083c-0.02,-0.022 -0.022,-0.034 -0.055,-0.008l-0.034 0.027 0.033 0.042z"/>
    <path class="fil2" d="M0.567 3.561c-0.008,0 -0.014,0.004 -0.019,0.008 -0.007,0.006 -0.038,0.029 -0.042,0.034l0.029 0.036c0,0 0,0 0,0.001l0.1 0.125 0.014 -0.01c0.004,-0.003 0.008,-0.007 0.013,-0.01 0.005,-0.004 0.009,-0.007 0.014,-0.011 0.005,-0.004 0.008,-0.006 0.012,-0.012 0.008,-0.014 -0.002,-0.025 -0.008,-0.033l-0.074 -0.093c-0.002,-0.002 -0.003,-0.004 -0.005,-0.007 -0.011,-0.014 -0.017,-0.027 -0.033,-0.027z"/>
   </g>
  </g>
  <g id="_2335732729264">
   <rect class="fil1" x="0" y="1.764" width="0.817" height="0.817" rx="0.163" ry="0.155"/>
   <g>
    <path class="fil2" d="M0.296 2.055l0.106 -0.064c0.002,-0.002 0.005,-0.003 0.007,-0.004 0,0 0,0 0.001,0.001l0.105 0.063c0.002,0.001 0.006,0.004 0.007,0.004 -0.001,0.004 -0.014,0.022 -0.014,0.025l0 0.107 -0.198 0 0 -0.107c0,-0.002 -0.002,-0.005 -0.003,-0.007l-0.011 -0.018zm0.113 0.443c0.006,0 0.01,-0.004 0.014,-0.008l0.032 -0.039c0.002,-0.002 0.003,-0.004 0.005,-0.006 0.002,-0.002 0.003,-0.004 0.004,-0.006l0.013 -0.017c0.002,-0.002 0.003,-0.004 0.004,-0.006 0.002,-0.002 0.003,-0.004 0.004,-0.006l0.025 -0.035c0.008,-0.012 0.017,-0.024 0.024,-0.037l0.015 -0.025c0.003,-0.004 0.005,-0.008 0.007,-0.013 0.005,-0.008 0.01,-0.019 0.015,-0.026l0.007 -0.013c0.002,-0.004 0.004,-0.009 0.007,-0.013 0.001,-0.002 0.002,-0.004 0.003,-0.007 0.01,-0.021 0.019,-0.043 0.027,-0.065 0.002,-0.005 0.004,-0.01 0.005,-0.015 0.008,-0.029 0.015,-0.054 0.015,-0.087 0,-0.07 -0.031,-0.125 -0.066,-0.16l-0.019 -0.017c-0.007,-0.005 -0.013,-0.01 -0.021,-0.015 -0.006,-0.004 -0.012,-0.007 -0.018,-0.01l-0.01 -0.005c-0.056,-0.026 -0.121,-0.027 -0.179,-0.003 -0.012,0.005 -0.023,0.011 -0.034,0.018 -0.009,0.005 -0.017,0.011 -0.025,0.018l-0.014 0.012c-0.002,0.002 -0.003,0.003 -0.004,0.004l-0.012 0.014c-0.003,0.003 -0.005,0.006 -0.008,0.01 -0.011,0.017 -0.02,0.031 -0.028,0.05 -0.003,0.009 -0.006,0.017 -0.008,0.026 -0.001,0.002 -0.001,0.005 -0.002,0.007 -0.006,0.025 -0.007,0.052 -0.004,0.079 0.004,0.038 0.018,0.078 0.033,0.113 0.009,0.021 0.019,0.041 0.03,0.061 0.008,0.016 0.018,0.031 0.027,0.047 0.004,0.007 0.009,0.014 0.013,0.021 0.007,0.012 0.023,0.036 0.031,0.046l0.014 0.02c0.013,0.018 0.027,0.036 0.041,0.054 0.007,0.009 0.014,0.018 0.021,0.026 0.004,0.004 0.007,0.008 0.013,0.008z"/>
    <path class="fil2" d="M0.338 2.063l0 0.096 0.042 0 0 -0.07 0.057 0 0 0.07 0.043 0 0 -0.096c0,-0.002 -0.003,-0.003 -0.004,-0.003 -0.002,-0.001 -0.003,-0.002 -0.004,-0.003l-0.062 -0.037c-0.001,-0 -0.008,0.004 -0.009,0.005l-0.06 0.036c-0.001,0.001 -0.002,0.001 -0.002,0.002z"/>
   </g>
  </g>
  <g id="_2335732728944">
   <rect class="fil1" x="0" y="4.36" width="0.817" height="0.817" rx="0.163" ry="0.155"/>
   <g>
    <path class="fil2" d="M0.353 4.469c0,0.038 0.006,0.053 -0.008,0.063 -0.013,-0.009 -0.008,-0.002 -0.008,-0.047 -0.034,0.008 -0.058,0.058 -0.065,0.092 -0.004,0.017 0.001,0.009 -0.007,0.021 -0.005,0.007 -0.011,0.006 -0.011,0.017 0,0.055 0.194,0.054 0.257,0.037 0.02,-0.005 0.068,-0.023 0.047,-0.046 -0.029,-0.032 -0.004,-0.017 -0.026,-0.064 -0.009,-0.02 -0.029,-0.051 -0.05,-0.056 0,0.023 0,0.029 -0.004,0.047l-0.012 0c-0.005,-0.021 -0.004,-0.037 -0.004,-0.063 -0.053,-0.014 -0.079,-0.007 -0.11,0z"/>
    <path class="fil2" d="M0.271 4.693c0,0.041 0.024,0.061 0.046,0.107 0.03,0.064 0.131,0.116 0.194,-0.021 0.015,-0.033 0.035,-0.028 0.035,-0.094 0,-0.043 -0.027,-0.008 -0.11,-0.008 -0.088,0 -0.069,0.004 -0.154,-0.016 -0.006,0.009 -0.012,0.017 -0.012,0.032z"/>
    <path class="fil2" d="M0.231 5.067c0.034,0 0.06,0.008 0.098,0.008l0.161 0c0.04,0 0.066,-0.008 0.102,-0.008l0 -0.071 -0.362 0 0 0.071z"/>
    <path class="fil2" d="M0.29 4.831l0 0.126 0.24 0 0 -0.126 -0.027 -0.008c-0.034,0.051 -0.092,0.074 -0.151,0.037 -0.019,-0.012 -0.026,-0.025 -0.042,-0.036 -0.008,0.004 -0.009,0.005 -0.02,0.008z"/>
    <path class="fil2" d="M0.125 5.024c0,0.019 0.018,0.021 0.039,0.028 0.075,0.025 -0.031,-0.085 0.087,-0.095l0 -0.106c-0.065,0.005 -0.126,0.092 -0.126,0.173z"/>
    <path class="fil2" d="M0.566 4.863l0 0.094c0.075,0 0.067,0.04 0.067,0.098 0.022,-0.001 0.039,-0.011 0.059,-0.016l0 -0.022c-0,-0.019 -0.001,-0.03 -0.007,-0.049 -0.021,-0.066 -0.042,-0.082 -0.095,-0.11 -0.008,-0.004 -0.024,-0.015 -0.024,0.004z"/>
   </g>
  </g>
  <polygon class="fil0" points="1.852,5.503 1.72,5.503 1.72,5.784 1.656,5.784 1.454,5.503 1.309,5.503 1.558,5.838 1.283,6.193 1.433,6.193 1.656,5.895 1.72,5.895 1.72,6.193 1.852,6.193 1.852,5.895 1.914,5.895 2.14,6.193 2.287,6.193 2.015,5.838 2.263,5.503 2.117,5.503 1.914,5.784 1.852,5.784 "/>
  <path id="1" class="fil0" d="M2.361 5.71l0 0.483 0.141 0 0.158 -0.301c0.008,-0.014 0.025,-0.05 0.053,-0.108 -0.005,0.013 -0.01,0.035 -0.015,0.067 -0.005,0.032 -0.008,0.057 -0.008,0.076l0 0.267 0.11 0 0 -0.483 -0.141 0 -0.158 0.303c-0.01,0.019 -0.028,0.056 -0.053,0.109 0.005,-0.013 0.01,-0.034 0.015,-0.06 0.005,-0.027 0.008,-0.05 0.008,-0.071l0 -0.281 -0.11 0z"/>
  <path id="2" class="fil0" d="M3.03 5.794l0 0.114 0.11 0c0.029,0 0.05,-0.004 0.062,-0.013 0.012,-0.009 0.018,-0.023 0.018,-0.042 0,-0.021 -0.005,-0.036 -0.016,-0.045 -0.01,-0.009 -0.028,-0.014 -0.053,-0.014l-0.121 0zm0 0.192l0 0.124 0.126 0c0.026,0 0.046,-0.005 0.057,-0.015 0.012,-0.01 0.018,-0.026 0.018,-0.047 0,-0.041 -0.023,-0.062 -0.069,-0.062l-0.132 0zm-0.113 0.207l0 -0.483 0.267 0c0.055,0 0.093,0.011 0.117,0.032 0.024,0.021 0.035,0.054 0.035,0.1 0,0.025 -0.008,0.047 -0.023,0.065 -0.016,0.018 -0.037,0.03 -0.064,0.036l0 0.003c0.03,0.006 0.054,0.018 0.072,0.038 0.018,0.019 0.027,0.045 0.027,0.078 0,0.031 -0.005,0.057 -0.014,0.076 -0.009,0.019 -0.024,0.034 -0.046,0.043 -0.022,0.009 -0.051,0.014 -0.09,0.014l-0.28 0z"/>
  <path id="3" class="fil0" d="M3.421 5.951c0,-0.064 0.007,-0.113 0.02,-0.149 0.014,-0.035 0.037,-0.061 0.069,-0.076 0.033,-0.015 0.079,-0.023 0.138,-0.023 0.059,0 0.105,0.008 0.138,0.023 0.033,0.015 0.056,0.041 0.07,0.076 0.014,0.035 0.021,0.085 0.021,0.148 0,0.047 -0.004,0.086 -0.012,0.118 -0.008,0.032 -0.02,0.057 -0.038,0.077 -0.017,0.019 -0.041,0.033 -0.07,0.042 -0.029,0.009 -0.066,0.013 -0.111,0.014 -0.044,0 -0.081,-0.004 -0.11,-0.014 -0.029,-0.009 -0.053,-0.023 -0.07,-0.043 -0.017,-0.02 -0.029,-0.045 -0.037,-0.076 -0.008,-0.031 -0.011,-0.071 -0.011,-0.118zm0.118 0c0,0.045 0.003,0.079 0.01,0.102 0.007,0.023 0.018,0.038 0.033,0.047 0.015,0.008 0.038,0.013 0.067,0.013 0.029,0 0.051,-0.004 0.067,-0.012 0.016,-0.008 0.027,-0.024 0.034,-0.047 0.007,-0.023 0.01,-0.057 0.01,-0.102 0,-0.034 -0.002,-0.061 -0.006,-0.081 -0.004,-0.02 -0.01,-0.036 -0.018,-0.047 -0.008,-0.011 -0.019,-0.019 -0.033,-0.023 -0.014,-0.004 -0.032,-0.007 -0.054,-0.007 -0.029,0 -0.051,0.004 -0.067,0.012 -0.015,0.008 -0.026,0.023 -0.033,0.046 -0.007,0.023 -0.01,0.056 -0.01,0.1z"/>
  <polygon id="4" class="fil0" points="4.096,6.193 4.211,6.193 4.211,5.799 4.366,5.799 4.366,5.71 3.941,5.71 3.941,5.799 4.096,5.799 "/>
  <polygon id="5" class="fil0" points="4.562,5.983 4.766,5.983 4.766,6.193 4.881,6.193 4.881,5.71 4.766,5.71 4.766,5.894 4.562,5.894 4.562,5.71 4.446,5.71 4.446,6.193 4.562,6.193 "/>
  <path id="6" class="fil0" d="M4.985 5.951c0,-0.064 0.007,-0.113 0.02,-0.149 0.014,-0.035 0.037,-0.061 0.069,-0.076 0.033,-0.015 0.079,-0.023 0.138,-0.023 0.059,0 0.105,0.008 0.138,0.023 0.033,0.015 0.056,0.041 0.07,0.076 0.014,0.035 0.021,0.085 0.021,0.148 0,0.047 -0.004,0.086 -0.012,0.118 -0.008,0.032 -0.02,0.057 -0.038,0.077 -0.017,0.019 -0.041,0.033 -0.07,0.042 -0.029,0.009 -0.066,0.013 -0.111,0.014 -0.044,0 -0.081,-0.004 -0.11,-0.014 -0.029,-0.009 -0.053,-0.023 -0.07,-0.043 -0.017,-0.02 -0.029,-0.045 -0.037,-0.076 -0.008,-0.031 -0.011,-0.071 -0.011,-0.118zm0.118 0c0,0.045 0.003,0.079 0.01,0.102 0.007,0.023 0.018,0.038 0.033,0.047 0.015,0.008 0.038,0.013 0.067,0.013 0.029,0 0.051,-0.004 0.067,-0.012 0.016,-0.008 0.027,-0.024 0.034,-0.047 0.007,-0.023 0.01,-0.057 0.01,-0.102 0,-0.034 -0.002,-0.061 -0.006,-0.081 -0.004,-0.02 -0.01,-0.036 -0.018,-0.047 -0.008,-0.011 -0.019,-0.019 -0.033,-0.023 -0.014,-0.004 -0.032,-0.007 -0.054,-0.007 -0.029,0 -0.051,0.004 -0.067,0.012 -0.015,0.008 -0.026,0.023 -0.033,0.046 -0.007,0.023 -0.01,0.056 -0.01,0.1z"/>
  <path id="7" class="fil0" d="M5.654 5.794l0 0.114 0.11 0c0.029,0 0.05,-0.004 0.062,-0.013 0.012,-0.009 0.018,-0.023 0.018,-0.042 0,-0.021 -0.005,-0.036 -0.016,-0.045 -0.01,-0.009 -0.028,-0.014 -0.053,-0.014l-0.121 0zm0 0.192l0 0.124 0.126 0c0.026,0 0.046,-0.005 0.057,-0.015 0.012,-0.01 0.018,-0.026 0.018,-0.047 0,-0.041 -0.023,-0.062 -0.069,-0.062l-0.132 0zm-0.113 0.207l0 -0.483 0.267 0c0.055,0 0.093,0.011 0.117,0.032 0.024,0.021 0.035,0.054 0.035,0.1 0,0.025 -0.008,0.047 -0.023,0.065 -0.016,0.018 -0.037,0.03 -0.064,0.036l0 0.003c0.03,0.006 0.054,0.018 0.072,0.038 0.018,0.019 0.027,0.045 0.027,0.078 0,0.031 -0.005,0.057 -0.014,0.076 -0.009,0.019 -0.024,0.034 -0.046,0.043 -0.022,0.009 -0.051,0.014 -0.09,0.014l-0.28 0z"/>
  <path id="8" class="fil0" d="M6.045 5.951c0,-0.064 0.007,-0.113 0.02,-0.149 0.014,-0.035 0.037,-0.061 0.069,-0.076 0.033,-0.015 0.079,-0.023 0.138,-0.023 0.059,0 0.105,0.008 0.138,0.023 0.033,0.015 0.056,0.041 0.07,0.076 0.014,0.035 0.021,0.085 0.021,0.148 0,0.047 -0.004,0.086 -0.012,0.118 -0.008,0.032 -0.02,0.057 -0.038,0.077 -0.017,0.019 -0.041,0.033 -0.07,0.042 -0.029,0.009 -0.066,0.013 -0.111,0.014 -0.044,0 -0.081,-0.004 -0.11,-0.014 -0.029,-0.009 -0.053,-0.023 -0.07,-0.043 -0.017,-0.02 -0.029,-0.045 -0.037,-0.076 -0.008,-0.031 -0.011,-0.071 -0.011,-0.118zm0.118 0c0,0.045 0.003,0.079 0.01,0.102 0.007,0.023 0.018,0.038 0.033,0.047 0.015,0.008 0.038,0.013 0.067,0.013 0.029,0 0.051,-0.004 0.067,-0.012 0.016,-0.008 0.027,-0.024 0.034,-0.047 0.007,-0.023 0.01,-0.057 0.01,-0.102 0,-0.034 -0.002,-0.061 -0.006,-0.081 -0.004,-0.02 -0.01,-0.036 -0.018,-0.047 -0.008,-0.011 -0.019,-0.019 -0.033,-0.023 -0.014,-0.004 -0.032,-0.007 -0.054,-0.007 -0.029,0 -0.051,0.004 -0.067,0.012 -0.015,0.008 -0.026,0.023 -0.033,0.046 -0.007,0.023 -0.01,0.056 -0.01,0.1z"/>
  <path id="9" class="fil0" d="M6.606 6.107c0.014,-0.019 0.025,-0.038 0.034,-0.055 0.008,-0.018 0.014,-0.039 0.018,-0.065 0.004,-0.025 0.006,-0.057 0.006,-0.095l0 -0.184 0.377 0 0 0.398 0.062 0 0 0.217 -0.106 0 0 -0.131 -0.337 0 0 0.131 -0.106 0 0 -0.217 0.052 0zm0.32 0l0 -0.313 -0.152 0 0 0.105c0,0.094 -0.018,0.164 -0.053,0.208l0.205 0z"/>
  <g id="_2335732735504">
   <rect class="fil1" x="0" y="5.43" width="0.817" height="0.817" rx="0.163" ry="0.155"/>
   <g>
    <path class="fil2" d="M0.353 5.539c0,0.038 0.006,0.053 -0.008,0.063 -0.013,-0.009 -0.008,-0.002 -0.008,-0.047 -0.034,0.008 -0.058,0.058 -0.065,0.092 -0.004,0.017 0.001,0.009 -0.007,0.021 -0.005,0.007 -0.011,0.006 -0.011,0.017 0,0.055 0.194,0.054 0.257,0.037 0.02,-0.005 0.068,-0.023 0.047,-0.046 -0.029,-0.032 -0.004,-0.017 -0.026,-0.064 -0.009,-0.02 -0.029,-0.051 -0.05,-0.056 0,0.023 0,0.029 -0.004,0.047l-0.012 0c-0.005,-0.021 -0.004,-0.037 -0.004,-0.063 -0.053,-0.014 -0.079,-0.007 -0.11,0z"/>
    <path class="fil2" d="M0.271 5.763c0,0.041 0.024,0.061 0.046,0.107 0.03,0.064 0.131,0.116 0.194,-0.021 0.015,-0.033 0.035,-0.028 0.035,-0.094 0,-0.043 -0.027,-0.008 -0.11,-0.008 -0.088,0 -0.069,0.004 -0.154,-0.016 -0.006,0.009 -0.012,0.017 -0.012,0.032z"/>
    <path class="fil2" d="M0.231 6.137c0.034,0 0.06,0.008 0.098,0.008l0.161 0c0.04,0 0.066,-0.008 0.102,-0.008l0 -0.071 -0.362 0 0 0.071z"/>
    <path class="fil2" d="M0.29 5.901l0 0.126 0.24 0 0 -0.126 -0.027 -0.008c-0.034,0.051 -0.092,0.074 -0.151,0.037 -0.019,-0.012 -0.026,-0.025 -0.042,-0.036 -0.008,0.004 -0.009,0.005 -0.02,0.008z"/>
    <path class="fil2" d="M0.125 6.094c0,0.019 0.018,0.021 0.039,0.028 0.075,0.025 -0.031,-0.085 0.087,-0.095l0 -0.106c-0.065,0.005 -0.126,0.092 -0.126,0.173z"/>
    <path class="fil2" d="M0.566 5.933l0 0.094c0.075,0 0.067,0.04 0.067,0.098 0.022,-0.001 0.039,-0.011 0.059,-0.016l0 -0.022c-0,-0.019 -0.001,-0.03 -0.007,-0.049 -0.021,-0.066 -0.042,-0.082 -0.095,-0.11 -0.008,-0.004 -0.024,-0.015 -0.024,0.004z"/>
   </g>
  </g>
  <path class="fil0" d="M1.477 6.862l0.107 0c0.041,0 0.072,-0.008 0.091,-0.023 0.019,-0.015 0.029,-0.039 0.029,-0.072 0,-0.025 -0.004,-0.045 -0.013,-0.059 -0.009,-0.014 -0.023,-0.024 -0.044,-0.03 -0.02,-0.006 -0.049,-0.009 -0.086,-0.009 -0.031,0 -0.055,0.002 -0.073,0.005 -0.018,0.003 -0.032,0.009 -0.043,0.017 -0.011,0.008 -0.018,0.019 -0.022,0.032 -0.004,0.013 -0.007,0.031 -0.007,0.052l-0.126 0c0.004,-0.056 0.015,-0.099 0.034,-0.129 0.018,-0.03 0.047,-0.051 0.084,-0.063 0.038,-0.012 0.089,-0.018 0.155,-0.018 0.091,0 0.158,0.014 0.201,0.043 0.044,0.029 0.066,0.073 0.066,0.134 0,0.049 -0.007,0.085 -0.021,0.109 -0.014,0.024 -0.04,0.042 -0.076,0.053l0 0.004c0.03,0.008 0.053,0.019 0.07,0.032 0.017,0.013 0.028,0.029 0.035,0.05 0.007,0.02 0.01,0.046 0.01,0.076 0,0.049 -0.008,0.087 -0.025,0.117 -0.017,0.03 -0.046,0.051 -0.087,0.066 -0.041,0.014 -0.099,0.022 -0.174,0.022 -0.047,0 -0.087,-0.003 -0.12,-0.008 -0.034,-0.005 -0.062,-0.015 -0.085,-0.029 -0.023,-0.014 -0.041,-0.035 -0.054,-0.061 -0.012,-0.026 -0.018,-0.06 -0.018,-0.102l0 -0.029 0.124 0c0.001,0.035 0.004,0.061 0.01,0.077 0.006,0.016 0.019,0.028 0.04,0.036 0.021,0.008 0.056,0.012 0.103,0.012 0.041,0 0.074,-0.003 0.097,-0.009 0.023,-0.006 0.039,-0.016 0.049,-0.031 0.01,-0.014 0.015,-0.035 0.015,-0.061 0,-0.037 -0.01,-0.064 -0.028,-0.08 -0.019,-0.016 -0.048,-0.024 -0.088,-0.024l-0.128 0 0 -0.099z"/>
  <path id="1" class="fil0" d="M1.918 7.019c0,-0.064 0.007,-0.113 0.02,-0.149 0.014,-0.035 0.037,-0.061 0.069,-0.076 0.033,-0.015 0.079,-0.023 0.138,-0.023 0.059,0 0.105,0.008 0.138,0.023 0.033,0.015 0.056,0.041 0.07,0.076 0.014,0.035 0.021,0.085 0.021,0.148 0,0.047 -0.004,0.086 -0.012,0.118 -0.008,0.032 -0.02,0.057 -0.038,0.077 -0.017,0.019 -0.041,0.033 -0.07,0.042 -0.029,0.009 -0.066,0.013 -0.111,0.014 -0.044,0 -0.081,-0.004 -0.11,-0.014 -0.029,-0.009 -0.053,-0.023 -0.07,-0.043 -0.017,-0.02 -0.029,-0.045 -0.037,-0.076 -0.008,-0.031 -0.011,-0.071 -0.011,-0.118zm0.118 0c0,0.045 0.003,0.079 0.01,0.102 0.007,0.023 0.018,0.038 0.033,0.047 0.015,0.008 0.038,0.013 0.067,0.013 0.029,0 0.051,-0.004 0.067,-0.012 0.016,-0.008 0.027,-0.024 0.034,-0.047 0.007,-0.023 0.01,-0.057 0.01,-0.102 0,-0.034 -0.002,-0.061 -0.006,-0.081 -0.004,-0.02 -0.01,-0.036 -0.018,-0.047 -0.008,-0.011 -0.019,-0.019 -0.033,-0.023 -0.014,-0.004 -0.032,-0.007 -0.054,-0.007 -0.029,0 -0.051,0.004 -0.067,0.012 -0.015,0.008 -0.026,0.023 -0.033,0.046 -0.007,0.023 -0.01,0.056 -0.01,0.1z"/>
  <path id="2" class="fil0" d="M2.454 7.019c0,-0.064 0.007,-0.113 0.02,-0.149 0.014,-0.035 0.037,-0.061 0.069,-0.076 0.033,-0.015 0.079,-0.023 0.138,-0.023 0.059,0 0.105,0.008 0.138,0.023 0.033,0.015 0.056,0.041 0.07,0.076 0.014,0.035 0.021,0.085 0.021,0.148 0,0.047 -0.004,0.086 -0.012,0.118 -0.008,0.032 -0.02,0.057 -0.038,0.077 -0.017,0.019 -0.041,0.033 -0.07,0.042 -0.029,0.009 -0.066,0.013 -0.111,0.014 -0.044,0 -0.081,-0.004 -0.11,-0.014 -0.029,-0.009 -0.053,-0.023 -0.07,-0.043 -0.017,-0.02 -0.029,-0.045 -0.037,-0.076 -0.008,-0.031 -0.011,-0.071 -0.011,-0.118zm0.118 0c0,0.045 0.003,0.079 0.01,0.102 0.007,0.023 0.018,0.038 0.033,0.047 0.015,0.008 0.038,0.013 0.067,0.013 0.029,0 0.051,-0.004 0.067,-0.012 0.016,-0.008 0.027,-0.024 0.034,-0.047 0.007,-0.023 0.01,-0.057 0.01,-0.102 0,-0.034 -0.002,-0.061 -0.006,-0.081 -0.004,-0.02 -0.01,-0.036 -0.018,-0.047 -0.008,-0.011 -0.019,-0.019 -0.033,-0.023 -0.014,-0.004 -0.032,-0.007 -0.054,-0.007 -0.029,0 -0.051,0.004 -0.067,0.012 -0.015,0.008 -0.026,0.023 -0.033,0.046 -0.007,0.023 -0.01,0.056 -0.01,0.1z"/>
  <polygon id="3" class="fil0" points="3.129,7.262 3.244,7.262 3.244,6.868 3.399,6.868 3.399,6.779 2.974,6.779 2.974,6.868 3.129,6.868 "/>
  <path id="4" class="fil0" d="M3.789 7.109l0.114 0 0 0.018c0,0.039 -0.009,0.069 -0.027,0.09 -0.018,0.021 -0.043,0.035 -0.074,0.043 -0.032,0.007 -0.072,0.011 -0.122,0.011 -0.056,0 -0.1,-0.008 -0.132,-0.023 -0.032,-0.015 -0.054,-0.041 -0.068,-0.077 -0.014,-0.036 -0.021,-0.085 -0.021,-0.148 0,-0.062 0.007,-0.111 0.021,-0.148 0.014,-0.036 0.037,-0.063 0.069,-0.079 0.032,-0.016 0.076,-0.024 0.131,-0.024 0.055,0 0.099,0.008 0.131,0.025 0.033,0.017 0.056,0.042 0.07,0.077 0.014,0.035 0.021,0.081 0.021,0.138l0 0.034 -0.328 0c0,0.039 0.003,0.068 0.009,0.088 0.006,0.02 0.017,0.034 0.031,0.041 0.015,0.008 0.036,0.012 0.065,0.012 0.026,0 0.047,-0.002 0.063,-0.006 0.015,-0.004 0.027,-0.011 0.034,-0.02 0.007,-0.01 0.011,-0.024 0.011,-0.042l0 -0.009zm0.002 -0.139c0,-0.029 -0.003,-0.051 -0.01,-0.068 -0.007,-0.016 -0.018,-0.028 -0.034,-0.035 -0.016,-0.007 -0.037,-0.011 -0.065,-0.011 -0.027,0 -0.048,0.004 -0.063,0.01 -0.015,0.007 -0.026,0.019 -0.033,0.035 -0.007,0.016 -0.01,0.039 -0.01,0.068l0.215 0z"/>
  <polygon id="5" class="fil0" points="4.413,6.779 4.272,7.007 4.428,7.262 4.292,7.262 4.194,7.084 4.098,7.262 3.959,7.262 4.118,7.007 3.977,6.779 4.11,6.779 4.194,6.934 4.278,6.779 "/>
  <polygon id="6" class="fil0" points="4.615,7.052 4.818,7.052 4.818,7.262 4.934,7.262 4.934,6.779 4.818,6.779 4.818,6.962 4.615,6.962 4.615,6.779 4.499,6.779 4.499,7.262 4.615,7.262 "/>
  <path id="7" class="fil0" d="M5.057 6.779l0 0.483 0.141 0 0.158 -0.301c0.008,-0.014 0.025,-0.05 0.053,-0.108 -0.005,0.013 -0.01,0.035 -0.015,0.067 -0.005,0.032 -0.008,0.057 -0.008,0.076l0 0.267 0.11 0 0 -0.483 -0.141 0 -0.158 0.303c-0.01,0.019 -0.028,0.056 -0.053,0.109 0.005,-0.013 0.01,-0.034 0.015,-0.06 0.005,-0.027 0.008,-0.05 0.008,-0.071l0 -0.281 -0.11 0z"/>
  <polygon id="8" class="fil0" points="5.728,6.779 5.728,6.966 5.755,6.966 5.891,6.779 6.023,6.779 5.85,7.006 6.056,7.262 5.917,7.262 5.755,7.045 5.728,7.045 5.728,7.262 5.612,7.262 5.612,6.779 "/>
  <g id="_2335732738192">
   <rect class="fil1" x="0" y="6.5" width="0.817" height="0.817" rx="0.163" ry="0.155"/>
   <g>
    <path class="fil2" d="M0.353 6.609c0,0.038 0.006,0.053 -0.008,0.063 -0.013,-0.009 -0.008,-0.002 -0.008,-0.047 -0.034,0.008 -0.058,0.058 -0.065,0.092 -0.004,0.017 0.001,0.009 -0.007,0.021 -0.005,0.007 -0.011,0.006 -0.011,0.017 0,0.055 0.194,0.054 0.257,0.037 0.02,-0.005 0.068,-0.023 0.047,-0.046 -0.029,-0.032 -0.004,-0.017 -0.026,-0.064 -0.009,-0.02 -0.029,-0.051 -0.05,-0.056 0,0.023 0,0.029 -0.004,0.047l-0.012 0c-0.005,-0.021 -0.004,-0.037 -0.004,-0.063 -0.053,-0.014 -0.079,-0.007 -0.11,0z"/>
    <path class="fil2" d="M0.271 6.833c0,0.041 0.024,0.061 0.046,0.107 0.03,0.064 0.131,0.116 0.194,-0.021 0.015,-0.033 0.035,-0.028 0.035,-0.094 0,-0.043 -0.027,-0.008 -0.11,-0.008 -0.088,0 -0.069,0.004 -0.154,-0.016 -0.006,0.009 -0.012,0.017 -0.012,0.032z"/>
    <path class="fil2" d="M0.231 7.207c0.034,0 0.06,0.008 0.098,0.008l0.161 0c0.04,0 0.066,-0.008 0.102,-0.008l0 -0.071 -0.362 0 0 0.071z"/>
    <path class="fil2" d="M0.29 6.971l0 0.126 0.24 0 0 -0.126 -0.027 -0.008c-0.034,0.051 -0.092,0.074 -0.151,0.037 -0.019,-0.012 -0.026,-0.025 -0.042,-0.036 -0.008,0.004 -0.009,0.005 -0.02,0.008z"/>
    <path class="fil2" d="M0.125 7.164c0,0.019 0.018,0.021 0.039,0.028 0.075,0.025 -0.031,-0.085 0.087,-0.095l0 -0.106c-0.065,0.005 -0.126,0.092 -0.126,0.173z"/>
    <path class="fil2" d="M0.566 7.003l0 0.094c0.075,0 0.067,0.04 0.067,0.098 0.022,-0.001 0.039,-0.011 0.059,-0.016l0 -0.022c-0,-0.019 -0.001,-0.03 -0.007,-0.049 -0.021,-0.066 -0.042,-0.082 -0.095,-0.11 -0.008,-0.004 -0.024,-0.015 -0.024,0.004z"/>
   </g>
  </g>
 </g>
</svg>
