<?xml version="1.0" encoding="UTF-8"?>
<!DOCTYPE svg PUBLIC "-//W3C//DTD SVG 1.1//EN" "http://www.w3.org/Graphics/SVG/1.1/DTD/svg11.dtd">
<!-- Creator: CorelDRAW 2019 (64-Bit) -->
<svg xmlns="http://www.w3.org/2000/svg" xml:space="preserve" width="4.96257cm" height="6.17506cm" version="1.1" style="shape-rendering:geometricPrecision; text-rendering:geometricPrecision; image-rendering:optimizeQuality; fill-rule:evenodd; clip-rule:evenodd"
viewBox="0 0 28.267 35.174"
 xmlns:xlink="http://www.w3.org/1999/xlink"
 xmlns:xodm="http://www.corel.com/coreldraw/odm/2003">
 <defs>
  <style type="text/css">
   <![CDATA[
    .fil0 {fill:#29878C}
    .fil2 {fill:#2C9196}
    .fil1 {fill:#39BBC2}
    .fil3 {fill:#1D6163;fill-rule:nonzero}
   ]]>
  </style>
 </defs>
 <g id="Слой_x0020_1">
  <metadata id="CorelCorpID_0Corel-Layer"/>
  <polygon class="fil0" points="0,0.153 28.042,0.153 28.042,35.174 0,35.174 "/>
  <polygon class="fil1" points="0.225,0 28.267,0 28.042,0.153 -0,0.153 "/>
  <polygon class="fil2" points="28.267,0 28.267,35.003 28.042,35.174 28.042,0.153 "/>
  <polygon class="fil3" points="5.346,34.007 5.346,34.609 5.231,34.609 5.231,34.106 4.95,34.106 4.95,34.609 4.834,34.609 4.834,34.007 "/>
  <path id="1" class="fil3" d="M5.444 34.296c0,-0.06 0.004,-0.108 0.012,-0.145 0.008,-0.037 0.021,-0.067 0.04,-0.089 0.019,-0.022 0.045,-0.037 0.077,-0.047 0.033,-0.009 0.075,-0.014 0.128,-0.014 0.052,0 0.095,0.005 0.128,0.014 0.033,0.01 0.058,0.025 0.078,0.047 0.019,0.022 0.033,0.051 0.041,0.089 0.008,0.037 0.012,0.086 0.012,0.145 0,0.068 -0.004,0.123 -0.012,0.164 -0.008,0.041 -0.022,0.073 -0.041,0.096 -0.019,0.023 -0.045,0.039 -0.077,0.048 -0.032,0.009 -0.075,0.013 -0.128,0.013 -0.056,0 -0.101,-0.004 -0.134,-0.013 -0.033,-0.009 -0.058,-0.024 -0.076,-0.047 -0.018,-0.023 -0.03,-0.054 -0.037,-0.095 -0.007,-0.041 -0.01,-0.096 -0.01,-0.166zm0.117 0.013c0,0.05 0.002,0.089 0.005,0.115 0.003,0.027 0.01,0.047 0.019,0.061 0.01,0.014 0.023,0.023 0.04,0.027 0.018,0.004 0.042,0.007 0.075,0.007 0.032,0 0.057,-0.002 0.075,-0.007 0.018,-0.005 0.031,-0.014 0.041,-0.028 0.01,-0.014 0.016,-0.034 0.02,-0.06 0.004,-0.026 0.005,-0.064 0.005,-0.114 0,-0.05 -0.002,-0.089 -0.006,-0.116 -0.004,-0.027 -0.011,-0.048 -0.021,-0.061 -0.01,-0.013 -0.023,-0.022 -0.04,-0.026 -0.017,-0.004 -0.042,-0.006 -0.075,-0.006 -0.034,0 -0.059,0.002 -0.076,0.006 -0.017,0.004 -0.03,0.013 -0.039,0.026 -0.009,0.013 -0.016,0.033 -0.019,0.06 -0.003,0.027 -0.005,0.066 -0.005,0.117z"/>
  <path id="2" class="fil3" d="M6.642 34.394l0.113 0 0 0.035c0,0.047 -0.008,0.083 -0.024,0.11 -0.016,0.027 -0.042,0.046 -0.078,0.058 -0.036,0.012 -0.085,0.018 -0.147,0.018 -0.051,0 -0.093,-0.005 -0.125,-0.014 -0.032,-0.01 -0.058,-0.026 -0.077,-0.049 -0.019,-0.023 -0.032,-0.055 -0.04,-0.096 -0.008,-0.04 -0.012,-0.093 -0.012,-0.159 0,-0.072 0.007,-0.129 0.022,-0.172 0.014,-0.042 0.04,-0.074 0.076,-0.094 0.036,-0.02 0.087,-0.031 0.152,-0.031 0.065,0 0.115,0.008 0.15,0.022 0.035,0.015 0.059,0.037 0.074,0.067 0.014,0.03 0.023,0.069 0.026,0.119l-0.112 0c-0.002,-0.032 -0.007,-0.055 -0.015,-0.07 -0.008,-0.015 -0.021,-0.025 -0.04,-0.03 -0.019,-0.005 -0.046,-0.008 -0.083,-0.008 -0.038,0 -0.066,0.005 -0.084,0.015 -0.018,0.01 -0.03,0.029 -0.037,0.058 -0.007,0.029 -0.01,0.074 -0.01,0.136 0,0.044 0.002,0.079 0.006,0.106 0.004,0.027 0.011,0.048 0.021,0.063 0.01,0.015 0.023,0.025 0.04,0.031 0.017,0.006 0.039,0.009 0.068,0.009 0.036,0 0.064,-0.002 0.083,-0.007 0.02,-0.005 0.033,-0.013 0.042,-0.026 0.008,-0.012 0.012,-0.03 0.012,-0.052l0 -0.038z"/>
  <path id="3" class="fil3" d="M6.818 34.296c0,-0.06 0.004,-0.108 0.012,-0.145 0.008,-0.037 0.021,-0.067 0.04,-0.089 0.019,-0.022 0.045,-0.037 0.077,-0.047 0.033,-0.009 0.075,-0.014 0.128,-0.014 0.052,0 0.095,0.005 0.128,0.014 0.033,0.01 0.058,0.025 0.078,0.047 0.019,0.022 0.033,0.051 0.041,0.089 0.008,0.037 0.012,0.086 0.012,0.145 0,0.068 -0.004,0.123 -0.012,0.164 -0.008,0.041 -0.022,0.073 -0.041,0.096 -0.019,0.023 -0.045,0.039 -0.077,0.048 -0.032,0.009 -0.075,0.013 -0.128,0.013 -0.056,0 -0.101,-0.004 -0.134,-0.013 -0.033,-0.009 -0.058,-0.024 -0.076,-0.047 -0.018,-0.023 -0.03,-0.054 -0.037,-0.095 -0.007,-0.041 -0.01,-0.096 -0.01,-0.166zm0.117 0.013c0,0.05 0.002,0.089 0.005,0.115 0.003,0.027 0.01,0.047 0.019,0.061 0.01,0.014 0.023,0.023 0.04,0.027 0.018,0.004 0.042,0.007 0.075,0.007 0.032,0 0.057,-0.002 0.075,-0.007 0.018,-0.005 0.031,-0.014 0.041,-0.028 0.01,-0.014 0.016,-0.034 0.02,-0.06 0.004,-0.026 0.005,-0.064 0.005,-0.114 0,-0.05 -0.002,-0.089 -0.006,-0.116 -0.004,-0.027 -0.011,-0.048 -0.021,-0.061 -0.01,-0.013 -0.023,-0.022 -0.04,-0.026 -0.017,-0.004 -0.042,-0.006 -0.075,-0.006 -0.034,0 -0.059,0.002 -0.076,0.006 -0.017,0.004 -0.03,0.013 -0.039,0.026 -0.009,0.013 -0.016,0.033 -0.019,0.06 -0.003,0.027 -0.005,0.066 -0.005,0.117z"/>
  <path id="4" class="fil3" d="M7.802 34.394l0.113 0 0 0.035c0,0.047 -0.008,0.083 -0.024,0.11 -0.016,0.027 -0.042,0.046 -0.078,0.058 -0.036,0.012 -0.085,0.018 -0.147,0.018 -0.051,0 -0.093,-0.005 -0.125,-0.014 -0.032,-0.01 -0.058,-0.026 -0.077,-0.049 -0.019,-0.023 -0.032,-0.055 -0.04,-0.096 -0.008,-0.04 -0.012,-0.093 -0.012,-0.159 0,-0.072 0.007,-0.129 0.022,-0.172 0.014,-0.042 0.04,-0.074 0.076,-0.094 0.036,-0.02 0.087,-0.031 0.152,-0.031 0.065,0 0.115,0.008 0.15,0.022 0.035,0.015 0.059,0.037 0.074,0.067 0.014,0.03 0.023,0.069 0.026,0.119l-0.112 0c-0.002,-0.032 -0.007,-0.055 -0.015,-0.07 -0.008,-0.015 -0.021,-0.025 -0.04,-0.03 -0.019,-0.005 -0.046,-0.008 -0.083,-0.008 -0.038,0 -0.066,0.005 -0.084,0.015 -0.018,0.01 -0.03,0.029 -0.037,0.058 -0.007,0.029 -0.01,0.074 -0.01,0.136 0,0.044 0.002,0.079 0.006,0.106 0.004,0.027 0.011,0.048 0.021,0.063 0.01,0.015 0.023,0.025 0.04,0.031 0.017,0.006 0.039,0.009 0.068,0.009 0.036,0 0.064,-0.002 0.083,-0.007 0.02,-0.005 0.033,-0.013 0.042,-0.026 0.008,-0.012 0.012,-0.03 0.012,-0.052l0 -0.038z"/>
  <polygon id="5" class="fil3" points="8.127,34.609 8.127,34.107 7.953,34.107 7.953,34.007 8.422,34.007 8.422,34.107 8.244,34.107 8.244,34.609 "/>
  <path id="6" class="fil3" d="M8.488 34.296c0,-0.06 0.004,-0.108 0.012,-0.145 0.008,-0.037 0.021,-0.067 0.04,-0.089 0.019,-0.022 0.045,-0.037 0.077,-0.047 0.033,-0.009 0.075,-0.014 0.128,-0.014 0.052,0 0.095,0.005 0.128,0.014 0.033,0.01 0.058,0.025 0.078,0.047 0.019,0.022 0.033,0.051 0.041,0.089 0.008,0.037 0.012,0.086 0.012,0.145 0,0.068 -0.004,0.123 -0.012,0.164 -0.008,0.041 -0.022,0.073 -0.041,0.096 -0.019,0.023 -0.045,0.039 -0.077,0.048 -0.032,0.009 -0.075,0.013 -0.128,0.013 -0.056,0 -0.101,-0.004 -0.134,-0.013 -0.033,-0.009 -0.058,-0.024 -0.076,-0.047 -0.018,-0.023 -0.03,-0.054 -0.037,-0.095 -0.007,-0.041 -0.01,-0.096 -0.01,-0.166zm0.117 0.013c0,0.05 0.002,0.089 0.005,0.115 0.003,0.027 0.01,0.047 0.019,0.061 0.01,0.014 0.023,0.023 0.04,0.027 0.018,0.004 0.042,0.007 0.075,0.007 0.032,0 0.057,-0.002 0.075,-0.007 0.018,-0.005 0.031,-0.014 0.041,-0.028 0.01,-0.014 0.016,-0.034 0.02,-0.06 0.004,-0.026 0.005,-0.064 0.005,-0.114 0,-0.05 -0.002,-0.089 -0.006,-0.116 -0.004,-0.027 -0.011,-0.048 -0.021,-0.061 -0.01,-0.013 -0.023,-0.022 -0.04,-0.026 -0.017,-0.004 -0.042,-0.006 -0.075,-0.006 -0.034,0 -0.059,0.002 -0.076,0.006 -0.017,0.004 -0.03,0.013 -0.039,0.026 -0.009,0.013 -0.016,0.033 -0.019,0.06 -0.003,0.027 -0.005,0.066 -0.005,0.117z"/>
  <path id="7" class="fil3" d="M9.565 34.609l0 -0.602 -0.305 0c-0.063,0 -0.109,0.017 -0.139,0.051 -0.03,0.034 -0.044,0.082 -0.044,0.144 0,0.051 0.01,0.09 0.03,0.116 0.02,0.027 0.048,0.048 0.086,0.064l-0.132 0.227 0.132 0 0.118 -0.212 0.14 0 0 0.212 0.114 0zm-0.114 -0.305l-0.167 0c-0.022,0 -0.039,-0.003 -0.052,-0.009 -0.013,-0.006 -0.023,-0.016 -0.029,-0.031 -0.006,-0.015 -0.01,-0.035 -0.01,-0.061 0,-0.036 0.007,-0.061 0.021,-0.076 0.014,-0.014 0.037,-0.022 0.07,-0.022l0.167 -0.001 0 0.199z"/>
  <polygon id="8" class="fil3" points="10.182,34.007 10.182,34.609 10.066,34.609 10.066,34.352 9.785,34.352 9.785,34.609 9.67,34.609 9.67,34.007 9.785,34.007 9.785,34.254 10.066,34.254 10.066,34.007 "/>
  <path id="9" class="fil3" d="M10.814 34.007l-0.166 0 -0.205 0.404c-0.007,0.014 -0.013,0.026 -0.018,0.036 -0.005,0.01 -0.016,0.031 -0.032,0.063 0.006,-0.029 0.009,-0.065 0.009,-0.107l0 -0.395 -0.116 0 0 0.602 0.166 0 0.205 -0.405c0.007,-0.014 0.014,-0.027 0.02,-0.039 0.006,-0.012 0.016,-0.032 0.03,-0.06 -0.006,0.029 -0.009,0.065 -0.009,0.107l0 0.397 0.116 0 0 -0.602z"/>
  <path id="10" class="fil3" d="M11.039 34.254l0.132 0c0.003,-0.05 0.009,-0.091 0.017,-0.123 0.008,-0.031 0.022,-0.057 0.04,-0.076 0.018,-0.019 0.043,-0.033 0.075,-0.042 0.032,-0.009 0.074,-0.013 0.125,-0.013 0.052,0 0.095,0.005 0.128,0.014 0.033,0.009 0.059,0.024 0.078,0.046 0.019,0.022 0.033,0.051 0.041,0.089 0.008,0.038 0.012,0.086 0.012,0.147 0,0.068 -0.004,0.123 -0.012,0.164 -0.008,0.041 -0.022,0.073 -0.041,0.096 -0.019,0.023 -0.045,0.038 -0.077,0.047 -0.032,0.009 -0.075,0.013 -0.128,0.013 -0.053,-0 -0.094,-0.004 -0.126,-0.011 -0.031,-0.007 -0.056,-0.02 -0.074,-0.038 -0.018,-0.019 -0.032,-0.044 -0.04,-0.078 -0.009,-0.033 -0.014,-0.079 -0.017,-0.138l-0.132 0 0 0.257 -0.116 0 0 -0.602 0.116 0 0 0.247zm0.249 0.055c0,0.05 0.002,0.088 0.005,0.115 0.004,0.027 0.01,0.048 0.02,0.061 0.01,0.013 0.023,0.022 0.04,0.026 0.017,0.004 0.042,0.006 0.074,0.006 0.033,-0 0.058,-0.003 0.075,-0.007 0.017,-0.004 0.031,-0.013 0.04,-0.027 0.01,-0.013 0.017,-0.034 0.02,-0.06 0.004,-0.027 0.005,-0.065 0.005,-0.115 0,-0.05 -0.002,-0.089 -0.005,-0.116 -0.004,-0.027 -0.01,-0.047 -0.02,-0.06 -0.01,-0.013 -0.023,-0.022 -0.04,-0.026 -0.017,-0.004 -0.042,-0.006 -0.075,-0.007 -0.033,0 -0.058,0.002 -0.075,0.006 -0.017,0.004 -0.03,0.013 -0.04,0.026 -0.01,0.013 -0.016,0.034 -0.02,0.061 -0.004,0.027 -0.005,0.066 -0.005,0.115z"/>
  <polygon id="11" class="fil3" points="12.506,34.007 12.506,34.609 12.391,34.609 12.391,34.352 12.11,34.352 12.11,34.609 11.994,34.609 11.994,34.007 12.11,34.007 12.11,34.254 12.391,34.254 12.391,34.007 "/>
  <path id="12" class="fil3" d="M12.991 34.494l-0.261 0 -0.038 0.115 -0.12 0 0.2 -0.602 0.17 0 0.204 0.602 -0.117 0 -0.038 -0.115zm-0.027 -0.086l-0.104 -0.313 -0.103 0.313 0.207 0z"/>
  <polygon id="13" class="fil3" points="13.772,34.008 13.772,34.609 13.662,34.609 13.662,34.104 13.506,34.259 13.439,34.189 13.633,34.008 "/>
  <path id="14" class="fil3" d="M14.431 34.006l0 0.087 -0.32 0 0 0.149c0.015,-0.02 0.034,-0.033 0.057,-0.039 0.023,-0.006 0.051,-0.009 0.084,-0.009 0.036,0 0.067,0.004 0.093,0.012 0.026,0.008 0.047,0.019 0.063,0.035 0.016,0.016 0.029,0.035 0.037,0.06 0.008,0.025 0.012,0.054 0.012,0.089 0,0.043 -0.003,0.078 -0.009,0.105 -0.006,0.027 -0.017,0.05 -0.033,0.068 -0.016,0.018 -0.039,0.031 -0.069,0.04 -0.03,0.009 -0.07,0.013 -0.12,0.013 -0.043,0 -0.079,-0.003 -0.108,-0.009 -0.029,-0.006 -0.052,-0.015 -0.07,-0.029 -0.018,-0.014 -0.032,-0.032 -0.04,-0.055 -0.009,-0.024 -0.013,-0.053 -0.013,-0.089l0.112 0c0,0.025 0.004,0.044 0.012,0.057 0.008,0.013 0.019,0.022 0.034,0.026 0.015,0.004 0.035,0.007 0.061,0.007 0.038,0 0.066,-0.003 0.084,-0.01 0.018,-0.007 0.031,-0.018 0.037,-0.034 0.006,-0.016 0.01,-0.041 0.01,-0.075 0,-0.032 -0.003,-0.056 -0.008,-0.073 -0.006,-0.017 -0.016,-0.029 -0.03,-0.036 -0.014,-0.007 -0.035,-0.011 -0.062,-0.011l-0.04 0c-0.025,0 -0.046,0.002 -0.062,0.007 -0.016,0.005 -0.026,0.016 -0.031,0.035l-0.101 0 0 -0.321 0.421 0z"/>
  <path id="15" class="fil3" d="M15.243 34.609l0 -0.602 -0.305 0c-0.063,0 -0.109,0.017 -0.139,0.051 -0.03,0.034 -0.044,0.082 -0.044,0.144 0,0.051 0.01,0.09 0.03,0.116 0.02,0.027 0.048,0.048 0.086,0.064l-0.132 0.227 0.132 0 0.118 -0.212 0.14 0 0 0.212 0.114 0zm-0.114 -0.305l-0.167 0c-0.022,0 -0.039,-0.003 -0.052,-0.009 -0.013,-0.006 -0.023,-0.016 -0.029,-0.031 -0.006,-0.015 -0.01,-0.035 -0.01,-0.061 0,-0.036 0.007,-0.061 0.021,-0.076 0.014,-0.014 0.037,-0.022 0.07,-0.022l0.167 -0.001 0 0.199z"/>
  <polygon id="16" class="fil3" points="15.861,34.007 15.861,34.609 15.745,34.609 15.745,34.352 15.464,34.352 15.464,34.609 15.349,34.609 15.349,34.007 15.464,34.007 15.464,34.254 15.745,34.254 15.745,34.007 "/>
  <path id="17" class="fil3" d="M16.081 34.103l0 0.156 0.146 0c0.026,0 0.046,-0.002 0.06,-0.006 0.014,-0.004 0.024,-0.012 0.031,-0.024 0.006,-0.012 0.01,-0.03 0.01,-0.054 0,-0.028 -0.006,-0.047 -0.019,-0.057 -0.012,-0.01 -0.033,-0.015 -0.062,-0.015l-0.166 0zm0 0.242l0 0.169 0.146 0c0.04,0 0.069,-0.006 0.087,-0.019 0.018,-0.013 0.027,-0.035 0.027,-0.067 0,-0.021 -0.003,-0.038 -0.009,-0.05 -0.006,-0.012 -0.016,-0.021 -0.029,-0.025 -0.013,-0.005 -0.032,-0.007 -0.055,-0.007l-0.167 0zm-0.114 0.264l0 -0.602 0.309 0c0.037,0 0.067,0.005 0.092,0.016 0.025,0.011 0.044,0.027 0.057,0.05 0.013,0.022 0.019,0.051 0.019,0.086 0,0.076 -0.029,0.123 -0.086,0.138l0 0.004c0.032,0.005 0.057,0.019 0.074,0.043 0.017,0.023 0.026,0.055 0.026,0.093 0,0.027 -0.003,0.051 -0.01,0.072 -0.007,0.021 -0.018,0.04 -0.032,0.055 -0.014,0.015 -0.032,0.027 -0.054,0.034 -0.021,0.008 -0.047,0.012 -0.076,0.012l-0.318 0z"/>
  <path id="18" class="fil3" d="M16.92 34.494l-0.261 0 -0.038 0.115 -0.12 0 0.2 -0.602 0.17 0 0.204 0.602 -0.117 0 -0.038 -0.115zm-0.027 -0.086l-0.104 -0.313 -0.103 0.313 0.207 0z"/>
  <path id="19" class="fil3" d="M17.141 34.609l0 -0.602 0.256 0c0.053,0 0.095,0.005 0.127,0.016 0.032,0.011 0.057,0.03 0.073,0.059 0.016,0.029 0.025,0.07 0.025,0.123 0,0.041 -0.004,0.075 -0.011,0.102 -0.008,0.027 -0.02,0.048 -0.036,0.063 -0.017,0.015 -0.038,0.026 -0.065,0.032 -0.027,0.006 -0.061,0.009 -0.102,0.009l-0.151 0 0 0.198 -0.116 0zm0.116 -0.294l0.142 0c0.027,0 0.048,-0.003 0.063,-0.008 0.015,-0.006 0.026,-0.016 0.033,-0.03 0.007,-0.014 0.01,-0.035 0.01,-0.061 0,-0.029 -0.003,-0.052 -0.01,-0.068 -0.007,-0.016 -0.018,-0.027 -0.033,-0.033 -0.015,-0.007 -0.036,-0.01 -0.063,-0.01l-0.142 0 0 0.211z"/>
  <path id="20" class="fil3" d="M18.176 34.609l0 -0.602 -0.305 0c-0.063,0 -0.109,0.017 -0.139,0.051 -0.03,0.034 -0.044,0.082 -0.044,0.144 0,0.051 0.01,0.09 0.03,0.116 0.02,0.027 0.048,0.048 0.086,0.064l-0.132 0.227 0.132 0 0.118 -0.212 0.14 0 0 0.212 0.114 0zm-0.114 -0.305l-0.167 0c-0.022,0 -0.039,-0.003 -0.052,-0.009 -0.013,-0.006 -0.023,-0.016 -0.029,-0.031 -0.006,-0.015 -0.01,-0.035 -0.01,-0.061 0,-0.036 0.007,-0.061 0.021,-0.076 0.014,-0.014 0.037,-0.022 0.07,-0.022l0.167 -0.001 0 0.199z"/>
  <path id="21" class="fil3" d="M18.943 34.518l0 0.091 -0.455 0 0 -0.124c0,-0.036 0.004,-0.065 0.013,-0.086 0.009,-0.022 0.021,-0.038 0.037,-0.049 0.016,-0.011 0.035,-0.02 0.057,-0.025 0.022,-0.005 0.052,-0.012 0.09,-0.018 0.041,-0.006 0.07,-0.011 0.089,-0.016 0.018,-0.005 0.033,-0.015 0.043,-0.03 0.01,-0.015 0.015,-0.037 0.015,-0.068 0,-0.03 -0.004,-0.052 -0.011,-0.067 -0.007,-0.015 -0.019,-0.024 -0.035,-0.029 -0.016,-0.005 -0.039,-0.007 -0.07,-0.007 -0.034,0 -0.06,0.003 -0.076,0.008 -0.016,0.005 -0.028,0.015 -0.034,0.031 -0.007,0.016 -0.01,0.04 -0.01,0.074l0 0.019 -0.109 0 0 -0.026c0,-0.053 0.007,-0.094 0.021,-0.121 0.014,-0.028 0.037,-0.047 0.069,-0.058 0.032,-0.011 0.078,-0.016 0.138,-0.016 0.04,0 0.073,0.003 0.1,0.008 0.027,0.005 0.05,0.014 0.069,0.028 0.019,0.014 0.033,0.033 0.043,0.059 0.01,0.025 0.015,0.058 0.015,0.098 0,0.043 -0.006,0.078 -0.019,0.103 -0.012,0.026 -0.03,0.045 -0.052,0.058 -0.022,0.013 -0.044,0.022 -0.066,0.027 -0.022,0.005 -0.062,0.012 -0.119,0.022 -0.028,0.005 -0.048,0.01 -0.06,0.017 -0.012,0.007 -0.021,0.016 -0.025,0.028 -0.004,0.012 -0.006,0.03 -0.006,0.055l0 0.016 0.347 0z"/>
  <path id="22" class="fil3" d="M19.548 34.308c0,0.068 -0.003,0.121 -0.009,0.159 -0.006,0.038 -0.018,0.068 -0.035,0.09 -0.017,0.022 -0.042,0.037 -0.075,0.045 -0.033,0.008 -0.078,0.013 -0.136,0.013 -0.057,0 -0.102,-0.004 -0.135,-0.013 -0.032,-0.009 -0.057,-0.024 -0.074,-0.045 -0.017,-0.022 -0.028,-0.051 -0.034,-0.089 -0.006,-0.038 -0.009,-0.091 -0.009,-0.16 0,-0.068 0.003,-0.121 0.009,-0.16 0.006,-0.038 0.017,-0.068 0.034,-0.09 0.017,-0.022 0.042,-0.037 0.074,-0.045 0.032,-0.008 0.077,-0.013 0.135,-0.013 0.058,0 0.103,0.004 0.136,0.013 0.033,0.009 0.057,0.024 0.075,0.045 0.017,0.022 0.029,0.052 0.035,0.09 0.006,0.038 0.009,0.091 0.009,0.16zm-0.394 0c0,0.054 0.001,0.094 0.003,0.12 0.002,0.025 0.008,0.045 0.016,0.058 0.008,0.013 0.021,0.022 0.039,0.026 0.017,0.004 0.044,0.006 0.08,0.006 0.036,0 0.063,-0.002 0.081,-0.006 0.018,-0.004 0.031,-0.012 0.04,-0.025 0.009,-0.013 0.015,-0.033 0.018,-0.058 0.003,-0.026 0.004,-0.066 0.004,-0.119 0,-0.055 -0.001,-0.095 -0.004,-0.121 -0.002,-0.025 -0.008,-0.045 -0.017,-0.058 -0.009,-0.013 -0.022,-0.022 -0.039,-0.025 -0.018,-0.004 -0.045,-0.006 -0.082,-0.006 -0.036,0 -0.063,0.002 -0.081,0.006 -0.018,0.004 -0.031,0.013 -0.039,0.026 -0.009,0.014 -0.014,0.033 -0.016,0.058 -0.002,0.025 -0.003,0.065 -0.003,0.119z"/>
  <path id="23" class="fil3" d="M20.076 34.518l0 0.091 -0.455 0 0 -0.124c0,-0.036 0.004,-0.065 0.013,-0.086 0.009,-0.022 0.021,-0.038 0.037,-0.049 0.016,-0.011 0.035,-0.02 0.057,-0.025 0.022,-0.005 0.052,-0.012 0.09,-0.018 0.041,-0.006 0.07,-0.011 0.089,-0.016 0.018,-0.005 0.033,-0.015 0.043,-0.03 0.01,-0.015 0.015,-0.037 0.015,-0.068 0,-0.03 -0.004,-0.052 -0.011,-0.067 -0.007,-0.015 -0.019,-0.024 -0.035,-0.029 -0.016,-0.005 -0.039,-0.007 -0.07,-0.007 -0.034,0 -0.06,0.003 -0.076,0.008 -0.016,0.005 -0.028,0.015 -0.034,0.031 -0.007,0.016 -0.01,0.04 -0.01,0.074l0 0.019 -0.109 0 0 -0.026c0,-0.053 0.007,-0.094 0.021,-0.121 0.014,-0.028 0.037,-0.047 0.069,-0.058 0.032,-0.011 0.078,-0.016 0.138,-0.016 0.04,0 0.073,0.003 0.1,0.008 0.027,0.005 0.05,0.014 0.069,0.028 0.019,0.014 0.033,0.033 0.043,0.059 0.01,0.025 0.015,0.058 0.015,0.098 0,0.043 -0.006,0.078 -0.019,0.103 -0.012,0.026 -0.03,0.045 -0.052,0.058 -0.022,0.013 -0.044,0.022 -0.066,0.027 -0.022,0.005 -0.062,0.012 -0.119,0.022 -0.028,0.005 -0.048,0.01 -0.06,0.017 -0.012,0.007 -0.021,0.016 -0.025,0.028 -0.004,0.012 -0.006,0.03 -0.006,0.055l0 0.016 0.347 0z"/>
  <polygon id="24" class="fil3" points="20.539,34.008 20.539,34.609 20.428,34.609 20.428,34.104 20.272,34.259 20.206,34.189 20.399,34.008 "/>
  <polygon id="25" class="fil3" points="21.092,34.609 21.092,34.107 21.37,34.107 21.37,34.007 20.976,34.007 20.976,34.609 "/>
  <path id="26" class="fil3" d="M21.424 34.296c0,-0.06 0.004,-0.108 0.012,-0.145 0.008,-0.037 0.021,-0.067 0.04,-0.089 0.019,-0.022 0.045,-0.037 0.077,-0.047 0.033,-0.009 0.075,-0.014 0.128,-0.014 0.052,0 0.095,0.005 0.128,0.014 0.033,0.01 0.058,0.025 0.078,0.047 0.019,0.022 0.033,0.051 0.041,0.089 0.008,0.037 0.012,0.086 0.012,0.145 0,0.068 -0.004,0.123 -0.012,0.164 -0.008,0.041 -0.022,0.073 -0.041,0.096 -0.019,0.023 -0.045,0.039 -0.077,0.048 -0.032,0.009 -0.075,0.013 -0.128,0.013 -0.056,0 -0.101,-0.004 -0.134,-0.013 -0.033,-0.009 -0.058,-0.024 -0.076,-0.047 -0.018,-0.023 -0.03,-0.054 -0.037,-0.095 -0.007,-0.041 -0.01,-0.096 -0.01,-0.166zm0.117 0.013c0,0.05 0.002,0.089 0.005,0.115 0.003,0.027 0.01,0.047 0.019,0.061 0.01,0.014 0.023,0.023 0.04,0.027 0.018,0.004 0.042,0.007 0.075,0.007 0.032,0 0.057,-0.002 0.075,-0.007 0.018,-0.005 0.031,-0.014 0.041,-0.028 0.01,-0.014 0.016,-0.034 0.02,-0.06 0.004,-0.026 0.005,-0.064 0.005,-0.114 0,-0.05 -0.002,-0.089 -0.006,-0.116 -0.004,-0.027 -0.011,-0.048 -0.021,-0.061 -0.01,-0.013 -0.023,-0.022 -0.04,-0.026 -0.017,-0.004 -0.042,-0.006 -0.075,-0.006 -0.034,0 -0.059,0.002 -0.076,0.006 -0.017,0.004 -0.03,0.013 -0.039,0.026 -0.009,0.013 -0.016,0.033 -0.019,0.06 -0.003,0.027 -0.005,0.066 -0.005,0.117z"/>
  <path id="27" class="fil3" d="M22.043 34.51c0.012,-0.012 0.022,-0.026 0.03,-0.041 0.008,-0.015 0.014,-0.032 0.019,-0.052 0.005,-0.019 0.008,-0.042 0.01,-0.067 0.002,-0.026 0.003,-0.055 0.004,-0.089l0 -0.254 0.436 0 0 0.504 0.054 0 0 0.238 -0.108 0 0 -0.139 -0.382 0 0 0.139 -0.109 0 0 -0.238 0.046 0zm0.175 -0.405l0 0.155c0,0.043 -0.001,0.08 -0.005,0.111 -0.003,0.031 -0.009,0.058 -0.016,0.081 -0.008,0.023 -0.019,0.043 -0.032,0.059l0.26 0 0 -0.405 -0.207 0z"/>
  <path id="28" class="fil3" d="M23.052 34.494l-0.261 0 -0.038 0.115 -0.12 0 0.2 -0.602 0.17 0 0.204 0.602 -0.117 0 -0.038 -0.115zm-0.027 -0.086l-0.104 -0.313 -0.103 0.313 0.207 0z"/>
 </g>
</svg>
