<?xml version="1.0" encoding="UTF-8"?>
<!DOCTYPE svg PUBLIC "-//W3C//DTD SVG 1.1//EN" "http://www.w3.org/Graphics/SVG/1.1/DTD/svg11.dtd">
<!-- Creator: CorelDRAW 2019 (64-Bit) -->
<svg xmlns="http://www.w3.org/2000/svg" xml:space="preserve" width="8.19941cm" height="1.95228cm" version="1.1" style="shape-rendering:geometricPrecision; text-rendering:geometricPrecision; image-rendering:optimizeQuality; fill-rule:evenodd; clip-rule:evenodd"
viewBox="0 0 60.109 14.312"
 xmlns:xlink="http://www.w3.org/1999/xlink"
 xmlns:xodm="http://www.corel.com/coreldraw/odm/2003">
 <defs>
  <style type="text/css">
   <![CDATA[
    .fil5 {fill:#459125}
    .fil10 {fill:#4A8A2F}
    .fil3 {fill:#4B9E28}
    .fil7 {fill:#519633}
    .fil4 {fill:#56B32E}
    .fil8 {fill:#5DAD3B}
    .fil1 {fill:#5F9C45}
    .fil9 {fill:#67BF41}
    .fil2 {fill:#7ED15B}
    .fil0 {fill:#8FEB67}
    .fil6 {fill:white;fill-rule:nonzero}
   ]]>
  </style>
 </defs>
 <g id="Слой_x0020_1">
  <metadata id="CorelCorpID_0Corel-Layer"/>
  <polygon class="fil0" points="0.869,2.051 3.983,0 59.848,0 56.734,2.051 "/>
  <polygon class="fil1" points="56.734,2.051 59.848,0 59.848,12.261 56.734,14.312 "/>
  <polygon class="fil2" points="0.869,2.051 56.734,2.051 56.734,14.312 0.869,14.312 "/>
  <g id="_3019997582496">
   <polygon class="fil3" points="-0,3.521 32.315,3.521 32.315,8.538 -0,8.538 "/>
   <polygon class="fil4" points="0.869,2.93 0.869,3.329 32.605,3.325 32.315,3.521 -0,3.521 "/>
   <polygon class="fil5" points="32.605,3.325 32.605,8.318 32.315,8.538 32.315,3.521 "/>
   <polygon class="fil6" points="1.892,6.714 1.346,6.714 1.53,6.337 0.788,5.329 1.389,5.329 1.764,5.876 2.041,5.325 2.609,5.325 "/>
   <path id="1" class="fil6" d="M3.826 5.329l0.511 0 0 1.383 -0.511 0 0 -0.349 -0.918 0c-0.053,0 -0.095,-0.017 -0.126,-0.05 -0.031,-0.033 -0.046,-0.078 -0.046,-0.133l0 -0.851 0.51 0 0 0.672 0.579 0 0 -0.672z"/>
   <polygon id="2" class="fil6" points="4.572,6.712 4.572,5.329 6.125,5.329 6.125,5.722 5.082,5.722 5.082,5.847 5.877,5.847 5.877,6.193 5.082,6.193 5.082,6.319 6.139,6.319 6.139,6.712 "/>
   <path id="3" class="fil6" d="M7.426 6.16l-0.579 0 0 0.196 0.579 0 0 -0.196zm-0.579 -0.438l0 0.156 0.918 0c0.053,0 0.095,0.017 0.126,0.05 0.031,0.033 0.046,0.078 0.046,0.133l0 0.469c0,0.055 -0.015,0.1 -0.044,0.133 -0.03,0.033 -0.071,0.05 -0.124,0.05l-1.432 0 0 -1.383 1.519 0 0 0.393 -1.008 0z"/>
   <polygon id="4" class="fil6" points="9.334,6.712 9.334,6.265 8.683,6.265 8.683,6.712 8.172,6.712 8.172,5.329 8.683,5.329 8.683,5.83 9.334,5.83 9.334,5.329 9.845,5.329 9.845,6.712 "/>
   <path id="5" class="fil6" d="M11.699 5.981l0 0.548c0,0.055 -0.015,0.1 -0.044,0.133 -0.03,0.033 -0.071,0.05 -0.124,0.05l-1.432 0 0 -1.383 0.51 0 0 0.469 0.918 0c0.053,0 0.095,0.017 0.126,0.05 0.031,0.033 0.046,0.077 0.046,0.133zm-0.511 0.179l-0.579 0 0 0.196 0.579 0 0 -0.196zm0.619 0.552l0 -1.383 0.51 0 0 1.383 -0.51 0z"/>
   <polygon id="6" class="fil6" points="12.445,6.712 12.445,5.329 13.998,5.329 13.998,5.722 12.955,5.722 12.955,5.847 13.75,5.847 13.75,6.193 12.955,6.193 12.955,6.319 14.012,6.319 14.012,6.712 "/>
   <path id="7" class="fil6" d="M16.516 6.529c0,0.055 -0.015,0.1 -0.044,0.133 -0.03,0.033 -0.071,0.05 -0.124,0.05l-1.336 0c-0.053,0 -0.094,-0.017 -0.124,-0.05 -0.03,-0.033 -0.044,-0.078 -0.044,-0.133l0 -0.29 0.51 0 0 0.098 0.652 0 0 -0.081 -0.545 -0.172 0 -0.163 0.545 -0.172 0 -0.045 -0.652 0 0 0.098 -0.51 0 0 -0.29c0,-0.055 0.015,-0.1 0.044,-0.133 0.03,-0.033 0.071,-0.05 0.124,-0.05l1.336 0c0.053,0 0.094,0.017 0.124,0.05 0.03,0.033 0.044,0.078 0.044,0.133l0 0.281c0,0.086 -0.048,0.141 -0.145,0.165l-0.192 0.045 0.192 0.027c0.046,0.006 0.082,0.021 0.107,0.044 0.025,0.024 0.038,0.058 0.038,0.102l0 0.353z"/>
   <path id="8" class="fil6" d="M17.984 6.712l-0.074 -0.186 -0.654 0 -0.081 0.186 -0.525 0 0 -0.004 0.666 -1.379 0.534 0 0.666 1.379 0 0.004 -0.532 0zm-0.404 -0.941l-0.165 0.4 0.333 0 -0.168 -0.4z"/>
   <path id="9" class="fil6" d="M20.305 6.529c0,0.055 -0.015,0.1 -0.046,0.133 -0.031,0.033 -0.073,0.05 -0.126,0.05l-1.483 0 0 -1.383 1.474 0c0.053,0 0.094,0.017 0.124,0.05 0.03,0.033 0.044,0.078 0.044,0.133l0 0.259c0,0.037 -0.008,0.068 -0.023,0.093 -0.015,0.025 -0.038,0.046 -0.07,0.062l-0.168 0.092 0.177 0.091c0.031,0.016 0.055,0.035 0.072,0.057 0.016,0.022 0.024,0.052 0.024,0.09l0 0.273zm-0.523 -0.844l-0.621 0 0 0.188 0.465 0 0.156 -0.107 0 -0.081zm0.013 0.572l-0.168 -0.098 -0.465 0 0 0.196 0.634 0 0 -0.098z"/>
   <polygon id="10" class="fil6" points="20.558,6.712 20.558,5.329 22.111,5.329 22.111,5.722 21.069,5.722 21.069,5.847 21.863,5.847 21.863,6.193 21.069,6.193 21.069,6.319 22.126,6.319 22.126,6.712 "/>
   <path id="11" class="fil6" d="M22.932 6.319l0.472 0 -0.235 -0.548 -0.237 0.548zm0.985 0l0.259 0 0 0.536 -0.511 0 0 -0.143 -0.941 0 0 0.143 -0.511 0 0 -0.536 0.214 0 0.478 -0.99 0.534 0 0.478 0.99z"/>
   <polygon id="12" class="fil6" points="24.315,6.712 24.315,5.329 25.868,5.329 25.868,5.722 24.825,5.722 24.825,5.847 25.62,5.847 25.62,6.193 24.825,6.193 24.825,6.319 25.882,6.319 25.882,6.712 "/>
   <polygon id="13" class="fil6" points="27.242,6.712 27.242,6.265 26.59,6.265 26.59,6.712 26.08,6.712 26.08,5.329 26.59,5.329 26.59,5.83 27.242,5.83 27.242,5.329 27.752,5.329 27.752,6.712 "/>
   <polygon id="14" class="fil6" points="28.006,6.712 28.006,5.329 28.518,5.329 28.518,5.997 29.173,5.329 29.678,5.329 29.678,6.712 29.168,6.712 29.168,5.984 28.511,6.712 "/>
   <path id="15" class="fil6" d="M29.843 6.712l0 -0.015 0.418 -0.393 -0.159 0c-0.052,0 -0.094,-0.016 -0.125,-0.047 -0.031,-0.031 -0.047,-0.075 -0.047,-0.13l0 -0.616c0,-0.055 0.016,-0.1 0.047,-0.133 0.031,-0.033 0.073,-0.05 0.125,-0.05l1.425 0 0 1.383 -0.511 0 0 -1.008 -0.576 0 0 0.279 0.496 0 0 0.221 -0.511 0.509 -0.583 0z"/>
  </g>
  <path class="fil6" d="M2.265 10.161l-0.419 0 -0.061 0.185 -0.193 0 0.322 -0.969 0.273 0 0.328 0.969 -0.189 0 -0.062 -0.185zm-0.043 -0.138l-0.168 -0.503 -0.166 0.503 0.333 0z"/>
  <path id="1" class="fil6" d="M2.622 10.346l0 -0.969 0.676 0 0 0.154 -0.491 0 0 0.224 0.307 0c0.059,0 0.11,0.012 0.151,0.035 0.041,0.024 0.072,0.058 0.093,0.103 0.021,0.045 0.031,0.099 0.031,0.161 0,0.061 -0.01,0.114 -0.031,0.158 -0.021,0.044 -0.051,0.077 -0.092,0.1 -0.041,0.023 -0.091,0.034 -0.15,0.034l-0.494 0zm0.185 -0.154l0.237 0c0.04,0 0.071,-0.004 0.094,-0.011 0.023,-0.008 0.039,-0.022 0.049,-0.041 0.01,-0.02 0.015,-0.048 0.015,-0.086 0,-0.055 -0.011,-0.093 -0.034,-0.114 -0.023,-0.02 -0.062,-0.031 -0.118,-0.031l-0.243 0 0 0.283z"/>
  <path id="2" class="fil6" d="M4.365 9.377l-0.266 0 -0.33 0.649c-0.011,0.022 -0.021,0.041 -0.029,0.057 -0.008,0.016 -0.025,0.05 -0.051,0.102 0.009,-0.047 0.014,-0.104 0.014,-0.172l0 -0.636 -0.186 0 0 0.969 0.266 0 0.33 -0.651c0.011,-0.023 0.022,-0.044 0.032,-0.063 0.01,-0.019 0.026,-0.051 0.048,-0.096 -0.01,0.047 -0.014,0.104 -0.014,0.172l0 0.639 0.186 0 0 -0.969z"/>
  <polygon id="3" class="fil6" points="4.768,10.346 4.768,9.539 4.488,9.539 4.488,9.377 5.243,9.377 5.243,9.539 4.956,9.539 4.956,10.346 "/>
  <path id="4" class="fil6" d="M5.961 9.377l-0.188 0.486c-0.015,0.045 -0.028,0.092 -0.037,0.14 -0.006,-0.069 -0.015,-0.114 -0.026,-0.135l-0.194 -0.492 -0.224 0 0.334 0.714c0.009,0.019 0.013,0.033 0.013,0.044 0,0.01 -0.003,0.02 -0.01,0.03 -0.014,0.019 -0.048,0.028 -0.102,0.028 -0.011,0 -0.033,-0.002 -0.066,-0.007l0 0.158c0.039,0.004 0.078,0.006 0.117,0.006 0.037,0 0.072,-0.006 0.102,-0.019 0.03,-0.012 0.059,-0.034 0.086,-0.066 0.027,-0.032 0.053,-0.075 0.078,-0.131l0.336 -0.758 -0.22 0z"/>
  <path id="5" class="fil6" d="M6.281 10.346l0 -0.969 0.412 0c0.085,0 0.153,0.008 0.204,0.025 0.052,0.017 0.091,0.049 0.118,0.095 0.027,0.046 0.04,0.112 0.04,0.198 0,0.066 -0.006,0.121 -0.018,0.164 -0.012,0.043 -0.032,0.076 -0.058,0.101 -0.027,0.025 -0.062,0.042 -0.105,0.052 -0.043,0.01 -0.098,0.015 -0.164,0.015l-0.243 0 0 0.318 -0.186 0zm0.186 -0.473l0.229 0c0.044,0 0.078,-0.005 0.102,-0.014 0.024,-0.009 0.042,-0.025 0.053,-0.048 0.011,-0.023 0.016,-0.056 0.016,-0.099 0,-0.047 -0.005,-0.083 -0.016,-0.109 -0.011,-0.026 -0.029,-0.044 -0.053,-0.054 -0.025,-0.011 -0.058,-0.016 -0.101,-0.016l-0.229 0 0 0.339z"/>
  <path id="6" class="fil6" d="M8.041 9.377l-0.266 0 -0.33 0.649c-0.011,0.022 -0.021,0.041 -0.029,0.057 -0.008,0.016 -0.025,0.05 -0.051,0.102 0.009,-0.047 0.014,-0.104 0.014,-0.172l0 -0.636 -0.186 0 0 0.969 0.266 0 0.33 -0.651c0.011,-0.023 0.022,-0.044 0.032,-0.063 0.01,-0.019 0.026,-0.051 0.048,-0.096 -0.01,0.047 -0.014,0.104 -0.014,0.172l0 0.639 0.186 0 0 -0.969z"/>
  <polygon id="7" class="fil6" points="8.4,9.531 8.4,9.784 8.855,9.784 8.855,9.922 8.4,9.922 8.4,10.193 8.882,10.193 8.882,10.346 8.217,10.346 8.217,9.377 8.878,9.377 8.878,9.531 "/>
  <polygon id="8" class="fil6" points="9.838,9.377 9.838,10.346 9.652,10.346 9.652,9.932 9.201,9.932 9.201,10.346 9.015,10.346 9.015,9.377 9.201,9.377 9.201,9.775 9.652,9.775 9.652,9.377 "/>
  <polygon id="9" class="fil6" points="10.235,10.346 10.235,9.539 9.955,9.539 9.955,9.377 10.71,9.377 10.71,9.539 10.423,9.539 10.423,10.346 "/>
  <path id="10" class="fil6" d="M11.438 10.161l-0.419 0 -0.061 0.185 -0.193 0 0.322 -0.969 0.273 0 0.328 0.969 -0.189 0 -0.062 -0.185zm-0.043 -0.138l-0.168 -0.503 -0.166 0.503 0.333 0z"/>
  <polygon id="11" class="fil6" points="12.935,9.377 12.935,10.346 12.752,10.346 12.752,9.53 12.447,10.346 12.28,10.346 11.976,9.535 11.976,10.346 11.792,10.346 11.792,9.377 12.096,9.377 12.359,10.096 12.364,10.096 12.621,9.377 "/>
  <polygon id="12" class="fil6" points="14.269,9.377 14.269,10.346 14.083,10.346 14.083,9.537 13.631,9.537 13.631,10.346 13.445,10.346 13.445,9.377 "/>
  <path id="13" class="fil6" d="M14.438 10.346l0 -0.969 0.412 0c0.085,0 0.153,0.008 0.204,0.025 0.052,0.017 0.091,0.049 0.118,0.095 0.027,0.046 0.04,0.112 0.04,0.198 0,0.066 -0.006,0.121 -0.018,0.164 -0.012,0.043 -0.032,0.076 -0.058,0.101 -0.027,0.025 -0.062,0.042 -0.105,0.052 -0.043,0.01 -0.098,0.015 -0.164,0.015l-0.243 0 0 0.318 -0.186 0zm0.186 -0.473l0.229 0c0.044,0 0.078,-0.005 0.102,-0.014 0.024,-0.009 0.042,-0.025 0.053,-0.048 0.011,-0.023 0.016,-0.056 0.016,-0.099 0,-0.047 -0.005,-0.083 -0.016,-0.109 -0.011,-0.026 -0.029,-0.044 -0.053,-0.054 -0.025,-0.011 -0.058,-0.016 -0.101,-0.016l-0.229 0 0 0.339z"/>
  <polygon id="14" class="fil6" points="15.533,9.531 15.533,9.784 15.988,9.784 15.988,9.922 15.533,9.922 15.533,10.193 16.015,10.193 16.015,10.346 15.35,10.346 15.35,9.377 16.011,9.377 16.011,9.531 "/>
  <path id="15" class="fil6" d="M16.163 10.187c0.019,-0.02 0.035,-0.042 0.048,-0.066 0.013,-0.024 0.023,-0.052 0.031,-0.083 0.008,-0.031 0.013,-0.067 0.017,-0.109 0.003,-0.041 0.005,-0.089 0.006,-0.144l0 -0.409 0.701 0 0 0.811 0.087 0 0 0.383 -0.173 0 0 -0.224 -0.614 0 0 0.224 -0.175 0 0 -0.383 0.073 0zm0.282 -0.652l0 0.249c0,0.069 -0.002,0.129 -0.007,0.178 -0.005,0.049 -0.014,0.093 -0.027,0.13 -0.013,0.037 -0.03,0.069 -0.052,0.094l0.419 0 0 -0.652 -0.334 0z"/>
  <path id="16" class="fil6" d="M18.003 9.377l0 0.969 -0.185 0 0 -0.809 -0.369 0 0 0.542c0,0.078 -0.019,0.143 -0.058,0.194 -0.039,0.051 -0.101,0.076 -0.186,0.076 -0.031,0 -0.063,-0.003 -0.095,-0.009l0 -0.153c0.015,0.003 0.035,0.004 0.058,0.004 0.037,0 0.063,-0.009 0.078,-0.026 0.014,-0.017 0.022,-0.041 0.022,-0.072l0 -0.715 0.736 0z"/>
  <path id="17" class="fil6" d="M18.784 10.161l-0.419 0 -0.061 0.185 -0.193 0 0.322 -0.969 0.273 0 0.328 0.969 -0.189 0 -0.062 -0.185zm-0.043 -0.138l-0.168 -0.503 -0.166 0.503 0.333 0z"/>
  <polygon id="18" class="fil6" points="19.329,10.346 19.329,9.539 19.776,9.539 19.776,9.377 19.141,9.377 19.141,10.346 "/>
  <path id="19" class="fil6" d="M20.486 10.161l-0.419 0 -0.061 0.185 -0.193 0 0.322 -0.969 0.273 0 0.328 0.969 -0.189 0 -0.062 -0.185zm-0.043 -0.138l-0.168 -0.503 -0.166 0.503 0.333 0z"/>
  <polygon id="20" class="fil6" points="21.027,9.531 21.027,9.784 21.481,9.784 21.481,9.922 21.027,9.922 21.027,10.193 21.508,10.193 21.508,10.346 20.843,10.346 20.843,9.377 21.504,9.377 21.504,9.531 "/>
  <polygon id="21" class="fil6" points="22.781,9.377 22.781,10.346 22.598,10.346 22.598,9.53 22.293,10.346 22.126,10.346 21.822,9.535 21.822,10.346 21.638,10.346 21.638,9.377 21.942,9.377 22.205,10.096 22.21,10.096 22.467,9.377 "/>
  <polygon id="22" class="fil6" points="24.115,9.377 24.115,10.346 23.929,10.346 23.929,9.537 23.477,9.537 23.477,10.346 23.291,10.346 23.291,9.377 "/>
  <path id="23" class="fil6" d="M24.271 9.842c0,-0.096 0.006,-0.174 0.019,-0.234 0.012,-0.06 0.034,-0.107 0.064,-0.143 0.03,-0.035 0.072,-0.06 0.124,-0.076 0.053,-0.015 0.121,-0.023 0.206,-0.023 0.084,0 0.153,0.008 0.205,0.023 0.053,0.015 0.094,0.04 0.125,0.076 0.031,0.035 0.053,0.083 0.065,0.143 0.013,0.06 0.02,0.138 0.02,0.233 0,0.11 -0.007,0.198 -0.02,0.264 -0.013,0.066 -0.035,0.118 -0.065,0.155 -0.031,0.036 -0.072,0.062 -0.124,0.076 -0.052,0.014 -0.121,0.022 -0.206,0.022 -0.091,0 -0.162,-0.007 -0.215,-0.021 -0.053,-0.014 -0.094,-0.039 -0.122,-0.076 -0.029,-0.036 -0.049,-0.088 -0.06,-0.153 -0.011,-0.065 -0.017,-0.155 -0.017,-0.267zm0.189 0.02c0,0.081 0.003,0.142 0.008,0.185 0.006,0.043 0.016,0.075 0.031,0.097 0.015,0.022 0.037,0.037 0.065,0.044 0.028,0.007 0.068,0.011 0.12,0.011 0.051,0 0.092,-0.004 0.12,-0.012 0.029,-0.008 0.051,-0.023 0.066,-0.045 0.015,-0.022 0.026,-0.055 0.031,-0.097 0.006,-0.042 0.009,-0.103 0.009,-0.183 0,-0.081 -0.003,-0.143 -0.009,-0.187 -0.006,-0.044 -0.017,-0.077 -0.033,-0.098 -0.016,-0.021 -0.037,-0.036 -0.064,-0.042 -0.027,-0.006 -0.067,-0.01 -0.12,-0.01 -0.054,0 -0.095,0.003 -0.122,0.009 -0.027,0.006 -0.048,0.02 -0.063,0.042 -0.015,0.022 -0.025,0.054 -0.031,0.097 -0.006,0.043 -0.008,0.106 -0.008,0.188z"/>
  <path id="24" class="fil6" d="M25.487 9.785l0.15 0c0.058,0 0.1,-0.011 0.128,-0.032 0.027,-0.021 0.041,-0.055 0.041,-0.102 0,-0.036 -0.006,-0.063 -0.018,-0.083 -0.012,-0.02 -0.033,-0.034 -0.061,-0.042 -0.028,-0.008 -0.069,-0.013 -0.121,-0.013 -0.043,0 -0.077,0.002 -0.102,0.007 -0.025,0.005 -0.046,0.012 -0.06,0.023 -0.015,0.011 -0.025,0.026 -0.031,0.045 -0.006,0.019 -0.009,0.043 -0.01,0.074l-0.177 0c0.006,-0.078 0.022,-0.139 0.047,-0.181 0.026,-0.042 0.065,-0.072 0.118,-0.089 0.053,-0.017 0.125,-0.025 0.218,-0.025 0.127,0 0.221,0.02 0.283,0.061 0.062,0.041 0.092,0.103 0.092,0.188 0,0.068 -0.01,0.119 -0.03,0.153 -0.02,0.033 -0.056,0.058 -0.107,0.075l0 0.005c0.042,0.011 0.074,0.026 0.098,0.044 0.023,0.018 0.04,0.041 0.05,0.07 0.01,0.028 0.014,0.064 0.014,0.106 0,0.068 -0.012,0.123 -0.035,0.164 -0.023,0.041 -0.064,0.072 -0.122,0.093 -0.058,0.02 -0.139,0.03 -0.244,0.03 -0.065,0 -0.121,-0.004 -0.169,-0.011 -0.047,-0.008 -0.087,-0.021 -0.12,-0.041 -0.033,-0.02 -0.058,-0.049 -0.075,-0.086 -0.017,-0.037 -0.026,-0.085 -0.026,-0.143l0 -0.04 0.175 0c0.001,0.049 0.006,0.085 0.013,0.108 0.008,0.023 0.027,0.039 0.057,0.05 0.03,0.011 0.078,0.017 0.144,0.017 0.058,0 0.103,-0.004 0.135,-0.013 0.032,-0.009 0.055,-0.023 0.069,-0.043 0.014,-0.02 0.021,-0.048 0.021,-0.085 0,-0.052 -0.013,-0.09 -0.04,-0.112 -0.027,-0.022 -0.068,-0.034 -0.123,-0.034l-0.18 0 0 -0.138z"/>
  <polygon id="25" class="fil6" points="26.959,9.377 26.959,10.346 26.772,10.346 26.772,9.932 26.321,9.932 26.321,10.346 26.135,10.346 26.135,9.377 26.321,9.377 26.321,9.775 26.772,9.775 26.772,9.377 "/>
  <path id="26" class="fil6" d="M27.739 10.161l-0.419 0 -0.061 0.185 -0.193 0 0.322 -0.969 0.273 0 0.328 0.969 -0.189 0 -0.062 -0.185zm-0.043 -0.138l-0.168 -0.503 -0.166 0.503 0.333 0z"/>
  <polygon id="27" class="fil6" points="28.282,9.377 28.282,9.773 28.368,9.773 28.691,9.377 28.919,9.377 28.527,9.85 28.96,10.346 28.725,10.346 28.368,9.932 28.282,9.932 28.282,10.346 28.095,10.346 28.095,9.377 "/>
  <path id="28" class="fil6" d="M29.051 9.842c0,-0.096 0.006,-0.174 0.019,-0.234 0.012,-0.06 0.034,-0.107 0.064,-0.143 0.03,-0.035 0.072,-0.06 0.124,-0.076 0.053,-0.015 0.121,-0.023 0.206,-0.023 0.084,0 0.153,0.008 0.205,0.023 0.053,0.015 0.094,0.04 0.125,0.076 0.031,0.035 0.053,0.083 0.065,0.143 0.013,0.06 0.02,0.138 0.02,0.233 0,0.11 -0.007,0.198 -0.02,0.264 -0.013,0.066 -0.035,0.118 -0.065,0.155 -0.031,0.036 -0.072,0.062 -0.124,0.076 -0.052,0.014 -0.121,0.022 -0.206,0.022 -0.091,0 -0.162,-0.007 -0.215,-0.021 -0.053,-0.014 -0.094,-0.039 -0.122,-0.076 -0.029,-0.036 -0.049,-0.088 -0.06,-0.153 -0.011,-0.065 -0.017,-0.155 -0.017,-0.267zm0.189 0.02c0,0.081 0.003,0.142 0.008,0.185 0.006,0.043 0.016,0.075 0.031,0.097 0.015,0.022 0.037,0.037 0.065,0.044 0.028,0.007 0.068,0.011 0.12,0.011 0.051,0 0.092,-0.004 0.12,-0.012 0.029,-0.008 0.051,-0.023 0.066,-0.045 0.015,-0.022 0.026,-0.055 0.031,-0.097 0.006,-0.042 0.009,-0.103 0.009,-0.183 0,-0.081 -0.003,-0.143 -0.009,-0.187 -0.006,-0.044 -0.017,-0.077 -0.033,-0.098 -0.016,-0.021 -0.037,-0.036 -0.064,-0.042 -0.027,-0.006 -0.067,-0.01 -0.12,-0.01 -0.054,0 -0.095,0.003 -0.122,0.009 -0.027,0.006 -0.048,0.02 -0.063,0.042 -0.015,0.022 -0.025,0.054 -0.031,0.097 -0.006,0.043 -0.008,0.106 -0.008,0.188z"/>
  <polygon id="29" class="fil6" points="31.172,9.377 31.172,10.346 30.988,10.346 30.988,9.53 30.683,10.346 30.516,10.346 30.212,9.535 30.212,10.346 30.028,10.346 30.028,9.377 30.332,9.377 30.595,10.096 30.6,10.096 30.858,9.377 "/>
  <path id="30" class="fil6" d="M32.184 9.377l-0.266 0 -0.33 0.649c-0.011,0.022 -0.021,0.041 -0.029,0.057 -0.008,0.016 -0.025,0.05 -0.051,0.102 0.009,-0.047 0.014,-0.104 0.014,-0.172l0 -0.636 -0.186 0 0 0.969 0.266 0 0.33 -0.651c0.011,-0.023 0.022,-0.044 0.032,-0.063 0.01,-0.019 0.026,-0.051 0.048,-0.096 -0.01,0.047 -0.014,0.104 -0.014,0.172l0 0.639 0.186 0 0 -0.969z"/>
  <polygon id="31" class="fil6" points="32.588,10.346 32.588,9.539 32.307,9.539 32.307,9.377 33.062,9.377 33.062,9.539 32.775,9.539 32.775,10.346 "/>
  <path id="32" class="fil6" d="M33.18 10.346l0 -0.969 0.186 0 0 0.378 0.305 0c0.089,0 0.158,0.026 0.205,0.078 0.047,0.052 0.071,0.125 0.071,0.219 0,0.062 -0.011,0.114 -0.031,0.158 -0.021,0.044 -0.052,0.078 -0.093,0.101 -0.041,0.023 -0.091,0.034 -0.15,0.034l-0.494 0zm0.186 -0.154l0.243 0c0.039,0 0.069,-0.004 0.091,-0.011 0.022,-0.008 0.037,-0.021 0.047,-0.041 0.01,-0.02 0.015,-0.049 0.015,-0.086 0,-0.055 -0.012,-0.093 -0.035,-0.114 -0.023,-0.021 -0.063,-0.031 -0.118,-0.031l-0.243 0 0 0.283z"/>
  <path id="33" class="fil6" d="M34.694 10l0.182 0 0 0.057c0,0.075 -0.013,0.134 -0.039,0.178 -0.026,0.044 -0.067,0.075 -0.125,0.094 -0.058,0.019 -0.137,0.029 -0.237,0.029 -0.082,0 -0.149,-0.008 -0.201,-0.023 -0.051,-0.015 -0.093,-0.042 -0.123,-0.08 -0.03,-0.038 -0.052,-0.089 -0.065,-0.154 -0.013,-0.065 -0.019,-0.15 -0.019,-0.255 0,-0.116 0.012,-0.208 0.035,-0.277 0.023,-0.068 0.064,-0.119 0.122,-0.151 0.058,-0.033 0.14,-0.049 0.245,-0.049 0.104,0 0.185,0.012 0.241,0.036 0.056,0.024 0.096,0.06 0.119,0.108 0.023,0.048 0.037,0.111 0.042,0.191l-0.181 0c-0.003,-0.051 -0.011,-0.089 -0.024,-0.113 -0.013,-0.024 -0.034,-0.04 -0.064,-0.049 -0.03,-0.008 -0.074,-0.013 -0.133,-0.013 -0.061,0 -0.106,0.008 -0.135,0.024 -0.029,0.016 -0.049,0.047 -0.06,0.093 -0.011,0.046 -0.017,0.119 -0.017,0.219 0,0.071 0.003,0.128 0.01,0.171 0.006,0.043 0.017,0.077 0.033,0.101 0.016,0.024 0.037,0.04 0.064,0.05 0.027,0.009 0.063,0.014 0.109,0.014 0.058,0 0.103,-0.004 0.134,-0.012 0.031,-0.008 0.054,-0.022 0.067,-0.041 0.013,-0.02 0.02,-0.048 0.02,-0.084l0 -0.061z"/>
  <path id="34" class="fil6" d="M35.743 10.346l0 -0.969 -0.49 0c-0.101,0 -0.176,0.027 -0.224,0.082 -0.047,0.055 -0.071,0.132 -0.071,0.231 0,0.082 0.016,0.144 0.047,0.187 0.032,0.043 0.078,0.077 0.139,0.102l-0.212 0.366 0.212 0 0.19 -0.341 0.225 0 0 0.341 0.184 0zm-0.184 -0.49l-0.269 0c-0.035,0 -0.063,-0.005 -0.084,-0.014 -0.021,-0.01 -0.037,-0.026 -0.047,-0.05 -0.01,-0.024 -0.015,-0.056 -0.015,-0.098 0,-0.058 0.011,-0.098 0.033,-0.122 0.022,-0.023 0.06,-0.035 0.113,-0.035l0.269 -0.001 0 0.319z"/>
  <path id="35" class="fil6" d="M2.257 11.535l0.182 0 0 0.057c0,0.075 -0.013,0.134 -0.039,0.178 -0.026,0.044 -0.067,0.075 -0.125,0.094 -0.058,0.019 -0.137,0.029 -0.237,0.029 -0.082,0 -0.149,-0.008 -0.201,-0.023 -0.051,-0.015 -0.093,-0.042 -0.123,-0.08 -0.03,-0.038 -0.052,-0.089 -0.065,-0.154 -0.013,-0.065 -0.019,-0.15 -0.019,-0.255 0,-0.116 0.012,-0.208 0.035,-0.277 0.023,-0.068 0.064,-0.119 0.122,-0.151 0.058,-0.033 0.14,-0.049 0.245,-0.049 0.104,0 0.185,0.012 0.241,0.036 0.056,0.024 0.096,0.06 0.119,0.108 0.023,0.048 0.037,0.111 0.042,0.191l-0.181 0c-0.003,-0.051 -0.011,-0.089 -0.024,-0.113 -0.013,-0.024 -0.034,-0.04 -0.064,-0.049 -0.03,-0.008 -0.074,-0.013 -0.133,-0.013 -0.061,0 -0.106,0.008 -0.135,0.024 -0.029,0.016 -0.049,0.047 -0.06,0.093 -0.011,0.046 -0.017,0.119 -0.017,0.219 0,0.071 0.003,0.128 0.01,0.171 0.006,0.043 0.017,0.077 0.033,0.101 0.016,0.024 0.037,0.04 0.064,0.05 0.027,0.009 0.063,0.014 0.109,0.014 0.058,0 0.103,-0.004 0.134,-0.012 0.031,-0.008 0.054,-0.022 0.067,-0.041 0.013,-0.02 0.02,-0.048 0.02,-0.084l0 -0.061z"/>
  <path id="36" class="fil6" d="M3.499 10.913l-0.188 0.486c-0.015,0.045 -0.028,0.092 -0.037,0.14 -0.006,-0.069 -0.015,-0.114 -0.026,-0.135l-0.194 -0.492 -0.224 0 0.334 0.714c0.009,0.019 0.013,0.033 0.013,0.044 0,0.01 -0.003,0.02 -0.01,0.03 -0.014,0.019 -0.048,0.028 -0.102,0.028 -0.011,0 -0.033,-0.002 -0.066,-0.007l0 0.158c0.039,0.004 0.078,0.006 0.117,0.006 0.037,0 0.072,-0.006 0.102,-0.019 0.03,-0.012 0.059,-0.034 0.086,-0.066 0.027,-0.032 0.053,-0.075 0.078,-0.131l0.336 -0.758 -0.22 0z"/>
  <path id="37" class="fil6" d="M4.594 10.913l-0.186 0 0 0.397c-0.028,0.011 -0.057,0.018 -0.088,0.021 -0.031,0.003 -0.078,0.004 -0.139,0.004 -0.047,0 -0.083,-0.005 -0.108,-0.015 -0.025,-0.01 -0.043,-0.025 -0.054,-0.046 -0.01,-0.021 -0.015,-0.049 -0.015,-0.084l0 -0.278 -0.186 0 0 0.273c0,0.072 0.01,0.131 0.03,0.176 0.02,0.045 0.055,0.078 0.103,0.1 0.048,0.022 0.115,0.033 0.2,0.033 0.129,0 0.214,-0.011 0.257,-0.032l0 0.419 0.186 0 0 -0.969z"/>
  <polygon id="38" class="fil6" points="4.946,11.067 4.946,11.319 5.4,11.319 5.4,11.457 4.946,11.457 4.946,11.729 5.427,11.729 5.427,11.882 4.762,11.882 4.762,10.913 5.423,10.913 5.423,11.067 "/>
  <path id="39" class="fil6" d="M5.56 11.882l0 -0.969 0.676 0 0 0.154 -0.491 0 0 0.224 0.307 0c0.059,0 0.11,0.012 0.151,0.035 0.041,0.024 0.072,0.058 0.093,0.103 0.021,0.045 0.031,0.099 0.031,0.161 0,0.061 -0.01,0.114 -0.031,0.158 -0.021,0.044 -0.051,0.077 -0.092,0.1 -0.041,0.023 -0.091,0.034 -0.15,0.034l-0.494 0zm0.185 -0.154l0.237 0c0.04,0 0.071,-0.004 0.094,-0.011 0.023,-0.008 0.039,-0.022 0.049,-0.041 0.01,-0.02 0.015,-0.048 0.015,-0.086 0,-0.055 -0.011,-0.093 -0.034,-0.114 -0.023,-0.02 -0.062,-0.031 -0.118,-0.031l-0.243 0 0 0.283z"/>
  <polygon id="40" class="fil6" points="7.278,10.913 7.278,11.882 7.092,11.882 7.092,11.468 6.641,11.468 6.641,11.882 6.455,11.882 6.455,10.913 6.641,10.913 6.641,11.31 7.092,11.31 7.092,10.913 "/>
  <path id="41" class="fil6" d="M7.445 11.882l0 -0.969 0.186 0 0 0.378 0.305 0c0.044,0 0.084,0.007 0.119,0.02 0.035,0.013 0.064,0.033 0.087,0.059 0.024,0.026 0.042,0.057 0.054,0.094 0.012,0.037 0.018,0.078 0.018,0.124 0,0.061 -0.011,0.114 -0.032,0.158 -0.022,0.044 -0.053,0.078 -0.094,0.101 -0.041,0.023 -0.091,0.035 -0.149,0.035l-0.494 0zm0.186 -0.154l0.243 0c0.039,0 0.07,-0.004 0.092,-0.011 0.022,-0.008 0.037,-0.021 0.047,-0.041 0.01,-0.02 0.015,-0.049 0.015,-0.086 0,-0.055 -0.012,-0.093 -0.035,-0.113 -0.023,-0.021 -0.063,-0.031 -0.119,-0.031l-0.243 0 0 0.283zm0.932 -0.815l0 0.969 -0.186 0 0 -0.969 0.186 0z"/>
  <polygon id="42" class="fil6" points="9.873,10.913 9.873,11.882 9.69,11.882 9.69,11.065 9.385,11.882 9.218,11.882 8.914,11.071 8.914,11.882 8.73,11.882 8.73,10.913 9.034,10.913 9.297,11.632 9.302,11.632 9.559,10.913 "/>
  <path id="43" class="fil6" d="M10.886 10.913l-0.266 0 -0.33 0.649c-0.011,0.022 -0.021,0.041 -0.029,0.057 -0.008,0.016 -0.025,0.05 -0.051,0.102 0.009,-0.047 0.014,-0.104 0.014,-0.172l0 -0.636 -0.186 0 0 0.969 0.266 0 0.33 -0.651c0.011,-0.023 0.022,-0.044 0.032,-0.063 0.01,-0.019 0.026,-0.051 0.048,-0.096 -0.01,0.047 -0.014,0.104 -0.014,0.172l0 0.639 0.186 0 0 -0.969z"/>
  <path id="44" class="fil6" d="M11.643 11.32l0.15 0c0.058,0 0.1,-0.011 0.128,-0.032 0.027,-0.021 0.041,-0.055 0.041,-0.102 0,-0.036 -0.006,-0.063 -0.018,-0.083 -0.012,-0.02 -0.033,-0.034 -0.061,-0.042 -0.028,-0.008 -0.069,-0.013 -0.121,-0.013 -0.043,0 -0.077,0.002 -0.102,0.007 -0.025,0.005 -0.046,0.012 -0.06,0.023 -0.015,0.011 -0.025,0.026 -0.031,0.045 -0.006,0.019 -0.009,0.043 -0.01,0.074l-0.177 0c0.006,-0.078 0.022,-0.139 0.047,-0.181 0.026,-0.042 0.065,-0.072 0.118,-0.089 0.053,-0.017 0.125,-0.025 0.218,-0.025 0.127,0 0.221,0.02 0.283,0.061 0.062,0.041 0.092,0.103 0.092,0.188 0,0.068 -0.01,0.119 -0.03,0.153 -0.02,0.033 -0.056,0.058 -0.107,0.075l0 0.005c0.042,0.011 0.074,0.026 0.098,0.044 0.023,0.018 0.04,0.041 0.05,0.07 0.01,0.028 0.014,0.064 0.014,0.106 0,0.068 -0.012,0.123 -0.035,0.164 -0.023,0.041 -0.064,0.072 -0.122,0.093 -0.058,0.02 -0.139,0.03 -0.244,0.03 -0.065,0 -0.121,-0.004 -0.169,-0.011 -0.047,-0.008 -0.087,-0.021 -0.12,-0.041 -0.033,-0.02 -0.058,-0.049 -0.075,-0.086 -0.017,-0.037 -0.026,-0.085 -0.026,-0.143l0 -0.04 0.175 0c0.001,0.049 0.006,0.085 0.013,0.108 0.008,0.023 0.027,0.039 0.057,0.05 0.03,0.011 0.078,0.017 0.144,0.017 0.058,0 0.103,-0.004 0.135,-0.013 0.032,-0.009 0.055,-0.023 0.069,-0.043 0.014,-0.02 0.021,-0.048 0.021,-0.085 0,-0.052 -0.013,-0.09 -0.04,-0.112 -0.027,-0.022 -0.068,-0.034 -0.123,-0.034l-0.18 0 0 -0.138z"/>
  <path id="45" class="fil6" d="M12.901 11.697l-0.419 0 -0.061 0.185 -0.193 0 0.322 -0.969 0.273 0 0.328 0.969 -0.189 0 -0.062 -0.185zm-0.043 -0.138l-0.168 -0.503 -0.166 0.503 0.333 0z"/>
  <path id="46" class="fil6" d="M13.443 11.067l0 0.251 0.235 0c0.042,0 0.075,-0.003 0.097,-0.01 0.022,-0.007 0.039,-0.019 0.049,-0.039 0.01,-0.019 0.016,-0.048 0.016,-0.086 0,-0.045 -0.01,-0.075 -0.03,-0.092 -0.02,-0.016 -0.053,-0.025 -0.1,-0.025l-0.267 0zm0 0.389l0 0.272 0.235 0c0.064,0 0.111,-0.01 0.14,-0.03 0.029,-0.02 0.044,-0.056 0.044,-0.108 0,-0.034 -0.005,-0.061 -0.015,-0.081 -0.01,-0.019 -0.026,-0.033 -0.047,-0.041 -0.022,-0.008 -0.051,-0.012 -0.088,-0.012l-0.269 0zm-0.184 0.425l0 -0.969 0.497 0c0.059,0 0.108,0.008 0.148,0.025 0.04,0.017 0.07,0.044 0.091,0.08 0.021,0.036 0.031,0.082 0.031,0.138 0,0.123 -0.046,0.197 -0.138,0.223l0 0.006c0.052,0.008 0.091,0.031 0.119,0.069 0.028,0.038 0.041,0.088 0.041,0.15 0,0.043 -0.006,0.081 -0.017,0.116 -0.011,0.034 -0.028,0.064 -0.052,0.088 -0.023,0.024 -0.052,0.043 -0.086,0.055 -0.034,0.013 -0.075,0.019 -0.122,0.019l-0.512 0z"/>
  <polygon id="47" class="fil6" points="14.365,11.067 14.365,11.319 14.819,11.319 14.819,11.457 14.365,11.457 14.365,11.729 14.846,11.729 14.846,11.882 14.181,11.882 14.181,10.913 14.842,10.913 14.842,11.067 "/>
  <path id="48" class="fil6" d="M14.994 11.723c0.019,-0.02 0.035,-0.042 0.048,-0.066 0.013,-0.024 0.023,-0.052 0.031,-0.083 0.008,-0.031 0.013,-0.067 0.017,-0.109 0.003,-0.041 0.005,-0.089 0.006,-0.144l0 -0.409 0.701 0 0 0.811 0.087 0 0 0.383 -0.173 0 0 -0.224 -0.614 0 0 0.224 -0.175 0 0 -0.383 0.073 0zm0.282 -0.652l0 0.249c0,0.069 -0.002,0.129 -0.007,0.178 -0.005,0.049 -0.014,0.093 -0.027,0.13 -0.013,0.037 -0.03,0.069 -0.052,0.094l0.419 0 0 -0.652 -0.334 0z"/>
  <polygon id="49" class="fil6" points="16.191,11.067 16.191,11.319 16.645,11.319 16.645,11.457 16.191,11.457 16.191,11.729 16.672,11.729 16.672,11.882 16.007,11.882 16.007,10.913 16.668,10.913 16.668,11.067 "/>
  <polygon id="50" class="fil6" points="17.629,10.913 17.629,11.882 17.443,11.882 17.443,11.468 16.991,11.468 16.991,11.882 16.805,11.882 16.805,10.913 16.991,10.913 16.991,11.31 17.443,11.31 17.443,10.913 "/>
  <path id="51" class="fil6" d="M18.646 10.913l-0.266 0 -0.33 0.649c-0.011,0.022 -0.021,0.041 -0.029,0.057 -0.008,0.016 -0.025,0.05 -0.051,0.102 0.009,-0.047 0.014,-0.104 0.014,-0.172l0 -0.636 -0.186 0 0 0.969 0.266 0 0.33 -0.651c0.011,-0.023 0.022,-0.044 0.032,-0.063 0.01,-0.019 0.026,-0.051 0.048,-0.096 -0.01,0.047 -0.014,0.104 -0.014,0.172l0 0.639 0.186 0 0 -0.969z"/>
  <path id="52" class="fil6" d="M19.575 11.882l0 -0.969 -0.49 0c-0.101,0 -0.176,0.027 -0.224,0.082 -0.047,0.055 -0.071,0.132 -0.071,0.231 0,0.082 0.016,0.144 0.047,0.187 0.032,0.043 0.078,0.077 0.139,0.102l-0.212 0.366 0.212 0 0.19 -0.341 0.225 0 0 0.341 0.184 0zm-0.184 -0.49l-0.269 0c-0.035,0 -0.063,-0.005 -0.084,-0.014 -0.021,-0.01 -0.037,-0.026 -0.047,-0.05 -0.01,-0.024 -0.015,-0.056 -0.015,-0.098 0,-0.058 0.011,-0.098 0.033,-0.122 0.022,-0.023 0.06,-0.035 0.113,-0.035l0.269 -0.001 0 0.319z"/>
  <polygon id="53" class="fil6" points="20.885,10.913 20.885,11.882 20.701,11.882 20.701,11.065 20.396,11.882 20.229,11.882 19.925,11.071 19.925,11.882 19.741,11.882 19.741,10.913 20.045,10.913 20.308,11.632 20.313,11.632 20.571,10.913 "/>
  <path id="54" class="fil6" d="M21.897 10.913l-0.266 0 -0.33 0.649c-0.011,0.022 -0.021,0.041 -0.029,0.057 -0.008,0.016 -0.025,0.05 -0.051,0.102 0.009,-0.047 0.014,-0.104 0.014,-0.172l0 -0.636 -0.186 0 0 0.969 0.266 0 0.33 -0.651c0.011,-0.023 0.022,-0.044 0.032,-0.063 0.01,-0.019 0.026,-0.051 0.048,-0.096 -0.01,0.047 -0.014,0.104 -0.014,0.172l0 0.639 0.186 0 0 -0.969z"/>
  <path id="55" class="fil6" d="M22.603 11.067l0 0.251 0.235 0c0.042,0 0.075,-0.003 0.097,-0.01 0.022,-0.007 0.039,-0.019 0.049,-0.039 0.01,-0.019 0.016,-0.048 0.016,-0.086 0,-0.045 -0.01,-0.075 -0.03,-0.092 -0.02,-0.016 -0.053,-0.025 -0.1,-0.025l-0.267 0zm0 0.389l0 0.272 0.235 0c0.064,0 0.111,-0.01 0.14,-0.03 0.029,-0.02 0.044,-0.056 0.044,-0.108 0,-0.034 -0.005,-0.061 -0.015,-0.081 -0.01,-0.019 -0.026,-0.033 -0.047,-0.041 -0.022,-0.008 -0.051,-0.012 -0.088,-0.012l-0.269 0zm-0.184 0.425l0 -0.969 0.497 0c0.059,0 0.108,0.008 0.148,0.025 0.04,0.017 0.07,0.044 0.091,0.08 0.021,0.036 0.031,0.082 0.031,0.138 0,0.123 -0.046,0.197 -0.138,0.223l0 0.006c0.052,0.008 0.091,0.031 0.119,0.069 0.028,0.038 0.041,0.088 0.041,0.15 0,0.043 -0.006,0.081 -0.017,0.116 -0.011,0.034 -0.028,0.064 -0.052,0.088 -0.023,0.024 -0.052,0.043 -0.086,0.055 -0.034,0.013 -0.075,0.019 -0.122,0.019l-0.512 0z"/>
  <path id="56" class="fil6" d="M24.29 11.535l0.182 0 0 0.057c0,0.075 -0.013,0.134 -0.039,0.178 -0.026,0.044 -0.067,0.075 -0.125,0.094 -0.058,0.019 -0.137,0.029 -0.237,0.029 -0.082,0 -0.149,-0.008 -0.201,-0.023 -0.051,-0.015 -0.093,-0.042 -0.123,-0.08 -0.03,-0.038 -0.052,-0.089 -0.065,-0.154 -0.013,-0.065 -0.019,-0.15 -0.019,-0.255 0,-0.116 0.012,-0.208 0.035,-0.277 0.023,-0.068 0.064,-0.119 0.122,-0.151 0.058,-0.033 0.14,-0.049 0.245,-0.049 0.104,0 0.185,0.012 0.241,0.036 0.056,0.024 0.096,0.06 0.119,0.108 0.023,0.048 0.037,0.111 0.042,0.191l-0.181 0c-0.003,-0.051 -0.011,-0.089 -0.024,-0.113 -0.013,-0.024 -0.034,-0.04 -0.064,-0.049 -0.03,-0.008 -0.074,-0.013 -0.133,-0.013 -0.061,0 -0.106,0.008 -0.135,0.024 -0.029,0.016 -0.049,0.047 -0.06,0.093 -0.011,0.046 -0.017,0.119 -0.017,0.219 0,0.071 0.003,0.128 0.01,0.171 0.006,0.043 0.017,0.077 0.033,0.101 0.016,0.024 0.037,0.04 0.064,0.05 0.027,0.009 0.063,0.014 0.109,0.014 0.058,0 0.103,-0.004 0.134,-0.012 0.031,-0.008 0.054,-0.022 0.067,-0.041 0.013,-0.02 0.02,-0.048 0.02,-0.084l0 -0.061z"/>
  <path id="57" class="fil6" d="M25.221 11.161l0 0.454 0.123 0c0.066,0 0.113,-0.017 0.139,-0.051 0.027,-0.034 0.04,-0.092 0.04,-0.174 0,-0.055 -0.006,-0.099 -0.017,-0.133 -0.011,-0.033 -0.03,-0.058 -0.056,-0.073 -0.026,-0.016 -0.061,-0.023 -0.106,-0.023l-0.123 0zm-0.184 0.612l-0.117 0c-0.085,0 -0.155,-0.013 -0.209,-0.04 -0.055,-0.026 -0.095,-0.068 -0.122,-0.124 -0.027,-0.056 -0.04,-0.129 -0.04,-0.218 0,-0.069 0.008,-0.127 0.023,-0.176 0.016,-0.049 0.039,-0.089 0.07,-0.12 0.031,-0.031 0.071,-0.054 0.118,-0.069 0.048,-0.015 0.104,-0.022 0.17,-0.022l0.106 0 0 -0.092 0.184 0 0 0.092 0.116 0c0.066,0 0.121,0.008 0.168,0.023 0.046,0.015 0.084,0.039 0.115,0.07 0.03,0.031 0.053,0.071 0.067,0.12 0.014,0.048 0.022,0.106 0.022,0.174 0,0.089 -0.013,0.162 -0.039,0.219 -0.026,0.056 -0.066,0.098 -0.121,0.124 -0.055,0.027 -0.125,0.04 -0.211,0.04l-0.116 0 0 0.109 -0.184 0 0 -0.109zm0 -0.612l-0.123 0c-0.043,0 -0.078,0.008 -0.104,0.023 -0.026,0.016 -0.045,0.04 -0.057,0.074 -0.012,0.033 -0.018,0.077 -0.018,0.132 0,0.054 0.006,0.097 0.018,0.13 0.012,0.033 0.031,0.057 0.057,0.072 0.026,0.015 0.061,0.022 0.104,0.022l0.122 0 0 -0.454z"/>
  <polygon id="58" class="fil6" points="26.023,11.067 26.023,11.319 26.477,11.319 26.477,11.457 26.023,11.457 26.023,11.729 26.504,11.729 26.504,11.882 25.839,11.882 25.839,10.913 26.5,10.913 26.5,11.067 "/>
  <path id="59" class="fil6" d="M26.637 11.882l0 -0.969 0.412 0c0.085,0 0.153,0.008 0.204,0.025 0.052,0.017 0.091,0.049 0.118,0.095 0.027,0.046 0.04,0.112 0.04,0.198 0,0.066 -0.006,0.121 -0.018,0.164 -0.012,0.043 -0.032,0.076 -0.058,0.101 -0.027,0.025 -0.062,0.042 -0.105,0.052 -0.043,0.01 -0.098,0.015 -0.164,0.015l-0.243 0 0 0.318 -0.186 0zm0.186 -0.473l0.229 0c0.044,0 0.078,-0.005 0.102,-0.014 0.024,-0.009 0.042,-0.025 0.053,-0.048 0.011,-0.023 0.016,-0.056 0.016,-0.099 0,-0.047 -0.005,-0.083 -0.016,-0.109 -0.011,-0.026 -0.029,-0.044 -0.053,-0.054 -0.025,-0.011 -0.058,-0.016 -0.101,-0.016l-0.229 0 0 0.339z"/>
  <polygon id="60" class="fil6" points="27.732,11.067 27.732,11.319 28.186,11.319 28.186,11.457 27.732,11.457 27.732,11.729 28.213,11.729 28.213,11.882 27.549,11.882 27.549,10.913 28.209,10.913 28.209,11.067 "/>
  <polygon id="61" class="fil6" points="28.878,10.913 28.878,11.309 28.964,11.309 29.288,10.913 29.515,10.913 29.124,11.385 29.557,11.882 29.322,11.882 28.964,11.468 28.878,11.468 28.878,11.882 28.692,11.882 28.692,10.913 "/>
  <path id="62" class="fil6" d="M30.26 10.913l-0.188 0.486c-0.015,0.045 -0.028,0.092 -0.037,0.14 -0.006,-0.069 -0.015,-0.114 -0.026,-0.135l-0.194 -0.492 -0.224 0 0.334 0.714c0.009,0.019 0.013,0.033 0.013,0.044 0,0.01 -0.003,0.02 -0.01,0.03 -0.014,0.019 -0.048,0.028 -0.102,0.028 -0.011,0 -0.033,-0.002 -0.066,-0.007l0 0.158c0.039,0.004 0.078,0.006 0.117,0.006 0.037,0 0.072,-0.006 0.102,-0.019 0.03,-0.012 0.059,-0.034 0.086,-0.066 0.027,-0.032 0.053,-0.075 0.078,-0.131l0.336 -0.758 -0.22 0z"/>
  <path id="63" class="fil6" d="M31.408 10.913l0 0.969 -0.185 0 0 -0.809 -0.369 0 0 0.542c0,0.078 -0.019,0.143 -0.058,0.194 -0.039,0.051 -0.101,0.076 -0.186,0.076 -0.031,0 -0.063,-0.003 -0.095,-0.009l0 -0.153c0.015,0.003 0.035,0.004 0.058,0.004 0.037,0 0.063,-0.009 0.078,-0.026 0.014,-0.017 0.022,-0.041 0.022,-0.072l0 -0.715 0.736 0z"/>
  <path id="64" class="fil6" d="M31.579 11.882l0 -0.969 0.186 0 0 0.378 0.305 0c0.089,0 0.158,0.026 0.205,0.078 0.047,0.052 0.071,0.125 0.071,0.219 0,0.062 -0.011,0.114 -0.031,0.158 -0.021,0.044 -0.052,0.078 -0.093,0.101 -0.041,0.023 -0.091,0.034 -0.15,0.034l-0.494 0zm0.186 -0.154l0.243 0c0.039,0 0.069,-0.004 0.091,-0.011 0.022,-0.008 0.037,-0.021 0.047,-0.041 0.01,-0.02 0.015,-0.049 0.015,-0.086 0,-0.055 -0.012,-0.093 -0.035,-0.114 -0.023,-0.021 -0.063,-0.031 -0.118,-0.031l-0.243 0 0 0.283z"/>
  <polygon id="65" class="fil6" points="32.718,11.882 32.718,11.075 32.438,11.075 32.438,10.913 33.193,10.913 33.193,11.075 32.906,11.075 32.906,11.882 "/>
  <path id="66" class="fil6" d="M33.911 10.913l-0.188 0.486c-0.015,0.045 -0.028,0.092 -0.037,0.14 -0.006,-0.069 -0.015,-0.114 -0.026,-0.135l-0.194 -0.492 -0.224 0 0.334 0.714c0.009,0.019 0.013,0.033 0.013,0.044 0,0.01 -0.003,0.02 -0.01,0.03 -0.014,0.019 -0.048,0.028 -0.102,0.028 -0.011,0 -0.033,-0.002 -0.066,-0.007l0 0.158c0.039,0.004 0.078,0.006 0.117,0.006 0.037,0 0.072,-0.006 0.102,-0.019 0.03,-0.012 0.059,-0.034 0.086,-0.066 0.027,-0.032 0.053,-0.075 0.078,-0.131l0.336 -0.758 -0.22 0z"/>
  <path id="67" class="fil6" d="M34.231 11.882l0 -0.969 0.412 0c0.085,0 0.153,0.008 0.204,0.025 0.052,0.017 0.091,0.049 0.118,0.095 0.027,0.046 0.04,0.112 0.04,0.198 0,0.066 -0.006,0.121 -0.018,0.164 -0.012,0.043 -0.032,0.076 -0.058,0.101 -0.027,0.025 -0.062,0.042 -0.105,0.052 -0.043,0.01 -0.098,0.015 -0.164,0.015l-0.243 0 0 0.318 -0.186 0zm0.186 -0.473l0.229 0c0.044,0 0.078,-0.005 0.102,-0.014 0.024,-0.009 0.042,-0.025 0.053,-0.048 0.011,-0.023 0.016,-0.056 0.016,-0.099 0,-0.047 -0.005,-0.083 -0.016,-0.109 -0.011,-0.026 -0.029,-0.044 -0.053,-0.054 -0.025,-0.011 -0.058,-0.016 -0.101,-0.016l-0.229 0 0 0.339z"/>
  <path id="68" class="fil6" d="M35.14 11.882l0 -0.969 0.186 0 0 0.378 0.305 0c0.044,0 0.084,0.007 0.119,0.02 0.035,0.013 0.064,0.033 0.087,0.059 0.024,0.026 0.042,0.057 0.054,0.094 0.012,0.037 0.018,0.078 0.018,0.124 0,0.061 -0.011,0.114 -0.032,0.158 -0.022,0.044 -0.053,0.078 -0.094,0.101 -0.041,0.023 -0.091,0.035 -0.149,0.035l-0.494 0zm0.186 -0.154l0.243 0c0.039,0 0.07,-0.004 0.092,-0.011 0.022,-0.008 0.037,-0.021 0.047,-0.041 0.01,-0.02 0.015,-0.049 0.015,-0.086 0,-0.055 -0.012,-0.093 -0.035,-0.113 -0.023,-0.021 -0.063,-0.031 -0.119,-0.031l-0.243 0 0 0.283zm0.932 -0.815l0 0.969 -0.186 0 0 -0.969 0.186 0z"/>
  <path id="69" class="fil6" d="M36.584 11.708l0 0.17c0,0.043 -0.004,0.077 -0.012,0.1 -0.008,0.023 -0.023,0.041 -0.046,0.052 -0.023,0.011 -0.056,0.016 -0.1,0.016 -0.008,0 -0.013,-0 -0.017,-0.001l0 -0.077c0.028,-0.001 0.047,-0.005 0.059,-0.014 0.012,-0.009 0.017,-0.026 0.017,-0.052l0.001 -0.021 -0.066 0 0 -0.173 0.163 0z"/>
  <path id="70" class="fil6" d="M2.257 13.071l0.182 0 0 0.057c0,0.075 -0.013,0.134 -0.039,0.178 -0.026,0.044 -0.067,0.075 -0.125,0.094 -0.058,0.019 -0.137,0.029 -0.237,0.029 -0.082,0 -0.149,-0.008 -0.201,-0.023 -0.051,-0.015 -0.093,-0.042 -0.123,-0.08 -0.03,-0.038 -0.052,-0.089 -0.065,-0.154 -0.013,-0.065 -0.019,-0.15 -0.019,-0.255 0,-0.116 0.012,-0.208 0.035,-0.277 0.023,-0.068 0.064,-0.119 0.122,-0.151 0.058,-0.033 0.14,-0.049 0.245,-0.049 0.104,0 0.185,0.012 0.241,0.036 0.056,0.024 0.096,0.06 0.119,0.108 0.023,0.048 0.037,0.111 0.042,0.191l-0.181 0c-0.003,-0.051 -0.011,-0.089 -0.024,-0.113 -0.013,-0.024 -0.034,-0.04 -0.064,-0.049 -0.03,-0.008 -0.074,-0.013 -0.133,-0.013 -0.061,0 -0.106,0.008 -0.135,0.024 -0.029,0.016 -0.049,0.047 -0.06,0.093 -0.011,0.046 -0.017,0.119 -0.017,0.219 0,0.071 0.003,0.128 0.01,0.171 0.006,0.043 0.017,0.077 0.033,0.101 0.016,0.024 0.037,0.04 0.064,0.05 0.027,0.009 0.063,0.014 0.109,0.014 0.058,0 0.103,-0.004 0.134,-0.012 0.031,-0.008 0.054,-0.022 0.067,-0.041 0.013,-0.02 0.02,-0.048 0.02,-0.084l0 -0.061z"/>
  <polygon id="71" class="fil6" points="2.737,12.603 2.737,12.855 3.191,12.855 3.191,12.993 2.737,12.993 2.737,13.265 3.218,13.265 3.218,13.417 2.554,13.417 2.554,12.449 3.214,12.449 3.214,12.603 "/>
  <path id="72" class="fil6" d="M4.179 12.449l0 0.969 -0.185 0 0 -0.809 -0.369 0 0 0.542c0,0.078 -0.019,0.143 -0.058,0.194 -0.039,0.051 -0.101,0.076 -0.186,0.076 -0.031,0 -0.063,-0.003 -0.095,-0.009l0 -0.153c0.015,0.003 0.035,0.004 0.058,0.004 0.037,0 0.063,-0.009 0.078,-0.026 0.014,-0.017 0.022,-0.041 0.022,-0.072l0 -0.715 0.736 0z"/>
  <path id="73" class="fil6" d="M4.35 13.417l0 -0.969 0.186 0 0 0.378 0.305 0c0.089,0 0.158,0.026 0.205,0.078 0.047,0.052 0.071,0.125 0.071,0.219 0,0.062 -0.011,0.114 -0.031,0.158 -0.021,0.044 -0.052,0.078 -0.093,0.101 -0.041,0.023 -0.091,0.034 -0.15,0.034l-0.494 0zm0.186 -0.154l0.243 0c0.039,0 0.069,-0.004 0.091,-0.011 0.022,-0.008 0.037,-0.021 0.047,-0.041 0.01,-0.02 0.015,-0.049 0.015,-0.086 0,-0.055 -0.012,-0.093 -0.035,-0.114 -0.023,-0.021 -0.063,-0.031 -0.118,-0.031l-0.243 0 0 0.283z"/>
  <path id="74" class="fil6" d="M5.864 13.071l0.182 0 0 0.057c0,0.075 -0.013,0.134 -0.039,0.178 -0.026,0.044 -0.067,0.075 -0.125,0.094 -0.058,0.019 -0.137,0.029 -0.237,0.029 -0.082,0 -0.149,-0.008 -0.201,-0.023 -0.051,-0.015 -0.093,-0.042 -0.123,-0.08 -0.03,-0.038 -0.052,-0.089 -0.065,-0.154 -0.013,-0.065 -0.019,-0.15 -0.019,-0.255 0,-0.116 0.012,-0.208 0.035,-0.277 0.023,-0.068 0.064,-0.119 0.122,-0.151 0.058,-0.033 0.14,-0.049 0.245,-0.049 0.104,0 0.185,0.012 0.241,0.036 0.056,0.024 0.096,0.06 0.119,0.108 0.023,0.048 0.037,0.111 0.042,0.191l-0.181 0c-0.003,-0.051 -0.011,-0.089 -0.024,-0.113 -0.013,-0.024 -0.034,-0.04 -0.064,-0.049 -0.03,-0.008 -0.074,-0.013 -0.133,-0.013 -0.061,0 -0.106,0.008 -0.135,0.024 -0.029,0.016 -0.049,0.047 -0.06,0.093 -0.011,0.046 -0.017,0.119 -0.017,0.219 0,0.071 0.003,0.128 0.01,0.171 0.006,0.043 0.017,0.077 0.033,0.101 0.016,0.024 0.037,0.04 0.064,0.05 0.027,0.009 0.063,0.014 0.109,0.014 0.058,0 0.103,-0.004 0.134,-0.012 0.031,-0.008 0.054,-0.022 0.067,-0.041 0.013,-0.02 0.02,-0.048 0.02,-0.084l0 -0.061z"/>
  <polygon id="75" class="fil6" points="6.346,12.449 6.346,12.844 6.433,12.844 6.756,12.449 6.983,12.449 6.592,12.921 7.025,13.417 6.79,13.417 6.433,13.003 6.346,13.003 6.346,13.417 6.16,13.417 6.16,12.449 "/>
  <path id="76" class="fil6" d="M7.116 12.913c0,-0.096 0.006,-0.174 0.019,-0.234 0.012,-0.06 0.034,-0.107 0.064,-0.143 0.03,-0.035 0.072,-0.06 0.124,-0.076 0.053,-0.015 0.121,-0.023 0.206,-0.023 0.084,0 0.153,0.008 0.205,0.023 0.053,0.015 0.094,0.04 0.125,0.076 0.031,0.035 0.053,0.083 0.065,0.143 0.013,0.06 0.02,0.138 0.02,0.233 0,0.11 -0.007,0.198 -0.02,0.264 -0.013,0.066 -0.035,0.118 -0.065,0.155 -0.031,0.036 -0.072,0.062 -0.124,0.076 -0.052,0.014 -0.121,0.022 -0.206,0.022 -0.091,0 -0.162,-0.007 -0.215,-0.021 -0.053,-0.014 -0.094,-0.039 -0.122,-0.076 -0.029,-0.036 -0.049,-0.088 -0.06,-0.153 -0.011,-0.065 -0.017,-0.155 -0.017,-0.267zm0.189 0.02c0,0.081 0.003,0.142 0.008,0.185 0.006,0.043 0.016,0.075 0.031,0.097 0.015,0.022 0.037,0.037 0.065,0.044 0.028,0.007 0.068,0.011 0.12,0.011 0.051,0 0.092,-0.004 0.12,-0.012 0.029,-0.008 0.051,-0.023 0.066,-0.045 0.015,-0.022 0.026,-0.055 0.031,-0.097 0.006,-0.042 0.009,-0.103 0.009,-0.183 0,-0.081 -0.003,-0.143 -0.009,-0.187 -0.006,-0.044 -0.017,-0.077 -0.033,-0.098 -0.016,-0.021 -0.037,-0.036 -0.064,-0.042 -0.027,-0.006 -0.067,-0.01 -0.12,-0.01 -0.054,0 -0.095,0.003 -0.122,0.009 -0.027,0.006 -0.048,0.02 -0.063,0.042 -0.015,0.022 -0.025,0.054 -0.031,0.097 -0.006,0.043 -0.008,0.106 -0.008,0.188z"/>
  <polygon id="77" class="fil6" points="8.283,13.417 8.283,12.61 8.731,12.61 8.731,12.449 8.096,12.449 8.096,13.417 "/>
  <path id="78" class="fil6" d="M8.818 12.913c0,-0.096 0.006,-0.174 0.019,-0.234 0.012,-0.06 0.034,-0.107 0.064,-0.143 0.03,-0.035 0.072,-0.06 0.124,-0.076 0.053,-0.015 0.121,-0.023 0.206,-0.023 0.084,0 0.153,0.008 0.205,0.023 0.053,0.015 0.094,0.04 0.125,0.076 0.031,0.035 0.053,0.083 0.065,0.143 0.013,0.06 0.02,0.138 0.02,0.233 0,0.11 -0.007,0.198 -0.02,0.264 -0.013,0.066 -0.035,0.118 -0.065,0.155 -0.031,0.036 -0.072,0.062 -0.124,0.076 -0.052,0.014 -0.121,0.022 -0.206,0.022 -0.091,0 -0.162,-0.007 -0.215,-0.021 -0.053,-0.014 -0.094,-0.039 -0.122,-0.076 -0.029,-0.036 -0.049,-0.088 -0.06,-0.153 -0.011,-0.065 -0.017,-0.155 -0.017,-0.267zm0.189 0.02c0,0.081 0.003,0.142 0.008,0.185 0.006,0.043 0.016,0.075 0.031,0.097 0.015,0.022 0.037,0.037 0.065,0.044 0.028,0.007 0.068,0.011 0.12,0.011 0.051,0 0.092,-0.004 0.12,-0.012 0.029,-0.008 0.051,-0.023 0.066,-0.045 0.015,-0.022 0.026,-0.055 0.031,-0.097 0.006,-0.042 0.009,-0.103 0.009,-0.183 0,-0.081 -0.003,-0.143 -0.009,-0.187 -0.006,-0.044 -0.017,-0.077 -0.033,-0.098 -0.016,-0.021 -0.037,-0.036 -0.064,-0.042 -0.027,-0.006 -0.067,-0.01 -0.12,-0.01 -0.054,0 -0.095,0.003 -0.122,0.009 -0.027,0.006 -0.048,0.02 -0.063,0.042 -0.015,0.022 -0.025,0.054 -0.031,0.097 -0.006,0.043 -0.008,0.106 -0.008,0.188z"/>
  <polygon id="79" class="fil6" points="10.968,12.449 10.681,12.917 10.99,13.417 10.776,13.417 10.532,13.01 10.287,13.417 10.068,13.417 10.386,12.917 10.091,12.449 10.307,12.449 10.532,12.833 10.756,12.449 "/>
  <path id="80" class="fil6" d="M11.079 12.913c0,-0.096 0.006,-0.174 0.019,-0.234 0.012,-0.06 0.034,-0.107 0.064,-0.143 0.03,-0.035 0.072,-0.06 0.124,-0.076 0.053,-0.015 0.121,-0.023 0.206,-0.023 0.084,0 0.153,0.008 0.205,0.023 0.053,0.015 0.094,0.04 0.125,0.076 0.031,0.035 0.053,0.083 0.065,0.143 0.013,0.06 0.02,0.138 0.02,0.233 0,0.11 -0.007,0.198 -0.02,0.264 -0.013,0.066 -0.035,0.118 -0.065,0.155 -0.031,0.036 -0.072,0.062 -0.124,0.076 -0.052,0.014 -0.121,0.022 -0.206,0.022 -0.091,0 -0.162,-0.007 -0.215,-0.021 -0.053,-0.014 -0.094,-0.039 -0.122,-0.076 -0.029,-0.036 -0.049,-0.088 -0.06,-0.153 -0.011,-0.065 -0.017,-0.155 -0.017,-0.267zm0.189 0.02c0,0.081 0.003,0.142 0.008,0.185 0.006,0.043 0.016,0.075 0.031,0.097 0.015,0.022 0.037,0.037 0.065,0.044 0.028,0.007 0.068,0.011 0.12,0.011 0.051,0 0.092,-0.004 0.12,-0.012 0.029,-0.008 0.051,-0.023 0.066,-0.045 0.015,-0.022 0.026,-0.055 0.031,-0.097 0.006,-0.042 0.009,-0.103 0.009,-0.183 0,-0.081 -0.003,-0.143 -0.009,-0.187 -0.006,-0.044 -0.017,-0.077 -0.033,-0.098 -0.016,-0.021 -0.037,-0.036 -0.064,-0.042 -0.027,-0.006 -0.067,-0.01 -0.12,-0.01 -0.054,0 -0.095,0.003 -0.122,0.009 -0.027,0.006 -0.048,0.02 -0.063,0.042 -0.015,0.022 -0.025,0.054 -0.031,0.097 -0.006,0.043 -0.008,0.106 -0.008,0.188z"/>
  <path id="81" class="fil6" d="M12.295 12.856l0.15 0c0.058,0 0.1,-0.011 0.128,-0.032 0.027,-0.021 0.041,-0.055 0.041,-0.102 0,-0.036 -0.006,-0.063 -0.018,-0.083 -0.012,-0.02 -0.033,-0.034 -0.061,-0.042 -0.028,-0.008 -0.069,-0.013 -0.121,-0.013 -0.043,0 -0.077,0.002 -0.102,0.007 -0.025,0.005 -0.046,0.012 -0.06,0.023 -0.015,0.011 -0.025,0.026 -0.031,0.045 -0.006,0.019 -0.009,0.043 -0.01,0.074l-0.177 0c0.006,-0.078 0.022,-0.139 0.047,-0.181 0.026,-0.042 0.065,-0.072 0.118,-0.089 0.053,-0.017 0.125,-0.025 0.218,-0.025 0.127,0 0.221,0.02 0.283,0.061 0.062,0.041 0.092,0.103 0.092,0.188 0,0.068 -0.01,0.119 -0.03,0.153 -0.02,0.033 -0.056,0.058 -0.107,0.075l0 0.005c0.042,0.011 0.074,0.026 0.098,0.044 0.023,0.018 0.04,0.041 0.05,0.07 0.01,0.028 0.014,0.064 0.014,0.106 0,0.068 -0.012,0.123 -0.035,0.164 -0.023,0.041 -0.064,0.072 -0.122,0.093 -0.058,0.02 -0.139,0.03 -0.244,0.03 -0.065,0 -0.121,-0.004 -0.169,-0.011 -0.047,-0.008 -0.087,-0.021 -0.12,-0.041 -0.033,-0.02 -0.058,-0.049 -0.075,-0.086 -0.017,-0.037 -0.026,-0.085 -0.026,-0.143l0 -0.04 0.175 0c0.001,0.049 0.006,0.085 0.013,0.108 0.008,0.023 0.027,0.039 0.057,0.05 0.03,0.011 0.078,0.017 0.144,0.017 0.058,0 0.103,-0.004 0.135,-0.013 0.032,-0.009 0.055,-0.023 0.069,-0.043 0.014,-0.02 0.021,-0.048 0.021,-0.085 0,-0.052 -0.013,-0.09 -0.04,-0.112 -0.027,-0.022 -0.068,-0.034 -0.123,-0.034l-0.18 0 0 -0.138z"/>
  <path id="82" class="fil6" d="M13.695 13.417l0 -0.969 -0.49 0c-0.101,0 -0.176,0.027 -0.224,0.082 -0.047,0.055 -0.071,0.132 -0.071,0.231 0,0.082 0.016,0.144 0.047,0.187 0.032,0.043 0.078,0.077 0.139,0.102l-0.212 0.366 0.212 0 0.19 -0.341 0.225 0 0 0.341 0.184 0zm-0.184 -0.49l-0.269 0c-0.035,0 -0.063,-0.005 -0.084,-0.014 -0.021,-0.01 -0.037,-0.026 -0.047,-0.05 -0.01,-0.024 -0.015,-0.056 -0.015,-0.098 0,-0.058 0.011,-0.098 0.033,-0.122 0.022,-0.023 0.06,-0.035 0.113,-0.035l0.269 -0.001 0 0.319z"/>
  <path id="83" class="fil6" d="M14.713 12.449l-0.266 0 -0.33 0.649c-0.01,0.019 -0.021,0.041 -0.034,0.067 -0.013,0.026 -0.028,0.057 -0.046,0.09 0.009,-0.045 0.014,-0.102 0.014,-0.171l0 -0.636 -0.186 0 0 0.969 0.266 0 0.33 -0.653c0.011,-0.022 0.038,-0.075 0.08,-0.158 -0.01,0.046 -0.014,0.103 -0.014,0.172l0 0.639 0.186 0 0 -0.969zm-0.446 -0.057c-0.069,0 -0.122,-0.014 -0.161,-0.041 -0.038,-0.028 -0.058,-0.076 -0.058,-0.145l0.12 0c0,0.02 0.003,0.036 0.008,0.047 0.005,0.011 0.015,0.018 0.029,0.023 0.014,0.005 0.034,0.007 0.061,0.007 0.043,0 0.071,-0.005 0.085,-0.016 0.014,-0.01 0.021,-0.031 0.021,-0.061l0.117 0c0,0.069 -0.019,0.118 -0.058,0.145 -0.039,0.027 -0.094,0.041 -0.164,0.041z"/>
  <path id="84" class="fil6" d="M15.493 13.071l0.182 0 0 0.057c0,0.075 -0.013,0.134 -0.039,0.178 -0.026,0.044 -0.067,0.075 -0.125,0.094 -0.058,0.019 -0.137,0.029 -0.237,0.029 -0.082,0 -0.149,-0.008 -0.201,-0.023 -0.051,-0.015 -0.093,-0.042 -0.123,-0.08 -0.03,-0.038 -0.052,-0.089 -0.065,-0.154 -0.013,-0.065 -0.019,-0.15 -0.019,-0.255 0,-0.116 0.012,-0.208 0.035,-0.277 0.023,-0.068 0.064,-0.119 0.122,-0.151 0.058,-0.033 0.14,-0.049 0.245,-0.049 0.104,0 0.185,0.012 0.241,0.036 0.056,0.024 0.096,0.06 0.119,0.108 0.023,0.048 0.037,0.111 0.042,0.191l-0.181 0c-0.003,-0.051 -0.011,-0.089 -0.024,-0.113 -0.013,-0.024 -0.034,-0.04 -0.064,-0.049 -0.03,-0.008 -0.074,-0.013 -0.133,-0.013 -0.061,0 -0.106,0.008 -0.135,0.024 -0.029,0.016 -0.049,0.047 -0.06,0.093 -0.011,0.046 -0.017,0.119 -0.017,0.219 0,0.071 0.003,0.128 0.01,0.171 0.006,0.043 0.017,0.077 0.033,0.101 0.016,0.024 0.037,0.04 0.064,0.05 0.027,0.009 0.063,0.014 0.109,0.014 0.058,0 0.103,-0.004 0.134,-0.012 0.031,-0.008 0.054,-0.022 0.067,-0.041 0.013,-0.02 0.02,-0.048 0.02,-0.084l0 -0.061z"/>
  <polygon id="85" class="fil6" points="16.016,13.417 16.016,12.61 15.736,12.61 15.736,12.449 16.491,12.449 16.491,12.61 16.204,12.61 16.204,13.417 "/>
  <path id="86" class="fil6" d="M16.793 12.603l0 0.251 0.235 0c0.042,0 0.075,-0.003 0.097,-0.01 0.022,-0.007 0.039,-0.019 0.049,-0.039 0.01,-0.019 0.016,-0.048 0.016,-0.086 0,-0.045 -0.01,-0.075 -0.03,-0.092 -0.02,-0.016 -0.053,-0.025 -0.1,-0.025l-0.267 0zm0 0.389l0 0.272 0.235 0c0.064,0 0.111,-0.01 0.14,-0.03 0.029,-0.02 0.044,-0.056 0.044,-0.108 0,-0.034 -0.005,-0.061 -0.015,-0.081 -0.01,-0.019 -0.026,-0.033 -0.047,-0.041 -0.022,-0.008 -0.051,-0.012 -0.088,-0.012l-0.269 0zm-0.184 0.425l0 -0.969 0.497 0c0.059,0 0.108,0.008 0.148,0.025 0.04,0.017 0.07,0.044 0.091,0.08 0.021,0.036 0.031,0.082 0.031,0.138 0,0.123 -0.046,0.197 -0.138,0.223l0 0.006c0.052,0.008 0.091,0.031 0.119,0.069 0.028,0.038 0.041,0.088 0.041,0.15 0,0.043 -0.006,0.081 -0.017,0.116 -0.011,0.034 -0.028,0.064 -0.052,0.088 -0.023,0.024 -0.052,0.043 -0.086,0.055 -0.034,0.013 -0.075,0.019 -0.122,0.019l-0.512 0z"/>
  <path id="87" class="fil6" d="M18.143 13.232l-0.419 0 -0.061 0.185 -0.193 0 0.322 -0.969 0.273 0 0.328 0.969 -0.189 0 -0.062 -0.185zm-0.043 -0.138l-0.168 -0.503 -0.166 0.503 0.333 0z"/>
  <path id="88" class="fil6" d="M18.656 13.244l0 0.17c0,0.043 -0.004,0.077 -0.012,0.1 -0.008,0.023 -0.023,0.041 -0.046,0.052 -0.023,0.011 -0.056,0.016 -0.1,0.016 -0.008,0 -0.013,-0 -0.017,-0.001l0 -0.077c0.028,-0.001 0.047,-0.005 0.059,-0.014 0.012,-0.009 0.017,-0.026 0.017,-0.052l0.001 -0.021 -0.066 0 0 -0.173 0.163 0z"/>
  <polygon id="89" class="fil6" points="20.31,12.449 20.31,13.417 20.126,13.417 20.126,12.601 19.821,13.417 19.654,13.417 19.35,12.606 19.35,13.417 19.167,13.417 19.167,12.449 19.471,12.449 19.733,13.167 19.738,13.167 19.996,12.449 "/>
  <polygon id="90" class="fil6" points="20.658,12.603 20.658,12.855 21.112,12.855 21.112,12.993 20.658,12.993 20.658,13.265 21.139,13.265 21.139,13.417 20.474,13.417 20.474,12.449 21.135,12.449 21.135,12.603 "/>
  <path id="91" class="fil6" d="M21.287 13.258c0.019,-0.02 0.035,-0.042 0.048,-0.066 0.013,-0.024 0.023,-0.052 0.031,-0.083 0.008,-0.031 0.013,-0.067 0.017,-0.109 0.003,-0.041 0.005,-0.089 0.006,-0.144l0 -0.409 0.701 0 0 0.811 0.087 0 0 0.383 -0.173 0 0 -0.224 -0.614 0 0 0.224 -0.175 0 0 -0.383 0.073 0zm0.282 -0.652l0 0.249c0,0.069 -0.002,0.129 -0.007,0.178 -0.005,0.049 -0.014,0.093 -0.027,0.13 -0.013,0.037 -0.03,0.069 -0.052,0.094l0.419 0 0 -0.652 -0.334 0z"/>
  <path id="92" class="fil6" d="M23.148 12.449l-0.266 0 -0.33 0.649c-0.011,0.022 -0.021,0.041 -0.029,0.057 -0.008,0.016 -0.025,0.05 -0.051,0.102 0.009,-0.047 0.014,-0.104 0.014,-0.172l0 -0.636 -0.186 0 0 0.969 0.266 0 0.33 -0.651c0.011,-0.023 0.022,-0.044 0.032,-0.063 0.01,-0.019 0.026,-0.051 0.048,-0.096 -0.01,0.047 -0.014,0.104 -0.014,0.172l0 0.639 0.186 0 0 -0.969z"/>
  <polygon id="93" class="fil6" points="23.51,13.258 23.963,13.258 23.963,12.447 24.149,12.447 24.149,13.258 24.236,13.258 24.236,13.641 24.062,13.641 24.062,13.417 23.324,13.417 23.324,12.447 23.51,12.447 "/>
  <path id="94" class="fil6" d="M25.191 12.449l-0.266 0 -0.33 0.649c-0.011,0.022 -0.021,0.041 -0.029,0.057 -0.008,0.016 -0.025,0.05 -0.051,0.102 0.009,-0.047 0.014,-0.104 0.014,-0.172l0 -0.636 -0.186 0 0 0.969 0.266 0 0.33 -0.651c0.011,-0.023 0.022,-0.044 0.032,-0.063 0.01,-0.019 0.026,-0.051 0.048,-0.096 -0.01,0.047 -0.014,0.104 -0.014,0.172l0 0.639 0.186 0 0 -0.969z"/>
  <polygon id="95" class="fil6" points="26.191,12.449 26.191,13.417 26.005,13.417 26.005,13.003 25.553,13.003 25.553,13.417 25.367,13.417 25.367,12.449 25.553,12.449 25.553,12.846 26.005,12.846 26.005,12.449 "/>
  <path id="96" class="fil6" d="M26.358 13.417l0 -0.969 0.186 0 0 0.378 0.305 0c0.044,0 0.084,0.007 0.119,0.02 0.035,0.013 0.064,0.033 0.087,0.059 0.024,0.026 0.042,0.057 0.054,0.094 0.012,0.037 0.018,0.078 0.018,0.124 0,0.061 -0.011,0.114 -0.032,0.158 -0.022,0.044 -0.053,0.078 -0.094,0.101 -0.041,0.023 -0.091,0.035 -0.149,0.035l-0.494 0zm0.186 -0.154l0.243 0c0.039,0 0.07,-0.004 0.092,-0.011 0.022,-0.008 0.037,-0.021 0.047,-0.041 0.01,-0.02 0.015,-0.049 0.015,-0.086 0,-0.055 -0.012,-0.093 -0.035,-0.113 -0.023,-0.021 -0.063,-0.031 -0.119,-0.031l-0.243 0 0 0.283zm0.932 -0.815l0 0.969 -0.186 0 0 -0.969 0.186 0z"/>
  <path id="97" class="fil6" d="M28.839 12.449l-0.266 0 -0.33 0.649c-0.011,0.022 -0.021,0.041 -0.029,0.057 -0.008,0.016 -0.025,0.05 -0.051,0.102 0.009,-0.047 0.014,-0.104 0.014,-0.172l0 -0.636 -0.186 0 0 0.969 0.266 0 0.33 -0.651c0.011,-0.023 0.022,-0.044 0.032,-0.063 0.01,-0.019 0.026,-0.051 0.048,-0.096 -0.01,0.047 -0.014,0.104 -0.014,0.172l0 0.639 0.186 0 0 -0.969z"/>
  <path id="98" class="fil6" d="M29.348 12.913c0,-0.096 0.006,-0.174 0.019,-0.234 0.012,-0.06 0.034,-0.107 0.064,-0.143 0.03,-0.035 0.072,-0.06 0.124,-0.076 0.053,-0.015 0.121,-0.023 0.206,-0.023 0.084,0 0.153,0.008 0.205,0.023 0.053,0.015 0.094,0.04 0.125,0.076 0.031,0.035 0.053,0.083 0.065,0.143 0.013,0.06 0.02,0.138 0.02,0.233 0,0.11 -0.007,0.198 -0.02,0.264 -0.013,0.066 -0.035,0.118 -0.065,0.155 -0.031,0.036 -0.072,0.062 -0.124,0.076 -0.052,0.014 -0.121,0.022 -0.206,0.022 -0.091,0 -0.162,-0.007 -0.215,-0.021 -0.053,-0.014 -0.094,-0.039 -0.122,-0.076 -0.029,-0.036 -0.049,-0.088 -0.06,-0.153 -0.011,-0.065 -0.017,-0.155 -0.017,-0.267zm0.189 0.02c0,0.081 0.003,0.142 0.008,0.185 0.006,0.043 0.016,0.075 0.031,0.097 0.015,0.022 0.037,0.037 0.065,0.044 0.028,0.007 0.068,0.011 0.12,0.011 0.051,0 0.092,-0.004 0.12,-0.012 0.029,-0.008 0.051,-0.023 0.066,-0.045 0.015,-0.022 0.026,-0.055 0.031,-0.097 0.006,-0.042 0.009,-0.103 0.009,-0.183 0,-0.081 -0.003,-0.143 -0.009,-0.187 -0.006,-0.044 -0.017,-0.077 -0.033,-0.098 -0.016,-0.021 -0.037,-0.036 -0.064,-0.042 -0.027,-0.006 -0.067,-0.01 -0.12,-0.01 -0.054,0 -0.095,0.003 -0.122,0.009 -0.027,0.006 -0.048,0.02 -0.063,0.042 -0.015,0.022 -0.025,0.054 -0.031,0.097 -0.006,0.043 -0.008,0.106 -0.008,0.188z"/>
  <path id="99" class="fil6" d="M30.328 13.417l0 -0.969 0.676 0 0 0.154 -0.491 0 0 0.224 0.307 0c0.059,0 0.11,0.012 0.151,0.035 0.041,0.024 0.072,0.058 0.093,0.103 0.021,0.045 0.031,0.099 0.031,0.161 0,0.061 -0.01,0.114 -0.031,0.158 -0.021,0.044 -0.051,0.077 -0.092,0.1 -0.041,0.023 -0.091,0.034 -0.15,0.034l-0.494 0zm0.185 -0.154l0.237 0c0.04,0 0.071,-0.004 0.094,-0.011 0.023,-0.008 0.039,-0.022 0.049,-0.041 0.01,-0.02 0.015,-0.048 0.015,-0.086 0,-0.055 -0.011,-0.093 -0.034,-0.114 -0.023,-0.02 -0.062,-0.031 -0.118,-0.031l-0.243 0 0 0.283z"/>
  <path id="100" class="fil6" d="M31.222 13.417l0 -0.969 0.412 0c0.085,0 0.153,0.008 0.204,0.025 0.052,0.017 0.091,0.049 0.118,0.095 0.027,0.046 0.04,0.112 0.04,0.198 0,0.066 -0.006,0.121 -0.018,0.164 -0.012,0.043 -0.032,0.076 -0.058,0.101 -0.027,0.025 -0.062,0.042 -0.105,0.052 -0.043,0.01 -0.098,0.015 -0.164,0.015l-0.243 0 0 0.318 -0.186 0zm0.186 -0.473l0.229 0c0.044,0 0.078,-0.005 0.102,-0.014 0.024,-0.009 0.042,-0.025 0.053,-0.048 0.011,-0.023 0.016,-0.056 0.016,-0.099 0,-0.047 -0.005,-0.083 -0.016,-0.109 -0.011,-0.026 -0.029,-0.044 -0.053,-0.054 -0.025,-0.011 -0.058,-0.016 -0.101,-0.016l-0.229 0 0 0.339z"/>
  <path id="101" class="fil6" d="M32.745 13.232l-0.419 0 -0.061 0.185 -0.193 0 0.322 -0.969 0.273 0 0.328 0.969 -0.189 0 -0.062 -0.185zm-0.043 -0.138l-0.168 -0.503 -0.166 0.503 0.333 0z"/>
  <path id="102" class="fil6" d="M33.337 12.856l0.15 0c0.058,0 0.1,-0.011 0.128,-0.032 0.027,-0.021 0.041,-0.055 0.041,-0.102 0,-0.036 -0.006,-0.063 -0.018,-0.083 -0.012,-0.02 -0.033,-0.034 -0.061,-0.042 -0.028,-0.008 -0.069,-0.013 -0.121,-0.013 -0.043,0 -0.077,0.002 -0.102,0.007 -0.025,0.005 -0.046,0.012 -0.06,0.023 -0.015,0.011 -0.025,0.026 -0.031,0.045 -0.006,0.019 -0.009,0.043 -0.01,0.074l-0.177 0c0.006,-0.078 0.022,-0.139 0.047,-0.181 0.026,-0.042 0.065,-0.072 0.118,-0.089 0.053,-0.017 0.125,-0.025 0.218,-0.025 0.127,0 0.221,0.02 0.283,0.061 0.062,0.041 0.092,0.103 0.092,0.188 0,0.068 -0.01,0.119 -0.03,0.153 -0.02,0.033 -0.056,0.058 -0.107,0.075l0 0.005c0.042,0.011 0.074,0.026 0.098,0.044 0.023,0.018 0.04,0.041 0.05,0.07 0.01,0.028 0.014,0.064 0.014,0.106 0,0.068 -0.012,0.123 -0.035,0.164 -0.023,0.041 -0.064,0.072 -0.122,0.093 -0.058,0.02 -0.139,0.03 -0.244,0.03 -0.065,0 -0.121,-0.004 -0.169,-0.011 -0.047,-0.008 -0.087,-0.021 -0.12,-0.041 -0.033,-0.02 -0.058,-0.049 -0.075,-0.086 -0.017,-0.037 -0.026,-0.085 -0.026,-0.143l0 -0.04 0.175 0c0.001,0.049 0.006,0.085 0.013,0.108 0.008,0.023 0.027,0.039 0.057,0.05 0.03,0.011 0.078,0.017 0.144,0.017 0.058,0 0.103,-0.004 0.135,-0.013 0.032,-0.009 0.055,-0.023 0.069,-0.043 0.014,-0.02 0.021,-0.048 0.021,-0.085 0,-0.052 -0.013,-0.09 -0.04,-0.112 -0.027,-0.022 -0.068,-0.034 -0.123,-0.034l-0.18 0 0 -0.138z"/>
  <path id="103" class="fil6" d="M33.972 12.913c0,-0.096 0.006,-0.174 0.019,-0.234 0.012,-0.06 0.034,-0.107 0.064,-0.143 0.03,-0.035 0.072,-0.06 0.124,-0.076 0.053,-0.015 0.121,-0.023 0.206,-0.023 0.084,0 0.153,0.008 0.205,0.023 0.053,0.015 0.094,0.04 0.125,0.076 0.031,0.035 0.053,0.083 0.065,0.143 0.013,0.06 0.02,0.138 0.02,0.233 0,0.11 -0.007,0.198 -0.02,0.264 -0.013,0.066 -0.035,0.118 -0.065,0.155 -0.031,0.036 -0.072,0.062 -0.124,0.076 -0.052,0.014 -0.121,0.022 -0.206,0.022 -0.091,0 -0.162,-0.007 -0.215,-0.021 -0.053,-0.014 -0.094,-0.039 -0.122,-0.076 -0.029,-0.036 -0.049,-0.088 -0.06,-0.153 -0.011,-0.065 -0.017,-0.155 -0.017,-0.267zm0.189 0.02c0,0.081 0.003,0.142 0.008,0.185 0.006,0.043 0.016,0.075 0.031,0.097 0.015,0.022 0.037,0.037 0.065,0.044 0.028,0.007 0.068,0.011 0.12,0.011 0.051,0 0.092,-0.004 0.12,-0.012 0.029,-0.008 0.051,-0.023 0.066,-0.045 0.015,-0.022 0.026,-0.055 0.031,-0.097 0.006,-0.042 0.009,-0.103 0.009,-0.183 0,-0.081 -0.003,-0.143 -0.009,-0.187 -0.006,-0.044 -0.017,-0.077 -0.033,-0.098 -0.016,-0.021 -0.037,-0.036 -0.064,-0.042 -0.027,-0.006 -0.067,-0.01 -0.12,-0.01 -0.054,0 -0.095,0.003 -0.122,0.009 -0.027,0.006 -0.048,0.02 -0.063,0.042 -0.015,0.022 -0.025,0.054 -0.031,0.097 -0.006,0.043 -0.008,0.106 -0.008,0.188z"/>
  <path id="104" class="fil6" d="M35.137 12.603l0 0.251 0.235 0c0.042,0 0.075,-0.003 0.097,-0.01 0.022,-0.007 0.039,-0.019 0.049,-0.039 0.01,-0.019 0.016,-0.048 0.016,-0.086 0,-0.045 -0.01,-0.075 -0.03,-0.092 -0.02,-0.016 -0.053,-0.025 -0.1,-0.025l-0.267 0zm0 0.389l0 0.272 0.235 0c0.064,0 0.111,-0.01 0.14,-0.03 0.029,-0.02 0.044,-0.056 0.044,-0.108 0,-0.034 -0.005,-0.061 -0.015,-0.081 -0.01,-0.019 -0.026,-0.033 -0.047,-0.041 -0.022,-0.008 -0.051,-0.012 -0.088,-0.012l-0.269 0zm-0.184 0.425l0 -0.969 0.497 0c0.059,0 0.108,0.008 0.148,0.025 0.04,0.017 0.07,0.044 0.091,0.08 0.021,0.036 0.031,0.082 0.031,0.138 0,0.123 -0.046,0.197 -0.138,0.223l0 0.006c0.052,0.008 0.091,0.031 0.119,0.069 0.028,0.038 0.041,0.088 0.041,0.15 0,0.043 -0.006,0.081 -0.017,0.116 -0.011,0.034 -0.028,0.064 -0.052,0.088 -0.023,0.024 -0.052,0.043 -0.086,0.055 -0.034,0.013 -0.075,0.019 -0.122,0.019l-0.512 0z"/>
  <path id="105" class="fil6" d="M36.486 13.232l-0.419 0 -0.061 0.185 -0.193 0 0.322 -0.969 0.273 0 0.328 0.969 -0.189 0 -0.062 -0.185zm-0.043 -0.138l-0.168 -0.503 -0.166 0.503 0.333 0z"/>
  <polygon id="106" class="fil6" points="37.666,12.449 37.666,13.417 37.48,13.417 37.48,13.003 37.029,13.003 37.029,13.417 36.843,13.417 36.843,12.449 37.029,12.449 37.029,12.846 37.48,12.846 37.48,12.449 "/>
  <path id="107" class="fil6" d="M38.684 12.449l-0.266 0 -0.33 0.649c-0.011,0.022 -0.021,0.041 -0.029,0.057 -0.008,0.016 -0.025,0.05 -0.051,0.102 0.009,-0.047 0.014,-0.104 0.014,-0.172l0 -0.636 -0.186 0 0 0.969 0.266 0 0.33 -0.651c0.011,-0.023 0.022,-0.044 0.032,-0.063 0.01,-0.019 0.026,-0.051 0.048,-0.096 -0.01,0.047 -0.014,0.104 -0.014,0.172l0 0.639 0.186 0 0 -0.969z"/>
  <path id="108" class="fil6" d="M39.612 13.417l0 -0.969 -0.49 0c-0.101,0 -0.176,0.027 -0.224,0.082 -0.047,0.055 -0.071,0.132 -0.071,0.231 0,0.082 0.016,0.144 0.047,0.187 0.032,0.043 0.078,0.077 0.139,0.102l-0.212 0.366 0.212 0 0.19 -0.341 0.225 0 0 0.341 0.184 0zm-0.184 -0.49l-0.269 0c-0.035,0 -0.063,-0.005 -0.084,-0.014 -0.021,-0.01 -0.037,-0.026 -0.047,-0.05 -0.01,-0.024 -0.015,-0.056 -0.015,-0.098 0,-0.058 0.011,-0.098 0.033,-0.122 0.022,-0.023 0.06,-0.035 0.113,-0.035l0.269 -0.001 0 0.319z"/>
  <polygon id="109" class="fil6" points="39.932,13.241 39.932,13.417 39.77,13.417 39.77,13.241 "/>
  <polygon class="fil7" points="56.791,3.734 60.109,1.487 60.109,3.361 56.791,5.608 "/>
  <polygon class="fil8" points="56.791,3.734 41.669,3.734 41.669,5.608 56.791,5.608 "/>
  <polygon class="fil9" points="41.921,3.542 57.082,3.538 56.791,3.734 41.669,3.734 "/>
  <polygon class="fil10" points="59.848,1.487 56.728,3.542 56.791,3.734 60.109,1.487 "/>
  <polygon class="fil6" points="45.354,4.504 45.354,5.155 45.018,5.155 45.018,4.246 46.016,4.246 46.016,4.504 "/>
  <polygon id="1" class="fil6" points="46.381,5.155 46.036,5.155 46.036,5.153 46.474,4.246 46.825,4.246 47.263,5.153 47.263,5.155 46.913,5.155 46.648,4.536 "/>
  <path id="2" class="fil6" d="M48.149 5.155l-0.049 -0.122 -0.43 0 -0.054 0.122 -0.345 0 0 -0.002 0.438 -0.907 0.351 0 0.438 0.907 0 0.002 -0.35 0zm-0.265 -0.619l-0.108 0.263 0.219 0 -0.111 -0.263z"/>
  <path id="3" class="fil6" d="M49.674 5.035c0,0.037 -0.01,0.066 -0.03,0.087 -0.02,0.022 -0.048,0.033 -0.083,0.033l-0.974 0 0 -0.909 0.968 0c0.035,0 0.062,0.011 0.081,0.033 0.019,0.022 0.029,0.051 0.029,0.087l0 0.17c0,0.025 -0.005,0.045 -0.015,0.061 -0.01,0.016 -0.025,0.03 -0.046,0.041l-0.111 0.061 0.117 0.059c0.021,0.01 0.036,0.023 0.047,0.037 0.011,0.015 0.016,0.034 0.016,0.059l0 0.18zm-0.344 -0.554l-0.408 0 0 0.124 0.306 0 0.102 -0.07 0 -0.054zm0.008 0.376l-0.111 -0.064 -0.306 0 0 0.129 0.416 0 0 -0.064z"/>
  <polygon id="4" class="fil6" points="50.605,5.155 50.605,4.861 50.176,4.861 50.176,5.155 49.841,5.155 49.841,4.246 50.176,4.246 50.176,4.576 50.605,4.576 50.605,4.246 50.94,4.246 50.94,5.155 "/>
  <path id="5" class="fil6" d="M51.905 5.155l-0.049 -0.122 -0.43 0 -0.054 0.122 -0.345 0 0 -0.002 0.438 -0.907 0.351 0 0.438 0.907 0 0.002 -0.35 0zm-0.265 -0.619l-0.108 0.263 0.219 0 -0.111 -0.263z"/>
  <path id="6" class="fil6" d="M52.285 5.155l0 -0.01 0.275 -0.258 -0.105 0c-0.034,0 -0.061,-0.01 -0.082,-0.031 -0.021,-0.021 -0.031,-0.049 -0.031,-0.086l0 -0.404c0,-0.037 0.01,-0.066 0.031,-0.087 0.021,-0.022 0.048,-0.033 0.082,-0.033l0.936 0 0 0.909 -0.335 0 0 -0.663 -0.378 0 0 0.183 0.326 0 0 0.145 -0.335 0.334 -0.383 0z"/>
  <g id="_3019997590400">
   <polygon class="fil7" points="56.791,8.929 60.109,6.682 60.109,8.556 56.791,10.803 "/>
   <polygon class="fil8" points="56.791,8.929 41.669,8.929 41.669,10.803 56.791,10.803 "/>
   <polygon class="fil9" points="41.921,8.737 57.082,8.733 56.791,8.929 41.669,8.929 "/>
   <polygon class="fil10" points="59.848,6.682 56.728,8.737 56.791,8.929 60.109,6.682 "/>
   <polygon class="fil6" points="42.937,10.288 42.937,9.75 42.583,9.75 42.583,10.288 42.306,10.288 42.306,9.537 43.214,9.537 43.214,10.288 "/>
   <path id="1" class="fil6" d="M44.26 10.188c0,0.03 -0.008,0.054 -0.024,0.072 -0.016,0.018 -0.038,0.027 -0.067,0.027l-0.725 0c-0.029,0 -0.051,-0.009 -0.067,-0.027 -0.016,-0.018 -0.024,-0.042 -0.024,-0.072l0 -0.552c0,-0.03 0.008,-0.054 0.024,-0.072 0.016,-0.018 0.038,-0.027 0.067,-0.027l0.725 0c0.029,0 0.051,0.009 0.067,0.027 0.016,0.018 0.024,0.042 0.024,0.072l0 0.552zm-0.277 -0.448l-0.354 0 0 0.344 0.354 0 0 -0.344z"/>
   <path id="2" class="fil6" d="M45.306 10.188c0,0.03 -0.008,0.054 -0.025,0.072 -0.017,0.018 -0.04,0.027 -0.068,0.027l-0.723 0c-0.029,0 -0.051,-0.009 -0.067,-0.027 -0.016,-0.018 -0.024,-0.042 -0.024,-0.072l0 -0.552c0,-0.03 0.008,-0.054 0.024,-0.072 0.016,-0.018 0.038,-0.027 0.067,-0.027l0.723 0c0.029,0 0.052,0.009 0.068,0.027 0.017,0.018 0.025,0.042 0.025,0.072l0 0.217 -0.277 0 0 -0.113 -0.354 0 0 0.344 0.354 0 0 -0.113 0.277 0 0 0.217z"/>
   <polygon id="3" class="fil6" points="45.981,9.75 45.981,10.288 45.704,10.288 45.704,9.75 45.387,9.75 45.387,9.537 46.297,9.537 46.297,9.75 "/>
   <polygon id="4" class="fil6" points="46.916,10.289 46.619,10.289 46.719,10.084 46.316,9.537 46.642,9.537 46.846,9.834 46.996,9.535 47.305,9.535 "/>
   <polygon id="5" class="fil6" points="48.004,10.288 48.004,9.75 47.651,9.75 47.651,10.288 47.373,10.288 47.373,9.537 48.282,9.537 48.282,10.288 "/>
   <polygon id="6" class="fil6" points="48.419,10.288 48.419,9.537 48.697,9.537 48.697,9.9 49.053,9.537 49.327,9.537 49.327,10.288 49.05,10.288 49.05,9.893 48.693,10.288 "/>
   <polygon id="7" class="fil6" points="49.465,10.074 49.465,9.874 49.93,9.874 49.93,10.074 "/>
   <path id="8" class="fil6" d="M50.975 10.188c0,0.03 -0.008,0.054 -0.024,0.072 -0.016,0.018 -0.038,0.027 -0.067,0.027l-0.725 0c-0.029,0 -0.051,-0.009 -0.067,-0.027 -0.016,-0.018 -0.024,-0.042 -0.024,-0.072l0 -0.552c0,-0.03 0.008,-0.054 0.024,-0.072 0.016,-0.018 0.038,-0.027 0.067,-0.027l0.725 0c0.029,0 0.051,0.009 0.067,0.027 0.016,0.018 0.024,0.042 0.024,0.072l0 0.552zm-0.277 -0.448l-0.354 0 0 0.344 0.354 0 0 -0.344z"/>
   <polygon id="9" class="fil6" points="51.744,10.288 51.744,10.045 51.39,10.045 51.39,10.288 51.113,10.288 51.113,9.537 51.39,9.537 51.39,9.809 51.744,9.809 51.744,9.537 52.021,9.537 52.021,10.288 "/>
   <polygon id="10" class="fil6" points="52.379,10.288 52.094,10.288 52.094,10.286 52.455,9.537 52.745,9.537 53.107,10.286 53.107,10.288 52.818,10.288 52.599,9.777 "/>
   <path id="11" class="fil6" d="M53.839 10.288l-0.04 -0.101 -0.355 0 -0.044 0.101 -0.285 0 0 -0.002 0.362 -0.749 0.29 0 0.362 0.749 0 0.002 -0.289 0zm-0.219 -0.511l-0.089 0.217 0.181 0 -0.091 -0.217z"/>
   <path id="12" class="fil6" d="M54.201 10.288l0 -0.751 0.278 0 0 0.363 0.356 -0.363 0.274 0 0 0.751 -0.277 0 0 -0.395 -0.357 0.395 -0.274 0zm0.237 -0.793c-0.016,0 -0.029,-0.006 -0.041,-0.018 -0.011,-0.012 -0.017,-0.026 -0.017,-0.042l0 -0.137 0.174 0 0 0.041 0.196 0 0 -0.041 0.174 0 0 0.137c0,0.016 -0.006,0.03 -0.017,0.042 -0.011,0.012 -0.025,0.018 -0.041,0.018l-0.428 0z"/>
   <polygon id="13" class="fil6" points="55.877,10.288 55.877,10.045 55.524,10.045 55.524,10.288 55.247,10.288 55.247,9.537 55.524,9.537 55.524,9.809 55.877,9.809 55.877,9.537 56.155,9.537 56.155,10.288 "/>
  </g>
  <g id="_3019997595072">
   <polygon class="fil7" points="56.791,6.332 60.109,4.085 60.109,5.958 56.791,8.205 "/>
   <polygon class="fil8" points="56.791,6.332 41.669,6.332 41.669,8.205 56.791,8.205 "/>
   <polygon class="fil9" points="41.921,6.139 57.082,6.135 56.791,6.332 41.669,6.332 "/>
   <polygon class="fil10" points="59.848,4.085 56.728,6.139 56.791,6.332 60.109,4.085 "/>
   <polygon class="fil6" points="45.828,7.753 45.828,7.44 45.372,7.44 45.372,7.753 45.015,7.753 45.015,6.785 45.372,6.785 45.372,7.136 45.828,7.136 45.828,6.785 46.186,6.785 46.186,7.753 "/>
   <path id="1" class="fil6" d="M47.213 7.753l-0.052 -0.13 -0.457 0 -0.057 0.13 -0.367 0 0 -0.003 0.466 -0.965 0.374 0 0.466 0.965 0 0.003 -0.372 0zm-0.282 -0.659l-0.115 0.28 0.233 0 -0.118 -0.28z"/>
   <polygon id="2" class="fil6" points="48.581,7.478 48.784,7.478 48.784,6.785 49.132,6.785 49.132,7.753 47.679,7.753 47.679,6.785 48.026,6.785 48.026,7.478 48.23,7.478 48.23,6.785 48.581,6.785 "/>
   <path id="3" class="fil6" d="M50.507 6.785l0.357 0 0 0.968 -0.357 0 0 -0.244 -0.642 0c-0.037,0 -0.066,-0.012 -0.088,-0.035 -0.021,-0.023 -0.032,-0.054 -0.032,-0.093l0 -0.595 0.357 0 0 0.47 0.405 0 0 -0.47z"/>
   <path id="4" class="fil6" d="M51.879 7.753l-0.052 -0.13 -0.457 0 -0.057 0.13 -0.367 0 0 -0.003 0.466 -0.965 0.374 0 0.466 0.965 0 0.003 -0.372 0zm-0.282 -0.659l-0.115 0.28 0.233 0 -0.118 -0.28z"/>
   <polygon id="5" class="fil6" points="53.038,7.06 53.038,7.753 52.681,7.753 52.681,7.06 52.273,7.06 52.273,6.785 53.446,6.785 53.446,7.06 "/>
  </g>
  <polygon class="fil7" points="56.791,11.527 60.109,9.28 60.109,11.153 56.791,13.401 "/>
  <polygon class="fil8" points="56.791,11.527 41.669,11.527 41.669,13.401 56.791,13.401 "/>
  <polygon class="fil9" points="41.921,11.334 57.082,11.33 56.791,11.527 41.669,11.527 "/>
  <polygon class="fil10" points="59.848,9.28 56.728,11.334 56.791,11.527 60.109,9.28 "/>
  <path class="fil6" d="M46.002 12.445c0,0.031 -0.009,0.056 -0.026,0.074 -0.017,0.018 -0.041,0.028 -0.07,0.028l-0.826 0 0 -0.771 0.821 0c0.03,0 0.053,0.009 0.069,0.028 0.016,0.018 0.025,0.043 0.025,0.074l0 0.144c0,0.021 -0.004,0.038 -0.013,0.052 -0.008,0.014 -0.021,0.025 -0.039,0.035l-0.094 0.051 0.099 0.05c0.017,0.009 0.031,0.019 0.04,0.032 0.009,0.012 0.014,0.029 0.014,0.05l0 0.152zm-0.291 -0.47l-0.346 0 0 0.105 0.259 0 0.087 -0.06 0 -0.045zm0.007 0.319l-0.094 -0.054 -0.259 0 0 0.109 0.353 0 0 -0.054z"/>
  <path id="1" class="fil6" d="M46.82 12.547l-0.041 -0.104 -0.364 0 -0.045 0.104 -0.293 0 0 -0.002 0.371 -0.768 0.298 0 0.371 0.768 0 0.002 -0.297 0zm-0.225 -0.524l-0.092 0.223 0.186 0 -0.094 -0.223z"/>
  <polygon id="2" class="fil6" points="47.736,12.547 47.476,12.274 47.476,12.547 47.191,12.547 47.191,11.777 47.476,11.777 47.476,12.033 47.684,11.777 48.046,11.777 48.046,11.784 47.706,12.141 48.105,12.54 48.105,12.547 "/>
  <path id="3" class="fil6" d="M48.824 12.547l-0.041 -0.104 -0.364 0 -0.045 0.104 -0.293 0 0 -0.002 0.371 -0.768 0.298 0 0.371 0.768 0 0.002 -0.297 0zm-0.225 -0.524l-0.092 0.223 0.186 0 -0.094 -0.223z"/>
  <polygon id="4" class="fil6" points="49.843,12.547 49.843,12.298 49.48,12.298 49.48,12.547 49.195,12.547 49.195,11.777 49.48,11.777 49.48,12.056 49.843,12.056 49.843,11.777 50.127,11.777 50.127,12.547 "/>
  <path id="5" class="fil6" d="M51.2 12.445c0,0.031 -0.009,0.056 -0.026,0.074 -0.017,0.018 -0.041,0.028 -0.07,0.028l-0.742 0c-0.03,0 -0.053,-0.009 -0.069,-0.028 -0.016,-0.019 -0.025,-0.043 -0.025,-0.074l0 -0.567c0,-0.031 0.008,-0.056 0.025,-0.074 0.016,-0.018 0.04,-0.028 0.069,-0.028l0.742 0c0.03,0 0.053,0.009 0.07,0.028 0.017,0.018 0.026,0.043 0.026,0.074l0 0.223 -0.284 0 0 -0.116 -0.363 0 0 0.353 0.363 0 0 -0.116 0.284 0 0 0.223z"/>
  <polygon id="6" class="fil6" points="51.342,12.547 51.342,11.777 51.627,11.777 51.627,12.149 51.992,11.777 52.273,11.777 52.273,12.547 51.989,12.547 51.989,12.142 51.623,12.547 "/>
  <polygon id="7" class="fil6" points="52.415,12.547 52.415,11.777 52.7,11.777 52.7,12.149 53.065,11.777 53.347,11.777 53.347,12.547 53.062,12.547 53.062,12.142 52.696,12.547 "/>
  <polygon id="8" class="fil6" points="45.216,12.949 45.216,13.204 45.085,13.204 45.085,12.848 45.475,12.848 45.475,12.949 "/>
  <polygon id="9" class="fil6" points="45.618,13.204 45.483,13.204 45.483,13.203 45.655,12.848 45.792,12.848 45.963,13.203 45.963,13.204 45.826,13.204 45.723,12.962 "/>
  <path id="10" class="fil6" d="M46.31 13.204l-0.019 -0.048 -0.168 0 -0.021 0.048 -0.135 0 0 -0.001 0.171 -0.355 0.137 0 0.171 0.355 0 0.001 -0.137 0zm-0.104 -0.242l-0.042 0.103 0.086 0 -0.043 -0.103z"/>
  <path id="11" class="fil6" d="M46.912 13.157c0,0.014 -0.004,0.026 -0.011,0.034 -0.008,0.009 -0.018,0.013 -0.032,0.013l-0.344 0c-0.014,0 -0.024,-0.004 -0.032,-0.013 -0.008,-0.009 -0.011,-0.02 -0.011,-0.034l0 -0.074 0.131 0 0 0.025 0.168 0 0 -0.021 -0.14 -0.044 0 -0.042 0.14 -0.044 0 -0.012 -0.168 0 0 0.025 -0.131 0 0 -0.074c0,-0.014 0.004,-0.026 0.011,-0.034 0.008,-0.009 0.018,-0.013 0.032,-0.013l0.344 0c0.014,0 0.024,0.004 0.032,0.013 0.008,0.009 0.011,0.02 0.011,0.034l0 0.072c0,0.022 -0.012,0.036 -0.037,0.042l-0.049 0.012 0.049 0.007c0.012,0.002 0.021,0.005 0.027,0.011 0.006,0.006 0.01,0.015 0.01,0.026l0 0.091z"/>
  <path id="12" class="fil6" d="M47.407 13.157c0,0.014 -0.004,0.026 -0.011,0.034 -0.008,0.009 -0.018,0.013 -0.032,0.013l-0.344 0c-0.014,0 -0.024,-0.004 -0.032,-0.013 -0.008,-0.009 -0.011,-0.02 -0.011,-0.034l0 -0.262c0,-0.014 0.004,-0.026 0.011,-0.034 0.008,-0.009 0.018,-0.013 0.032,-0.013l0.344 0c0.014,0 0.024,0.004 0.032,0.013 0.008,0.009 0.011,0.02 0.011,0.034l0 0.262zm-0.131 -0.212l-0.168 0 0 0.163 0.168 0 0 -0.163z"/>
  <path id="13" class="fil6" d="M47.897 13.157c0,0.014 -0.004,0.026 -0.012,0.034 -0.008,0.009 -0.019,0.013 -0.032,0.013l-0.381 0 0 -0.356 0.379 0c0.014,0 0.024,0.004 0.032,0.013 0.008,0.009 0.011,0.02 0.011,0.034l0 0.067c0,0.01 -0.002,0.018 -0.006,0.024 -0.004,0.006 -0.01,0.012 -0.018,0.016l-0.043 0.024 0.046 0.023c0.008,0.004 0.014,0.009 0.018,0.015 0.004,0.006 0.006,0.013 0.006,0.023l0 0.07zm-0.135 -0.217l-0.16 0 0 0.048 0.12 0 0.04 -0.027 0 -0.021zm0.003 0.147l-0.043 -0.025 -0.12 0 0 0.05 0.163 0 0 -0.025z"/>
  <path id="14" class="fil6" d="M48.393 13.157c0,0.014 -0.004,0.026 -0.012,0.034 -0.008,0.009 -0.019,0.013 -0.032,0.013l-0.343 0c-0.014,0 -0.024,-0.004 -0.032,-0.013 -0.008,-0.009 -0.011,-0.02 -0.011,-0.034l0 -0.262c0,-0.014 0.004,-0.026 0.011,-0.034 0.008,-0.009 0.018,-0.013 0.032,-0.013l0.343 0c0.014,0 0.024,0.004 0.032,0.013 0.008,0.009 0.012,0.02 0.012,0.034l0 0.103 -0.131 0 0 -0.054 -0.168 0 0 0.163 0.168 0 0 -0.054 0.131 0 0 0.103z"/>
  <polygon id="15" class="fil6" points="48.709,13.204 48.589,13.078 48.589,13.204 48.458,13.204 48.458,12.848 48.589,12.848 48.589,12.966 48.686,12.848 48.853,12.848 48.853,12.851 48.696,13.016 48.88,13.2 48.88,13.204 "/>
  <path id="16" class="fil6" d="M49.329 13.157c0,0.014 -0.004,0.026 -0.011,0.034 -0.008,0.009 -0.018,0.013 -0.032,0.013l-0.344 0c-0.014,0 -0.024,-0.004 -0.032,-0.013 -0.008,-0.009 -0.011,-0.02 -0.011,-0.034l0 -0.262c0,-0.014 0.004,-0.026 0.011,-0.034 0.008,-0.009 0.018,-0.013 0.032,-0.013l0.344 0c0.014,0 0.024,0.004 0.032,0.013 0.008,0.009 0.011,0.02 0.011,0.034l0 0.262zm-0.131 -0.212l-0.168 0 0 0.163 0.168 0 0 -0.163z"/>
  <polygon id="17" class="fil6" points="49.526,12.949 49.526,13.204 49.394,13.204 49.394,12.848 49.785,12.848 49.785,12.949 "/>
  <path id="18" class="fil6" d="M50.254 13.157c0,0.014 -0.004,0.026 -0.011,0.034 -0.008,0.009 -0.018,0.013 -0.032,0.013l-0.344 0c-0.014,0 -0.024,-0.004 -0.032,-0.013 -0.008,-0.009 -0.011,-0.02 -0.011,-0.034l0 -0.262c0,-0.014 0.004,-0.026 0.011,-0.034 0.008,-0.009 0.018,-0.013 0.032,-0.013l0.344 0c0.014,0 0.024,0.004 0.032,0.013 0.008,0.009 0.011,0.02 0.011,0.034l0 0.262zm-0.131 -0.212l-0.168 0 0 0.163 0.168 0 0 -0.163z"/>
  <path id="19" class="fil6" d="M50.893 13.067c0,0.014 -0.004,0.026 -0.012,0.034 -0.008,0.009 -0.019,0.013 -0.032,0.013l-0.236 0 0 0.09 -0.131 0 0 -0.356 0.368 0c0.014,0 0.024,0.004 0.032,0.013 0.008,0.009 0.011,0.02 0.011,0.034l0 0.172zm-0.131 -0.122l-0.149 0 0 0.076 0.149 0 0 -0.076z"/>
  <path id="20" class="fil6" d="M51.266 13.204l-0.019 -0.048 -0.168 0 -0.021 0.048 -0.135 0 0 -0.001 0.171 -0.355 0.137 0 0.171 0.355 0 0.001 -0.137 0zm-0.104 -0.242l-0.042 0.103 0.086 0 -0.043 -0.103z"/>
  <path id="21" class="fil6" d="M51.438 13.204l0 -0.356 0.132 0 0 0.172 0.168 -0.172 0.13 0 0 0.356 -0.131 0 0 -0.187 -0.169 0.187 -0.13 0zm0.112 -0.376c-0.007,0 -0.014,-0.003 -0.019,-0.009 -0.005,-0.006 -0.008,-0.012 -0.008,-0.02l0 -0.065 0.082 0 0 0.02 0.093 0 0 -0.02 0.082 0 0 0.065c0,0.007 -0.003,0.014 -0.008,0.02 -0.005,0.006 -0.012,0.009 -0.019,0.009l-0.202 0z"/>
  <path id="22" class="fil6" d="M52.363 13.157c0,0.014 -0.004,0.026 -0.011,0.034 -0.008,0.009 -0.018,0.013 -0.032,0.013l-0.344 0c-0.014,0 -0.024,-0.004 -0.032,-0.013 -0.008,-0.009 -0.011,-0.02 -0.011,-0.034l0 -0.262c0,-0.014 0.004,-0.026 0.011,-0.034 0.008,-0.009 0.018,-0.013 0.032,-0.013l0.344 0c0.014,0 0.024,0.004 0.032,0.013 0.008,0.009 0.011,0.02 0.011,0.034l0 0.262zm-0.131 -0.212l-0.168 0 0 0.163 0.168 0 0 -0.163z"/>
  <polygon id="23" class="fil6" points="52.727,13.204 52.727,13.089 52.559,13.089 52.559,13.204 52.428,13.204 52.428,12.848 52.559,12.848 52.559,12.977 52.727,12.977 52.727,12.848 52.858,12.848 52.858,13.204 "/>
  <path id="24" class="fil6" d="M53.236 13.204l-0.019 -0.048 -0.168 0 -0.021 0.048 -0.135 0 0 -0.001 0.171 -0.355 0.137 0 0.171 0.355 0 0.001 -0.137 0zm-0.104 -0.242l-0.042 0.103 0.086 0 -0.043 -0.103z"/>
 </g>
</svg>
